<?xml version="1.0" encoding="UTF-8" standalone="no"?>
<!DOCTYPE svg PUBLIC "-//W3C//DTD SVG 1.1//EN"
 "http://www.w3.org/Graphics/SVG/1.1/DTD/svg11.dtd">
<!-- Generated by graphviz version 2.43.0 (0)
 -->
<!-- Title: perl6&#45;type&#45;graph Pages: 1 -->
<svg width="465pt" height="404pt"
 viewBox="0.00 0.00 465.44 404.00" xmlns="http://www.w3.org/2000/svg" xmlns:xlink="http://www.w3.org/1999/xlink">
<g id="graph0" class="graph" transform="scale(1 1) rotate(0) translate(4 400)">
<title>perl6&#45;type&#45;graph</title>
<polygon fill="white" stroke="transparent" points="-4,4 -4,-400 461.44,-400 461.44,4 -4,4"/>
<!-- Allomorph -->
<g id="node1" class="node">
<title>Allomorph</title>
<g id="a_node1"><a xlink:href="/type/Allomorph" xlink:title="Allomorph">
<ellipse fill="none" stroke="#000000" cx="321.9" cy="-90" rx="50.09" ry="18"/>
<text text-anchor="middle" x="321.9" y="-86.3" font-family="FreeSans" font-size="14.00" fill="#000000">Allomorph</text>
</a>
</g>
</g>
<!-- Str -->
<g id="node6" class="node">
<title>Str</title>
<g id="a_node6"><a xlink:href="/type/Str" xlink:title="Str">
<ellipse fill="none" stroke="#000000" cx="318.9" cy="-162" rx="27" ry="18"/>
<text text-anchor="middle" x="318.9" y="-158.3" font-family="FreeSans" font-size="14.00" fill="#000000">Str</text>
</a>
</g>
</g>
<!-- Allomorph&#45;&gt;Str -->
<g id="edge1" class="edge">
<title>Allomorph&#45;&gt;Str</title>
<path fill="none" stroke="#000000" d="M321.16,-108.3C320.83,-116.02 320.43,-125.29 320.06,-133.89"/>
<polygon fill="#000000" stroke="#000000" points="316.56,-133.75 319.63,-143.9 323.56,-134.05 316.56,-133.75"/>
</g>
<!-- Mu -->
<g id="node2" class="node">
<title>Mu</title>
<g id="a_node2"><a xlink:href="/type/Mu" xlink:title="Mu">
<ellipse fill="none" stroke="#000000" cx="239.9" cy="-378" rx="27" ry="18"/>
<text text-anchor="middle" x="239.9" y="-374.3" font-family="FreeSans" font-size="14.00" fill="#000000">Mu</text>
</a>
</g>
</g>
<!-- Any -->
<g id="node3" class="node">
<title>Any</title>
<g id="a_node3"><a xlink:href="/type/Any" xlink:title="Any">
<ellipse fill="none" stroke="#000000" cx="239.9" cy="-306" rx="27" ry="18"/>
<text text-anchor="middle" x="239.9" y="-302.3" font-family="FreeSans" font-size="14.00" fill="#000000">Any</text>
</a>
</g>
</g>
<!-- Any&#45;&gt;Mu -->
<g id="edge2" class="edge">
<title>Any&#45;&gt;Mu</title>
<path fill="none" stroke="#000000" d="M239.9,-324.3C239.9,-332.02 239.9,-341.29 239.9,-349.89"/>
<polygon fill="#000000" stroke="#000000" points="236.4,-349.9 239.9,-359.9 243.4,-349.9 236.4,-349.9"/>
</g>
<!-- Cool -->
<g id="node4" class="node">
<title>Cool</title>
<g id="a_node4"><a xlink:href="/type/Cool" xlink:title="Cool">
<ellipse fill="none" stroke="#000000" cx="239.9" cy="-234" rx="28.7" ry="18"/>
<text text-anchor="middle" x="239.9" y="-230.3" font-family="FreeSans" font-size="14.00" fill="#000000">Cool</text>
</a>
</g>
</g>
<!-- Cool&#45;&gt;Any -->
<g id="edge3" class="edge">
<title>Cool&#45;&gt;Any</title>
<path fill="none" stroke="#000000" d="M239.9,-252.3C239.9,-260.02 239.9,-269.29 239.9,-277.89"/>
<polygon fill="#000000" stroke="#000000" points="236.4,-277.9 239.9,-287.9 243.4,-277.9 236.4,-277.9"/>
</g>
<!-- Stringy -->
<g id="node5" class="node">
<title>Stringy</title>
<g id="a_node5"><a xlink:href="/type/Stringy" xlink:title="Stringy">
<ellipse fill="none" stroke="#6666ff" cx="324.9" cy="-234" rx="38.19" ry="18"/>
<text text-anchor="middle" x="324.9" y="-230.3" font-family="FreeSans" font-size="14.00" fill="#6666ff">Stringy</text>
</a>
</g>
</g>
<!-- Str&#45;&gt;Cool -->
<g id="edge4" class="edge">
<title>Str&#45;&gt;Cool</title>
<path fill="none" stroke="#000000" d="M303.29,-176.83C291.89,-186.93 276.25,-200.79 263.35,-212.21"/>
<polygon fill="#000000" stroke="#000000" points="260.91,-209.71 255.74,-218.96 265.55,-214.95 260.91,-209.71"/>
</g>
<!-- Str&#45;&gt;Stringy -->
<g id="edge17" class="edge">
<title>Str&#45;&gt;Stringy</title>
<path fill="none" stroke="#6666ff" d="M320.38,-180.3C321.04,-188.02 321.84,-197.29 322.57,-205.89"/>
<polygon fill="#6666ff" stroke="#6666ff" points="319.09,-206.23 323.43,-215.9 326.06,-205.63 319.09,-206.23"/>
</g>
<!-- Numeric -->
<g id="node7" class="node">
<title>Numeric</title>
<g id="a_node7"><a xlink:href="/type/Numeric" xlink:title="Numeric">
<ellipse fill="none" stroke="#6666ff" cx="365.9" cy="-306" rx="44.39" ry="18"/>
<text text-anchor="middle" x="365.9" y="-302.3" font-family="FreeSans" font-size="14.00" fill="#6666ff">Numeric</text>
</a>
</g>
</g>
<!-- Real -->
<g id="node8" class="node">
<title>Real</title>
<g id="a_node8"><a xlink:href="/type/Real" xlink:title="Real">
<ellipse fill="none" stroke="#6666ff" cx="145.9" cy="-234" rx="28.7" ry="18"/>
<text text-anchor="middle" x="145.9" y="-230.3" font-family="FreeSans" font-size="14.00" fill="#6666ff">Real</text>
</a>
</g>
</g>
<!-- Real&#45;&gt;Numeric -->
<g id="edge18" class="edge">
<title>Real&#45;&gt;Numeric</title>
<path fill="none" stroke="#6666ff" d="M171.13,-243.03C208.04,-254.77 277.25,-276.79 322.45,-291.17"/>
<polygon fill="#6666ff" stroke="#6666ff" points="321.4,-294.51 331.99,-294.21 323.52,-287.84 321.4,-294.51"/>
</g>
<!-- Rational -->
<g id="node9" class="node">
<title>Rational</title>
<g id="a_node9"><a xlink:href="/type/Rational" xlink:title="Rational">
<ellipse fill="none" stroke="#6666ff" cx="120.9" cy="-162" rx="42.79" ry="18"/>
<text text-anchor="middle" x="120.9" y="-158.3" font-family="FreeSans" font-size="14.00" fill="#6666ff">Rational</text>
</a>
</g>
</g>
<!-- Rational&#45;&gt;Real -->
<g id="edge19" class="edge">
<title>Rational&#45;&gt;Real</title>
<path fill="none" stroke="#6666ff" d="M126.95,-179.95C129.8,-187.94 133.28,-197.67 136.47,-206.6"/>
<polygon fill="#6666ff" stroke="#6666ff" points="133.24,-207.97 139.9,-216.21 139.83,-205.62 133.24,-207.97"/>
</g>
<!-- Rat -->
<g id="node10" class="node">
<title>Rat</title>
<g id="a_node10"><a xlink:href="/type/Rat" xlink:title="Rat">
<ellipse fill="none" stroke="#000000" cx="188.9" cy="-90" rx="27" ry="18"/>
<text text-anchor="middle" x="188.9" y="-86.3" font-family="FreeSans" font-size="14.00" fill="#000000">Rat</text>
</a>
</g>
</g>
<!-- Rat&#45;&gt;Cool -->
<g id="edge5" class="edge">
<title>Rat&#45;&gt;Cool</title>
<path fill="none" stroke="#000000" d="M193.14,-108.16C199.53,-134.02 210.9,-180 210.9,-180 210.9,-180 218.71,-194.28 226.23,-208.02"/>
<polygon fill="#000000" stroke="#000000" points="223.17,-209.72 231.04,-216.81 229.31,-206.36 223.17,-209.72"/>
</g>
<!-- Rat&#45;&gt;Rational -->
<g id="edge20" class="edge">
<title>Rat&#45;&gt;Rational</title>
<path fill="none" stroke="#6666ff" d="M174.81,-105.5C165.79,-114.78 153.89,-127.03 143.57,-137.66"/>
<polygon fill="#6666ff" stroke="#6666ff" points="140.85,-135.44 136.39,-145.05 145.87,-140.32 140.85,-135.44"/>
</g>
<!-- RatStr -->
<g id="node11" class="node">
<title>RatStr</title>
<g id="a_node11"><a xlink:href="/type/RatStr" xlink:title="RatStr">
<ellipse fill="none" stroke="#000000" cx="194.9" cy="-18" rx="36" ry="18"/>
<text text-anchor="middle" x="194.9" y="-14.3" font-family="FreeSans" font-size="14.00" fill="#000000">RatStr</text>
</a>
</g>
</g>
<!-- RatStr&#45;&gt;Allomorph -->
<g id="edge6" class="edge">
<title>RatStr&#45;&gt;Allomorph</title>
<path fill="none" stroke="#000000" d="M218.19,-31.84C237.36,-42.41 264.85,-57.55 286.7,-69.6"/>
<polygon fill="#000000" stroke="#000000" points="285.24,-72.79 295.68,-74.55 288.62,-66.66 285.24,-72.79"/>
</g>
<!-- RatStr&#45;&gt;Rat -->
<g id="edge7" class="edge">
<title>RatStr&#45;&gt;Rat</title>
<path fill="none" stroke="#000000" d="M193.41,-36.3C192.75,-44.02 191.96,-53.29 191.22,-61.89"/>
<polygon fill="#000000" stroke="#000000" points="187.73,-61.63 190.36,-71.9 194.7,-62.23 187.73,-61.63"/>
</g>
<!-- Complex -->
<g id="node12" class="node">
<title>Complex</title>
<g id="a_node12"><a xlink:href="/type/Complex" xlink:title="Complex">
<ellipse fill="none" stroke="#000000" cx="408.9" cy="-162" rx="45.49" ry="18"/>
<text text-anchor="middle" x="408.9" y="-158.3" font-family="FreeSans" font-size="14.00" fill="#000000">Complex</text>
</a>
</g>
</g>
<!-- Complex&#45;&gt;Cool -->
<g id="edge8" class="edge">
<title>Complex&#45;&gt;Cool</title>
<path fill="none" stroke="#000000" d="M378.18,-175.43C339.46,-191.09 277.9,-216 277.9,-216 277.9,-216 275.47,-217.09 271.83,-218.71"/>
<polygon fill="#000000" stroke="#000000" points="270.14,-215.64 262.44,-222.91 273,-222.03 270.14,-215.64"/>
</g>
<!-- Complex&#45;&gt;Numeric -->
<g id="edge21" class="edge">
<title>Complex&#45;&gt;Numeric</title>
<path fill="none" stroke="#6666ff" d="M403.71,-180.13C396.35,-204.44 382.8,-249.18 374.08,-277.99"/>
<polygon fill="#6666ff" stroke="#6666ff" points="370.65,-277.23 371.1,-287.81 377.35,-279.25 370.65,-277.23"/>
</g>
<!-- ComplexStr -->
<g id="node13" class="node">
<title>ComplexStr</title>
<g id="a_node13"><a xlink:href="/type/ComplexStr" xlink:title="ComplexStr">
<ellipse fill="none" stroke="#000000" cx="400.9" cy="-18" rx="56.59" ry="18"/>
<text text-anchor="middle" x="400.9" y="-14.3" font-family="FreeSans" font-size="14.00" fill="#000000">ComplexStr</text>
</a>
</g>
</g>
<!-- ComplexStr&#45;&gt;Allomorph -->
<g id="edge9" class="edge">
<title>ComplexStr&#45;&gt;Allomorph</title>
<path fill="none" stroke="#000000" d="M382.57,-35.24C372.13,-44.49 358.88,-56.23 347.43,-66.37"/>
<polygon fill="#000000" stroke="#000000" points="345.01,-63.84 339.85,-73.09 349.65,-69.08 345.01,-63.84"/>
</g>
<!-- ComplexStr&#45;&gt;Complex -->
<g id="edge10" class="edge">
<title>ComplexStr&#45;&gt;Complex</title>
<path fill="none" stroke="#000000" d="M401.86,-36.13C403.23,-60.33 405.73,-104.79 407.35,-133.61"/>
<polygon fill="#000000" stroke="#000000" points="403.87,-134.02 407.93,-143.81 410.86,-133.63 403.87,-134.02"/>
</g>
<!-- Num -->
<g id="node14" class="node">
<title>Num</title>
<g id="a_node14"><a xlink:href="/type/Num" xlink:title="Num">
<ellipse fill="none" stroke="#000000" cx="29.9" cy="-162" rx="29.8" ry="18"/>
<text text-anchor="middle" x="29.9" y="-158.3" font-family="FreeSans" font-size="14.00" fill="#000000">Num</text>
</a>
</g>
</g>
<!-- Num&#45;&gt;Cool -->
<g id="edge11" class="edge">
<title>Num&#45;&gt;Cool</title>
<path fill="none" stroke="#000000" d="M53.48,-173.28C61.7,-176.86 68.9,-180 68.9,-180 68.9,-180 154.85,-206.64 204.88,-222.15"/>
<polygon fill="#000000" stroke="#000000" points="204.08,-225.56 214.67,-225.18 206.15,-218.88 204.08,-225.56"/>
</g>
<!-- Num&#45;&gt;Real -->
<g id="edge22" class="edge">
<title>Num&#45;&gt;Real</title>
<path fill="none" stroke="#6666ff" d="M50.37,-175.35C68.95,-186.57 96.54,-203.22 117.3,-215.74"/>
<polygon fill="#6666ff" stroke="#6666ff" points="115.65,-218.83 126.02,-221 119.26,-212.84 115.65,-218.83"/>
</g>
<!-- NumStr -->
<g id="node15" class="node">
<title>NumStr</title>
<g id="a_node15"><a xlink:href="/type/NumStr" xlink:title="NumStr">
<ellipse fill="none" stroke="#000000" cx="79.9" cy="-18" rx="40.89" ry="18"/>
<text text-anchor="middle" x="79.9" y="-14.3" font-family="FreeSans" font-size="14.00" fill="#000000">NumStr</text>
</a>
</g>
</g>
<!-- NumStr&#45;&gt;Allomorph -->
<g id="edge12" class="edge">
<title>NumStr&#45;&gt;Allomorph</title>
<path fill="none" stroke="#000000" d="M113.04,-28.59C154.73,-40.65 226.62,-61.44 274.22,-75.21"/>
<polygon fill="#000000" stroke="#000000" points="273.41,-78.62 283.99,-78.03 275.35,-71.89 273.41,-78.62"/>
</g>
<!-- NumStr&#45;&gt;Num -->
<g id="edge13" class="edge">
<title>NumStr&#45;&gt;Num</title>
<path fill="none" stroke="#000000" d="M73.97,-35.85C65.36,-60.29 49.32,-105.83 39.15,-134.71"/>
<polygon fill="#000000" stroke="#000000" points="35.84,-133.58 35.82,-144.18 42.44,-135.91 35.84,-133.58"/>
</g>
<!-- Int -->
<g id="node16" class="node">
<title>Int</title>
<g id="a_node16"><a xlink:href="/type/Int" xlink:title="Int">
<ellipse fill="none" stroke="#000000" cx="246.9" cy="-162" rx="27" ry="18"/>
<text text-anchor="middle" x="246.9" y="-158.3" font-family="FreeSans" font-size="14.00" fill="#000000">Int</text>
</a>
</g>
</g>
<!-- Int&#45;&gt;Cool -->
<g id="edge14" class="edge">
<title>Int&#45;&gt;Cool</title>
<path fill="none" stroke="#000000" d="M245.17,-180.3C244.4,-188.02 243.47,-197.29 242.61,-205.89"/>
<polygon fill="#000000" stroke="#000000" points="239.12,-205.6 241.61,-215.9 246.09,-206.29 239.12,-205.6"/>
</g>
<!-- Int&#45;&gt;Real -->
<g id="edge23" class="edge">
<title>Int&#45;&gt;Real</title>
<path fill="none" stroke="#6666ff" d="M228.84,-175.51C213.24,-186.33 190.47,-202.11 172.73,-214.4"/>
<polygon fill="#6666ff" stroke="#6666ff" points="170.71,-211.55 164.48,-220.12 174.69,-217.3 170.71,-211.55"/>
</g>
<!-- IntStr -->
<g id="node17" class="node">
<title>IntStr</title>
<g id="a_node17"><a xlink:href="/type/IntStr" xlink:title="IntStr">
<ellipse fill="none" stroke="#000000" cx="289.9" cy="-18" rx="31.7" ry="18"/>
<text text-anchor="middle" x="289.9" y="-14.3" font-family="FreeSans" font-size="14.00" fill="#000000">IntStr</text>
</a>
</g>
</g>
<!-- IntStr&#45;&gt;Allomorph -->
<g id="edge15" class="edge">
<title>IntStr&#45;&gt;Allomorph</title>
<path fill="none" stroke="#000000" d="M297.48,-35.59C301.21,-43.75 305.8,-53.78 309.98,-62.93"/>
<polygon fill="#000000" stroke="#000000" points="306.81,-64.4 314.15,-72.04 313.17,-61.49 306.81,-64.4"/>
</g>
<!-- IntStr&#45;&gt;Int -->
<g id="edge16" class="edge">
<title>IntStr&#45;&gt;Int</title>
<path fill="none" stroke="#000000" d="M281.5,-35.48C273.58,-51.04 262.9,-72 262.9,-72 262.9,-72 256.51,-107.52 251.81,-133.68"/>
<polygon fill="#000000" stroke="#000000" points="248.31,-133.38 249.98,-143.84 255.2,-134.62 248.31,-133.38"/>
</g>
</g>
</svg>
