<?xml version="1.0" encoding="UTF-8" standalone="no"?>
<!DOCTYPE svg PUBLIC "-//W3C//DTD SVG 1.1//EN"
 "http://www.w3.org/Graphics/SVG/1.1/DTD/svg11.dtd">
<!-- Generated by graphviz version 2.43.0 (0)
 -->
<!-- Title: perl6&#45;type&#45;graph Pages: 1 -->
<svg width="960pt" height="404pt"
 viewBox="0.00 0.00 960.30 404.00" xmlns="http://www.w3.org/2000/svg" xmlns:xlink="http://www.w3.org/1999/xlink">
<g id="graph0" class="graph" transform="scale(1 1) rotate(0) translate(4 400)">
<title>perl6&#45;type&#45;graph</title>
<polygon fill="white" stroke="transparent" points="-4,4 -4,-400 956.3,-400 956.3,4 -4,4"/>
<!-- Associative -->
<g id="node1" class="node">
<title>Associative</title>
<g id="a_node1"><a xlink:href="/type/Associative" xlink:title="Associative">
<ellipse fill="none" stroke="#6666ff" cx="272.3" cy="-306" rx="55.49" ry="18"/>
<text text-anchor="middle" x="272.3" y="-302.3" font-family="FreeSans" font-size="14.00" fill="#6666ff">Associative</text>
</a>
</g>
</g>
<!-- Mu -->
<g id="node2" class="node">
<title>Mu</title>
<g id="a_node2"><a xlink:href="/type/Mu" xlink:title="Mu">
<ellipse fill="none" stroke="#000000" cx="537.3" cy="-378" rx="27" ry="18"/>
<text text-anchor="middle" x="537.3" y="-374.3" font-family="FreeSans" font-size="14.00" fill="#000000">Mu</text>
</a>
</g>
</g>
<!-- Any -->
<g id="node3" class="node">
<title>Any</title>
<g id="a_node3"><a xlink:href="/type/Any" xlink:title="Any">
<ellipse fill="none" stroke="#000000" cx="537.3" cy="-306" rx="27" ry="18"/>
<text text-anchor="middle" x="537.3" y="-302.3" font-family="FreeSans" font-size="14.00" fill="#000000">Any</text>
</a>
</g>
</g>
<!-- Any&#45;&gt;Mu -->
<g id="edge1" class="edge">
<title>Any&#45;&gt;Mu</title>
<path fill="none" stroke="#000000" d="M537.3,-324.3C537.3,-332.02 537.3,-341.29 537.3,-349.89"/>
<polygon fill="#000000" stroke="#000000" points="533.8,-349.9 537.3,-359.9 540.8,-349.9 533.8,-349.9"/>
</g>
<!-- Cool -->
<g id="node4" class="node">
<title>Cool</title>
<g id="a_node4"><a xlink:href="/type/Cool" xlink:title="Cool">
<ellipse fill="none" stroke="#000000" cx="401.3" cy="-234" rx="28.7" ry="18"/>
<text text-anchor="middle" x="401.3" y="-230.3" font-family="FreeSans" font-size="14.00" fill="#000000">Cool</text>
</a>
</g>
</g>
<!-- Cool&#45;&gt;Any -->
<g id="edge2" class="edge">
<title>Cool&#45;&gt;Any</title>
<path fill="none" stroke="#000000" d="M422.85,-246.09C445.66,-257.83 481.84,-276.45 507.4,-289.61"/>
<polygon fill="#000000" stroke="#000000" points="505.8,-292.73 516.29,-294.19 509,-286.5 505.8,-292.73"/>
</g>
<!-- Iterable -->
<g id="node5" class="node">
<title>Iterable</title>
<g id="a_node5"><a xlink:href="/type/Iterable" xlink:title="Iterable">
<ellipse fill="none" stroke="#6666ff" cx="40.3" cy="-306" rx="40.09" ry="18"/>
<text text-anchor="middle" x="40.3" y="-302.3" font-family="FreeSans" font-size="14.00" fill="#6666ff">Iterable</text>
</a>
</g>
</g>
<!-- Map -->
<g id="node6" class="node">
<title>Map</title>
<g id="a_node6"><a xlink:href="/type/Map" xlink:title="Map">
<ellipse fill="none" stroke="#000000" cx="234.3" cy="-162" rx="28.7" ry="18"/>
<text text-anchor="middle" x="234.3" y="-158.3" font-family="FreeSans" font-size="14.00" fill="#000000">Map</text>
</a>
</g>
</g>
<!-- Map&#45;&gt;Associative -->
<g id="edge16" class="edge">
<title>Map&#45;&gt;Associative</title>
<path fill="none" stroke="#6666ff" d="M238.8,-179.85C245.28,-204.06 257.3,-248.95 265.04,-277.87"/>
<polygon fill="#6666ff" stroke="#6666ff" points="261.71,-278.98 267.68,-287.73 268.47,-277.17 261.71,-278.98"/>
</g>
<!-- Map&#45;&gt;Cool -->
<g id="edge3" class="edge">
<title>Map&#45;&gt;Cool</title>
<path fill="none" stroke="#000000" d="M257.66,-172.6C294.83,-187.87 363.3,-216 363.3,-216 363.3,-216 365.73,-217.09 369.36,-218.71"/>
<polygon fill="#000000" stroke="#000000" points="368.19,-222.03 378.75,-222.91 371.05,-215.64 368.19,-222.03"/>
</g>
<!-- Map&#45;&gt;Iterable -->
<g id="edge15" class="edge">
<title>Map&#45;&gt;Iterable</title>
<path fill="none" stroke="#6666ff" d="M208.85,-170.71C160.31,-185.41 59.3,-216 59.3,-216 59.3,-216 51.65,-251.83 46.06,-278.03"/>
<polygon fill="#6666ff" stroke="#6666ff" points="42.62,-277.33 43.96,-287.84 49.47,-278.79 42.62,-277.33"/>
</g>
<!-- Pair -->
<g id="node7" class="node">
<title>Pair</title>
<g id="a_node7"><a xlink:href="/type/Pair" xlink:title="Pair">
<ellipse fill="none" stroke="#000000" cx="327.3" cy="-234" rx="27" ry="18"/>
<text text-anchor="middle" x="327.3" y="-230.3" font-family="FreeSans" font-size="14.00" fill="#000000">Pair</text>
</a>
</g>
</g>
<!-- Pair&#45;&gt;Associative -->
<g id="edge17" class="edge">
<title>Pair&#45;&gt;Associative</title>
<path fill="none" stroke="#6666ff" d="M315.36,-250.19C308.45,-258.98 299.58,-270.27 291.69,-280.31"/>
<polygon fill="#6666ff" stroke="#6666ff" points="288.79,-278.35 285.36,-288.37 294.29,-282.67 288.79,-278.35"/>
</g>
<!-- Pair&#45;&gt;Any -->
<g id="edge4" class="edge">
<title>Pair&#45;&gt;Any</title>
<path fill="none" stroke="#000000" d="M348.65,-245.09C356.41,-248.75 363.3,-252 363.3,-252 363.3,-252 452.57,-279.19 503.22,-294.62"/>
<polygon fill="#000000" stroke="#000000" points="502.52,-298.06 513.1,-297.63 504.56,-291.37 502.52,-298.06"/>
</g>
<!-- Positional -->
<g id="node8" class="node">
<title>Positional</title>
<g id="a_node8"><a xlink:href="/type/Positional" xlink:title="Positional">
<ellipse fill="none" stroke="#6666ff" cx="147.3" cy="-306" rx="48.99" ry="18"/>
<text text-anchor="middle" x="147.3" y="-302.3" font-family="FreeSans" font-size="14.00" fill="#6666ff">Positional</text>
</a>
</g>
</g>
<!-- IO::Path::Parts -->
<g id="node9" class="node">
<title>IO::Path::Parts</title>
<g id="a_node9"><a xlink:href="/type/IO::Path::Parts" xlink:title="IO::Path::Parts">
<ellipse fill="none" stroke="#000000" cx="137.3" cy="-234" rx="68.79" ry="18"/>
<text text-anchor="middle" x="137.3" y="-230.3" font-family="FreeSans" font-size="14.00" fill="#000000">IO::Path::Parts</text>
</a>
</g>
</g>
<!-- IO::Path::Parts&#45;&gt;Associative -->
<g id="edge19" class="edge">
<title>IO::Path::Parts&#45;&gt;Associative</title>
<path fill="none" stroke="#6666ff" d="M166.92,-250.36C186.94,-260.74 213.52,-274.52 234.97,-285.65"/>
<polygon fill="#6666ff" stroke="#6666ff" points="233.64,-288.9 244.12,-290.39 236.86,-282.68 233.64,-288.9"/>
</g>
<!-- IO::Path::Parts&#45;&gt;Any -->
<g id="edge5" class="edge">
<title>IO::Path::Parts&#45;&gt;Any</title>
<path fill="none" stroke="#000000" d="M192.91,-244.73C276.22,-259.31 431.09,-286.41 501.18,-298.68"/>
<polygon fill="#000000" stroke="#000000" points="500.83,-302.17 511.28,-300.45 502.04,-295.28 500.83,-302.17"/>
</g>
<!-- IO::Path::Parts&#45;&gt;Iterable -->
<g id="edge20" class="edge">
<title>IO::Path::Parts&#45;&gt;Iterable</title>
<path fill="none" stroke="#6666ff" d="M114.8,-251.24C101.14,-261.09 83.57,-273.77 68.92,-284.34"/>
<polygon fill="#6666ff" stroke="#6666ff" points="66.75,-281.59 60.69,-290.28 70.85,-287.27 66.75,-281.59"/>
</g>
<!-- IO::Path::Parts&#45;&gt;Positional -->
<g id="edge18" class="edge">
<title>IO::Path::Parts&#45;&gt;Positional</title>
<path fill="none" stroke="#6666ff" d="M139.77,-252.3C140.87,-260.02 142.19,-269.29 143.42,-277.89"/>
<polygon fill="#6666ff" stroke="#6666ff" points="139.97,-278.49 144.85,-287.9 146.9,-277.5 139.97,-278.49"/>
</g>
<!-- Telemetry -->
<g id="node10" class="node">
<title>Telemetry</title>
<g id="a_node10"><a xlink:href="/type/Telemetry" xlink:title="Telemetry">
<ellipse fill="none" stroke="#000000" cx="498.3" cy="-234" rx="50.09" ry="18"/>
<text text-anchor="middle" x="498.3" y="-230.3" font-family="FreeSans" font-size="14.00" fill="#000000">Telemetry</text>
</a>
</g>
</g>
<!-- Telemetry&#45;&gt;Any -->
<g id="edge6" class="edge">
<title>Telemetry&#45;&gt;Any</title>
<path fill="none" stroke="#000000" d="M507.74,-251.95C512.4,-260.32 518.13,-270.6 523.29,-279.87"/>
<polygon fill="#000000" stroke="#000000" points="520.29,-281.66 528.21,-288.69 526.4,-278.25 520.29,-281.66"/>
</g>
<!-- Telemetry::Period -->
<g id="node11" class="node">
<title>Telemetry::Period</title>
<g id="a_node11"><a xlink:href="/type/Telemetry::Period" xlink:title="Telemetry::Period">
<ellipse fill="none" stroke="#000000" cx="414.3" cy="-162" rx="80.69" ry="18"/>
<text text-anchor="middle" x="414.3" y="-158.3" font-family="FreeSans" font-size="14.00" fill="#000000">Telemetry::Period</text>
</a>
</g>
</g>
<!-- Telemetry::Period&#45;&gt;Associative -->
<g id="edge21" class="edge">
<title>Telemetry::Period&#45;&gt;Associative</title>
<path fill="none" stroke="#6666ff" d="M379.05,-178.19C342.7,-193.85 291.3,-216 291.3,-216 291.3,-216 283.65,-251.83 278.06,-278.03"/>
<polygon fill="#6666ff" stroke="#6666ff" points="274.62,-277.33 275.96,-287.84 281.47,-278.79 274.62,-277.33"/>
</g>
<!-- Telemetry::Period&#45;&gt;Telemetry -->
<g id="edge7" class="edge">
<title>Telemetry::Period&#45;&gt;Telemetry</title>
<path fill="none" stroke="#000000" d="M434.2,-179.59C445.32,-188.85 459.32,-200.52 471.4,-210.59"/>
<polygon fill="#000000" stroke="#000000" points="469.47,-213.54 479.4,-217.25 473.96,-208.16 469.47,-213.54"/>
</g>
<!-- QuantHash -->
<g id="node12" class="node">
<title>QuantHash</title>
<g id="a_node12"><a xlink:href="/type/QuantHash" xlink:title="QuantHash">
<ellipse fill="none" stroke="#6666ff" cx="660.3" cy="-234" rx="55.79" ry="18"/>
<text text-anchor="middle" x="660.3" y="-230.3" font-family="FreeSans" font-size="14.00" fill="#6666ff">QuantHash</text>
</a>
</g>
</g>
<!-- QuantHash&#45;&gt;Associative -->
<g id="edge22" class="edge">
<title>QuantHash&#45;&gt;Associative</title>
<path fill="none" stroke="#6666ff" d="M612.72,-243.58C541.16,-256.49 406.06,-280.87 329.32,-294.71"/>
<polygon fill="#6666ff" stroke="#6666ff" points="328.57,-291.29 319.35,-296.51 329.81,-298.18 328.57,-291.29"/>
</g>
<!-- PseudoStash -->
<g id="node13" class="node">
<title>PseudoStash</title>
<g id="a_node13"><a xlink:href="/type/PseudoStash" xlink:title="PseudoStash">
<ellipse fill="none" stroke="#000000" cx="290.3" cy="-90" rx="63.09" ry="18"/>
<text text-anchor="middle" x="290.3" y="-86.3" font-family="FreeSans" font-size="14.00" fill="#000000">PseudoStash</text>
</a>
</g>
</g>
<!-- PseudoStash&#45;&gt;Map -->
<g id="edge8" class="edge">
<title>PseudoStash&#45;&gt;Map</title>
<path fill="none" stroke="#000000" d="M276.74,-107.95C269.63,-116.83 260.81,-127.86 253.05,-137.55"/>
<polygon fill="#000000" stroke="#000000" points="250.1,-135.65 246.58,-145.64 255.56,-140.02 250.1,-135.65"/>
</g>
<!-- Hash -->
<g id="node14" class="node">
<title>Hash</title>
<g id="a_node14"><a xlink:href="/type/Hash" xlink:title="Hash">
<ellipse fill="none" stroke="#000000" cx="178.3" cy="-90" rx="31.4" ry="18"/>
<text text-anchor="middle" x="178.3" y="-86.3" font-family="FreeSans" font-size="14.00" fill="#000000">Hash</text>
</a>
</g>
</g>
<!-- Hash&#45;&gt;Map -->
<g id="edge9" class="edge">
<title>Hash&#45;&gt;Map</title>
<path fill="none" stroke="#000000" d="M190.72,-106.54C198.05,-115.69 207.45,-127.45 215.65,-137.69"/>
<polygon fill="#000000" stroke="#000000" points="212.92,-139.89 221.9,-145.51 218.39,-135.51 212.92,-139.89"/>
</g>
<!-- Setty -->
<g id="node15" class="node">
<title>Setty</title>
<g id="a_node15"><a xlink:href="/type/Setty" xlink:title="Setty">
<ellipse fill="none" stroke="#6666ff" cx="660.3" cy="-162" rx="30.59" ry="18"/>
<text text-anchor="middle" x="660.3" y="-158.3" font-family="FreeSans" font-size="14.00" fill="#6666ff">Setty</text>
</a>
</g>
</g>
<!-- Setty&#45;&gt;QuantHash -->
<g id="edge23" class="edge">
<title>Setty&#45;&gt;QuantHash</title>
<path fill="none" stroke="#6666ff" d="M660.3,-180.3C660.3,-188.02 660.3,-197.29 660.3,-205.89"/>
<polygon fill="#6666ff" stroke="#6666ff" points="656.8,-205.9 660.3,-215.9 663.8,-205.9 656.8,-205.9"/>
</g>
<!-- Baggy -->
<g id="node16" class="node">
<title>Baggy</title>
<g id="a_node16"><a xlink:href="/type/Baggy" xlink:title="Baggy">
<ellipse fill="none" stroke="#6666ff" cx="808.3" cy="-162" rx="36" ry="18"/>
<text text-anchor="middle" x="808.3" y="-158.3" font-family="FreeSans" font-size="14.00" fill="#6666ff">Baggy</text>
</a>
</g>
</g>
<!-- Baggy&#45;&gt;QuantHash -->
<g id="edge24" class="edge">
<title>Baggy&#45;&gt;QuantHash</title>
<path fill="none" stroke="#6666ff" d="M783.19,-174.87C760.35,-185.68 726.25,-201.8 699.77,-214.33"/>
<polygon fill="#6666ff" stroke="#6666ff" points="697.93,-211.33 690.39,-218.77 700.92,-217.66 697.93,-211.33"/>
</g>
<!-- Stash -->
<g id="node17" class="node">
<title>Stash</title>
<g id="a_node17"><a xlink:href="/type/Stash" xlink:title="Stash">
<ellipse fill="none" stroke="#000000" cx="178.3" cy="-18" rx="33.29" ry="18"/>
<text text-anchor="middle" x="178.3" y="-14.3" font-family="FreeSans" font-size="14.00" fill="#000000">Stash</text>
</a>
</g>
</g>
<!-- Stash&#45;&gt;Hash -->
<g id="edge10" class="edge">
<title>Stash&#45;&gt;Hash</title>
<path fill="none" stroke="#000000" d="M178.3,-36.3C178.3,-44.02 178.3,-53.29 178.3,-61.89"/>
<polygon fill="#000000" stroke="#000000" points="174.8,-61.9 178.3,-71.9 181.8,-61.9 174.8,-61.9"/>
</g>
<!-- SetHash -->
<g id="node18" class="node">
<title>SetHash</title>
<g id="a_node18"><a xlink:href="/type/SetHash" xlink:title="SetHash">
<ellipse fill="none" stroke="#000000" cx="576.3" cy="-90" rx="44.39" ry="18"/>
<text text-anchor="middle" x="576.3" y="-86.3" font-family="FreeSans" font-size="14.00" fill="#000000">SetHash</text>
</a>
</g>
</g>
<!-- SetHash&#45;&gt;Any -->
<g id="edge11" class="edge">
<title>SetHash&#45;&gt;Any</title>
<path fill="none" stroke="#000000" d="M574.26,-108.23C569.36,-149.76 557.3,-252 557.3,-252 557.3,-252 552.24,-265.41 547.21,-278.73"/>
<polygon fill="#000000" stroke="#000000" points="543.88,-277.64 543.62,-288.23 550.43,-280.11 543.88,-277.64"/>
</g>
<!-- SetHash&#45;&gt;Setty -->
<g id="edge25" class="edge">
<title>SetHash&#45;&gt;Setty</title>
<path fill="none" stroke="#6666ff" d="M594.94,-106.54C606.95,-116.54 622.69,-129.66 635.72,-140.52"/>
<polygon fill="#6666ff" stroke="#6666ff" points="633.49,-143.22 643.42,-146.93 637.98,-137.84 633.49,-143.22"/>
</g>
<!-- Set -->
<g id="node19" class="node">
<title>Set</title>
<g id="a_node19"><a xlink:href="/type/Set" xlink:title="Set">
<ellipse fill="none" stroke="#000000" cx="665.3" cy="-90" rx="27" ry="18"/>
<text text-anchor="middle" x="665.3" y="-86.3" font-family="FreeSans" font-size="14.00" fill="#000000">Set</text>
</a>
</g>
</g>
<!-- Set&#45;&gt;Any -->
<g id="edge12" class="edge">
<title>Set&#45;&gt;Any</title>
<path fill="none" stroke="#000000" d="M675.8,-106.9C686.11,-122.51 700.3,-144 700.3,-144 700.3,-144 725.3,-216 725.3,-216 725.3,-216 725.3,-252 725.3,-252 725.3,-252 626.04,-279.98 571.77,-295.28"/>
<polygon fill="#000000" stroke="#000000" points="570.55,-291.99 561.87,-298.07 572.45,-298.73 570.55,-291.99"/>
</g>
<!-- Set&#45;&gt;Setty -->
<g id="edge26" class="edge">
<title>Set&#45;&gt;Setty</title>
<path fill="none" stroke="#6666ff" d="M664.06,-108.3C663.51,-116.02 662.85,-125.29 662.23,-133.89"/>
<polygon fill="#6666ff" stroke="#6666ff" points="658.74,-133.67 661.52,-143.9 665.72,-134.17 658.74,-133.67"/>
</g>
<!-- Mixy -->
<g id="node20" class="node">
<title>Mixy</title>
<g id="a_node20"><a xlink:href="/type/Mixy" xlink:title="Mixy">
<ellipse fill="none" stroke="#6666ff" cx="739.3" cy="-90" rx="29.5" ry="18"/>
<text text-anchor="middle" x="739.3" y="-86.3" font-family="FreeSans" font-size="14.00" fill="#6666ff">Mixy</text>
</a>
</g>
</g>
<!-- Mixy&#45;&gt;Baggy -->
<g id="edge27" class="edge">
<title>Mixy&#45;&gt;Baggy</title>
<path fill="none" stroke="#6666ff" d="M753.93,-105.85C763.1,-115.15 775.1,-127.33 785.5,-137.88"/>
<polygon fill="#6666ff" stroke="#6666ff" points="783.21,-140.54 792.73,-145.2 788.2,-135.62 783.21,-140.54"/>
</g>
<!-- BagHash -->
<g id="node21" class="node">
<title>BagHash</title>
<g id="a_node21"><a xlink:href="/type/BagHash" xlink:title="BagHash">
<ellipse fill="none" stroke="#000000" cx="833.3" cy="-90" rx="46.59" ry="18"/>
<text text-anchor="middle" x="833.3" y="-86.3" font-family="FreeSans" font-size="14.00" fill="#000000">BagHash</text>
</a>
</g>
</g>
<!-- BagHash&#45;&gt;Any -->
<g id="edge13" class="edge">
<title>BagHash&#45;&gt;Any</title>
<path fill="none" stroke="#000000" d="M839.73,-108.06C845.58,-123.55 853.3,-144 853.3,-144 853.3,-144 853.3,-180 853.3,-180 853.3,-180 739.3,-252 739.3,-252 739.3,-252 629.58,-280.79 571.86,-295.93"/>
<polygon fill="#000000" stroke="#000000" points="570.85,-292.58 562.07,-298.5 572.63,-299.35 570.85,-292.58"/>
</g>
<!-- BagHash&#45;&gt;Baggy -->
<g id="edge28" class="edge">
<title>BagHash&#45;&gt;Baggy</title>
<path fill="none" stroke="#6666ff" d="M827.24,-107.95C824.39,-115.94 820.91,-125.67 817.72,-134.6"/>
<polygon fill="#6666ff" stroke="#6666ff" points="814.36,-133.62 814.29,-144.21 820.95,-135.97 814.36,-133.62"/>
</g>
<!-- Bag -->
<g id="node22" class="node">
<title>Bag</title>
<g id="a_node22"><a xlink:href="/type/Bag" xlink:title="Bag">
<ellipse fill="none" stroke="#000000" cx="925.3" cy="-90" rx="27" ry="18"/>
<text text-anchor="middle" x="925.3" y="-86.3" font-family="FreeSans" font-size="14.00" fill="#000000">Bag</text>
</a>
</g>
</g>
<!-- Bag&#45;&gt;Any -->
<g id="edge14" class="edge">
<title>Bag&#45;&gt;Any</title>
<path fill="none" stroke="#000000" d="M914.93,-106.91C898.24,-132.51 867.3,-180 867.3,-180 867.3,-180 781.3,-252 781.3,-252 781.3,-252 640.43,-282.6 572.76,-297.3"/>
<polygon fill="#000000" stroke="#000000" points="571.98,-293.89 562.95,-299.43 573.46,-300.73 571.98,-293.89"/>
</g>
<!-- Bag&#45;&gt;Baggy -->
<g id="edge29" class="edge">
<title>Bag&#45;&gt;Baggy</title>
<path fill="none" stroke="#6666ff" d="M905.71,-102.72C887.5,-113.61 860.07,-130.02 838.96,-142.66"/>
<polygon fill="#6666ff" stroke="#6666ff" points="837.12,-139.68 830.34,-147.81 840.72,-145.68 837.12,-139.68"/>
</g>
</g>
</svg>
