<?xml version="1.0" encoding="UTF-8" standalone="no"?>
<!DOCTYPE svg PUBLIC "-//W3C//DTD SVG 1.1//EN"
 "http://www.w3.org/Graphics/SVG/1.1/DTD/svg11.dtd">
<!-- Generated by graphviz version 2.43.0 (0)
 -->
<!-- Title: perl6&#45;type&#45;graph Pages: 1 -->
<svg width="65pt" height="188pt"
 viewBox="0.00 0.00 65.19 188.00" xmlns="http://www.w3.org/2000/svg" xmlns:xlink="http://www.w3.org/1999/xlink">
<g id="graph0" class="graph" transform="scale(1 1) rotate(0) translate(4 184)">
<title>perl6&#45;type&#45;graph</title>
<polygon fill="white" stroke="transparent" points="-4,4 -4,-184 61.19,-184 61.19,4 -4,4"/>
<!-- AST -->
<g id="node1" class="node">
<title>AST</title>
<g id="a_node1"><a xlink:href="/type/AST" xlink:title="AST">
<ellipse fill="none" stroke="#000000" cx="28.6" cy="-18" rx="28.7" ry="18"/>
<text text-anchor="middle" x="28.6" y="-14.3" font-family="FreeSans" font-size="14.00" fill="#000000">AST</text>
</a>
</g>
</g>
<!-- Any -->
<g id="node3" class="node">
<title>Any</title>
<g id="a_node3"><a xlink:href="/type/Any" xlink:title="Any">
<ellipse fill="none" stroke="#000000" cx="28.6" cy="-90" rx="27" ry="18"/>
<text text-anchor="middle" x="28.6" y="-86.3" font-family="FreeSans" font-size="14.00" fill="#000000">Any</text>
</a>
</g>
</g>
<!-- AST&#45;&gt;Any -->
<g id="edge1" class="edge">
<title>AST&#45;&gt;Any</title>
<path fill="none" stroke="#000000" d="M28.6,-36.3C28.6,-44.02 28.6,-53.29 28.6,-61.89"/>
<polygon fill="#000000" stroke="#000000" points="25.1,-61.9 28.6,-71.9 32.1,-61.9 25.1,-61.9"/>
</g>
<!-- Mu -->
<g id="node2" class="node">
<title>Mu</title>
<g id="a_node2"><a xlink:href="/type/Mu" xlink:title="Mu">
<ellipse fill="none" stroke="#000000" cx="28.6" cy="-162" rx="27" ry="18"/>
<text text-anchor="middle" x="28.6" y="-158.3" font-family="FreeSans" font-size="14.00" fill="#000000">Mu</text>
</a>
</g>
</g>
<!-- Any&#45;&gt;Mu -->
<g id="edge2" class="edge">
<title>Any&#45;&gt;Mu</title>
<path fill="none" stroke="#000000" d="M28.6,-108.3C28.6,-116.02 28.6,-125.29 28.6,-133.89"/>
<polygon fill="#000000" stroke="#000000" points="25.1,-133.9 28.6,-143.9 32.1,-133.9 25.1,-133.9"/>
</g>
</g>
</svg>
