<?xml version="1.0" encoding="UTF-8" standalone="no"?>
<!DOCTYPE svg PUBLIC "-//W3C//DTD SVG 1.1//EN"
 "http://www.w3.org/Graphics/SVG/1.1/DTD/svg11.dtd">
<!-- Generated by graphviz version 2.43.0 (0)
 -->
<!-- Title: perl6&#45;type&#45;graph Pages: 1 -->
<svg width="272pt" height="188pt"
 viewBox="0.00 0.00 271.75 188.00" xmlns="http://www.w3.org/2000/svg" xmlns:xlink="http://www.w3.org/1999/xlink">
<g id="graph0" class="graph" transform="scale(1 1) rotate(0) translate(4 184)">
<title>perl6&#45;type&#45;graph</title>
<polygon fill="white" stroke="transparent" points="-4,4 -4,-184 267.75,-184 267.75,4 -4,4"/>
<!-- Blob -->
<g id="node1" class="node">
<title>Blob</title>
<g id="a_node1"><a xlink:href="/type/Blob" xlink:title="Blob">
<ellipse fill="none" stroke="#6666ff" cx="153.75" cy="-90" rx="28.7" ry="18"/>
<text text-anchor="middle" x="153.75" y="-86.3" font-family="FreeSans" font-size="14.00" fill="#6666ff">Blob</text>
</a>
</g>
</g>
<!-- Positional -->
<g id="node2" class="node">
<title>Positional</title>
<g id="a_node2"><a xlink:href="/type/Positional" xlink:title="Positional">
<ellipse fill="none" stroke="#6666ff" cx="48.75" cy="-162" rx="48.99" ry="18"/>
<text text-anchor="middle" x="48.75" y="-158.3" font-family="FreeSans" font-size="14.00" fill="#6666ff">Positional</text>
</a>
</g>
</g>
<!-- Blob&#45;&gt;Positional -->
<g id="edge3" class="edge">
<title>Blob&#45;&gt;Positional</title>
<path fill="none" stroke="#6666ff" d="M134.49,-103.84C119.22,-114.01 97.59,-128.44 79.87,-140.25"/>
<polygon fill="#6666ff" stroke="#6666ff" points="77.92,-137.35 71.54,-145.81 81.8,-143.17 77.92,-137.35"/>
</g>
<!-- Stringy -->
<g id="node3" class="node">
<title>Stringy</title>
<g id="a_node3"><a xlink:href="/type/Stringy" xlink:title="Stringy">
<ellipse fill="none" stroke="#6666ff" cx="153.75" cy="-162" rx="38.19" ry="18"/>
<text text-anchor="middle" x="153.75" y="-158.3" font-family="FreeSans" font-size="14.00" fill="#6666ff">Stringy</text>
</a>
</g>
</g>
<!-- Blob&#45;&gt;Stringy -->
<g id="edge4" class="edge">
<title>Blob&#45;&gt;Stringy</title>
<path fill="none" stroke="#6666ff" d="M153.75,-108.3C153.75,-116.02 153.75,-125.29 153.75,-133.89"/>
<polygon fill="#6666ff" stroke="#6666ff" points="150.25,-133.9 153.75,-143.9 157.25,-133.9 150.25,-133.9"/>
</g>
<!-- Mu -->
<g id="node4" class="node">
<title>Mu</title>
<g id="a_node4"><a xlink:href="/type/Mu" xlink:title="Mu">
<ellipse fill="none" stroke="#000000" cx="236.75" cy="-162" rx="27" ry="18"/>
<text text-anchor="middle" x="236.75" y="-158.3" font-family="FreeSans" font-size="14.00" fill="#000000">Mu</text>
</a>
</g>
</g>
<!-- Any -->
<g id="node5" class="node">
<title>Any</title>
<g id="a_node5"><a xlink:href="/type/Any" xlink:title="Any">
<ellipse fill="none" stroke="#000000" cx="231.75" cy="-90" rx="27" ry="18"/>
<text text-anchor="middle" x="231.75" y="-86.3" font-family="FreeSans" font-size="14.00" fill="#000000">Any</text>
</a>
</g>
</g>
<!-- Any&#45;&gt;Mu -->
<g id="edge1" class="edge">
<title>Any&#45;&gt;Mu</title>
<path fill="none" stroke="#000000" d="M232.98,-108.3C233.53,-116.02 234.19,-125.29 234.81,-133.89"/>
<polygon fill="#000000" stroke="#000000" points="231.32,-134.17 235.52,-143.9 238.3,-133.67 231.32,-134.17"/>
</g>
<!-- utf8 -->
<g id="node6" class="node">
<title>utf8</title>
<g id="a_node6"><a xlink:href="/type/utf8" xlink:title="utf8">
<ellipse fill="none" stroke="#000000" cx="226.75" cy="-18" rx="27" ry="18"/>
<text text-anchor="middle" x="226.75" y="-14.3" font-family="FreeSans" font-size="14.00" fill="#000000">utf8</text>
</a>
</g>
</g>
<!-- utf8&#45;&gt;Blob -->
<g id="edge5" class="edge">
<title>utf8&#45;&gt;Blob</title>
<path fill="none" stroke="#6666ff" d="M211.97,-33.17C201.65,-43.06 187.69,-56.45 176.02,-67.64"/>
<polygon fill="#6666ff" stroke="#6666ff" points="173.54,-65.17 168.75,-74.62 178.39,-70.22 173.54,-65.17"/>
</g>
<!-- utf8&#45;&gt;Any -->
<g id="edge2" class="edge">
<title>utf8&#45;&gt;Any</title>
<path fill="none" stroke="#000000" d="M227.98,-36.3C228.53,-44.02 229.19,-53.29 229.81,-61.89"/>
<polygon fill="#000000" stroke="#000000" points="226.32,-62.17 230.52,-71.9 233.3,-61.67 226.32,-62.17"/>
</g>
<!-- Buf -->
<g id="node7" class="node">
<title>Buf</title>
<g id="a_node7"><a xlink:href="/type/Buf" xlink:title="Buf">
<ellipse fill="none" stroke="#6666ff" cx="153.75" cy="-18" rx="27" ry="18"/>
<text text-anchor="middle" x="153.75" y="-14.3" font-family="FreeSans" font-size="14.00" fill="#6666ff">Buf</text>
</a>
</g>
</g>
<!-- Buf&#45;&gt;Blob -->
<g id="edge6" class="edge">
<title>Buf&#45;&gt;Blob</title>
<path fill="none" stroke="#6666ff" d="M153.75,-36.3C153.75,-44.02 153.75,-53.29 153.75,-61.89"/>
<polygon fill="#6666ff" stroke="#6666ff" points="150.25,-61.9 153.75,-71.9 157.25,-61.9 150.25,-61.9"/>
</g>
</g>
</svg>
