<?xml version="1.0" encoding="UTF-8" standalone="no"?>
<!DOCTYPE svg PUBLIC "-//W3C//DTD SVG 1.1//EN"
 "http://www.w3.org/Graphics/SVG/1.1/DTD/svg11.dtd">
<!-- Generated by graphviz version 2.43.0 (0)
 -->
<!-- Title: perl6&#45;type&#45;graph Pages: 1 -->
<svg width="200pt" height="188pt"
 viewBox="0.00 0.00 200.09 188.00" xmlns="http://www.w3.org/2000/svg" xmlns:xlink="http://www.w3.org/1999/xlink">
<g id="graph0" class="graph" transform="scale(1 1) rotate(0) translate(4 184)">
<title>perl6&#45;type&#45;graph</title>
<polygon fill="white" stroke="transparent" points="-4,4 -4,-184 196.09,-184 196.09,4 -4,4"/>
<!-- Buf -->
<g id="node1" class="node">
<title>Buf</title>
<g id="a_node1"><a xlink:href="/type/Buf" xlink:title="Buf">
<ellipse fill="none" stroke="#6666ff" cx="100.75" cy="-18" rx="27" ry="18"/>
<text text-anchor="middle" x="100.75" y="-14.3" font-family="FreeSans" font-size="14.00" fill="#6666ff">Buf</text>
</a>
</g>
</g>
<!-- Blob -->
<g id="node4" class="node">
<title>Blob</title>
<g id="a_node4"><a xlink:href="/type/Blob" xlink:title="Blob">
<ellipse fill="none" stroke="#6666ff" cx="100.75" cy="-90" rx="28.7" ry="18"/>
<text text-anchor="middle" x="100.75" y="-86.3" font-family="FreeSans" font-size="14.00" fill="#6666ff">Blob</text>
</a>
</g>
</g>
<!-- Buf&#45;&gt;Blob -->
<g id="edge1" class="edge">
<title>Buf&#45;&gt;Blob</title>
<path fill="none" stroke="#6666ff" d="M100.75,-36.3C100.75,-44.02 100.75,-53.29 100.75,-61.89"/>
<polygon fill="#6666ff" stroke="#6666ff" points="97.25,-61.9 100.75,-71.9 104.25,-61.9 97.25,-61.9"/>
</g>
<!-- Positional -->
<g id="node2" class="node">
<title>Positional</title>
<g id="a_node2"><a xlink:href="/type/Positional" xlink:title="Positional">
<ellipse fill="none" stroke="#6666ff" cx="48.75" cy="-162" rx="48.99" ry="18"/>
<text text-anchor="middle" x="48.75" y="-158.3" font-family="FreeSans" font-size="14.00" fill="#6666ff">Positional</text>
</a>
</g>
</g>
<!-- Stringy -->
<g id="node3" class="node">
<title>Stringy</title>
<g id="a_node3"><a xlink:href="/type/Stringy" xlink:title="Stringy">
<ellipse fill="none" stroke="#6666ff" cx="153.75" cy="-162" rx="38.19" ry="18"/>
<text text-anchor="middle" x="153.75" y="-158.3" font-family="FreeSans" font-size="14.00" fill="#6666ff">Stringy</text>
</a>
</g>
</g>
<!-- Blob&#45;&gt;Positional -->
<g id="edge2" class="edge">
<title>Blob&#45;&gt;Positional</title>
<path fill="none" stroke="#6666ff" d="M89.21,-106.54C82.73,-115.26 74.49,-126.35 67.14,-136.24"/>
<polygon fill="#6666ff" stroke="#6666ff" points="64.13,-134.42 60.98,-144.53 69.75,-138.59 64.13,-134.42"/>
</g>
<!-- Blob&#45;&gt;Stringy -->
<g id="edge3" class="edge">
<title>Blob&#45;&gt;Stringy</title>
<path fill="none" stroke="#6666ff" d="M112.51,-106.54C119.18,-115.35 127.68,-126.57 135.22,-136.54"/>
<polygon fill="#6666ff" stroke="#6666ff" points="132.45,-138.67 141.28,-144.53 138.03,-134.45 132.45,-138.67"/>
</g>
</g>
</svg>
