<?xml version="1.0" encoding="UTF-8" standalone="no"?>
<!DOCTYPE svg PUBLIC "-//W3C//DTD SVG 1.1//EN"
 "http://www.w3.org/Graphics/SVG/1.1/DTD/svg11.dtd">
<!-- Generated by graphviz version 2.43.0 (0)
 -->
<!-- Title: perl6&#45;type&#45;graph Pages: 1 -->
<svg width="380pt" height="476pt"
 viewBox="0.00 0.00 380.04 476.00" xmlns="http://www.w3.org/2000/svg" xmlns:xlink="http://www.w3.org/1999/xlink">
<g id="graph0" class="graph" transform="scale(1 1) rotate(0) translate(4 472)">
<title>perl6&#45;type&#45;graph</title>
<polygon fill="white" stroke="transparent" points="-4,4 -4,-472 376.04,-472 376.04,4 -4,4"/>
<!-- Code -->
<g id="node1" class="node">
<title>Code</title>
<g id="a_node1"><a xlink:href="/type/Code" xlink:title="Code">
<ellipse fill="none" stroke="#000000" cx="226.75" cy="-306" rx="31.7" ry="18"/>
<text text-anchor="middle" x="226.75" y="-302.3" font-family="FreeSans" font-size="14.00" fill="#000000">Code</text>
</a>
</g>
</g>
<!-- Any -->
<g id="node3" class="node">
<title>Any</title>
<g id="a_node3"><a xlink:href="/type/Any" xlink:title="Any">
<ellipse fill="none" stroke="#000000" cx="183.75" cy="-378" rx="27" ry="18"/>
<text text-anchor="middle" x="183.75" y="-374.3" font-family="FreeSans" font-size="14.00" fill="#000000">Any</text>
</a>
</g>
</g>
<!-- Code&#45;&gt;Any -->
<g id="edge1" class="edge">
<title>Code&#45;&gt;Any</title>
<path fill="none" stroke="#000000" d="M216.77,-323.24C211.51,-331.81 204.94,-342.51 199.04,-352.1"/>
<polygon fill="#000000" stroke="#000000" points="195.92,-350.5 193.67,-360.85 201.88,-354.16 195.92,-350.5"/>
</g>
<!-- Callable -->
<g id="node4" class="node">
<title>Callable</title>
<g id="a_node4"><a xlink:href="/type/Callable" xlink:title="Callable">
<ellipse fill="none" stroke="#6666ff" cx="270.75" cy="-378" rx="42.49" ry="18"/>
<text text-anchor="middle" x="270.75" y="-374.3" font-family="FreeSans" font-size="14.00" fill="#6666ff">Callable</text>
</a>
</g>
</g>
<!-- Code&#45;&gt;Callable -->
<g id="edge11" class="edge">
<title>Code&#45;&gt;Callable</title>
<path fill="none" stroke="#6666ff" d="M236.95,-323.24C242.26,-331.68 248.87,-342.2 254.84,-351.69"/>
<polygon fill="#6666ff" stroke="#6666ff" points="252.01,-353.76 260.29,-360.37 257.93,-350.04 252.01,-353.76"/>
</g>
<!-- Mu -->
<g id="node2" class="node">
<title>Mu</title>
<g id="a_node2"><a xlink:href="/type/Mu" xlink:title="Mu">
<ellipse fill="none" stroke="#000000" cx="183.75" cy="-450" rx="27" ry="18"/>
<text text-anchor="middle" x="183.75" y="-446.3" font-family="FreeSans" font-size="14.00" fill="#000000">Mu</text>
</a>
</g>
</g>
<!-- Any&#45;&gt;Mu -->
<g id="edge2" class="edge">
<title>Any&#45;&gt;Mu</title>
<path fill="none" stroke="#000000" d="M183.75,-396.3C183.75,-404.02 183.75,-413.29 183.75,-421.89"/>
<polygon fill="#000000" stroke="#000000" points="180.25,-421.9 183.75,-431.9 187.25,-421.9 180.25,-421.9"/>
</g>
<!-- Block -->
<g id="node5" class="node">
<title>Block</title>
<g id="a_node5"><a xlink:href="/type/Block" xlink:title="Block">
<ellipse fill="none" stroke="#000000" cx="166.75" cy="-234" rx="32.49" ry="18"/>
<text text-anchor="middle" x="166.75" y="-230.3" font-family="FreeSans" font-size="14.00" fill="#000000">Block</text>
</a>
</g>
</g>
<!-- Block&#45;&gt;Code -->
<g id="edge3" class="edge">
<title>Block&#45;&gt;Code</title>
<path fill="none" stroke="#000000" d="M180.06,-250.54C187.91,-259.69 197.99,-271.45 206.77,-281.69"/>
<polygon fill="#000000" stroke="#000000" points="204.3,-284.19 213.47,-289.51 209.62,-279.64 204.3,-284.19"/>
</g>
<!-- WhateverCode -->
<g id="node6" class="node">
<title>WhateverCode</title>
<g id="a_node6"><a xlink:href="/type/WhateverCode" xlink:title="WhateverCode">
<ellipse fill="none" stroke="#000000" cx="286.75" cy="-234" rx="69.59" ry="18"/>
<text text-anchor="middle" x="286.75" y="-230.3" font-family="FreeSans" font-size="14.00" fill="#000000">WhateverCode</text>
</a>
</g>
</g>
<!-- WhateverCode&#45;&gt;Code -->
<g id="edge4" class="edge">
<title>WhateverCode&#45;&gt;Code</title>
<path fill="none" stroke="#000000" d="M272.22,-251.95C264.64,-260.8 255.23,-271.77 246.95,-281.43"/>
<polygon fill="#000000" stroke="#000000" points="244.17,-279.3 240.31,-289.17 249.48,-283.86 244.17,-279.3"/>
</g>
<!-- Routine -->
<g id="node7" class="node">
<title>Routine</title>
<g id="a_node7"><a xlink:href="/type/Routine" xlink:title="Routine">
<ellipse fill="none" stroke="#000000" cx="166.75" cy="-162" rx="40.89" ry="18"/>
<text text-anchor="middle" x="166.75" y="-158.3" font-family="FreeSans" font-size="14.00" fill="#000000">Routine</text>
</a>
</g>
</g>
<!-- Routine&#45;&gt;Block -->
<g id="edge5" class="edge">
<title>Routine&#45;&gt;Block</title>
<path fill="none" stroke="#000000" d="M166.75,-180.3C166.75,-188.02 166.75,-197.29 166.75,-205.89"/>
<polygon fill="#000000" stroke="#000000" points="163.25,-205.9 166.75,-215.9 170.25,-205.9 163.25,-205.9"/>
</g>
<!-- Macro -->
<g id="node8" class="node">
<title>Macro</title>
<g id="a_node8"><a xlink:href="/type/Macro" xlink:title="Macro">
<ellipse fill="none" stroke="#000000" cx="35.75" cy="-90" rx="36" ry="18"/>
<text text-anchor="middle" x="35.75" y="-86.3" font-family="FreeSans" font-size="14.00" fill="#000000">Macro</text>
</a>
</g>
</g>
<!-- Macro&#45;&gt;Routine -->
<g id="edge6" class="edge">
<title>Macro&#45;&gt;Routine</title>
<path fill="none" stroke="#000000" d="M59.47,-103.68C79.95,-114.62 109.78,-130.56 132.78,-142.85"/>
<polygon fill="#000000" stroke="#000000" points="131.39,-146.08 141.86,-147.7 134.69,-139.9 131.39,-146.08"/>
</g>
<!-- Sub -->
<g id="node9" class="node">
<title>Sub</title>
<g id="a_node9"><a xlink:href="/type/Sub" xlink:title="Sub">
<ellipse fill="none" stroke="#000000" cx="116.75" cy="-90" rx="27" ry="18"/>
<text text-anchor="middle" x="116.75" y="-86.3" font-family="FreeSans" font-size="14.00" fill="#000000">Sub</text>
</a>
</g>
</g>
<!-- Sub&#45;&gt;Routine -->
<g id="edge7" class="edge">
<title>Sub&#45;&gt;Routine</title>
<path fill="none" stroke="#000000" d="M127.84,-106.54C134.07,-115.26 141.99,-126.35 149.06,-136.24"/>
<polygon fill="#000000" stroke="#000000" points="146.32,-138.43 154.98,-144.53 152.02,-134.36 146.32,-138.43"/>
</g>
<!-- Submethod -->
<g id="node10" class="node">
<title>Submethod</title>
<g id="a_node10"><a xlink:href="/type/Submethod" xlink:title="Submethod">
<ellipse fill="none" stroke="#000000" cx="217.75" cy="-90" rx="55.79" ry="18"/>
<text text-anchor="middle" x="217.75" y="-86.3" font-family="FreeSans" font-size="14.00" fill="#000000">Submethod</text>
</a>
</g>
</g>
<!-- Submethod&#45;&gt;Routine -->
<g id="edge8" class="edge">
<title>Submethod&#45;&gt;Routine</title>
<path fill="none" stroke="#000000" d="M205.66,-107.59C199.44,-116.13 191.72,-126.72 184.81,-136.21"/>
<polygon fill="#000000" stroke="#000000" points="181.81,-134.39 178.75,-144.53 187.46,-138.51 181.81,-134.39"/>
</g>
<!-- Method -->
<g id="node11" class="node">
<title>Method</title>
<g id="a_node11"><a xlink:href="/type/Method" xlink:title="Method">
<ellipse fill="none" stroke="#000000" cx="331.75" cy="-90" rx="40.09" ry="18"/>
<text text-anchor="middle" x="331.75" y="-86.3" font-family="FreeSans" font-size="14.00" fill="#000000">Method</text>
</a>
</g>
</g>
<!-- Method&#45;&gt;Routine -->
<g id="edge9" class="edge">
<title>Method&#45;&gt;Routine</title>
<path fill="none" stroke="#000000" d="M303.38,-103.03C276.11,-114.6 234.71,-132.17 204.63,-144.93"/>
<polygon fill="#000000" stroke="#000000" points="203.13,-141.76 195.29,-148.89 205.87,-148.21 203.13,-141.76"/>
</g>
<!-- Regex -->
<g id="node12" class="node">
<title>Regex</title>
<g id="a_node12"><a xlink:href="/type/Regex" xlink:title="Regex">
<ellipse fill="none" stroke="#000000" cx="331.75" cy="-18" rx="36.29" ry="18"/>
<text text-anchor="middle" x="331.75" y="-14.3" font-family="FreeSans" font-size="14.00" fill="#000000">Regex</text>
</a>
</g>
</g>
<!-- Regex&#45;&gt;Method -->
<g id="edge10" class="edge">
<title>Regex&#45;&gt;Method</title>
<path fill="none" stroke="#000000" d="M331.75,-36.3C331.75,-44.02 331.75,-53.29 331.75,-61.89"/>
<polygon fill="#000000" stroke="#000000" points="328.25,-61.9 331.75,-71.9 335.25,-61.9 328.25,-61.9"/>
</g>
</g>
</svg>
