<?xml version="1.0" encoding="UTF-8" standalone="no"?>
<!DOCTYPE svg PUBLIC "-//W3C//DTD SVG 1.1//EN"
 "http://www.w3.org/Graphics/SVG/1.1/DTD/svg11.dtd">
<!-- Generated by graphviz version 2.43.0 (0)
 -->
<!-- Title: perl6&#45;type&#45;graph Pages: 1 -->
<svg width="850pt" height="188pt"
 viewBox="0.00 0.00 849.88 188.00" xmlns="http://www.w3.org/2000/svg" xmlns:xlink="http://www.w3.org/1999/xlink">
<g id="graph0" class="graph" transform="scale(1 1) rotate(0) translate(4 184)">
<title>perl6&#45;type&#45;graph</title>
<polygon fill="white" stroke="transparent" points="-4,4 -4,-184 845.88,-184 845.88,4 -4,4"/>
<!-- CompUnit::Repository::Locally -->
<g id="node1" class="node">
<title>CompUnit::Repository::Locally</title>
<g id="a_node1"><a xlink:href="/type/CompUnit::Repository::Locally" xlink:title="CompUnit::Repository::Locally">
<ellipse fill="none" stroke="#6666ff" cx="340.84" cy="-90" rx="129.18" ry="18"/>
<text text-anchor="middle" x="340.84" y="-86.3" font-family="FreeSans" font-size="14.00" fill="#6666ff">CompUnit::Repository::Locally</text>
</a>
</g>
</g>
<!-- Mu -->
<g id="node2" class="node">
<title>Mu</title>
<g id="a_node2"><a xlink:href="/type/Mu" xlink:title="Mu">
<ellipse fill="none" stroke="#000000" cx="514.84" cy="-162" rx="27" ry="18"/>
<text text-anchor="middle" x="514.84" y="-158.3" font-family="FreeSans" font-size="14.00" fill="#000000">Mu</text>
</a>
</g>
</g>
<!-- Any -->
<g id="node3" class="node">
<title>Any</title>
<g id="a_node3"><a xlink:href="/type/Any" xlink:title="Any">
<ellipse fill="none" stroke="#000000" cx="514.84" cy="-90" rx="27" ry="18"/>
<text text-anchor="middle" x="514.84" y="-86.3" font-family="FreeSans" font-size="14.00" fill="#000000">Any</text>
</a>
</g>
</g>
<!-- Any&#45;&gt;Mu -->
<g id="edge1" class="edge">
<title>Any&#45;&gt;Mu</title>
<path fill="none" stroke="#000000" d="M514.84,-108.3C514.84,-116.02 514.84,-125.29 514.84,-133.89"/>
<polygon fill="#000000" stroke="#000000" points="511.34,-133.9 514.84,-143.9 518.34,-133.9 511.34,-133.9"/>
</g>
<!-- CompUnit::Repository::Installable -->
<g id="node4" class="node">
<title>CompUnit::Repository::Installable</title>
<g id="a_node4"><a xlink:href="/type/CompUnit::Repository::Installable" xlink:title="CompUnit::Repository::Installable">
<ellipse fill="none" stroke="#6666ff" cx="700.84" cy="-90" rx="141.07" ry="18"/>
<text text-anchor="middle" x="700.84" y="-86.3" font-family="FreeSans" font-size="14.00" fill="#6666ff">CompUnit::Repository::Installable</text>
</a>
</g>
</g>
<!-- CompUnit::Repository::Installation -->
<g id="node5" class="node">
<title>CompUnit::Repository::Installation</title>
<g id="a_node5"><a xlink:href="/type/CompUnit::Repository::Installation" xlink:title="CompUnit::Repository::Installation">
<ellipse fill="none" stroke="#000000" cx="580.84" cy="-18" rx="143.77" ry="18"/>
<text text-anchor="middle" x="580.84" y="-14.3" font-family="FreeSans" font-size="14.00" fill="#000000">CompUnit::Repository::Installation</text>
</a>
</g>
</g>
<!-- CompUnit::Repository::Installation&#45;&gt;CompUnit::Repository::Locally -->
<g id="edge4" class="edge">
<title>CompUnit::Repository::Installation&#45;&gt;CompUnit::Repository::Locally</title>
<path fill="none" stroke="#6666ff" d="M526.98,-34.71C490.57,-45.33 442.35,-59.39 404.11,-70.55"/>
<polygon fill="#6666ff" stroke="#6666ff" points="402.73,-67.3 394.11,-73.46 404.69,-74.02 402.73,-67.3"/>
</g>
<!-- CompUnit::Repository::Installation&#45;&gt;Any -->
<g id="edge2" class="edge">
<title>CompUnit::Repository::Installation&#45;&gt;Any</title>
<path fill="none" stroke="#000000" d="M564.86,-35.95C556.2,-45.14 545.37,-56.62 536,-66.55"/>
<polygon fill="#000000" stroke="#000000" points="533.19,-64.43 528.88,-74.11 538.29,-69.24 533.19,-64.43"/>
</g>
<!-- CompUnit::Repository::Installation&#45;&gt;CompUnit::Repository::Installable -->
<g id="edge5" class="edge">
<title>CompUnit::Repository::Installation&#45;&gt;CompUnit::Repository::Installable</title>
<path fill="none" stroke="#6666ff" d="M609.58,-35.77C625.76,-45.2 646.15,-57.1 663.55,-67.24"/>
<polygon fill="#6666ff" stroke="#6666ff" points="661.93,-70.35 672.33,-72.37 665.46,-64.31 661.93,-70.35"/>
</g>
<!-- CompUnit::Repository -->
<g id="node6" class="node">
<title>CompUnit::Repository</title>
<g id="a_node6"><a xlink:href="/type/CompUnit::Repository" xlink:title="CompUnit::Repository">
<ellipse fill="none" stroke="#6666ff" cx="96.84" cy="-90" rx="96.68" ry="18"/>
<text text-anchor="middle" x="96.84" y="-86.3" font-family="FreeSans" font-size="14.00" fill="#6666ff">CompUnit::Repository</text>
</a>
</g>
</g>
<!-- CompUnit::Repository::FileSystem -->
<g id="node7" class="node">
<title>CompUnit::Repository::FileSystem</title>
<g id="a_node7"><a xlink:href="/type/CompUnit::Repository::FileSystem" xlink:title="CompUnit::Repository::FileSystem">
<ellipse fill="none" stroke="#000000" cx="273.84" cy="-18" rx="144.87" ry="18"/>
<text text-anchor="middle" x="273.84" y="-14.3" font-family="FreeSans" font-size="14.00" fill="#000000">CompUnit::Repository::FileSystem</text>
</a>
</g>
</g>
<!-- CompUnit::Repository::FileSystem&#45;&gt;CompUnit::Repository::Locally -->
<g id="edge6" class="edge">
<title>CompUnit::Repository::FileSystem&#45;&gt;CompUnit::Repository::Locally</title>
<path fill="none" stroke="#6666ff" d="M290.06,-35.95C298.25,-44.5 308.34,-55.04 317.36,-64.46"/>
<polygon fill="#6666ff" stroke="#6666ff" points="314.86,-66.92 324.31,-71.72 319.92,-62.08 314.86,-66.92"/>
</g>
<!-- CompUnit::Repository::FileSystem&#45;&gt;Any -->
<g id="edge3" class="edge">
<title>CompUnit::Repository::FileSystem&#45;&gt;Any</title>
<path fill="none" stroke="#000000" d="M333.69,-34.47C394.2,-50.12 478.84,-72 478.84,-72 478.84,-72 481.02,-73.03 484.31,-74.58"/>
<polygon fill="#000000" stroke="#000000" points="482.95,-77.81 493.48,-78.91 485.94,-71.48 482.95,-77.81"/>
</g>
<!-- CompUnit::Repository::FileSystem&#45;&gt;CompUnit::Repository -->
<g id="edge7" class="edge">
<title>CompUnit::Repository::FileSystem&#45;&gt;CompUnit::Repository</title>
<path fill="none" stroke="#6666ff" d="M232.34,-35.41C206.29,-45.71 172.59,-59.04 145.31,-69.83"/>
<polygon fill="#6666ff" stroke="#6666ff" points="143.97,-66.6 135.96,-73.53 146.54,-73.11 143.97,-66.6"/>
</g>
</g>
</svg>
