<?xml version="1.0" encoding="UTF-8" standalone="no"?>
<!DOCTYPE svg PUBLIC "-//W3C//DTD SVG 1.1//EN"
 "http://www.w3.org/Graphics/SVG/1.1/DTD/svg11.dtd">
<!-- Generated by graphviz version 2.43.0 (0)
 -->
<!-- Title: perl6&#45;type&#45;graph Pages: 1 -->
<svg width="638pt" height="188pt"
 viewBox="0.00 0.00 638.38 188.00" xmlns="http://www.w3.org/2000/svg" xmlns:xlink="http://www.w3.org/1999/xlink">
<g id="graph0" class="graph" transform="scale(1 1) rotate(0) translate(4 184)">
<title>perl6&#45;type&#45;graph</title>
<polygon fill="white" stroke="transparent" points="-4,4 -4,-184 634.38,-184 634.38,4 -4,4"/>
<!-- CompUnit::Repository::Installable -->
<g id="node1" class="node">
<title>CompUnit::Repository::Installable</title>
<g id="a_node1"><a xlink:href="/type/CompUnit::Repository::Installable" xlink:title="CompUnit::Repository::Installable">
<ellipse fill="none" stroke="#6666ff" cx="141.04" cy="-90" rx="141.07" ry="18"/>
<text text-anchor="middle" x="141.04" y="-86.3" font-family="FreeSans" font-size="14.00" fill="#6666ff">CompUnit::Repository::Installable</text>
</a>
</g>
</g>
<!-- Mu -->
<g id="node2" class="node">
<title>Mu</title>
<g id="a_node2"><a xlink:href="/type/Mu" xlink:title="Mu">
<ellipse fill="none" stroke="#000000" cx="327.04" cy="-162" rx="27" ry="18"/>
<text text-anchor="middle" x="327.04" y="-158.3" font-family="FreeSans" font-size="14.00" fill="#000000">Mu</text>
</a>
</g>
</g>
<!-- Any -->
<g id="node3" class="node">
<title>Any</title>
<g id="a_node3"><a xlink:href="/type/Any" xlink:title="Any">
<ellipse fill="none" stroke="#000000" cx="327.04" cy="-90" rx="27" ry="18"/>
<text text-anchor="middle" x="327.04" y="-86.3" font-family="FreeSans" font-size="14.00" fill="#000000">Any</text>
</a>
</g>
</g>
<!-- Any&#45;&gt;Mu -->
<g id="edge1" class="edge">
<title>Any&#45;&gt;Mu</title>
<path fill="none" stroke="#000000" d="M327.04,-108.3C327.04,-116.02 327.04,-125.29 327.04,-133.89"/>
<polygon fill="#000000" stroke="#000000" points="323.54,-133.9 327.04,-143.9 330.54,-133.9 323.54,-133.9"/>
</g>
<!-- CompUnit::Repository::Locally -->
<g id="node4" class="node">
<title>CompUnit::Repository::Locally</title>
<g id="a_node4"><a xlink:href="/type/CompUnit::Repository::Locally" xlink:title="CompUnit::Repository::Locally">
<ellipse fill="none" stroke="#6666ff" cx="501.04" cy="-90" rx="129.18" ry="18"/>
<text text-anchor="middle" x="501.04" y="-86.3" font-family="FreeSans" font-size="14.00" fill="#6666ff">CompUnit::Repository::Locally</text>
</a>
</g>
</g>
<!-- CompUnit::Repository::Installation -->
<g id="node5" class="node">
<title>CompUnit::Repository::Installation</title>
<g id="a_node5"><a xlink:href="/type/CompUnit::Repository::Installation" xlink:title="CompUnit::Repository::Installation">
<ellipse fill="none" stroke="#000000" cx="327.04" cy="-18" rx="143.77" ry="18"/>
<text text-anchor="middle" x="327.04" y="-14.3" font-family="FreeSans" font-size="14.00" fill="#000000">CompUnit::Repository::Installation</text>
</a>
</g>
</g>
<!-- CompUnit::Repository::Installation&#45;&gt;CompUnit::Repository::Installable -->
<g id="edge4" class="edge">
<title>CompUnit::Repository::Installation&#45;&gt;CompUnit::Repository::Installable</title>
<path fill="none" stroke="#6666ff" d="M283.9,-35.24C256.9,-45.4 221.95,-58.55 193.37,-69.31"/>
<polygon fill="#6666ff" stroke="#6666ff" points="192.07,-66.05 183.94,-72.85 194.54,-72.61 192.07,-66.05"/>
</g>
<!-- CompUnit::Repository::Installation&#45;&gt;Any -->
<g id="edge2" class="edge">
<title>CompUnit::Repository::Installation&#45;&gt;Any</title>
<path fill="none" stroke="#000000" d="M327.04,-36.3C327.04,-44.02 327.04,-53.29 327.04,-61.89"/>
<polygon fill="#000000" stroke="#000000" points="323.54,-61.9 327.04,-71.9 330.54,-61.9 323.54,-61.9"/>
</g>
<!-- CompUnit::Repository::Installation&#45;&gt;CompUnit::Repository::Locally -->
<g id="edge3" class="edge">
<title>CompUnit::Repository::Installation&#45;&gt;CompUnit::Repository::Locally</title>
<path fill="none" stroke="#6666ff" d="M367.83,-35.41C392.79,-45.45 424.9,-58.37 451.34,-69.01"/>
<polygon fill="#6666ff" stroke="#6666ff" points="450.21,-72.33 460.8,-72.81 452.83,-65.83 450.21,-72.33"/>
</g>
</g>
</svg>
