<?xml version="1.0" encoding="UTF-8" standalone="no"?>
<!DOCTYPE svg PUBLIC "-//W3C//DTD SVG 1.1//EN"
 "http://www.w3.org/Graphics/SVG/1.1/DTD/svg11.dtd">
<!-- Generated by graphviz version 2.43.0 (0)
 -->
<!-- Title: perl6&#45;type&#45;graph Pages: 1 -->
<svg width="638pt" height="188pt"
 viewBox="0.00 0.00 638.04 188.00" xmlns="http://www.w3.org/2000/svg" xmlns:xlink="http://www.w3.org/1999/xlink">
<g id="graph0" class="graph" transform="scale(1 1) rotate(0) translate(4 184)">
<title>perl6&#45;type&#45;graph</title>
<polygon fill="white" stroke="transparent" points="-4,4 -4,-184 634.04,-184 634.04,4 -4,4"/>
<!-- CompUnit::Repository::Installation -->
<g id="node1" class="node">
<title>CompUnit::Repository::Installation</title>
<g id="a_node1"><a xlink:href="/type/CompUnit::Repository::Installation" xlink:title="CompUnit::Repository::Installation">
<ellipse fill="none" stroke="#000000" cx="201" cy="-18" rx="143.77" ry="18"/>
<text text-anchor="middle" x="201" y="-14.3" font-family="FreeSans" font-size="14.00" fill="#000000">CompUnit::Repository::Installation</text>
</a>
</g>
</g>
<!-- Any -->
<g id="node3" class="node">
<title>Any</title>
<g id="a_node3"><a xlink:href="/type/Any" xlink:title="Any">
<ellipse fill="none" stroke="#000000" cx="27" cy="-90" rx="27" ry="18"/>
<text text-anchor="middle" x="27" y="-86.3" font-family="FreeSans" font-size="14.00" fill="#000000">Any</text>
</a>
</g>
</g>
<!-- CompUnit::Repository::Installation&#45;&gt;Any -->
<g id="edge1" class="edge">
<title>CompUnit::Repository::Installation&#45;&gt;Any</title>
<path fill="none" stroke="#000000" d="M158.47,-35.33C117.92,-50.91 63,-72 63,-72 63,-72 60.82,-73.03 57.53,-74.58"/>
<polygon fill="#000000" stroke="#000000" points="55.91,-71.48 48.36,-78.91 58.89,-77.81 55.91,-71.48"/>
</g>
<!-- CompUnit::Repository::Locally -->
<g id="node4" class="node">
<title>CompUnit::Repository::Locally</title>
<g id="a_node4"><a xlink:href="/type/CompUnit::Repository::Locally" xlink:title="CompUnit::Repository::Locally">
<ellipse fill="none" stroke="#6666ff" cx="201" cy="-90" rx="129.18" ry="18"/>
<text text-anchor="middle" x="201" y="-86.3" font-family="FreeSans" font-size="14.00" fill="#6666ff">CompUnit::Repository::Locally</text>
</a>
</g>
</g>
<!-- CompUnit::Repository::Installation&#45;&gt;CompUnit::Repository::Locally -->
<g id="edge3" class="edge">
<title>CompUnit::Repository::Installation&#45;&gt;CompUnit::Repository::Locally</title>
<path fill="none" stroke="#6666ff" d="M201,-36.3C201,-44.02 201,-53.29 201,-61.89"/>
<polygon fill="#6666ff" stroke="#6666ff" points="197.5,-61.9 201,-71.9 204.5,-61.9 197.5,-61.9"/>
</g>
<!-- CompUnit::Repository::Installable -->
<g id="node5" class="node">
<title>CompUnit::Repository::Installable</title>
<g id="a_node5"><a xlink:href="/type/CompUnit::Repository::Installable" xlink:title="CompUnit::Repository::Installable">
<ellipse fill="none" stroke="#6666ff" cx="489" cy="-90" rx="141.07" ry="18"/>
<text text-anchor="middle" x="489" y="-86.3" font-family="FreeSans" font-size="14.00" fill="#6666ff">CompUnit::Repository::Installable</text>
</a>
</g>
</g>
<!-- CompUnit::Repository::Installation&#45;&gt;CompUnit::Repository::Installable -->
<g id="edge4" class="edge">
<title>CompUnit::Repository::Installation&#45;&gt;CompUnit::Repository::Installable</title>
<path fill="none" stroke="#6666ff" d="M263.85,-34.28C308.81,-45.2 369.45,-59.94 416.47,-71.37"/>
<polygon fill="#6666ff" stroke="#6666ff" points="415.74,-74.8 426.29,-73.76 417.4,-67.99 415.74,-74.8"/>
</g>
<!-- Mu -->
<g id="node2" class="node">
<title>Mu</title>
<g id="a_node2"><a xlink:href="/type/Mu" xlink:title="Mu">
<ellipse fill="none" stroke="#000000" cx="27" cy="-162" rx="27" ry="18"/>
<text text-anchor="middle" x="27" y="-158.3" font-family="FreeSans" font-size="14.00" fill="#000000">Mu</text>
</a>
</g>
</g>
<!-- Any&#45;&gt;Mu -->
<g id="edge2" class="edge">
<title>Any&#45;&gt;Mu</title>
<path fill="none" stroke="#000000" d="M27,-108.3C27,-116.02 27,-125.29 27,-133.89"/>
<polygon fill="#000000" stroke="#000000" points="23.5,-133.9 27,-143.9 30.5,-133.9 23.5,-133.9"/>
</g>
</g>
</svg>
