<?xml version="1.0" encoding="UTF-8" standalone="no"?>
<!DOCTYPE svg PUBLIC "-//W3C//DTD SVG 1.1//EN"
 "http://www.w3.org/Graphics/SVG/1.1/DTD/svg11.dtd">
<!-- Generated by graphviz version 2.43.0 (0)
 -->
<!-- Title: perl6&#45;type&#45;graph Pages: 1 -->
<svg width="218pt" height="404pt"
 viewBox="0.00 0.00 217.54 404.00" xmlns="http://www.w3.org/2000/svg" xmlns:xlink="http://www.w3.org/1999/xlink">
<g id="graph0" class="graph" transform="scale(1 1) rotate(0) translate(4 400)">
<title>perl6&#45;type&#45;graph</title>
<polygon fill="white" stroke="transparent" points="-4,4 -4,-400 213.54,-400 213.54,4 -4,4"/>
<!-- Complex -->
<g id="node1" class="node">
<title>Complex</title>
<g id="a_node1"><a xlink:href="/type/Complex" xlink:title="Complex">
<ellipse fill="none" stroke="#000000" cx="45.5" cy="-90" rx="45.49" ry="18"/>
<text text-anchor="middle" x="45.5" y="-86.3" font-family="FreeSans" font-size="14.00" fill="#000000">Complex</text>
</a>
</g>
</g>
<!-- Cool -->
<g id="node4" class="node">
<title>Cool</title>
<g id="a_node4"><a xlink:href="/type/Cool" xlink:title="Cool">
<ellipse fill="none" stroke="#000000" cx="36.5" cy="-234" rx="28.7" ry="18"/>
<text text-anchor="middle" x="36.5" y="-230.3" font-family="FreeSans" font-size="14.00" fill="#000000">Cool</text>
</a>
</g>
</g>
<!-- Complex&#45;&gt;Cool -->
<g id="edge1" class="edge">
<title>Complex&#45;&gt;Cool</title>
<path fill="none" stroke="#000000" d="M36.64,-107.77C28.43,-123.3 17.5,-144 17.5,-144 17.5,-144 17.5,-180 17.5,-180 17.5,-180 22.3,-193.41 27.08,-206.73"/>
<polygon fill="#000000" stroke="#000000" points="23.81,-208 30.48,-216.23 30.4,-205.64 23.81,-208"/>
</g>
<!-- Numeric -->
<g id="node5" class="node">
<title>Numeric</title>
<g id="a_node5"><a xlink:href="/type/Numeric" xlink:title="Numeric">
<ellipse fill="none" stroke="#6666ff" cx="70.5" cy="-162" rx="44.39" ry="18"/>
<text text-anchor="middle" x="70.5" y="-158.3" font-family="FreeSans" font-size="14.00" fill="#6666ff">Numeric</text>
</a>
</g>
</g>
<!-- Complex&#45;&gt;Numeric -->
<g id="edge8" class="edge">
<title>Complex&#45;&gt;Numeric</title>
<path fill="none" stroke="#6666ff" d="M51.55,-107.95C54.36,-115.82 57.78,-125.38 60.93,-134.21"/>
<polygon fill="#6666ff" stroke="#6666ff" points="57.67,-135.48 64.33,-143.72 64.26,-133.13 57.67,-135.48"/>
</g>
<!-- Mu -->
<g id="node2" class="node">
<title>Mu</title>
<g id="a_node2"><a xlink:href="/type/Mu" xlink:title="Mu">
<ellipse fill="none" stroke="#000000" cx="36.5" cy="-378" rx="27" ry="18"/>
<text text-anchor="middle" x="36.5" y="-374.3" font-family="FreeSans" font-size="14.00" fill="#000000">Mu</text>
</a>
</g>
</g>
<!-- Any -->
<g id="node3" class="node">
<title>Any</title>
<g id="a_node3"><a xlink:href="/type/Any" xlink:title="Any">
<ellipse fill="none" stroke="#000000" cx="36.5" cy="-306" rx="27" ry="18"/>
<text text-anchor="middle" x="36.5" y="-302.3" font-family="FreeSans" font-size="14.00" fill="#000000">Any</text>
</a>
</g>
</g>
<!-- Any&#45;&gt;Mu -->
<g id="edge2" class="edge">
<title>Any&#45;&gt;Mu</title>
<path fill="none" stroke="#000000" d="M36.5,-324.3C36.5,-332.02 36.5,-341.29 36.5,-349.89"/>
<polygon fill="#000000" stroke="#000000" points="33,-349.9 36.5,-359.9 40,-349.9 33,-349.9"/>
</g>
<!-- Cool&#45;&gt;Any -->
<g id="edge3" class="edge">
<title>Cool&#45;&gt;Any</title>
<path fill="none" stroke="#000000" d="M36.5,-252.3C36.5,-260.02 36.5,-269.29 36.5,-277.89"/>
<polygon fill="#000000" stroke="#000000" points="33,-277.9 36.5,-287.9 40,-277.9 33,-277.9"/>
</g>
<!-- Stringy -->
<g id="node6" class="node">
<title>Stringy</title>
<g id="a_node6"><a xlink:href="/type/Stringy" xlink:title="Stringy">
<ellipse fill="none" stroke="#6666ff" cx="159.5" cy="-234" rx="38.19" ry="18"/>
<text text-anchor="middle" x="159.5" y="-230.3" font-family="FreeSans" font-size="14.00" fill="#6666ff">Stringy</text>
</a>
</g>
</g>
<!-- Str -->
<g id="node7" class="node">
<title>Str</title>
<g id="a_node7"><a xlink:href="/type/Str" xlink:title="Str">
<ellipse fill="none" stroke="#000000" cx="159.5" cy="-162" rx="27" ry="18"/>
<text text-anchor="middle" x="159.5" y="-158.3" font-family="FreeSans" font-size="14.00" fill="#000000">Str</text>
</a>
</g>
</g>
<!-- Str&#45;&gt;Cool -->
<g id="edge4" class="edge">
<title>Str&#45;&gt;Cool</title>
<path fill="none" stroke="#000000" d="M139.46,-174.4C119.48,-185.78 88.56,-203.37 65.82,-216.31"/>
<polygon fill="#000000" stroke="#000000" points="63.89,-213.38 56.93,-221.37 67.36,-219.46 63.89,-213.38"/>
</g>
<!-- Str&#45;&gt;Stringy -->
<g id="edge9" class="edge">
<title>Str&#45;&gt;Stringy</title>
<path fill="none" stroke="#6666ff" d="M159.5,-180.3C159.5,-188.02 159.5,-197.29 159.5,-205.89"/>
<polygon fill="#6666ff" stroke="#6666ff" points="156,-205.9 159.5,-215.9 163,-205.9 156,-205.9"/>
</g>
<!-- Allomorph -->
<g id="node8" class="node">
<title>Allomorph</title>
<g id="a_node8"><a xlink:href="/type/Allomorph" xlink:title="Allomorph">
<ellipse fill="none" stroke="#000000" cx="159.5" cy="-90" rx="50.09" ry="18"/>
<text text-anchor="middle" x="159.5" y="-86.3" font-family="FreeSans" font-size="14.00" fill="#000000">Allomorph</text>
</a>
</g>
</g>
<!-- Allomorph&#45;&gt;Str -->
<g id="edge5" class="edge">
<title>Allomorph&#45;&gt;Str</title>
<path fill="none" stroke="#000000" d="M159.5,-108.3C159.5,-116.02 159.5,-125.29 159.5,-133.89"/>
<polygon fill="#000000" stroke="#000000" points="156,-133.9 159.5,-143.9 163,-133.9 156,-133.9"/>
</g>
<!-- ComplexStr -->
<g id="node9" class="node">
<title>ComplexStr</title>
<g id="a_node9"><a xlink:href="/type/ComplexStr" xlink:title="ComplexStr">
<ellipse fill="none" stroke="#000000" cx="102.5" cy="-18" rx="56.59" ry="18"/>
<text text-anchor="middle" x="102.5" y="-14.3" font-family="FreeSans" font-size="14.00" fill="#000000">ComplexStr</text>
</a>
</g>
</g>
<!-- ComplexStr&#45;&gt;Complex -->
<g id="edge7" class="edge">
<title>ComplexStr&#45;&gt;Complex</title>
<path fill="none" stroke="#000000" d="M88.99,-35.59C81.96,-44.22 73.23,-54.94 65.44,-64.5"/>
<polygon fill="#000000" stroke="#000000" points="62.51,-62.57 58.91,-72.53 67.94,-66.99 62.51,-62.57"/>
</g>
<!-- ComplexStr&#45;&gt;Allomorph -->
<g id="edge6" class="edge">
<title>ComplexStr&#45;&gt;Allomorph</title>
<path fill="none" stroke="#000000" d="M116,-35.59C123.03,-44.22 131.76,-54.94 139.55,-64.5"/>
<polygon fill="#000000" stroke="#000000" points="137.06,-66.99 146.08,-72.53 142.48,-62.57 137.06,-66.99"/>
</g>
</g>
</svg>
