<?xml version="1.0" encoding="UTF-8" standalone="no"?>
<!DOCTYPE svg PUBLIC "-//W3C//DTD SVG 1.1//EN"
 "http://www.w3.org/Graphics/SVG/1.1/DTD/svg11.dtd">
<!-- Generated by graphviz version 2.43.0 (0)
 -->
<!-- Title: perl6&#45;type&#45;graph Pages: 1 -->
<svg width="248pt" height="404pt"
 viewBox="0.00 0.00 247.54 404.00" xmlns="http://www.w3.org/2000/svg" xmlns:xlink="http://www.w3.org/1999/xlink">
<g id="graph0" class="graph" transform="scale(1 1) rotate(0) translate(4 400)">
<title>perl6&#45;type&#45;graph</title>
<polygon fill="white" stroke="transparent" points="-4,4 -4,-400 243.54,-400 243.54,4 -4,4"/>
<!-- ComplexStr -->
<g id="node1" class="node">
<title>ComplexStr</title>
<g id="a_node1"><a xlink:href="/type/ComplexStr" xlink:title="ComplexStr">
<ellipse fill="none" stroke="#000000" cx="110.35" cy="-18" rx="56.59" ry="18"/>
<text text-anchor="middle" x="110.35" y="-14.3" font-family="FreeSans" font-size="14.00" fill="#000000">ComplexStr</text>
</a>
</g>
</g>
<!-- Allomorph -->
<g id="node7" class="node">
<title>Allomorph</title>
<g id="a_node7"><a xlink:href="/type/Allomorph" xlink:title="Allomorph">
<ellipse fill="none" stroke="#000000" cx="53.35" cy="-90" rx="50.09" ry="18"/>
<text text-anchor="middle" x="53.35" y="-86.3" font-family="FreeSans" font-size="14.00" fill="#000000">Allomorph</text>
</a>
</g>
</g>
<!-- ComplexStr&#45;&gt;Allomorph -->
<g id="edge1" class="edge">
<title>ComplexStr&#45;&gt;Allomorph</title>
<path fill="none" stroke="#000000" d="M96.84,-35.59C89.81,-44.22 81.08,-54.94 73.29,-64.5"/>
<polygon fill="#000000" stroke="#000000" points="70.36,-62.57 66.76,-72.53 75.79,-66.99 70.36,-62.57"/>
</g>
<!-- Complex -->
<g id="node9" class="node">
<title>Complex</title>
<g id="a_node9"><a xlink:href="/type/Complex" xlink:title="Complex">
<ellipse fill="none" stroke="#000000" cx="167.35" cy="-90" rx="45.49" ry="18"/>
<text text-anchor="middle" x="167.35" y="-86.3" font-family="FreeSans" font-size="14.00" fill="#000000">Complex</text>
</a>
</g>
</g>
<!-- ComplexStr&#45;&gt;Complex -->
<g id="edge2" class="edge">
<title>ComplexStr&#45;&gt;Complex</title>
<path fill="none" stroke="#000000" d="M123.85,-35.59C130.88,-44.22 139.61,-54.94 147.4,-64.5"/>
<polygon fill="#000000" stroke="#000000" points="144.91,-66.99 153.94,-72.53 150.34,-62.57 144.91,-66.99"/>
</g>
<!-- Mu -->
<g id="node2" class="node">
<title>Mu</title>
<g id="a_node2"><a xlink:href="/type/Mu" xlink:title="Mu">
<ellipse fill="none" stroke="#000000" cx="123.35" cy="-378" rx="27" ry="18"/>
<text text-anchor="middle" x="123.35" y="-374.3" font-family="FreeSans" font-size="14.00" fill="#000000">Mu</text>
</a>
</g>
</g>
<!-- Any -->
<g id="node3" class="node">
<title>Any</title>
<g id="a_node3"><a xlink:href="/type/Any" xlink:title="Any">
<ellipse fill="none" stroke="#000000" cx="123.35" cy="-306" rx="27" ry="18"/>
<text text-anchor="middle" x="123.35" y="-302.3" font-family="FreeSans" font-size="14.00" fill="#000000">Any</text>
</a>
</g>
</g>
<!-- Any&#45;&gt;Mu -->
<g id="edge3" class="edge">
<title>Any&#45;&gt;Mu</title>
<path fill="none" stroke="#000000" d="M123.35,-324.3C123.35,-332.02 123.35,-341.29 123.35,-349.89"/>
<polygon fill="#000000" stroke="#000000" points="119.85,-349.9 123.35,-359.9 126.85,-349.9 119.85,-349.9"/>
</g>
<!-- Cool -->
<g id="node4" class="node">
<title>Cool</title>
<g id="a_node4"><a xlink:href="/type/Cool" xlink:title="Cool">
<ellipse fill="none" stroke="#000000" cx="123.35" cy="-234" rx="28.7" ry="18"/>
<text text-anchor="middle" x="123.35" y="-230.3" font-family="FreeSans" font-size="14.00" fill="#000000">Cool</text>
</a>
</g>
</g>
<!-- Cool&#45;&gt;Any -->
<g id="edge4" class="edge">
<title>Cool&#45;&gt;Any</title>
<path fill="none" stroke="#000000" d="M123.35,-252.3C123.35,-260.02 123.35,-269.29 123.35,-277.89"/>
<polygon fill="#000000" stroke="#000000" points="119.85,-277.9 123.35,-287.9 126.85,-277.9 119.85,-277.9"/>
</g>
<!-- Stringy -->
<g id="node5" class="node">
<title>Stringy</title>
<g id="a_node5"><a xlink:href="/type/Stringy" xlink:title="Stringy">
<ellipse fill="none" stroke="#6666ff" cx="38.35" cy="-234" rx="38.19" ry="18"/>
<text text-anchor="middle" x="38.35" y="-230.3" font-family="FreeSans" font-size="14.00" fill="#6666ff">Stringy</text>
</a>
</g>
</g>
<!-- Str -->
<g id="node6" class="node">
<title>Str</title>
<g id="a_node6"><a xlink:href="/type/Str" xlink:title="Str">
<ellipse fill="none" stroke="#000000" cx="53.35" cy="-162" rx="27" ry="18"/>
<text text-anchor="middle" x="53.35" y="-158.3" font-family="FreeSans" font-size="14.00" fill="#000000">Str</text>
</a>
</g>
</g>
<!-- Str&#45;&gt;Cool -->
<g id="edge5" class="edge">
<title>Str&#45;&gt;Cool</title>
<path fill="none" stroke="#000000" d="M67.85,-177.5C77.48,-187.14 90.31,-199.96 101.21,-210.86"/>
<polygon fill="#000000" stroke="#000000" points="98.83,-213.44 108.38,-218.03 103.78,-208.49 98.83,-213.44"/>
</g>
<!-- Str&#45;&gt;Stringy -->
<g id="edge8" class="edge">
<title>Str&#45;&gt;Stringy</title>
<path fill="none" stroke="#6666ff" d="M49.72,-179.95C48.05,-187.74 46.02,-197.18 44.15,-205.92"/>
<polygon fill="#6666ff" stroke="#6666ff" points="40.72,-205.21 42.05,-215.72 47.57,-206.68 40.72,-205.21"/>
</g>
<!-- Allomorph&#45;&gt;Str -->
<g id="edge6" class="edge">
<title>Allomorph&#45;&gt;Str</title>
<path fill="none" stroke="#000000" d="M53.35,-108.3C53.35,-116.02 53.35,-125.29 53.35,-133.89"/>
<polygon fill="#000000" stroke="#000000" points="49.85,-133.9 53.35,-143.9 56.85,-133.9 49.85,-133.9"/>
</g>
<!-- Numeric -->
<g id="node8" class="node">
<title>Numeric</title>
<g id="a_node8"><a xlink:href="/type/Numeric" xlink:title="Numeric">
<ellipse fill="none" stroke="#6666ff" cx="195.35" cy="-162" rx="44.39" ry="18"/>
<text text-anchor="middle" x="195.35" y="-158.3" font-family="FreeSans" font-size="14.00" fill="#6666ff">Numeric</text>
</a>
</g>
</g>
<!-- Complex&#45;&gt;Cool -->
<g id="edge7" class="edge">
<title>Complex&#45;&gt;Cool</title>
<path fill="none" stroke="#000000" d="M159.44,-107.77C152.11,-123.3 142.35,-144 142.35,-144 142.35,-144 134.7,-179.83 129.11,-206.03"/>
<polygon fill="#000000" stroke="#000000" points="125.67,-205.33 127.01,-215.84 132.52,-206.79 125.67,-205.33"/>
</g>
<!-- Complex&#45;&gt;Numeric -->
<g id="edge9" class="edge">
<title>Complex&#45;&gt;Numeric</title>
<path fill="none" stroke="#6666ff" d="M174.12,-107.95C177.28,-115.82 181.1,-125.38 184.63,-134.21"/>
<polygon fill="#6666ff" stroke="#6666ff" points="181.47,-135.74 188.44,-143.72 187.97,-133.14 181.47,-135.74"/>
</g>
</g>
</svg>
