<?xml version="1.0" encoding="UTF-8" standalone="no"?>
<!DOCTYPE svg PUBLIC "-//W3C//DTD SVG 1.1//EN"
 "http://www.w3.org/Graphics/SVG/1.1/DTD/svg11.dtd">
<!-- Generated by graphviz version 2.43.0 (0)
 -->
<!-- Title: perl6&#45;type&#45;graph Pages: 1 -->
<svg width="550pt" height="188pt"
 viewBox="0.00 0.00 550.18 188.00" xmlns="http://www.w3.org/2000/svg" xmlns:xlink="http://www.w3.org/1999/xlink">
<g id="graph0" class="graph" transform="scale(1 1) rotate(0) translate(4 184)">
<title>perl6&#45;type&#45;graph</title>
<polygon fill="white" stroke="transparent" points="-4,4 -4,-184 546.18,-184 546.18,4 -4,4"/>
<!-- CompUnit::Repository -->
<g id="node1" class="node">
<title>CompUnit::Repository</title>
<g id="a_node1"><a xlink:href="/type/CompUnit::Repository" xlink:title="CompUnit::Repository">
<ellipse fill="none" stroke="#6666ff" cx="96.84" cy="-90" rx="96.68" ry="18"/>
<text text-anchor="middle" x="96.84" y="-86.3" font-family="FreeSans" font-size="14.00" fill="#6666ff">CompUnit::Repository</text>
</a>
</g>
</g>
<!-- Mu -->
<g id="node2" class="node">
<title>Mu</title>
<g id="a_node2"><a xlink:href="/type/Mu" xlink:title="Mu">
<ellipse fill="none" stroke="#000000" cx="238.84" cy="-162" rx="27" ry="18"/>
<text text-anchor="middle" x="238.84" y="-158.3" font-family="FreeSans" font-size="14.00" fill="#000000">Mu</text>
</a>
</g>
</g>
<!-- Any -->
<g id="node3" class="node">
<title>Any</title>
<g id="a_node3"><a xlink:href="/type/Any" xlink:title="Any">
<ellipse fill="none" stroke="#000000" cx="238.84" cy="-90" rx="27" ry="18"/>
<text text-anchor="middle" x="238.84" y="-86.3" font-family="FreeSans" font-size="14.00" fill="#000000">Any</text>
</a>
</g>
</g>
<!-- Any&#45;&gt;Mu -->
<g id="edge1" class="edge">
<title>Any&#45;&gt;Mu</title>
<path fill="none" stroke="#000000" d="M238.84,-108.3C238.84,-116.02 238.84,-125.29 238.84,-133.89"/>
<polygon fill="#000000" stroke="#000000" points="235.34,-133.9 238.84,-143.9 242.34,-133.9 235.34,-133.9"/>
</g>
<!-- CompUnit::Repository::Locally -->
<g id="node4" class="node">
<title>CompUnit::Repository::Locally</title>
<g id="a_node4"><a xlink:href="/type/CompUnit::Repository::Locally" xlink:title="CompUnit::Repository::Locally">
<ellipse fill="none" stroke="#6666ff" cx="412.84" cy="-90" rx="129.18" ry="18"/>
<text text-anchor="middle" x="412.84" y="-86.3" font-family="FreeSans" font-size="14.00" fill="#6666ff">CompUnit::Repository::Locally</text>
</a>
</g>
</g>
<!-- CompUnit::Repository::FileSystem -->
<g id="node5" class="node">
<title>CompUnit::Repository::FileSystem</title>
<g id="a_node5"><a xlink:href="/type/CompUnit::Repository::FileSystem" xlink:title="CompUnit::Repository::FileSystem">
<ellipse fill="none" stroke="#000000" cx="238.84" cy="-18" rx="144.87" ry="18"/>
<text text-anchor="middle" x="238.84" y="-14.3" font-family="FreeSans" font-size="14.00" fill="#000000">CompUnit::Repository::FileSystem</text>
</a>
</g>
</g>
<!-- CompUnit::Repository::FileSystem&#45;&gt;CompUnit::Repository -->
<g id="edge4" class="edge">
<title>CompUnit::Repository::FileSystem&#45;&gt;CompUnit::Repository</title>
<path fill="none" stroke="#6666ff" d="M205.19,-35.59C185.19,-45.45 159.65,-58.04 138.4,-68.51"/>
<polygon fill="#6666ff" stroke="#6666ff" points="136.7,-65.45 129.27,-73.01 139.79,-71.73 136.7,-65.45"/>
</g>
<!-- CompUnit::Repository::FileSystem&#45;&gt;Any -->
<g id="edge2" class="edge">
<title>CompUnit::Repository::FileSystem&#45;&gt;Any</title>
<path fill="none" stroke="#000000" d="M238.84,-36.3C238.84,-44.02 238.84,-53.29 238.84,-61.89"/>
<polygon fill="#000000" stroke="#000000" points="235.34,-61.9 238.84,-71.9 242.34,-61.9 235.34,-61.9"/>
</g>
<!-- CompUnit::Repository::FileSystem&#45;&gt;CompUnit::Repository::Locally -->
<g id="edge3" class="edge">
<title>CompUnit::Repository::FileSystem&#45;&gt;CompUnit::Repository::Locally</title>
<path fill="none" stroke="#6666ff" d="M279.64,-35.41C304.6,-45.45 336.7,-58.37 363.14,-69.01"/>
<polygon fill="#6666ff" stroke="#6666ff" points="362.02,-72.33 372.6,-72.81 364.63,-65.83 362.02,-72.33"/>
</g>
</g>
</svg>
