<?xml version="1.0" encoding="UTF-8" standalone="no"?>
<!DOCTYPE svg PUBLIC "-//W3C//DTD SVG 1.1//EN"
 "http://www.w3.org/Graphics/SVG/1.1/DTD/svg11.dtd">
<!-- Generated by graphviz version 2.43.0 (0)
 -->
<!-- Title: perl6&#45;type&#45;graph Pages: 1 -->
<svg width="1476pt" height="332pt"
 viewBox="0.00 0.00 1476.09 332.00" xmlns="http://www.w3.org/2000/svg" xmlns:xlink="http://www.w3.org/1999/xlink">
<g id="graph0" class="graph" transform="scale(1 1) rotate(0) translate(4 328)">
<title>perl6&#45;type&#45;graph</title>
<polygon fill="white" stroke="transparent" points="-4,4 -4,-328 1472.09,-328 1472.09,4 -4,4"/>
<!-- Cool -->
<g id="node1" class="node">
<title>Cool</title>
<g id="a_node1"><a xlink:href="/type/Cool" xlink:title="Cool">
<ellipse fill="none" stroke="#000000" cx="663.75" cy="-162" rx="28.7" ry="18"/>
<text text-anchor="middle" x="663.75" y="-158.3" font-family="FreeSans" font-size="14.00" fill="#000000">Cool</text>
</a>
</g>
</g>
<!-- Any -->
<g id="node3" class="node">
<title>Any</title>
<g id="a_node3"><a xlink:href="/type/Any" xlink:title="Any">
<ellipse fill="none" stroke="#000000" cx="618.75" cy="-234" rx="27" ry="18"/>
<text text-anchor="middle" x="618.75" y="-230.3" font-family="FreeSans" font-size="14.00" fill="#000000">Any</text>
</a>
</g>
</g>
<!-- Cool&#45;&gt;Any -->
<g id="edge1" class="edge">
<title>Cool&#45;&gt;Any</title>
<path fill="none" stroke="#000000" d="M653.53,-178.88C647.9,-187.66 640.77,-198.74 634.44,-208.58"/>
<polygon fill="#000000" stroke="#000000" points="631.38,-206.87 628.92,-217.18 637.27,-210.66 631.38,-206.87"/>
</g>
<!-- Mu -->
<g id="node2" class="node">
<title>Mu</title>
<g id="a_node2"><a xlink:href="/type/Mu" xlink:title="Mu">
<ellipse fill="none" stroke="#000000" cx="618.75" cy="-306" rx="27" ry="18"/>
<text text-anchor="middle" x="618.75" y="-302.3" font-family="FreeSans" font-size="14.00" fill="#000000">Mu</text>
</a>
</g>
</g>
<!-- Any&#45;&gt;Mu -->
<g id="edge2" class="edge">
<title>Any&#45;&gt;Mu</title>
<path fill="none" stroke="#000000" d="M618.75,-252.3C618.75,-260.02 618.75,-269.29 618.75,-277.89"/>
<polygon fill="#000000" stroke="#000000" points="615.25,-277.9 618.75,-287.9 622.25,-277.9 615.25,-277.9"/>
</g>
<!-- IO -->
<g id="node4" class="node">
<title>IO</title>
<g id="a_node4"><a xlink:href="/type/IO" xlink:title="IO">
<ellipse fill="none" stroke="#6666ff" cx="487.75" cy="-162" rx="27" ry="18"/>
<text text-anchor="middle" x="487.75" y="-158.3" font-family="FreeSans" font-size="14.00" fill="#6666ff">IO</text>
</a>
</g>
</g>
<!-- IO::Path -->
<g id="node5" class="node">
<title>IO::Path</title>
<g id="a_node5"><a xlink:href="/type/IO::Path" xlink:title="IO::Path">
<ellipse fill="none" stroke="#000000" cx="414.75" cy="-90" rx="43.59" ry="18"/>
<text text-anchor="middle" x="414.75" y="-86.3" font-family="FreeSans" font-size="14.00" fill="#000000">IO::Path</text>
</a>
</g>
</g>
<!-- IO::Path&#45;&gt;Cool -->
<g id="edge3" class="edge">
<title>IO::Path&#45;&gt;Cool</title>
<path fill="none" stroke="#000000" d="M448.01,-101.67C458.66,-105.09 467.75,-108 467.75,-108 467.75,-108 625.75,-144 625.75,-144 625.75,-144 628.18,-145.09 631.81,-146.71"/>
<polygon fill="#000000" stroke="#000000" points="630.64,-150.03 641.2,-150.91 633.5,-143.64 630.64,-150.03"/>
</g>
<!-- IO::Path&#45;&gt;IO -->
<g id="edge21" class="edge">
<title>IO::Path&#45;&gt;IO</title>
<path fill="none" stroke="#6666ff" d="M431.31,-106.88C441.43,-116.59 454.49,-129.11 465.5,-139.67"/>
<polygon fill="#6666ff" stroke="#6666ff" points="463.1,-142.21 472.74,-146.61 467.94,-137.16 463.1,-142.21"/>
</g>
<!-- StrDistance -->
<g id="node6" class="node">
<title>StrDistance</title>
<g id="a_node6"><a xlink:href="/type/StrDistance" xlink:title="StrDistance">
<ellipse fill="none" stroke="#000000" cx="658.75" cy="-90" rx="55.79" ry="18"/>
<text text-anchor="middle" x="658.75" y="-86.3" font-family="FreeSans" font-size="14.00" fill="#000000">StrDistance</text>
</a>
</g>
</g>
<!-- StrDistance&#45;&gt;Cool -->
<g id="edge4" class="edge">
<title>StrDistance&#45;&gt;Cool</title>
<path fill="none" stroke="#000000" d="M659.98,-108.3C660.53,-116.02 661.19,-125.29 661.81,-133.89"/>
<polygon fill="#000000" stroke="#000000" points="658.32,-134.17 662.52,-143.9 665.3,-133.67 658.32,-134.17"/>
</g>
<!-- Positional -->
<g id="node7" class="node">
<title>Positional</title>
<g id="a_node7"><a xlink:href="/type/Positional" xlink:title="Positional">
<ellipse fill="none" stroke="#6666ff" cx="48.75" cy="-162" rx="48.99" ry="18"/>
<text text-anchor="middle" x="48.75" y="-158.3" font-family="FreeSans" font-size="14.00" fill="#6666ff">Positional</text>
</a>
</g>
</g>
<!-- Iterable -->
<g id="node8" class="node">
<title>Iterable</title>
<g id="a_node8"><a xlink:href="/type/Iterable" xlink:title="Iterable">
<ellipse fill="none" stroke="#6666ff" cx="155.75" cy="-162" rx="40.09" ry="18"/>
<text text-anchor="middle" x="155.75" y="-158.3" font-family="FreeSans" font-size="14.00" fill="#6666ff">Iterable</text>
</a>
</g>
</g>
<!-- List -->
<g id="node9" class="node">
<title>List</title>
<g id="a_node9"><a xlink:href="/type/List" xlink:title="List">
<ellipse fill="none" stroke="#000000" cx="78.75" cy="-90" rx="27" ry="18"/>
<text text-anchor="middle" x="78.75" y="-86.3" font-family="FreeSans" font-size="14.00" fill="#000000">List</text>
</a>
</g>
</g>
<!-- List&#45;&gt;Cool -->
<g id="edge5" class="edge">
<title>List&#45;&gt;Cool</title>
<path fill="none" stroke="#000000" d="M100.1,-101.09C107.86,-104.75 114.75,-108 114.75,-108 114.75,-108 625.75,-144 625.75,-144 625.75,-144 628.18,-145.09 631.81,-146.71"/>
<polygon fill="#000000" stroke="#000000" points="630.64,-150.03 641.2,-150.91 633.5,-143.64 630.64,-150.03"/>
</g>
<!-- List&#45;&gt;Positional -->
<g id="edge22" class="edge">
<title>List&#45;&gt;Positional</title>
<path fill="none" stroke="#6666ff" d="M71.64,-107.59C68.18,-115.66 63.93,-125.57 60.04,-134.65"/>
<polygon fill="#6666ff" stroke="#6666ff" points="56.73,-133.47 56.01,-144.04 63.17,-136.23 56.73,-133.47"/>
</g>
<!-- List&#45;&gt;Iterable -->
<g id="edge23" class="edge">
<title>List&#45;&gt;Iterable</title>
<path fill="none" stroke="#6666ff" d="M94.33,-105.17C104.93,-114.8 119.17,-127.75 131.27,-138.75"/>
<polygon fill="#6666ff" stroke="#6666ff" points="129.1,-141.5 138.85,-145.64 133.81,-136.32 129.1,-141.5"/>
</g>
<!-- PositionalBindFailover -->
<g id="node10" class="node">
<title>PositionalBindFailover</title>
<g id="a_node10"><a xlink:href="/type/PositionalBindFailover" xlink:title="PositionalBindFailover">
<ellipse fill="none" stroke="#6666ff" cx="392.75" cy="-234" rx="97.48" ry="18"/>
<text text-anchor="middle" x="392.75" y="-230.3" font-family="FreeSans" font-size="14.00" fill="#6666ff">PositionalBindFailover</text>
</a>
</g>
</g>
<!-- Sequence -->
<g id="node11" class="node">
<title>Sequence</title>
<g id="a_node11"><a xlink:href="/type/Sequence" xlink:title="Sequence">
<ellipse fill="none" stroke="#6666ff" cx="392.75" cy="-162" rx="50.09" ry="18"/>
<text text-anchor="middle" x="392.75" y="-158.3" font-family="FreeSans" font-size="14.00" fill="#6666ff">Sequence</text>
</a>
</g>
</g>
<!-- Sequence&#45;&gt;PositionalBindFailover -->
<g id="edge24" class="edge">
<title>Sequence&#45;&gt;PositionalBindFailover</title>
<path fill="none" stroke="#6666ff" d="M392.75,-180.3C392.75,-188.02 392.75,-197.29 392.75,-205.89"/>
<polygon fill="#6666ff" stroke="#6666ff" points="389.25,-205.9 392.75,-215.9 396.25,-205.9 389.25,-205.9"/>
</g>
<!-- Seq -->
<g id="node12" class="node">
<title>Seq</title>
<g id="a_node12"><a xlink:href="/type/Seq" xlink:title="Seq">
<ellipse fill="none" stroke="#000000" cx="325.75" cy="-90" rx="27" ry="18"/>
<text text-anchor="middle" x="325.75" y="-86.3" font-family="FreeSans" font-size="14.00" fill="#000000">Seq</text>
</a>
</g>
</g>
<!-- Seq&#45;&gt;Cool -->
<g id="edge6" class="edge">
<title>Seq&#45;&gt;Cool</title>
<path fill="none" stroke="#000000" d="M347.1,-101.09C354.86,-104.75 361.75,-108 361.75,-108 361.75,-108 625.75,-144 625.75,-144 625.75,-144 628.18,-145.09 631.81,-146.71"/>
<polygon fill="#000000" stroke="#000000" points="630.64,-150.03 641.2,-150.91 633.5,-143.64 630.64,-150.03"/>
</g>
<!-- Seq&#45;&gt;Iterable -->
<g id="edge25" class="edge">
<title>Seq&#45;&gt;Iterable</title>
<path fill="none" stroke="#6666ff" d="M304.39,-101.09C296.64,-104.75 289.75,-108 289.75,-108 289.75,-108 233.83,-130.11 194.24,-145.77"/>
<polygon fill="#6666ff" stroke="#6666ff" points="192.83,-142.57 184.82,-149.5 195.41,-149.08 192.83,-142.57"/>
</g>
<!-- Seq&#45;&gt;Sequence -->
<g id="edge26" class="edge">
<title>Seq&#45;&gt;Sequence</title>
<path fill="none" stroke="#6666ff" d="M339.63,-105.5C348.45,-114.72 360.07,-126.86 370.2,-137.44"/>
<polygon fill="#6666ff" stroke="#6666ff" points="367.8,-140 377.24,-144.8 372.86,-135.16 367.8,-140"/>
</g>
<!-- Associative -->
<g id="node13" class="node">
<title>Associative</title>
<g id="a_node13"><a xlink:href="/type/Associative" xlink:title="Associative">
<ellipse fill="none" stroke="#6666ff" cx="269.75" cy="-162" rx="55.49" ry="18"/>
<text text-anchor="middle" x="269.75" y="-158.3" font-family="FreeSans" font-size="14.00" fill="#6666ff">Associative</text>
</a>
</g>
</g>
<!-- Map -->
<g id="node14" class="node">
<title>Map</title>
<g id="a_node14"><a xlink:href="/type/Map" xlink:title="Map">
<ellipse fill="none" stroke="#000000" cx="251.75" cy="-90" rx="28.7" ry="18"/>
<text text-anchor="middle" x="251.75" y="-86.3" font-family="FreeSans" font-size="14.00" fill="#000000">Map</text>
</a>
</g>
</g>
<!-- Map&#45;&gt;Cool -->
<g id="edge7" class="edge">
<title>Map&#45;&gt;Cool</title>
<path fill="none" stroke="#000000" d="M274.29,-101.09C282.47,-104.75 289.75,-108 289.75,-108 289.75,-108 625.75,-144 625.75,-144 625.75,-144 628.18,-145.09 631.81,-146.71"/>
<polygon fill="#000000" stroke="#000000" points="630.64,-150.03 641.2,-150.91 633.5,-143.64 630.64,-150.03"/>
</g>
<!-- Map&#45;&gt;Iterable -->
<g id="edge27" class="edge">
<title>Map&#45;&gt;Iterable</title>
<path fill="none" stroke="#6666ff" d="M233.69,-104.17C219.85,-114.26 200.48,-128.38 184.51,-140.02"/>
<polygon fill="#6666ff" stroke="#6666ff" points="182.07,-137.48 176.05,-146.2 186.19,-143.13 182.07,-137.48"/>
</g>
<!-- Map&#45;&gt;Associative -->
<g id="edge28" class="edge">
<title>Map&#45;&gt;Associative</title>
<path fill="none" stroke="#6666ff" d="M256.1,-107.95C258.11,-115.74 260.53,-125.18 262.78,-133.92"/>
<polygon fill="#6666ff" stroke="#6666ff" points="259.42,-134.91 265.3,-143.72 266.2,-133.17 259.42,-134.91"/>
</g>
<!-- Capture -->
<g id="node15" class="node">
<title>Capture</title>
<g id="a_node15"><a xlink:href="/type/Capture" xlink:title="Capture">
<ellipse fill="none" stroke="#000000" cx="574.75" cy="-162" rx="42.49" ry="18"/>
<text text-anchor="middle" x="574.75" y="-158.3" font-family="FreeSans" font-size="14.00" fill="#000000">Capture</text>
</a>
</g>
</g>
<!-- Capture&#45;&gt;Any -->
<g id="edge8" class="edge">
<title>Capture&#45;&gt;Any</title>
<path fill="none" stroke="#000000" d="M585.17,-179.59C590.57,-188.17 597.25,-198.81 603.24,-208.33"/>
<polygon fill="#000000" stroke="#000000" points="600.41,-210.41 608.7,-217.01 606.34,-206.68 600.41,-210.41"/>
</g>
<!-- Match -->
<g id="node16" class="node">
<title>Match</title>
<g id="a_node16"><a xlink:href="/type/Match" xlink:title="Match">
<ellipse fill="none" stroke="#000000" cx="511.75" cy="-90" rx="35.19" ry="18"/>
<text text-anchor="middle" x="511.75" y="-86.3" font-family="FreeSans" font-size="14.00" fill="#000000">Match</text>
</a>
</g>
</g>
<!-- Match&#45;&gt;Cool -->
<g id="edge10" class="edge">
<title>Match&#45;&gt;Cool</title>
<path fill="none" stroke="#000000" d="M537.19,-102.72C563.19,-114.69 603.65,-133.33 631.8,-146.29"/>
<polygon fill="#000000" stroke="#000000" points="630.65,-149.61 641.2,-150.62 633.58,-143.25 630.65,-149.61"/>
</g>
<!-- Match&#45;&gt;Capture -->
<g id="edge9" class="edge">
<title>Match&#45;&gt;Capture</title>
<path fill="none" stroke="#000000" d="M525.73,-106.54C533.93,-115.65 544.46,-127.35 553.66,-137.57"/>
<polygon fill="#000000" stroke="#000000" points="551.08,-139.93 560.37,-145.02 556.28,-135.25 551.08,-139.93"/>
</g>
<!-- Nil -->
<g id="node17" class="node">
<title>Nil</title>
<g id="a_node17"><a xlink:href="/type/Nil" xlink:title="Nil">
<ellipse fill="none" stroke="#000000" cx="759.75" cy="-90" rx="27" ry="18"/>
<text text-anchor="middle" x="759.75" y="-86.3" font-family="FreeSans" font-size="14.00" fill="#000000">Nil</text>
</a>
</g>
</g>
<!-- Nil&#45;&gt;Cool -->
<g id="edge11" class="edge">
<title>Nil&#45;&gt;Cool</title>
<path fill="none" stroke="#000000" d="M742.14,-103.84C727.57,-114.46 706.66,-129.71 690.1,-141.78"/>
<polygon fill="#000000" stroke="#000000" points="687.91,-139.05 681.89,-147.77 692.04,-144.7 687.91,-139.05"/>
</g>
<!-- Numeric -->
<g id="node18" class="node">
<title>Numeric</title>
<g id="a_node18"><a xlink:href="/type/Numeric" xlink:title="Numeric">
<ellipse fill="none" stroke="#6666ff" cx="1020.75" cy="-234" rx="44.39" ry="18"/>
<text text-anchor="middle" x="1020.75" y="-230.3" font-family="FreeSans" font-size="14.00" fill="#6666ff">Numeric</text>
</a>
</g>
</g>
<!-- Real -->
<g id="node19" class="node">
<title>Real</title>
<g id="a_node19"><a xlink:href="/type/Real" xlink:title="Real">
<ellipse fill="none" stroke="#6666ff" cx="1114.75" cy="-162" rx="28.7" ry="18"/>
<text text-anchor="middle" x="1114.75" y="-158.3" font-family="FreeSans" font-size="14.00" fill="#6666ff">Real</text>
</a>
</g>
</g>
<!-- Real&#45;&gt;Numeric -->
<g id="edge29" class="edge">
<title>Real&#45;&gt;Numeric</title>
<path fill="none" stroke="#6666ff" d="M1097.06,-176.17C1083.6,-186.19 1064.8,-200.19 1049.22,-211.79"/>
<polygon fill="#6666ff" stroke="#6666ff" points="1046.89,-209.17 1040.96,-217.95 1051.07,-214.78 1046.89,-209.17"/>
</g>
<!-- Int -->
<g id="node20" class="node">
<title>Int</title>
<g id="a_node20"><a xlink:href="/type/Int" xlink:title="Int">
<ellipse fill="none" stroke="#000000" cx="1253.75" cy="-90" rx="27" ry="18"/>
<text text-anchor="middle" x="1253.75" y="-86.3" font-family="FreeSans" font-size="14.00" fill="#000000">Int</text>
</a>
</g>
</g>
<!-- Int&#45;&gt;Cool -->
<g id="edge12" class="edge">
<title>Int&#45;&gt;Cool</title>
<path fill="none" stroke="#000000" d="M1232.39,-101.09C1224.64,-104.75 1217.75,-108 1217.75,-108 1217.75,-108 827.93,-145.29 702.28,-157.31"/>
<polygon fill="#000000" stroke="#000000" points="701.6,-153.86 691.98,-158.3 702.27,-160.83 701.6,-153.86"/>
</g>
<!-- Int&#45;&gt;Real -->
<g id="edge30" class="edge">
<title>Int&#45;&gt;Real</title>
<path fill="none" stroke="#6666ff" d="M1232.94,-101.48C1209.87,-113.1 1172.42,-131.96 1145.86,-145.33"/>
<polygon fill="#6666ff" stroke="#6666ff" points="1143.97,-142.36 1136.62,-149.99 1147.12,-148.61 1143.97,-142.36"/>
</g>
<!-- Range -->
<g id="node21" class="node">
<title>Range</title>
<g id="a_node21"><a xlink:href="/type/Range" xlink:title="Range">
<ellipse fill="none" stroke="#000000" cx="159.75" cy="-90" rx="36.29" ry="18"/>
<text text-anchor="middle" x="159.75" y="-86.3" font-family="FreeSans" font-size="14.00" fill="#000000">Range</text>
</a>
</g>
</g>
<!-- Range&#45;&gt;Cool -->
<g id="edge13" class="edge">
<title>Range&#45;&gt;Cool</title>
<path fill="none" stroke="#000000" d="M189.59,-100.4C202.08,-104.33 213.75,-108 213.75,-108 213.75,-108 625.75,-144 625.75,-144 625.75,-144 628.18,-145.09 631.81,-146.71"/>
<polygon fill="#000000" stroke="#000000" points="630.64,-150.03 641.2,-150.91 633.5,-143.64 630.64,-150.03"/>
</g>
<!-- Range&#45;&gt;Positional -->
<g id="edge31" class="edge">
<title>Range&#45;&gt;Positional</title>
<path fill="none" stroke="#6666ff" d="M138.08,-104.66C121.81,-114.92 99.28,-129.13 80.91,-140.72"/>
<polygon fill="#6666ff" stroke="#6666ff" points="78.87,-137.87 72.28,-146.16 82.6,-143.79 78.87,-137.87"/>
</g>
<!-- Range&#45;&gt;Iterable -->
<g id="edge32" class="edge">
<title>Range&#45;&gt;Iterable</title>
<path fill="none" stroke="#6666ff" d="M158.76,-108.3C158.32,-116.02 157.79,-125.29 157.29,-133.89"/>
<polygon fill="#6666ff" stroke="#6666ff" points="153.8,-133.71 156.72,-143.9 160.79,-134.11 153.8,-133.71"/>
</g>
<!-- Rational -->
<g id="node22" class="node">
<title>Rational</title>
<g id="a_node22"><a xlink:href="/type/Rational" xlink:title="Rational">
<ellipse fill="none" stroke="#6666ff" cx="1341.75" cy="-90" rx="42.79" ry="18"/>
<text text-anchor="middle" x="1341.75" y="-86.3" font-family="FreeSans" font-size="14.00" fill="#6666ff">Rational</text>
</a>
</g>
</g>
<!-- Rational&#45;&gt;Real -->
<g id="edge33" class="edge">
<title>Rational&#45;&gt;Real</title>
<path fill="none" stroke="#6666ff" d="M1308.81,-101.77C1298.49,-105.14 1289.75,-108 1289.75,-108 1289.75,-108 1200.96,-134.89 1149.87,-150.36"/>
<polygon fill="#6666ff" stroke="#6666ff" points="1148.75,-147.04 1140.19,-153.29 1150.78,-153.74 1148.75,-147.04"/>
</g>
<!-- FatRat -->
<g id="node23" class="node">
<title>FatRat</title>
<g id="a_node23"><a xlink:href="/type/FatRat" xlink:title="FatRat">
<ellipse fill="none" stroke="#000000" cx="916.75" cy="-18" rx="37.09" ry="18"/>
<text text-anchor="middle" x="916.75" y="-14.3" font-family="FreeSans" font-size="14.00" fill="#000000">FatRat</text>
</a>
</g>
</g>
<!-- FatRat&#45;&gt;Cool -->
<g id="edge14" class="edge">
<title>FatRat&#45;&gt;Cool</title>
<path fill="none" stroke="#000000" d="M882.18,-24.67C798.85,-38.34 593.75,-72 593.75,-72 593.75,-72 593.75,-108 593.75,-108 593.75,-108 617.94,-126.32 637.88,-141.42"/>
<polygon fill="#000000" stroke="#000000" points="636,-144.38 646.08,-147.63 640.22,-138.8 636,-144.38"/>
</g>
<!-- FatRat&#45;&gt;Rational -->
<g id="edge34" class="edge">
<title>FatRat&#45;&gt;Rational</title>
<path fill="none" stroke="#6666ff" d="M951.84,-23.99C1044.69,-37.18 1289.75,-72 1289.75,-72 1289.75,-72 1293.51,-73.23 1299.02,-75.03"/>
<polygon fill="#6666ff" stroke="#6666ff" points="1298.22,-78.45 1308.81,-78.23 1300.4,-71.8 1298.22,-78.45"/>
</g>
<!-- Complex -->
<g id="node24" class="node">
<title>Complex</title>
<g id="a_node24"><a xlink:href="/type/Complex" xlink:title="Complex">
<ellipse fill="none" stroke="#000000" cx="887.75" cy="-90" rx="45.49" ry="18"/>
<text text-anchor="middle" x="887.75" y="-86.3" font-family="FreeSans" font-size="14.00" fill="#000000">Complex</text>
</a>
</g>
</g>
<!-- Complex&#45;&gt;Cool -->
<g id="edge15" class="edge">
<title>Complex&#45;&gt;Cool</title>
<path fill="none" stroke="#000000" d="M853.24,-101.78C811.2,-114.92 740.6,-136.98 698.46,-150.15"/>
<polygon fill="#000000" stroke="#000000" points="697.41,-146.81 688.91,-153.14 699.5,-153.49 697.41,-146.81"/>
</g>
<!-- Complex&#45;&gt;Numeric -->
<g id="edge35" class="edge">
<title>Complex&#45;&gt;Numeric</title>
<path fill="none" stroke="#6666ff" d="M902.74,-107.01C926.09,-131.94 971.27,-180.17 998.44,-209.19"/>
<polygon fill="#6666ff" stroke="#6666ff" points="996.21,-211.92 1005.6,-216.83 1001.32,-207.14 996.21,-211.92"/>
</g>
<!-- Num -->
<g id="node25" class="node">
<title>Num</title>
<g id="a_node25"><a xlink:href="/type/Num" xlink:title="Num">
<ellipse fill="none" stroke="#000000" cx="980.75" cy="-90" rx="29.8" ry="18"/>
<text text-anchor="middle" x="980.75" y="-86.3" font-family="FreeSans" font-size="14.00" fill="#000000">Num</text>
</a>
</g>
</g>
<!-- Num&#45;&gt;Cool -->
<g id="edge16" class="edge">
<title>Num&#45;&gt;Cool</title>
<path fill="none" stroke="#000000" d="M957.16,-101.28C948.95,-104.86 941.75,-108 941.75,-108 941.75,-108 776.35,-139.53 700.71,-153.95"/>
<polygon fill="#000000" stroke="#000000" points="699.82,-150.56 690.65,-155.87 701.13,-157.44 699.82,-150.56"/>
</g>
<!-- Num&#45;&gt;Real -->
<g id="edge36" class="edge">
<title>Num&#45;&gt;Real</title>
<path fill="none" stroke="#6666ff" d="M1002.57,-102.4C1024.8,-114.01 1059.44,-132.11 1084.35,-145.12"/>
<polygon fill="#6666ff" stroke="#6666ff" points="1082.89,-148.31 1093.37,-149.83 1086.13,-142.1 1082.89,-148.31"/>
</g>
<!-- Instant -->
<g id="node26" class="node">
<title>Instant</title>
<g id="a_node26"><a xlink:href="/type/Instant" xlink:title="Instant">
<ellipse fill="none" stroke="#000000" cx="1065.75" cy="-90" rx="37.09" ry="18"/>
<text text-anchor="middle" x="1065.75" y="-86.3" font-family="FreeSans" font-size="14.00" fill="#000000">Instant</text>
</a>
</g>
</g>
<!-- Instant&#45;&gt;Cool -->
<g id="edge17" class="edge">
<title>Instant&#45;&gt;Cool</title>
<path fill="none" stroke="#000000" d="M1037.14,-101.57C1027.78,-105.03 1019.75,-108 1019.75,-108 1019.75,-108 792.85,-141.78 701.34,-155.4"/>
<polygon fill="#000000" stroke="#000000" points="700.76,-151.95 691.38,-156.89 701.79,-158.87 700.76,-151.95"/>
</g>
<!-- Instant&#45;&gt;Real -->
<g id="edge37" class="edge">
<title>Instant&#45;&gt;Real</title>
<path fill="none" stroke="#6666ff" d="M1077.11,-107.24C1083.32,-116.11 1091.13,-127.26 1098.02,-137.11"/>
<polygon fill="#6666ff" stroke="#6666ff" points="1095.18,-139.15 1103.78,-145.33 1100.91,-135.13 1095.18,-139.15"/>
</g>
<!-- Rat -->
<g id="node27" class="node">
<title>Rat</title>
<g id="a_node27"><a xlink:href="/type/Rat" xlink:title="Rat">
<ellipse fill="none" stroke="#000000" cx="1077.75" cy="-18" rx="27" ry="18"/>
<text text-anchor="middle" x="1077.75" y="-14.3" font-family="FreeSans" font-size="14.00" fill="#000000">Rat</text>
</a>
</g>
</g>
<!-- Rat&#45;&gt;Cool -->
<g id="edge18" class="edge">
<title>Rat&#45;&gt;Cool</title>
<path fill="none" stroke="#000000" d="M1052.09,-24.57C989.45,-38.18 833.75,-72 833.75,-72 833.75,-72 795.75,-108 795.75,-108 795.75,-108 735.89,-132.03 696.79,-147.73"/>
<polygon fill="#000000" stroke="#000000" points="695.32,-144.55 687.34,-151.52 697.93,-151.05 695.32,-144.55"/>
</g>
<!-- Rat&#45;&gt;Rational -->
<g id="edge38" class="edge">
<title>Rat&#45;&gt;Rational</title>
<path fill="none" stroke="#6666ff" d="M1102.9,-25.29C1159.05,-39.33 1289.75,-72 1289.75,-72 1289.75,-72 1293.51,-73.23 1299.02,-75.03"/>
<polygon fill="#6666ff" stroke="#6666ff" points="1298.22,-78.45 1308.81,-78.23 1300.4,-71.8 1298.22,-78.45"/>
</g>
<!-- Stringy -->
<g id="node28" class="node">
<title>Stringy</title>
<g id="a_node28"><a xlink:href="/type/Stringy" xlink:title="Stringy">
<ellipse fill="none" stroke="#6666ff" cx="1429.75" cy="-162" rx="38.19" ry="18"/>
<text text-anchor="middle" x="1429.75" y="-158.3" font-family="FreeSans" font-size="14.00" fill="#6666ff">Stringy</text>
</a>
</g>
</g>
<!-- Str -->
<g id="node29" class="node">
<title>Str</title>
<g id="a_node29"><a xlink:href="/type/Str" xlink:title="Str">
<ellipse fill="none" stroke="#000000" cx="1429.75" cy="-90" rx="27" ry="18"/>
<text text-anchor="middle" x="1429.75" y="-86.3" font-family="FreeSans" font-size="14.00" fill="#000000">Str</text>
</a>
</g>
</g>
<!-- Str&#45;&gt;Cool -->
<g id="edge19" class="edge">
<title>Str&#45;&gt;Cool</title>
<path fill="none" stroke="#000000" d="M1408.39,-101.09C1400.64,-104.75 1393.75,-108 1393.75,-108 1393.75,-108 853.57,-147.22 702.55,-158.18"/>
<polygon fill="#000000" stroke="#000000" points="702.08,-154.71 692.36,-158.92 702.59,-161.69 702.08,-154.71"/>
</g>
<!-- Str&#45;&gt;Stringy -->
<g id="edge39" class="edge">
<title>Str&#45;&gt;Stringy</title>
<path fill="none" stroke="#6666ff" d="M1429.75,-108.3C1429.75,-116.02 1429.75,-125.29 1429.75,-133.89"/>
<polygon fill="#6666ff" stroke="#6666ff" points="1426.25,-133.9 1429.75,-143.9 1433.25,-133.9 1426.25,-133.9"/>
</g>
<!-- Duration -->
<g id="node30" class="node">
<title>Duration</title>
<g id="a_node30"><a xlink:href="/type/Duration" xlink:title="Duration">
<ellipse fill="none" stroke="#000000" cx="1164.75" cy="-90" rx="44.39" ry="18"/>
<text text-anchor="middle" x="1164.75" y="-86.3" font-family="FreeSans" font-size="14.00" fill="#000000">Duration</text>
</a>
</g>
</g>
<!-- Duration&#45;&gt;Cool -->
<g id="edge20" class="edge">
<title>Duration&#45;&gt;Cool</title>
<path fill="none" stroke="#000000" d="M1131.18,-101.77C1120.66,-105.14 1111.75,-108 1111.75,-108 1111.75,-108 810.26,-143.67 701.93,-156.48"/>
<polygon fill="#000000" stroke="#000000" points="701.29,-153.03 691.77,-157.68 702.11,-159.99 701.29,-153.03"/>
</g>
<!-- Duration&#45;&gt;Real -->
<g id="edge40" class="edge">
<title>Duration&#45;&gt;Real</title>
<path fill="none" stroke="#6666ff" d="M1152.9,-107.59C1146.71,-116.26 1139.01,-127.03 1132.16,-136.62"/>
<polygon fill="#6666ff" stroke="#6666ff" points="1129.13,-134.84 1126.17,-145.01 1134.83,-138.91 1129.13,-134.84"/>
</g>
</g>
</svg>
