<?xml version="1.0" encoding="UTF-8" standalone="no"?>
<!DOCTYPE svg PUBLIC "-//W3C//DTD SVG 1.1//EN"
 "http://www.w3.org/Graphics/SVG/1.1/DTD/svg11.dtd">
<!-- Generated by graphviz version 2.43.0 (0)
 -->
<!-- Title: perl6&#45;type&#45;graph Pages: 1 -->
<svg width="224pt" height="188pt"
 viewBox="0.00 0.00 223.78 188.00" xmlns="http://www.w3.org/2000/svg" xmlns:xlink="http://www.w3.org/1999/xlink">
<g id="graph0" class="graph" transform="scale(1 1) rotate(0) translate(4 184)">
<title>perl6&#45;type&#45;graph</title>
<polygon fill="white" stroke="transparent" points="-4,4 -4,-184 219.78,-184 219.78,4 -4,4"/>
<!-- CurrentThreadScheduler -->
<g id="node1" class="node">
<title>CurrentThreadScheduler</title>
<g id="a_node1"><a xlink:href="/type/CurrentThreadScheduler" xlink:title="CurrentThreadScheduler">
<ellipse fill="none" stroke="#000000" cx="107.89" cy="-18" rx="107.78" ry="18"/>
<text text-anchor="middle" x="107.89" y="-14.3" font-family="FreeSans" font-size="14.00" fill="#000000">CurrentThreadScheduler</text>
</a>
</g>
</g>
<!-- Any -->
<g id="node3" class="node">
<title>Any</title>
<g id="a_node3"><a xlink:href="/type/Any" xlink:title="Any">
<ellipse fill="none" stroke="#000000" cx="60.89" cy="-90" rx="27" ry="18"/>
<text text-anchor="middle" x="60.89" y="-86.3" font-family="FreeSans" font-size="14.00" fill="#000000">Any</text>
</a>
</g>
</g>
<!-- CurrentThreadScheduler&#45;&gt;Any -->
<g id="edge1" class="edge">
<title>CurrentThreadScheduler&#45;&gt;Any</title>
<path fill="none" stroke="#000000" d="M96.51,-35.95C90.69,-44.62 83.5,-55.33 77.1,-64.85"/>
<polygon fill="#000000" stroke="#000000" points="74.19,-62.92 71.52,-73.17 80,-66.82 74.19,-62.92"/>
</g>
<!-- Scheduler -->
<g id="node4" class="node">
<title>Scheduler</title>
<g id="a_node4"><a xlink:href="/type/Scheduler" xlink:title="Scheduler">
<ellipse fill="none" stroke="#6666ff" cx="155.89" cy="-90" rx="50.09" ry="18"/>
<text text-anchor="middle" x="155.89" y="-86.3" font-family="FreeSans" font-size="14.00" fill="#6666ff">Scheduler</text>
</a>
</g>
</g>
<!-- CurrentThreadScheduler&#45;&gt;Scheduler -->
<g id="edge3" class="edge">
<title>CurrentThreadScheduler&#45;&gt;Scheduler</title>
<path fill="none" stroke="#6666ff" d="M119.51,-35.95C125.23,-44.29 132.24,-54.51 138.57,-63.75"/>
<polygon fill="#6666ff" stroke="#6666ff" points="135.84,-65.94 144.38,-72.21 141.61,-61.98 135.84,-65.94"/>
</g>
<!-- Mu -->
<g id="node2" class="node">
<title>Mu</title>
<g id="a_node2"><a xlink:href="/type/Mu" xlink:title="Mu">
<ellipse fill="none" stroke="#000000" cx="60.89" cy="-162" rx="27" ry="18"/>
<text text-anchor="middle" x="60.89" y="-158.3" font-family="FreeSans" font-size="14.00" fill="#000000">Mu</text>
</a>
</g>
</g>
<!-- Any&#45;&gt;Mu -->
<g id="edge2" class="edge">
<title>Any&#45;&gt;Mu</title>
<path fill="none" stroke="#000000" d="M60.89,-108.3C60.89,-116.02 60.89,-125.29 60.89,-133.89"/>
<polygon fill="#000000" stroke="#000000" points="57.39,-133.9 60.89,-143.9 64.39,-133.9 57.39,-133.9"/>
</g>
</g>
</svg>
