<?xml version="1.0" encoding="UTF-8" standalone="no"?>
<!DOCTYPE svg PUBLIC "-//W3C//DTD SVG 1.1//EN"
 "http://www.w3.org/Graphics/SVG/1.1/DTD/svg11.dtd">
<!-- Generated by graphviz version 2.43.0 (0)
 -->
<!-- Title: perl6&#45;type&#45;graph Pages: 1 -->
<svg width="146pt" height="332pt"
 viewBox="0.00 0.00 146.44 332.00" xmlns="http://www.w3.org/2000/svg" xmlns:xlink="http://www.w3.org/1999/xlink">
<g id="graph0" class="graph" transform="scale(1 1) rotate(0) translate(4 328)">
<title>perl6&#45;type&#45;graph</title>
<polygon fill="white" stroke="transparent" points="-4,4 -4,-328 142.44,-328 142.44,4 -4,4"/>
<!-- CX::Next -->
<g id="node1" class="node">
<title>CX::Next</title>
<g id="a_node1"><a xlink:href="/type/CX::Next" xlink:title="CX::Next">
<ellipse fill="none" stroke="#000000" cx="49.4" cy="-18" rx="46.29" ry="18"/>
<text text-anchor="middle" x="49.4" y="-14.3" font-family="FreeSans" font-size="14.00" fill="#000000">CX::Next</text>
</a>
</g>
</g>
<!-- Exception -->
<g id="node4" class="node">
<title>Exception</title>
<g id="a_node4"><a xlink:href="/type/Exception" xlink:title="Exception">
<ellipse fill="none" stroke="#000000" cx="49.4" cy="-162" rx="49.29" ry="18"/>
<text text-anchor="middle" x="49.4" y="-158.3" font-family="FreeSans" font-size="14.00" fill="#000000">Exception</text>
</a>
</g>
</g>
<!-- CX::Next&#45;&gt;Exception -->
<g id="edge1" class="edge">
<title>CX::Next&#45;&gt;Exception</title>
<path fill="none" stroke="#000000" d="M42.96,-36.06C37.11,-51.55 29.4,-72 29.4,-72 29.4,-72 29.4,-108 29.4,-108 29.4,-108 34.39,-121.24 39.39,-134.48"/>
<polygon fill="#000000" stroke="#000000" points="36.15,-135.82 42.96,-143.94 42.7,-133.35 36.15,-135.82"/>
</g>
<!-- X::Control -->
<g id="node5" class="node">
<title>X::Control</title>
<g id="a_node5"><a xlink:href="/type/X::Control" xlink:title="X::Control">
<ellipse fill="none" stroke="#6666ff" cx="88.4" cy="-90" rx="50.09" ry="18"/>
<text text-anchor="middle" x="88.4" y="-86.3" font-family="FreeSans" font-size="14.00" fill="#6666ff">X::Control</text>
</a>
</g>
</g>
<!-- CX::Next&#45;&gt;X::Control -->
<g id="edge5" class="edge">
<title>CX::Next&#45;&gt;X::Control</title>
<path fill="none" stroke="#6666ff" d="M58.84,-35.95C63.44,-44.2 69.06,-54.3 74.17,-63.46"/>
<polygon fill="#6666ff" stroke="#6666ff" points="71.12,-65.18 79.04,-72.21 77.23,-61.77 71.12,-65.18"/>
</g>
<!-- Mu -->
<g id="node2" class="node">
<title>Mu</title>
<g id="a_node2"><a xlink:href="/type/Mu" xlink:title="Mu">
<ellipse fill="none" stroke="#000000" cx="49.4" cy="-306" rx="27" ry="18"/>
<text text-anchor="middle" x="49.4" y="-302.3" font-family="FreeSans" font-size="14.00" fill="#000000">Mu</text>
</a>
</g>
</g>
<!-- Any -->
<g id="node3" class="node">
<title>Any</title>
<g id="a_node3"><a xlink:href="/type/Any" xlink:title="Any">
<ellipse fill="none" stroke="#000000" cx="49.4" cy="-234" rx="27" ry="18"/>
<text text-anchor="middle" x="49.4" y="-230.3" font-family="FreeSans" font-size="14.00" fill="#000000">Any</text>
</a>
</g>
</g>
<!-- Any&#45;&gt;Mu -->
<g id="edge2" class="edge">
<title>Any&#45;&gt;Mu</title>
<path fill="none" stroke="#000000" d="M49.4,-252.3C49.4,-260.02 49.4,-269.29 49.4,-277.89"/>
<polygon fill="#000000" stroke="#000000" points="45.9,-277.9 49.4,-287.9 52.9,-277.9 45.9,-277.9"/>
</g>
<!-- Exception&#45;&gt;Any -->
<g id="edge3" class="edge">
<title>Exception&#45;&gt;Any</title>
<path fill="none" stroke="#000000" d="M49.4,-180.3C49.4,-188.02 49.4,-197.29 49.4,-205.89"/>
<polygon fill="#000000" stroke="#000000" points="45.9,-205.9 49.4,-215.9 52.9,-205.9 45.9,-205.9"/>
</g>
<!-- X::Control&#45;&gt;Exception -->
<g id="edge4" class="edge">
<title>X::Control&#45;&gt;Exception</title>
<path fill="none" stroke="#000000" d="M78.95,-107.95C74.36,-116.2 68.73,-126.3 63.62,-135.46"/>
<polygon fill="#000000" stroke="#000000" points="60.56,-133.77 58.75,-144.21 66.67,-137.18 60.56,-133.77"/>
</g>
</g>
</svg>
