<?xml version="1.0" encoding="UTF-8" standalone="no"?>
<!DOCTYPE svg PUBLIC "-//W3C//DTD SVG 1.1//EN"
 "http://www.w3.org/Graphics/SVG/1.1/DTD/svg11.dtd">
<!-- Generated by graphviz version 2.43.0 (0)
 -->
<!-- Title: perl6&#45;type&#45;graph Pages: 1 -->
<svg width="157pt" height="332pt"
 viewBox="0.00 0.00 157.49 332.00" xmlns="http://www.w3.org/2000/svg" xmlns:xlink="http://www.w3.org/1999/xlink">
<g id="graph0" class="graph" transform="scale(1 1) rotate(0) translate(4 328)">
<title>perl6&#45;type&#45;graph</title>
<polygon fill="white" stroke="transparent" points="-4,4 -4,-328 153.49,-328 153.49,4 -4,4"/>
<!-- CX::Proceed -->
<g id="node1" class="node">
<title>CX::Proceed</title>
<g id="a_node1"><a xlink:href="/type/CX::Proceed" xlink:title="CX::Proceed">
<ellipse fill="none" stroke="#000000" cx="60.44" cy="-18" rx="60.39" ry="18"/>
<text text-anchor="middle" x="60.44" y="-14.3" font-family="FreeSans" font-size="14.00" fill="#000000">CX::Proceed</text>
</a>
</g>
</g>
<!-- Exception -->
<g id="node4" class="node">
<title>Exception</title>
<g id="a_node4"><a xlink:href="/type/Exception" xlink:title="Exception">
<ellipse fill="none" stroke="#000000" cx="60.44" cy="-162" rx="49.29" ry="18"/>
<text text-anchor="middle" x="60.44" y="-158.3" font-family="FreeSans" font-size="14.00" fill="#000000">Exception</text>
</a>
</g>
</g>
<!-- CX::Proceed&#45;&gt;Exception -->
<g id="edge1" class="edge">
<title>CX::Proceed&#45;&gt;Exception</title>
<path fill="none" stroke="#000000" d="M54.01,-36.06C48.16,-51.55 40.44,-72 40.44,-72 40.44,-72 40.44,-108 40.44,-108 40.44,-108 45.44,-121.24 50.44,-134.48"/>
<polygon fill="#000000" stroke="#000000" points="47.2,-135.82 54.01,-143.94 53.75,-133.35 47.2,-135.82"/>
</g>
<!-- X::Control -->
<g id="node5" class="node">
<title>X::Control</title>
<g id="a_node5"><a xlink:href="/type/X::Control" xlink:title="X::Control">
<ellipse fill="none" stroke="#6666ff" cx="99.44" cy="-90" rx="50.09" ry="18"/>
<text text-anchor="middle" x="99.44" y="-86.3" font-family="FreeSans" font-size="14.00" fill="#6666ff">X::Control</text>
</a>
</g>
</g>
<!-- CX::Proceed&#45;&gt;X::Control -->
<g id="edge5" class="edge">
<title>CX::Proceed&#45;&gt;X::Control</title>
<path fill="none" stroke="#6666ff" d="M69.89,-35.95C74.48,-44.2 80.11,-54.3 85.22,-63.46"/>
<polygon fill="#6666ff" stroke="#6666ff" points="82.17,-65.18 90.09,-72.21 88.28,-61.77 82.17,-65.18"/>
</g>
<!-- Mu -->
<g id="node2" class="node">
<title>Mu</title>
<g id="a_node2"><a xlink:href="/type/Mu" xlink:title="Mu">
<ellipse fill="none" stroke="#000000" cx="60.44" cy="-306" rx="27" ry="18"/>
<text text-anchor="middle" x="60.44" y="-302.3" font-family="FreeSans" font-size="14.00" fill="#000000">Mu</text>
</a>
</g>
</g>
<!-- Any -->
<g id="node3" class="node">
<title>Any</title>
<g id="a_node3"><a xlink:href="/type/Any" xlink:title="Any">
<ellipse fill="none" stroke="#000000" cx="60.44" cy="-234" rx="27" ry="18"/>
<text text-anchor="middle" x="60.44" y="-230.3" font-family="FreeSans" font-size="14.00" fill="#000000">Any</text>
</a>
</g>
</g>
<!-- Any&#45;&gt;Mu -->
<g id="edge2" class="edge">
<title>Any&#45;&gt;Mu</title>
<path fill="none" stroke="#000000" d="M60.44,-252.3C60.44,-260.02 60.44,-269.29 60.44,-277.89"/>
<polygon fill="#000000" stroke="#000000" points="56.94,-277.9 60.44,-287.9 63.94,-277.9 56.94,-277.9"/>
</g>
<!-- Exception&#45;&gt;Any -->
<g id="edge3" class="edge">
<title>Exception&#45;&gt;Any</title>
<path fill="none" stroke="#000000" d="M60.44,-180.3C60.44,-188.02 60.44,-197.29 60.44,-205.89"/>
<polygon fill="#000000" stroke="#000000" points="56.94,-205.9 60.44,-215.9 63.94,-205.9 56.94,-205.9"/>
</g>
<!-- X::Control&#45;&gt;Exception -->
<g id="edge4" class="edge">
<title>X::Control&#45;&gt;Exception</title>
<path fill="none" stroke="#000000" d="M90,-107.95C85.4,-116.2 79.78,-126.3 74.67,-135.46"/>
<polygon fill="#000000" stroke="#000000" points="71.61,-133.77 69.8,-144.21 77.72,-137.18 71.61,-133.77"/>
</g>
</g>
</svg>
