<?xml version="1.0" encoding="UTF-8" standalone="no"?>
<!DOCTYPE svg PUBLIC "-//W3C//DTD SVG 1.1//EN"
 "http://www.w3.org/Graphics/SVG/1.1/DTD/svg11.dtd">
<!-- Generated by graphviz version 2.43.0 (0)
 -->
<!-- Title: perl6&#45;type&#45;graph Pages: 1 -->
<svg width="151pt" height="332pt"
 viewBox="0.00 0.00 150.99 332.00" xmlns="http://www.w3.org/2000/svg" xmlns:xlink="http://www.w3.org/1999/xlink">
<g id="graph0" class="graph" transform="scale(1 1) rotate(0) translate(4 328)">
<title>perl6&#45;type&#45;graph</title>
<polygon fill="white" stroke="transparent" points="-4,4 -4,-328 146.99,-328 146.99,4 -4,4"/>
<!-- CX::Return -->
<g id="node1" class="node">
<title>CX::Return</title>
<g id="a_node1"><a xlink:href="/type/CX::Return" xlink:title="CX::Return">
<ellipse fill="none" stroke="#000000" cx="53.95" cy="-18" rx="53.89" ry="18"/>
<text text-anchor="middle" x="53.95" y="-14.3" font-family="FreeSans" font-size="14.00" fill="#000000">CX::Return</text>
</a>
</g>
</g>
<!-- Exception -->
<g id="node4" class="node">
<title>Exception</title>
<g id="a_node4"><a xlink:href="/type/Exception" xlink:title="Exception">
<ellipse fill="none" stroke="#000000" cx="53.95" cy="-162" rx="49.29" ry="18"/>
<text text-anchor="middle" x="53.95" y="-158.3" font-family="FreeSans" font-size="14.00" fill="#000000">Exception</text>
</a>
</g>
</g>
<!-- CX::Return&#45;&gt;Exception -->
<g id="edge1" class="edge">
<title>CX::Return&#45;&gt;Exception</title>
<path fill="none" stroke="#000000" d="M47.51,-36.06C41.66,-51.55 33.95,-72 33.95,-72 33.95,-72 33.95,-108 33.95,-108 33.95,-108 38.94,-121.24 43.94,-134.48"/>
<polygon fill="#000000" stroke="#000000" points="40.7,-135.82 47.51,-143.94 47.25,-133.35 40.7,-135.82"/>
</g>
<!-- X::Control -->
<g id="node5" class="node">
<title>X::Control</title>
<g id="a_node5"><a xlink:href="/type/X::Control" xlink:title="X::Control">
<ellipse fill="none" stroke="#6666ff" cx="92.95" cy="-90" rx="50.09" ry="18"/>
<text text-anchor="middle" x="92.95" y="-86.3" font-family="FreeSans" font-size="14.00" fill="#6666ff">X::Control</text>
</a>
</g>
</g>
<!-- CX::Return&#45;&gt;X::Control -->
<g id="edge5" class="edge">
<title>CX::Return&#45;&gt;X::Control</title>
<path fill="none" stroke="#6666ff" d="M63.39,-35.95C67.98,-44.2 73.61,-54.3 78.72,-63.46"/>
<polygon fill="#6666ff" stroke="#6666ff" points="75.67,-65.18 83.59,-72.21 81.78,-61.77 75.67,-65.18"/>
</g>
<!-- Mu -->
<g id="node2" class="node">
<title>Mu</title>
<g id="a_node2"><a xlink:href="/type/Mu" xlink:title="Mu">
<ellipse fill="none" stroke="#000000" cx="53.95" cy="-306" rx="27" ry="18"/>
<text text-anchor="middle" x="53.95" y="-302.3" font-family="FreeSans" font-size="14.00" fill="#000000">Mu</text>
</a>
</g>
</g>
<!-- Any -->
<g id="node3" class="node">
<title>Any</title>
<g id="a_node3"><a xlink:href="/type/Any" xlink:title="Any">
<ellipse fill="none" stroke="#000000" cx="53.95" cy="-234" rx="27" ry="18"/>
<text text-anchor="middle" x="53.95" y="-230.3" font-family="FreeSans" font-size="14.00" fill="#000000">Any</text>
</a>
</g>
</g>
<!-- Any&#45;&gt;Mu -->
<g id="edge2" class="edge">
<title>Any&#45;&gt;Mu</title>
<path fill="none" stroke="#000000" d="M53.95,-252.3C53.95,-260.02 53.95,-269.29 53.95,-277.89"/>
<polygon fill="#000000" stroke="#000000" points="50.45,-277.9 53.95,-287.9 57.45,-277.9 50.45,-277.9"/>
</g>
<!-- Exception&#45;&gt;Any -->
<g id="edge3" class="edge">
<title>Exception&#45;&gt;Any</title>
<path fill="none" stroke="#000000" d="M53.95,-180.3C53.95,-188.02 53.95,-197.29 53.95,-205.89"/>
<polygon fill="#000000" stroke="#000000" points="50.45,-205.9 53.95,-215.9 57.45,-205.9 50.45,-205.9"/>
</g>
<!-- X::Control&#45;&gt;Exception -->
<g id="edge4" class="edge">
<title>X::Control&#45;&gt;Exception</title>
<path fill="none" stroke="#000000" d="M83.5,-107.95C78.91,-116.2 73.28,-126.3 68.17,-135.46"/>
<polygon fill="#000000" stroke="#000000" points="65.11,-133.77 63.3,-144.21 71.22,-137.18 65.11,-133.77"/>
</g>
</g>
</svg>
