<?xml version="1.0" encoding="UTF-8" standalone="no"?>
<!DOCTYPE svg PUBLIC "-//W3C//DTD SVG 1.1//EN"
 "http://www.w3.org/Graphics/SVG/1.1/DTD/svg11.dtd">
<!-- Generated by graphviz version 2.43.0 (0)
 -->
<!-- Title: perl6&#45;type&#45;graph Pages: 1 -->
<svg width="194pt" height="332pt"
 viewBox="0.00 0.00 194.44 332.00" xmlns="http://www.w3.org/2000/svg" xmlns:xlink="http://www.w3.org/1999/xlink">
<g id="graph0" class="graph" transform="scale(1 1) rotate(0) translate(4 328)">
<title>perl6&#45;type&#45;graph</title>
<polygon fill="white" stroke="transparent" points="-4,4 -4,-328 190.44,-328 190.44,4 -4,4"/>
<!-- CX::Redo -->
<g id="node1" class="node">
<title>CX::Redo</title>
<g id="a_node1"><a xlink:href="/type/CX::Redo" xlink:title="CX::Redo">
<ellipse fill="none" stroke="#000000" cx="92.4" cy="-18" rx="48.99" ry="18"/>
<text text-anchor="middle" x="92.4" y="-14.3" font-family="FreeSans" font-size="14.00" fill="#000000">CX::Redo</text>
</a>
</g>
</g>
<!-- Exception -->
<g id="node4" class="node">
<title>Exception</title>
<g id="a_node4"><a xlink:href="/type/Exception" xlink:title="Exception">
<ellipse fill="none" stroke="#000000" cx="49.4" cy="-162" rx="49.29" ry="18"/>
<text text-anchor="middle" x="49.4" y="-158.3" font-family="FreeSans" font-size="14.00" fill="#000000">Exception</text>
</a>
</g>
</g>
<!-- CX::Redo&#45;&gt;Exception -->
<g id="edge1" class="edge">
<title>CX::Redo&#45;&gt;Exception</title>
<path fill="none" stroke="#000000" d="M82.74,-35.85C72.81,-60.06 58.93,-104.95 52.17,-133.87"/>
<polygon fill="#000000" stroke="#000000" points="48.73,-133.22 50.03,-143.73 55.57,-134.7 48.73,-133.22"/>
</g>
<!-- CX::Redo&#45;&gt;Exception -->
<g id="edge2" class="edge">
<title>CX::Redo&#45;&gt;Exception</title>
<path fill="none" stroke="#000000" d="M91.79,-36.13C86.96,-60.67 73.47,-106.06 62.69,-134.83"/>
<polygon fill="#000000" stroke="#000000" points="59.39,-133.66 59.01,-144.25 65.91,-136.21 59.39,-133.66"/>
</g>
<!-- X::Control -->
<g id="node5" class="node">
<title>X::Control</title>
<g id="a_node5"><a xlink:href="/type/X::Control" xlink:title="X::Control">
<ellipse fill="none" stroke="#6666ff" cx="136.4" cy="-90" rx="50.09" ry="18"/>
<text text-anchor="middle" x="136.4" y="-86.3" font-family="FreeSans" font-size="14.00" fill="#6666ff">X::Control</text>
</a>
</g>
</g>
<!-- CX::Redo&#45;&gt;X::Control -->
<g id="edge6" class="edge">
<title>CX::Redo&#45;&gt;X::Control</title>
<path fill="none" stroke="#6666ff" d="M97.17,-35.95C101.64,-44.5 108.06,-55.03 114.48,-64.44"/>
<polygon fill="#6666ff" stroke="#6666ff" points="111.7,-66.56 120.34,-72.69 117.41,-62.51 111.7,-66.56"/>
</g>
<!-- CX::Redo&#45;&gt;X::Control -->
<g id="edge7" class="edge">
<title>CX::Redo&#45;&gt;X::Control</title>
<path fill="none" stroke="#6666ff" d="M108.4,-35.24C114.5,-43.47 121.17,-53.68 126.59,-62.98"/>
<polygon fill="#6666ff" stroke="#6666ff" points="123.61,-64.83 131.53,-71.88 129.73,-61.43 123.61,-64.83"/>
</g>
<!-- Mu -->
<g id="node2" class="node">
<title>Mu</title>
<g id="a_node2"><a xlink:href="/type/Mu" xlink:title="Mu">
<ellipse fill="none" stroke="#000000" cx="49.4" cy="-306" rx="27" ry="18"/>
<text text-anchor="middle" x="49.4" y="-302.3" font-family="FreeSans" font-size="14.00" fill="#000000">Mu</text>
</a>
</g>
</g>
<!-- Any -->
<g id="node3" class="node">
<title>Any</title>
<g id="a_node3"><a xlink:href="/type/Any" xlink:title="Any">
<ellipse fill="none" stroke="#000000" cx="49.4" cy="-234" rx="27" ry="18"/>
<text text-anchor="middle" x="49.4" y="-230.3" font-family="FreeSans" font-size="14.00" fill="#000000">Any</text>
</a>
</g>
</g>
<!-- Any&#45;&gt;Mu -->
<g id="edge3" class="edge">
<title>Any&#45;&gt;Mu</title>
<path fill="none" stroke="#000000" d="M49.4,-252.3C49.4,-260.02 49.4,-269.29 49.4,-277.89"/>
<polygon fill="#000000" stroke="#000000" points="45.9,-277.9 49.4,-287.9 52.9,-277.9 45.9,-277.9"/>
</g>
<!-- Exception&#45;&gt;Any -->
<g id="edge4" class="edge">
<title>Exception&#45;&gt;Any</title>
<path fill="none" stroke="#000000" d="M49.4,-180.3C49.4,-188.02 49.4,-197.29 49.4,-205.89"/>
<polygon fill="#000000" stroke="#000000" points="45.9,-205.9 49.4,-215.9 52.9,-205.9 45.9,-205.9"/>
</g>
<!-- X::Control&#45;&gt;Exception -->
<g id="edge5" class="edge">
<title>X::Control&#45;&gt;Exception</title>
<path fill="none" stroke="#000000" d="M116.65,-106.88C104.89,-116.35 89.79,-128.5 76.87,-138.89"/>
<polygon fill="#000000" stroke="#000000" points="74.36,-136.42 68.76,-145.42 78.74,-141.88 74.36,-136.42"/>
</g>
</g>
</svg>
