<?xml version="1.0" encoding="UTF-8" standalone="no"?>
<!DOCTYPE svg PUBLIC "-//W3C//DTD SVG 1.1//EN"
 "http://www.w3.org/Graphics/SVG/1.1/DTD/svg11.dtd">
<!-- Generated by graphviz version 2.43.0 (0)
 -->
<!-- Title: perl6&#45;type&#45;graph Pages: 1 -->
<svg width="159pt" height="332pt"
 viewBox="0.00 0.00 158.79 332.00" xmlns="http://www.w3.org/2000/svg" xmlns:xlink="http://www.w3.org/1999/xlink">
<g id="graph0" class="graph" transform="scale(1 1) rotate(0) translate(4 328)">
<title>perl6&#45;type&#45;graph</title>
<polygon fill="white" stroke="transparent" points="-4,4 -4,-328 154.79,-328 154.79,4 -4,4"/>
<!-- CX::Succeed -->
<g id="node1" class="node">
<title>CX::Succeed</title>
<g id="a_node1"><a xlink:href="/type/CX::Succeed" xlink:title="CX::Succeed">
<ellipse fill="none" stroke="#000000" cx="61.74" cy="-18" rx="61.99" ry="18"/>
<text text-anchor="middle" x="61.74" y="-14.3" font-family="FreeSans" font-size="14.00" fill="#000000">CX::Succeed</text>
</a>
</g>
</g>
<!-- Exception -->
<g id="node4" class="node">
<title>Exception</title>
<g id="a_node4"><a xlink:href="/type/Exception" xlink:title="Exception">
<ellipse fill="none" stroke="#000000" cx="61.74" cy="-162" rx="49.29" ry="18"/>
<text text-anchor="middle" x="61.74" y="-158.3" font-family="FreeSans" font-size="14.00" fill="#000000">Exception</text>
</a>
</g>
</g>
<!-- CX::Succeed&#45;&gt;Exception -->
<g id="edge1" class="edge">
<title>CX::Succeed&#45;&gt;Exception</title>
<path fill="none" stroke="#000000" d="M55.31,-36.06C49.46,-51.55 41.74,-72 41.74,-72 41.74,-72 41.74,-108 41.74,-108 41.74,-108 46.74,-121.24 51.74,-134.48"/>
<polygon fill="#000000" stroke="#000000" points="48.5,-135.82 55.31,-143.94 55.05,-133.35 48.5,-135.82"/>
</g>
<!-- X::Control -->
<g id="node5" class="node">
<title>X::Control</title>
<g id="a_node5"><a xlink:href="/type/X::Control" xlink:title="X::Control">
<ellipse fill="none" stroke="#6666ff" cx="100.74" cy="-90" rx="50.09" ry="18"/>
<text text-anchor="middle" x="100.74" y="-86.3" font-family="FreeSans" font-size="14.00" fill="#6666ff">X::Control</text>
</a>
</g>
</g>
<!-- CX::Succeed&#45;&gt;X::Control -->
<g id="edge5" class="edge">
<title>CX::Succeed&#45;&gt;X::Control</title>
<path fill="none" stroke="#6666ff" d="M71.19,-35.95C75.78,-44.2 81.41,-54.3 86.52,-63.46"/>
<polygon fill="#6666ff" stroke="#6666ff" points="83.47,-65.18 91.39,-72.21 89.58,-61.77 83.47,-65.18"/>
</g>
<!-- Mu -->
<g id="node2" class="node">
<title>Mu</title>
<g id="a_node2"><a xlink:href="/type/Mu" xlink:title="Mu">
<ellipse fill="none" stroke="#000000" cx="61.74" cy="-306" rx="27" ry="18"/>
<text text-anchor="middle" x="61.74" y="-302.3" font-family="FreeSans" font-size="14.00" fill="#000000">Mu</text>
</a>
</g>
</g>
<!-- Any -->
<g id="node3" class="node">
<title>Any</title>
<g id="a_node3"><a xlink:href="/type/Any" xlink:title="Any">
<ellipse fill="none" stroke="#000000" cx="61.74" cy="-234" rx="27" ry="18"/>
<text text-anchor="middle" x="61.74" y="-230.3" font-family="FreeSans" font-size="14.00" fill="#000000">Any</text>
</a>
</g>
</g>
<!-- Any&#45;&gt;Mu -->
<g id="edge2" class="edge">
<title>Any&#45;&gt;Mu</title>
<path fill="none" stroke="#000000" d="M61.74,-252.3C61.74,-260.02 61.74,-269.29 61.74,-277.89"/>
<polygon fill="#000000" stroke="#000000" points="58.24,-277.9 61.74,-287.9 65.24,-277.9 58.24,-277.9"/>
</g>
<!-- Exception&#45;&gt;Any -->
<g id="edge3" class="edge">
<title>Exception&#45;&gt;Any</title>
<path fill="none" stroke="#000000" d="M61.74,-180.3C61.74,-188.02 61.74,-197.29 61.74,-205.89"/>
<polygon fill="#000000" stroke="#000000" points="58.24,-205.9 61.74,-215.9 65.24,-205.9 58.24,-205.9"/>
</g>
<!-- X::Control&#45;&gt;Exception -->
<g id="edge4" class="edge">
<title>X::Control&#45;&gt;Exception</title>
<path fill="none" stroke="#000000" d="M91.3,-107.95C86.7,-116.2 81.08,-126.3 75.97,-135.46"/>
<polygon fill="#000000" stroke="#000000" points="72.91,-133.77 71.1,-144.21 79.02,-137.18 72.91,-133.77"/>
</g>
</g>
</svg>
