<?xml version="1.0" encoding="UTF-8" standalone="no"?>
<!DOCTYPE svg PUBLIC "-//W3C//DTD SVG 1.1//EN"
 "http://www.w3.org/Graphics/SVG/1.1/DTD/svg11.dtd">
<!-- Generated by graphviz version 2.43.0 (0)
 -->
<!-- Title: perl6&#45;type&#45;graph Pages: 1 -->
<svg width="160pt" height="188pt"
 viewBox="0.00 0.00 160.30 188.00" xmlns="http://www.w3.org/2000/svg" xmlns:xlink="http://www.w3.org/1999/xlink">
<g id="graph0" class="graph" transform="scale(1 1) rotate(0) translate(4 184)">
<title>perl6&#45;type&#45;graph</title>
<polygon fill="white" stroke="transparent" points="-4,4 -4,-184 156.3,-184 156.3,4 -4,4"/>
<!-- DateTime -->
<g id="node1" class="node">
<title>DateTime</title>
<g id="a_node1"><a xlink:href="/type/DateTime" xlink:title="DateTime">
<ellipse fill="none" stroke="#000000" cx="69" cy="-18" rx="49.29" ry="18"/>
<text text-anchor="middle" x="69" y="-14.3" font-family="FreeSans" font-size="14.00" fill="#000000">DateTime</text>
</a>
</g>
</g>
<!-- Any -->
<g id="node3" class="node">
<title>Any</title>
<g id="a_node3"><a xlink:href="/type/Any" xlink:title="Any">
<ellipse fill="none" stroke="#000000" cx="27" cy="-90" rx="27" ry="18"/>
<text text-anchor="middle" x="27" y="-86.3" font-family="FreeSans" font-size="14.00" fill="#000000">Any</text>
</a>
</g>
</g>
<!-- DateTime&#45;&gt;Any -->
<g id="edge1" class="edge">
<title>DateTime&#45;&gt;Any</title>
<path fill="none" stroke="#000000" d="M58.83,-35.95C53.81,-44.32 47.64,-54.6 42.08,-63.87"/>
<polygon fill="#000000" stroke="#000000" points="38.93,-62.32 36.78,-72.69 44.93,-65.92 38.93,-62.32"/>
</g>
<!-- Dateish -->
<g id="node4" class="node">
<title>Dateish</title>
<g id="a_node4"><a xlink:href="/type/Dateish" xlink:title="Dateish">
<ellipse fill="none" stroke="#6666ff" cx="112" cy="-90" rx="40.09" ry="18"/>
<text text-anchor="middle" x="112" y="-86.3" font-family="FreeSans" font-size="14.00" fill="#6666ff">Dateish</text>
</a>
</g>
</g>
<!-- DateTime&#45;&gt;Dateish -->
<g id="edge3" class="edge">
<title>DateTime&#45;&gt;Dateish</title>
<path fill="none" stroke="#6666ff" d="M79.41,-35.95C84.48,-44.2 90.68,-54.3 96.31,-63.46"/>
<polygon fill="#6666ff" stroke="#6666ff" points="93.47,-65.52 101.69,-72.21 99.43,-61.86 93.47,-65.52"/>
</g>
<!-- Mu -->
<g id="node2" class="node">
<title>Mu</title>
<g id="a_node2"><a xlink:href="/type/Mu" xlink:title="Mu">
<ellipse fill="none" stroke="#000000" cx="27" cy="-162" rx="27" ry="18"/>
<text text-anchor="middle" x="27" y="-158.3" font-family="FreeSans" font-size="14.00" fill="#000000">Mu</text>
</a>
</g>
</g>
<!-- Any&#45;&gt;Mu -->
<g id="edge2" class="edge">
<title>Any&#45;&gt;Mu</title>
<path fill="none" stroke="#000000" d="M27,-108.3C27,-116.02 27,-125.29 27,-133.89"/>
<polygon fill="#000000" stroke="#000000" points="23.5,-133.9 27,-143.9 30.5,-133.9 23.5,-133.9"/>
</g>
</g>
</svg>
