<?xml version="1.0" encoding="UTF-8" standalone="no"?>
<!DOCTYPE svg PUBLIC "-//W3C//DTD SVG 1.1//EN"
 "http://www.w3.org/Graphics/SVG/1.1/DTD/svg11.dtd">
<!-- Generated by graphviz version 2.43.0 (0)
 -->
<!-- Title: perl6&#45;type&#45;graph Pages: 1 -->
<svg width="189pt" height="188pt"
 viewBox="0.00 0.00 188.69 188.00" xmlns="http://www.w3.org/2000/svg" xmlns:xlink="http://www.w3.org/1999/xlink">
<g id="graph0" class="graph" transform="scale(1 1) rotate(0) translate(4 184)">
<title>perl6&#45;type&#45;graph</title>
<polygon fill="white" stroke="transparent" points="-4,4 -4,-184 184.69,-184 184.69,4 -4,4"/>
<!-- Dateish -->
<g id="node1" class="node">
<title>Dateish</title>
<g id="a_node1"><a xlink:href="/type/Dateish" xlink:title="Dateish">
<ellipse fill="none" stroke="#6666ff" cx="40.3" cy="-90" rx="40.09" ry="18"/>
<text text-anchor="middle" x="40.3" y="-86.3" font-family="FreeSans" font-size="14.00" fill="#6666ff">Dateish</text>
</a>
</g>
</g>
<!-- Mu -->
<g id="node2" class="node">
<title>Mu</title>
<g id="a_node2"><a xlink:href="/type/Mu" xlink:title="Mu">
<ellipse fill="none" stroke="#000000" cx="128.3" cy="-162" rx="27" ry="18"/>
<text text-anchor="middle" x="128.3" y="-158.3" font-family="FreeSans" font-size="14.00" fill="#000000">Mu</text>
</a>
</g>
</g>
<!-- Any -->
<g id="node3" class="node">
<title>Any</title>
<g id="a_node3"><a xlink:href="/type/Any" xlink:title="Any">
<ellipse fill="none" stroke="#000000" cx="128.3" cy="-90" rx="27" ry="18"/>
<text text-anchor="middle" x="128.3" y="-86.3" font-family="FreeSans" font-size="14.00" fill="#000000">Any</text>
</a>
</g>
</g>
<!-- Any&#45;&gt;Mu -->
<g id="edge1" class="edge">
<title>Any&#45;&gt;Mu</title>
<path fill="none" stroke="#000000" d="M128.3,-108.3C128.3,-116.02 128.3,-125.29 128.3,-133.89"/>
<polygon fill="#000000" stroke="#000000" points="124.8,-133.9 128.3,-143.9 131.8,-133.9 124.8,-133.9"/>
</g>
<!-- Date -->
<g id="node4" class="node">
<title>Date</title>
<g id="a_node4"><a xlink:href="/type/Date" xlink:title="Date">
<ellipse fill="none" stroke="#000000" cx="34.3" cy="-18" rx="29.5" ry="18"/>
<text text-anchor="middle" x="34.3" y="-14.3" font-family="FreeSans" font-size="14.00" fill="#000000">Date</text>
</a>
</g>
</g>
<!-- Date&#45;&gt;Dateish -->
<g id="edge4" class="edge">
<title>Date&#45;&gt;Dateish</title>
<path fill="none" stroke="#6666ff" d="M35.78,-36.3C36.44,-44.02 37.24,-53.29 37.97,-61.89"/>
<polygon fill="#6666ff" stroke="#6666ff" points="34.49,-62.23 38.83,-71.9 41.46,-61.63 34.49,-62.23"/>
</g>
<!-- Date&#45;&gt;Any -->
<g id="edge2" class="edge">
<title>Date&#45;&gt;Any</title>
<path fill="none" stroke="#000000" d="M52.42,-32.5C66.65,-43.09 86.63,-57.97 102.52,-69.8"/>
<polygon fill="#000000" stroke="#000000" points="100.75,-72.85 110.86,-76.02 104.93,-67.24 100.75,-72.85"/>
</g>
<!-- DateTime -->
<g id="node5" class="node">
<title>DateTime</title>
<g id="a_node5"><a xlink:href="/type/DateTime" xlink:title="DateTime">
<ellipse fill="none" stroke="#000000" cx="131.3" cy="-18" rx="49.29" ry="18"/>
<text text-anchor="middle" x="131.3" y="-14.3" font-family="FreeSans" font-size="14.00" fill="#000000">DateTime</text>
</a>
</g>
</g>
<!-- DateTime&#45;&gt;Dateish -->
<g id="edge5" class="edge">
<title>DateTime&#45;&gt;Dateish</title>
<path fill="none" stroke="#6666ff" d="M111.1,-34.54C98.44,-44.28 81.94,-56.96 68.06,-67.64"/>
<polygon fill="#6666ff" stroke="#6666ff" points="65.6,-65.12 59.81,-73.99 69.87,-70.67 65.6,-65.12"/>
</g>
<!-- DateTime&#45;&gt;Any -->
<g id="edge3" class="edge">
<title>DateTime&#45;&gt;Any</title>
<path fill="none" stroke="#000000" d="M130.55,-36.3C130.22,-44.02 129.83,-53.29 129.46,-61.89"/>
<polygon fill="#000000" stroke="#000000" points="125.96,-61.75 129.03,-71.9 132.95,-62.05 125.96,-61.75"/>
</g>
</g>
</svg>
