<?xml version="1.0" encoding="UTF-8" standalone="no"?>
<!DOCTYPE svg PUBLIC "-//W3C//DTD SVG 1.1//EN"
 "http://www.w3.org/Graphics/SVG/1.1/DTD/svg11.dtd">
<!-- Generated by graphviz version 2.43.0 (0)
 -->
<!-- Title: perl6&#45;type&#45;graph Pages: 1 -->
<svg width="340pt" height="188pt"
 viewBox="0.00 0.00 340.29 188.00" xmlns="http://www.w3.org/2000/svg" xmlns:xlink="http://www.w3.org/1999/xlink">
<g id="graph0" class="graph" transform="scale(1 1) rotate(0) translate(4 184)">
<title>perl6&#45;type&#45;graph</title>
<polygon fill="white" stroke="transparent" points="-4,4 -4,-184 336.29,-184 336.29,4 -4,4"/>
<!-- Distribution -->
<g id="node1" class="node">
<title>Distribution</title>
<g id="a_node1"><a xlink:href="/type/Distribution" xlink:title="Distribution">
<ellipse fill="none" stroke="#6666ff" cx="98.34" cy="-162" rx="54.69" ry="18"/>
<text text-anchor="middle" x="98.34" y="-158.3" font-family="FreeSans" font-size="14.00" fill="#6666ff">Distribution</text>
</a>
</g>
</g>
<!-- Distribution::Locally -->
<g id="node2" class="node">
<title>Distribution::Locally</title>
<g id="a_node2"><a xlink:href="/type/Distribution::Locally" xlink:title="Distribution::Locally">
<ellipse fill="none" stroke="#6666ff" cx="98.34" cy="-90" rx="87.18" ry="18"/>
<text text-anchor="middle" x="98.34" y="-86.3" font-family="FreeSans" font-size="14.00" fill="#6666ff">Distribution::Locally</text>
</a>
</g>
</g>
<!-- Distribution::Locally&#45;&gt;Distribution -->
<g id="edge4" class="edge">
<title>Distribution::Locally&#45;&gt;Distribution</title>
<path fill="none" stroke="#6666ff" d="M98.34,-108.3C98.34,-116.02 98.34,-125.29 98.34,-133.89"/>
<polygon fill="#6666ff" stroke="#6666ff" points="94.84,-133.9 98.34,-143.9 101.84,-133.9 94.84,-133.9"/>
</g>
<!-- Mu -->
<g id="node3" class="node">
<title>Mu</title>
<g id="a_node3"><a xlink:href="/type/Mu" xlink:title="Mu">
<ellipse fill="none" stroke="#000000" cx="241.34" cy="-162" rx="27" ry="18"/>
<text text-anchor="middle" x="241.34" y="-158.3" font-family="FreeSans" font-size="14.00" fill="#000000">Mu</text>
</a>
</g>
</g>
<!-- Any -->
<g id="node4" class="node">
<title>Any</title>
<g id="a_node4"><a xlink:href="/type/Any" xlink:title="Any">
<ellipse fill="none" stroke="#000000" cx="241.34" cy="-90" rx="27" ry="18"/>
<text text-anchor="middle" x="241.34" y="-86.3" font-family="FreeSans" font-size="14.00" fill="#000000">Any</text>
</a>
</g>
</g>
<!-- Any&#45;&gt;Mu -->
<g id="edge1" class="edge">
<title>Any&#45;&gt;Mu</title>
<path fill="none" stroke="#000000" d="M241.34,-108.3C241.34,-116.02 241.34,-125.29 241.34,-133.89"/>
<polygon fill="#000000" stroke="#000000" points="237.84,-133.9 241.34,-143.9 244.84,-133.9 237.84,-133.9"/>
</g>
<!-- Distribution::Path -->
<g id="node5" class="node">
<title>Distribution::Path</title>
<g id="a_node5"><a xlink:href="/type/Distribution::Path" xlink:title="Distribution::Path">
<ellipse fill="none" stroke="#000000" cx="77.34" cy="-18" rx="77.19" ry="18"/>
<text text-anchor="middle" x="77.34" y="-14.3" font-family="FreeSans" font-size="14.00" fill="#000000">Distribution::Path</text>
</a>
</g>
</g>
<!-- Distribution::Path&#45;&gt;Distribution::Locally -->
<g id="edge5" class="edge">
<title>Distribution::Path&#45;&gt;Distribution::Locally</title>
<path fill="none" stroke="#6666ff" d="M82.53,-36.3C84.87,-44.1 87.69,-53.49 90.29,-62.17"/>
<polygon fill="#6666ff" stroke="#6666ff" points="86.99,-63.32 93.21,-71.9 93.69,-61.31 86.99,-63.32"/>
</g>
<!-- Distribution::Path&#45;&gt;Any -->
<g id="edge2" class="edge">
<title>Distribution::Path&#45;&gt;Any</title>
<path fill="none" stroke="#000000" d="M112.93,-34.19C141.75,-46.49 181.98,-63.66 209.69,-75.49"/>
<polygon fill="#000000" stroke="#000000" points="208.36,-78.73 218.93,-79.43 211.11,-72.29 208.36,-78.73"/>
</g>
<!-- Distribution::Hash -->
<g id="node6" class="node">
<title>Distribution::Hash</title>
<g id="a_node6"><a xlink:href="/type/Distribution::Hash" xlink:title="Distribution::Hash">
<ellipse fill="none" stroke="#000000" cx="252.34" cy="-18" rx="79.89" ry="18"/>
<text text-anchor="middle" x="252.34" y="-14.3" font-family="FreeSans" font-size="14.00" fill="#000000">Distribution::Hash</text>
</a>
</g>
</g>
<!-- Distribution::Hash&#45;&gt;Distribution::Locally -->
<g id="edge6" class="edge">
<title>Distribution::Hash&#45;&gt;Distribution::Locally</title>
<path fill="none" stroke="#6666ff" d="M218.55,-34.36C196.04,-44.59 166.24,-58.14 141.95,-69.18"/>
<polygon fill="#6666ff" stroke="#6666ff" points="140.25,-66.11 132.59,-73.43 143.14,-72.48 140.25,-66.11"/>
</g>
<!-- Distribution::Hash&#45;&gt;Any -->
<g id="edge3" class="edge">
<title>Distribution::Hash&#45;&gt;Any</title>
<path fill="none" stroke="#000000" d="M249.62,-36.3C248.41,-44.02 246.96,-53.29 245.6,-61.89"/>
<polygon fill="#000000" stroke="#000000" points="242.13,-61.47 244.03,-71.9 249.04,-62.56 242.13,-61.47"/>
</g>
</g>
</svg>
