<?xml version="1.0" encoding="UTF-8" standalone="no"?>
<!DOCTYPE svg PUBLIC "-//W3C//DTD SVG 1.1//EN"
 "http://www.w3.org/Graphics/SVG/1.1/DTD/svg11.dtd">
<!-- Generated by graphviz version 2.43.0 (0)
 -->
<!-- Title: perl6&#45;type&#45;graph Pages: 1 -->
<svg width="254pt" height="188pt"
 viewBox="0.00 0.00 254.09 188.00" xmlns="http://www.w3.org/2000/svg" xmlns:xlink="http://www.w3.org/1999/xlink">
<g id="graph0" class="graph" transform="scale(1 1) rotate(0) translate(4 184)">
<title>perl6&#45;type&#45;graph</title>
<polygon fill="white" stroke="transparent" points="-4,4 -4,-184 250.09,-184 250.09,4 -4,4"/>
<!-- Distribution::Path -->
<g id="node1" class="node">
<title>Distribution::Path</title>
<g id="a_node1"><a xlink:href="/type/Distribution::Path" xlink:title="Distribution::Path">
<ellipse fill="none" stroke="#000000" cx="93" cy="-18" rx="77.19" ry="18"/>
<text text-anchor="middle" x="93" y="-14.3" font-family="FreeSans" font-size="14.00" fill="#000000">Distribution::Path</text>
</a>
</g>
</g>
<!-- Any -->
<g id="node3" class="node">
<title>Any</title>
<g id="a_node3"><a xlink:href="/type/Any" xlink:title="Any">
<ellipse fill="none" stroke="#000000" cx="27" cy="-90" rx="27" ry="18"/>
<text text-anchor="middle" x="27" y="-86.3" font-family="FreeSans" font-size="14.00" fill="#000000">Any</text>
</a>
</g>
</g>
<!-- Distribution::Path&#45;&gt;Any -->
<g id="edge1" class="edge">
<title>Distribution::Path&#45;&gt;Any</title>
<path fill="none" stroke="#000000" d="M77.02,-35.95C68.35,-45.14 57.53,-56.62 48.16,-66.55"/>
<polygon fill="#000000" stroke="#000000" points="45.35,-64.43 41.04,-74.11 50.44,-69.24 45.35,-64.43"/>
</g>
<!-- Distribution::Locally -->
<g id="node5" class="node">
<title>Distribution::Locally</title>
<g id="a_node5"><a xlink:href="/type/Distribution::Locally" xlink:title="Distribution::Locally">
<ellipse fill="none" stroke="#6666ff" cx="159" cy="-90" rx="87.18" ry="18"/>
<text text-anchor="middle" x="159" y="-86.3" font-family="FreeSans" font-size="14.00" fill="#6666ff">Distribution::Locally</text>
</a>
</g>
</g>
<!-- Distribution::Path&#45;&gt;Distribution::Locally -->
<g id="edge3" class="edge">
<title>Distribution::Path&#45;&gt;Distribution::Locally</title>
<path fill="none" stroke="#6666ff" d="M108.98,-35.95C117.16,-44.63 127.28,-55.36 136.26,-64.89"/>
<polygon fill="#6666ff" stroke="#6666ff" points="133.76,-67.34 143.17,-72.21 138.86,-62.53 133.76,-67.34"/>
</g>
<!-- Mu -->
<g id="node2" class="node">
<title>Mu</title>
<g id="a_node2"><a xlink:href="/type/Mu" xlink:title="Mu">
<ellipse fill="none" stroke="#000000" cx="27" cy="-162" rx="27" ry="18"/>
<text text-anchor="middle" x="27" y="-158.3" font-family="FreeSans" font-size="14.00" fill="#000000">Mu</text>
</a>
</g>
</g>
<!-- Any&#45;&gt;Mu -->
<g id="edge2" class="edge">
<title>Any&#45;&gt;Mu</title>
<path fill="none" stroke="#000000" d="M27,-108.3C27,-116.02 27,-125.29 27,-133.89"/>
<polygon fill="#000000" stroke="#000000" points="23.5,-133.9 27,-143.9 30.5,-133.9 23.5,-133.9"/>
</g>
<!-- Distribution -->
<g id="node4" class="node">
<title>Distribution</title>
<g id="a_node4"><a xlink:href="/type/Distribution" xlink:title="Distribution">
<ellipse fill="none" stroke="#6666ff" cx="159" cy="-162" rx="54.69" ry="18"/>
<text text-anchor="middle" x="159" y="-158.3" font-family="FreeSans" font-size="14.00" fill="#6666ff">Distribution</text>
</a>
</g>
</g>
<!-- Distribution::Locally&#45;&gt;Distribution -->
<g id="edge4" class="edge">
<title>Distribution::Locally&#45;&gt;Distribution</title>
<path fill="none" stroke="#6666ff" d="M159,-108.3C159,-116.02 159,-125.29 159,-133.89"/>
<polygon fill="#6666ff" stroke="#6666ff" points="155.5,-133.9 159,-143.9 162.5,-133.9 155.5,-133.9"/>
</g>
</g>
</svg>
