<?xml version="1.0" encoding="UTF-8" standalone="no"?>
<!DOCTYPE svg PUBLIC "-//W3C//DTD SVG 1.1//EN"
 "http://www.w3.org/Graphics/SVG/1.1/DTD/svg11.dtd">
<!-- Generated by graphviz version 2.43.0 (0)
 -->
<!-- Title: perl6&#45;type&#45;graph Pages: 1 -->
<svg width="168pt" height="260pt"
 viewBox="0.00 0.00 168.20 260.00" xmlns="http://www.w3.org/2000/svg" xmlns:xlink="http://www.w3.org/1999/xlink">
<g id="graph0" class="graph" transform="scale(1 1) rotate(0) translate(4 256)">
<title>perl6&#45;type&#45;graph</title>
<polygon fill="white" stroke="transparent" points="-4,4 -4,-256 164.2,-256 164.2,4 -4,4"/>
<!-- Duration -->
<g id="node1" class="node">
<title>Duration</title>
<g id="a_node1"><a xlink:href="/type/Duration" xlink:title="Duration">
<ellipse fill="none" stroke="#000000" cx="71" cy="-18" rx="44.39" ry="18"/>
<text text-anchor="middle" x="71" y="-14.3" font-family="FreeSans" font-size="14.00" fill="#000000">Duration</text>
</a>
</g>
</g>
<!-- Cool -->
<g id="node4" class="node">
<title>Cool</title>
<g id="a_node4"><a xlink:href="/type/Cool" xlink:title="Cool">
<ellipse fill="none" stroke="#000000" cx="30" cy="-90" rx="28.7" ry="18"/>
<text text-anchor="middle" x="30" y="-86.3" font-family="FreeSans" font-size="14.00" fill="#000000">Cool</text>
</a>
</g>
</g>
<!-- Duration&#45;&gt;Cool -->
<g id="edge1" class="edge">
<title>Duration&#45;&gt;Cool</title>
<path fill="none" stroke="#000000" d="M61.28,-35.59C56.38,-43.96 50.33,-54.29 44.86,-63.63"/>
<polygon fill="#000000" stroke="#000000" points="41.68,-62.13 39.65,-72.53 47.72,-65.67 41.68,-62.13"/>
</g>
<!-- Real -->
<g id="node6" class="node">
<title>Real</title>
<g id="a_node6"><a xlink:href="/type/Real" xlink:title="Real">
<ellipse fill="none" stroke="#6666ff" cx="112" cy="-90" rx="28.7" ry="18"/>
<text text-anchor="middle" x="112" y="-86.3" font-family="FreeSans" font-size="14.00" fill="#6666ff">Real</text>
</a>
</g>
</g>
<!-- Duration&#45;&gt;Real -->
<g id="edge4" class="edge">
<title>Duration&#45;&gt;Real</title>
<path fill="none" stroke="#6666ff" d="M80.72,-35.59C85.62,-43.96 91.67,-54.29 97.14,-63.63"/>
<polygon fill="#6666ff" stroke="#6666ff" points="94.28,-65.67 102.35,-72.53 100.32,-62.13 94.28,-65.67"/>
</g>
<!-- Mu -->
<g id="node2" class="node">
<title>Mu</title>
<g id="a_node2"><a xlink:href="/type/Mu" xlink:title="Mu">
<ellipse fill="none" stroke="#000000" cx="27" cy="-234" rx="27" ry="18"/>
<text text-anchor="middle" x="27" y="-230.3" font-family="FreeSans" font-size="14.00" fill="#000000">Mu</text>
</a>
</g>
</g>
<!-- Any -->
<g id="node3" class="node">
<title>Any</title>
<g id="a_node3"><a xlink:href="/type/Any" xlink:title="Any">
<ellipse fill="none" stroke="#000000" cx="27" cy="-162" rx="27" ry="18"/>
<text text-anchor="middle" x="27" y="-158.3" font-family="FreeSans" font-size="14.00" fill="#000000">Any</text>
</a>
</g>
</g>
<!-- Any&#45;&gt;Mu -->
<g id="edge2" class="edge">
<title>Any&#45;&gt;Mu</title>
<path fill="none" stroke="#000000" d="M27,-180.3C27,-188.02 27,-197.29 27,-205.89"/>
<polygon fill="#000000" stroke="#000000" points="23.5,-205.9 27,-215.9 30.5,-205.9 23.5,-205.9"/>
</g>
<!-- Cool&#45;&gt;Any -->
<g id="edge3" class="edge">
<title>Cool&#45;&gt;Any</title>
<path fill="none" stroke="#000000" d="M29.26,-108.3C28.93,-116.02 28.53,-125.29 28.16,-133.89"/>
<polygon fill="#000000" stroke="#000000" points="24.66,-133.75 27.73,-143.9 31.66,-134.05 24.66,-133.75"/>
</g>
<!-- Numeric -->
<g id="node5" class="node">
<title>Numeric</title>
<g id="a_node5"><a xlink:href="/type/Numeric" xlink:title="Numeric">
<ellipse fill="none" stroke="#6666ff" cx="116" cy="-162" rx="44.39" ry="18"/>
<text text-anchor="middle" x="116" y="-158.3" font-family="FreeSans" font-size="14.00" fill="#6666ff">Numeric</text>
</a>
</g>
</g>
<!-- Real&#45;&gt;Numeric -->
<g id="edge5" class="edge">
<title>Real&#45;&gt;Numeric</title>
<path fill="none" stroke="#6666ff" d="M112.99,-108.3C113.43,-116.02 113.96,-125.29 114.45,-133.89"/>
<polygon fill="#6666ff" stroke="#6666ff" points="110.96,-134.11 115.02,-143.9 117.95,-133.71 110.96,-134.11"/>
</g>
</g>
</svg>
