<?xml version="1.0" encoding="UTF-8" standalone="no"?>
<!DOCTYPE svg PUBLIC "-//W3C//DTD SVG 1.1//EN"
 "http://www.w3.org/Graphics/SVG/1.1/DTD/svg11.dtd">
<!-- Generated by graphviz version 2.43.0 (0)
 -->
<!-- Title: perl6&#45;type&#45;graph Pages: 1 -->
<svg width="170pt" height="260pt"
 viewBox="0.00 0.00 169.79 260.00" xmlns="http://www.w3.org/2000/svg" xmlns:xlink="http://www.w3.org/1999/xlink">
<g id="graph0" class="graph" transform="scale(1 1) rotate(0) translate(4 256)">
<title>perl6&#45;type&#45;graph</title>
<polygon fill="white" stroke="transparent" points="-4,4 -4,-256 165.79,-256 165.79,4 -4,4"/>
<!-- FatRat -->
<g id="node1" class="node">
<title>FatRat</title>
<g id="a_node1"><a xlink:href="/type/FatRat" xlink:title="FatRat">
<ellipse fill="none" stroke="#000000" cx="72.6" cy="-18" rx="37.09" ry="18"/>
<text text-anchor="middle" x="72.6" y="-14.3" font-family="FreeSans" font-size="14.00" fill="#000000">FatRat</text>
</a>
</g>
</g>
<!-- Cool -->
<g id="node4" class="node">
<title>Cool</title>
<g id="a_node4"><a xlink:href="/type/Cool" xlink:title="Cool">
<ellipse fill="none" stroke="#000000" cx="28.6" cy="-90" rx="28.7" ry="18"/>
<text text-anchor="middle" x="28.6" y="-86.3" font-family="FreeSans" font-size="14.00" fill="#000000">Cool</text>
</a>
</g>
</g>
<!-- FatRat&#45;&gt;Cool -->
<g id="edge1" class="edge">
<title>FatRat&#45;&gt;Cool</title>
<path fill="none" stroke="#000000" d="M62.17,-35.59C56.78,-44.17 50.09,-54.81 44.1,-64.33"/>
<polygon fill="#000000" stroke="#000000" points="41.01,-62.68 38.65,-73.01 46.93,-66.41 41.01,-62.68"/>
</g>
<!-- Rational -->
<g id="node7" class="node">
<title>Rational</title>
<g id="a_node7"><a xlink:href="/type/Rational" xlink:title="Rational">
<ellipse fill="none" stroke="#6666ff" cx="117.6" cy="-90" rx="42.79" ry="18"/>
<text text-anchor="middle" x="117.6" y="-86.3" font-family="FreeSans" font-size="14.00" fill="#6666ff">Rational</text>
</a>
</g>
</g>
<!-- FatRat&#45;&gt;Rational -->
<g id="edge4" class="edge">
<title>FatRat&#45;&gt;Rational</title>
<path fill="none" stroke="#6666ff" d="M83.26,-35.59C88.7,-44.05 95.42,-54.51 101.48,-63.92"/>
<polygon fill="#6666ff" stroke="#6666ff" points="98.66,-66.01 107.01,-72.53 104.55,-62.23 98.66,-66.01"/>
</g>
<!-- Mu -->
<g id="node2" class="node">
<title>Mu</title>
<g id="a_node2"><a xlink:href="/type/Mu" xlink:title="Mu">
<ellipse fill="none" stroke="#000000" cx="28.6" cy="-234" rx="27" ry="18"/>
<text text-anchor="middle" x="28.6" y="-230.3" font-family="FreeSans" font-size="14.00" fill="#000000">Mu</text>
</a>
</g>
</g>
<!-- Any -->
<g id="node3" class="node">
<title>Any</title>
<g id="a_node3"><a xlink:href="/type/Any" xlink:title="Any">
<ellipse fill="none" stroke="#000000" cx="28.6" cy="-162" rx="27" ry="18"/>
<text text-anchor="middle" x="28.6" y="-158.3" font-family="FreeSans" font-size="14.00" fill="#000000">Any</text>
</a>
</g>
</g>
<!-- Any&#45;&gt;Mu -->
<g id="edge2" class="edge">
<title>Any&#45;&gt;Mu</title>
<path fill="none" stroke="#000000" d="M28.6,-180.3C28.6,-188.02 28.6,-197.29 28.6,-205.89"/>
<polygon fill="#000000" stroke="#000000" points="25.1,-205.9 28.6,-215.9 32.1,-205.9 25.1,-205.9"/>
</g>
<!-- Cool&#45;&gt;Any -->
<g id="edge3" class="edge">
<title>Cool&#45;&gt;Any</title>
<path fill="none" stroke="#000000" d="M28.6,-108.3C28.6,-116.02 28.6,-125.29 28.6,-133.89"/>
<polygon fill="#000000" stroke="#000000" points="25.1,-133.9 28.6,-143.9 32.1,-133.9 25.1,-133.9"/>
</g>
<!-- Numeric -->
<g id="node5" class="node">
<title>Numeric</title>
<g id="a_node5"><a xlink:href="/type/Numeric" xlink:title="Numeric">
<ellipse fill="none" stroke="#6666ff" cx="117.6" cy="-234" rx="44.39" ry="18"/>
<text text-anchor="middle" x="117.6" y="-230.3" font-family="FreeSans" font-size="14.00" fill="#6666ff">Numeric</text>
</a>
</g>
</g>
<!-- Real -->
<g id="node6" class="node">
<title>Real</title>
<g id="a_node6"><a xlink:href="/type/Real" xlink:title="Real">
<ellipse fill="none" stroke="#6666ff" cx="117.6" cy="-162" rx="28.7" ry="18"/>
<text text-anchor="middle" x="117.6" y="-158.3" font-family="FreeSans" font-size="14.00" fill="#6666ff">Real</text>
</a>
</g>
</g>
<!-- Real&#45;&gt;Numeric -->
<g id="edge5" class="edge">
<title>Real&#45;&gt;Numeric</title>
<path fill="none" stroke="#6666ff" d="M117.6,-180.3C117.6,-188.02 117.6,-197.29 117.6,-205.89"/>
<polygon fill="#6666ff" stroke="#6666ff" points="114.1,-205.9 117.6,-215.9 121.1,-205.9 114.1,-205.9"/>
</g>
<!-- Rational&#45;&gt;Real -->
<g id="edge6" class="edge">
<title>Rational&#45;&gt;Real</title>
<path fill="none" stroke="#6666ff" d="M117.6,-108.3C117.6,-116.02 117.6,-125.29 117.6,-133.89"/>
<polygon fill="#6666ff" stroke="#6666ff" points="114.1,-133.9 117.6,-143.9 121.1,-133.9 114.1,-133.9"/>
</g>
</g>
</svg>
