<?xml version="1.0" encoding="UTF-8" standalone="no"?>
<!DOCTYPE svg PUBLIC "-//W3C//DTD SVG 1.1//EN"
 "http://www.w3.org/Graphics/SVG/1.1/DTD/svg11.dtd">
<!-- Generated by graphviz version 2.43.0 (0)
 -->
<!-- Title: perl6&#45;type&#45;graph Pages: 1 -->
<svg width="164pt" height="188pt"
 viewBox="0.00 0.00 164.25 188.00" xmlns="http://www.w3.org/2000/svg" xmlns:xlink="http://www.w3.org/1999/xlink">
<g id="graph0" class="graph" transform="scale(1 1) rotate(0) translate(4 184)">
<title>perl6&#45;type&#45;graph</title>
<polygon fill="white" stroke="transparent" points="-4,4 -4,-184 160.25,-184 160.25,4 -4,4"/>
<!-- ForeignCode -->
<g id="node1" class="node">
<title>ForeignCode</title>
<g id="a_node1"><a xlink:href="/type/ForeignCode" xlink:title="ForeignCode">
<ellipse fill="none" stroke="#000000" cx="70" cy="-18" rx="61.99" ry="18"/>
<text text-anchor="middle" x="70" y="-14.3" font-family="FreeSans" font-size="14.00" fill="#000000">ForeignCode</text>
</a>
</g>
</g>
<!-- Any -->
<g id="node3" class="node">
<title>Any</title>
<g id="a_node3"><a xlink:href="/type/Any" xlink:title="Any">
<ellipse fill="none" stroke="#000000" cx="27" cy="-90" rx="27" ry="18"/>
<text text-anchor="middle" x="27" y="-86.3" font-family="FreeSans" font-size="14.00" fill="#000000">Any</text>
</a>
</g>
</g>
<!-- ForeignCode&#45;&gt;Any -->
<g id="edge1" class="edge">
<title>ForeignCode&#45;&gt;Any</title>
<path fill="none" stroke="#000000" d="M59.59,-35.95C54.32,-44.53 47.82,-55.11 42.01,-64.56"/>
<polygon fill="#000000" stroke="#000000" points="38.98,-62.82 36.72,-73.17 44.94,-66.48 38.98,-62.82"/>
</g>
<!-- Callable -->
<g id="node4" class="node">
<title>Callable</title>
<g id="a_node4"><a xlink:href="/type/Callable" xlink:title="Callable">
<ellipse fill="none" stroke="#6666ff" cx="114" cy="-90" rx="42.49" ry="18"/>
<text text-anchor="middle" x="114" y="-86.3" font-family="FreeSans" font-size="14.00" fill="#6666ff">Callable</text>
</a>
</g>
</g>
<!-- ForeignCode&#45;&gt;Callable -->
<g id="edge3" class="edge">
<title>ForeignCode&#45;&gt;Callable</title>
<path fill="none" stroke="#6666ff" d="M80.65,-35.95C85.84,-44.2 92.19,-54.3 97.95,-63.46"/>
<polygon fill="#6666ff" stroke="#6666ff" points="95.16,-65.61 103.45,-72.21 101.09,-61.88 95.16,-65.61"/>
</g>
<!-- Mu -->
<g id="node2" class="node">
<title>Mu</title>
<g id="a_node2"><a xlink:href="/type/Mu" xlink:title="Mu">
<ellipse fill="none" stroke="#000000" cx="27" cy="-162" rx="27" ry="18"/>
<text text-anchor="middle" x="27" y="-158.3" font-family="FreeSans" font-size="14.00" fill="#000000">Mu</text>
</a>
</g>
</g>
<!-- Any&#45;&gt;Mu -->
<g id="edge2" class="edge">
<title>Any&#45;&gt;Mu</title>
<path fill="none" stroke="#000000" d="M27,-108.3C27,-116.02 27,-125.29 27,-133.89"/>
<polygon fill="#000000" stroke="#000000" points="23.5,-133.9 27,-143.9 30.5,-133.9 23.5,-133.9"/>
</g>
</g>
</svg>
