<?xml version="1.0" encoding="UTF-8" standalone="no"?>
<!DOCTYPE svg PUBLIC "-//W3C//DTD SVG 1.1//EN"
 "http://www.w3.org/Graphics/SVG/1.1/DTD/svg11.dtd">
<!-- Generated by graphviz version 2.43.0 (0)
 -->
<!-- Title: perl6&#45;type&#45;graph Pages: 1 -->
<svg width="293pt" height="404pt"
 viewBox="0.00 0.00 292.84 404.00" xmlns="http://www.w3.org/2000/svg" xmlns:xlink="http://www.w3.org/1999/xlink">
<g id="graph0" class="graph" transform="scale(1 1) rotate(0) translate(4 400)">
<title>perl6&#45;type&#45;graph</title>
<polygon fill="white" stroke="transparent" points="-4,4 -4,-400 288.84,-400 288.84,4 -4,4"/>
<!-- Hash -->
<g id="node1" class="node">
<title>Hash</title>
<g id="a_node1"><a xlink:href="/type/Hash" xlink:title="Hash">
<ellipse fill="none" stroke="#000000" cx="115.6" cy="-90" rx="31.4" ry="18"/>
<text text-anchor="middle" x="115.6" y="-86.3" font-family="FreeSans" font-size="14.00" fill="#000000">Hash</text>
</a>
</g>
</g>
<!-- Map -->
<g id="node7" class="node">
<title>Map</title>
<g id="a_node7"><a xlink:href="/type/Map" xlink:title="Map">
<ellipse fill="none" stroke="#000000" cx="115.6" cy="-162" rx="28.7" ry="18"/>
<text text-anchor="middle" x="115.6" y="-158.3" font-family="FreeSans" font-size="14.00" fill="#000000">Map</text>
</a>
</g>
</g>
<!-- Hash&#45;&gt;Map -->
<g id="edge1" class="edge">
<title>Hash&#45;&gt;Map</title>
<path fill="none" stroke="#000000" d="M115.6,-108.3C115.6,-116.02 115.6,-125.29 115.6,-133.89"/>
<polygon fill="#000000" stroke="#000000" points="112.1,-133.9 115.6,-143.9 119.1,-133.9 112.1,-133.9"/>
</g>
<!-- Mu -->
<g id="node2" class="node">
<title>Mu</title>
<g id="a_node2"><a xlink:href="/type/Mu" xlink:title="Mu">
<ellipse fill="none" stroke="#000000" cx="28.6" cy="-378" rx="27" ry="18"/>
<text text-anchor="middle" x="28.6" y="-374.3" font-family="FreeSans" font-size="14.00" fill="#000000">Mu</text>
</a>
</g>
</g>
<!-- Any -->
<g id="node3" class="node">
<title>Any</title>
<g id="a_node3"><a xlink:href="/type/Any" xlink:title="Any">
<ellipse fill="none" stroke="#000000" cx="28.6" cy="-306" rx="27" ry="18"/>
<text text-anchor="middle" x="28.6" y="-302.3" font-family="FreeSans" font-size="14.00" fill="#000000">Any</text>
</a>
</g>
</g>
<!-- Any&#45;&gt;Mu -->
<g id="edge2" class="edge">
<title>Any&#45;&gt;Mu</title>
<path fill="none" stroke="#000000" d="M28.6,-324.3C28.6,-332.02 28.6,-341.29 28.6,-349.89"/>
<polygon fill="#000000" stroke="#000000" points="25.1,-349.9 28.6,-359.9 32.1,-349.9 25.1,-349.9"/>
</g>
<!-- Cool -->
<g id="node4" class="node">
<title>Cool</title>
<g id="a_node4"><a xlink:href="/type/Cool" xlink:title="Cool">
<ellipse fill="none" stroke="#000000" cx="28.6" cy="-234" rx="28.7" ry="18"/>
<text text-anchor="middle" x="28.6" y="-230.3" font-family="FreeSans" font-size="14.00" fill="#000000">Cool</text>
</a>
</g>
</g>
<!-- Cool&#45;&gt;Any -->
<g id="edge3" class="edge">
<title>Cool&#45;&gt;Any</title>
<path fill="none" stroke="#000000" d="M28.6,-252.3C28.6,-260.02 28.6,-269.29 28.6,-277.89"/>
<polygon fill="#000000" stroke="#000000" points="25.1,-277.9 28.6,-287.9 32.1,-277.9 25.1,-277.9"/>
</g>
<!-- Iterable -->
<g id="node5" class="node">
<title>Iterable</title>
<g id="a_node5"><a xlink:href="/type/Iterable" xlink:title="Iterable">
<ellipse fill="none" stroke="#6666ff" cx="115.6" cy="-234" rx="40.09" ry="18"/>
<text text-anchor="middle" x="115.6" y="-230.3" font-family="FreeSans" font-size="14.00" fill="#6666ff">Iterable</text>
</a>
</g>
</g>
<!-- Associative -->
<g id="node6" class="node">
<title>Associative</title>
<g id="a_node6"><a xlink:href="/type/Associative" xlink:title="Associative">
<ellipse fill="none" stroke="#6666ff" cx="229.6" cy="-234" rx="55.49" ry="18"/>
<text text-anchor="middle" x="229.6" y="-230.3" font-family="FreeSans" font-size="14.00" fill="#6666ff">Associative</text>
</a>
</g>
</g>
<!-- Map&#45;&gt;Cool -->
<g id="edge4" class="edge">
<title>Map&#45;&gt;Cool</title>
<path fill="none" stroke="#000000" d="M98.41,-176.83C85.58,-187.15 67.85,-201.42 53.47,-212.99"/>
<polygon fill="#000000" stroke="#000000" points="51.05,-210.44 45.45,-219.44 55.44,-215.9 51.05,-210.44"/>
</g>
<!-- Map&#45;&gt;Iterable -->
<g id="edge6" class="edge">
<title>Map&#45;&gt;Iterable</title>
<path fill="none" stroke="#6666ff" d="M115.6,-180.3C115.6,-188.02 115.6,-197.29 115.6,-205.89"/>
<polygon fill="#6666ff" stroke="#6666ff" points="112.1,-205.9 115.6,-215.9 119.1,-205.9 112.1,-205.9"/>
</g>
<!-- Map&#45;&gt;Associative -->
<g id="edge7" class="edge">
<title>Map&#45;&gt;Associative</title>
<path fill="none" stroke="#6666ff" d="M135.45,-175.19C152.16,-185.45 176.41,-200.34 196.11,-212.44"/>
<polygon fill="#6666ff" stroke="#6666ff" points="194.45,-215.52 204.8,-217.77 198.11,-209.56 194.45,-215.52"/>
</g>
<!-- Stash -->
<g id="node8" class="node">
<title>Stash</title>
<g id="a_node8"><a xlink:href="/type/Stash" xlink:title="Stash">
<ellipse fill="none" stroke="#000000" cx="115.6" cy="-18" rx="33.29" ry="18"/>
<text text-anchor="middle" x="115.6" y="-14.3" font-family="FreeSans" font-size="14.00" fill="#000000">Stash</text>
</a>
</g>
</g>
<!-- Stash&#45;&gt;Hash -->
<g id="edge5" class="edge">
<title>Stash&#45;&gt;Hash</title>
<path fill="none" stroke="#000000" d="M115.6,-36.3C115.6,-44.02 115.6,-53.29 115.6,-61.89"/>
<polygon fill="#000000" stroke="#000000" points="112.1,-61.9 115.6,-71.9 119.1,-61.9 112.1,-61.9"/>
</g>
</g>
</svg>
