<?xml version="1.0" encoding="UTF-8" standalone="no"?>
<!DOCTYPE svg PUBLIC "-//W3C//DTD SVG 1.1//EN"
 "http://www.w3.org/Graphics/SVG/1.1/DTD/svg11.dtd">
<!-- Generated by graphviz version 2.43.0 (0)
 -->
<!-- Title: perl6&#45;type&#45;graph Pages: 1 -->
<svg width="757pt" height="404pt"
 viewBox="0.00 0.00 756.64 404.00" xmlns="http://www.w3.org/2000/svg" xmlns:xlink="http://www.w3.org/1999/xlink">
<g id="graph0" class="graph" transform="scale(1 1) rotate(0) translate(4 400)">
<title>perl6&#45;type&#45;graph</title>
<polygon fill="white" stroke="transparent" points="-4,4 -4,-400 752.64,-400 752.64,4 -4,4"/>
<!-- Int -->
<g id="node1" class="node">
<title>Int</title>
<g id="a_node1"><a xlink:href="/type/Int" xlink:title="Int">
<ellipse fill="none" stroke="#000000" cx="441.59" cy="-90" rx="27" ry="18"/>
<text text-anchor="middle" x="441.59" y="-86.3" font-family="FreeSans" font-size="14.00" fill="#000000">Int</text>
</a>
</g>
</g>
<!-- Cool -->
<g id="node4" class="node">
<title>Cool</title>
<g id="a_node4"><a xlink:href="/type/Cool" xlink:title="Cool">
<ellipse fill="none" stroke="#000000" cx="578.59" cy="-234" rx="28.7" ry="18"/>
<text text-anchor="middle" x="578.59" y="-230.3" font-family="FreeSans" font-size="14.00" fill="#000000">Cool</text>
</a>
</g>
</g>
<!-- Int&#45;&gt;Cool -->
<g id="edge1" class="edge">
<title>Int&#45;&gt;Cool</title>
<path fill="none" stroke="#000000" d="M455.74,-105.66C479.84,-130.64 528.99,-181.58 557.27,-210.9"/>
<polygon fill="#000000" stroke="#000000" points="554.86,-213.44 564.32,-218.21 559.9,-208.58 554.86,-213.44"/>
</g>
<!-- Real -->
<g id="node6" class="node">
<title>Real</title>
<g id="a_node6"><a xlink:href="/type/Real" xlink:title="Real">
<ellipse fill="none" stroke="#6666ff" cx="441.59" cy="-162" rx="28.7" ry="18"/>
<text text-anchor="middle" x="441.59" y="-158.3" font-family="FreeSans" font-size="14.00" fill="#6666ff">Real</text>
</a>
</g>
</g>
<!-- Int&#45;&gt;Real -->
<g id="edge15" class="edge">
<title>Int&#45;&gt;Real</title>
<path fill="none" stroke="#6666ff" d="M441.59,-108.3C441.59,-116.02 441.59,-125.29 441.59,-133.89"/>
<polygon fill="#6666ff" stroke="#6666ff" points="438.09,-133.9 441.59,-143.9 445.09,-133.9 438.09,-133.9"/>
</g>
<!-- Mu -->
<g id="node2" class="node">
<title>Mu</title>
<g id="a_node2"><a xlink:href="/type/Mu" xlink:title="Mu">
<ellipse fill="none" stroke="#000000" cx="578.59" cy="-378" rx="27" ry="18"/>
<text text-anchor="middle" x="578.59" y="-374.3" font-family="FreeSans" font-size="14.00" fill="#000000">Mu</text>
</a>
</g>
</g>
<!-- Any -->
<g id="node3" class="node">
<title>Any</title>
<g id="a_node3"><a xlink:href="/type/Any" xlink:title="Any">
<ellipse fill="none" stroke="#000000" cx="578.59" cy="-306" rx="27" ry="18"/>
<text text-anchor="middle" x="578.59" y="-302.3" font-family="FreeSans" font-size="14.00" fill="#000000">Any</text>
</a>
</g>
</g>
<!-- Any&#45;&gt;Mu -->
<g id="edge2" class="edge">
<title>Any&#45;&gt;Mu</title>
<path fill="none" stroke="#000000" d="M578.59,-324.3C578.59,-332.02 578.59,-341.29 578.59,-349.89"/>
<polygon fill="#000000" stroke="#000000" points="575.09,-349.9 578.59,-359.9 582.09,-349.9 575.09,-349.9"/>
</g>
<!-- Cool&#45;&gt;Any -->
<g id="edge3" class="edge">
<title>Cool&#45;&gt;Any</title>
<path fill="none" stroke="#000000" d="M578.59,-252.3C578.59,-260.02 578.59,-269.29 578.59,-277.89"/>
<polygon fill="#000000" stroke="#000000" points="575.09,-277.9 578.59,-287.9 582.09,-277.9 575.09,-277.9"/>
</g>
<!-- Numeric -->
<g id="node5" class="node">
<title>Numeric</title>
<g id="a_node5"><a xlink:href="/type/Numeric" xlink:title="Numeric">
<ellipse fill="none" stroke="#6666ff" cx="441.59" cy="-234" rx="44.39" ry="18"/>
<text text-anchor="middle" x="441.59" y="-230.3" font-family="FreeSans" font-size="14.00" fill="#6666ff">Numeric</text>
</a>
</g>
</g>
<!-- Real&#45;&gt;Numeric -->
<g id="edge16" class="edge">
<title>Real&#45;&gt;Numeric</title>
<path fill="none" stroke="#6666ff" d="M441.59,-180.3C441.59,-188.02 441.59,-197.29 441.59,-205.89"/>
<polygon fill="#6666ff" stroke="#6666ff" points="438.09,-205.9 441.59,-215.9 445.09,-205.9 438.09,-205.9"/>
</g>
<!-- PromiseStatus -->
<g id="node7" class="node">
<title>PromiseStatus</title>
<g id="a_node7"><a xlink:href="/type/PromiseStatus" xlink:title="PromiseStatus">
<ellipse fill="none" stroke="#33bb33" cx="67.59" cy="-18" rx="67.69" ry="18"/>
<text text-anchor="middle" x="67.59" y="-14.3" font-family="FreeSans" font-size="14.00" fill="#33bb33">PromiseStatus</text>
</a>
</g>
</g>
<!-- PromiseStatus&#45;&gt;Int -->
<g id="edge4" class="edge">
<title>PromiseStatus&#45;&gt;Int</title>
<path fill="none" stroke="#000000" d="M118.09,-30.15C132.61,-33.35 144.59,-36 144.59,-36 144.59,-36 326.77,-68.51 405.77,-82.61"/>
<polygon fill="#000000" stroke="#000000" points="405.3,-86.08 415.76,-84.39 406.53,-79.19 405.3,-86.08"/>
</g>
<!-- int -->
<g id="node8" class="node">
<title>int</title>
<g id="a_node8"><a xlink:href="/type/int" xlink:title="int">
<ellipse fill="none" stroke="#000000" cx="180.59" cy="-18" rx="27" ry="18"/>
<text text-anchor="middle" x="180.59" y="-14.3" font-family="FreeSans" font-size="14.00" fill="#000000">int</text>
</a>
</g>
</g>
<!-- int&#45;&gt;Int -->
<g id="edge5" class="edge">
<title>int&#45;&gt;Int</title>
<path fill="none" stroke="#000000" d="M201.95,-29.09C209.7,-32.75 216.59,-36 216.59,-36 216.59,-36 342.92,-65.76 406.26,-80.68"/>
<polygon fill="#000000" stroke="#000000" points="405.68,-84.14 416.22,-83.02 407.29,-77.32 405.68,-84.14"/>
</g>
<!-- Endian -->
<g id="node9" class="node">
<title>Endian</title>
<g id="a_node9"><a xlink:href="/type/Endian" xlink:title="Endian">
<ellipse fill="none" stroke="#33bb33" cx="263.59" cy="-18" rx="38.19" ry="18"/>
<text text-anchor="middle" x="263.59" y="-14.3" font-family="FreeSans" font-size="14.00" fill="#33bb33">Endian</text>
</a>
</g>
</g>
<!-- Endian&#45;&gt;Int -->
<g id="edge6" class="edge">
<title>Endian&#45;&gt;Int</title>
<path fill="none" stroke="#000000" d="M292.19,-30.25C324.3,-42.87 376.28,-63.31 409.68,-76.45"/>
<polygon fill="#000000" stroke="#000000" points="408.41,-79.71 419,-80.11 410.97,-73.2 408.41,-79.71"/>
</g>
<!-- Signal -->
<g id="node10" class="node">
<title>Signal</title>
<g id="a_node10"><a xlink:href="/type/Signal" xlink:title="Signal">
<ellipse fill="none" stroke="#33bb33" cx="354.59" cy="-18" rx="35.19" ry="18"/>
<text text-anchor="middle" x="354.59" y="-14.3" font-family="FreeSans" font-size="14.00" fill="#33bb33">Signal</text>
</a>
</g>
</g>
<!-- Signal&#45;&gt;Int -->
<g id="edge7" class="edge">
<title>Signal&#45;&gt;Int</title>
<path fill="none" stroke="#000000" d="M372.62,-33.5C385.52,-43.88 403.03,-57.97 417.18,-69.36"/>
<polygon fill="#000000" stroke="#000000" points="415.08,-72.16 425.06,-75.7 419.46,-66.7 415.08,-72.16"/>
</g>
<!-- Order -->
<g id="node11" class="node">
<title>Order</title>
<g id="a_node11"><a xlink:href="/type/Order" xlink:title="Order">
<ellipse fill="none" stroke="#33bb33" cx="441.59" cy="-18" rx="33.6" ry="18"/>
<text text-anchor="middle" x="441.59" y="-14.3" font-family="FreeSans" font-size="14.00" fill="#33bb33">Order</text>
</a>
</g>
</g>
<!-- Order&#45;&gt;Int -->
<g id="edge8" class="edge">
<title>Order&#45;&gt;Int</title>
<path fill="none" stroke="#000000" d="M441.59,-36.3C441.59,-44.02 441.59,-53.29 441.59,-61.89"/>
<polygon fill="#000000" stroke="#000000" points="438.09,-61.9 441.59,-71.9 445.09,-61.9 438.09,-61.9"/>
</g>
<!-- atomicint -->
<g id="node12" class="node">
<title>atomicint</title>
<g id="a_node12"><a xlink:href="/type/atomicint" xlink:title="atomicint">
<ellipse fill="none" stroke="#000000" cx="539.59" cy="-18" rx="46.29" ry="18"/>
<text text-anchor="middle" x="539.59" y="-14.3" font-family="FreeSans" font-size="14.00" fill="#000000">atomicint</text>
</a>
</g>
</g>
<!-- atomicint&#45;&gt;Int -->
<g id="edge9" class="edge">
<title>atomicint&#45;&gt;Int</title>
<path fill="none" stroke="#000000" d="M518.33,-34.19C503.51,-44.77 483.64,-58.96 467.84,-70.25"/>
<polygon fill="#000000" stroke="#000000" points="465.64,-67.53 459.53,-76.19 469.7,-73.22 465.64,-67.53"/>
</g>
<!-- Bool -->
<g id="node13" class="node">
<title>Bool</title>
<g id="a_node13"><a xlink:href="/type/Bool" xlink:title="Bool">
<ellipse fill="none" stroke="#33bb33" cx="632.59" cy="-18" rx="28.7" ry="18"/>
<text text-anchor="middle" x="632.59" y="-14.3" font-family="FreeSans" font-size="14.00" fill="#33bb33">Bool</text>
</a>
</g>
</g>
<!-- Bool&#45;&gt;Int -->
<g id="edge10" class="edge">
<title>Bool&#45;&gt;Int</title>
<path fill="none" stroke="#000000" d="M610.05,-29.09C601.87,-32.75 594.59,-36 594.59,-36 594.59,-36 519.82,-61.9 474.82,-77.49"/>
<polygon fill="#000000" stroke="#000000" points="473.47,-74.25 465.16,-80.83 475.76,-80.87 473.47,-74.25"/>
</g>
<!-- Stringy -->
<g id="node14" class="node">
<title>Stringy</title>
<g id="a_node14"><a xlink:href="/type/Stringy" xlink:title="Stringy">
<ellipse fill="none" stroke="#6666ff" cx="686.59" cy="-234" rx="38.19" ry="18"/>
<text text-anchor="middle" x="686.59" y="-230.3" font-family="FreeSans" font-size="14.00" fill="#6666ff">Stringy</text>
</a>
</g>
</g>
<!-- Str -->
<g id="node15" class="node">
<title>Str</title>
<g id="a_node15"><a xlink:href="/type/Str" xlink:title="Str">
<ellipse fill="none" stroke="#000000" cx="686.59" cy="-162" rx="27" ry="18"/>
<text text-anchor="middle" x="686.59" y="-158.3" font-family="FreeSans" font-size="14.00" fill="#000000">Str</text>
</a>
</g>
</g>
<!-- Str&#45;&gt;Cool -->
<g id="edge11" class="edge">
<title>Str&#45;&gt;Cool</title>
<path fill="none" stroke="#000000" d="M667.78,-175.19C650.8,-186.2 625.6,-202.53 606.31,-215.03"/>
<polygon fill="#000000" stroke="#000000" points="604.41,-212.1 597.92,-220.48 608.21,-217.97 604.41,-212.1"/>
</g>
<!-- Str&#45;&gt;Stringy -->
<g id="edge17" class="edge">
<title>Str&#45;&gt;Stringy</title>
<path fill="none" stroke="#6666ff" d="M686.59,-180.3C686.59,-188.02 686.59,-197.29 686.59,-205.89"/>
<polygon fill="#6666ff" stroke="#6666ff" points="683.09,-205.9 686.59,-215.9 690.09,-205.9 683.09,-205.9"/>
</g>
<!-- Allomorph -->
<g id="node16" class="node">
<title>Allomorph</title>
<g id="a_node16"><a xlink:href="/type/Allomorph" xlink:title="Allomorph">
<ellipse fill="none" stroke="#000000" cx="698.59" cy="-90" rx="50.09" ry="18"/>
<text text-anchor="middle" x="698.59" y="-86.3" font-family="FreeSans" font-size="14.00" fill="#000000">Allomorph</text>
</a>
</g>
</g>
<!-- Allomorph&#45;&gt;Str -->
<g id="edge12" class="edge">
<title>Allomorph&#45;&gt;Str</title>
<path fill="none" stroke="#000000" d="M695.63,-108.3C694.31,-116.02 692.72,-125.29 691.24,-133.89"/>
<polygon fill="#000000" stroke="#000000" points="687.77,-133.45 689.53,-143.9 694.67,-134.63 687.77,-133.45"/>
</g>
<!-- IntStr -->
<g id="node17" class="node">
<title>IntStr</title>
<g id="a_node17"><a xlink:href="/type/IntStr" xlink:title="IntStr">
<ellipse fill="none" stroke="#000000" cx="710.59" cy="-18" rx="31.7" ry="18"/>
<text text-anchor="middle" x="710.59" y="-14.3" font-family="FreeSans" font-size="14.00" fill="#000000">IntStr</text>
</a>
</g>
</g>
<!-- IntStr&#45;&gt;Int -->
<g id="edge14" class="edge">
<title>IntStr&#45;&gt;Int</title>
<path fill="none" stroke="#000000" d="M685.94,-29.48C677.71,-32.97 670.59,-36 670.59,-36 670.59,-36 541.39,-65.9 477.08,-80.79"/>
<polygon fill="#000000" stroke="#000000" points="475.93,-77.46 466.98,-83.13 477.51,-84.28 475.93,-77.46"/>
</g>
<!-- IntStr&#45;&gt;Allomorph -->
<g id="edge13" class="edge">
<title>IntStr&#45;&gt;Allomorph</title>
<path fill="none" stroke="#000000" d="M707.69,-35.95C706.37,-43.65 704.77,-52.97 703.29,-61.64"/>
<polygon fill="#000000" stroke="#000000" points="699.8,-61.28 701.56,-71.72 706.69,-62.46 699.8,-61.28"/>
</g>
</g>
</svg>
