<?xml version="1.0" encoding="UTF-8" standalone="no"?>
<!DOCTYPE svg PUBLIC "-//W3C//DTD SVG 1.1//EN"
 "http://www.w3.org/Graphics/SVG/1.1/DTD/svg11.dtd">
<!-- Generated by graphviz version 2.43.0 (0)
 -->
<!-- Title: perl6&#45;type&#45;graph Pages: 1 -->
<svg width="632pt" height="332pt"
 viewBox="0.00 0.00 631.79 332.00" xmlns="http://www.w3.org/2000/svg" xmlns:xlink="http://www.w3.org/1999/xlink">
<g id="graph0" class="graph" transform="scale(1 1) rotate(0) translate(4 328)">
<title>perl6&#45;type&#45;graph</title>
<polygon fill="white" stroke="transparent" points="-4,4 -4,-328 627.79,-328 627.79,4 -4,4"/>
<!-- IO -->
<g id="node1" class="node">
<title>IO</title>
<g id="a_node1"><a xlink:href="/type/IO" xlink:title="IO">
<ellipse fill="none" stroke="#6666ff" cx="239.44" cy="-162" rx="27" ry="18"/>
<text text-anchor="middle" x="239.44" y="-158.3" font-family="FreeSans" font-size="14.00" fill="#6666ff">IO</text>
</a>
</g>
</g>
<!-- Mu -->
<g id="node2" class="node">
<title>Mu</title>
<g id="a_node2"><a xlink:href="/type/Mu" xlink:title="Mu">
<ellipse fill="none" stroke="#000000" cx="248.44" cy="-306" rx="27" ry="18"/>
<text text-anchor="middle" x="248.44" y="-302.3" font-family="FreeSans" font-size="14.00" fill="#000000">Mu</text>
</a>
</g>
</g>
<!-- Any -->
<g id="node3" class="node">
<title>Any</title>
<g id="a_node3"><a xlink:href="/type/Any" xlink:title="Any">
<ellipse fill="none" stroke="#000000" cx="248.44" cy="-234" rx="27" ry="18"/>
<text text-anchor="middle" x="248.44" y="-230.3" font-family="FreeSans" font-size="14.00" fill="#000000">Any</text>
</a>
</g>
</g>
<!-- Any&#45;&gt;Mu -->
<g id="edge1" class="edge">
<title>Any&#45;&gt;Mu</title>
<path fill="none" stroke="#000000" d="M248.44,-252.3C248.44,-260.02 248.44,-269.29 248.44,-277.89"/>
<polygon fill="#000000" stroke="#000000" points="244.94,-277.9 248.44,-287.9 251.94,-277.9 244.94,-277.9"/>
</g>
<!-- IO::Special -->
<g id="node4" class="node">
<title>IO::Special</title>
<g id="a_node4"><a xlink:href="/type/IO::Special" xlink:title="IO::Special">
<ellipse fill="none" stroke="#000000" cx="191.44" cy="-90" rx="53.89" ry="18"/>
<text text-anchor="middle" x="191.44" y="-86.3" font-family="FreeSans" font-size="14.00" fill="#000000">IO::Special</text>
</a>
</g>
</g>
<!-- IO::Special&#45;&gt;IO -->
<g id="edge9" class="edge">
<title>IO::Special&#45;&gt;IO</title>
<path fill="none" stroke="#6666ff" d="M203.06,-107.95C209.01,-116.62 216.36,-127.33 222.89,-136.85"/>
<polygon fill="#6666ff" stroke="#6666ff" points="220.05,-138.9 228.59,-145.17 225.82,-134.94 220.05,-138.9"/>
</g>
<!-- IO::Special&#45;&gt;Any -->
<g id="edge2" class="edge">
<title>IO::Special&#45;&gt;Any</title>
<path fill="none" stroke="#000000" d="M193.76,-108.16C197.24,-134.02 203.44,-180 203.44,-180 203.44,-180 216.91,-195.86 229.11,-210.23"/>
<polygon fill="#000000" stroke="#000000" points="226.53,-212.6 235.67,-217.95 231.86,-208.07 226.53,-212.6"/>
</g>
<!-- Cool -->
<g id="node5" class="node">
<title>Cool</title>
<g id="a_node5"><a xlink:href="/type/Cool" xlink:title="Cool">
<ellipse fill="none" stroke="#000000" cx="313.44" cy="-162" rx="28.7" ry="18"/>
<text text-anchor="middle" x="313.44" y="-158.3" font-family="FreeSans" font-size="14.00" fill="#000000">Cool</text>
</a>
</g>
</g>
<!-- Cool&#45;&gt;Any -->
<g id="edge3" class="edge">
<title>Cool&#45;&gt;Any</title>
<path fill="none" stroke="#000000" d="M299.66,-177.85C290.78,-187.4 279.08,-200.01 269.1,-210.75"/>
<polygon fill="#000000" stroke="#000000" points="266.45,-208.47 262.21,-218.18 271.58,-213.23 266.45,-208.47"/>
</g>
<!-- IO::Path -->
<g id="node6" class="node">
<title>IO::Path</title>
<g id="a_node6"><a xlink:href="/type/IO::Path" xlink:title="IO::Path">
<ellipse fill="none" stroke="#000000" cx="309.44" cy="-90" rx="43.59" ry="18"/>
<text text-anchor="middle" x="309.44" y="-86.3" font-family="FreeSans" font-size="14.00" fill="#000000">IO::Path</text>
</a>
</g>
</g>
<!-- IO::Path&#45;&gt;IO -->
<g id="edge10" class="edge">
<title>IO::Path&#45;&gt;IO</title>
<path fill="none" stroke="#6666ff" d="M293.56,-106.88C283.95,-116.49 271.57,-128.87 261.08,-139.37"/>
<polygon fill="#6666ff" stroke="#6666ff" points="258.43,-137.06 253.84,-146.61 263.38,-142.01 258.43,-137.06"/>
</g>
<!-- IO::Path&#45;&gt;Cool -->
<g id="edge4" class="edge">
<title>IO::Path&#45;&gt;Cool</title>
<path fill="none" stroke="#000000" d="M310.43,-108.3C310.87,-116.02 311.4,-125.29 311.89,-133.89"/>
<polygon fill="#000000" stroke="#000000" points="308.4,-134.11 312.47,-143.9 315.39,-133.71 308.4,-134.11"/>
</g>
<!-- IO::Path::Win32 -->
<g id="node7" class="node">
<title>IO::Path::Win32</title>
<g id="a_node7"><a xlink:href="/type/IO::Path::Win32" xlink:title="IO::Path::Win32">
<ellipse fill="none" stroke="#000000" cx="73.44" cy="-18" rx="73.39" ry="18"/>
<text text-anchor="middle" x="73.44" y="-14.3" font-family="FreeSans" font-size="14.00" fill="#000000">IO::Path::Win32</text>
</a>
</g>
</g>
<!-- IO::Path::Win32&#45;&gt;IO::Path -->
<g id="edge5" class="edge">
<title>IO::Path::Win32&#45;&gt;IO::Path</title>
<path fill="none" stroke="#000000" d="M118.65,-32.24C172.26,-47.94 254.44,-72 254.44,-72 254.44,-72 259.07,-73.43 265.64,-75.46"/>
<polygon fill="#000000" stroke="#000000" points="264.96,-78.91 275.55,-78.52 267.03,-72.23 264.96,-78.91"/>
</g>
<!-- IO::Path::QNX -->
<g id="node8" class="node">
<title>IO::Path::QNX</title>
<g id="a_node8"><a xlink:href="/type/IO::Path::QNX" xlink:title="IO::Path::QNX">
<ellipse fill="none" stroke="#000000" cx="233.44" cy="-18" rx="68.49" ry="18"/>
<text text-anchor="middle" x="233.44" y="-14.3" font-family="FreeSans" font-size="14.00" fill="#000000">IO::Path::QNX</text>
</a>
</g>
</g>
<!-- IO::Path::QNX&#45;&gt;IO::Path -->
<g id="edge6" class="edge">
<title>IO::Path::QNX&#45;&gt;IO::Path</title>
<path fill="none" stroke="#000000" d="M251.45,-35.59C261.42,-44.76 273.94,-56.3 284.79,-66.3"/>
<polygon fill="#000000" stroke="#000000" points="282.62,-69.05 292.34,-73.25 287.36,-63.9 282.62,-69.05"/>
</g>
<!-- IO::Path::Unix -->
<g id="node9" class="node">
<title>IO::Path::Unix</title>
<g id="a_node9"><a xlink:href="/type/IO::Path::Unix" xlink:title="IO::Path::Unix">
<ellipse fill="none" stroke="#000000" cx="385.44" cy="-18" rx="65.79" ry="18"/>
<text text-anchor="middle" x="385.44" y="-14.3" font-family="FreeSans" font-size="14.00" fill="#000000">IO::Path::Unix</text>
</a>
</g>
</g>
<!-- IO::Path::Unix&#45;&gt;IO::Path -->
<g id="edge7" class="edge">
<title>IO::Path::Unix&#45;&gt;IO::Path</title>
<path fill="none" stroke="#000000" d="M367.43,-35.59C357.47,-44.76 344.95,-56.3 334.09,-66.3"/>
<polygon fill="#000000" stroke="#000000" points="331.53,-63.9 326.54,-73.25 336.27,-69.05 331.53,-63.9"/>
</g>
<!-- IO::Path::Cygwin -->
<g id="node10" class="node">
<title>IO::Path::Cygwin</title>
<g id="a_node10"><a xlink:href="/type/IO::Path::Cygwin" xlink:title="IO::Path::Cygwin">
<ellipse fill="none" stroke="#000000" cx="546.44" cy="-18" rx="77.19" ry="18"/>
<text text-anchor="middle" x="546.44" y="-14.3" font-family="FreeSans" font-size="14.00" fill="#000000">IO::Path::Cygwin</text>
</a>
</g>
</g>
<!-- IO::Path::Cygwin&#45;&gt;IO::Path -->
<g id="edge8" class="edge">
<title>IO::Path::Cygwin&#45;&gt;IO::Path</title>
<path fill="none" stroke="#000000" d="M500.47,-32.58C457.97,-45.13 395.26,-63.65 353.41,-76.01"/>
<polygon fill="#000000" stroke="#000000" points="352.37,-72.67 343.77,-78.86 354.36,-79.38 352.37,-72.67"/>
</g>
</g>
</svg>
