<?xml version="1.0" encoding="UTF-8" standalone="no"?>
<!DOCTYPE svg PUBLIC "-//W3C//DTD SVG 1.1//EN"
 "http://www.w3.org/Graphics/SVG/1.1/DTD/svg11.dtd">
<!-- Generated by graphviz version 2.43.0 (0)
 -->
<!-- Title: perl6&#45;type&#45;graph Pages: 1 -->
<svg width="142pt" height="332pt"
 viewBox="0.00 0.00 141.89 332.00" xmlns="http://www.w3.org/2000/svg" xmlns:xlink="http://www.w3.org/1999/xlink">
<g id="graph0" class="graph" transform="scale(1 1) rotate(0) translate(4 328)">
<title>perl6&#45;type&#45;graph</title>
<polygon fill="white" stroke="transparent" points="-4,4 -4,-328 137.89,-328 137.89,4 -4,4"/>
<!-- IO::ArgFiles -->
<g id="node1" class="node">
<title>IO::ArgFiles</title>
<g id="a_node1"><a xlink:href="/type/IO::ArgFiles" xlink:title="IO::ArgFiles">
<ellipse fill="none" stroke="#000000" cx="66.94" cy="-18" rx="57.69" ry="18"/>
<text text-anchor="middle" x="66.94" y="-14.3" font-family="FreeSans" font-size="14.00" fill="#000000">IO::ArgFiles</text>
</a>
</g>
</g>
<!-- IO::CatHandle -->
<g id="node5" class="node">
<title>IO::CatHandle</title>
<g id="a_node5"><a xlink:href="/type/IO::CatHandle" xlink:title="IO::CatHandle">
<ellipse fill="none" stroke="#000000" cx="66.94" cy="-90" rx="66.89" ry="18"/>
<text text-anchor="middle" x="66.94" y="-86.3" font-family="FreeSans" font-size="14.00" fill="#000000">IO::CatHandle</text>
</a>
</g>
</g>
<!-- IO::ArgFiles&#45;&gt;IO::CatHandle -->
<g id="edge1" class="edge">
<title>IO::ArgFiles&#45;&gt;IO::CatHandle</title>
<path fill="none" stroke="#000000" d="M66.94,-36.3C66.94,-44.02 66.94,-53.29 66.94,-61.89"/>
<polygon fill="#000000" stroke="#000000" points="63.44,-61.9 66.94,-71.9 70.44,-61.9 63.44,-61.9"/>
</g>
<!-- Mu -->
<g id="node2" class="node">
<title>Mu</title>
<g id="a_node2"><a xlink:href="/type/Mu" xlink:title="Mu">
<ellipse fill="none" stroke="#000000" cx="66.94" cy="-306" rx="27" ry="18"/>
<text text-anchor="middle" x="66.94" y="-302.3" font-family="FreeSans" font-size="14.00" fill="#000000">Mu</text>
</a>
</g>
</g>
<!-- Any -->
<g id="node3" class="node">
<title>Any</title>
<g id="a_node3"><a xlink:href="/type/Any" xlink:title="Any">
<ellipse fill="none" stroke="#000000" cx="66.94" cy="-234" rx="27" ry="18"/>
<text text-anchor="middle" x="66.94" y="-230.3" font-family="FreeSans" font-size="14.00" fill="#000000">Any</text>
</a>
</g>
</g>
<!-- Any&#45;&gt;Mu -->
<g id="edge2" class="edge">
<title>Any&#45;&gt;Mu</title>
<path fill="none" stroke="#000000" d="M66.94,-252.3C66.94,-260.02 66.94,-269.29 66.94,-277.89"/>
<polygon fill="#000000" stroke="#000000" points="63.44,-277.9 66.94,-287.9 70.44,-277.9 63.44,-277.9"/>
</g>
<!-- IO::Handle -->
<g id="node4" class="node">
<title>IO::Handle</title>
<g id="a_node4"><a xlink:href="/type/IO::Handle" xlink:title="IO::Handle">
<ellipse fill="none" stroke="#000000" cx="66.94" cy="-162" rx="53.09" ry="18"/>
<text text-anchor="middle" x="66.94" y="-158.3" font-family="FreeSans" font-size="14.00" fill="#000000">IO::Handle</text>
</a>
</g>
</g>
<!-- IO::Handle&#45;&gt;Any -->
<g id="edge3" class="edge">
<title>IO::Handle&#45;&gt;Any</title>
<path fill="none" stroke="#000000" d="M66.94,-180.3C66.94,-188.02 66.94,-197.29 66.94,-205.89"/>
<polygon fill="#000000" stroke="#000000" points="63.44,-205.9 66.94,-215.9 70.44,-205.9 63.44,-205.9"/>
</g>
<!-- IO::CatHandle&#45;&gt;IO::Handle -->
<g id="edge4" class="edge">
<title>IO::CatHandle&#45;&gt;IO::Handle</title>
<path fill="none" stroke="#000000" d="M66.94,-108.3C66.94,-116.02 66.94,-125.29 66.94,-133.89"/>
<polygon fill="#000000" stroke="#000000" points="63.44,-133.9 66.94,-143.9 70.44,-133.9 63.44,-133.9"/>
</g>
</g>
</svg>
