<?xml version="1.0" encoding="UTF-8" standalone="no"?>
<!DOCTYPE svg PUBLIC "-//W3C//DTD SVG 1.1//EN"
 "http://www.w3.org/Graphics/SVG/1.1/DTD/svg11.dtd">
<!-- Generated by graphviz version 2.43.0 (0)
 -->
<!-- Title: perl6&#45;type&#45;graph Pages: 1 -->
<svg width="246pt" height="332pt"
 viewBox="0.00 0.00 245.84 332.00" xmlns="http://www.w3.org/2000/svg" xmlns:xlink="http://www.w3.org/1999/xlink">
<g id="graph0" class="graph" transform="scale(1 1) rotate(0) translate(4 328)">
<title>perl6&#45;type&#45;graph</title>
<polygon fill="white" stroke="transparent" points="-4,4 -4,-328 241.84,-328 241.84,4 -4,4"/>
<!-- IO::Handle -->
<g id="node1" class="node">
<title>IO::Handle</title>
<g id="a_node1"><a xlink:href="/type/IO::Handle" xlink:title="IO::Handle">
<ellipse fill="none" stroke="#000000" cx="106.9" cy="-162" rx="53.09" ry="18"/>
<text text-anchor="middle" x="106.9" y="-158.3" font-family="FreeSans" font-size="14.00" fill="#000000">IO::Handle</text>
</a>
</g>
</g>
<!-- Any -->
<g id="node3" class="node">
<title>Any</title>
<g id="a_node3"><a xlink:href="/type/Any" xlink:title="Any">
<ellipse fill="none" stroke="#000000" cx="106.9" cy="-234" rx="27" ry="18"/>
<text text-anchor="middle" x="106.9" y="-230.3" font-family="FreeSans" font-size="14.00" fill="#000000">Any</text>
</a>
</g>
</g>
<!-- IO::Handle&#45;&gt;Any -->
<g id="edge1" class="edge">
<title>IO::Handle&#45;&gt;Any</title>
<path fill="none" stroke="#000000" d="M106.9,-180.3C106.9,-188.02 106.9,-197.29 106.9,-205.89"/>
<polygon fill="#000000" stroke="#000000" points="103.4,-205.9 106.9,-215.9 110.4,-205.9 103.4,-205.9"/>
</g>
<!-- Mu -->
<g id="node2" class="node">
<title>Mu</title>
<g id="a_node2"><a xlink:href="/type/Mu" xlink:title="Mu">
<ellipse fill="none" stroke="#000000" cx="106.9" cy="-306" rx="27" ry="18"/>
<text text-anchor="middle" x="106.9" y="-302.3" font-family="FreeSans" font-size="14.00" fill="#000000">Mu</text>
</a>
</g>
</g>
<!-- Any&#45;&gt;Mu -->
<g id="edge2" class="edge">
<title>Any&#45;&gt;Mu</title>
<path fill="none" stroke="#000000" d="M106.9,-252.3C106.9,-260.02 106.9,-269.29 106.9,-277.89"/>
<polygon fill="#000000" stroke="#000000" points="103.4,-277.9 106.9,-287.9 110.4,-277.9 103.4,-277.9"/>
</g>
<!-- IO::Pipe -->
<g id="node4" class="node">
<title>IO::Pipe</title>
<g id="a_node4"><a xlink:href="/type/IO::Pipe" xlink:title="IO::Pipe">
<ellipse fill="none" stroke="#000000" cx="42.9" cy="-90" rx="42.79" ry="18"/>
<text text-anchor="middle" x="42.9" y="-86.3" font-family="FreeSans" font-size="14.00" fill="#000000">IO::Pipe</text>
</a>
</g>
</g>
<!-- IO::Pipe&#45;&gt;IO::Handle -->
<g id="edge3" class="edge">
<title>IO::Pipe&#45;&gt;IO::Handle</title>
<path fill="none" stroke="#000000" d="M57.74,-107.24C65.78,-116.03 75.88,-127.07 84.82,-136.86"/>
<polygon fill="#000000" stroke="#000000" points="82.36,-139.35 91.69,-144.37 87.52,-134.62 82.36,-139.35"/>
</g>
<!-- IO::CatHandle -->
<g id="node5" class="node">
<title>IO::CatHandle</title>
<g id="a_node5"><a xlink:href="/type/IO::CatHandle" xlink:title="IO::CatHandle">
<ellipse fill="none" stroke="#000000" cx="170.9" cy="-90" rx="66.89" ry="18"/>
<text text-anchor="middle" x="170.9" y="-86.3" font-family="FreeSans" font-size="14.00" fill="#000000">IO::CatHandle</text>
</a>
</g>
</g>
<!-- IO::CatHandle&#45;&gt;IO::Handle -->
<g id="edge4" class="edge">
<title>IO::CatHandle&#45;&gt;IO::Handle</title>
<path fill="none" stroke="#000000" d="M155.73,-107.59C147.68,-116.39 137.64,-127.37 128.76,-137.08"/>
<polygon fill="#000000" stroke="#000000" points="126.12,-134.79 121.95,-144.53 131.29,-139.51 126.12,-134.79"/>
</g>
<!-- IO::ArgFiles -->
<g id="node6" class="node">
<title>IO::ArgFiles</title>
<g id="a_node6"><a xlink:href="/type/IO::ArgFiles" xlink:title="IO::ArgFiles">
<ellipse fill="none" stroke="#000000" cx="170.9" cy="-18" rx="57.69" ry="18"/>
<text text-anchor="middle" x="170.9" y="-14.3" font-family="FreeSans" font-size="14.00" fill="#000000">IO::ArgFiles</text>
</a>
</g>
</g>
<!-- IO::ArgFiles&#45;&gt;IO::CatHandle -->
<g id="edge5" class="edge">
<title>IO::ArgFiles&#45;&gt;IO::CatHandle</title>
<path fill="none" stroke="#000000" d="M170.9,-36.3C170.9,-44.02 170.9,-53.29 170.9,-61.89"/>
<polygon fill="#000000" stroke="#000000" points="167.4,-61.9 170.9,-71.9 174.4,-61.9 167.4,-61.9"/>
</g>
</g>
</svg>
