<?xml version="1.0" encoding="UTF-8" standalone="no"?>
<!DOCTYPE svg PUBLIC "-//W3C//DTD SVG 1.1//EN"
 "http://www.w3.org/Graphics/SVG/1.1/DTD/svg11.dtd">
<!-- Generated by graphviz version 2.43.0 (0)
 -->
<!-- Title: perl6&#45;type&#45;graph Pages: 1 -->
<svg width="405pt" height="188pt"
 viewBox="0.00 0.00 405.30 188.00" xmlns="http://www.w3.org/2000/svg" xmlns:xlink="http://www.w3.org/1999/xlink">
<g id="graph0" class="graph" transform="scale(1 1) rotate(0) translate(4 184)">
<title>perl6&#45;type&#45;graph</title>
<polygon fill="white" stroke="transparent" points="-4,4 -4,-184 401.3,-184 401.3,4 -4,4"/>
<!-- IO::Path::Parts -->
<g id="node1" class="node">
<title>IO::Path::Parts</title>
<g id="a_node1"><a xlink:href="/type/IO::Path::Parts" xlink:title="IO::Path::Parts">
<ellipse fill="none" stroke="#000000" cx="182" cy="-18" rx="68.79" ry="18"/>
<text text-anchor="middle" x="182" y="-14.3" font-family="FreeSans" font-size="14.00" fill="#000000">IO::Path::Parts</text>
</a>
</g>
</g>
<!-- Any -->
<g id="node3" class="node">
<title>Any</title>
<g id="a_node3"><a xlink:href="/type/Any" xlink:title="Any">
<ellipse fill="none" stroke="#000000" cx="27" cy="-90" rx="27" ry="18"/>
<text text-anchor="middle" x="27" y="-86.3" font-family="FreeSans" font-size="14.00" fill="#000000">Any</text>
</a>
</g>
</g>
<!-- IO::Path::Parts&#45;&gt;Any -->
<g id="edge1" class="edge">
<title>IO::Path::Parts&#45;&gt;Any</title>
<path fill="none" stroke="#000000" d="M148.54,-33.9C113.34,-49.58 63,-72 63,-72 63,-72 60.82,-73.03 57.53,-74.58"/>
<polygon fill="#000000" stroke="#000000" points="55.91,-71.48 48.36,-78.91 58.89,-77.81 55.91,-71.48"/>
</g>
<!-- Positional -->
<g id="node4" class="node">
<title>Positional</title>
<g id="a_node4"><a xlink:href="/type/Positional" xlink:title="Positional">
<ellipse fill="none" stroke="#6666ff" cx="121" cy="-90" rx="48.99" ry="18"/>
<text text-anchor="middle" x="121" y="-86.3" font-family="FreeSans" font-size="14.00" fill="#6666ff">Positional</text>
</a>
</g>
</g>
<!-- IO::Path::Parts&#45;&gt;Positional -->
<g id="edge3" class="edge">
<title>IO::Path::Parts&#45;&gt;Positional</title>
<path fill="none" stroke="#6666ff" d="M167.23,-35.95C159.63,-44.67 150.23,-55.46 141.9,-65.02"/>
<polygon fill="#6666ff" stroke="#6666ff" points="139.14,-62.85 135.21,-72.69 144.42,-67.45 139.14,-62.85"/>
</g>
<!-- Associative -->
<g id="node5" class="node">
<title>Associative</title>
<g id="a_node5"><a xlink:href="/type/Associative" xlink:title="Associative">
<ellipse fill="none" stroke="#6666ff" cx="243" cy="-90" rx="55.49" ry="18"/>
<text text-anchor="middle" x="243" y="-86.3" font-family="FreeSans" font-size="14.00" fill="#6666ff">Associative</text>
</a>
</g>
</g>
<!-- IO::Path::Parts&#45;&gt;Associative -->
<g id="edge4" class="edge">
<title>IO::Path::Parts&#45;&gt;Associative</title>
<path fill="none" stroke="#6666ff" d="M196.77,-35.95C204.26,-44.54 213.5,-55.14 221.74,-64.6"/>
<polygon fill="#6666ff" stroke="#6666ff" points="219.16,-66.97 228.37,-72.21 224.44,-62.37 219.16,-66.97"/>
</g>
<!-- Iterable -->
<g id="node6" class="node">
<title>Iterable</title>
<g id="a_node6"><a xlink:href="/type/Iterable" xlink:title="Iterable">
<ellipse fill="none" stroke="#6666ff" cx="357" cy="-90" rx="40.09" ry="18"/>
<text text-anchor="middle" x="357" y="-86.3" font-family="FreeSans" font-size="14.00" fill="#6666ff">Iterable</text>
</a>
</g>
</g>
<!-- IO::Path::Parts&#45;&gt;Iterable -->
<g id="edge5" class="edge">
<title>IO::Path::Parts&#45;&gt;Iterable</title>
<path fill="none" stroke="#6666ff" d="M218.26,-33.5C247.49,-45.2 288.51,-61.6 318.36,-73.54"/>
<polygon fill="#6666ff" stroke="#6666ff" points="317.43,-76.94 328.02,-77.41 320.03,-70.44 317.43,-76.94"/>
</g>
<!-- Mu -->
<g id="node2" class="node">
<title>Mu</title>
<g id="a_node2"><a xlink:href="/type/Mu" xlink:title="Mu">
<ellipse fill="none" stroke="#000000" cx="27" cy="-162" rx="27" ry="18"/>
<text text-anchor="middle" x="27" y="-158.3" font-family="FreeSans" font-size="14.00" fill="#000000">Mu</text>
</a>
</g>
</g>
<!-- Any&#45;&gt;Mu -->
<g id="edge2" class="edge">
<title>Any&#45;&gt;Mu</title>
<path fill="none" stroke="#000000" d="M27,-108.3C27,-116.02 27,-125.29 27,-133.89"/>
<polygon fill="#000000" stroke="#000000" points="23.5,-133.9 27,-143.9 30.5,-133.9 23.5,-133.9"/>
</g>
</g>
</svg>
