<?xml version="1.0" encoding="UTF-8" standalone="no"?>
<!DOCTYPE svg PUBLIC "-//W3C//DTD SVG 1.1//EN"
 "http://www.w3.org/Graphics/SVG/1.1/DTD/svg11.dtd">
<!-- Generated by graphviz version 2.43.0 (0)
 -->
<!-- Title: perl6&#45;type&#45;graph Pages: 1 -->
<svg width="632pt" height="332pt"
 viewBox="0.00 0.00 631.79 332.00" xmlns="http://www.w3.org/2000/svg" xmlns:xlink="http://www.w3.org/1999/xlink">
<g id="graph0" class="graph" transform="scale(1 1) rotate(0) translate(4 328)">
<title>perl6&#45;type&#45;graph</title>
<polygon fill="white" stroke="transparent" points="-4,4 -4,-328 627.79,-328 627.79,4 -4,4"/>
<!-- IO::Path -->
<g id="node1" class="node">
<title>IO::Path</title>
<g id="a_node1"><a xlink:href="/type/IO::Path" xlink:title="IO::Path">
<ellipse fill="none" stroke="#000000" cx="309.44" cy="-90" rx="43.59" ry="18"/>
<text text-anchor="middle" x="309.44" y="-86.3" font-family="FreeSans" font-size="14.00" fill="#000000">IO::Path</text>
</a>
</g>
</g>
<!-- Cool -->
<g id="node4" class="node">
<title>Cool</title>
<g id="a_node4"><a xlink:href="/type/Cool" xlink:title="Cool">
<ellipse fill="none" stroke="#000000" cx="272.44" cy="-162" rx="28.7" ry="18"/>
<text text-anchor="middle" x="272.44" y="-158.3" font-family="FreeSans" font-size="14.00" fill="#000000">Cool</text>
</a>
</g>
</g>
<!-- IO::Path&#45;&gt;Cool -->
<g id="edge1" class="edge">
<title>IO::Path&#45;&gt;Cool</title>
<path fill="none" stroke="#000000" d="M300.49,-107.95C296.11,-116.23 290.74,-126.38 285.88,-135.58"/>
<polygon fill="#000000" stroke="#000000" points="282.64,-134.22 281.06,-144.69 288.83,-137.49 282.64,-134.22"/>
</g>
<!-- IO -->
<g id="node5" class="node">
<title>IO</title>
<g id="a_node5"><a xlink:href="/type/IO" xlink:title="IO">
<ellipse fill="none" stroke="#6666ff" cx="346.44" cy="-162" rx="27" ry="18"/>
<text text-anchor="middle" x="346.44" y="-158.3" font-family="FreeSans" font-size="14.00" fill="#6666ff">IO</text>
</a>
</g>
</g>
<!-- IO::Path&#45;&gt;IO -->
<g id="edge8" class="edge">
<title>IO::Path&#45;&gt;IO</title>
<path fill="none" stroke="#6666ff" d="M318.4,-107.95C322.78,-116.23 328.15,-126.38 333.01,-135.58"/>
<polygon fill="#6666ff" stroke="#6666ff" points="330.06,-137.49 337.82,-144.69 336.25,-134.22 330.06,-137.49"/>
</g>
<!-- Mu -->
<g id="node2" class="node">
<title>Mu</title>
<g id="a_node2"><a xlink:href="/type/Mu" xlink:title="Mu">
<ellipse fill="none" stroke="#000000" cx="272.44" cy="-306" rx="27" ry="18"/>
<text text-anchor="middle" x="272.44" y="-302.3" font-family="FreeSans" font-size="14.00" fill="#000000">Mu</text>
</a>
</g>
</g>
<!-- Any -->
<g id="node3" class="node">
<title>Any</title>
<g id="a_node3"><a xlink:href="/type/Any" xlink:title="Any">
<ellipse fill="none" stroke="#000000" cx="272.44" cy="-234" rx="27" ry="18"/>
<text text-anchor="middle" x="272.44" y="-230.3" font-family="FreeSans" font-size="14.00" fill="#000000">Any</text>
</a>
</g>
</g>
<!-- Any&#45;&gt;Mu -->
<g id="edge2" class="edge">
<title>Any&#45;&gt;Mu</title>
<path fill="none" stroke="#000000" d="M272.44,-252.3C272.44,-260.02 272.44,-269.29 272.44,-277.89"/>
<polygon fill="#000000" stroke="#000000" points="268.94,-277.9 272.44,-287.9 275.94,-277.9 268.94,-277.9"/>
</g>
<!-- Cool&#45;&gt;Any -->
<g id="edge3" class="edge">
<title>Cool&#45;&gt;Any</title>
<path fill="none" stroke="#000000" d="M272.44,-180.3C272.44,-188.02 272.44,-197.29 272.44,-205.89"/>
<polygon fill="#000000" stroke="#000000" points="268.94,-205.9 272.44,-215.9 275.94,-205.9 268.94,-205.9"/>
</g>
<!-- IO::Path::Win32 -->
<g id="node6" class="node">
<title>IO::Path::Win32</title>
<g id="a_node6"><a xlink:href="/type/IO::Path::Win32" xlink:title="IO::Path::Win32">
<ellipse fill="none" stroke="#000000" cx="73.44" cy="-18" rx="73.39" ry="18"/>
<text text-anchor="middle" x="73.44" y="-14.3" font-family="FreeSans" font-size="14.00" fill="#000000">IO::Path::Win32</text>
</a>
</g>
</g>
<!-- IO::Path::Win32&#45;&gt;IO::Path -->
<g id="edge4" class="edge">
<title>IO::Path::Win32&#45;&gt;IO::Path</title>
<path fill="none" stroke="#000000" d="M118.39,-32.33C160.61,-44.85 223.4,-63.48 265.34,-75.92"/>
<polygon fill="#000000" stroke="#000000" points="264.42,-79.3 275.01,-78.79 266.41,-72.59 264.42,-79.3"/>
</g>
<!-- IO::Path::QNX -->
<g id="node7" class="node">
<title>IO::Path::QNX</title>
<g id="a_node7"><a xlink:href="/type/IO::Path::QNX" xlink:title="IO::Path::QNX">
<ellipse fill="none" stroke="#000000" cx="233.44" cy="-18" rx="68.49" ry="18"/>
<text text-anchor="middle" x="233.44" y="-14.3" font-family="FreeSans" font-size="14.00" fill="#000000">IO::Path::QNX</text>
</a>
</g>
</g>
<!-- IO::Path::QNX&#45;&gt;IO::Path -->
<g id="edge5" class="edge">
<title>IO::Path::QNX&#45;&gt;IO::Path</title>
<path fill="none" stroke="#000000" d="M251.45,-35.59C261.42,-44.76 273.94,-56.3 284.79,-66.3"/>
<polygon fill="#000000" stroke="#000000" points="282.62,-69.05 292.34,-73.25 287.36,-63.9 282.62,-69.05"/>
</g>
<!-- IO::Path::Unix -->
<g id="node8" class="node">
<title>IO::Path::Unix</title>
<g id="a_node8"><a xlink:href="/type/IO::Path::Unix" xlink:title="IO::Path::Unix">
<ellipse fill="none" stroke="#000000" cx="385.44" cy="-18" rx="65.79" ry="18"/>
<text text-anchor="middle" x="385.44" y="-14.3" font-family="FreeSans" font-size="14.00" fill="#000000">IO::Path::Unix</text>
</a>
</g>
</g>
<!-- IO::Path::Unix&#45;&gt;IO::Path -->
<g id="edge6" class="edge">
<title>IO::Path::Unix&#45;&gt;IO::Path</title>
<path fill="none" stroke="#000000" d="M367.43,-35.59C357.47,-44.76 344.95,-56.3 334.09,-66.3"/>
<polygon fill="#000000" stroke="#000000" points="331.53,-63.9 326.54,-73.25 336.27,-69.05 331.53,-63.9"/>
</g>
<!-- IO::Path::Cygwin -->
<g id="node9" class="node">
<title>IO::Path::Cygwin</title>
<g id="a_node9"><a xlink:href="/type/IO::Path::Cygwin" xlink:title="IO::Path::Cygwin">
<ellipse fill="none" stroke="#000000" cx="546.44" cy="-18" rx="77.19" ry="18"/>
<text text-anchor="middle" x="546.44" y="-14.3" font-family="FreeSans" font-size="14.00" fill="#000000">IO::Path::Cygwin</text>
</a>
</g>
</g>
<!-- IO::Path::Cygwin&#45;&gt;IO::Path -->
<g id="edge7" class="edge">
<title>IO::Path::Cygwin&#45;&gt;IO::Path</title>
<path fill="none" stroke="#000000" d="M500.47,-32.58C457.97,-45.13 395.26,-63.65 353.41,-76.01"/>
<polygon fill="#000000" stroke="#000000" points="352.37,-72.67 343.77,-78.86 354.36,-79.38 352.37,-72.67"/>
</g>
</g>
</svg>
