<?xml version="1.0" encoding="UTF-8" standalone="no"?>
<!DOCTYPE svg PUBLIC "-//W3C//DTD SVG 1.1//EN"
 "http://www.w3.org/Graphics/SVG/1.1/DTD/svg11.dtd">
<!-- Generated by graphviz version 2.43.0 (0)
 -->
<!-- Title: perl6&#45;type&#45;graph Pages: 1 -->
<svg width="139pt" height="332pt"
 viewBox="0.00 0.00 139.29 332.00" xmlns="http://www.w3.org/2000/svg" xmlns:xlink="http://www.w3.org/1999/xlink">
<g id="graph0" class="graph" transform="scale(1 1) rotate(0) translate(4 328)">
<title>perl6&#45;type&#45;graph</title>
<polygon fill="white" stroke="transparent" points="-4,4 -4,-328 135.29,-328 135.29,4 -4,4"/>
<!-- IO::Path::Unix -->
<g id="node1" class="node">
<title>IO::Path::Unix</title>
<g id="a_node1"><a xlink:href="/type/IO::Path::Unix" xlink:title="IO::Path::Unix">
<ellipse fill="none" stroke="#000000" cx="65.64" cy="-18" rx="65.79" ry="18"/>
<text text-anchor="middle" x="65.64" y="-14.3" font-family="FreeSans" font-size="14.00" fill="#000000">IO::Path::Unix</text>
</a>
</g>
</g>
<!-- IO::Path -->
<g id="node6" class="node">
<title>IO::Path</title>
<g id="a_node6"><a xlink:href="/type/IO::Path" xlink:title="IO::Path">
<ellipse fill="none" stroke="#000000" cx="65.64" cy="-90" rx="43.59" ry="18"/>
<text text-anchor="middle" x="65.64" y="-86.3" font-family="FreeSans" font-size="14.00" fill="#000000">IO::Path</text>
</a>
</g>
</g>
<!-- IO::Path::Unix&#45;&gt;IO::Path -->
<g id="edge1" class="edge">
<title>IO::Path::Unix&#45;&gt;IO::Path</title>
<path fill="none" stroke="#000000" d="M65.64,-36.3C65.64,-44.02 65.64,-53.29 65.64,-61.89"/>
<polygon fill="#000000" stroke="#000000" points="62.14,-61.9 65.64,-71.9 69.14,-61.9 62.14,-61.9"/>
</g>
<!-- Mu -->
<g id="node2" class="node">
<title>Mu</title>
<g id="a_node2"><a xlink:href="/type/Mu" xlink:title="Mu">
<ellipse fill="none" stroke="#000000" cx="28.64" cy="-306" rx="27" ry="18"/>
<text text-anchor="middle" x="28.64" y="-302.3" font-family="FreeSans" font-size="14.00" fill="#000000">Mu</text>
</a>
</g>
</g>
<!-- Any -->
<g id="node3" class="node">
<title>Any</title>
<g id="a_node3"><a xlink:href="/type/Any" xlink:title="Any">
<ellipse fill="none" stroke="#000000" cx="28.64" cy="-234" rx="27" ry="18"/>
<text text-anchor="middle" x="28.64" y="-230.3" font-family="FreeSans" font-size="14.00" fill="#000000">Any</text>
</a>
</g>
</g>
<!-- Any&#45;&gt;Mu -->
<g id="edge2" class="edge">
<title>Any&#45;&gt;Mu</title>
<path fill="none" stroke="#000000" d="M28.64,-252.3C28.64,-260.02 28.64,-269.29 28.64,-277.89"/>
<polygon fill="#000000" stroke="#000000" points="25.14,-277.9 28.64,-287.9 32.14,-277.9 25.14,-277.9"/>
</g>
<!-- Cool -->
<g id="node4" class="node">
<title>Cool</title>
<g id="a_node4"><a xlink:href="/type/Cool" xlink:title="Cool">
<ellipse fill="none" stroke="#000000" cx="28.64" cy="-162" rx="28.7" ry="18"/>
<text text-anchor="middle" x="28.64" y="-158.3" font-family="FreeSans" font-size="14.00" fill="#000000">Cool</text>
</a>
</g>
</g>
<!-- Cool&#45;&gt;Any -->
<g id="edge3" class="edge">
<title>Cool&#45;&gt;Any</title>
<path fill="none" stroke="#000000" d="M28.64,-180.3C28.64,-188.02 28.64,-197.29 28.64,-205.89"/>
<polygon fill="#000000" stroke="#000000" points="25.14,-205.9 28.64,-215.9 32.14,-205.9 25.14,-205.9"/>
</g>
<!-- IO -->
<g id="node5" class="node">
<title>IO</title>
<g id="a_node5"><a xlink:href="/type/IO" xlink:title="IO">
<ellipse fill="none" stroke="#6666ff" cx="102.64" cy="-162" rx="27" ry="18"/>
<text text-anchor="middle" x="102.64" y="-158.3" font-family="FreeSans" font-size="14.00" fill="#6666ff">IO</text>
</a>
</g>
</g>
<!-- IO::Path&#45;&gt;Cool -->
<g id="edge4" class="edge">
<title>IO::Path&#45;&gt;Cool</title>
<path fill="none" stroke="#000000" d="M56.69,-107.95C52.31,-116.23 46.94,-126.38 42.08,-135.58"/>
<polygon fill="#000000" stroke="#000000" points="38.84,-134.22 37.26,-144.69 45.03,-137.49 38.84,-134.22"/>
</g>
<!-- IO::Path&#45;&gt;IO -->
<g id="edge5" class="edge">
<title>IO::Path&#45;&gt;IO</title>
<path fill="none" stroke="#6666ff" d="M74.6,-107.95C78.98,-116.23 84.35,-126.38 89.21,-135.58"/>
<polygon fill="#6666ff" stroke="#6666ff" points="86.26,-137.49 94.02,-144.69 92.45,-134.22 86.26,-137.49"/>
</g>
</g>
</svg>
