<?xml version="1.0" encoding="UTF-8" standalone="no"?>
<!DOCTYPE svg PUBLIC "-//W3C//DTD SVG 1.1//EN"
 "http://www.w3.org/Graphics/SVG/1.1/DTD/svg11.dtd">
<!-- Generated by graphviz version 2.43.0 (0)
 -->
<!-- Title: perl6&#45;type&#45;graph Pages: 1 -->
<svg width="144pt" height="332pt"
 viewBox="0.00 0.00 144.49 332.00" xmlns="http://www.w3.org/2000/svg" xmlns:xlink="http://www.w3.org/1999/xlink">
<g id="graph0" class="graph" transform="scale(1 1) rotate(0) translate(4 328)">
<title>perl6&#45;type&#45;graph</title>
<polygon fill="white" stroke="transparent" points="-4,4 -4,-328 140.49,-328 140.49,4 -4,4"/>
<!-- IO::Path::QNX -->
<g id="node1" class="node">
<title>IO::Path::QNX</title>
<g id="a_node1"><a xlink:href="/type/IO::Path::QNX" xlink:title="IO::Path::QNX">
<ellipse fill="none" stroke="#000000" cx="68.24" cy="-18" rx="68.49" ry="18"/>
<text text-anchor="middle" x="68.24" y="-14.3" font-family="FreeSans" font-size="14.00" fill="#000000">IO::Path::QNX</text>
</a>
</g>
</g>
<!-- IO::Path -->
<g id="node6" class="node">
<title>IO::Path</title>
<g id="a_node6"><a xlink:href="/type/IO::Path" xlink:title="IO::Path">
<ellipse fill="none" stroke="#000000" cx="68.24" cy="-90" rx="43.59" ry="18"/>
<text text-anchor="middle" x="68.24" y="-86.3" font-family="FreeSans" font-size="14.00" fill="#000000">IO::Path</text>
</a>
</g>
</g>
<!-- IO::Path::QNX&#45;&gt;IO::Path -->
<g id="edge1" class="edge">
<title>IO::Path::QNX&#45;&gt;IO::Path</title>
<path fill="none" stroke="#000000" d="M68.24,-36.3C68.24,-44.02 68.24,-53.29 68.24,-61.89"/>
<polygon fill="#000000" stroke="#000000" points="64.74,-61.9 68.24,-71.9 71.74,-61.9 64.74,-61.9"/>
</g>
<!-- Mu -->
<g id="node2" class="node">
<title>Mu</title>
<g id="a_node2"><a xlink:href="/type/Mu" xlink:title="Mu">
<ellipse fill="none" stroke="#000000" cx="31.24" cy="-306" rx="27" ry="18"/>
<text text-anchor="middle" x="31.24" y="-302.3" font-family="FreeSans" font-size="14.00" fill="#000000">Mu</text>
</a>
</g>
</g>
<!-- Any -->
<g id="node3" class="node">
<title>Any</title>
<g id="a_node3"><a xlink:href="/type/Any" xlink:title="Any">
<ellipse fill="none" stroke="#000000" cx="31.24" cy="-234" rx="27" ry="18"/>
<text text-anchor="middle" x="31.24" y="-230.3" font-family="FreeSans" font-size="14.00" fill="#000000">Any</text>
</a>
</g>
</g>
<!-- Any&#45;&gt;Mu -->
<g id="edge2" class="edge">
<title>Any&#45;&gt;Mu</title>
<path fill="none" stroke="#000000" d="M31.24,-252.3C31.24,-260.02 31.24,-269.29 31.24,-277.89"/>
<polygon fill="#000000" stroke="#000000" points="27.74,-277.9 31.24,-287.9 34.74,-277.9 27.74,-277.9"/>
</g>
<!-- Cool -->
<g id="node4" class="node">
<title>Cool</title>
<g id="a_node4"><a xlink:href="/type/Cool" xlink:title="Cool">
<ellipse fill="none" stroke="#000000" cx="31.24" cy="-162" rx="28.7" ry="18"/>
<text text-anchor="middle" x="31.24" y="-158.3" font-family="FreeSans" font-size="14.00" fill="#000000">Cool</text>
</a>
</g>
</g>
<!-- Cool&#45;&gt;Any -->
<g id="edge3" class="edge">
<title>Cool&#45;&gt;Any</title>
<path fill="none" stroke="#000000" d="M31.24,-180.3C31.24,-188.02 31.24,-197.29 31.24,-205.89"/>
<polygon fill="#000000" stroke="#000000" points="27.74,-205.9 31.24,-215.9 34.74,-205.9 27.74,-205.9"/>
</g>
<!-- IO -->
<g id="node5" class="node">
<title>IO</title>
<g id="a_node5"><a xlink:href="/type/IO" xlink:title="IO">
<ellipse fill="none" stroke="#6666ff" cx="105.24" cy="-162" rx="27" ry="18"/>
<text text-anchor="middle" x="105.24" y="-158.3" font-family="FreeSans" font-size="14.00" fill="#6666ff">IO</text>
</a>
</g>
</g>
<!-- IO::Path&#45;&gt;Cool -->
<g id="edge4" class="edge">
<title>IO::Path&#45;&gt;Cool</title>
<path fill="none" stroke="#000000" d="M59.29,-107.95C54.91,-116.23 49.54,-126.38 44.68,-135.58"/>
<polygon fill="#000000" stroke="#000000" points="41.44,-134.22 39.86,-144.69 47.63,-137.49 41.44,-134.22"/>
</g>
<!-- IO::Path&#45;&gt;IO -->
<g id="edge5" class="edge">
<title>IO::Path&#45;&gt;IO</title>
<path fill="none" stroke="#6666ff" d="M77.2,-107.95C81.58,-116.23 86.95,-126.38 91.81,-135.58"/>
<polygon fill="#6666ff" stroke="#6666ff" points="88.86,-137.49 96.62,-144.69 95.05,-134.22 88.86,-137.49"/>
</g>
</g>
</svg>
