<?xml version="1.0" encoding="UTF-8" standalone="no"?>
<!DOCTYPE svg PUBLIC "-//W3C//DTD SVG 1.1//EN"
 "http://www.w3.org/Graphics/SVG/1.1/DTD/svg11.dtd">
<!-- Generated by graphviz version 2.43.0 (0)
 -->
<!-- Title: perl6&#45;type&#45;graph Pages: 1 -->
<svg width="155pt" height="332pt"
 viewBox="0.00 0.00 154.89 332.00" xmlns="http://www.w3.org/2000/svg" xmlns:xlink="http://www.w3.org/1999/xlink">
<g id="graph0" class="graph" transform="scale(1 1) rotate(0) translate(4 328)">
<title>perl6&#45;type&#45;graph</title>
<polygon fill="white" stroke="transparent" points="-4,4 -4,-328 150.89,-328 150.89,4 -4,4"/>
<!-- IO::Path::Win32 -->
<g id="node1" class="node">
<title>IO::Path::Win32</title>
<g id="a_node1"><a xlink:href="/type/IO::Path::Win32" xlink:title="IO::Path::Win32">
<ellipse fill="none" stroke="#000000" cx="73.44" cy="-18" rx="73.39" ry="18"/>
<text text-anchor="middle" x="73.44" y="-14.3" font-family="FreeSans" font-size="14.00" fill="#000000">IO::Path::Win32</text>
</a>
</g>
</g>
<!-- IO::Path -->
<g id="node6" class="node">
<title>IO::Path</title>
<g id="a_node6"><a xlink:href="/type/IO::Path" xlink:title="IO::Path">
<ellipse fill="none" stroke="#000000" cx="73.44" cy="-90" rx="43.59" ry="18"/>
<text text-anchor="middle" x="73.44" y="-86.3" font-family="FreeSans" font-size="14.00" fill="#000000">IO::Path</text>
</a>
</g>
</g>
<!-- IO::Path::Win32&#45;&gt;IO::Path -->
<g id="edge1" class="edge">
<title>IO::Path::Win32&#45;&gt;IO::Path</title>
<path fill="none" stroke="#000000" d="M73.44,-36.3C73.44,-44.02 73.44,-53.29 73.44,-61.89"/>
<polygon fill="#000000" stroke="#000000" points="69.94,-61.9 73.44,-71.9 76.94,-61.9 69.94,-61.9"/>
</g>
<!-- Mu -->
<g id="node2" class="node">
<title>Mu</title>
<g id="a_node2"><a xlink:href="/type/Mu" xlink:title="Mu">
<ellipse fill="none" stroke="#000000" cx="36.44" cy="-306" rx="27" ry="18"/>
<text text-anchor="middle" x="36.44" y="-302.3" font-family="FreeSans" font-size="14.00" fill="#000000">Mu</text>
</a>
</g>
</g>
<!-- Any -->
<g id="node3" class="node">
<title>Any</title>
<g id="a_node3"><a xlink:href="/type/Any" xlink:title="Any">
<ellipse fill="none" stroke="#000000" cx="36.44" cy="-234" rx="27" ry="18"/>
<text text-anchor="middle" x="36.44" y="-230.3" font-family="FreeSans" font-size="14.00" fill="#000000">Any</text>
</a>
</g>
</g>
<!-- Any&#45;&gt;Mu -->
<g id="edge2" class="edge">
<title>Any&#45;&gt;Mu</title>
<path fill="none" stroke="#000000" d="M36.44,-252.3C36.44,-260.02 36.44,-269.29 36.44,-277.89"/>
<polygon fill="#000000" stroke="#000000" points="32.94,-277.9 36.44,-287.9 39.94,-277.9 32.94,-277.9"/>
</g>
<!-- Cool -->
<g id="node4" class="node">
<title>Cool</title>
<g id="a_node4"><a xlink:href="/type/Cool" xlink:title="Cool">
<ellipse fill="none" stroke="#000000" cx="36.44" cy="-162" rx="28.7" ry="18"/>
<text text-anchor="middle" x="36.44" y="-158.3" font-family="FreeSans" font-size="14.00" fill="#000000">Cool</text>
</a>
</g>
</g>
<!-- Cool&#45;&gt;Any -->
<g id="edge3" class="edge">
<title>Cool&#45;&gt;Any</title>
<path fill="none" stroke="#000000" d="M36.44,-180.3C36.44,-188.02 36.44,-197.29 36.44,-205.89"/>
<polygon fill="#000000" stroke="#000000" points="32.94,-205.9 36.44,-215.9 39.94,-205.9 32.94,-205.9"/>
</g>
<!-- IO -->
<g id="node5" class="node">
<title>IO</title>
<g id="a_node5"><a xlink:href="/type/IO" xlink:title="IO">
<ellipse fill="none" stroke="#6666ff" cx="110.44" cy="-162" rx="27" ry="18"/>
<text text-anchor="middle" x="110.44" y="-158.3" font-family="FreeSans" font-size="14.00" fill="#6666ff">IO</text>
</a>
</g>
</g>
<!-- IO::Path&#45;&gt;Cool -->
<g id="edge4" class="edge">
<title>IO::Path&#45;&gt;Cool</title>
<path fill="none" stroke="#000000" d="M64.49,-107.95C60.11,-116.23 54.74,-126.38 49.88,-135.58"/>
<polygon fill="#000000" stroke="#000000" points="46.64,-134.22 45.06,-144.69 52.83,-137.49 46.64,-134.22"/>
</g>
<!-- IO::Path&#45;&gt;IO -->
<g id="edge5" class="edge">
<title>IO::Path&#45;&gt;IO</title>
<path fill="none" stroke="#6666ff" d="M82.4,-107.95C86.78,-116.23 92.15,-126.38 97.01,-135.58"/>
<polygon fill="#6666ff" stroke="#6666ff" points="94.06,-137.49 101.82,-144.69 100.25,-134.22 94.06,-137.49"/>
</g>
</g>
</svg>
