<?xml version="1.0" encoding="UTF-8" standalone="no"?>
<!DOCTYPE svg PUBLIC "-//W3C//DTD SVG 1.1//EN"
 "http://www.w3.org/Graphics/SVG/1.1/DTD/svg11.dtd">
<!-- Generated by graphviz version 2.43.0 (0)
 -->
<!-- Title: perl6&#45;type&#45;graph Pages: 1 -->
<svg width="163pt" height="332pt"
 viewBox="0.00 0.00 162.69 332.00" xmlns="http://www.w3.org/2000/svg" xmlns:xlink="http://www.w3.org/1999/xlink">
<g id="graph0" class="graph" transform="scale(1 1) rotate(0) translate(4 328)">
<title>perl6&#45;type&#45;graph</title>
<polygon fill="white" stroke="transparent" points="-4,4 -4,-328 158.69,-328 158.69,4 -4,4"/>
<!-- IO::Path::Cygwin -->
<g id="node1" class="node">
<title>IO::Path::Cygwin</title>
<g id="a_node1"><a xlink:href="/type/IO::Path::Cygwin" xlink:title="IO::Path::Cygwin">
<ellipse fill="none" stroke="#000000" cx="77.34" cy="-18" rx="77.19" ry="18"/>
<text text-anchor="middle" x="77.34" y="-14.3" font-family="FreeSans" font-size="14.00" fill="#000000">IO::Path::Cygwin</text>
</a>
</g>
</g>
<!-- IO::Path -->
<g id="node6" class="node">
<title>IO::Path</title>
<g id="a_node6"><a xlink:href="/type/IO::Path" xlink:title="IO::Path">
<ellipse fill="none" stroke="#000000" cx="77.34" cy="-90" rx="43.59" ry="18"/>
<text text-anchor="middle" x="77.34" y="-86.3" font-family="FreeSans" font-size="14.00" fill="#000000">IO::Path</text>
</a>
</g>
</g>
<!-- IO::Path::Cygwin&#45;&gt;IO::Path -->
<g id="edge1" class="edge">
<title>IO::Path::Cygwin&#45;&gt;IO::Path</title>
<path fill="none" stroke="#000000" d="M77.34,-36.3C77.34,-44.02 77.34,-53.29 77.34,-61.89"/>
<polygon fill="#000000" stroke="#000000" points="73.84,-61.9 77.34,-71.9 80.84,-61.9 73.84,-61.9"/>
</g>
<!-- Mu -->
<g id="node2" class="node">
<title>Mu</title>
<g id="a_node2"><a xlink:href="/type/Mu" xlink:title="Mu">
<ellipse fill="none" stroke="#000000" cx="40.34" cy="-306" rx="27" ry="18"/>
<text text-anchor="middle" x="40.34" y="-302.3" font-family="FreeSans" font-size="14.00" fill="#000000">Mu</text>
</a>
</g>
</g>
<!-- Any -->
<g id="node3" class="node">
<title>Any</title>
<g id="a_node3"><a xlink:href="/type/Any" xlink:title="Any">
<ellipse fill="none" stroke="#000000" cx="40.34" cy="-234" rx="27" ry="18"/>
<text text-anchor="middle" x="40.34" y="-230.3" font-family="FreeSans" font-size="14.00" fill="#000000">Any</text>
</a>
</g>
</g>
<!-- Any&#45;&gt;Mu -->
<g id="edge2" class="edge">
<title>Any&#45;&gt;Mu</title>
<path fill="none" stroke="#000000" d="M40.34,-252.3C40.34,-260.02 40.34,-269.29 40.34,-277.89"/>
<polygon fill="#000000" stroke="#000000" points="36.84,-277.9 40.34,-287.9 43.84,-277.9 36.84,-277.9"/>
</g>
<!-- Cool -->
<g id="node4" class="node">
<title>Cool</title>
<g id="a_node4"><a xlink:href="/type/Cool" xlink:title="Cool">
<ellipse fill="none" stroke="#000000" cx="40.34" cy="-162" rx="28.7" ry="18"/>
<text text-anchor="middle" x="40.34" y="-158.3" font-family="FreeSans" font-size="14.00" fill="#000000">Cool</text>
</a>
</g>
</g>
<!-- Cool&#45;&gt;Any -->
<g id="edge3" class="edge">
<title>Cool&#45;&gt;Any</title>
<path fill="none" stroke="#000000" d="M40.34,-180.3C40.34,-188.02 40.34,-197.29 40.34,-205.89"/>
<polygon fill="#000000" stroke="#000000" points="36.84,-205.9 40.34,-215.9 43.84,-205.9 36.84,-205.9"/>
</g>
<!-- IO -->
<g id="node5" class="node">
<title>IO</title>
<g id="a_node5"><a xlink:href="/type/IO" xlink:title="IO">
<ellipse fill="none" stroke="#6666ff" cx="114.34" cy="-162" rx="27" ry="18"/>
<text text-anchor="middle" x="114.34" y="-158.3" font-family="FreeSans" font-size="14.00" fill="#6666ff">IO</text>
</a>
</g>
</g>
<!-- IO::Path&#45;&gt;Cool -->
<g id="edge4" class="edge">
<title>IO::Path&#45;&gt;Cool</title>
<path fill="none" stroke="#000000" d="M68.39,-107.95C64.01,-116.23 58.64,-126.38 53.78,-135.58"/>
<polygon fill="#000000" stroke="#000000" points="50.54,-134.22 48.96,-144.69 56.73,-137.49 50.54,-134.22"/>
</g>
<!-- IO::Path&#45;&gt;IO -->
<g id="edge5" class="edge">
<title>IO::Path&#45;&gt;IO</title>
<path fill="none" stroke="#6666ff" d="M86.3,-107.95C90.68,-116.23 96.05,-126.38 100.9,-135.58"/>
<polygon fill="#6666ff" stroke="#6666ff" points="97.96,-137.49 105.72,-144.69 104.14,-134.22 97.96,-137.49"/>
</g>
</g>
</svg>
