<?xml version="1.0" encoding="UTF-8" standalone="no"?>
<!DOCTYPE svg PUBLIC "-//W3C//DTD SVG 1.1//EN"
 "http://www.w3.org/Graphics/SVG/1.1/DTD/svg11.dtd">
<!-- Generated by graphviz version 2.43.0 (0)
 -->
<!-- Title: perl6&#45;type&#45;graph Pages: 1 -->
<svg width="115pt" height="260pt"
 viewBox="0.00 0.00 114.59 260.00" xmlns="http://www.w3.org/2000/svg" xmlns:xlink="http://www.w3.org/1999/xlink">
<g id="graph0" class="graph" transform="scale(1 1) rotate(0) translate(4 256)">
<title>perl6&#45;type&#45;graph</title>
<polygon fill="white" stroke="transparent" points="-4,4 -4,-256 110.59,-256 110.59,4 -4,4"/>
<!-- IO::Pipe -->
<g id="node1" class="node">
<title>IO::Pipe</title>
<g id="a_node1"><a xlink:href="/type/IO::Pipe" xlink:title="IO::Pipe">
<ellipse fill="none" stroke="#000000" cx="53.3" cy="-18" rx="42.79" ry="18"/>
<text text-anchor="middle" x="53.3" y="-14.3" font-family="FreeSans" font-size="14.00" fill="#000000">IO::Pipe</text>
</a>
</g>
</g>
<!-- IO::Handle -->
<g id="node4" class="node">
<title>IO::Handle</title>
<g id="a_node4"><a xlink:href="/type/IO::Handle" xlink:title="IO::Handle">
<ellipse fill="none" stroke="#000000" cx="53.3" cy="-90" rx="53.09" ry="18"/>
<text text-anchor="middle" x="53.3" y="-86.3" font-family="FreeSans" font-size="14.00" fill="#000000">IO::Handle</text>
</a>
</g>
</g>
<!-- IO::Pipe&#45;&gt;IO::Handle -->
<g id="edge1" class="edge">
<title>IO::Pipe&#45;&gt;IO::Handle</title>
<path fill="none" stroke="#000000" d="M53.3,-36.3C53.3,-44.02 53.3,-53.29 53.3,-61.89"/>
<polygon fill="#000000" stroke="#000000" points="49.8,-61.9 53.3,-71.9 56.8,-61.9 49.8,-61.9"/>
</g>
<!-- Mu -->
<g id="node2" class="node">
<title>Mu</title>
<g id="a_node2"><a xlink:href="/type/Mu" xlink:title="Mu">
<ellipse fill="none" stroke="#000000" cx="53.3" cy="-234" rx="27" ry="18"/>
<text text-anchor="middle" x="53.3" y="-230.3" font-family="FreeSans" font-size="14.00" fill="#000000">Mu</text>
</a>
</g>
</g>
<!-- Any -->
<g id="node3" class="node">
<title>Any</title>
<g id="a_node3"><a xlink:href="/type/Any" xlink:title="Any">
<ellipse fill="none" stroke="#000000" cx="53.3" cy="-162" rx="27" ry="18"/>
<text text-anchor="middle" x="53.3" y="-158.3" font-family="FreeSans" font-size="14.00" fill="#000000">Any</text>
</a>
</g>
</g>
<!-- Any&#45;&gt;Mu -->
<g id="edge2" class="edge">
<title>Any&#45;&gt;Mu</title>
<path fill="none" stroke="#000000" d="M53.3,-180.3C53.3,-188.02 53.3,-197.29 53.3,-205.89"/>
<polygon fill="#000000" stroke="#000000" points="49.8,-205.9 53.3,-215.9 56.8,-205.9 49.8,-205.9"/>
</g>
<!-- IO::Handle&#45;&gt;Any -->
<g id="edge3" class="edge">
<title>IO::Handle&#45;&gt;Any</title>
<path fill="none" stroke="#000000" d="M53.3,-108.3C53.3,-116.02 53.3,-125.29 53.3,-133.89"/>
<polygon fill="#000000" stroke="#000000" points="49.8,-133.9 53.3,-143.9 56.8,-133.9 49.8,-133.9"/>
</g>
</g>
</svg>
