<?xml version="1.0" encoding="UTF-8" standalone="no"?>
<!DOCTYPE svg PUBLIC "-//W3C//DTD SVG 1.1//EN"
 "http://www.w3.org/Graphics/SVG/1.1/DTD/svg11.dtd">
<!-- Generated by graphviz version 2.43.0 (0)
 -->
<!-- Title: perl6&#45;type&#45;graph Pages: 1 -->
<svg width="188pt" height="188pt"
 viewBox="0.00 0.00 188.29 188.00" xmlns="http://www.w3.org/2000/svg" xmlns:xlink="http://www.w3.org/1999/xlink">
<g id="graph0" class="graph" transform="scale(1 1) rotate(0) translate(4 184)">
<title>perl6&#45;type&#45;graph</title>
<polygon fill="white" stroke="transparent" points="-4,4 -4,-184 184.29,-184 184.29,4 -4,4"/>
<!-- IO::Socket -->
<g id="node1" class="node">
<title>IO::Socket</title>
<g id="a_node1"><a xlink:href="/type/IO::Socket" xlink:title="IO::Socket">
<ellipse fill="none" stroke="#6666ff" cx="52.65" cy="-90" rx="52.79" ry="18"/>
<text text-anchor="middle" x="52.65" y="-86.3" font-family="FreeSans" font-size="14.00" fill="#6666ff">IO::Socket</text>
</a>
</g>
</g>
<!-- Mu -->
<g id="node2" class="node">
<title>Mu</title>
<g id="a_node2"><a xlink:href="/type/Mu" xlink:title="Mu">
<ellipse fill="none" stroke="#000000" cx="150.65" cy="-162" rx="27" ry="18"/>
<text text-anchor="middle" x="150.65" y="-158.3" font-family="FreeSans" font-size="14.00" fill="#000000">Mu</text>
</a>
</g>
</g>
<!-- Any -->
<g id="node3" class="node">
<title>Any</title>
<g id="a_node3"><a xlink:href="/type/Any" xlink:title="Any">
<ellipse fill="none" stroke="#000000" cx="150.65" cy="-90" rx="27" ry="18"/>
<text text-anchor="middle" x="150.65" y="-86.3" font-family="FreeSans" font-size="14.00" fill="#000000">Any</text>
</a>
</g>
</g>
<!-- Any&#45;&gt;Mu -->
<g id="edge1" class="edge">
<title>Any&#45;&gt;Mu</title>
<path fill="none" stroke="#000000" d="M150.65,-108.3C150.65,-116.02 150.65,-125.29 150.65,-133.89"/>
<polygon fill="#000000" stroke="#000000" points="147.15,-133.9 150.65,-143.9 154.15,-133.9 147.15,-133.9"/>
</g>
<!-- IO::Socket::INET -->
<g id="node4" class="node">
<title>IO::Socket::INET</title>
<g id="a_node4"><a xlink:href="/type/IO::Socket::INET" xlink:title="IO::Socket::INET">
<ellipse fill="none" stroke="#000000" cx="101.65" cy="-18" rx="78.79" ry="18"/>
<text text-anchor="middle" x="101.65" y="-14.3" font-family="FreeSans" font-size="14.00" fill="#000000">IO::Socket::INET</text>
</a>
</g>
</g>
<!-- IO::Socket::INET&#45;&gt;IO::Socket -->
<g id="edge3" class="edge">
<title>IO::Socket::INET&#45;&gt;IO::Socket</title>
<path fill="none" stroke="#6666ff" d="M89.78,-35.95C83.95,-44.29 76.79,-54.51 70.32,-63.75"/>
<polygon fill="#6666ff" stroke="#6666ff" points="67.26,-62.01 64.4,-72.21 73,-66.03 67.26,-62.01"/>
</g>
<!-- IO::Socket::INET&#45;&gt;Any -->
<g id="edge2" class="edge">
<title>IO::Socket::INET&#45;&gt;Any</title>
<path fill="none" stroke="#000000" d="M113.51,-35.95C119.58,-44.62 127.08,-55.33 133.74,-64.85"/>
<polygon fill="#000000" stroke="#000000" points="130.96,-66.99 139.56,-73.17 136.7,-62.97 130.96,-66.99"/>
</g>
</g>
</svg>
