<?xml version="1.0" encoding="UTF-8" standalone="no"?>
<!DOCTYPE svg PUBLIC "-//W3C//DTD SVG 1.1//EN"
 "http://www.w3.org/Graphics/SVG/1.1/DTD/svg11.dtd">
<!-- Generated by graphviz version 2.43.0 (0)
 -->
<!-- Title: perl6&#45;type&#45;graph Pages: 1 -->
<svg width="188pt" height="188pt"
 viewBox="0.00 0.00 188.29 188.00" xmlns="http://www.w3.org/2000/svg" xmlns:xlink="http://www.w3.org/1999/xlink">
<g id="graph0" class="graph" transform="scale(1 1) rotate(0) translate(4 184)">
<title>perl6&#45;type&#45;graph</title>
<polygon fill="white" stroke="transparent" points="-4,4 -4,-184 184.29,-184 184.29,4 -4,4"/>
<!-- IO::Socket::INET -->
<g id="node1" class="node">
<title>IO::Socket::INET</title>
<g id="a_node1"><a xlink:href="/type/IO::Socket::INET" xlink:title="IO::Socket::INET">
<ellipse fill="none" stroke="#000000" cx="78.64" cy="-18" rx="78.79" ry="18"/>
<text text-anchor="middle" x="78.64" y="-14.3" font-family="FreeSans" font-size="14.00" fill="#000000">IO::Socket::INET</text>
</a>
</g>
</g>
<!-- Any -->
<g id="node3" class="node">
<title>Any</title>
<g id="a_node3"><a xlink:href="/type/Any" xlink:title="Any">
<ellipse fill="none" stroke="#000000" cx="29.64" cy="-90" rx="27" ry="18"/>
<text text-anchor="middle" x="29.64" y="-86.3" font-family="FreeSans" font-size="14.00" fill="#000000">Any</text>
</a>
</g>
</g>
<!-- IO::Socket::INET&#45;&gt;Any -->
<g id="edge1" class="edge">
<title>IO::Socket::INET&#45;&gt;Any</title>
<path fill="none" stroke="#000000" d="M66.78,-35.95C60.71,-44.62 53.21,-55.33 46.55,-64.85"/>
<polygon fill="#000000" stroke="#000000" points="43.59,-62.97 40.72,-73.17 49.33,-66.99 43.59,-62.97"/>
</g>
<!-- IO::Socket -->
<g id="node4" class="node">
<title>IO::Socket</title>
<g id="a_node4"><a xlink:href="/type/IO::Socket" xlink:title="IO::Socket">
<ellipse fill="none" stroke="#6666ff" cx="127.64" cy="-90" rx="52.79" ry="18"/>
<text text-anchor="middle" x="127.64" y="-86.3" font-family="FreeSans" font-size="14.00" fill="#6666ff">IO::Socket</text>
</a>
</g>
</g>
<!-- IO::Socket::INET&#45;&gt;IO::Socket -->
<g id="edge3" class="edge">
<title>IO::Socket::INET&#45;&gt;IO::Socket</title>
<path fill="none" stroke="#6666ff" d="M90.5,-35.95C96.34,-44.29 103.5,-54.51 109.97,-63.75"/>
<polygon fill="#6666ff" stroke="#6666ff" points="107.29,-66.03 115.89,-72.21 113.02,-62.01 107.29,-66.03"/>
</g>
<!-- Mu -->
<g id="node2" class="node">
<title>Mu</title>
<g id="a_node2"><a xlink:href="/type/Mu" xlink:title="Mu">
<ellipse fill="none" stroke="#000000" cx="29.64" cy="-162" rx="27" ry="18"/>
<text text-anchor="middle" x="29.64" y="-158.3" font-family="FreeSans" font-size="14.00" fill="#000000">Mu</text>
</a>
</g>
</g>
<!-- Any&#45;&gt;Mu -->
<g id="edge2" class="edge">
<title>Any&#45;&gt;Mu</title>
<path fill="none" stroke="#000000" d="M29.64,-108.3C29.64,-116.02 29.64,-125.29 29.64,-133.89"/>
<polygon fill="#000000" stroke="#000000" points="26.14,-133.9 29.64,-143.9 33.14,-133.9 26.14,-133.9"/>
</g>
</g>
</svg>
