<?xml version="1.0" encoding="UTF-8" standalone="no"?>
<!DOCTYPE svg PUBLIC "-//W3C//DTD SVG 1.1//EN"
 "http://www.w3.org/Graphics/SVG/1.1/DTD/svg11.dtd">
<!-- Generated by graphviz version 2.43.0 (0)
 -->
<!-- Title: perl6&#45;type&#45;graph Pages: 1 -->
<svg width="494pt" height="332pt"
 viewBox="0.00 0.00 493.69 332.00" xmlns="http://www.w3.org/2000/svg" xmlns:xlink="http://www.w3.org/1999/xlink">
<g id="graph0" class="graph" transform="scale(1 1) rotate(0) translate(4 328)">
<title>perl6&#45;type&#45;graph</title>
<polygon fill="white" stroke="transparent" points="-4,4 -4,-328 489.69,-328 489.69,4 -4,4"/>
<!-- IO::Spec::Unix -->
<g id="node1" class="node">
<title>IO::Spec::Unix</title>
<g id="a_node1"><a xlink:href="/type/IO::Spec::Unix" xlink:title="IO::Spec::Unix">
<ellipse fill="none" stroke="#000000" cx="246.29" cy="-90" rx="67.69" ry="18"/>
<text text-anchor="middle" x="246.29" y="-86.3" font-family="FreeSans" font-size="14.00" fill="#000000">IO::Spec::Unix</text>
</a>
</g>
</g>
<!-- IO::Spec -->
<g id="node4" class="node">
<title>IO::Spec</title>
<g id="a_node4"><a xlink:href="/type/IO::Spec" xlink:title="IO::Spec">
<ellipse fill="none" stroke="#000000" cx="246.29" cy="-162" rx="45.49" ry="18"/>
<text text-anchor="middle" x="246.29" y="-158.3" font-family="FreeSans" font-size="14.00" fill="#000000">IO::Spec</text>
</a>
</g>
</g>
<!-- IO::Spec::Unix&#45;&gt;IO::Spec -->
<g id="edge1" class="edge">
<title>IO::Spec::Unix&#45;&gt;IO::Spec</title>
<path fill="none" stroke="#000000" d="M246.29,-108.3C246.29,-116.02 246.29,-125.29 246.29,-133.89"/>
<polygon fill="#000000" stroke="#000000" points="242.79,-133.9 246.29,-143.9 249.79,-133.9 242.79,-133.9"/>
</g>
<!-- Mu -->
<g id="node2" class="node">
<title>Mu</title>
<g id="a_node2"><a xlink:href="/type/Mu" xlink:title="Mu">
<ellipse fill="none" stroke="#000000" cx="246.29" cy="-306" rx="27" ry="18"/>
<text text-anchor="middle" x="246.29" y="-302.3" font-family="FreeSans" font-size="14.00" fill="#000000">Mu</text>
</a>
</g>
</g>
<!-- Any -->
<g id="node3" class="node">
<title>Any</title>
<g id="a_node3"><a xlink:href="/type/Any" xlink:title="Any">
<ellipse fill="none" stroke="#000000" cx="246.29" cy="-234" rx="27" ry="18"/>
<text text-anchor="middle" x="246.29" y="-230.3" font-family="FreeSans" font-size="14.00" fill="#000000">Any</text>
</a>
</g>
</g>
<!-- Any&#45;&gt;Mu -->
<g id="edge2" class="edge">
<title>Any&#45;&gt;Mu</title>
<path fill="none" stroke="#000000" d="M246.29,-252.3C246.29,-260.02 246.29,-269.29 246.29,-277.89"/>
<polygon fill="#000000" stroke="#000000" points="242.79,-277.9 246.29,-287.9 249.79,-277.9 242.79,-277.9"/>
</g>
<!-- IO::Spec&#45;&gt;Any -->
<g id="edge3" class="edge">
<title>IO::Spec&#45;&gt;Any</title>
<path fill="none" stroke="#000000" d="M246.29,-180.3C246.29,-188.02 246.29,-197.29 246.29,-205.89"/>
<polygon fill="#000000" stroke="#000000" points="242.79,-205.9 246.29,-215.9 249.79,-205.9 242.79,-205.9"/>
</g>
<!-- IO::Spec::Cygwin -->
<g id="node5" class="node">
<title>IO::Spec::Cygwin</title>
<g id="a_node5"><a xlink:href="/type/IO::Spec::Cygwin" xlink:title="IO::Spec::Cygwin">
<ellipse fill="none" stroke="#000000" cx="79.29" cy="-18" rx="79.09" ry="18"/>
<text text-anchor="middle" x="79.29" y="-14.3" font-family="FreeSans" font-size="14.00" fill="#000000">IO::Spec::Cygwin</text>
</a>
</g>
</g>
<!-- IO::Spec::Cygwin&#45;&gt;IO::Spec::Unix -->
<g id="edge4" class="edge">
<title>IO::Spec::Cygwin&#45;&gt;IO::Spec::Unix</title>
<path fill="none" stroke="#000000" d="M115.53,-34.19C141.02,-44.87 175.26,-59.23 202.31,-70.57"/>
<polygon fill="#000000" stroke="#000000" points="200.98,-73.8 211.56,-74.44 203.69,-67.35 200.98,-73.8"/>
</g>
<!-- IO::Spec::QNX -->
<g id="node6" class="node">
<title>IO::Spec::QNX</title>
<g id="a_node6"><a xlink:href="/type/IO::Spec::QNX" xlink:title="IO::Spec::QNX">
<ellipse fill="none" stroke="#000000" cx="246.29" cy="-18" rx="70.39" ry="18"/>
<text text-anchor="middle" x="246.29" y="-14.3" font-family="FreeSans" font-size="14.00" fill="#000000">IO::Spec::QNX</text>
</a>
</g>
</g>
<!-- IO::Spec::QNX&#45;&gt;IO::Spec::Unix -->
<g id="edge5" class="edge">
<title>IO::Spec::QNX&#45;&gt;IO::Spec::Unix</title>
<path fill="none" stroke="#000000" d="M246.29,-36.3C246.29,-44.02 246.29,-53.29 246.29,-61.89"/>
<polygon fill="#000000" stroke="#000000" points="242.79,-61.9 246.29,-71.9 249.79,-61.9 242.79,-61.9"/>
</g>
<!-- IO::Spec::Win32 -->
<g id="node7" class="node">
<title>IO::Spec::Win32</title>
<g id="a_node7"><a xlink:href="/type/IO::Spec::Win32" xlink:title="IO::Spec::Win32">
<ellipse fill="none" stroke="#000000" cx="410.29" cy="-18" rx="75.29" ry="18"/>
<text text-anchor="middle" x="410.29" y="-14.3" font-family="FreeSans" font-size="14.00" fill="#000000">IO::Spec::Win32</text>
</a>
</g>
</g>
<!-- IO::Spec::Win32&#45;&gt;IO::Spec::Unix -->
<g id="edge6" class="edge">
<title>IO::Spec::Win32&#45;&gt;IO::Spec::Unix</title>
<path fill="none" stroke="#000000" d="M375.11,-34.02C350.22,-44.64 316.66,-58.97 290.04,-70.33"/>
<polygon fill="#000000" stroke="#000000" points="288.4,-67.22 280.57,-74.37 291.14,-73.66 288.4,-67.22"/>
</g>
</g>
</svg>
