<?xml version="1.0" encoding="UTF-8" standalone="no"?>
<!DOCTYPE svg PUBLIC "-//W3C//DTD SVG 1.1//EN"
 "http://www.w3.org/Graphics/SVG/1.1/DTD/svg11.dtd">
<!-- Generated by graphviz version 2.43.0 (0)
 -->
<!-- Title: perl6&#45;type&#45;graph Pages: 1 -->
<svg width="159pt" height="332pt"
 viewBox="0.00 0.00 158.79 332.00" xmlns="http://www.w3.org/2000/svg" xmlns:xlink="http://www.w3.org/1999/xlink">
<g id="graph0" class="graph" transform="scale(1 1) rotate(0) translate(4 328)">
<title>perl6&#45;type&#45;graph</title>
<polygon fill="white" stroke="transparent" points="-4,4 -4,-328 154.79,-328 154.79,4 -4,4"/>
<!-- IO::Spec::Win32 -->
<g id="node1" class="node">
<title>IO::Spec::Win32</title>
<g id="a_node1"><a xlink:href="/type/IO::Spec::Win32" xlink:title="IO::Spec::Win32">
<ellipse fill="none" stroke="#000000" cx="75.39" cy="-18" rx="75.29" ry="18"/>
<text text-anchor="middle" x="75.39" y="-14.3" font-family="FreeSans" font-size="14.00" fill="#000000">IO::Spec::Win32</text>
</a>
</g>
</g>
<!-- IO::Spec::Unix -->
<g id="node5" class="node">
<title>IO::Spec::Unix</title>
<g id="a_node5"><a xlink:href="/type/IO::Spec::Unix" xlink:title="IO::Spec::Unix">
<ellipse fill="none" stroke="#000000" cx="75.39" cy="-90" rx="67.69" ry="18"/>
<text text-anchor="middle" x="75.39" y="-86.3" font-family="FreeSans" font-size="14.00" fill="#000000">IO::Spec::Unix</text>
</a>
</g>
</g>
<!-- IO::Spec::Win32&#45;&gt;IO::Spec::Unix -->
<g id="edge1" class="edge">
<title>IO::Spec::Win32&#45;&gt;IO::Spec::Unix</title>
<path fill="none" stroke="#000000" d="M75.39,-36.3C75.39,-44.02 75.39,-53.29 75.39,-61.89"/>
<polygon fill="#000000" stroke="#000000" points="71.89,-61.9 75.39,-71.9 78.89,-61.9 71.89,-61.9"/>
</g>
<!-- Mu -->
<g id="node2" class="node">
<title>Mu</title>
<g id="a_node2"><a xlink:href="/type/Mu" xlink:title="Mu">
<ellipse fill="none" stroke="#000000" cx="75.39" cy="-306" rx="27" ry="18"/>
<text text-anchor="middle" x="75.39" y="-302.3" font-family="FreeSans" font-size="14.00" fill="#000000">Mu</text>
</a>
</g>
</g>
<!-- Any -->
<g id="node3" class="node">
<title>Any</title>
<g id="a_node3"><a xlink:href="/type/Any" xlink:title="Any">
<ellipse fill="none" stroke="#000000" cx="75.39" cy="-234" rx="27" ry="18"/>
<text text-anchor="middle" x="75.39" y="-230.3" font-family="FreeSans" font-size="14.00" fill="#000000">Any</text>
</a>
</g>
</g>
<!-- Any&#45;&gt;Mu -->
<g id="edge2" class="edge">
<title>Any&#45;&gt;Mu</title>
<path fill="none" stroke="#000000" d="M75.39,-252.3C75.39,-260.02 75.39,-269.29 75.39,-277.89"/>
<polygon fill="#000000" stroke="#000000" points="71.89,-277.9 75.39,-287.9 78.89,-277.9 71.89,-277.9"/>
</g>
<!-- IO::Spec -->
<g id="node4" class="node">
<title>IO::Spec</title>
<g id="a_node4"><a xlink:href="/type/IO::Spec" xlink:title="IO::Spec">
<ellipse fill="none" stroke="#000000" cx="75.39" cy="-162" rx="45.49" ry="18"/>
<text text-anchor="middle" x="75.39" y="-158.3" font-family="FreeSans" font-size="14.00" fill="#000000">IO::Spec</text>
</a>
</g>
</g>
<!-- IO::Spec&#45;&gt;Any -->
<g id="edge3" class="edge">
<title>IO::Spec&#45;&gt;Any</title>
<path fill="none" stroke="#000000" d="M75.39,-180.3C75.39,-188.02 75.39,-197.29 75.39,-205.89"/>
<polygon fill="#000000" stroke="#000000" points="71.89,-205.9 75.39,-215.9 78.89,-205.9 71.89,-205.9"/>
</g>
<!-- IO::Spec::Unix&#45;&gt;IO::Spec -->
<g id="edge4" class="edge">
<title>IO::Spec::Unix&#45;&gt;IO::Spec</title>
<path fill="none" stroke="#000000" d="M75.39,-108.3C75.39,-116.02 75.39,-125.29 75.39,-133.89"/>
<polygon fill="#000000" stroke="#000000" points="71.89,-133.9 75.39,-143.9 78.89,-133.9 71.89,-133.9"/>
</g>
</g>
</svg>
