<?xml version="1.0" encoding="UTF-8" standalone="no"?>
<!DOCTYPE svg PUBLIC "-//W3C//DTD SVG 1.1//EN"
 "http://www.w3.org/Graphics/SVG/1.1/DTD/svg11.dtd">
<!-- Generated by graphviz version 2.43.0 (0)
 -->
<!-- Title: perl6&#45;type&#45;graph Pages: 1 -->
<svg width="685pt" height="404pt"
 viewBox="0.00 0.00 684.94 404.00" xmlns="http://www.w3.org/2000/svg" xmlns:xlink="http://www.w3.org/1999/xlink">
<g id="graph0" class="graph" transform="scale(1 1) rotate(0) translate(4 400)">
<title>perl6&#45;type&#45;graph</title>
<polygon fill="white" stroke="transparent" points="-4,4 -4,-400 680.94,-400 680.94,4 -4,4"/>
<!-- Iterable -->
<g id="node1" class="node">
<title>Iterable</title>
<g id="a_node1"><a xlink:href="/type/Iterable" xlink:title="Iterable">
<ellipse fill="none" stroke="#6666ff" cx="411.89" cy="-234" rx="40.09" ry="18"/>
<text text-anchor="middle" x="411.89" y="-230.3" font-family="FreeSans" font-size="14.00" fill="#6666ff">Iterable</text>
</a>
</g>
</g>
<!-- Mu -->
<g id="node2" class="node">
<title>Mu</title>
<g id="a_node2"><a xlink:href="/type/Mu" xlink:title="Mu">
<ellipse fill="none" stroke="#000000" cx="370.89" cy="-378" rx="27" ry="18"/>
<text text-anchor="middle" x="370.89" y="-374.3" font-family="FreeSans" font-size="14.00" fill="#000000">Mu</text>
</a>
</g>
</g>
<!-- Any -->
<g id="node3" class="node">
<title>Any</title>
<g id="a_node3"><a xlink:href="/type/Any" xlink:title="Any">
<ellipse fill="none" stroke="#000000" cx="370.89" cy="-306" rx="27" ry="18"/>
<text text-anchor="middle" x="370.89" y="-302.3" font-family="FreeSans" font-size="14.00" fill="#000000">Any</text>
</a>
</g>
</g>
<!-- Any&#45;&gt;Mu -->
<g id="edge1" class="edge">
<title>Any&#45;&gt;Mu</title>
<path fill="none" stroke="#000000" d="M370.89,-324.3C370.89,-332.02 370.89,-341.29 370.89,-349.89"/>
<polygon fill="#000000" stroke="#000000" points="367.39,-349.9 370.89,-359.9 374.39,-349.9 367.39,-349.9"/>
</g>
<!-- PositionalBindFailover -->
<g id="node4" class="node">
<title>PositionalBindFailover</title>
<g id="a_node4"><a xlink:href="/type/PositionalBindFailover" xlink:title="PositionalBindFailover">
<ellipse fill="none" stroke="#6666ff" cx="557.89" cy="-306" rx="97.48" ry="18"/>
<text text-anchor="middle" x="557.89" y="-302.3" font-family="FreeSans" font-size="14.00" fill="#6666ff">PositionalBindFailover</text>
</a>
</g>
</g>
<!-- Sequence -->
<g id="node5" class="node">
<title>Sequence</title>
<g id="a_node5"><a xlink:href="/type/Sequence" xlink:title="Sequence">
<ellipse fill="none" stroke="#6666ff" cx="557.89" cy="-234" rx="50.09" ry="18"/>
<text text-anchor="middle" x="557.89" y="-230.3" font-family="FreeSans" font-size="14.00" fill="#6666ff">Sequence</text>
</a>
</g>
</g>
<!-- Sequence&#45;&gt;PositionalBindFailover -->
<g id="edge15" class="edge">
<title>Sequence&#45;&gt;PositionalBindFailover</title>
<path fill="none" stroke="#6666ff" d="M557.89,-252.3C557.89,-260.02 557.89,-269.29 557.89,-277.89"/>
<polygon fill="#6666ff" stroke="#6666ff" points="554.39,-277.9 557.89,-287.9 561.39,-277.9 554.39,-277.9"/>
</g>
<!-- RaceSeq -->
<g id="node6" class="node">
<title>RaceSeq</title>
<g id="a_node6"><a xlink:href="/type/RaceSeq" xlink:title="RaceSeq">
<ellipse fill="none" stroke="#000000" cx="511.89" cy="-162" rx="46.59" ry="18"/>
<text text-anchor="middle" x="511.89" y="-158.3" font-family="FreeSans" font-size="14.00" fill="#000000">RaceSeq</text>
</a>
</g>
</g>
<!-- RaceSeq&#45;&gt;Iterable -->
<g id="edge16" class="edge">
<title>RaceSeq&#45;&gt;Iterable</title>
<path fill="none" stroke="#6666ff" d="M490.2,-178.19C475.85,-188.23 456.87,-201.52 441.19,-212.5"/>
<polygon fill="#6666ff" stroke="#6666ff" points="439.05,-209.72 432.86,-218.32 443.06,-215.45 439.05,-209.72"/>
</g>
<!-- RaceSeq&#45;&gt;Any -->
<g id="edge2" class="edge">
<title>RaceSeq&#45;&gt;Any</title>
<path fill="none" stroke="#000000" d="M502.3,-179.74C487.53,-205.52 460.89,-252 460.89,-252 460.89,-252 425.68,-272.73 399.31,-288.27"/>
<polygon fill="#000000" stroke="#000000" points="397.26,-285.41 390.42,-293.5 400.82,-291.44 397.26,-285.41"/>
</g>
<!-- RaceSeq&#45;&gt;Sequence -->
<g id="edge17" class="edge">
<title>RaceSeq&#45;&gt;Sequence</title>
<path fill="none" stroke="#6666ff" d="M522.8,-179.59C528.27,-187.92 535.03,-198.2 541.14,-207.51"/>
<polygon fill="#6666ff" stroke="#6666ff" points="538.33,-209.61 546.75,-216.04 544.18,-205.76 538.33,-209.61"/>
</g>
<!-- Cool -->
<g id="node7" class="node">
<title>Cool</title>
<g id="a_node7"><a xlink:href="/type/Cool" xlink:title="Cool">
<ellipse fill="none" stroke="#000000" cx="324.89" cy="-234" rx="28.7" ry="18"/>
<text text-anchor="middle" x="324.89" y="-230.3" font-family="FreeSans" font-size="14.00" fill="#000000">Cool</text>
</a>
</g>
</g>
<!-- Cool&#45;&gt;Any -->
<g id="edge3" class="edge">
<title>Cool&#45;&gt;Any</title>
<path fill="none" stroke="#000000" d="M335.33,-250.88C341.1,-259.66 348.38,-270.74 354.85,-280.58"/>
<polygon fill="#000000" stroke="#000000" points="352.08,-282.74 360.5,-289.18 357.93,-278.9 352.08,-282.74"/>
</g>
<!-- Positional -->
<g id="node8" class="node">
<title>Positional</title>
<g id="a_node8"><a xlink:href="/type/Positional" xlink:title="Positional">
<ellipse fill="none" stroke="#6666ff" cx="229.89" cy="-234" rx="48.99" ry="18"/>
<text text-anchor="middle" x="229.89" y="-230.3" font-family="FreeSans" font-size="14.00" fill="#6666ff">Positional</text>
</a>
</g>
</g>
<!-- List -->
<g id="node9" class="node">
<title>List</title>
<g id="a_node9"><a xlink:href="/type/List" xlink:title="List">
<ellipse fill="none" stroke="#000000" cx="347.89" cy="-162" rx="27" ry="18"/>
<text text-anchor="middle" x="347.89" y="-158.3" font-family="FreeSans" font-size="14.00" fill="#000000">List</text>
</a>
</g>
</g>
<!-- List&#45;&gt;Iterable -->
<g id="edge19" class="edge">
<title>List&#45;&gt;Iterable</title>
<path fill="none" stroke="#6666ff" d="M361.47,-177.85C369.77,-186.93 380.59,-198.76 390.07,-209.13"/>
<polygon fill="#6666ff" stroke="#6666ff" points="387.67,-211.69 397,-216.71 392.84,-206.97 387.67,-211.69"/>
</g>
<!-- List&#45;&gt;Cool -->
<g id="edge4" class="edge">
<title>List&#45;&gt;Cool</title>
<path fill="none" stroke="#000000" d="M342.33,-179.95C339.7,-187.94 336.5,-197.67 333.57,-206.6"/>
<polygon fill="#000000" stroke="#000000" points="330.21,-205.62 330.41,-216.21 336.86,-207.8 330.21,-205.62"/>
</g>
<!-- List&#45;&gt;Positional -->
<g id="edge18" class="edge">
<title>List&#45;&gt;Positional</title>
<path fill="none" stroke="#6666ff" d="M328.41,-174.56C310.77,-185.02 284.4,-200.66 263.39,-213.13"/>
<polygon fill="#6666ff" stroke="#6666ff" points="261.56,-210.14 254.75,-218.26 265.13,-216.16 261.56,-210.14"/>
</g>
<!-- Seq -->
<g id="node10" class="node">
<title>Seq</title>
<g id="a_node10"><a xlink:href="/type/Seq" xlink:title="Seq">
<ellipse fill="none" stroke="#000000" cx="419.89" cy="-162" rx="27" ry="18"/>
<text text-anchor="middle" x="419.89" y="-158.3" font-family="FreeSans" font-size="14.00" fill="#000000">Seq</text>
</a>
</g>
</g>
<!-- Seq&#45;&gt;Iterable -->
<g id="edge20" class="edge">
<title>Seq&#45;&gt;Iterable</title>
<path fill="none" stroke="#6666ff" d="M417.92,-180.3C417.03,-188.02 415.98,-197.29 414.99,-205.89"/>
<polygon fill="#6666ff" stroke="#6666ff" points="411.51,-205.56 413.85,-215.9 418.46,-206.36 411.51,-205.56"/>
</g>
<!-- Seq&#45;&gt;Sequence -->
<g id="edge21" class="edge">
<title>Seq&#45;&gt;Sequence</title>
<path fill="none" stroke="#6666ff" d="M440.85,-173.63C462.07,-184.4 495.33,-201.26 520.98,-214.27"/>
<polygon fill="#6666ff" stroke="#6666ff" points="519.54,-217.47 530.05,-218.87 522.71,-211.23 519.54,-217.47"/>
</g>
<!-- Seq&#45;&gt;Cool -->
<g id="edge5" class="edge">
<title>Seq&#45;&gt;Cool</title>
<path fill="none" stroke="#000000" d="M402.47,-175.84C388.06,-186.46 367.36,-201.71 350.98,-213.78"/>
<polygon fill="#000000" stroke="#000000" points="348.83,-211.02 342.85,-219.77 352.98,-216.65 348.83,-211.02"/>
</g>
<!-- Associative -->
<g id="node11" class="node">
<title>Associative</title>
<g id="a_node11"><a xlink:href="/type/Associative" xlink:title="Associative">
<ellipse fill="none" stroke="#6666ff" cx="107.89" cy="-234" rx="55.49" ry="18"/>
<text text-anchor="middle" x="107.89" y="-230.3" font-family="FreeSans" font-size="14.00" fill="#6666ff">Associative</text>
</a>
</g>
</g>
<!-- Map -->
<g id="node12" class="node">
<title>Map</title>
<g id="a_node12"><a xlink:href="/type/Map" xlink:title="Map">
<ellipse fill="none" stroke="#000000" cx="183.89" cy="-162" rx="28.7" ry="18"/>
<text text-anchor="middle" x="183.89" y="-158.3" font-family="FreeSans" font-size="14.00" fill="#000000">Map</text>
</a>
</g>
</g>
<!-- Map&#45;&gt;Iterable -->
<g id="edge22" class="edge">
<title>Map&#45;&gt;Iterable</title>
<path fill="none" stroke="#6666ff" d="M206.44,-173.09C214.62,-176.75 221.89,-180 221.89,-180 221.89,-180 362.89,-216 362.89,-216 362.89,-216 366.34,-217.2 371.41,-218.95"/>
<polygon fill="#6666ff" stroke="#6666ff" points="370.54,-222.36 381.14,-222.33 372.84,-215.75 370.54,-222.36"/>
</g>
<!-- Map&#45;&gt;Cool -->
<g id="edge6" class="edge">
<title>Map&#45;&gt;Cool</title>
<path fill="none" stroke="#000000" d="M205.62,-173.78C229.15,-185.47 266.89,-204.21 293.62,-217.47"/>
<polygon fill="#000000" stroke="#000000" points="292.4,-220.78 302.91,-222.09 295.51,-214.51 292.4,-220.78"/>
</g>
<!-- Map&#45;&gt;Associative -->
<g id="edge23" class="edge">
<title>Map&#45;&gt;Associative</title>
<path fill="none" stroke="#6666ff" d="M168.15,-177.5C158.04,-186.81 144.7,-199.1 133.14,-209.75"/>
<polygon fill="#6666ff" stroke="#6666ff" points="130.46,-207.45 125.48,-216.8 135.21,-212.6 130.46,-207.45"/>
</g>
<!-- IO::Path::Parts -->
<g id="node13" class="node">
<title>IO::Path::Parts</title>
<g id="a_node13"><a xlink:href="/type/IO::Path::Parts" xlink:title="IO::Path::Parts">
<ellipse fill="none" stroke="#000000" cx="68.89" cy="-162" rx="68.79" ry="18"/>
<text text-anchor="middle" x="68.89" y="-158.3" font-family="FreeSans" font-size="14.00" fill="#000000">IO::Path::Parts</text>
</a>
</g>
</g>
<!-- IO::Path::Parts&#45;&gt;Iterable -->
<g id="edge26" class="edge">
<title>IO::Path::Parts&#45;&gt;Iterable</title>
<path fill="none" stroke="#6666ff" d="M119.83,-174.24C134.14,-177.41 145.89,-180 145.89,-180 145.89,-180 362.89,-216 362.89,-216 362.89,-216 366.34,-217.2 371.41,-218.95"/>
<polygon fill="#6666ff" stroke="#6666ff" points="370.54,-222.36 381.14,-222.33 372.84,-215.75 370.54,-222.36"/>
</g>
<!-- IO::Path::Parts&#45;&gt;Any -->
<g id="edge7" class="edge">
<title>IO::Path::Parts&#45;&gt;Any</title>
<path fill="none" stroke="#000000" d="M60.85,-180.06C53.54,-195.55 43.89,-216 43.89,-216 43.89,-216 43.89,-252 43.89,-252 43.89,-252 250.06,-285.42 334.99,-299.18"/>
<polygon fill="#000000" stroke="#000000" points="334.53,-302.65 344.96,-300.8 335.65,-295.74 334.53,-302.65"/>
</g>
<!-- IO::Path::Parts&#45;&gt;Positional -->
<g id="edge24" class="edge">
<title>IO::Path::Parts&#45;&gt;Positional</title>
<path fill="none" stroke="#6666ff" d="M103.04,-177.85C128.52,-188.93 163.41,-204.09 190.15,-215.72"/>
<polygon fill="#6666ff" stroke="#6666ff" points="189.03,-219.05 199.6,-219.83 191.82,-212.63 189.03,-219.05"/>
</g>
<!-- IO::Path::Parts&#45;&gt;Associative -->
<g id="edge25" class="edge">
<title>IO::Path::Parts&#45;&gt;Associative</title>
<path fill="none" stroke="#6666ff" d="M78.33,-179.95C82.93,-188.2 88.56,-198.3 93.67,-207.46"/>
<polygon fill="#6666ff" stroke="#6666ff" points="90.62,-209.18 98.54,-216.21 96.73,-205.77 90.62,-209.18"/>
</g>
<!-- Range -->
<g id="node14" class="node">
<title>Range</title>
<g id="a_node14"><a xlink:href="/type/Range" xlink:title="Range">
<ellipse fill="none" stroke="#000000" cx="266.89" cy="-162" rx="36.29" ry="18"/>
<text text-anchor="middle" x="266.89" y="-158.3" font-family="FreeSans" font-size="14.00" fill="#000000">Range</text>
</a>
</g>
</g>
<!-- Range&#45;&gt;Iterable -->
<g id="edge28" class="edge">
<title>Range&#45;&gt;Iterable</title>
<path fill="none" stroke="#6666ff" d="M292.15,-175.19C315.42,-186.43 350.19,-203.21 376.28,-215.81"/>
<polygon fill="#6666ff" stroke="#6666ff" points="374.93,-219.04 385.46,-220.24 377.97,-212.74 374.93,-219.04"/>
</g>
<!-- Range&#45;&gt;Cool -->
<g id="edge8" class="edge">
<title>Range&#45;&gt;Cool</title>
<path fill="none" stroke="#000000" d="M280.05,-178.88C287.65,-188.05 297.34,-199.74 305.76,-209.91"/>
<polygon fill="#000000" stroke="#000000" points="303.11,-212.19 312.18,-217.66 308.5,-207.73 303.11,-212.19"/>
</g>
<!-- Range&#45;&gt;Positional -->
<g id="edge27" class="edge">
<title>Range&#45;&gt;Positional</title>
<path fill="none" stroke="#6666ff" d="M258.13,-179.59C253.81,-187.75 248.51,-197.78 243.67,-206.93"/>
<polygon fill="#6666ff" stroke="#6666ff" points="240.44,-205.57 238.86,-216.04 246.62,-208.84 240.44,-205.57"/>
</g>
<!-- HyperSeq -->
<g id="node15" class="node">
<title>HyperSeq</title>
<g id="a_node15"><a xlink:href="/type/HyperSeq" xlink:title="HyperSeq">
<ellipse fill="none" stroke="#000000" cx="626.89" cy="-162" rx="50.09" ry="18"/>
<text text-anchor="middle" x="626.89" y="-158.3" font-family="FreeSans" font-size="14.00" fill="#000000">HyperSeq</text>
</a>
</g>
</g>
<!-- HyperSeq&#45;&gt;Iterable -->
<g id="edge29" class="edge">
<title>HyperSeq&#45;&gt;Iterable</title>
<path fill="none" stroke="#6666ff" d="M590.91,-174.72C552.89,-187.09 493.03,-206.58 453.13,-219.57"/>
<polygon fill="#6666ff" stroke="#6666ff" points="451.87,-216.3 443.44,-222.73 454.03,-222.96 451.87,-216.3"/>
</g>
<!-- HyperSeq&#45;&gt;Any -->
<g id="edge9" class="edge">
<title>HyperSeq&#45;&gt;Any</title>
<path fill="none" stroke="#000000" d="M624.97,-180.16C622.06,-206.02 616.89,-252 616.89,-252 616.89,-252 474.18,-282.75 406.15,-297.4"/>
<polygon fill="#000000" stroke="#000000" points="405.33,-294 396.29,-299.53 406.81,-300.84 405.33,-294"/>
</g>
<!-- HyperSeq&#45;&gt;Sequence -->
<g id="edge30" class="edge">
<title>HyperSeq&#45;&gt;Sequence</title>
<path fill="none" stroke="#6666ff" d="M610.89,-179.24C602.01,-188.25 590.8,-199.61 580.99,-209.57"/>
<polygon fill="#6666ff" stroke="#6666ff" points="578.34,-207.27 573.81,-216.85 583.32,-212.19 578.34,-207.27"/>
</g>
<!-- Array -->
<g id="node16" class="node">
<title>Array</title>
<g id="a_node16"><a xlink:href="/type/Array" xlink:title="Array">
<ellipse fill="none" stroke="#000000" cx="326.89" cy="-90" rx="31.7" ry="18"/>
<text text-anchor="middle" x="326.89" y="-86.3" font-family="FreeSans" font-size="14.00" fill="#000000">Array</text>
</a>
</g>
</g>
<!-- Array&#45;&gt;List -->
<g id="edge10" class="edge">
<title>Array&#45;&gt;List</title>
<path fill="none" stroke="#000000" d="M331.98,-107.95C334.38,-115.94 337.29,-125.67 339.97,-134.6"/>
<polygon fill="#000000" stroke="#000000" points="336.63,-135.64 342.86,-144.21 343.34,-133.63 336.63,-135.64"/>
</g>
<!-- Slip -->
<g id="node17" class="node">
<title>Slip</title>
<g id="a_node17"><a xlink:href="/type/Slip" xlink:title="Slip">
<ellipse fill="none" stroke="#000000" cx="403.89" cy="-90" rx="27" ry="18"/>
<text text-anchor="middle" x="403.89" y="-86.3" font-family="FreeSans" font-size="14.00" fill="#000000">Slip</text>
</a>
</g>
</g>
<!-- Slip&#45;&gt;List -->
<g id="edge11" class="edge">
<title>Slip&#45;&gt;List</title>
<path fill="none" stroke="#000000" d="M391.74,-106.19C384.33,-115.45 374.71,-127.48 366.37,-137.91"/>
<polygon fill="#000000" stroke="#000000" points="363.54,-135.85 360.02,-145.84 369,-140.22 363.54,-135.85"/>
</g>
<!-- PseudoStash -->
<g id="node18" class="node">
<title>PseudoStash</title>
<g id="a_node18"><a xlink:href="/type/PseudoStash" xlink:title="PseudoStash">
<ellipse fill="none" stroke="#000000" cx="92.89" cy="-90" rx="63.09" ry="18"/>
<text text-anchor="middle" x="92.89" y="-86.3" font-family="FreeSans" font-size="14.00" fill="#000000">PseudoStash</text>
</a>
</g>
</g>
<!-- PseudoStash&#45;&gt;Map -->
<g id="edge12" class="edge">
<title>PseudoStash&#45;&gt;Map</title>
<path fill="none" stroke="#000000" d="M114,-107.24C127.22,-117.4 144.34,-130.57 158.32,-141.33"/>
<polygon fill="#000000" stroke="#000000" points="156.5,-144.35 166.56,-147.67 160.77,-138.8 156.5,-144.35"/>
</g>
<!-- Hash -->
<g id="node19" class="node">
<title>Hash</title>
<g id="a_node19"><a xlink:href="/type/Hash" xlink:title="Hash">
<ellipse fill="none" stroke="#000000" cx="204.89" cy="-90" rx="31.4" ry="18"/>
<text text-anchor="middle" x="204.89" y="-86.3" font-family="FreeSans" font-size="14.00" fill="#000000">Hash</text>
</a>
</g>
</g>
<!-- Hash&#45;&gt;Map -->
<g id="edge13" class="edge">
<title>Hash&#45;&gt;Map</title>
<path fill="none" stroke="#000000" d="M199.81,-107.95C197.41,-115.94 194.49,-125.67 191.81,-134.6"/>
<polygon fill="#000000" stroke="#000000" points="188.45,-133.63 188.93,-144.21 195.16,-135.64 188.45,-133.63"/>
</g>
<!-- Stash -->
<g id="node20" class="node">
<title>Stash</title>
<g id="a_node20"><a xlink:href="/type/Stash" xlink:title="Stash">
<ellipse fill="none" stroke="#000000" cx="204.89" cy="-18" rx="33.29" ry="18"/>
<text text-anchor="middle" x="204.89" y="-14.3" font-family="FreeSans" font-size="14.00" fill="#000000">Stash</text>
</a>
</g>
</g>
<!-- Stash&#45;&gt;Hash -->
<g id="edge14" class="edge">
<title>Stash&#45;&gt;Hash</title>
<path fill="none" stroke="#000000" d="M204.89,-36.3C204.89,-44.02 204.89,-53.29 204.89,-61.89"/>
<polygon fill="#000000" stroke="#000000" points="201.39,-61.9 204.89,-71.9 208.39,-61.9 201.39,-61.9"/>
</g>
</g>
</svg>
