<?xml version="1.0" encoding="UTF-8" standalone="no"?>
<!DOCTYPE svg PUBLIC "-//W3C//DTD SVG 1.1//EN"
 "http://www.w3.org/Graphics/SVG/1.1/DTD/svg11.dtd">
<!-- Generated by graphviz version 2.43.0 (0)
 -->
<!-- Title: perl6&#45;type&#45;graph Pages: 1 -->
<svg width="164pt" height="404pt"
 viewBox="0.00 0.00 164.25 404.00" xmlns="http://www.w3.org/2000/svg" xmlns:xlink="http://www.w3.org/1999/xlink">
<g id="graph0" class="graph" transform="scale(1 1) rotate(0) translate(4 400)">
<title>perl6&#45;type&#45;graph</title>
<polygon fill="white" stroke="transparent" points="-4,4 -4,-400 160.25,-400 160.25,4 -4,4"/>
<!-- Macro -->
<g id="node1" class="node">
<title>Macro</title>
<g id="a_node1"><a xlink:href="/type/Macro" xlink:title="Macro">
<ellipse fill="none" stroke="#000000" cx="70" cy="-18" rx="36" ry="18"/>
<text text-anchor="middle" x="70" y="-14.3" font-family="FreeSans" font-size="14.00" fill="#000000">Macro</text>
</a>
</g>
</g>
<!-- Routine -->
<g id="node7" class="node">
<title>Routine</title>
<g id="a_node7"><a xlink:href="/type/Routine" xlink:title="Routine">
<ellipse fill="none" stroke="#000000" cx="70" cy="-90" rx="40.89" ry="18"/>
<text text-anchor="middle" x="70" y="-86.3" font-family="FreeSans" font-size="14.00" fill="#000000">Routine</text>
</a>
</g>
</g>
<!-- Macro&#45;&gt;Routine -->
<g id="edge1" class="edge">
<title>Macro&#45;&gt;Routine</title>
<path fill="none" stroke="#000000" d="M70,-36.3C70,-44.02 70,-53.29 70,-61.89"/>
<polygon fill="#000000" stroke="#000000" points="66.5,-61.9 70,-71.9 73.5,-61.9 66.5,-61.9"/>
</g>
<!-- Mu -->
<g id="node2" class="node">
<title>Mu</title>
<g id="a_node2"><a xlink:href="/type/Mu" xlink:title="Mu">
<ellipse fill="none" stroke="#000000" cx="27" cy="-378" rx="27" ry="18"/>
<text text-anchor="middle" x="27" y="-374.3" font-family="FreeSans" font-size="14.00" fill="#000000">Mu</text>
</a>
</g>
</g>
<!-- Any -->
<g id="node3" class="node">
<title>Any</title>
<g id="a_node3"><a xlink:href="/type/Any" xlink:title="Any">
<ellipse fill="none" stroke="#000000" cx="27" cy="-306" rx="27" ry="18"/>
<text text-anchor="middle" x="27" y="-302.3" font-family="FreeSans" font-size="14.00" fill="#000000">Any</text>
</a>
</g>
</g>
<!-- Any&#45;&gt;Mu -->
<g id="edge2" class="edge">
<title>Any&#45;&gt;Mu</title>
<path fill="none" stroke="#000000" d="M27,-324.3C27,-332.02 27,-341.29 27,-349.89"/>
<polygon fill="#000000" stroke="#000000" points="23.5,-349.9 27,-359.9 30.5,-349.9 23.5,-349.9"/>
</g>
<!-- Callable -->
<g id="node4" class="node">
<title>Callable</title>
<g id="a_node4"><a xlink:href="/type/Callable" xlink:title="Callable">
<ellipse fill="none" stroke="#6666ff" cx="114" cy="-306" rx="42.49" ry="18"/>
<text text-anchor="middle" x="114" y="-302.3" font-family="FreeSans" font-size="14.00" fill="#6666ff">Callable</text>
</a>
</g>
</g>
<!-- Code -->
<g id="node5" class="node">
<title>Code</title>
<g id="a_node5"><a xlink:href="/type/Code" xlink:title="Code">
<ellipse fill="none" stroke="#000000" cx="70" cy="-234" rx="31.7" ry="18"/>
<text text-anchor="middle" x="70" y="-230.3" font-family="FreeSans" font-size="14.00" fill="#000000">Code</text>
</a>
</g>
</g>
<!-- Code&#45;&gt;Any -->
<g id="edge3" class="edge">
<title>Code&#45;&gt;Any</title>
<path fill="none" stroke="#000000" d="M60.03,-251.24C54.76,-259.81 48.19,-270.51 42.3,-280.1"/>
<polygon fill="#000000" stroke="#000000" points="39.17,-278.5 36.92,-288.85 45.14,-282.16 39.17,-278.5"/>
</g>
<!-- Code&#45;&gt;Callable -->
<g id="edge6" class="edge">
<title>Code&#45;&gt;Callable</title>
<path fill="none" stroke="#6666ff" d="M80.21,-251.24C85.51,-259.68 92.13,-270.2 98.09,-279.69"/>
<polygon fill="#6666ff" stroke="#6666ff" points="95.26,-281.76 103.54,-288.37 101.19,-278.04 95.26,-281.76"/>
</g>
<!-- Block -->
<g id="node6" class="node">
<title>Block</title>
<g id="a_node6"><a xlink:href="/type/Block" xlink:title="Block">
<ellipse fill="none" stroke="#000000" cx="70" cy="-162" rx="32.49" ry="18"/>
<text text-anchor="middle" x="70" y="-158.3" font-family="FreeSans" font-size="14.00" fill="#000000">Block</text>
</a>
</g>
</g>
<!-- Block&#45;&gt;Code -->
<g id="edge4" class="edge">
<title>Block&#45;&gt;Code</title>
<path fill="none" stroke="#000000" d="M70,-180.3C70,-188.02 70,-197.29 70,-205.89"/>
<polygon fill="#000000" stroke="#000000" points="66.5,-205.9 70,-215.9 73.5,-205.9 66.5,-205.9"/>
</g>
<!-- Routine&#45;&gt;Block -->
<g id="edge5" class="edge">
<title>Routine&#45;&gt;Block</title>
<path fill="none" stroke="#000000" d="M70,-108.3C70,-116.02 70,-125.29 70,-133.89"/>
<polygon fill="#000000" stroke="#000000" points="66.5,-133.9 70,-143.9 73.5,-133.9 66.5,-133.9"/>
</g>
</g>
</svg>
