<?xml version="1.0" encoding="UTF-8" standalone="no"?>
<!DOCTYPE svg PUBLIC "-//W3C//DTD SVG 1.1//EN"
 "http://www.w3.org/Graphics/SVG/1.1/DTD/svg11.dtd">
<!-- Generated by graphviz version 2.43.0 (0)
 -->
<!-- Title: perl6&#45;type&#45;graph Pages: 1 -->
<svg width="296pt" height="404pt"
 viewBox="0.00 0.00 296.29 404.00" xmlns="http://www.w3.org/2000/svg" xmlns:xlink="http://www.w3.org/1999/xlink">
<g id="graph0" class="graph" transform="scale(1 1) rotate(0) translate(4 400)">
<title>perl6&#45;type&#45;graph</title>
<polygon fill="white" stroke="transparent" points="-4,4 -4,-400 292.29,-400 292.29,4 -4,4"/>
<!-- Map -->
<g id="node1" class="node">
<title>Map</title>
<g id="a_node1"><a xlink:href="/type/Map" xlink:title="Map">
<ellipse fill="none" stroke="#000000" cx="119.04" cy="-162" rx="28.7" ry="18"/>
<text text-anchor="middle" x="119.04" y="-158.3" font-family="FreeSans" font-size="14.00" fill="#000000">Map</text>
</a>
</g>
</g>
<!-- Cool -->
<g id="node4" class="node">
<title>Cool</title>
<g id="a_node4"><a xlink:href="/type/Cool" xlink:title="Cool">
<ellipse fill="none" stroke="#000000" cx="32.04" cy="-234" rx="28.7" ry="18"/>
<text text-anchor="middle" x="32.04" y="-230.3" font-family="FreeSans" font-size="14.00" fill="#000000">Cool</text>
</a>
</g>
</g>
<!-- Map&#45;&gt;Cool -->
<g id="edge1" class="edge">
<title>Map&#45;&gt;Cool</title>
<path fill="none" stroke="#000000" d="M101.86,-176.83C89.02,-187.15 71.3,-201.42 56.92,-212.99"/>
<polygon fill="#000000" stroke="#000000" points="54.5,-210.44 48.9,-219.44 58.89,-215.9 54.5,-210.44"/>
</g>
<!-- Iterable -->
<g id="node5" class="node">
<title>Iterable</title>
<g id="a_node5"><a xlink:href="/type/Iterable" xlink:title="Iterable">
<ellipse fill="none" stroke="#6666ff" cx="119.04" cy="-234" rx="40.09" ry="18"/>
<text text-anchor="middle" x="119.04" y="-230.3" font-family="FreeSans" font-size="14.00" fill="#6666ff">Iterable</text>
</a>
</g>
</g>
<!-- Map&#45;&gt;Iterable -->
<g id="edge7" class="edge">
<title>Map&#45;&gt;Iterable</title>
<path fill="none" stroke="#6666ff" d="M119.04,-180.3C119.04,-188.02 119.04,-197.29 119.04,-205.89"/>
<polygon fill="#6666ff" stroke="#6666ff" points="115.54,-205.9 119.04,-215.9 122.54,-205.9 115.54,-205.9"/>
</g>
<!-- Associative -->
<g id="node6" class="node">
<title>Associative</title>
<g id="a_node6"><a xlink:href="/type/Associative" xlink:title="Associative">
<ellipse fill="none" stroke="#6666ff" cx="233.04" cy="-234" rx="55.49" ry="18"/>
<text text-anchor="middle" x="233.04" y="-230.3" font-family="FreeSans" font-size="14.00" fill="#6666ff">Associative</text>
</a>
</g>
</g>
<!-- Map&#45;&gt;Associative -->
<g id="edge8" class="edge">
<title>Map&#45;&gt;Associative</title>
<path fill="none" stroke="#6666ff" d="M138.9,-175.19C155.61,-185.45 179.86,-200.34 199.56,-212.44"/>
<polygon fill="#6666ff" stroke="#6666ff" points="197.89,-215.52 208.25,-217.77 201.56,-209.56 197.89,-215.52"/>
</g>
<!-- Mu -->
<g id="node2" class="node">
<title>Mu</title>
<g id="a_node2"><a xlink:href="/type/Mu" xlink:title="Mu">
<ellipse fill="none" stroke="#000000" cx="32.04" cy="-378" rx="27" ry="18"/>
<text text-anchor="middle" x="32.04" y="-374.3" font-family="FreeSans" font-size="14.00" fill="#000000">Mu</text>
</a>
</g>
</g>
<!-- Any -->
<g id="node3" class="node">
<title>Any</title>
<g id="a_node3"><a xlink:href="/type/Any" xlink:title="Any">
<ellipse fill="none" stroke="#000000" cx="32.04" cy="-306" rx="27" ry="18"/>
<text text-anchor="middle" x="32.04" y="-302.3" font-family="FreeSans" font-size="14.00" fill="#000000">Any</text>
</a>
</g>
</g>
<!-- Any&#45;&gt;Mu -->
<g id="edge2" class="edge">
<title>Any&#45;&gt;Mu</title>
<path fill="none" stroke="#000000" d="M32.04,-324.3C32.04,-332.02 32.04,-341.29 32.04,-349.89"/>
<polygon fill="#000000" stroke="#000000" points="28.54,-349.9 32.04,-359.9 35.54,-349.9 28.54,-349.9"/>
</g>
<!-- Cool&#45;&gt;Any -->
<g id="edge3" class="edge">
<title>Cool&#45;&gt;Any</title>
<path fill="none" stroke="#000000" d="M32.04,-252.3C32.04,-260.02 32.04,-269.29 32.04,-277.89"/>
<polygon fill="#000000" stroke="#000000" points="28.54,-277.9 32.04,-287.9 35.54,-277.9 28.54,-277.9"/>
</g>
<!-- PseudoStash -->
<g id="node7" class="node">
<title>PseudoStash</title>
<g id="a_node7"><a xlink:href="/type/PseudoStash" xlink:title="PseudoStash">
<ellipse fill="none" stroke="#000000" cx="63.04" cy="-90" rx="63.09" ry="18"/>
<text text-anchor="middle" x="63.04" y="-86.3" font-family="FreeSans" font-size="14.00" fill="#000000">PseudoStash</text>
</a>
</g>
</g>
<!-- PseudoStash&#45;&gt;Map -->
<g id="edge4" class="edge">
<title>PseudoStash&#45;&gt;Map</title>
<path fill="none" stroke="#000000" d="M76.6,-107.95C83.71,-116.83 92.53,-127.86 100.29,-137.55"/>
<polygon fill="#000000" stroke="#000000" points="97.78,-140.02 106.76,-145.64 103.25,-135.65 97.78,-140.02"/>
</g>
<!-- Hash -->
<g id="node8" class="node">
<title>Hash</title>
<g id="a_node8"><a xlink:href="/type/Hash" xlink:title="Hash">
<ellipse fill="none" stroke="#000000" cx="175.04" cy="-90" rx="31.4" ry="18"/>
<text text-anchor="middle" x="175.04" y="-86.3" font-family="FreeSans" font-size="14.00" fill="#000000">Hash</text>
</a>
</g>
</g>
<!-- Hash&#45;&gt;Map -->
<g id="edge5" class="edge">
<title>Hash&#45;&gt;Map</title>
<path fill="none" stroke="#000000" d="M162.62,-106.54C155.29,-115.69 145.89,-127.45 137.69,-137.69"/>
<polygon fill="#000000" stroke="#000000" points="134.95,-135.51 131.44,-145.51 140.42,-139.89 134.95,-135.51"/>
</g>
<!-- Stash -->
<g id="node9" class="node">
<title>Stash</title>
<g id="a_node9"><a xlink:href="/type/Stash" xlink:title="Stash">
<ellipse fill="none" stroke="#000000" cx="175.04" cy="-18" rx="33.29" ry="18"/>
<text text-anchor="middle" x="175.04" y="-14.3" font-family="FreeSans" font-size="14.00" fill="#000000">Stash</text>
</a>
</g>
</g>
<!-- Stash&#45;&gt;Hash -->
<g id="edge6" class="edge">
<title>Stash&#45;&gt;Hash</title>
<path fill="none" stroke="#000000" d="M175.04,-36.3C175.04,-44.02 175.04,-53.29 175.04,-61.89"/>
<polygon fill="#000000" stroke="#000000" points="171.54,-61.9 175.04,-71.9 178.54,-61.9 171.54,-61.9"/>
</g>
</g>
</svg>
