<?xml version="1.0" encoding="UTF-8" standalone="no"?>
<!DOCTYPE svg PUBLIC "-//W3C//DTD SVG 1.1//EN"
 "http://www.w3.org/Graphics/SVG/1.1/DTD/svg11.dtd">
<!-- Generated by graphviz version 2.43.0 (0)
 -->
<!-- Title: perl6&#45;type&#45;graph Pages: 1 -->
<svg width="168pt" height="332pt"
 viewBox="0.00 0.00 167.84 332.00" xmlns="http://www.w3.org/2000/svg" xmlns:xlink="http://www.w3.org/1999/xlink">
<g id="graph0" class="graph" transform="scale(1 1) rotate(0) translate(4 328)">
<title>perl6&#45;type&#45;graph</title>
<polygon fill="white" stroke="transparent" points="-4,4 -4,-328 163.84,-328 163.84,4 -4,4"/>
<!-- Match -->
<g id="node1" class="node">
<title>Match</title>
<g id="a_node1"><a xlink:href="/type/Match" xlink:title="Match">
<ellipse fill="none" stroke="#000000" cx="86.25" cy="-90" rx="35.19" ry="18"/>
<text text-anchor="middle" x="86.25" y="-86.3" font-family="FreeSans" font-size="14.00" fill="#000000">Match</text>
</a>
</g>
</g>
<!-- Capture -->
<g id="node4" class="node">
<title>Capture</title>
<g id="a_node4"><a xlink:href="/type/Capture" xlink:title="Capture">
<ellipse fill="none" stroke="#000000" cx="42.25" cy="-162" rx="42.49" ry="18"/>
<text text-anchor="middle" x="42.25" y="-158.3" font-family="FreeSans" font-size="14.00" fill="#000000">Capture</text>
</a>
</g>
</g>
<!-- Match&#45;&gt;Capture -->
<g id="edge1" class="edge">
<title>Match&#45;&gt;Capture</title>
<path fill="none" stroke="#000000" d="M76.04,-107.24C70.73,-115.68 64.12,-126.2 58.16,-135.69"/>
<polygon fill="#000000" stroke="#000000" points="55.06,-134.04 52.7,-144.37 60.99,-137.76 55.06,-134.04"/>
</g>
<!-- Cool -->
<g id="node5" class="node">
<title>Cool</title>
<g id="a_node5"><a xlink:href="/type/Cool" xlink:title="Cool">
<ellipse fill="none" stroke="#000000" cx="131.25" cy="-162" rx="28.7" ry="18"/>
<text text-anchor="middle" x="131.25" y="-158.3" font-family="FreeSans" font-size="14.00" fill="#000000">Cool</text>
</a>
</g>
</g>
<!-- Match&#45;&gt;Cool -->
<g id="edge2" class="edge">
<title>Match&#45;&gt;Cool</title>
<path fill="none" stroke="#000000" d="M96.68,-107.24C102.25,-115.89 109.21,-126.73 115.43,-136.4"/>
<polygon fill="#000000" stroke="#000000" points="112.51,-138.33 120.87,-144.85 118.4,-134.55 112.51,-138.33"/>
</g>
<!-- Mu -->
<g id="node2" class="node">
<title>Mu</title>
<g id="a_node2"><a xlink:href="/type/Mu" xlink:title="Mu">
<ellipse fill="none" stroke="#000000" cx="86.25" cy="-306" rx="27" ry="18"/>
<text text-anchor="middle" x="86.25" y="-302.3" font-family="FreeSans" font-size="14.00" fill="#000000">Mu</text>
</a>
</g>
</g>
<!-- Any -->
<g id="node3" class="node">
<title>Any</title>
<g id="a_node3"><a xlink:href="/type/Any" xlink:title="Any">
<ellipse fill="none" stroke="#000000" cx="86.25" cy="-234" rx="27" ry="18"/>
<text text-anchor="middle" x="86.25" y="-230.3" font-family="FreeSans" font-size="14.00" fill="#000000">Any</text>
</a>
</g>
</g>
<!-- Any&#45;&gt;Mu -->
<g id="edge3" class="edge">
<title>Any&#45;&gt;Mu</title>
<path fill="none" stroke="#000000" d="M86.25,-252.3C86.25,-260.02 86.25,-269.29 86.25,-277.89"/>
<polygon fill="#000000" stroke="#000000" points="82.75,-277.9 86.25,-287.9 89.75,-277.9 82.75,-277.9"/>
</g>
<!-- Capture&#45;&gt;Any -->
<g id="edge4" class="edge">
<title>Capture&#45;&gt;Any</title>
<path fill="none" stroke="#000000" d="M52.67,-179.59C58.07,-188.17 64.75,-198.81 70.74,-208.33"/>
<polygon fill="#000000" stroke="#000000" points="67.91,-210.41 76.2,-217.01 73.84,-206.68 67.91,-210.41"/>
</g>
<!-- Cool&#45;&gt;Any -->
<g id="edge5" class="edge">
<title>Cool&#45;&gt;Any</title>
<path fill="none" stroke="#000000" d="M121.04,-178.88C115.4,-187.66 108.27,-198.74 101.94,-208.58"/>
<polygon fill="#000000" stroke="#000000" points="98.88,-206.87 96.42,-217.18 104.77,-210.66 98.88,-206.87"/>
</g>
<!-- Grammar -->
<g id="node6" class="node">
<title>Grammar</title>
<g id="a_node6"><a xlink:href="/type/Grammar" xlink:title="Grammar">
<ellipse fill="none" stroke="#000000" cx="86.25" cy="-18" rx="48.19" ry="18"/>
<text text-anchor="middle" x="86.25" y="-14.3" font-family="FreeSans" font-size="14.00" fill="#000000">Grammar</text>
</a>
</g>
</g>
<!-- Grammar&#45;&gt;Match -->
<g id="edge6" class="edge">
<title>Grammar&#45;&gt;Match</title>
<path fill="none" stroke="#000000" d="M86.25,-36.3C86.25,-44.02 86.25,-53.29 86.25,-61.89"/>
<polygon fill="#000000" stroke="#000000" points="82.75,-61.9 86.25,-71.9 89.75,-61.9 82.75,-61.9"/>
</g>
</g>
</svg>
