<?xml version="1.0" encoding="UTF-8" standalone="no"?>
<!DOCTYPE svg PUBLIC "-//W3C//DTD SVG 1.1//EN"
 "http://www.w3.org/Graphics/SVG/1.1/DTD/svg11.dtd">
<!-- Generated by graphviz version 2.43.0 (0)
 -->
<!-- Title: perl6&#45;type&#45;graph Pages: 1 -->
<svg width="397pt" height="67pt"
 viewBox="0.00 0.00 396.65 67.35" xmlns="http://www.w3.org/2000/svg" xmlns:xlink="http://www.w3.org/1999/xlink">
<g id="graph0" class="graph" transform="scale(1 1) rotate(0) translate(4 63.35)">
<title>perl6&#45;type&#45;graph</title>
<polygon fill="white" stroke="transparent" points="-4,4 -4,-63.35 392.65,-63.35 392.65,4 -4,4"/>
<!-- Metamodel::Primitives -->
<g id="node1" class="node">
<title>Metamodel::Primitives</title>
<g id="a_node1"><a xlink:href="/type/Metamodel::Primitives" xlink:title="Metamodel::Primitives">
<ellipse fill="none" stroke="#000000" cx="97.49" cy="-35.98" rx="97.48" ry="18"/>
<text text-anchor="middle" x="97.49" y="-32.28" font-family="FreeSans" font-size="14.00" fill="#000000">Metamodel::Primitives</text>
</a>
</g>
</g>
<!-- Any -->
<g id="node3" class="node">
<title>Any</title>
<g id="a_node3"><a xlink:href="/type/Any" xlink:title="Any">
<ellipse fill="none" stroke="#000000" cx="230" cy="-18" rx="27" ry="18"/>
<text text-anchor="middle" x="230" y="-14.3" font-family="FreeSans" font-size="14.00" fill="#000000">Any</text>
</a>
</g>
</g>
<!-- Metamodel::Primitives&#45;&gt;Any -->
<g id="edge1" class="edge">
<title>Metamodel::Primitives&#45;&gt;Any</title>
<path fill="none" stroke="#000000" d="M176.1,-25.31C182.08,-24.5 187.92,-23.71 193.41,-22.96"/>
<polygon fill="#000000" stroke="#000000" points="194.06,-26.41 203.5,-21.59 193.12,-19.47 194.06,-26.41"/>
</g>
<!-- Mu -->
<g id="node2" class="node">
<title>Mu</title>
<g id="a_node2"><a xlink:href="/type/Mu" xlink:title="Mu">
<ellipse fill="none" stroke="#000000" cx="361.65" cy="-41.35" rx="27" ry="18"/>
<text text-anchor="middle" x="361.65" y="-37.65" font-family="FreeSans" font-size="14.00" fill="#000000">Mu</text>
</a>
</g>
</g>
<!-- Any&#45;&gt;Mu -->
<g id="edge2" class="edge">
<title>Any&#45;&gt;Mu</title>
<path fill="none" stroke="#000000" d="M256.32,-22.67C276.14,-26.18 303.55,-31.04 325.44,-34.93"/>
<polygon fill="#000000" stroke="#000000" points="324.91,-38.39 335.37,-36.69 326.13,-31.49 324.91,-38.39"/>
</g>
</g>
</svg>
