<?xml version="1.0" encoding="UTF-8" standalone="no"?>
<!DOCTYPE svg PUBLIC "-//W3C//DTD SVG 1.1//EN"
 "http://www.w3.org/Graphics/SVG/1.1/DTD/svg11.dtd">
<!-- Generated by graphviz version 2.43.0 (0)
 -->
<!-- Title: perl6&#45;type&#45;graph Pages: 1 -->
<svg width="1797pt" height="1777pt"
 viewBox="0.00 0.00 1797.23 1777.48" xmlns="http://www.w3.org/2000/svg" xmlns:xlink="http://www.w3.org/1999/xlink">
<g id="graph0" class="graph" transform="scale(1 1) rotate(0) translate(4 1773.48)">
<title>perl6&#45;type&#45;graph</title>
<polygon fill="white" stroke="transparent" points="-4,4 -4,-1773.48 1793.23,-1773.48 1793.23,4 -4,4"/>
<!-- Metamodel::RolePunning -->
<g id="node1" class="node">
<title>Metamodel::RolePunning</title>
<g id="a_node1"><a xlink:href="/type/Metamodel::RolePunning" xlink:title="Metamodel::RolePunning">
<ellipse fill="none" stroke="#6666ff" cx="1148.33" cy="-763.67" rx="109.68" ry="18"/>
<text text-anchor="middle" x="1148.33" y="-759.97" font-family="FreeSans" font-size="14.00" fill="#6666ff">Metamodel::RolePunning</text>
</a>
</g>
</g>
<!-- Mu -->
<g id="node2" class="node">
<title>Mu</title>
<g id="a_node2"><a xlink:href="/type/Mu" xlink:title="Mu">
<ellipse fill="none" stroke="#000000" cx="1069.39" cy="-18" rx="27" ry="18"/>
<text text-anchor="middle" x="1069.39" y="-14.3" font-family="FreeSans" font-size="14.00" fill="#000000">Mu</text>
</a>
</g>
</g>
<!-- Any -->
<g id="node3" class="node">
<title>Any</title>
<g id="a_node3"><a xlink:href="/type/Any" xlink:title="Any">
<ellipse fill="none" stroke="#000000" cx="1015.35" cy="-561.03" rx="27" ry="18"/>
<text text-anchor="middle" x="1015.35" y="-557.33" font-family="FreeSans" font-size="14.00" fill="#000000">Any</text>
</a>
</g>
</g>
<!-- Any&#45;&gt;Mu -->
<g id="edge1" class="edge">
<title>Any&#45;&gt;Mu</title>
<path fill="none" stroke="#000000" d="M1017.15,-542.97C1025.07,-463.32 1056.93,-143.24 1066.59,-46.1"/>
<polygon fill="#000000" stroke="#000000" points="1070.08,-46.43 1067.58,-36.14 1063.11,-45.74 1070.08,-46.43"/>
</g>
<!-- Metamodel::TypePretense -->
<g id="node4" class="node">
<title>Metamodel::TypePretense</title>
<g id="a_node4"><a xlink:href="/type/Metamodel::TypePretense" xlink:title="Metamodel::TypePretense">
<ellipse fill="none" stroke="#6666ff" cx="916.08" cy="-779.13" rx="114.28" ry="18"/>
<text text-anchor="middle" x="916.08" y="-775.43" font-family="FreeSans" font-size="14.00" fill="#6666ff">Metamodel::TypePretense</text>
</a>
</g>
</g>
<!-- Metamodel::CurriedRoleHOW -->
<g id="node5" class="node">
<title>Metamodel::CurriedRoleHOW</title>
<g id="a_node5"><a xlink:href="/type/Metamodel::CurriedRoleHOW" xlink:title="Metamodel::CurriedRoleHOW">
<ellipse fill="none" stroke="#000000" cx="1377.88" cy="-354.19" rx="128.08" ry="18"/>
<text text-anchor="middle" x="1377.88" y="-350.49" font-family="FreeSans" font-size="14.00" fill="#000000">Metamodel::CurriedRoleHOW</text>
</a>
</g>
</g>
<!-- Metamodel::CurriedRoleHOW&#45;&gt;Metamodel::RolePunning -->
<g id="edge5" class="edge">
<title>Metamodel::CurriedRoleHOW&#45;&gt;Metamodel::RolePunning</title>
<path fill="none" stroke="#6666ff" d="M1367.72,-372.31C1331.28,-437.31 1207.04,-658.95 1163.53,-736.56"/>
<polygon fill="#6666ff" stroke="#6666ff" points="1160.47,-734.86 1158.63,-745.29 1166.58,-738.28 1160.47,-734.86"/>
</g>
<!-- Metamodel::CurriedRoleHOW&#45;&gt;Any -->
<g id="edge2" class="edge">
<title>Metamodel::CurriedRoleHOW&#45;&gt;Any</title>
<path fill="none" stroke="#000000" d="M1346.97,-371.82C1278.12,-411.11 1112.89,-505.38 1045.12,-544.05"/>
<polygon fill="#000000" stroke="#000000" points="1043.17,-541.13 1036.22,-549.13 1046.64,-547.21 1043.17,-541.13"/>
</g>
<!-- Metamodel::CurriedRoleHOW&#45;&gt;Metamodel::TypePretense -->
<g id="edge6" class="edge">
<title>Metamodel::CurriedRoleHOW&#45;&gt;Metamodel::TypePretense</title>
<path fill="none" stroke="#6666ff" d="M1358.33,-372.18C1285.15,-439.51 1027.3,-676.79 942.98,-754.38"/>
<polygon fill="#6666ff" stroke="#6666ff" points="940.36,-752.03 935.37,-761.38 945.1,-757.18 940.36,-752.03"/>
</g>
<!-- Metamodel::Naming -->
<g id="node6" class="node">
<title>Metamodel::Naming</title>
<g id="a_node6"><a xlink:href="/type/Metamodel::Naming" xlink:title="Metamodel::Naming">
<ellipse fill="none" stroke="#6666ff" cx="476.62" cy="-1113.49" rx="90.18" ry="18"/>
<text text-anchor="middle" x="476.62" y="-1109.79" font-family="FreeSans" font-size="14.00" fill="#6666ff">Metamodel::Naming</text>
</a>
</g>
</g>
<!-- Metamodel::Stashing -->
<g id="node7" class="node">
<title>Metamodel::Stashing</title>
<g id="a_node7"><a xlink:href="/type/Metamodel::Stashing" xlink:title="Metamodel::Stashing">
<ellipse fill="none" stroke="#6666ff" cx="619.37" cy="-1011.56" rx="93.68" ry="18"/>
<text text-anchor="middle" x="619.37" y="-1007.86" font-family="FreeSans" font-size="14.00" fill="#6666ff">Metamodel::Stashing</text>
</a>
</g>
</g>
<!-- Metamodel::BoolificationProtocol -->
<g id="node8" class="node">
<title>Metamodel::BoolificationProtocol</title>
<g id="a_node8"><a xlink:href="/type/Metamodel::BoolificationProtocol" xlink:title="Metamodel::BoolificationProtocol">
<ellipse fill="none" stroke="#6666ff" cx="139.09" cy="-262.6" rx="139.18" ry="18"/>
<text text-anchor="middle" x="139.09" y="-258.9" font-family="FreeSans" font-size="14.00" fill="#6666ff">Metamodel::BoolificationProtocol</text>
</a>
</g>
</g>
<!-- Metamodel::ParametricRoleGroupHOW -->
<g id="node9" class="node">
<title>Metamodel::ParametricRoleGroupHOW</title>
<g id="a_node9"><a xlink:href="/type/Metamodel::ParametricRoleGroupHOW" xlink:title="Metamodel::ParametricRoleGroupHOW">
<ellipse fill="none" stroke="#000000" cx="543.72" cy="-569.65" rx="166.27" ry="18"/>
<text text-anchor="middle" x="543.72" y="-565.95" font-family="FreeSans" font-size="14.00" fill="#000000">Metamodel::ParametricRoleGroupHOW</text>
</a>
</g>
</g>
<!-- Metamodel::ParametricRoleGroupHOW&#45;&gt;Metamodel::RolePunning -->
<g id="edge10" class="edge">
<title>Metamodel::ParametricRoleGroupHOW&#45;&gt;Metamodel::RolePunning</title>
<path fill="none" stroke="#6666ff" d="M597.11,-586.78C709.67,-622.9 970.62,-706.64 1088.56,-744.49"/>
<polygon fill="#6666ff" stroke="#6666ff" points="1087.57,-747.85 1098.16,-747.57 1089.71,-741.18 1087.57,-747.85"/>
</g>
<!-- Metamodel::ParametricRoleGroupHOW&#45;&gt;Any -->
<g id="edge3" class="edge">
<title>Metamodel::ParametricRoleGroupHOW&#45;&gt;Any</title>
<path fill="none" stroke="#000000" d="M708.01,-566.65C805.12,-564.87 920.09,-562.77 978.02,-561.72"/>
<polygon fill="#000000" stroke="#000000" points="978.22,-565.21 988.15,-561.53 978.09,-558.21 978.22,-565.21"/>
</g>
<!-- Metamodel::ParametricRoleGroupHOW&#45;&gt;Metamodel::TypePretense -->
<g id="edge9" class="edge">
<title>Metamodel::ParametricRoleGroupHOW&#45;&gt;Metamodel::TypePretense</title>
<path fill="none" stroke="#6666ff" d="M575.15,-587.33C642.66,-625.31 801.44,-714.64 876.03,-756.6"/>
<polygon fill="#6666ff" stroke="#6666ff" points="874.7,-759.87 885.13,-761.72 878.13,-753.77 874.7,-759.87"/>
</g>
<!-- Metamodel::ParametricRoleGroupHOW&#45;&gt;Metamodel::Naming -->
<g id="edge7" class="edge">
<title>Metamodel::ParametricRoleGroupHOW&#45;&gt;Metamodel::Naming</title>
<path fill="none" stroke="#6666ff" d="M541.49,-587.74C531.65,-667.5 492.1,-988.06 480.1,-1085.35"/>
<polygon fill="#6666ff" stroke="#6666ff" points="476.62,-1084.97 478.86,-1095.33 483.56,-1085.83 476.62,-1084.97"/>
</g>
<!-- Metamodel::ParametricRoleGroupHOW&#45;&gt;Metamodel::Stashing -->
<g id="edge8" class="edge">
<title>Metamodel::ParametricRoleGroupHOW&#45;&gt;Metamodel::Stashing</title>
<path fill="none" stroke="#6666ff" d="M546.83,-587.79C558.58,-656.41 600.33,-900.32 614.57,-983.52"/>
<polygon fill="#6666ff" stroke="#6666ff" points="611.14,-984.24 616.28,-993.5 618.04,-983.06 611.14,-984.24"/>
</g>
<!-- Metamodel::ParametricRoleGroupHOW&#45;&gt;Metamodel::BoolificationProtocol -->
<g id="edge11" class="edge">
<title>Metamodel::ParametricRoleGroupHOW&#45;&gt;Metamodel::BoolificationProtocol</title>
<path fill="none" stroke="#6666ff" d="M520.22,-551.81C451.22,-499.45 249.16,-346.12 170.73,-286.6"/>
<polygon fill="#6666ff" stroke="#6666ff" points="172.74,-283.74 162.66,-280.48 168.51,-289.31 172.74,-283.74"/>
</g>
<!-- Metamodel::Documenting -->
<g id="node10" class="node">
<title>Metamodel::Documenting</title>
<g id="a_node10"><a xlink:href="/type/Metamodel::Documenting" xlink:title="Metamodel::Documenting">
<ellipse fill="none" stroke="#6666ff" cx="1586.44" cy="-1410.44" rx="111.28" ry="18"/>
<text text-anchor="middle" x="1586.44" y="-1406.74" font-family="FreeSans" font-size="14.00" fill="#6666ff">Metamodel::Documenting</text>
</a>
</g>
</g>
<!-- Metamodel::Versioning -->
<g id="node11" class="node">
<title>Metamodel::Versioning</title>
<g id="a_node11"><a xlink:href="/type/Metamodel::Versioning" xlink:title="Metamodel::Versioning">
<ellipse fill="none" stroke="#6666ff" cx="1569.09" cy="-953.78" rx="100.98" ry="18"/>
<text text-anchor="middle" x="1569.09" y="-950.08" font-family="FreeSans" font-size="14.00" fill="#6666ff">Metamodel::Versioning</text>
</a>
</g>
</g>
<!-- Metamodel::MethodContainer -->
<g id="node12" class="node">
<title>Metamodel::MethodContainer</title>
<g id="a_node12"><a xlink:href="/type/Metamodel::MethodContainer" xlink:title="Metamodel::MethodContainer">
<ellipse fill="none" stroke="#6666ff" cx="574.91" cy="-1492.42" rx="127.28" ry="18"/>
<text text-anchor="middle" x="574.91" y="-1488.72" font-family="FreeSans" font-size="14.00" fill="#6666ff">Metamodel::MethodContainer</text>
</a>
</g>
</g>
<!-- Metamodel::PrivateMethodContainer -->
<g id="node13" class="node">
<title>Metamodel::PrivateMethodContainer</title>
<g id="a_node13"><a xlink:href="/type/Metamodel::PrivateMethodContainer" xlink:title="Metamodel::PrivateMethodContainer">
<ellipse fill="none" stroke="#6666ff" cx="1258.08" cy="-1727.52" rx="154.87" ry="18"/>
<text text-anchor="middle" x="1258.08" y="-1723.82" font-family="FreeSans" font-size="14.00" fill="#6666ff">Metamodel::PrivateMethodContainer</text>
</a>
</g>
</g>
<!-- Metamodel::MultiMethodContainer -->
<g id="node14" class="node">
<title>Metamodel::MultiMethodContainer</title>
<g id="a_node14"><a xlink:href="/type/Metamodel::MultiMethodContainer" xlink:title="Metamodel::MultiMethodContainer">
<ellipse fill="none" stroke="#6666ff" cx="948.87" cy="-1751.48" rx="146.47" ry="18"/>
<text text-anchor="middle" x="948.87" y="-1747.78" font-family="FreeSans" font-size="14.00" fill="#6666ff">Metamodel::MultiMethodContainer</text>
</a>
</g>
</g>
<!-- Metamodel::AttributeContainer -->
<g id="node15" class="node">
<title>Metamodel::AttributeContainer</title>
<g id="a_node15"><a xlink:href="/type/Metamodel::AttributeContainer" xlink:title="Metamodel::AttributeContainer">
<ellipse fill="none" stroke="#6666ff" cx="748.36" cy="-1662.7" rx="129.98" ry="18"/>
<text text-anchor="middle" x="748.36" y="-1659" font-family="FreeSans" font-size="14.00" fill="#6666ff">Metamodel::AttributeContainer</text>
</a>
</g>
</g>
<!-- Metamodel::RoleContainer -->
<g id="node16" class="node">
<title>Metamodel::RoleContainer</title>
<g id="a_node16"><a xlink:href="/type/Metamodel::RoleContainer" xlink:title="Metamodel::RoleContainer">
<ellipse fill="none" stroke="#6666ff" cx="1448.21" cy="-1612.36" rx="115.88" ry="18"/>
<text text-anchor="middle" x="1448.21" y="-1608.66" font-family="FreeSans" font-size="14.00" fill="#6666ff">Metamodel::RoleContainer</text>
</a>
</g>
</g>
<!-- Metamodel::MultipleInheritance -->
<g id="node17" class="node">
<title>Metamodel::MultipleInheritance</title>
<g id="a_node17"><a xlink:href="/type/Metamodel::MultipleInheritance" xlink:title="Metamodel::MultipleInheritance">
<ellipse fill="none" stroke="#6666ff" cx="1655.34" cy="-1175.97" rx="133.78" ry="18"/>
<text text-anchor="middle" x="1655.34" y="-1172.27" font-family="FreeSans" font-size="14.00" fill="#6666ff">Metamodel::MultipleInheritance</text>
</a>
</g>
</g>
<!-- Metamodel::ParametricRoleHOW -->
<g id="node18" class="node">
<title>Metamodel::ParametricRoleHOW</title>
<g id="a_node18"><a xlink:href="/type/Metamodel::ParametricRoleHOW" xlink:title="Metamodel::ParametricRoleHOW">
<ellipse fill="none" stroke="#000000" cx="1076.82" cy="-1219.74" rx="141.88" ry="18"/>
<text text-anchor="middle" x="1076.82" y="-1216.04" font-family="FreeSans" font-size="14.00" fill="#000000">Metamodel::ParametricRoleHOW</text>
</a>
</g>
</g>
<!-- Metamodel::ParametricRoleHOW&#45;&gt;Metamodel::RolePunning -->
<g id="edge23" class="edge">
<title>Metamodel::ParametricRoleHOW&#45;&gt;Metamodel::RolePunning</title>
<path fill="none" stroke="#6666ff" d="M1079.67,-1201.58C1090.68,-1131.36 1130.52,-877.27 1143.91,-791.88"/>
<polygon fill="#6666ff" stroke="#6666ff" points="1147.38,-792.3 1145.48,-781.88 1140.47,-791.22 1147.38,-792.3"/>
</g>
<!-- Metamodel::ParametricRoleHOW&#45;&gt;Any -->
<g id="edge4" class="edge">
<title>Metamodel::ParametricRoleHOW&#45;&gt;Any</title>
<path fill="none" stroke="#000000" d="M1075.11,-1201.43C1066.56,-1109.84 1028.44,-701.25 1018,-589.41"/>
<polygon fill="#000000" stroke="#000000" points="1021.46,-588.88 1017.05,-579.25 1014.5,-589.53 1021.46,-588.88"/>
</g>
<!-- Metamodel::ParametricRoleHOW&#45;&gt;Metamodel::TypePretense -->
<g id="edge22" class="edge">
<title>Metamodel::ParametricRoleHOW&#45;&gt;Metamodel::TypePretense</title>
<path fill="none" stroke="#6666ff" d="M1070.22,-1201.65C1045.21,-1133.09 956.18,-889.05 926.09,-806.59"/>
<polygon fill="#6666ff" stroke="#6666ff" points="929.36,-805.33 922.65,-797.13 922.78,-807.73 929.36,-805.33"/>
</g>
<!-- Metamodel::ParametricRoleHOW&#45;&gt;Metamodel::Naming -->
<g id="edge12" class="edge">
<title>Metamodel::ParametricRoleHOW&#45;&gt;Metamodel::Naming</title>
<path fill="none" stroke="#6666ff" d="M994,-1205.08C877.72,-1184.49 667.63,-1147.3 554.24,-1127.23"/>
<polygon fill="#6666ff" stroke="#6666ff" points="554.7,-1123.76 544.24,-1125.46 553.48,-1130.65 554.7,-1123.76"/>
</g>
<!-- Metamodel::ParametricRoleHOW&#45;&gt;Metamodel::Stashing -->
<g id="edge21" class="edge">
<title>Metamodel::ParametricRoleHOW&#45;&gt;Metamodel::Stashing</title>
<path fill="none" stroke="#6666ff" d="M1038.61,-1202.35C954.82,-1164.22 755.25,-1073.4 665.04,-1032.34"/>
<polygon fill="#6666ff" stroke="#6666ff" points="666.44,-1029.13 655.88,-1028.17 663.54,-1035.5 666.44,-1029.13"/>
</g>
<!-- Metamodel::ParametricRoleHOW&#45;&gt;Metamodel::Documenting -->
<g id="edge13" class="edge">
<title>Metamodel::ParametricRoleHOW&#45;&gt;Metamodel::Documenting</title>
<path fill="none" stroke="#6666ff" d="M1122.49,-1236.83C1216.69,-1272.08 1432.12,-1352.69 1532.77,-1390.36"/>
<polygon fill="#6666ff" stroke="#6666ff" points="1531.55,-1393.64 1542.14,-1393.86 1534,-1387.08 1531.55,-1393.64"/>
</g>
<!-- Metamodel::ParametricRoleHOW&#45;&gt;Metamodel::Versioning -->
<g id="edge14" class="edge">
<title>Metamodel::ParametricRoleHOW&#45;&gt;Metamodel::Versioning</title>
<path fill="none" stroke="#6666ff" d="M1109.5,-1202.08C1196.37,-1155.15 1432.87,-1027.37 1528.33,-975.8"/>
<polygon fill="#6666ff" stroke="#6666ff" points="1530.25,-978.74 1537.38,-970.91 1526.92,-972.58 1530.25,-978.74"/>
</g>
<!-- Metamodel::ParametricRoleHOW&#45;&gt;Metamodel::MethodContainer -->
<g id="edge15" class="edge">
<title>Metamodel::ParametricRoleHOW&#45;&gt;Metamodel::MethodContainer</title>
<path fill="none" stroke="#6666ff" d="M1044.28,-1237.42C956.21,-1285.27 713.31,-1417.23 616.01,-1470.1"/>
<polygon fill="#6666ff" stroke="#6666ff" points="614.17,-1467.11 607.06,-1474.96 617.51,-1473.26 614.17,-1467.11"/>
</g>
<!-- Metamodel::ParametricRoleHOW&#45;&gt;Metamodel::PrivateMethodContainer -->
<g id="edge16" class="edge">
<title>Metamodel::ParametricRoleHOW&#45;&gt;Metamodel::PrivateMethodContainer</title>
<path fill="none" stroke="#6666ff" d="M1083.27,-1237.81C1110.41,-1313.85 1215.44,-1608.06 1248.24,-1699.95"/>
<polygon fill="#6666ff" stroke="#6666ff" points="1244.96,-1701.16 1251.61,-1709.4 1251.55,-1698.81 1244.96,-1701.16"/>
</g>
<!-- Metamodel::ParametricRoleHOW&#45;&gt;Metamodel::MultiMethodContainer -->
<g id="edge17" class="edge">
<title>Metamodel::ParametricRoleHOW&#45;&gt;Metamodel::MultiMethodContainer</title>
<path fill="none" stroke="#6666ff" d="M1072.49,-1237.74C1053.62,-1316.16 978.48,-1628.4 955.55,-1723.71"/>
<polygon fill="#6666ff" stroke="#6666ff" points="952.13,-1722.95 953.2,-1733.49 958.94,-1724.59 952.13,-1722.95"/>
</g>
<!-- Metamodel::ParametricRoleHOW&#45;&gt;Metamodel::AttributeContainer -->
<g id="edge18" class="edge">
<title>Metamodel::ParametricRoleHOW&#45;&gt;Metamodel::AttributeContainer</title>
<path fill="none" stroke="#6666ff" d="M1063.33,-1237.93C1011.97,-1307.2 828.45,-1554.7 767.9,-1636.35"/>
<polygon fill="#6666ff" stroke="#6666ff" points="764.93,-1634.49 761.78,-1644.6 770.55,-1638.65 764.93,-1634.49"/>
</g>
<!-- Metamodel::ParametricRoleHOW&#45;&gt;Metamodel::RoleContainer -->
<g id="edge19" class="edge">
<title>Metamodel::ParametricRoleHOW&#45;&gt;Metamodel::RoleContainer</title>
<path fill="none" stroke="#6666ff" d="M1093.74,-1237.63C1153.44,-1300.74 1354.33,-1513.11 1424.1,-1586.87"/>
<polygon fill="#6666ff" stroke="#6666ff" points="1421.77,-1589.5 1431.19,-1594.36 1426.86,-1584.69 1421.77,-1589.5"/>
</g>
<!-- Metamodel::ParametricRoleHOW&#45;&gt;Metamodel::MultipleInheritance -->
<g id="edge20" class="edge">
<title>Metamodel::ParametricRoleHOW&#45;&gt;Metamodel::MultipleInheritance</title>
<path fill="none" stroke="#6666ff" d="M1198.8,-1210.51C1295.5,-1203.19 1430.19,-1193 1528.2,-1185.59"/>
<polygon fill="#6666ff" stroke="#6666ff" points="1528.76,-1189.06 1538.46,-1184.81 1528.23,-1182.08 1528.76,-1189.06"/>
</g>
</g>
</svg>
