<?xml version="1.0" encoding="UTF-8" standalone="no"?>
<!DOCTYPE svg PUBLIC "-//W3C//DTD SVG 1.1//EN"
 "http://www.w3.org/Graphics/SVG/1.1/DTD/svg11.dtd">
<!-- Generated by graphviz version 2.43.0 (0)
 -->
<!-- Title: perl6&#45;type&#45;graph Pages: 1 -->
<svg width="1608pt" height="1855pt"
 viewBox="0.00 0.00 1607.97 1854.61" xmlns="http://www.w3.org/2000/svg" xmlns:xlink="http://www.w3.org/1999/xlink">
<g id="graph0" class="graph" transform="scale(1 1) rotate(0) translate(4 1850.61)">
<title>perl6&#45;type&#45;graph</title>
<polygon fill="white" stroke="transparent" points="-4,4 -4,-1850.61 1603.97,-1850.61 1603.97,4 -4,4"/>
<!-- Metamodel::TypePretense -->
<g id="node1" class="node">
<title>Metamodel::TypePretense</title>
<g id="a_node1"><a xlink:href="/type/Metamodel::TypePretense" xlink:title="Metamodel::TypePretense">
<ellipse fill="none" stroke="#6666ff" cx="897.38" cy="-903.99" rx="114.28" ry="18"/>
<text text-anchor="middle" x="897.38" y="-900.29" font-family="FreeSans" font-size="14.00" fill="#6666ff">Metamodel::TypePretense</text>
</a>
</g>
</g>
<!-- Mu -->
<g id="node2" class="node">
<title>Mu</title>
<g id="a_node2"><a xlink:href="/type/Mu" xlink:title="Mu">
<ellipse fill="none" stroke="#000000" cx="1471.86" cy="-485.1" rx="27" ry="18"/>
<text text-anchor="middle" x="1471.86" y="-481.4" font-family="FreeSans" font-size="14.00" fill="#000000">Mu</text>
</a>
</g>
</g>
<!-- Any -->
<g id="node3" class="node">
<title>Any</title>
<g id="a_node3"><a xlink:href="/type/Any" xlink:title="Any">
<ellipse fill="none" stroke="#000000" cx="997.97" cy="-801.55" rx="27" ry="18"/>
<text text-anchor="middle" x="997.97" y="-797.85" font-family="FreeSans" font-size="14.00" fill="#000000">Any</text>
</a>
</g>
</g>
<!-- Any&#45;&gt;Mu -->
<g id="edge1" class="edge">
<title>Any&#45;&gt;Mu</title>
<path fill="none" stroke="#000000" d="M1017.13,-788.75C1090.97,-739.44 1357.22,-561.65 1444.18,-503.58"/>
<polygon fill="#000000" stroke="#000000" points="1446.34,-506.34 1452.72,-497.88 1442.46,-500.52 1446.34,-506.34"/>
</g>
<!-- Metamodel::RolePunning -->
<g id="node4" class="node">
<title>Metamodel::RolePunning</title>
<g id="a_node4"><a xlink:href="/type/Metamodel::RolePunning" xlink:title="Metamodel::RolePunning">
<ellipse fill="none" stroke="#6666ff" cx="1227.5" cy="-1131.1" rx="109.68" ry="18"/>
<text text-anchor="middle" x="1227.5" y="-1127.4" font-family="FreeSans" font-size="14.00" fill="#6666ff">Metamodel::RolePunning</text>
</a>
</g>
</g>
<!-- Metamodel::CurriedRoleHOW -->
<g id="node5" class="node">
<title>Metamodel::CurriedRoleHOW</title>
<g id="a_node5"><a xlink:href="/type/Metamodel::CurriedRoleHOW" xlink:title="Metamodel::CurriedRoleHOW">
<ellipse fill="none" stroke="#000000" cx="1471.93" cy="-871.47" rx="128.08" ry="18"/>
<text text-anchor="middle" x="1471.93" y="-867.77" font-family="FreeSans" font-size="14.00" fill="#000000">Metamodel::CurriedRoleHOW</text>
</a>
</g>
</g>
<!-- Metamodel::CurriedRoleHOW&#45;&gt;Metamodel::TypePretense -->
<g id="edge8" class="edge">
<title>Metamodel::CurriedRoleHOW&#45;&gt;Metamodel::TypePretense</title>
<path fill="none" stroke="#6666ff" d="M1352.88,-878.21C1253.9,-883.81 1113.77,-891.75 1015.14,-897.33"/>
<polygon fill="#6666ff" stroke="#6666ff" points="1014.91,-893.84 1005.13,-897.89 1015.31,-900.82 1014.91,-893.84"/>
</g>
<!-- Metamodel::CurriedRoleHOW&#45;&gt;Any -->
<g id="edge2" class="edge">
<title>Metamodel::CurriedRoleHOW&#45;&gt;Any</title>
<path fill="none" stroke="#000000" d="M1383.34,-858.4C1278.63,-842.95 1109.26,-817.97 1034.93,-807"/>
<polygon fill="#000000" stroke="#000000" points="1035.08,-803.48 1024.68,-805.49 1034.06,-810.41 1035.08,-803.48"/>
</g>
<!-- Metamodel::CurriedRoleHOW&#45;&gt;Metamodel::RolePunning -->
<g id="edge7" class="edge">
<title>Metamodel::CurriedRoleHOW&#45;&gt;Metamodel::RolePunning</title>
<path fill="none" stroke="#6666ff" d="M1455.13,-889.32C1412.66,-934.43 1300.86,-1053.18 1251.51,-1105.6"/>
<polygon fill="#6666ff" stroke="#6666ff" points="1248.72,-1103.45 1244.42,-1113.13 1253.82,-1108.25 1248.72,-1103.45"/>
</g>
<!-- Metamodel::Naming -->
<g id="node6" class="node">
<title>Metamodel::Naming</title>
<g id="a_node6"><a xlink:href="/type/Metamodel::Naming" xlink:title="Metamodel::Naming">
<ellipse fill="none" stroke="#6666ff" cx="684.49" cy="-864.28" rx="90.18" ry="18"/>
<text text-anchor="middle" x="684.49" y="-860.58" font-family="FreeSans" font-size="14.00" fill="#6666ff">Metamodel::Naming</text>
</a>
</g>
</g>
<!-- Metamodel::Stashing -->
<g id="node7" class="node">
<title>Metamodel::Stashing</title>
<g id="a_node7"><a xlink:href="/type/Metamodel::Stashing" xlink:title="Metamodel::Stashing">
<ellipse fill="none" stroke="#6666ff" cx="553.12" cy="-924.25" rx="93.68" ry="18"/>
<text text-anchor="middle" x="553.12" y="-920.55" font-family="FreeSans" font-size="14.00" fill="#6666ff">Metamodel::Stashing</text>
</a>
</g>
</g>
<!-- Metamodel::BoolificationProtocol -->
<g id="node8" class="node">
<title>Metamodel::BoolificationProtocol</title>
<g id="a_node8"><a xlink:href="/type/Metamodel::BoolificationProtocol" xlink:title="Metamodel::BoolificationProtocol">
<ellipse fill="none" stroke="#6666ff" cx="1168.52" cy="-18" rx="139.18" ry="18"/>
<text text-anchor="middle" x="1168.52" y="-14.3" font-family="FreeSans" font-size="14.00" fill="#6666ff">Metamodel::BoolificationProtocol</text>
</a>
</g>
</g>
<!-- Metamodel::ParametricRoleGroupHOW -->
<g id="node9" class="node">
<title>Metamodel::ParametricRoleGroupHOW</title>
<g id="a_node9"><a xlink:href="/type/Metamodel::ParametricRoleGroupHOW" xlink:title="Metamodel::ParametricRoleGroupHOW">
<ellipse fill="none" stroke="#000000" cx="1025.33" cy="-513.7" rx="166.27" ry="18"/>
<text text-anchor="middle" x="1025.33" y="-510" font-family="FreeSans" font-size="14.00" fill="#000000">Metamodel::ParametricRoleGroupHOW</text>
</a>
</g>
</g>
<!-- Metamodel::ParametricRoleGroupHOW&#45;&gt;Metamodel::TypePretense -->
<g id="edge11" class="edge">
<title>Metamodel::ParametricRoleGroupHOW&#45;&gt;Metamodel::TypePretense</title>
<path fill="none" stroke="#6666ff" d="M1019.42,-531.74C999,-594.03 931.36,-800.34 906.58,-875.92"/>
<polygon fill="#6666ff" stroke="#6666ff" points="903.17,-875.1 903.38,-885.69 909.82,-877.28 903.17,-875.1"/>
</g>
<!-- Metamodel::ParametricRoleGroupHOW&#45;&gt;Any -->
<g id="edge3" class="edge">
<title>Metamodel::ParametricRoleGroupHOW&#45;&gt;Any</title>
<path fill="none" stroke="#000000" d="M1023.62,-531.71C1018.99,-580.37 1006.21,-714.8 1000.63,-773.5"/>
<polygon fill="#000000" stroke="#000000" points="997.14,-773.26 999.68,-783.55 1004.11,-773.92 997.14,-773.26"/>
</g>
<!-- Metamodel::ParametricRoleGroupHOW&#45;&gt;Metamodel::RolePunning -->
<g id="edge12" class="edge">
<title>Metamodel::ParametricRoleGroupHOW&#45;&gt;Metamodel::RolePunning</title>
<path fill="none" stroke="#6666ff" d="M1031.27,-531.85C1059.9,-619.26 1183.63,-997.14 1218.39,-1103.28"/>
<polygon fill="#6666ff" stroke="#6666ff" points="1215.12,-1104.55 1221.56,-1112.96 1221.77,-1102.37 1215.12,-1104.55"/>
</g>
<!-- Metamodel::ParametricRoleGroupHOW&#45;&gt;Metamodel::Naming -->
<g id="edge9" class="edge">
<title>Metamodel::ParametricRoleGroupHOW&#45;&gt;Metamodel::Naming</title>
<path fill="none" stroke="#6666ff" d="M1007.49,-532.06C950.64,-590.53 773.74,-772.48 708.75,-839.32"/>
<polygon fill="#6666ff" stroke="#6666ff" points="706.21,-836.91 701.75,-846.52 711.23,-841.79 706.21,-836.91"/>
</g>
<!-- Metamodel::ParametricRoleGroupHOW&#45;&gt;Metamodel::Stashing -->
<g id="edge10" class="edge">
<title>Metamodel::ParametricRoleGroupHOW&#45;&gt;Metamodel::Stashing</title>
<path fill="none" stroke="#6666ff" d="M1003.27,-531.56C915.08,-602.97 592.55,-864.12 592.55,-864.12 592.55,-864.12 581.17,-881.47 570.63,-897.54"/>
<polygon fill="#6666ff" stroke="#6666ff" points="567.5,-895.93 564.95,-906.21 573.36,-899.77 567.5,-895.93"/>
</g>
<!-- Metamodel::ParametricRoleGroupHOW&#45;&gt;Metamodel::BoolificationProtocol -->
<g id="edge13" class="edge">
<title>Metamodel::ParametricRoleGroupHOW&#45;&gt;Metamodel::BoolificationProtocol</title>
<path fill="none" stroke="#6666ff" d="M1030.6,-495.47C1052.22,-420.62 1134.26,-136.58 1160.44,-45.96"/>
<polygon fill="#6666ff" stroke="#6666ff" points="1163.87,-46.71 1163.28,-36.13 1157.14,-44.77 1163.87,-46.71"/>
</g>
<!-- Metamodel::Documenting -->
<g id="node10" class="node">
<title>Metamodel::Documenting</title>
<g id="a_node10"><a xlink:href="/type/Metamodel::Documenting" xlink:title="Metamodel::Documenting">
<ellipse fill="none" stroke="#6666ff" cx="245" cy="-1015.94" rx="111.28" ry="18"/>
<text text-anchor="middle" x="245" y="-1012.24" font-family="FreeSans" font-size="14.00" fill="#6666ff">Metamodel::Documenting</text>
</a>
</g>
</g>
<!-- Metamodel::MethodDelegation -->
<g id="node11" class="node">
<title>Metamodel::MethodDelegation</title>
<g id="a_node11"><a xlink:href="/type/Metamodel::MethodDelegation" xlink:title="Metamodel::MethodDelegation">
<ellipse fill="none" stroke="#6666ff" cx="131.29" cy="-261.74" rx="131.08" ry="18"/>
<text text-anchor="middle" x="131.29" y="-258.04" font-family="FreeSans" font-size="14.00" fill="#6666ff">Metamodel::MethodDelegation</text>
</a>
</g>
</g>
<!-- Metamodel::PackageHOW -->
<g id="node12" class="node">
<title>Metamodel::PackageHOW</title>
<g id="a_node12"><a xlink:href="/type/Metamodel::PackageHOW" xlink:title="Metamodel::PackageHOW">
<ellipse fill="none" stroke="#000000" cx="551.91" cy="-502.71" rx="116.18" ry="18"/>
<text text-anchor="middle" x="551.91" y="-499.01" font-family="FreeSans" font-size="14.00" fill="#000000">Metamodel::PackageHOW</text>
</a>
</g>
</g>
<!-- Metamodel::PackageHOW&#45;&gt;Metamodel::TypePretense -->
<g id="edge17" class="edge">
<title>Metamodel::PackageHOW&#45;&gt;Metamodel::TypePretense</title>
<path fill="none" stroke="#6666ff" d="M567.43,-520.73C622.78,-585.03 810.73,-803.34 875.35,-878.4"/>
<polygon fill="#6666ff" stroke="#6666ff" points="872.73,-880.73 881.91,-886.02 878.04,-876.16 872.73,-880.73"/>
</g>
<!-- Metamodel::PackageHOW&#45;&gt;Any -->
<g id="edge4" class="edge">
<title>Metamodel::PackageHOW&#45;&gt;Any</title>
<path fill="none" stroke="#000000" d="M578.15,-520.29C656.73,-572.93 889.7,-729.01 970.22,-782.96"/>
<polygon fill="#000000" stroke="#000000" points="968.58,-786.07 978.83,-788.73 972.47,-780.26 968.58,-786.07"/>
</g>
<!-- Metamodel::PackageHOW&#45;&gt;Metamodel::Naming -->
<g id="edge14" class="edge">
<title>Metamodel::PackageHOW&#45;&gt;Metamodel::Naming</title>
<path fill="none" stroke="#6666ff" d="M558.67,-521.14C580.39,-580.39 648.55,-766.26 674.4,-836.78"/>
<polygon fill="#6666ff" stroke="#6666ff" points="671.17,-838.13 677.9,-846.32 677.74,-835.72 671.17,-838.13"/>
</g>
<!-- Metamodel::PackageHOW&#45;&gt;Metamodel::Stashing -->
<g id="edge16" class="edge">
<title>Metamodel::PackageHOW&#45;&gt;Metamodel::Stashing</title>
<path fill="none" stroke="#6666ff" d="M551.96,-520.82C552.15,-586.9 552.8,-815.3 553.03,-895.85"/>
<polygon fill="#6666ff" stroke="#6666ff" points="549.53,-896.22 553.06,-906.21 556.53,-896.2 549.53,-896.22"/>
</g>
<!-- Metamodel::PackageHOW&#45;&gt;Metamodel::Documenting -->
<g id="edge15" class="edge">
<title>Metamodel::PackageHOW&#45;&gt;Metamodel::Documenting</title>
<path fill="none" stroke="#6666ff" d="M545.62,-520.75C530.64,-563.67 494.14,-668.33 494.14,-668.33 494.14,-668.33 322.07,-908.4 263.93,-989.53"/>
<polygon fill="#6666ff" stroke="#6666ff" points="261.03,-987.57 258.04,-997.74 266.71,-991.65 261.03,-987.57"/>
</g>
<!-- Metamodel::PackageHOW&#45;&gt;Metamodel::MethodDelegation -->
<g id="edge18" class="edge">
<title>Metamodel::PackageHOW&#45;&gt;Metamodel::MethodDelegation</title>
<path fill="none" stroke="#6666ff" d="M521.32,-485.18C446.52,-442.33 254.4,-332.27 170.96,-284.47"/>
<polygon fill="#6666ff" stroke="#6666ff" points="172.46,-281.3 162.05,-279.36 168.98,-287.37 172.46,-281.3"/>
</g>
<!-- Metamodel::Versioning -->
<g id="node13" class="node">
<title>Metamodel::Versioning</title>
<g id="a_node13"><a xlink:href="/type/Metamodel::Versioning" xlink:title="Metamodel::Versioning">
<ellipse fill="none" stroke="#6666ff" cx="211.2" cy="-1235.59" rx="100.98" ry="18"/>
<text text-anchor="middle" x="211.2" y="-1231.89" font-family="FreeSans" font-size="14.00" fill="#6666ff">Metamodel::Versioning</text>
</a>
</g>
</g>
<!-- Metamodel::ModuleHOW -->
<g id="node14" class="node">
<title>Metamodel::ModuleHOW</title>
<g id="a_node14"><a xlink:href="/type/Metamodel::ModuleHOW" xlink:title="Metamodel::ModuleHOW">
<ellipse fill="none" stroke="#000000" cx="382.05" cy="-668.22" rx="110.48" ry="18"/>
<text text-anchor="middle" x="382.05" y="-664.52" font-family="FreeSans" font-size="14.00" fill="#000000">Metamodel::ModuleHOW</text>
</a>
</g>
</g>
<!-- Metamodel::ModuleHOW&#45;&gt;Metamodel::TypePretense -->
<g id="edge23" class="edge">
<title>Metamodel::ModuleHOW&#45;&gt;Metamodel::TypePretense</title>
<path fill="none" stroke="#6666ff" d="M419.53,-685.36C511.75,-727.55 749.51,-836.34 850.69,-882.63"/>
<polygon fill="#6666ff" stroke="#6666ff" points="849.5,-885.93 860.05,-886.91 852.41,-879.57 849.5,-885.93"/>
</g>
<!-- Metamodel::ModuleHOW&#45;&gt;Any -->
<g id="edge5" class="edge">
<title>Metamodel::ModuleHOW&#45;&gt;Any</title>
<path fill="none" stroke="#000000" d="M448.55,-682.61C578.48,-710.74 862.1,-772.14 962.15,-793.79"/>
<polygon fill="#000000" stroke="#000000" points="961.56,-797.25 972.07,-795.94 963.04,-790.4 961.56,-797.25"/>
</g>
<!-- Metamodel::ModuleHOW&#45;&gt;Metamodel::Naming -->
<g id="edge19" class="edge">
<title>Metamodel::ModuleHOW&#45;&gt;Metamodel::Naming</title>
<path fill="none" stroke="#6666ff" d="M409.16,-685.79C464.02,-721.35 588.17,-801.84 649.23,-841.42"/>
<polygon fill="#6666ff" stroke="#6666ff" points="647.47,-844.45 657.77,-846.96 651.28,-838.58 647.47,-844.45"/>
</g>
<!-- Metamodel::ModuleHOW&#45;&gt;Metamodel::Stashing -->
<g id="edge22" class="edge">
<title>Metamodel::ModuleHOW&#45;&gt;Metamodel::Stashing</title>
<path fill="none" stroke="#6666ff" d="M394.08,-686.22C423.77,-730.66 500.65,-845.73 535.49,-897.88"/>
<polygon fill="#6666ff" stroke="#6666ff" points="532.63,-899.9 541.1,-906.27 538.45,-896.01 532.63,-899.9"/>
</g>
<!-- Metamodel::ModuleHOW&#45;&gt;Metamodel::Documenting -->
<g id="edge20" class="edge">
<title>Metamodel::ModuleHOW&#45;&gt;Metamodel::Documenting</title>
<path fill="none" stroke="#6666ff" d="M374.87,-686.42C352.35,-743.58 282.93,-919.7 255.92,-988.24"/>
<polygon fill="#6666ff" stroke="#6666ff" points="252.52,-987.33 252.11,-997.92 259.03,-989.9 252.52,-987.33"/>
</g>
<!-- Metamodel::ModuleHOW&#45;&gt;Metamodel::MethodDelegation -->
<g id="edge24" class="edge">
<title>Metamodel::ModuleHOW&#45;&gt;Metamodel::MethodDelegation</title>
<path fill="none" stroke="#6666ff" d="M370.95,-650.23C331.15,-585.71 195.42,-365.69 147.89,-288.65"/>
<polygon fill="#6666ff" stroke="#6666ff" points="150.77,-286.66 142.54,-279.99 144.81,-290.34 150.77,-286.66"/>
</g>
<!-- Metamodel::ModuleHOW&#45;&gt;Metamodel::Versioning -->
<g id="edge21" class="edge">
<title>Metamodel::ModuleHOW&#45;&gt;Metamodel::Versioning</title>
<path fill="none" stroke="#6666ff" d="M380.78,-686.42C375.78,-757.98 357.74,-1015.97 357.74,-1015.97 357.74,-1015.97 267.68,-1150.95 228.76,-1209.27"/>
<polygon fill="#6666ff" stroke="#6666ff" points="225.83,-1207.36 223.19,-1217.62 231.66,-1211.24 225.83,-1207.36"/>
</g>
<!-- Metamodel::MethodContainer -->
<g id="node15" class="node">
<title>Metamodel::MethodContainer</title>
<g id="a_node15"><a xlink:href="/type/Metamodel::MethodContainer" xlink:title="Metamodel::MethodContainer">
<ellipse fill="none" stroke="#6666ff" cx="912.18" cy="-1815.72" rx="127.28" ry="18"/>
<text text-anchor="middle" x="912.18" y="-1812.02" font-family="FreeSans" font-size="14.00" fill="#6666ff">Metamodel::MethodContainer</text>
</a>
</g>
</g>
<!-- Metamodel::PrivateMethodContainer -->
<g id="node16" class="node">
<title>Metamodel::PrivateMethodContainer</title>
<g id="a_node16"><a xlink:href="/type/Metamodel::PrivateMethodContainer" xlink:title="Metamodel::PrivateMethodContainer">
<ellipse fill="none" stroke="#6666ff" cx="1108.54" cy="-1714.24" rx="154.87" ry="18"/>
<text text-anchor="middle" x="1108.54" y="-1710.54" font-family="FreeSans" font-size="14.00" fill="#6666ff">Metamodel::PrivateMethodContainer</text>
</a>
</g>
</g>
<!-- Metamodel::MultiMethodContainer -->
<g id="node17" class="node">
<title>Metamodel::MultiMethodContainer</title>
<g id="a_node17"><a xlink:href="/type/Metamodel::MultiMethodContainer" xlink:title="Metamodel::MultiMethodContainer">
<ellipse fill="none" stroke="#6666ff" cx="1261.47" cy="-1543.76" rx="146.47" ry="18"/>
<text text-anchor="middle" x="1261.47" y="-1540.06" font-family="FreeSans" font-size="14.00" fill="#6666ff">Metamodel::MultiMethodContainer</text>
</a>
</g>
</g>
<!-- Metamodel::AttributeContainer -->
<g id="node18" class="node">
<title>Metamodel::AttributeContainer</title>
<g id="a_node18"><a xlink:href="/type/Metamodel::AttributeContainer" xlink:title="Metamodel::AttributeContainer">
<ellipse fill="none" stroke="#6666ff" cx="434" cy="-1743.43" rx="129.98" ry="18"/>
<text text-anchor="middle" x="434" y="-1739.73" font-family="FreeSans" font-size="14.00" fill="#6666ff">Metamodel::AttributeContainer</text>
</a>
</g>
</g>
<!-- Metamodel::RoleContainer -->
<g id="node19" class="node">
<title>Metamodel::RoleContainer</title>
<g id="a_node19"><a xlink:href="/type/Metamodel::RoleContainer" xlink:title="Metamodel::RoleContainer">
<ellipse fill="none" stroke="#6666ff" cx="251.33" cy="-1588.56" rx="115.88" ry="18"/>
<text text-anchor="middle" x="251.33" y="-1584.86" font-family="FreeSans" font-size="14.00" fill="#6666ff">Metamodel::RoleContainer</text>
</a>
</g>
</g>
<!-- Metamodel::MultipleInheritance -->
<g id="node20" class="node">
<title>Metamodel::MultipleInheritance</title>
<g id="a_node20"><a xlink:href="/type/Metamodel::MultipleInheritance" xlink:title="Metamodel::MultipleInheritance">
<ellipse fill="none" stroke="#6666ff" cx="642.87" cy="-1828.61" rx="133.78" ry="18"/>
<text text-anchor="middle" x="642.87" y="-1824.91" font-family="FreeSans" font-size="14.00" fill="#6666ff">Metamodel::MultipleInheritance</text>
</a>
</g>
</g>
<!-- Metamodel::ParametricRoleHOW -->
<g id="node21" class="node">
<title>Metamodel::ParametricRoleHOW</title>
<g id="a_node21"><a xlink:href="/type/Metamodel::ParametricRoleHOW" xlink:title="Metamodel::ParametricRoleHOW">
<ellipse fill="none" stroke="#000000" cx="744.52" cy="-1334.61" rx="141.88" ry="18"/>
<text text-anchor="middle" x="744.52" y="-1330.91" font-family="FreeSans" font-size="14.00" fill="#000000">Metamodel::ParametricRoleHOW</text>
</a>
</g>
</g>
<!-- Metamodel::ParametricRoleHOW&#45;&gt;Metamodel::TypePretense -->
<g id="edge35" class="edge">
<title>Metamodel::ParametricRoleHOW&#45;&gt;Metamodel::TypePretense</title>
<path fill="none" stroke="#6666ff" d="M750.99,-1316.38C774.97,-1248.84 858.85,-1012.53 887.62,-931.51"/>
<polygon fill="#6666ff" stroke="#6666ff" points="890.95,-932.58 891,-921.99 884.35,-930.24 890.95,-932.58"/>
</g>
<!-- Metamodel::ParametricRoleHOW&#45;&gt;Any -->
<g id="edge6" class="edge">
<title>Metamodel::ParametricRoleHOW&#45;&gt;Any</title>
<path fill="none" stroke="#000000" d="M755.73,-1316.66C806.61,-1235.17 1013.37,-904.06 1013.37,-904.06 1013.37,-904.06 1006.79,-860.29 1002.23,-829.95"/>
<polygon fill="#000000" stroke="#000000" points="1005.67,-829.24 1000.72,-819.87 998.74,-830.28 1005.67,-829.24"/>
</g>
<!-- Metamodel::ParametricRoleHOW&#45;&gt;Metamodel::RolePunning -->
<g id="edge36" class="edge">
<title>Metamodel::ParametricRoleHOW&#45;&gt;Metamodel::RolePunning</title>
<path fill="none" stroke="#6666ff" d="M785.7,-1317.26C874.25,-1279.95 1082.47,-1192.21 1178.01,-1151.96"/>
<polygon fill="#6666ff" stroke="#6666ff" points="1179.59,-1155.09 1187.44,-1147.98 1176.87,-1148.64 1179.59,-1155.09"/>
</g>
<!-- Metamodel::ParametricRoleHOW&#45;&gt;Metamodel::Naming -->
<g id="edge25" class="edge">
<title>Metamodel::ParametricRoleHOW&#45;&gt;Metamodel::Naming</title>
<path fill="none" stroke="#6666ff" d="M742.2,-1316.46C733.03,-1244.59 699.2,-979.59 688.07,-892.34"/>
<polygon fill="#6666ff" stroke="#6666ff" points="691.53,-891.85 686.8,-882.37 684.59,-892.74 691.53,-891.85"/>
</g>
<!-- Metamodel::ParametricRoleHOW&#45;&gt;Metamodel::Stashing -->
<g id="edge34" class="edge">
<title>Metamodel::ParametricRoleHOW&#45;&gt;Metamodel::Stashing</title>
<path fill="none" stroke="#6666ff" d="M736.05,-1316.45C705.66,-1251.3 602.01,-1029.09 565.76,-951.36"/>
<polygon fill="#6666ff" stroke="#6666ff" points="568.89,-949.79 561.49,-942.2 562.54,-952.75 568.89,-949.79"/>
</g>
<!-- Metamodel::ParametricRoleHOW&#45;&gt;Metamodel::Documenting -->
<g id="edge26" class="edge">
<title>Metamodel::ParametricRoleHOW&#45;&gt;Metamodel::Documenting</title>
<path fill="none" stroke="#6666ff" d="M716.59,-1316.8C631.6,-1262.58 376.12,-1099.59 281.11,-1038.98"/>
<polygon fill="#6666ff" stroke="#6666ff" points="282.74,-1035.86 272.42,-1033.44 278.97,-1041.77 282.74,-1035.86"/>
</g>
<!-- Metamodel::ParametricRoleHOW&#45;&gt;Metamodel::Versioning -->
<g id="edge27" class="edge">
<title>Metamodel::ParametricRoleHOW&#45;&gt;Metamodel::Versioning</title>
<path fill="none" stroke="#6666ff" d="M664.39,-1319.73C563.74,-1301.05 392.07,-1269.17 291.4,-1250.48"/>
<polygon fill="#6666ff" stroke="#6666ff" points="291.75,-1246.99 281.28,-1248.6 290.48,-1253.87 291.75,-1246.99"/>
</g>
<!-- Metamodel::ParametricRoleHOW&#45;&gt;Metamodel::MethodContainer -->
<g id="edge28" class="edge">
<title>Metamodel::ParametricRoleHOW&#45;&gt;Metamodel::MethodContainer</title>
<path fill="none" stroke="#6666ff" d="M750.89,-1352.88C776.46,-1426.27 871.8,-1699.86 902.55,-1788.1"/>
<polygon fill="#6666ff" stroke="#6666ff" points="899.3,-1789.39 905.89,-1797.69 905.91,-1787.09 899.3,-1789.39"/>
</g>
<!-- Metamodel::ParametricRoleHOW&#45;&gt;Metamodel::PrivateMethodContainer -->
<g id="edge29" class="edge">
<title>Metamodel::ParametricRoleHOW&#45;&gt;Metamodel::PrivateMethodContainer</title>
<path fill="none" stroke="#6666ff" d="M761.83,-1352.67C821,-1414.37 1015.3,-1616.99 1084.12,-1688.76"/>
<polygon fill="#6666ff" stroke="#6666ff" points="1081.68,-1691.28 1091.13,-1696.07 1086.73,-1686.43 1081.68,-1691.28"/>
</g>
<!-- Metamodel::ParametricRoleHOW&#45;&gt;Metamodel::MultiMethodContainer -->
<g id="edge30" class="edge">
<title>Metamodel::ParametricRoleHOW&#45;&gt;Metamodel::MultiMethodContainer</title>
<path fill="none" stroke="#6666ff" d="M787.26,-1351.91C881.47,-1390.02 1106.72,-1481.15 1209.16,-1522.59"/>
<polygon fill="#6666ff" stroke="#6666ff" points="1208.1,-1525.94 1218.68,-1526.44 1210.72,-1519.45 1208.1,-1525.94"/>
</g>
<!-- Metamodel::ParametricRoleHOW&#45;&gt;Metamodel::AttributeContainer -->
<g id="edge31" class="edge">
<title>Metamodel::ParametricRoleHOW&#45;&gt;Metamodel::AttributeContainer</title>
<path fill="none" stroke="#6666ff" d="M730.78,-1352.71C681.39,-1417.73 512.73,-1639.78 454.2,-1716.83"/>
<polygon fill="#6666ff" stroke="#6666ff" points="451.2,-1715 447.94,-1725.08 456.77,-1719.23 451.2,-1715"/>
</g>
<!-- Metamodel::ParametricRoleHOW&#45;&gt;Metamodel::RoleContainer -->
<g id="edge32" class="edge">
<title>Metamodel::ParametricRoleHOW&#45;&gt;Metamodel::RoleContainer</title>
<path fill="none" stroke="#6666ff" d="M710.23,-1352.27C622.6,-1397.39 390.59,-1516.86 294.23,-1566.47"/>
<polygon fill="#6666ff" stroke="#6666ff" points="292.35,-1563.5 285.06,-1571.19 295.56,-1569.73 292.35,-1563.5"/>
</g>
<!-- Metamodel::ParametricRoleHOW&#45;&gt;Metamodel::MultipleInheritance -->
<g id="edge33" class="edge">
<title>Metamodel::ParametricRoleHOW&#45;&gt;Metamodel::MultipleInheritance</title>
<path fill="none" stroke="#6666ff" d="M740.78,-1352.78C725.43,-1427.37 667.19,-1710.43 648.61,-1800.74"/>
<polygon fill="#6666ff" stroke="#6666ff" points="645.18,-1800.04 646.59,-1810.54 652.03,-1801.45 645.18,-1800.04"/>
</g>
</g>
</svg>
