<?xml version="1.0" encoding="UTF-8" standalone="no"?>
<!DOCTYPE svg PUBLIC "-//W3C//DTD SVG 1.1//EN"
 "http://www.w3.org/Graphics/SVG/1.1/DTD/svg11.dtd">
<!-- Generated by graphviz version 2.43.0 (0)
 -->
<!-- Title: perl6&#45;type&#45;graph Pages: 1 -->
<svg width="1325pt" height="1453pt"
 viewBox="0.00 0.00 1325.47 1453.30" xmlns="http://www.w3.org/2000/svg" xmlns:xlink="http://www.w3.org/1999/xlink">
<g id="graph0" class="graph" transform="scale(1 1) rotate(0) translate(4 1449.3)">
<title>perl6&#45;type&#45;graph</title>
<polygon fill="white" stroke="transparent" points="-4,4 -4,-1449.3 1321.47,-1449.3 1321.47,4 -4,4"/>
<!-- Metamodel::BaseType -->
<g id="node1" class="node">
<title>Metamodel::BaseType</title>
<g id="a_node1"><a xlink:href="/type/Metamodel::BaseType" xlink:title="Metamodel::BaseType">
<ellipse fill="none" stroke="#6666ff" cx="99.44" cy="-886.07" rx="99.38" ry="18"/>
<text text-anchor="middle" x="99.44" y="-882.37" font-family="FreeSans" font-size="14.00" fill="#6666ff">Metamodel::BaseType</text>
</a>
</g>
</g>
<!-- Mu -->
<g id="node2" class="node">
<title>Mu</title>
<g id="a_node2"><a xlink:href="/type/Mu" xlink:title="Mu">
<ellipse fill="none" stroke="#000000" cx="1180.84" cy="-18" rx="27" ry="18"/>
<text text-anchor="middle" x="1180.84" y="-14.3" font-family="FreeSans" font-size="14.00" fill="#000000">Mu</text>
</a>
</g>
</g>
<!-- Any -->
<g id="node3" class="node">
<title>Any</title>
<g id="a_node3"><a xlink:href="/type/Any" xlink:title="Any">
<ellipse fill="none" stroke="#000000" cx="907.93" cy="-415.01" rx="27" ry="18"/>
<text text-anchor="middle" x="907.93" y="-411.31" font-family="FreeSans" font-size="14.00" fill="#000000">Any</text>
</a>
</g>
</g>
<!-- Any&#45;&gt;Mu -->
<g id="edge1" class="edge">
<title>Any&#45;&gt;Mu</title>
<path fill="none" stroke="#000000" d="M919.31,-398.45C961.97,-336.41 1112.52,-117.38 1163.68,-42.96"/>
<polygon fill="#000000" stroke="#000000" points="1166.63,-44.85 1169.41,-34.62 1160.86,-40.88 1166.63,-44.85"/>
</g>
<!-- Metamodel::Naming -->
<g id="node4" class="node">
<title>Metamodel::Naming</title>
<g id="a_node4"><a xlink:href="/type/Metamodel::Naming" xlink:title="Metamodel::Naming">
<ellipse fill="none" stroke="#6666ff" cx="547.08" cy="-1427.3" rx="90.18" ry="18"/>
<text text-anchor="middle" x="547.08" y="-1423.6" font-family="FreeSans" font-size="14.00" fill="#6666ff">Metamodel::Naming</text>
</a>
</g>
</g>
<!-- Metamodel::Stashing -->
<g id="node5" class="node">
<title>Metamodel::Stashing</title>
<g id="a_node5"><a xlink:href="/type/Metamodel::Stashing" xlink:title="Metamodel::Stashing">
<ellipse fill="none" stroke="#6666ff" cx="995.44" cy="-1299.8" rx="93.68" ry="18"/>
<text text-anchor="middle" x="995.44" y="-1296.1" font-family="FreeSans" font-size="14.00" fill="#6666ff">Metamodel::Stashing</text>
</a>
</g>
</g>
<!-- Metamodel::AttributeContainer -->
<g id="node6" class="node">
<title>Metamodel::AttributeContainer</title>
<g id="a_node6"><a xlink:href="/type/Metamodel::AttributeContainer" xlink:title="Metamodel::AttributeContainer">
<ellipse fill="none" stroke="#6666ff" cx="324.88" cy="-1329.28" rx="129.98" ry="18"/>
<text text-anchor="middle" x="324.88" y="-1325.58" font-family="FreeSans" font-size="14.00" fill="#6666ff">Metamodel::AttributeContainer</text>
</a>
</g>
</g>
<!-- Metamodel::MethodContainer -->
<g id="node7" class="node">
<title>Metamodel::MethodContainer</title>
<g id="a_node7"><a xlink:href="/type/Metamodel::MethodContainer" xlink:title="Metamodel::MethodContainer">
<ellipse fill="none" stroke="#6666ff" cx="303.33" cy="-481.33" rx="127.28" ry="18"/>
<text text-anchor="middle" x="303.33" y="-477.63" font-family="FreeSans" font-size="14.00" fill="#6666ff">Metamodel::MethodContainer</text>
</a>
</g>
</g>
<!-- Metamodel::MultiMethodContainer -->
<g id="node8" class="node">
<title>Metamodel::MultiMethodContainer</title>
<g id="a_node8"><a xlink:href="/type/Metamodel::MultiMethodContainer" xlink:title="Metamodel::MultiMethodContainer">
<ellipse fill="none" stroke="#6666ff" cx="1171.24" cy="-852.91" rx="146.47" ry="18"/>
<text text-anchor="middle" x="1171.24" y="-849.21" font-family="FreeSans" font-size="14.00" fill="#6666ff">Metamodel::MultiMethodContainer</text>
</a>
</g>
</g>
<!-- Metamodel::RoleContainer -->
<g id="node9" class="node">
<title>Metamodel::RoleContainer</title>
<g id="a_node9"><a xlink:href="/type/Metamodel::RoleContainer" xlink:title="Metamodel::RoleContainer">
<ellipse fill="none" stroke="#6666ff" cx="252.6" cy="-705.72" rx="115.88" ry="18"/>
<text text-anchor="middle" x="252.6" y="-702.02" font-family="FreeSans" font-size="14.00" fill="#6666ff">Metamodel::RoleContainer</text>
</a>
</g>
</g>
<!-- Metamodel::MROBasedMethodDispatch -->
<g id="node10" class="node">
<title>Metamodel::MROBasedMethodDispatch</title>
<g id="a_node10"><a xlink:href="/type/Metamodel::MROBasedMethodDispatch" xlink:title="Metamodel::MROBasedMethodDispatch">
<ellipse fill="none" stroke="#6666ff" cx="975.6" cy="-687.68" rx="169.77" ry="18"/>
<text text-anchor="middle" x="975.6" y="-683.98" font-family="FreeSans" font-size="14.00" fill="#6666ff">Metamodel::MROBasedMethodDispatch</text>
</a>
</g>
</g>
<!-- Metamodel::MROBasedTypeChecking -->
<g id="node11" class="node">
<title>Metamodel::MROBasedTypeChecking</title>
<g id="a_node11"><a xlink:href="/type/Metamodel::MROBasedTypeChecking" xlink:title="Metamodel::MROBasedTypeChecking">
<ellipse fill="none" stroke="#6666ff" cx="601.88" cy="-449.56" rx="163.27" ry="18"/>
<text text-anchor="middle" x="601.88" y="-445.86" font-family="FreeSans" font-size="14.00" fill="#6666ff">Metamodel::MROBasedTypeChecking</text>
</a>
</g>
</g>
<!-- Metamodel::BUILDPLAN -->
<g id="node12" class="node">
<title>Metamodel::BUILDPLAN</title>
<g id="a_node12"><a xlink:href="/type/Metamodel::BUILDPLAN" xlink:title="Metamodel::BUILDPLAN">
<ellipse fill="none" stroke="#6666ff" cx="178.48" cy="-1134.69" rx="109.68" ry="18"/>
<text text-anchor="middle" x="178.48" y="-1130.99" font-family="FreeSans" font-size="14.00" fill="#6666ff">Metamodel::BUILDPLAN</text>
</a>
</g>
</g>
<!-- Metamodel::BoolificationProtocol -->
<g id="node13" class="node">
<title>Metamodel::BoolificationProtocol</title>
<g id="a_node13"><a xlink:href="/type/Metamodel::BoolificationProtocol" xlink:title="Metamodel::BoolificationProtocol">
<ellipse fill="none" stroke="#6666ff" cx="1138.8" cy="-1106.74" rx="139.18" ry="18"/>
<text text-anchor="middle" x="1138.8" y="-1103.04" font-family="FreeSans" font-size="14.00" fill="#6666ff">Metamodel::BoolificationProtocol</text>
</a>
</g>
</g>
<!-- Metamodel::Mixins -->
<g id="node14" class="node">
<title>Metamodel::Mixins</title>
<g id="a_node14"><a xlink:href="/type/Metamodel::Mixins" xlink:title="Metamodel::Mixins">
<ellipse fill="none" stroke="#6666ff" cx="790.87" cy="-1427.19" rx="85.29" ry="18"/>
<text text-anchor="middle" x="790.87" y="-1423.49" font-family="FreeSans" font-size="14.00" fill="#6666ff">Metamodel::Mixins</text>
</a>
</g>
</g>
<!-- Metamodel::EnumHOW -->
<g id="node15" class="node">
<title>Metamodel::EnumHOW</title>
<g id="a_node15"><a xlink:href="/type/Metamodel::EnumHOW" xlink:title="Metamodel::EnumHOW">
<ellipse fill="none" stroke="#000000" cx="644.01" cy="-929.25" rx="104.78" ry="18"/>
<text text-anchor="middle" x="644.01" y="-925.55" font-family="FreeSans" font-size="14.00" fill="#000000">Metamodel::EnumHOW</text>
</a>
</g>
</g>
<!-- Metamodel::EnumHOW&#45;&gt;Metamodel::BaseType -->
<g id="edge9" class="edge">
<title>Metamodel::EnumHOW&#45;&gt;Metamodel::BaseType</title>
<path fill="none" stroke="#6666ff" d="M548.84,-921.7C451.42,-913.98 300.57,-902.02 200.92,-894.12"/>
<polygon fill="#6666ff" stroke="#6666ff" points="201.08,-890.62 190.84,-893.32 200.53,-897.6 201.08,-890.62"/>
</g>
<!-- Metamodel::EnumHOW&#45;&gt;Any -->
<g id="edge2" class="edge">
<title>Metamodel::EnumHOW&#45;&gt;Any</title>
<path fill="none" stroke="#000000" d="M653.25,-911.25C692.77,-834.24 847.75,-532.28 894.51,-441.17"/>
<polygon fill="#000000" stroke="#000000" points="897.72,-442.57 899.18,-432.07 891.5,-439.37 897.72,-442.57"/>
</g>
<!-- Metamodel::EnumHOW&#45;&gt;Metamodel::Naming -->
<g id="edge3" class="edge">
<title>Metamodel::EnumHOW&#45;&gt;Metamodel::Naming</title>
<path fill="none" stroke="#6666ff" d="M640.5,-947.27C625.94,-1022.09 570.19,-1308.56 552.5,-1399.45"/>
<polygon fill="#6666ff" stroke="#6666ff" points="549.05,-1398.82 550.58,-1409.31 555.93,-1400.16 549.05,-1398.82"/>
</g>
<!-- Metamodel::EnumHOW&#45;&gt;Metamodel::Stashing -->
<g id="edge4" class="edge">
<title>Metamodel::EnumHOW&#45;&gt;Metamodel::Stashing</title>
<path fill="none" stroke="#6666ff" d="M660.96,-947.12C718.13,-1007.39 903.99,-1203.37 971.04,-1274.07"/>
<polygon fill="#6666ff" stroke="#6666ff" points="968.83,-1276.82 978.25,-1281.67 973.91,-1272.01 968.83,-1276.82"/>
</g>
<!-- Metamodel::EnumHOW&#45;&gt;Metamodel::AttributeContainer -->
<g id="edge5" class="edge">
<title>Metamodel::EnumHOW&#45;&gt;Metamodel::AttributeContainer</title>
<path fill="none" stroke="#6666ff" d="M629.68,-947.21C578.64,-1011.18 405.62,-1228.06 345.59,-1303.31"/>
<polygon fill="#6666ff" stroke="#6666ff" points="342.67,-1301.36 339.17,-1311.36 348.14,-1305.73 342.67,-1301.36"/>
</g>
<!-- Metamodel::EnumHOW&#45;&gt;Metamodel::MethodContainer -->
<g id="edge6" class="edge">
<title>Metamodel::EnumHOW&#45;&gt;Metamodel::MethodContainer</title>
<path fill="none" stroke="#6666ff" d="M630.23,-911.13C577.21,-841.42 386.18,-590.25 323.44,-507.77"/>
<polygon fill="#6666ff" stroke="#6666ff" points="326.12,-505.51 317.28,-499.67 320.55,-509.74 326.12,-505.51"/>
</g>
<!-- Metamodel::EnumHOW&#45;&gt;Metamodel::MultiMethodContainer -->
<g id="edge7" class="edge">
<title>Metamodel::EnumHOW&#45;&gt;Metamodel::MultiMethodContainer</title>
<path fill="none" stroke="#6666ff" d="M724.08,-917.65C815.53,-904.41 965.46,-882.71 1066.21,-868.12"/>
<polygon fill="#6666ff" stroke="#6666ff" points="1066.71,-871.58 1076.1,-866.69 1065.71,-864.66 1066.71,-871.58"/>
</g>
<!-- Metamodel::EnumHOW&#45;&gt;Metamodel::RoleContainer -->
<g id="edge8" class="edge">
<title>Metamodel::EnumHOW&#45;&gt;Metamodel::RoleContainer</title>
<path fill="none" stroke="#6666ff" d="M613.62,-911.89C543.55,-871.88 370.64,-773.13 292.31,-728.4"/>
<polygon fill="#6666ff" stroke="#6666ff" points="293.66,-725.14 283.24,-723.22 290.18,-731.22 293.66,-725.14"/>
</g>
<!-- Metamodel::EnumHOW&#45;&gt;Metamodel::MROBasedMethodDispatch -->
<g id="edge10" class="edge">
<title>Metamodel::EnumHOW&#45;&gt;Metamodel::MROBasedMethodDispatch</title>
<path fill="none" stroke="#6666ff" d="M668.12,-911.68C726.6,-869.08 876.04,-760.21 942.67,-711.67"/>
<polygon fill="#6666ff" stroke="#6666ff" points="945.1,-714.22 951.13,-705.5 940.98,-708.56 945.1,-714.22"/>
</g>
<!-- Metamodel::EnumHOW&#45;&gt;Metamodel::MROBasedTypeChecking -->
<g id="edge11" class="edge">
<title>Metamodel::EnumHOW&#45;&gt;Metamodel::MROBasedTypeChecking</title>
<path fill="none" stroke="#6666ff" d="M642.41,-911.03C636,-838.09 612.18,-566.79 604.37,-477.94"/>
<polygon fill="#6666ff" stroke="#6666ff" points="607.85,-477.46 603.48,-467.8 600.87,-478.07 607.85,-477.46"/>
</g>
<!-- Metamodel::EnumHOW&#45;&gt;Metamodel::BUILDPLAN -->
<g id="edge12" class="edge">
<title>Metamodel::EnumHOW&#45;&gt;Metamodel::BUILDPLAN</title>
<path fill="none" stroke="#6666ff" d="M605.91,-946.06C521.5,-983.31 318.86,-1072.74 226.19,-1113.63"/>
<polygon fill="#6666ff" stroke="#6666ff" points="224.51,-1110.55 216.77,-1117.79 227.33,-1116.95 224.51,-1110.55"/>
</g>
<!-- Metamodel::EnumHOW&#45;&gt;Metamodel::BoolificationProtocol -->
<g id="edge13" class="edge">
<title>Metamodel::EnumHOW&#45;&gt;Metamodel::BoolificationProtocol</title>
<path fill="none" stroke="#6666ff" d="M689.67,-945.63C780.31,-978.14 982.75,-1050.76 1081.89,-1086.32"/>
<polygon fill="#6666ff" stroke="#6666ff" points="1080.85,-1089.67 1091.44,-1089.75 1083.21,-1083.08 1080.85,-1089.67"/>
</g>
<!-- Metamodel::EnumHOW&#45;&gt;Metamodel::Mixins -->
<g id="edge14" class="edge">
<title>Metamodel::EnumHOW&#45;&gt;Metamodel::Mixins</title>
<path fill="none" stroke="#6666ff" d="M649.32,-947.26C671.38,-1022.06 755.86,-1308.47 782.66,-1399.35"/>
<polygon fill="#6666ff" stroke="#6666ff" points="779.38,-1400.59 785.56,-1409.19 786.09,-1398.61 779.38,-1400.59"/>
</g>
</g>
</svg>
