<?xml version="1.0" encoding="UTF-8" standalone="no"?>
<!DOCTYPE svg PUBLIC "-//W3C//DTD SVG 1.1//EN"
 "http://www.w3.org/Graphics/SVG/1.1/DTD/svg11.dtd">
<!-- Generated by graphviz version 2.43.0 (0)
 -->
<!-- Title: perl6&#45;type&#45;graph Pages: 1 -->
<svg width="1971pt" height="1685pt"
 viewBox="0.00 0.00 1971.44 1684.64" xmlns="http://www.w3.org/2000/svg" xmlns:xlink="http://www.w3.org/1999/xlink">
<g id="graph0" class="graph" transform="scale(1 1) rotate(0) translate(4 1680.64)">
<title>perl6&#45;type&#45;graph</title>
<polygon fill="white" stroke="transparent" points="-4,4 -4,-1680.64 1967.44,-1680.64 1967.44,4 -4,4"/>
<!-- Metamodel::AttributeContainer -->
<g id="node1" class="node">
<title>Metamodel::AttributeContainer</title>
<g id="a_node1"><a xlink:href="/type/Metamodel::AttributeContainer" xlink:title="Metamodel::AttributeContainer">
<ellipse fill="none" stroke="#6666ff" cx="841.87" cy="-712.44" rx="129.98" ry="18"/>
<text text-anchor="middle" x="841.87" y="-708.74" font-family="FreeSans" font-size="14.00" fill="#6666ff">Metamodel::AttributeContainer</text>
</a>
</g>
</g>
<!-- Mu -->
<g id="node2" class="node">
<title>Mu</title>
<g id="a_node2"><a xlink:href="/type/Mu" xlink:title="Mu">
<ellipse fill="none" stroke="#000000" cx="1186.21" cy="-18" rx="27" ry="18"/>
<text text-anchor="middle" x="1186.21" y="-14.3" font-family="FreeSans" font-size="14.00" fill="#000000">Mu</text>
</a>
</g>
</g>
<!-- Any -->
<g id="node3" class="node">
<title>Any</title>
<g id="a_node3"><a xlink:href="/type/Any" xlink:title="Any">
<ellipse fill="none" stroke="#000000" cx="1048.04" cy="-496.36" rx="27" ry="18"/>
<text text-anchor="middle" x="1048.04" y="-492.66" font-family="FreeSans" font-size="14.00" fill="#000000">Any</text>
</a>
</g>
</g>
<!-- Any&#45;&gt;Mu -->
<g id="edge1" class="edge">
<title>Any&#45;&gt;Mu</title>
<path fill="none" stroke="#000000" d="M1053.2,-478.48C1074.15,-405.95 1152.88,-133.37 1178.27,-45.49"/>
<polygon fill="#000000" stroke="#000000" points="1181.68,-46.29 1181.09,-35.71 1174.95,-44.35 1181.68,-46.29"/>
</g>
<!-- Metamodel::Naming -->
<g id="node4" class="node">
<title>Metamodel::Naming</title>
<g id="a_node4"><a xlink:href="/type/Metamodel::Naming" xlink:title="Metamodel::Naming">
<ellipse fill="none" stroke="#6666ff" cx="984.47" cy="-974.42" rx="90.18" ry="18"/>
<text text-anchor="middle" x="984.47" y="-970.72" font-family="FreeSans" font-size="14.00" fill="#6666ff">Metamodel::Naming</text>
</a>
</g>
</g>
<!-- Metamodel::Stashing -->
<g id="node5" class="node">
<title>Metamodel::Stashing</title>
<g id="a_node5"><a xlink:href="/type/Metamodel::Stashing" xlink:title="Metamodel::Stashing">
<ellipse fill="none" stroke="#6666ff" cx="856.29" cy="-1185.64" rx="93.68" ry="18"/>
<text text-anchor="middle" x="856.29" y="-1181.94" font-family="FreeSans" font-size="14.00" fill="#6666ff">Metamodel::Stashing</text>
</a>
</g>
</g>
<!-- Metamodel::MethodContainer -->
<g id="node6" class="node">
<title>Metamodel::MethodContainer</title>
<g id="a_node6"><a xlink:href="/type/Metamodel::MethodContainer" xlink:title="Metamodel::MethodContainer">
<ellipse fill="none" stroke="#6666ff" cx="933.95" cy="-844.66" rx="127.28" ry="18"/>
<text text-anchor="middle" x="933.95" y="-840.96" font-family="FreeSans" font-size="14.00" fill="#6666ff">Metamodel::MethodContainer</text>
</a>
</g>
</g>
<!-- Metamodel::MultiMethodContainer -->
<g id="node7" class="node">
<title>Metamodel::MultiMethodContainer</title>
<g id="a_node7"><a xlink:href="/type/Metamodel::MultiMethodContainer" xlink:title="Metamodel::MultiMethodContainer">
<ellipse fill="none" stroke="#6666ff" cx="918.55" cy="-563.57" rx="146.47" ry="18"/>
<text text-anchor="middle" x="918.55" y="-559.87" font-family="FreeSans" font-size="14.00" fill="#6666ff">Metamodel::MultiMethodContainer</text>
</a>
</g>
</g>
<!-- Metamodel::RoleContainer -->
<g id="node8" class="node">
<title>Metamodel::RoleContainer</title>
<g id="a_node8"><a xlink:href="/type/Metamodel::RoleContainer" xlink:title="Metamodel::RoleContainer">
<ellipse fill="none" stroke="#6666ff" cx="1095.58" cy="-680.54" rx="115.88" ry="18"/>
<text text-anchor="middle" x="1095.58" y="-676.84" font-family="FreeSans" font-size="14.00" fill="#6666ff">Metamodel::RoleContainer</text>
</a>
</g>
</g>
<!-- Metamodel::BaseType -->
<g id="node9" class="node">
<title>Metamodel::BaseType</title>
<g id="a_node9"><a xlink:href="/type/Metamodel::BaseType" xlink:title="Metamodel::BaseType">
<ellipse fill="none" stroke="#6666ff" cx="375.1" cy="-82.83" rx="99.38" ry="18"/>
<text text-anchor="middle" x="375.1" y="-79.13" font-family="FreeSans" font-size="14.00" fill="#6666ff">Metamodel::BaseType</text>
</a>
</g>
</g>
<!-- Metamodel::MROBasedMethodDispatch -->
<g id="node10" class="node">
<title>Metamodel::MROBasedMethodDispatch</title>
<g id="a_node10"><a xlink:href="/type/Metamodel::MROBasedMethodDispatch" xlink:title="Metamodel::MROBasedMethodDispatch">
<ellipse fill="none" stroke="#6666ff" cx="303.75" cy="-595.41" rx="169.77" ry="18"/>
<text text-anchor="middle" x="303.75" y="-591.71" font-family="FreeSans" font-size="14.00" fill="#6666ff">Metamodel::MROBasedMethodDispatch</text>
</a>
</g>
</g>
<!-- Metamodel::MROBasedTypeChecking -->
<g id="node11" class="node">
<title>Metamodel::MROBasedTypeChecking</title>
<g id="a_node11"><a xlink:href="/type/Metamodel::MROBasedTypeChecking" xlink:title="Metamodel::MROBasedTypeChecking">
<ellipse fill="none" stroke="#6666ff" cx="215.64" cy="-736.47" rx="163.27" ry="18"/>
<text text-anchor="middle" x="215.64" y="-732.77" font-family="FreeSans" font-size="14.00" fill="#6666ff">Metamodel::MROBasedTypeChecking</text>
</a>
</g>
</g>
<!-- Metamodel::BUILDPLAN -->
<g id="node12" class="node">
<title>Metamodel::BUILDPLAN</title>
<g id="a_node12"><a xlink:href="/type/Metamodel::BUILDPLAN" xlink:title="Metamodel::BUILDPLAN">
<ellipse fill="none" stroke="#6666ff" cx="109.84" cy="-926.8" rx="109.68" ry="18"/>
<text text-anchor="middle" x="109.84" y="-923.1" font-family="FreeSans" font-size="14.00" fill="#6666ff">Metamodel::BUILDPLAN</text>
</a>
</g>
</g>
<!-- Metamodel::BoolificationProtocol -->
<g id="node13" class="node">
<title>Metamodel::BoolificationProtocol</title>
<g id="a_node13"><a xlink:href="/type/Metamodel::BoolificationProtocol" xlink:title="Metamodel::BoolificationProtocol">
<ellipse fill="none" stroke="#6666ff" cx="366.89" cy="-915.61" rx="139.18" ry="18"/>
<text text-anchor="middle" x="366.89" y="-911.91" font-family="FreeSans" font-size="14.00" fill="#6666ff">Metamodel::BoolificationProtocol</text>
</a>
</g>
</g>
<!-- Metamodel::Mixins -->
<g id="node14" class="node">
<title>Metamodel::Mixins</title>
<g id="a_node14"><a xlink:href="/type/Metamodel::Mixins" xlink:title="Metamodel::Mixins">
<ellipse fill="none" stroke="#6666ff" cx="250.5" cy="-1100" rx="85.29" ry="18"/>
<text text-anchor="middle" x="250.5" y="-1096.3" font-family="FreeSans" font-size="14.00" fill="#6666ff">Metamodel::Mixins</text>
</a>
</g>
</g>
<!-- Metamodel::EnumHOW -->
<g id="node15" class="node">
<title>Metamodel::EnumHOW</title>
<g id="a_node15"><a xlink:href="/type/Metamodel::EnumHOW" xlink:title="Metamodel::EnumHOW">
<ellipse fill="none" stroke="#000000" cx="586.1" cy="-596.62" rx="104.78" ry="18"/>
<text text-anchor="middle" x="586.1" y="-592.92" font-family="FreeSans" font-size="14.00" fill="#000000">Metamodel::EnumHOW</text>
</a>
</g>
</g>
<!-- Metamodel::EnumHOW&#45;&gt;Metamodel::AttributeContainer -->
<g id="edge8" class="edge">
<title>Metamodel::EnumHOW&#45;&gt;Metamodel::AttributeContainer</title>
<path fill="none" stroke="#6666ff" d="M623.29,-613.46C668.59,-633.97 745.16,-668.64 794.6,-691.03"/>
<polygon fill="#6666ff" stroke="#6666ff" points="793.25,-694.26 803.8,-695.2 796.14,-687.88 793.25,-694.26"/>
</g>
<!-- Metamodel::EnumHOW&#45;&gt;Any -->
<g id="edge2" class="edge">
<title>Metamodel::EnumHOW&#45;&gt;Any</title>
<path fill="none" stroke="#000000" d="M651.3,-582.47C750.11,-561.02 934.48,-521 1012.11,-504.15"/>
<polygon fill="#000000" stroke="#000000" points="1013.31,-507.48 1022.34,-501.93 1011.82,-500.64 1013.31,-507.48"/>
</g>
<!-- Metamodel::EnumHOW&#45;&gt;Metamodel::Naming -->
<g id="edge6" class="edge">
<title>Metamodel::EnumHOW&#45;&gt;Metamodel::Naming</title>
<path fill="none" stroke="#6666ff" d="M601.84,-614.45C652.02,-671.29 804.97,-844.54 804.97,-844.54 804.97,-844.54 900.35,-913.55 952.05,-950.97"/>
<polygon fill="#6666ff" stroke="#6666ff" points="950.1,-953.88 960.26,-956.91 954.21,-948.21 950.1,-953.88"/>
</g>
<!-- Metamodel::EnumHOW&#45;&gt;Metamodel::Stashing -->
<g id="edge7" class="edge">
<title>Metamodel::EnumHOW&#45;&gt;Metamodel::Stashing</title>
<path fill="none" stroke="#6666ff" d="M594.33,-614.57C633.02,-698.91 796.81,-1055.98 843.7,-1158.2"/>
<polygon fill="#6666ff" stroke="#6666ff" points="840.64,-1159.91 847.99,-1167.54 847,-1156.99 840.64,-1159.91"/>
</g>
<!-- Metamodel::EnumHOW&#45;&gt;Metamodel::MethodContainer -->
<g id="edge9" class="edge">
<title>Metamodel::EnumHOW&#45;&gt;Metamodel::MethodContainer</title>
<path fill="none" stroke="#6666ff" d="M605.23,-614.45C640.07,-646.91 710.29,-712.35 710.29,-712.35 710.29,-712.35 831.72,-784.18 895.63,-821.99"/>
<polygon fill="#6666ff" stroke="#6666ff" points="893.86,-825.01 904.25,-827.09 897.43,-818.99 893.86,-825.01"/>
</g>
<!-- Metamodel::EnumHOW&#45;&gt;Metamodel::MultiMethodContainer -->
<g id="edge10" class="edge">
<title>Metamodel::EnumHOW&#45;&gt;Metamodel::MultiMethodContainer</title>
<path fill="none" stroke="#6666ff" d="M676.94,-587.59C713.12,-583.99 755.34,-579.79 794.28,-575.92"/>
<polygon fill="#6666ff" stroke="#6666ff" points="795.03,-579.37 804.63,-574.89 794.34,-572.4 795.03,-579.37"/>
</g>
<!-- Metamodel::EnumHOW&#45;&gt;Metamodel::RoleContainer -->
<g id="edge11" class="edge">
<title>Metamodel::EnumHOW&#45;&gt;Metamodel::RoleContainer</title>
<path fill="none" stroke="#6666ff" d="M661.82,-609.09C753.65,-624.22 908.24,-649.68 1005.93,-665.77"/>
<polygon fill="#6666ff" stroke="#6666ff" points="1005.64,-669.27 1016.08,-667.44 1006.78,-662.36 1005.64,-669.27"/>
</g>
<!-- Metamodel::EnumHOW&#45;&gt;Metamodel::BaseType -->
<g id="edge12" class="edge">
<title>Metamodel::EnumHOW&#45;&gt;Metamodel::BaseType</title>
<path fill="none" stroke="#6666ff" d="M578.71,-578.63C547.25,-502.03 424.32,-202.68 386.34,-110.2"/>
<polygon fill="#6666ff" stroke="#6666ff" points="389.57,-108.85 382.54,-100.93 383.1,-111.51 389.57,-108.85"/>
</g>
<!-- Metamodel::EnumHOW&#45;&gt;Metamodel::MROBasedMethodDispatch -->
<g id="edge13" class="edge">
<title>Metamodel::EnumHOW&#45;&gt;Metamodel::MROBasedMethodDispatch</title>
<path fill="none" stroke="#6666ff" d="M481.36,-596.17C481.28,-596.17 481.2,-596.17 481.11,-596.17"/>
<polygon fill="#6666ff" stroke="#6666ff" points="483.32,-592.68 473.31,-596.13 483.29,-599.68 483.32,-592.68"/>
</g>
<!-- Metamodel::EnumHOW&#45;&gt;Metamodel::MROBasedTypeChecking -->
<g id="edge14" class="edge">
<title>Metamodel::EnumHOW&#45;&gt;Metamodel::MROBasedTypeChecking</title>
<path fill="none" stroke="#6666ff" d="M542.51,-613.07C475.06,-638.54 345.44,-687.47 271.31,-715.45"/>
<polygon fill="#6666ff" stroke="#6666ff" points="269.79,-712.29 261.67,-719.09 272.26,-718.83 269.79,-712.29"/>
</g>
<!-- Metamodel::EnumHOW&#45;&gt;Metamodel::BUILDPLAN -->
<g id="edge15" class="edge">
<title>Metamodel::EnumHOW&#45;&gt;Metamodel::BUILDPLAN</title>
<path fill="none" stroke="#6666ff" d="M560.83,-614.14C481,-669.48 234.17,-840.6 143.6,-903.39"/>
<polygon fill="#6666ff" stroke="#6666ff" points="141.56,-900.55 135.34,-909.12 145.55,-906.3 141.56,-900.55"/>
</g>
<!-- Metamodel::EnumHOW&#45;&gt;Metamodel::BoolificationProtocol -->
<g id="edge16" class="edge">
<title>Metamodel::EnumHOW&#45;&gt;Metamodel::BoolificationProtocol</title>
<path fill="none" stroke="#6666ff" d="M573.68,-614.68C536.92,-668.18 428.47,-825.99 385.11,-889.09"/>
<polygon fill="#6666ff" stroke="#6666ff" points="382.21,-887.12 379.43,-897.35 387.98,-891.09 382.21,-887.12"/>
</g>
<!-- Metamodel::EnumHOW&#45;&gt;Metamodel::Mixins -->
<g id="edge17" class="edge">
<title>Metamodel::EnumHOW&#45;&gt;Metamodel::Mixins</title>
<path fill="none" stroke="#6666ff" d="M581.65,-614.69C565.04,-682.2 507.57,-915.76 507.57,-915.76 507.57,-915.76 352.25,-1027.08 283.07,-1076.66"/>
<polygon fill="#6666ff" stroke="#6666ff" points="280.77,-1074 274.68,-1082.67 284.85,-1079.69 280.77,-1074"/>
</g>
<!-- Metamodel::Versioning -->
<g id="node16" class="node">
<title>Metamodel::Versioning</title>
<g id="a_node16"><a xlink:href="/type/Metamodel::Versioning" xlink:title="Metamodel::Versioning">
<ellipse fill="none" stroke="#6666ff" cx="1190.46" cy="-1195.3" rx="100.98" ry="18"/>
<text text-anchor="middle" x="1190.46" y="-1191.6" font-family="FreeSans" font-size="14.00" fill="#6666ff">Metamodel::Versioning</text>
</a>
</g>
</g>
<!-- Metamodel::PrivateMethodContainer -->
<g id="node17" class="node">
<title>Metamodel::PrivateMethodContainer</title>
<g id="a_node17"><a xlink:href="/type/Metamodel::PrivateMethodContainer" xlink:title="Metamodel::PrivateMethodContainer">
<ellipse fill="none" stroke="#6666ff" cx="1304.97" cy="-1293.07" rx="154.87" ry="18"/>
<text text-anchor="middle" x="1304.97" y="-1289.37" font-family="FreeSans" font-size="14.00" fill="#6666ff">Metamodel::PrivateMethodContainer</text>
</a>
</g>
</g>
<!-- Metamodel::MultipleInheritance -->
<g id="node18" class="node">
<title>Metamodel::MultipleInheritance</title>
<g id="a_node18"><a xlink:href="/type/Metamodel::MultipleInheritance" xlink:title="Metamodel::MultipleInheritance">
<ellipse fill="none" stroke="#6666ff" cx="1162.44" cy="-1352.41" rx="133.78" ry="18"/>
<text text-anchor="middle" x="1162.44" y="-1348.71" font-family="FreeSans" font-size="14.00" fill="#6666ff">Metamodel::MultipleInheritance</text>
</a>
</g>
</g>
<!-- Metamodel::ConcreteRoleHOW -->
<g id="node19" class="node">
<title>Metamodel::ConcreteRoleHOW</title>
<g id="a_node19"><a xlink:href="/type/Metamodel::ConcreteRoleHOW" xlink:title="Metamodel::ConcreteRoleHOW">
<ellipse fill="none" stroke="#000000" cx="1362.88" cy="-766.68" rx="135.38" ry="18"/>
<text text-anchor="middle" x="1362.88" y="-762.98" font-family="FreeSans" font-size="14.00" fill="#000000">Metamodel::ConcreteRoleHOW</text>
</a>
</g>
</g>
<!-- Metamodel::ConcreteRoleHOW&#45;&gt;Metamodel::AttributeContainer -->
<g id="edge23" class="edge">
<title>Metamodel::ConcreteRoleHOW&#45;&gt;Metamodel::AttributeContainer</title>
<path fill="none" stroke="#6666ff" d="M1256.19,-755.57C1168.9,-746.49 1045.72,-733.66 956.37,-724.36"/>
<polygon fill="#6666ff" stroke="#6666ff" points="956.51,-720.85 946.2,-723.3 955.78,-727.82 956.51,-720.85"/>
</g>
<!-- Metamodel::ConcreteRoleHOW&#45;&gt;Any -->
<g id="edge3" class="edge">
<title>Metamodel::ConcreteRoleHOW&#45;&gt;Any</title>
<path fill="none" stroke="#000000" d="M1341.73,-748.52C1285.51,-700.25 1132.52,-568.89 1072.59,-517.43"/>
<polygon fill="#000000" stroke="#000000" points="1074.63,-514.58 1064.77,-510.72 1070.07,-519.89 1074.63,-514.58"/>
</g>
<!-- Metamodel::ConcreteRoleHOW&#45;&gt;Metamodel::Naming -->
<g id="edge18" class="edge">
<title>Metamodel::ConcreteRoleHOW&#45;&gt;Metamodel::Naming</title>
<path fill="none" stroke="#6666ff" d="M1330.94,-784.21C1262.16,-821.97 1100.17,-910.91 1024.6,-952.39"/>
<polygon fill="#6666ff" stroke="#6666ff" points="1022.47,-949.57 1015.39,-957.45 1025.84,-955.7 1022.47,-949.57"/>
</g>
<!-- Metamodel::ConcreteRoleHOW&#45;&gt;Metamodel::MethodContainer -->
<g id="edge21" class="edge">
<title>Metamodel::ConcreteRoleHOW&#45;&gt;Metamodel::MethodContainer</title>
<path fill="none" stroke="#6666ff" d="M1282.96,-781.21C1208.96,-794.66 1099.12,-814.63 1022.49,-828.57"/>
<polygon fill="#6666ff" stroke="#6666ff" points="1021.59,-825.17 1012.38,-830.4 1022.85,-832.06 1021.59,-825.17"/>
</g>
<!-- Metamodel::ConcreteRoleHOW&#45;&gt;Metamodel::MultiMethodContainer -->
<g id="edge22" class="edge">
<title>Metamodel::ConcreteRoleHOW&#45;&gt;Metamodel::MultiMethodContainer</title>
<path fill="none" stroke="#6666ff" d="M1332.16,-749.06C1288.27,-723.89 1212.87,-680.64 1212.87,-680.64 1212.87,-680.64 1178.94,-666.75 1178.94,-666.75 1178.94,-666.75 1047.72,-614.76 971.59,-584.59"/>
<polygon fill="#6666ff" stroke="#6666ff" points="972.72,-581.27 962.13,-580.84 970.14,-587.78 972.72,-581.27"/>
</g>
<!-- Metamodel::ConcreteRoleHOW&#45;&gt;Metamodel::RoleContainer -->
<g id="edge24" class="edge">
<title>Metamodel::ConcreteRoleHOW&#45;&gt;Metamodel::RoleContainer</title>
<path fill="none" stroke="#6666ff" d="M1311.02,-749.97C1266.52,-735.63 1202.35,-714.95 1155.62,-699.89"/>
<polygon fill="#6666ff" stroke="#6666ff" points="1156.52,-696.5 1145.93,-696.76 1154.37,-703.16 1156.52,-696.5"/>
</g>
<!-- Metamodel::ConcreteRoleHOW&#45;&gt;Metamodel::Versioning -->
<g id="edge19" class="edge">
<title>Metamodel::ConcreteRoleHOW&#45;&gt;Metamodel::Versioning</title>
<path fill="none" stroke="#6666ff" d="M1347.08,-784.58C1309,-827.71 1215.26,-933.9 1215.26,-933.9 1215.26,-933.9 1199.57,-1099.25 1193.15,-1166.94"/>
<polygon fill="#6666ff" stroke="#6666ff" points="1189.66,-1166.63 1192.2,-1176.92 1196.63,-1167.3 1189.66,-1166.63"/>
</g>
<!-- Metamodel::ConcreteRoleHOW&#45;&gt;Metamodel::PrivateMethodContainer -->
<g id="edge20" class="edge">
<title>Metamodel::ConcreteRoleHOW&#45;&gt;Metamodel::PrivateMethodContainer</title>
<path fill="none" stroke="#6666ff" d="M1347.08,-784.58C1309,-827.71 1215.26,-933.9 1215.26,-933.9 1215.26,-933.9 1292.8,-1195.38 1292.8,-1195.38 1292.8,-1195.38 1297.84,-1235.85 1301.43,-1264.69"/>
<polygon fill="#6666ff" stroke="#6666ff" points="1297.97,-1265.21 1302.68,-1274.7 1304.92,-1264.34 1297.97,-1265.21"/>
</g>
<!-- Metamodel::ConcreteRoleHOW&#45;&gt;Metamodel::MultipleInheritance -->
<g id="edge25" class="edge">
<title>Metamodel::ConcreteRoleHOW&#45;&gt;Metamodel::MultipleInheritance</title>
<path fill="none" stroke="#6666ff" d="M1347.08,-784.58C1309,-827.71 1215.26,-933.9 1215.26,-933.9 1215.26,-933.9 1088.12,-1195.23 1088.12,-1195.23 1088.12,-1195.23 1128.28,-1280.17 1149.56,-1325.17"/>
<polygon fill="#6666ff" stroke="#6666ff" points="1146.47,-1326.84 1153.91,-1334.38 1152.8,-1323.84 1146.47,-1326.84"/>
</g>
<!-- Metamodel::Documenting -->
<g id="node20" class="node">
<title>Metamodel::Documenting</title>
<g id="a_node20"><a xlink:href="/type/Metamodel::Documenting" xlink:title="Metamodel::Documenting">
<ellipse fill="none" stroke="#6666ff" cx="1038.32" cy="-1509.8" rx="111.28" ry="18"/>
<text text-anchor="middle" x="1038.32" y="-1506.1" font-family="FreeSans" font-size="14.00" fill="#6666ff">Metamodel::Documenting</text>
</a>
</g>
</g>
<!-- Metamodel::Finalization -->
<g id="node21" class="node">
<title>Metamodel::Finalization</title>
<g id="a_node21"><a xlink:href="/type/Metamodel::Finalization" xlink:title="Metamodel::Finalization">
<ellipse fill="none" stroke="#6666ff" cx="368.37" cy="-1512.5" rx="103.98" ry="18"/>
<text text-anchor="middle" x="368.37" y="-1508.8" font-family="FreeSans" font-size="14.00" fill="#6666ff">Metamodel::Finalization</text>
</a>
</g>
</g>
<!-- Metamodel::DefaultParent -->
<g id="node22" class="node">
<title>Metamodel::DefaultParent</title>
<g id="a_node22"><a xlink:href="/type/Metamodel::DefaultParent" xlink:title="Metamodel::DefaultParent">
<ellipse fill="none" stroke="#6666ff" cx="220.45" cy="-1381.02" rx="113.18" ry="18"/>
<text text-anchor="middle" x="220.45" y="-1377.32" font-family="FreeSans" font-size="14.00" fill="#6666ff">Metamodel::DefaultParent</text>
</a>
</g>
</g>
<!-- Metamodel::C3MRO -->
<g id="node23" class="node">
<title>Metamodel::C3MRO</title>
<g id="a_node23"><a xlink:href="/type/Metamodel::C3MRO" xlink:title="Metamodel::C3MRO">
<ellipse fill="none" stroke="#6666ff" cx="530.94" cy="-1606.41" rx="92.08" ry="18"/>
<text text-anchor="middle" x="530.94" y="-1602.71" font-family="FreeSans" font-size="14.00" fill="#6666ff">Metamodel::C3MRO</text>
</a>
</g>
</g>
<!-- Metamodel::Trusting -->
<g id="node24" class="node">
<title>Metamodel::Trusting</title>
<g id="a_node24"><a xlink:href="/type/Metamodel::Trusting" xlink:title="Metamodel::Trusting">
<ellipse fill="none" stroke="#6666ff" cx="715.98" cy="-1658.64" rx="91.78" ry="18"/>
<text text-anchor="middle" x="715.98" y="-1654.94" font-family="FreeSans" font-size="14.00" fill="#6666ff">Metamodel::Trusting</text>
</a>
</g>
</g>
<!-- Metamodel::ClassHOW -->
<g id="node25" class="node">
<title>Metamodel::ClassHOW</title>
<g id="a_node25"><a xlink:href="/type/Metamodel::ClassHOW" xlink:title="Metamodel::ClassHOW">
<ellipse fill="none" stroke="#000000" cx="673.15" cy="-1083.71" rx="103.18" ry="18"/>
<text text-anchor="middle" x="673.15" y="-1080.01" font-family="FreeSans" font-size="14.00" fill="#000000">Metamodel::ClassHOW</text>
</a>
</g>
</g>
<!-- Metamodel::ClassHOW&#45;&gt;Metamodel::AttributeContainer -->
<g id="edge30" class="edge">
<title>Metamodel::ClassHOW&#45;&gt;Metamodel::AttributeContainer</title>
<path fill="none" stroke="#6666ff" d="M681.4,-1065.55C708.76,-1005.35 796.62,-812.03 829.39,-739.91"/>
<polygon fill="#6666ff" stroke="#6666ff" points="832.69,-741.11 833.64,-730.56 826.31,-738.22 832.69,-741.11"/>
</g>
<!-- Metamodel::ClassHOW&#45;&gt;Any -->
<g id="edge4" class="edge">
<title>Metamodel::ClassHOW&#45;&gt;Any</title>
<path fill="none" stroke="#000000" d="M683.06,-1065.73C713.71,-1010.11 804.97,-844.54 804.97,-844.54 804.97,-844.54 973.46,-712.53 973.46,-712.53 973.46,-712.53 978.29,-680.44 978.29,-680.44 978.29,-680.44 1066.39,-563.68 1066.39,-563.68 1066.39,-563.68 1060.69,-542.79 1055.65,-524.29"/>
<polygon fill="#000000" stroke="#000000" points="1058.96,-523.13 1052.96,-514.4 1052.21,-524.97 1058.96,-523.13"/>
</g>
<!-- Metamodel::ClassHOW&#45;&gt;Metamodel::Naming -->
<g id="edge26" class="edge">
<title>Metamodel::ClassHOW&#45;&gt;Metamodel::Naming</title>
<path fill="none" stroke="#6666ff" d="M719.09,-1067.59C775.32,-1047.84 870.43,-1014.46 930.21,-993.47"/>
<polygon fill="#6666ff" stroke="#6666ff" points="931.58,-996.7 939.86,-990.08 929.26,-990.09 931.58,-996.7"/>
</g>
<!-- Metamodel::ClassHOW&#45;&gt;Metamodel::Stashing -->
<g id="edge29" class="edge">
<title>Metamodel::ClassHOW&#45;&gt;Metamodel::Stashing</title>
<path fill="none" stroke="#6666ff" d="M704.22,-1101C735.19,-1118.24 782.87,-1144.78 816.57,-1163.53"/>
<polygon fill="#6666ff" stroke="#6666ff" points="815.24,-1166.8 825.68,-1168.61 818.65,-1160.68 815.24,-1166.8"/>
</g>
<!-- Metamodel::ClassHOW&#45;&gt;Metamodel::MethodContainer -->
<g id="edge32" class="edge">
<title>Metamodel::ClassHOW&#45;&gt;Metamodel::MethodContainer</title>
<path fill="none" stroke="#6666ff" d="M692.75,-1065.74C738.84,-1023.5 854.14,-917.82 906.87,-869.49"/>
<polygon fill="#6666ff" stroke="#6666ff" points="909.47,-871.85 914.48,-862.51 904.74,-866.69 909.47,-871.85"/>
</g>
<!-- Metamodel::ClassHOW&#45;&gt;Metamodel::MultiMethodContainer -->
<g id="edge34" class="edge">
<title>Metamodel::ClassHOW&#45;&gt;Metamodel::MultiMethodContainer</title>
<path fill="none" stroke="#6666ff" d="M674.97,-1065.55C682.42,-990.99 710.29,-712.35 710.29,-712.35 710.29,-712.35 826.34,-629.44 885.18,-587.41"/>
<polygon fill="#6666ff" stroke="#6666ff" points="887.33,-590.18 893.43,-581.52 883.26,-584.48 887.33,-590.18"/>
</g>
<!-- Metamodel::ClassHOW&#45;&gt;Metamodel::RoleContainer -->
<g id="edge35" class="edge">
<title>Metamodel::ClassHOW&#45;&gt;Metamodel::RoleContainer</title>
<path fill="none" stroke="#6666ff" d="M683.06,-1065.73C713.71,-1010.11 804.97,-844.54 804.97,-844.54 804.97,-844.54 976.49,-747.74 1055.99,-702.88"/>
<polygon fill="#6666ff" stroke="#6666ff" points="1057.76,-705.9 1064.75,-697.93 1054.32,-699.8 1057.76,-705.9"/>
</g>
<!-- Metamodel::ClassHOW&#45;&gt;Metamodel::MROBasedMethodDispatch -->
<g id="edge39" class="edge">
<title>Metamodel::ClassHOW&#45;&gt;Metamodel::MROBasedMethodDispatch</title>
<path fill="none" stroke="#6666ff" d="M659.57,-1065.75C603.51,-991.65 390.02,-709.44 323.6,-621.64"/>
<polygon fill="#6666ff" stroke="#6666ff" points="326.28,-619.39 317.46,-613.53 320.7,-623.61 326.28,-619.39"/>
</g>
<!-- Metamodel::ClassHOW&#45;&gt;Metamodel::MROBasedTypeChecking -->
<g id="edge40" class="edge">
<title>Metamodel::ClassHOW&#45;&gt;Metamodel::MROBasedTypeChecking</title>
<path fill="none" stroke="#6666ff" d="M655.43,-1065.74C612.72,-1022.41 507.57,-915.76 507.57,-915.76 507.57,-915.76 332.31,-808.12 253.38,-759.65"/>
<polygon fill="#6666ff" stroke="#6666ff" points="255.05,-756.57 244.7,-754.31 251.39,-762.53 255.05,-756.57"/>
</g>
<!-- Metamodel::ClassHOW&#45;&gt;Metamodel::BUILDPLAN -->
<g id="edge42" class="edge">
<title>Metamodel::ClassHOW&#45;&gt;Metamodel::BUILDPLAN</title>
<path fill="none" stroke="#6666ff" d="M618.11,-1068.38C513.85,-1039.34 287.94,-976.41 175.78,-945.16"/>
<polygon fill="#6666ff" stroke="#6666ff" points="176.51,-941.73 165.94,-942.42 174.63,-948.48 176.51,-941.73"/>
</g>
<!-- Metamodel::ClassHOW&#45;&gt;Metamodel::BoolificationProtocol -->
<g id="edge44" class="edge">
<title>Metamodel::ClassHOW&#45;&gt;Metamodel::BoolificationProtocol</title>
<path fill="none" stroke="#6666ff" d="M641.82,-1066.51C586.13,-1035.95 469.98,-972.19 407.97,-938.16"/>
<polygon fill="#6666ff" stroke="#6666ff" points="409.32,-934.9 398.87,-933.16 405.95,-941.04 409.32,-934.9"/>
</g>
<!-- Metamodel::ClassHOW&#45;&gt;Metamodel::Mixins -->
<g id="edge43" class="edge">
<title>Metamodel::ClassHOW&#45;&gt;Metamodel::Mixins</title>
<path fill="none" stroke="#6666ff" d="M572.18,-1087.6C503.08,-1090.27 412.1,-1093.77 344.54,-1096.38"/>
<polygon fill="#6666ff" stroke="#6666ff" points="344.18,-1092.89 334.32,-1096.77 344.45,-1099.89 344.18,-1092.89"/>
</g>
<!-- Metamodel::ClassHOW&#45;&gt;Metamodel::Versioning -->
<g id="edge28" class="edge">
<title>Metamodel::ClassHOW&#45;&gt;Metamodel::Versioning</title>
<path fill="none" stroke="#6666ff" d="M738.15,-1097.73C834.53,-1118.52 1014.85,-1157.42 1116.27,-1179.3"/>
<polygon fill="#6666ff" stroke="#6666ff" points="1115.63,-1182.74 1126.14,-1181.43 1117.1,-1175.9 1115.63,-1182.74"/>
</g>
<!-- Metamodel::ClassHOW&#45;&gt;Metamodel::PrivateMethodContainer -->
<g id="edge33" class="edge">
<title>Metamodel::ClassHOW&#45;&gt;Metamodel::PrivateMethodContainer</title>
<path fill="none" stroke="#6666ff" d="M721.42,-1099.71C834.89,-1137.31 1118.43,-1231.26 1243.76,-1272.79"/>
<polygon fill="#6666ff" stroke="#6666ff" points="1242.99,-1276.22 1253.58,-1276.05 1245.19,-1269.58 1242.99,-1276.22"/>
</g>
<!-- Metamodel::ClassHOW&#45;&gt;Metamodel::MultipleInheritance -->
<g id="edge36" class="edge">
<title>Metamodel::ClassHOW&#45;&gt;Metamodel::MultipleInheritance</title>
<path fill="none" stroke="#6666ff" d="M719.15,-1099.88C791.56,-1125.33 923.96,-1171.86 923.96,-1171.86 923.96,-1171.86 951.48,-1185.75 951.48,-1185.75 951.48,-1185.75 1073.18,-1281.89 1131.71,-1328.13"/>
<polygon fill="#6666ff" stroke="#6666ff" points="1129.84,-1331.12 1139.86,-1334.58 1134.18,-1325.63 1129.84,-1331.12"/>
</g>
<!-- Metamodel::ClassHOW&#45;&gt;Metamodel::Documenting -->
<g id="edge27" class="edge">
<title>Metamodel::ClassHOW&#45;&gt;Metamodel::Documenting</title>
<path fill="none" stroke="#6666ff" d="M688.61,-1101.75C746.11,-1168.84 947.81,-1404.19 1015.77,-1483.49"/>
<polygon fill="#6666ff" stroke="#6666ff" points="1013.49,-1486.21 1022.65,-1491.52 1018.81,-1481.65 1013.49,-1486.21"/>
</g>
<!-- Metamodel::ClassHOW&#45;&gt;Metamodel::Finalization -->
<g id="edge31" class="edge">
<title>Metamodel::ClassHOW&#45;&gt;Metamodel::Finalization</title>
<path fill="none" stroke="#6666ff" d="M660.44,-1101.59C612.71,-1168.74 443.98,-1406.12 387.18,-1486.02"/>
<polygon fill="#6666ff" stroke="#6666ff" points="384.07,-1484.36 381.13,-1494.54 389.77,-1488.42 384.07,-1484.36"/>
</g>
<!-- Metamodel::ClassHOW&#45;&gt;Metamodel::DefaultParent -->
<g id="edge37" class="edge">
<title>Metamodel::ClassHOW&#45;&gt;Metamodel::DefaultParent</title>
<path fill="none" stroke="#6666ff" d="M646.52,-1101.2C569.01,-1152.1 343.49,-1300.21 255.86,-1357.77"/>
<polygon fill="#6666ff" stroke="#6666ff" points="253.76,-1354.95 247.33,-1363.37 257.61,-1360.81 253.76,-1354.95"/>
</g>
<!-- Metamodel::ClassHOW&#45;&gt;Metamodel::C3MRO -->
<g id="edge38" class="edge">
<title>Metamodel::ClassHOW&#45;&gt;Metamodel::C3MRO</title>
<path fill="none" stroke="#6666ff" d="M668.26,-1101.7C647.19,-1179.13 564.17,-1484.3 538.53,-1578.54"/>
<polygon fill="#6666ff" stroke="#6666ff" points="535.14,-1577.66 535.89,-1588.23 541.9,-1579.5 535.14,-1577.66"/>
</g>
<!-- Metamodel::ClassHOW&#45;&gt;Metamodel::Trusting -->
<g id="edge41" class="edge">
<title>Metamodel::ClassHOW&#45;&gt;Metamodel::Trusting</title>
<path fill="none" stroke="#6666ff" d="M674.5,-1101.87C680.69,-1184.92 706.32,-1528.97 713.88,-1630.38"/>
<polygon fill="#6666ff" stroke="#6666ff" points="710.39,-1630.77 714.63,-1640.48 717.38,-1630.25 710.39,-1630.77"/>
</g>
<!-- Metamodel::TypePretense -->
<g id="node26" class="node">
<title>Metamodel::TypePretense</title>
<g id="a_node26"><a xlink:href="/type/Metamodel::TypePretense" xlink:title="Metamodel::TypePretense">
<ellipse fill="none" stroke="#6666ff" cx="1825.49" cy="-701.07" rx="114.28" ry="18"/>
<text text-anchor="middle" x="1825.49" y="-697.37" font-family="FreeSans" font-size="14.00" fill="#6666ff">Metamodel::TypePretense</text>
</a>
</g>
</g>
<!-- Metamodel::RolePunning -->
<g id="node27" class="node">
<title>Metamodel::RolePunning</title>
<g id="a_node27"><a xlink:href="/type/Metamodel::RolePunning" xlink:title="Metamodel::RolePunning">
<ellipse fill="none" stroke="#6666ff" cx="1853.6" cy="-1100.77" rx="109.68" ry="18"/>
<text text-anchor="middle" x="1853.6" y="-1097.07" font-family="FreeSans" font-size="14.00" fill="#6666ff">Metamodel::RolePunning</text>
</a>
</g>
</g>
<!-- Metamodel::ParametricRoleHOW -->
<g id="node28" class="node">
<title>Metamodel::ParametricRoleHOW</title>
<g id="a_node28"><a xlink:href="/type/Metamodel::ParametricRoleHOW" xlink:title="Metamodel::ParametricRoleHOW">
<ellipse fill="none" stroke="#000000" cx="1358.54" cy="-934.06" rx="141.88" ry="18"/>
<text text-anchor="middle" x="1358.54" y="-930.36" font-family="FreeSans" font-size="14.00" fill="#000000">Metamodel::ParametricRoleHOW</text>
</a>
</g>
</g>
<!-- Metamodel::ParametricRoleHOW&#45;&gt;Metamodel::AttributeContainer -->
<g id="edge51" class="edge">
<title>Metamodel::ParametricRoleHOW&#45;&gt;Metamodel::AttributeContainer</title>
<path fill="none" stroke="#6666ff" d="M1318,-916.67C1224.32,-876.48 993.08,-777.3 891.31,-733.64"/>
<polygon fill="#6666ff" stroke="#6666ff" points="892.44,-730.32 881.87,-729.59 889.68,-736.75 892.44,-730.32"/>
</g>
<!-- Metamodel::ParametricRoleHOW&#45;&gt;Any -->
<g id="edge5" class="edge">
<title>Metamodel::ParametricRoleHOW&#45;&gt;Any</title>
<path fill="none" stroke="#000000" d="M1344.37,-916.13C1310.2,-872.92 1226.09,-766.55 1226.09,-766.55 1226.09,-766.55 1212.87,-680.64 1212.87,-680.64 1212.87,-680.64 1113.34,-569.37 1068.96,-519.75"/>
<polygon fill="#000000" stroke="#000000" points="1071.37,-517.19 1062.09,-512.07 1066.15,-521.85 1071.37,-517.19"/>
</g>
<!-- Metamodel::ParametricRoleHOW&#45;&gt;Metamodel::Naming -->
<g id="edge45" class="edge">
<title>Metamodel::ParametricRoleHOW&#45;&gt;Metamodel::Naming</title>
<path fill="none" stroke="#6666ff" d="M1250.34,-945.73C1194.5,-951.76 1127.17,-959.02 1074.24,-964.74"/>
<polygon fill="#6666ff" stroke="#6666ff" points="1073.76,-961.27 1064.19,-965.82 1074.51,-968.23 1073.76,-961.27"/>
</g>
<!-- Metamodel::ParametricRoleHOW&#45;&gt;Metamodel::Stashing -->
<g id="edge54" class="edge">
<title>Metamodel::ParametricRoleHOW&#45;&gt;Metamodel::Stashing</title>
<path fill="none" stroke="#6666ff" d="M1323.62,-951.55C1234.08,-996.4 996.49,-1115.41 898.97,-1164.26"/>
<polygon fill="#6666ff" stroke="#6666ff" points="897.36,-1161.15 889.98,-1168.76 900.49,-1167.41 897.36,-1161.15"/>
</g>
<!-- Metamodel::ParametricRoleHOW&#45;&gt;Metamodel::MethodContainer -->
<g id="edge48" class="edge">
<title>Metamodel::ParametricRoleHOW&#45;&gt;Metamodel::MethodContainer</title>
<path fill="none" stroke="#6666ff" d="M1285.07,-918.59C1209.88,-902.76 1093.33,-878.22 1015.37,-861.81"/>
<polygon fill="#6666ff" stroke="#6666ff" points="1015.62,-858.28 1005.11,-859.65 1014.18,-865.13 1015.62,-858.28"/>
</g>
<!-- Metamodel::ParametricRoleHOW&#45;&gt;Metamodel::MultiMethodContainer -->
<g id="edge50" class="edge">
<title>Metamodel::ParametricRoleHOW&#45;&gt;Metamodel::MultiMethodContainer</title>
<path fill="none" stroke="#6666ff" d="M1331.8,-916.22C1245.25,-858.49 978.29,-680.44 978.29,-680.44 978.29,-680.44 950.07,-625.23 932.42,-590.7"/>
<polygon fill="#6666ff" stroke="#6666ff" points="935.42,-588.89 927.75,-581.57 929.19,-592.07 935.42,-588.89"/>
</g>
<!-- Metamodel::ParametricRoleHOW&#45;&gt;Metamodel::RoleContainer -->
<g id="edge52" class="edge">
<title>Metamodel::ParametricRoleHOW&#45;&gt;Metamodel::RoleContainer</title>
<path fill="none" stroke="#6666ff" d="M1339.63,-915.82C1293.39,-871.24 1174.52,-756.64 1121.63,-705.65"/>
<polygon fill="#6666ff" stroke="#6666ff" points="1123.95,-703.03 1114.32,-698.6 1119.09,-708.07 1123.95,-703.03"/>
</g>
<!-- Metamodel::ParametricRoleHOW&#45;&gt;Metamodel::Versioning -->
<g id="edge47" class="edge">
<title>Metamodel::ParametricRoleHOW&#45;&gt;Metamodel::Versioning</title>
<path fill="none" stroke="#6666ff" d="M1346.99,-952.01C1317.96,-997.13 1241.86,-1115.42 1207.6,-1168.66"/>
<polygon fill="#6666ff" stroke="#6666ff" points="1204.56,-1166.92 1202.09,-1177.22 1210.45,-1170.7 1204.56,-1166.92"/>
</g>
<!-- Metamodel::ParametricRoleHOW&#45;&gt;Metamodel::PrivateMethodContainer -->
<g id="edge49" class="edge">
<title>Metamodel::ParametricRoleHOW&#45;&gt;Metamodel::PrivateMethodContainer</title>
<path fill="none" stroke="#6666ff" d="M1355.81,-952.35C1347.07,-1010.93 1319.73,-1194.14 1309.18,-1264.85"/>
<polygon fill="#6666ff" stroke="#6666ff" points="1305.71,-1264.41 1307.69,-1274.81 1312.63,-1265.44 1305.71,-1264.41"/>
</g>
<!-- Metamodel::ParametricRoleHOW&#45;&gt;Metamodel::MultipleInheritance -->
<g id="edge53" class="edge">
<title>Metamodel::ParametricRoleHOW&#45;&gt;Metamodel::MultipleInheritance</title>
<path fill="none" stroke="#6666ff" d="M1353.92,-952.43C1338.96,-1011.91 1292.8,-1195.38 1292.8,-1195.38 1292.8,-1195.38 1148.68,-1292.97 1148.68,-1292.97 1148.68,-1292.97 1152.39,-1308.99 1155.95,-1324.4"/>
<polygon fill="#6666ff" stroke="#6666ff" points="1152.57,-1325.3 1158.24,-1334.26 1159.39,-1323.72 1152.57,-1325.3"/>
</g>
<!-- Metamodel::ParametricRoleHOW&#45;&gt;Metamodel::Documenting -->
<g id="edge46" class="edge">
<title>Metamodel::ParametricRoleHOW&#45;&gt;Metamodel::Documenting</title>
<path fill="none" stroke="#6666ff" d="M1339.96,-952.01C1278.86,-1011.01 1088.12,-1195.23 1088.12,-1195.23 1088.12,-1195.23 1026.95,-1352.3 1026.95,-1352.3 1026.95,-1352.3 1033.02,-1436.35 1036.29,-1481.65"/>
<polygon fill="#6666ff" stroke="#6666ff" points="1032.81,-1482.01 1037.02,-1491.73 1039.79,-1481.51 1032.81,-1482.01"/>
</g>
<!-- Metamodel::ParametricRoleHOW&#45;&gt;Metamodel::TypePretense -->
<g id="edge55" class="edge">
<title>Metamodel::ParametricRoleHOW&#45;&gt;Metamodel::TypePretense</title>
<path fill="none" stroke="#6666ff" d="M1393.64,-916.54C1477.61,-874.65 1689.93,-768.71 1781.9,-722.82"/>
<polygon fill="#6666ff" stroke="#6666ff" points="1783.56,-725.9 1790.94,-718.31 1780.43,-719.64 1783.56,-725.9"/>
</g>
<!-- Metamodel::ParametricRoleHOW&#45;&gt;Metamodel::RolePunning -->
<g id="edge56" class="edge">
<title>Metamodel::ParametricRoleHOW&#45;&gt;Metamodel::RolePunning</title>
<path fill="none" stroke="#6666ff" d="M1408.74,-950.96C1501.18,-982.09 1697.85,-1048.32 1795.74,-1081.29"/>
<polygon fill="#6666ff" stroke="#6666ff" points="1794.88,-1084.69 1805.47,-1084.56 1797.11,-1078.06 1794.88,-1084.69"/>
</g>
</g>
</svg>
