<?xml version="1.0" encoding="UTF-8" standalone="no"?>
<!DOCTYPE svg PUBLIC "-//W3C//DTD SVG 1.1//EN"
 "http://www.w3.org/Graphics/SVG/1.1/DTD/svg11.dtd">
<!-- Generated by graphviz version 2.43.0 (0)
 -->
<!-- Title: perl6&#45;type&#45;graph Pages: 1 -->
<svg width="1509pt" height="1519pt"
 viewBox="0.00 0.00 1509.38 1518.94" xmlns="http://www.w3.org/2000/svg" xmlns:xlink="http://www.w3.org/1999/xlink">
<g id="graph0" class="graph" transform="scale(1 1) rotate(0) translate(4 1514.94)">
<title>perl6&#45;type&#45;graph</title>
<polygon fill="white" stroke="transparent" points="-4,4 -4,-1514.94 1505.38,-1514.94 1505.38,4 -4,4"/>
<!-- Metamodel::GrammarHOW -->
<g id="node1" class="node">
<title>Metamodel::GrammarHOW</title>
<g id="a_node1"><a xlink:href="/type/Metamodel::GrammarHOW" xlink:title="Metamodel::GrammarHOW">
<ellipse fill="none" stroke="#000000" cx="406.51" cy="-1025.69" rx="118.08" ry="18"/>
<text text-anchor="middle" x="406.51" y="-1021.99" font-family="FreeSans" font-size="14.00" fill="#000000">Metamodel::GrammarHOW</text>
</a>
</g>
</g>
<!-- Metamodel::DefaultParent -->
<g id="node15" class="node">
<title>Metamodel::DefaultParent</title>
<g id="a_node15"><a xlink:href="/type/Metamodel::DefaultParent" xlink:title="Metamodel::DefaultParent">
<ellipse fill="none" stroke="#6666ff" cx="746.67" cy="-1234.16" rx="113.18" ry="18"/>
<text text-anchor="middle" x="746.67" y="-1230.46" font-family="FreeSans" font-size="14.00" fill="#6666ff">Metamodel::DefaultParent</text>
</a>
</g>
</g>
<!-- Metamodel::GrammarHOW&#45;&gt;Metamodel::DefaultParent -->
<g id="edge4" class="edge">
<title>Metamodel::GrammarHOW&#45;&gt;Metamodel::DefaultParent</title>
<path fill="none" stroke="#6666ff" d="M435.22,-1043.29C496.69,-1080.96 640.99,-1169.39 709.42,-1211.33"/>
<polygon fill="#6666ff" stroke="#6666ff" points="707.81,-1214.44 718.16,-1216.68 711.46,-1208.47 707.81,-1214.44"/>
</g>
<!-- Metamodel::ClassHOW -->
<g id="node23" class="node">
<title>Metamodel::ClassHOW</title>
<g id="a_node23"><a xlink:href="/type/Metamodel::ClassHOW" xlink:title="Metamodel::ClassHOW">
<ellipse fill="none" stroke="#000000" cx="739.04" cy="-888.48" rx="103.18" ry="18"/>
<text text-anchor="middle" x="739.04" y="-884.78" font-family="FreeSans" font-size="14.00" fill="#000000">Metamodel::ClassHOW</text>
</a>
</g>
</g>
<!-- Metamodel::GrammarHOW&#45;&gt;Metamodel::ClassHOW -->
<g id="edge1" class="edge">
<title>Metamodel::GrammarHOW&#45;&gt;Metamodel::ClassHOW</title>
<path fill="none" stroke="#000000" d="M447.62,-1008.73C508.82,-983.48 623.71,-936.07 689.47,-908.94"/>
<polygon fill="#000000" stroke="#000000" points="690.9,-912.13 698.81,-905.08 688.23,-905.66 690.9,-912.13"/>
</g>
<!-- Mu -->
<g id="node2" class="node">
<title>Mu</title>
<g id="a_node2"><a xlink:href="/type/Mu" xlink:title="Mu">
<ellipse fill="none" stroke="#000000" cx="1474.38" cy="-18" rx="27" ry="18"/>
<text text-anchor="middle" x="1474.38" y="-14.3" font-family="FreeSans" font-size="14.00" fill="#000000">Mu</text>
</a>
</g>
</g>
<!-- Any -->
<g id="node3" class="node">
<title>Any</title>
<g id="a_node3"><a xlink:href="/type/Any" xlink:title="Any">
<ellipse fill="none" stroke="#000000" cx="1098.53" cy="-371.56" rx="27" ry="18"/>
<text text-anchor="middle" x="1098.53" y="-367.86" font-family="FreeSans" font-size="14.00" fill="#000000">Any</text>
</a>
</g>
</g>
<!-- Any&#45;&gt;Mu -->
<g id="edge2" class="edge">
<title>Any&#45;&gt;Mu</title>
<path fill="none" stroke="#000000" d="M1114.21,-356.82C1173.07,-301.45 1381.14,-105.72 1451.18,-39.83"/>
<polygon fill="#000000" stroke="#000000" points="1453.76,-42.21 1458.64,-32.81 1448.96,-37.11 1453.76,-42.21"/>
</g>
<!-- Metamodel::Naming -->
<g id="node4" class="node">
<title>Metamodel::Naming</title>
<g id="a_node4"><a xlink:href="/type/Metamodel::Naming" xlink:title="Metamodel::Naming">
<ellipse fill="none" stroke="#6666ff" cx="908.64" cy="-1463.46" rx="90.18" ry="18"/>
<text text-anchor="middle" x="908.64" y="-1459.76" font-family="FreeSans" font-size="14.00" fill="#6666ff">Metamodel::Naming</text>
</a>
</g>
</g>
<!-- Metamodel::Documenting -->
<g id="node5" class="node">
<title>Metamodel::Documenting</title>
<g id="a_node5"><a xlink:href="/type/Metamodel::Documenting" xlink:title="Metamodel::Documenting">
<ellipse fill="none" stroke="#6666ff" cx="1134.14" cy="-1169.26" rx="111.28" ry="18"/>
<text text-anchor="middle" x="1134.14" y="-1165.56" font-family="FreeSans" font-size="14.00" fill="#6666ff">Metamodel::Documenting</text>
</a>
</g>
</g>
<!-- Metamodel::Versioning -->
<g id="node6" class="node">
<title>Metamodel::Versioning</title>
<g id="a_node6"><a xlink:href="/type/Metamodel::Versioning" xlink:title="Metamodel::Versioning">
<ellipse fill="none" stroke="#6666ff" cx="459.72" cy="-1271.52" rx="100.98" ry="18"/>
<text text-anchor="middle" x="459.72" y="-1267.82" font-family="FreeSans" font-size="14.00" fill="#6666ff">Metamodel::Versioning</text>
</a>
</g>
</g>
<!-- Metamodel::Stashing -->
<g id="node7" class="node">
<title>Metamodel::Stashing</title>
<g id="a_node7"><a xlink:href="/type/Metamodel::Stashing" xlink:title="Metamodel::Stashing">
<ellipse fill="none" stroke="#6666ff" cx="331.28" cy="-439.05" rx="93.68" ry="18"/>
<text text-anchor="middle" x="331.28" y="-435.35" font-family="FreeSans" font-size="14.00" fill="#6666ff">Metamodel::Stashing</text>
</a>
</g>
</g>
<!-- Metamodel::AttributeContainer -->
<g id="node8" class="node">
<title>Metamodel::AttributeContainer</title>
<g id="a_node8"><a xlink:href="/type/Metamodel::AttributeContainer" xlink:title="Metamodel::AttributeContainer">
<ellipse fill="none" stroke="#6666ff" cx="1328.7" cy="-852.25" rx="129.98" ry="18"/>
<text text-anchor="middle" x="1328.7" y="-848.55" font-family="FreeSans" font-size="14.00" fill="#6666ff">Metamodel::AttributeContainer</text>
</a>
</g>
</g>
<!-- Metamodel::Finalization -->
<g id="node9" class="node">
<title>Metamodel::Finalization</title>
<g id="a_node9"><a xlink:href="/type/Metamodel::Finalization" xlink:title="Metamodel::Finalization">
<ellipse fill="none" stroke="#6666ff" cx="509.99" cy="-351.17" rx="103.98" ry="18"/>
<text text-anchor="middle" x="509.99" y="-347.47" font-family="FreeSans" font-size="14.00" fill="#6666ff">Metamodel::Finalization</text>
</a>
</g>
</g>
<!-- Metamodel::MethodContainer -->
<g id="node10" class="node">
<title>Metamodel::MethodContainer</title>
<g id="a_node10"><a xlink:href="/type/Metamodel::MethodContainer" xlink:title="Metamodel::MethodContainer">
<ellipse fill="none" stroke="#6666ff" cx="871.93" cy="-488.99" rx="127.28" ry="18"/>
<text text-anchor="middle" x="871.93" y="-485.29" font-family="FreeSans" font-size="14.00" fill="#6666ff">Metamodel::MethodContainer</text>
</a>
</g>
</g>
<!-- Metamodel::PrivateMethodContainer -->
<g id="node11" class="node">
<title>Metamodel::PrivateMethodContainer</title>
<g id="a_node11"><a xlink:href="/type/Metamodel::PrivateMethodContainer" xlink:title="Metamodel::PrivateMethodContainer">
<ellipse fill="none" stroke="#6666ff" cx="776.69" cy="-308.83" rx="154.87" ry="18"/>
<text text-anchor="middle" x="776.69" y="-305.13" font-family="FreeSans" font-size="14.00" fill="#6666ff">Metamodel::PrivateMethodContainer</text>
</a>
</g>
</g>
<!-- Metamodel::MultiMethodContainer -->
<g id="node12" class="node">
<title>Metamodel::MultiMethodContainer</title>
<g id="a_node12"><a xlink:href="/type/Metamodel::MultiMethodContainer" xlink:title="Metamodel::MultiMethodContainer">
<ellipse fill="none" stroke="#6666ff" cx="146.24" cy="-863.45" rx="146.47" ry="18"/>
<text text-anchor="middle" x="146.24" y="-859.75" font-family="FreeSans" font-size="14.00" fill="#6666ff">Metamodel::MultiMethodContainer</text>
</a>
</g>
</g>
<!-- Metamodel::RoleContainer -->
<g id="node13" class="node">
<title>Metamodel::RoleContainer</title>
<g id="a_node13"><a xlink:href="/type/Metamodel::RoleContainer" xlink:title="Metamodel::RoleContainer">
<ellipse fill="none" stroke="#6666ff" cx="1311.75" cy="-1084.69" rx="115.88" ry="18"/>
<text text-anchor="middle" x="1311.75" y="-1080.99" font-family="FreeSans" font-size="14.00" fill="#6666ff">Metamodel::RoleContainer</text>
</a>
</g>
</g>
<!-- Metamodel::MultipleInheritance -->
<g id="node14" class="node">
<title>Metamodel::MultipleInheritance</title>
<g id="a_node14"><a xlink:href="/type/Metamodel::MultipleInheritance" xlink:title="Metamodel::MultipleInheritance">
<ellipse fill="none" stroke="#6666ff" cx="1114.76" cy="-1366.06" rx="133.78" ry="18"/>
<text text-anchor="middle" x="1114.76" y="-1362.36" font-family="FreeSans" font-size="14.00" fill="#6666ff">Metamodel::MultipleInheritance</text>
</a>
</g>
</g>
<!-- Metamodel::C3MRO -->
<g id="node16" class="node">
<title>Metamodel::C3MRO</title>
<g id="a_node16"><a xlink:href="/type/Metamodel::C3MRO" xlink:title="Metamodel::C3MRO">
<ellipse fill="none" stroke="#6666ff" cx="1096.38" cy="-798.93" rx="92.08" ry="18"/>
<text text-anchor="middle" x="1096.38" y="-795.23" font-family="FreeSans" font-size="14.00" fill="#6666ff">Metamodel::C3MRO</text>
</a>
</g>
</g>
<!-- Metamodel::MROBasedMethodDispatch -->
<g id="node17" class="node">
<title>Metamodel::MROBasedMethodDispatch</title>
<g id="a_node17"><a xlink:href="/type/Metamodel::MROBasedMethodDispatch" xlink:title="Metamodel::MROBasedMethodDispatch">
<ellipse fill="none" stroke="#6666ff" cx="1210.58" cy="-607.54" rx="169.77" ry="18"/>
<text text-anchor="middle" x="1210.58" y="-603.84" font-family="FreeSans" font-size="14.00" fill="#6666ff">Metamodel::MROBasedMethodDispatch</text>
</a>
</g>
</g>
<!-- Metamodel::MROBasedTypeChecking -->
<g id="node18" class="node">
<title>Metamodel::MROBasedTypeChecking</title>
<g id="a_node18"><a xlink:href="/type/Metamodel::MROBasedTypeChecking" xlink:title="Metamodel::MROBasedTypeChecking">
<ellipse fill="none" stroke="#6666ff" cx="352.36" cy="-1393.98" rx="163.27" ry="18"/>
<text text-anchor="middle" x="352.36" y="-1390.28" font-family="FreeSans" font-size="14.00" fill="#6666ff">Metamodel::MROBasedTypeChecking</text>
</a>
</g>
</g>
<!-- Metamodel::Trusting -->
<g id="node19" class="node">
<title>Metamodel::Trusting</title>
<g id="a_node19"><a xlink:href="/type/Metamodel::Trusting" xlink:title="Metamodel::Trusting">
<ellipse fill="none" stroke="#6666ff" cx="166.64" cy="-1110.45" rx="91.78" ry="18"/>
<text text-anchor="middle" x="166.64" y="-1106.75" font-family="FreeSans" font-size="14.00" fill="#6666ff">Metamodel::Trusting</text>
</a>
</g>
</g>
<!-- Metamodel::BUILDPLAN -->
<g id="node20" class="node">
<title>Metamodel::BUILDPLAN</title>
<g id="a_node20"><a xlink:href="/type/Metamodel::BUILDPLAN" xlink:title="Metamodel::BUILDPLAN">
<ellipse fill="none" stroke="#6666ff" cx="661.01" cy="-1492.94" rx="109.68" ry="18"/>
<text text-anchor="middle" x="661.01" y="-1489.24" font-family="FreeSans" font-size="14.00" fill="#6666ff">Metamodel::BUILDPLAN</text>
</a>
</g>
</g>
<!-- Metamodel::Mixins -->
<g id="node21" class="node">
<title>Metamodel::Mixins</title>
<g id="a_node21"><a xlink:href="/type/Metamodel::Mixins" xlink:title="Metamodel::Mixins">
<ellipse fill="none" stroke="#6666ff" cx="457.6" cy="-629.63" rx="85.29" ry="18"/>
<text text-anchor="middle" x="457.6" y="-625.93" font-family="FreeSans" font-size="14.00" fill="#6666ff">Metamodel::Mixins</text>
</a>
</g>
</g>
<!-- Metamodel::BoolificationProtocol -->
<g id="node22" class="node">
<title>Metamodel::BoolificationProtocol</title>
<g id="a_node22"><a xlink:href="/type/Metamodel::BoolificationProtocol" xlink:title="Metamodel::BoolificationProtocol">
<ellipse fill="none" stroke="#6666ff" cx="192.25" cy="-650.11" rx="139.18" ry="18"/>
<text text-anchor="middle" x="192.25" y="-646.41" font-family="FreeSans" font-size="14.00" fill="#6666ff">Metamodel::BoolificationProtocol</text>
</a>
</g>
</g>
<!-- Metamodel::ClassHOW&#45;&gt;Any -->
<g id="edge3" class="edge">
<title>Metamodel::ClassHOW&#45;&gt;Any</title>
<path fill="none" stroke="#000000" d="M751.63,-870.39C805.75,-792.56 1018.83,-486.18 1081.26,-396.41"/>
<polygon fill="#000000" stroke="#000000" points="1084.31,-398.15 1087.14,-387.94 1078.56,-394.15 1084.31,-398.15"/>
</g>
<!-- Metamodel::ClassHOW&#45;&gt;Metamodel::Naming -->
<g id="edge5" class="edge">
<title>Metamodel::ClassHOW&#45;&gt;Metamodel::Naming</title>
<path fill="none" stroke="#6666ff" d="M745.45,-906.59C770.61,-977.73 861.36,-1234.26 861.36,-1234.26 861.36,-1234.26 890.2,-1374.06 902.83,-1435.29"/>
<polygon fill="#6666ff" stroke="#6666ff" points="899.4,-1436 904.85,-1445.09 906.26,-1434.59 899.4,-1436"/>
</g>
<!-- Metamodel::ClassHOW&#45;&gt;Metamodel::Documenting -->
<g id="edge6" class="edge">
<title>Metamodel::ClassHOW&#45;&gt;Metamodel::Documenting</title>
<path fill="none" stroke="#6666ff" d="M763.76,-906.05C832.08,-954.6 1023.55,-1090.67 1101,-1145.71"/>
<polygon fill="#6666ff" stroke="#6666ff" points="1099.25,-1148.76 1109.43,-1151.7 1103.31,-1143.06 1099.25,-1148.76"/>
</g>
<!-- Metamodel::ClassHOW&#45;&gt;Metamodel::Versioning -->
<g id="edge7" class="edge">
<title>Metamodel::ClassHOW&#45;&gt;Metamodel::Versioning</title>
<path fill="none" stroke="#6666ff" d="M725.94,-906.44C680.86,-968.27 531.94,-1172.48 478.78,-1245.38"/>
<polygon fill="#6666ff" stroke="#6666ff" points="475.85,-1243.46 472.79,-1253.6 481.51,-1247.58 475.85,-1243.46"/>
</g>
<!-- Metamodel::ClassHOW&#45;&gt;Metamodel::Stashing -->
<g id="edge8" class="edge">
<title>Metamodel::ClassHOW&#45;&gt;Metamodel::Stashing</title>
<path fill="none" stroke="#6666ff" d="M725.35,-870.28C681.03,-811.38 544.34,-629.68 544.34,-629.68 544.34,-629.68 416.66,-515.44 358.98,-463.83"/>
<polygon fill="#6666ff" stroke="#6666ff" points="361.11,-461.05 351.32,-456.99 356.44,-466.26 361.11,-461.05"/>
</g>
<!-- Metamodel::ClassHOW&#45;&gt;Metamodel::AttributeContainer -->
<g id="edge9" class="edge">
<title>Metamodel::ClassHOW&#45;&gt;Metamodel::AttributeContainer</title>
<path fill="none" stroke="#6666ff" d="M836.74,-882.48C936.01,-876.38 1090.29,-866.9 1199.58,-860.18"/>
<polygon fill="#6666ff" stroke="#6666ff" points="1199.91,-863.67 1209.68,-859.56 1199.48,-856.68 1199.91,-863.67"/>
</g>
<!-- Metamodel::ClassHOW&#45;&gt;Metamodel::Finalization -->
<g id="edge10" class="edge">
<title>Metamodel::ClassHOW&#45;&gt;Metamodel::Finalization</title>
<path fill="none" stroke="#6666ff" d="M731.29,-870.3C697.44,-790.89 562.46,-474.27 521.7,-378.65"/>
<polygon fill="#6666ff" stroke="#6666ff" points="524.88,-377.18 517.74,-369.35 518.44,-379.92 524.88,-377.18"/>
</g>
<!-- Metamodel::ClassHOW&#45;&gt;Metamodel::MethodContainer -->
<g id="edge11" class="edge">
<title>Metamodel::ClassHOW&#45;&gt;Metamodel::MethodContainer</title>
<path fill="none" stroke="#6666ff" d="M745.1,-870.28C766.24,-806.72 836.89,-594.33 862.53,-517.25"/>
<polygon fill="#6666ff" stroke="#6666ff" points="866.01,-517.89 865.84,-507.3 859.36,-515.68 866.01,-517.89"/>
</g>
<!-- Metamodel::ClassHOW&#45;&gt;Metamodel::PrivateMethodContainer -->
<g id="edge12" class="edge">
<title>Metamodel::ClassHOW&#45;&gt;Metamodel::PrivateMethodContainer</title>
<path fill="none" stroke="#6666ff" d="M739.22,-870.27C739.98,-792.1 742.95,-488.88 742.95,-488.88 742.95,-488.88 761.9,-387.75 771.4,-337.08"/>
<polygon fill="#6666ff" stroke="#6666ff" points="774.87,-337.56 773.27,-327.08 767.99,-336.27 774.87,-337.56"/>
</g>
<!-- Metamodel::ClassHOW&#45;&gt;Metamodel::MultiMethodContainer -->
<g id="edge13" class="edge">
<title>Metamodel::ClassHOW&#45;&gt;Metamodel::MultiMethodContainer</title>
<path fill="none" stroke="#6666ff" d="M638.48,-884.24C544.24,-880.26 402.18,-874.26 294.86,-869.72"/>
<polygon fill="#6666ff" stroke="#6666ff" points="294.73,-866.21 284.59,-869.29 294.43,-873.21 294.73,-866.21"/>
</g>
<!-- Metamodel::ClassHOW&#45;&gt;Metamodel::RoleContainer -->
<g id="edge14" class="edge">
<title>Metamodel::ClassHOW&#45;&gt;Metamodel::RoleContainer</title>
<path fill="none" stroke="#6666ff" d="M785.91,-904.54C890.13,-940.25 1140.83,-1026.14 1254.27,-1065"/>
<polygon fill="#6666ff" stroke="#6666ff" points="1253.24,-1068.35 1263.84,-1068.28 1255.51,-1061.72 1253.24,-1068.35"/>
</g>
<!-- Metamodel::ClassHOW&#45;&gt;Metamodel::MultipleInheritance -->
<g id="edge15" class="edge">
<title>Metamodel::ClassHOW&#45;&gt;Metamodel::MultipleInheritance</title>
<path fill="none" stroke="#6666ff" d="M753.08,-906.33C810.39,-979.18 1026.71,-1254.14 1094.39,-1340.17"/>
<polygon fill="#6666ff" stroke="#6666ff" points="1091.71,-1342.43 1100.64,-1348.12 1097.21,-1338.1 1091.71,-1342.43"/>
</g>
<!-- Metamodel::ClassHOW&#45;&gt;Metamodel::DefaultParent -->
<g id="edge16" class="edge">
<title>Metamodel::ClassHOW&#45;&gt;Metamodel::DefaultParent</title>
<path fill="none" stroke="#6666ff" d="M739.44,-906.58C740.69,-963.15 744.53,-1136.95 746.05,-1205.72"/>
<polygon fill="#6666ff" stroke="#6666ff" points="742.55,-1205.9 746.27,-1215.82 749.55,-1205.75 742.55,-1205.9"/>
</g>
<!-- Metamodel::ClassHOW&#45;&gt;Metamodel::C3MRO -->
<g id="edge17" class="edge">
<title>Metamodel::ClassHOW&#45;&gt;Metamodel::C3MRO</title>
<path fill="none" stroke="#6666ff" d="M798.05,-873.7C861.78,-857.72 963.1,-832.33 1029.68,-815.65"/>
<polygon fill="#6666ff" stroke="#6666ff" points="1030.79,-818.98 1039.64,-813.15 1029.09,-812.19 1030.79,-818.98"/>
</g>
<!-- Metamodel::ClassHOW&#45;&gt;Metamodel::MROBasedMethodDispatch -->
<g id="edge18" class="edge">
<title>Metamodel::ClassHOW&#45;&gt;Metamodel::MROBasedMethodDispatch</title>
<path fill="none" stroke="#6666ff" d="M768.18,-871.12C849.7,-822.55 1080.1,-685.28 1172.02,-630.52"/>
<polygon fill="#6666ff" stroke="#6666ff" points="1173.93,-633.45 1180.73,-625.33 1170.35,-627.44 1173.93,-633.45"/>
</g>
<!-- Metamodel::ClassHOW&#45;&gt;Metamodel::MROBasedTypeChecking -->
<g id="edge19" class="edge">
<title>Metamodel::ClassHOW&#45;&gt;Metamodel::MROBasedTypeChecking</title>
<path fill="none" stroke="#6666ff" d="M721.15,-906.44C645.69,-982.16 357.38,-1271.49 357.38,-1271.49 357.38,-1271.49 355.01,-1329.26 353.53,-1365.45"/>
<polygon fill="#6666ff" stroke="#6666ff" points="350.01,-1365.77 353.1,-1375.91 357.01,-1366.06 350.01,-1365.77"/>
</g>
<!-- Metamodel::ClassHOW&#45;&gt;Metamodel::Trusting -->
<g id="edge20" class="edge">
<title>Metamodel::ClassHOW&#45;&gt;Metamodel::Trusting</title>
<path fill="none" stroke="#6666ff" d="M686.27,-904.09C574.16,-937.25 322.4,-1011.73 322.4,-1011.73 322.4,-1011.73 286.63,-1025.54 286.63,-1025.54 286.63,-1025.54 234.93,-1062.12 199.41,-1087.26"/>
<polygon fill="#6666ff" stroke="#6666ff" points="197.35,-1084.43 191.21,-1093.06 201.39,-1090.14 197.35,-1084.43"/>
</g>
<!-- Metamodel::ClassHOW&#45;&gt;Metamodel::BUILDPLAN -->
<g id="edge21" class="edge">
<title>Metamodel::ClassHOW&#45;&gt;Metamodel::BUILDPLAN</title>
<path fill="none" stroke="#6666ff" d="M733.44,-906.58C711.41,-977.68 631.99,-1234.05 631.99,-1234.05 631.99,-1234.05 650.27,-1397.15 657.82,-1464.44"/>
<polygon fill="#6666ff" stroke="#6666ff" points="654.38,-1465.19 658.97,-1474.74 661.34,-1464.41 654.38,-1465.19"/>
</g>
<!-- Metamodel::ClassHOW&#45;&gt;Metamodel::Mixins -->
<g id="edge22" class="edge">
<title>Metamodel::ClassHOW&#45;&gt;Metamodel::Mixins</title>
<path fill="none" stroke="#6666ff" d="M719.7,-870.69C670.47,-825.42 540.39,-705.77 484.14,-654.04"/>
<polygon fill="#6666ff" stroke="#6666ff" points="486.43,-651.4 476.7,-647.2 481.69,-656.55 486.43,-651.4"/>
</g>
<!-- Metamodel::ClassHOW&#45;&gt;Metamodel::BoolificationProtocol -->
<g id="edge23" class="edge">
<title>Metamodel::ClassHOW&#45;&gt;Metamodel::BoolificationProtocol</title>
<path fill="none" stroke="#6666ff" d="M700.59,-871.72C603.61,-829.44 349.12,-718.49 241.47,-671.56"/>
<polygon fill="#6666ff" stroke="#6666ff" points="242.69,-668.28 232.13,-667.49 239.9,-674.7 242.69,-668.28"/>
</g>
</g>
</svg>
