<?xml version="1.0" encoding="UTF-8" standalone="no"?>
<!DOCTYPE svg PUBLIC "-//W3C//DTD SVG 1.1//EN"
 "http://www.w3.org/Graphics/SVG/1.1/DTD/svg11.dtd">
<!-- Generated by graphviz version 2.43.0 (0)
 -->
<!-- Title: perl6&#45;type&#45;graph Pages: 1 -->
<svg width="1971pt" height="1684pt"
 viewBox="0.00 0.00 1971.31 1684.38" xmlns="http://www.w3.org/2000/svg" xmlns:xlink="http://www.w3.org/1999/xlink">
<g id="graph0" class="graph" transform="scale(1 1) rotate(0) translate(4 1680.38)">
<title>perl6&#45;type&#45;graph</title>
<polygon fill="white" stroke="transparent" points="-4,4 -4,-1680.38 1967.31,-1680.38 1967.31,4 -4,4"/>
<!-- Metamodel::RoleContainer -->
<g id="node1" class="node">
<title>Metamodel::RoleContainer</title>
<g id="a_node1"><a xlink:href="/type/Metamodel::RoleContainer" xlink:title="Metamodel::RoleContainer">
<ellipse fill="none" stroke="#6666ff" cx="833.73" cy="-713.28" rx="115.88" ry="18"/>
<text text-anchor="middle" x="833.73" y="-709.58" font-family="FreeSans" font-size="14.00" fill="#6666ff">Metamodel::RoleContainer</text>
</a>
</g>
</g>
<!-- Mu -->
<g id="node2" class="node">
<title>Mu</title>
<g id="a_node2"><a xlink:href="/type/Mu" xlink:title="Mu">
<ellipse fill="none" stroke="#000000" cx="1186.18" cy="-18" rx="27" ry="18"/>
<text text-anchor="middle" x="1186.18" y="-14.3" font-family="FreeSans" font-size="14.00" fill="#000000">Mu</text>
</a>
</g>
</g>
<!-- Any -->
<g id="node3" class="node">
<title>Any</title>
<g id="a_node3"><a xlink:href="/type/Any" xlink:title="Any">
<ellipse fill="none" stroke="#000000" cx="1060.33" cy="-495.96" rx="27" ry="18"/>
<text text-anchor="middle" x="1060.33" y="-492.26" font-family="FreeSans" font-size="14.00" fill="#000000">Any</text>
</a>
</g>
</g>
<!-- Any&#45;&gt;Mu -->
<g id="edge1" class="edge">
<title>Any&#45;&gt;Mu</title>
<path fill="none" stroke="#000000" d="M1065.03,-478.09C1084.1,-405.71 1155.67,-133.88 1178.87,-45.76"/>
<polygon fill="#000000" stroke="#000000" points="1182.29,-46.52 1181.45,-35.95 1175.52,-44.73 1182.29,-46.52"/>
</g>
<!-- Metamodel::Naming -->
<g id="node4" class="node">
<title>Metamodel::Naming</title>
<g id="a_node4"><a xlink:href="/type/Metamodel::Naming" xlink:title="Metamodel::Naming">
<ellipse fill="none" stroke="#6666ff" cx="988.38" cy="-974.17" rx="90.18" ry="18"/>
<text text-anchor="middle" x="988.38" y="-970.47" font-family="FreeSans" font-size="14.00" fill="#6666ff">Metamodel::Naming</text>
</a>
</g>
</g>
<!-- Metamodel::Stashing -->
<g id="node5" class="node">
<title>Metamodel::Stashing</title>
<g id="a_node5"><a xlink:href="/type/Metamodel::Stashing" xlink:title="Metamodel::Stashing">
<ellipse fill="none" stroke="#6666ff" cx="856.32" cy="-1185.46" rx="93.68" ry="18"/>
<text text-anchor="middle" x="856.32" y="-1181.76" font-family="FreeSans" font-size="14.00" fill="#6666ff">Metamodel::Stashing</text>
</a>
</g>
</g>
<!-- Metamodel::AttributeContainer -->
<g id="node6" class="node">
<title>Metamodel::AttributeContainer</title>
<g id="a_node6"><a xlink:href="/type/Metamodel::AttributeContainer" xlink:title="Metamodel::AttributeContainer">
<ellipse fill="none" stroke="#6666ff" cx="927.69" cy="-844.7" rx="129.98" ry="18"/>
<text text-anchor="middle" x="927.69" y="-841" font-family="FreeSans" font-size="14.00" fill="#6666ff">Metamodel::AttributeContainer</text>
</a>
</g>
</g>
<!-- Metamodel::MethodContainer -->
<g id="node7" class="node">
<title>Metamodel::MethodContainer</title>
<g id="a_node7"><a xlink:href="/type/Metamodel::MethodContainer" xlink:title="Metamodel::MethodContainer">
<ellipse fill="none" stroke="#6666ff" cx="914.67" cy="-563.6" rx="127.28" ry="18"/>
<text text-anchor="middle" x="914.67" y="-559.9" font-family="FreeSans" font-size="14.00" fill="#6666ff">Metamodel::MethodContainer</text>
</a>
</g>
</g>
<!-- Metamodel::MultiMethodContainer -->
<g id="node8" class="node">
<title>Metamodel::MultiMethodContainer</title>
<g id="a_node8"><a xlink:href="/type/Metamodel::MultiMethodContainer" xlink:title="Metamodel::MultiMethodContainer">
<ellipse fill="none" stroke="#6666ff" cx="1103.68" cy="-679.49" rx="146.47" ry="18"/>
<text text-anchor="middle" x="1103.68" y="-675.79" font-family="FreeSans" font-size="14.00" fill="#6666ff">Metamodel::MultiMethodContainer</text>
</a>
</g>
</g>
<!-- Metamodel::BaseType -->
<g id="node9" class="node">
<title>Metamodel::BaseType</title>
<g id="a_node9"><a xlink:href="/type/Metamodel::BaseType" xlink:title="Metamodel::BaseType">
<ellipse fill="none" stroke="#6666ff" cx="371.53" cy="-82.82" rx="99.38" ry="18"/>
<text text-anchor="middle" x="371.53" y="-79.12" font-family="FreeSans" font-size="14.00" fill="#6666ff">Metamodel::BaseType</text>
</a>
</g>
</g>
<!-- Metamodel::MROBasedMethodDispatch -->
<g id="node10" class="node">
<title>Metamodel::MROBasedMethodDispatch</title>
<g id="a_node10"><a xlink:href="/type/Metamodel::MROBasedMethodDispatch" xlink:title="Metamodel::MROBasedMethodDispatch">
<ellipse fill="none" stroke="#6666ff" cx="303.96" cy="-595.31" rx="169.77" ry="18"/>
<text text-anchor="middle" x="303.96" y="-591.61" font-family="FreeSans" font-size="14.00" fill="#6666ff">Metamodel::MROBasedMethodDispatch</text>
</a>
</g>
</g>
<!-- Metamodel::MROBasedTypeChecking -->
<g id="node11" class="node">
<title>Metamodel::MROBasedTypeChecking</title>
<g id="a_node11"><a xlink:href="/type/Metamodel::MROBasedTypeChecking" xlink:title="Metamodel::MROBasedTypeChecking">
<ellipse fill="none" stroke="#6666ff" cx="211.65" cy="-736.36" rx="163.27" ry="18"/>
<text text-anchor="middle" x="211.65" y="-732.66" font-family="FreeSans" font-size="14.00" fill="#6666ff">Metamodel::MROBasedTypeChecking</text>
</a>
</g>
</g>
<!-- Metamodel::BUILDPLAN -->
<g id="node12" class="node">
<title>Metamodel::BUILDPLAN</title>
<g id="a_node12"><a xlink:href="/type/Metamodel::BUILDPLAN" xlink:title="Metamodel::BUILDPLAN">
<ellipse fill="none" stroke="#6666ff" cx="109.84" cy="-926.66" rx="109.68" ry="18"/>
<text text-anchor="middle" x="109.84" y="-922.96" font-family="FreeSans" font-size="14.00" fill="#6666ff">Metamodel::BUILDPLAN</text>
</a>
</g>
</g>
<!-- Metamodel::BoolificationProtocol -->
<g id="node13" class="node">
<title>Metamodel::BoolificationProtocol</title>
<g id="a_node13"><a xlink:href="/type/Metamodel::BoolificationProtocol" xlink:title="Metamodel::BoolificationProtocol">
<ellipse fill="none" stroke="#6666ff" cx="366.8" cy="-915.46" rx="139.18" ry="18"/>
<text text-anchor="middle" x="366.8" y="-911.76" font-family="FreeSans" font-size="14.00" fill="#6666ff">Metamodel::BoolificationProtocol</text>
</a>
</g>
</g>
<!-- Metamodel::Mixins -->
<g id="node14" class="node">
<title>Metamodel::Mixins</title>
<g id="a_node14"><a xlink:href="/type/Metamodel::Mixins" xlink:title="Metamodel::Mixins">
<ellipse fill="none" stroke="#6666ff" cx="250.96" cy="-1099.83" rx="85.29" ry="18"/>
<text text-anchor="middle" x="250.96" y="-1096.13" font-family="FreeSans" font-size="14.00" fill="#6666ff">Metamodel::Mixins</text>
</a>
</g>
</g>
<!-- Metamodel::EnumHOW -->
<g id="node15" class="node">
<title>Metamodel::EnumHOW</title>
<g id="a_node15"><a xlink:href="/type/Metamodel::EnumHOW" xlink:title="Metamodel::EnumHOW">
<ellipse fill="none" stroke="#000000" cx="586.31" cy="-596.53" rx="104.78" ry="18"/>
<text text-anchor="middle" x="586.31" y="-592.83" font-family="FreeSans" font-size="14.00" fill="#000000">Metamodel::EnumHOW</text>
</a>
</g>
</g>
<!-- Metamodel::EnumHOW&#45;&gt;Metamodel::RoleContainer -->
<g id="edge11" class="edge">
<title>Metamodel::EnumHOW&#45;&gt;Metamodel::RoleContainer</title>
<path fill="none" stroke="#6666ff" d="M622.29,-613.51C666.14,-634.2 740.29,-669.19 788.11,-691.76"/>
<polygon fill="#6666ff" stroke="#6666ff" points="786.77,-694.99 797.3,-696.1 789.75,-688.66 786.77,-694.99"/>
</g>
<!-- Metamodel::EnumHOW&#45;&gt;Any -->
<g id="edge2" class="edge">
<title>Metamodel::EnumHOW&#45;&gt;Any</title>
<path fill="none" stroke="#000000" d="M652.22,-582.55C753.74,-561.01 944.95,-520.44 1024.35,-503.59"/>
<polygon fill="#000000" stroke="#000000" points="1025.29,-506.97 1034.35,-501.47 1023.84,-500.12 1025.29,-506.97"/>
</g>
<!-- Metamodel::EnumHOW&#45;&gt;Metamodel::Naming -->
<g id="edge6" class="edge">
<title>Metamodel::EnumHOW&#45;&gt;Metamodel::Naming</title>
<path fill="none" stroke="#6666ff" d="M601.4,-614.37C649.5,-671.25 796.11,-844.57 796.11,-844.57 796.11,-844.57 898.7,-913.72 954,-951"/>
<polygon fill="#6666ff" stroke="#6666ff" points="952.2,-954.01 962.45,-956.69 956.12,-948.2 952.2,-954.01"/>
</g>
<!-- Metamodel::EnumHOW&#45;&gt;Metamodel::Stashing -->
<g id="edge7" class="edge">
<title>Metamodel::EnumHOW&#45;&gt;Metamodel::Stashing</title>
<path fill="none" stroke="#6666ff" d="M594.54,-614.48C633.2,-698.81 796.88,-1055.82 843.74,-1158.02"/>
<polygon fill="#6666ff" stroke="#6666ff" points="840.67,-1159.73 848.02,-1167.36 847.03,-1156.81 840.67,-1159.73"/>
</g>
<!-- Metamodel::EnumHOW&#45;&gt;Metamodel::AttributeContainer -->
<g id="edge8" class="edge">
<title>Metamodel::EnumHOW&#45;&gt;Metamodel::AttributeContainer</title>
<path fill="none" stroke="#6666ff" d="M606.07,-614.25C642.48,-646.89 716.44,-713.19 716.44,-713.19 716.44,-713.19 830.08,-783.94 890.67,-821.65"/>
<polygon fill="#6666ff" stroke="#6666ff" points="888.86,-824.65 899.2,-826.96 892.56,-818.71 888.86,-824.65"/>
</g>
<!-- Metamodel::EnumHOW&#45;&gt;Metamodel::MethodContainer -->
<g id="edge9" class="edge">
<title>Metamodel::EnumHOW&#45;&gt;Metamodel::MethodContainer</title>
<path fill="none" stroke="#6666ff" d="M676.91,-587.45C715.14,-583.61 760.09,-579.1 800.56,-575.04"/>
<polygon fill="#6666ff" stroke="#6666ff" points="801.14,-578.5 810.74,-574.02 800.44,-571.54 801.14,-578.5"/>
</g>
<!-- Metamodel::EnumHOW&#45;&gt;Metamodel::MultiMethodContainer -->
<g id="edge10" class="edge">
<title>Metamodel::EnumHOW&#45;&gt;Metamodel::MultiMethodContainer</title>
<path fill="none" stroke="#6666ff" d="M662.93,-608.82C753.62,-623.36 904.88,-647.61 1004.45,-663.58"/>
<polygon fill="#6666ff" stroke="#6666ff" points="1004.1,-667.06 1014.53,-665.19 1005.21,-660.15 1004.1,-667.06"/>
</g>
<!-- Metamodel::EnumHOW&#45;&gt;Metamodel::BaseType -->
<g id="edge12" class="edge">
<title>Metamodel::EnumHOW&#45;&gt;Metamodel::BaseType</title>
<path fill="none" stroke="#6666ff" d="M578.79,-578.55C546.77,-501.96 421.63,-202.65 382.97,-110.19"/>
<polygon fill="#6666ff" stroke="#6666ff" points="386.18,-108.8 379.09,-100.93 379.72,-111.5 386.18,-108.8"/>
</g>
<!-- Metamodel::EnumHOW&#45;&gt;Metamodel::MROBasedMethodDispatch -->
<g id="edge13" class="edge">
<title>Metamodel::EnumHOW&#45;&gt;Metamodel::MROBasedMethodDispatch</title>
<path fill="none" stroke="#6666ff" d="M481.57,-596.08C481.49,-596.08 481.41,-596.08 481.32,-596.08"/>
<polygon fill="#6666ff" stroke="#6666ff" points="483.53,-592.59 473.52,-596.05 483.5,-599.59 483.53,-592.59"/>
</g>
<!-- Metamodel::EnumHOW&#45;&gt;Metamodel::MROBasedTypeChecking -->
<g id="edge14" class="edge">
<title>Metamodel::EnumHOW&#45;&gt;Metamodel::MROBasedTypeChecking</title>
<path fill="none" stroke="#6666ff" d="M542.23,-612.99C473.92,-638.48 342.58,-687.5 267.65,-715.46"/>
<polygon fill="#6666ff" stroke="#6666ff" points="266.05,-712.32 257.91,-719.1 268.5,-718.88 266.05,-712.32"/>
</g>
<!-- Metamodel::EnumHOW&#45;&gt;Metamodel::BUILDPLAN -->
<g id="edge15" class="edge">
<title>Metamodel::EnumHOW&#45;&gt;Metamodel::BUILDPLAN</title>
<path fill="none" stroke="#6666ff" d="M561.03,-614.05C481.17,-669.39 234.22,-840.48 143.62,-903.26"/>
<polygon fill="#6666ff" stroke="#6666ff" points="141.58,-900.42 135.35,-908.99 145.56,-906.17 141.58,-900.42"/>
</g>
<!-- Metamodel::EnumHOW&#45;&gt;Metamodel::BoolificationProtocol -->
<g id="edge16" class="edge">
<title>Metamodel::EnumHOW&#45;&gt;Metamodel::BoolificationProtocol</title>
<path fill="none" stroke="#6666ff" d="M573.88,-614.6C537.07,-668.08 428.47,-825.86 385.05,-888.95"/>
<polygon fill="#6666ff" stroke="#6666ff" points="382.16,-886.98 379.37,-897.2 387.92,-890.95 382.16,-886.98"/>
</g>
<!-- Metamodel::EnumHOW&#45;&gt;Metamodel::Mixins -->
<g id="edge17" class="edge">
<title>Metamodel::EnumHOW&#45;&gt;Metamodel::Mixins</title>
<path fill="none" stroke="#6666ff" d="M581.85,-614.6C565.17,-682.1 507.49,-915.6 507.49,-915.6 507.49,-915.6 352.5,-1026.92 283.46,-1076.49"/>
<polygon fill="#6666ff" stroke="#6666ff" points="281.18,-1073.83 275.09,-1082.5 285.26,-1079.51 281.18,-1073.83"/>
</g>
<!-- Metamodel::Versioning -->
<g id="node16" class="node">
<title>Metamodel::Versioning</title>
<g id="a_node16"><a xlink:href="/type/Metamodel::Versioning" xlink:title="Metamodel::Versioning">
<ellipse fill="none" stroke="#6666ff" cx="1190.43" cy="-1195.12" rx="100.98" ry="18"/>
<text text-anchor="middle" x="1190.43" y="-1191.42" font-family="FreeSans" font-size="14.00" fill="#6666ff">Metamodel::Versioning</text>
</a>
</g>
</g>
<!-- Metamodel::PrivateMethodContainer -->
<g id="node17" class="node">
<title>Metamodel::PrivateMethodContainer</title>
<g id="a_node17"><a xlink:href="/type/Metamodel::PrivateMethodContainer" xlink:title="Metamodel::PrivateMethodContainer">
<ellipse fill="none" stroke="#6666ff" cx="1304.92" cy="-1292.87" rx="154.87" ry="18"/>
<text text-anchor="middle" x="1304.92" y="-1289.17" font-family="FreeSans" font-size="14.00" fill="#6666ff">Metamodel::PrivateMethodContainer</text>
</a>
</g>
</g>
<!-- Metamodel::MultipleInheritance -->
<g id="node18" class="node">
<title>Metamodel::MultipleInheritance</title>
<g id="a_node18"><a xlink:href="/type/Metamodel::MultipleInheritance" xlink:title="Metamodel::MultipleInheritance">
<ellipse fill="none" stroke="#6666ff" cx="1162.42" cy="-1352.2" rx="133.78" ry="18"/>
<text text-anchor="middle" x="1162.42" y="-1348.5" font-family="FreeSans" font-size="14.00" fill="#6666ff">Metamodel::MultipleInheritance</text>
</a>
</g>
</g>
<!-- Metamodel::ConcreteRoleHOW -->
<g id="node19" class="node">
<title>Metamodel::ConcreteRoleHOW</title>
<g id="a_node19"><a xlink:href="/type/Metamodel::ConcreteRoleHOW" xlink:title="Metamodel::ConcreteRoleHOW">
<ellipse fill="none" stroke="#000000" cx="1369.31" cy="-766.39" rx="135.38" ry="18"/>
<text text-anchor="middle" x="1369.31" y="-762.69" font-family="FreeSans" font-size="14.00" fill="#000000">Metamodel::ConcreteRoleHOW</text>
</a>
</g>
</g>
<!-- Metamodel::ConcreteRoleHOW&#45;&gt;Metamodel::RoleContainer -->
<g id="edge24" class="edge">
<title>Metamodel::ConcreteRoleHOW&#45;&gt;Metamodel::RoleContainer</title>
<path fill="none" stroke="#6666ff" d="M1260.61,-755.61C1167.53,-746.38 1034.23,-733.16 941.44,-723.96"/>
<polygon fill="#6666ff" stroke="#6666ff" points="941.76,-720.48 931.47,-722.97 941.07,-727.44 941.76,-720.48"/>
</g>
<!-- Metamodel::ConcreteRoleHOW&#45;&gt;Any -->
<g id="edge3" class="edge">
<title>Metamodel::ConcreteRoleHOW&#45;&gt;Any</title>
<path fill="none" stroke="#000000" d="M1348.56,-748.23C1293.38,-699.93 1143.24,-568.52 1084.42,-517.04"/>
<polygon fill="#000000" stroke="#000000" points="1086.58,-514.28 1076.75,-510.33 1081.97,-519.55 1086.58,-514.28"/>
</g>
<!-- Metamodel::ConcreteRoleHOW&#45;&gt;Metamodel::Naming -->
<g id="edge18" class="edge">
<title>Metamodel::ConcreteRoleHOW&#45;&gt;Metamodel::Naming</title>
<path fill="none" stroke="#6666ff" d="M1337.16,-783.93C1267.79,-821.77 1104.19,-911 1028.32,-952.39"/>
<polygon fill="#6666ff" stroke="#6666ff" points="1026.61,-949.33 1019.51,-957.19 1029.97,-955.48 1026.61,-949.33"/>
</g>
<!-- Metamodel::ConcreteRoleHOW&#45;&gt;Metamodel::AttributeContainer -->
<g id="edge23" class="edge">
<title>Metamodel::ConcreteRoleHOW&#45;&gt;Metamodel::AttributeContainer</title>
<path fill="none" stroke="#6666ff" d="M1288.06,-780.8C1211.49,-794.38 1096.99,-814.68 1017.69,-828.74"/>
<polygon fill="#6666ff" stroke="#6666ff" points="1016.95,-825.32 1007.71,-830.51 1018.17,-832.21 1016.95,-825.32"/>
</g>
<!-- Metamodel::ConcreteRoleHOW&#45;&gt;Metamodel::MethodContainer -->
<g id="edge21" class="edge">
<title>Metamodel::ConcreteRoleHOW&#45;&gt;Metamodel::MethodContainer</title>
<path fill="none" stroke="#6666ff" d="M1345.19,-748.61C1310.73,-723.22 1251.51,-679.59 1251.51,-679.59 1251.51,-679.59 1069.3,-616.84 972.91,-583.65"/>
<polygon fill="#6666ff" stroke="#6666ff" points="973.89,-580.29 963.29,-580.34 971.61,-586.91 973.89,-580.29"/>
</g>
<!-- Metamodel::ConcreteRoleHOW&#45;&gt;Metamodel::MultiMethodContainer -->
<g id="edge22" class="edge">
<title>Metamodel::ConcreteRoleHOW&#45;&gt;Metamodel::MultiMethodContainer</title>
<path fill="none" stroke="#6666ff" d="M1318.1,-749.63C1274.32,-735.31 1211.24,-714.68 1164.83,-699.49"/>
<polygon fill="#6666ff" stroke="#6666ff" points="1165.78,-696.12 1155.19,-696.34 1163.61,-702.77 1165.78,-696.12"/>
</g>
<!-- Metamodel::ConcreteRoleHOW&#45;&gt;Metamodel::Versioning -->
<g id="edge19" class="edge">
<title>Metamodel::ConcreteRoleHOW&#45;&gt;Metamodel::Versioning</title>
<path fill="none" stroke="#6666ff" d="M1353.17,-784.29C1314.26,-827.44 1218.48,-933.67 1218.48,-933.67 1218.48,-933.67 1200.74,-1099.05 1193.48,-1166.75"/>
<polygon fill="#6666ff" stroke="#6666ff" points="1189.99,-1166.41 1192.41,-1176.73 1196.95,-1167.16 1189.99,-1166.41"/>
</g>
<!-- Metamodel::ConcreteRoleHOW&#45;&gt;Metamodel::PrivateMethodContainer -->
<g id="edge20" class="edge">
<title>Metamodel::ConcreteRoleHOW&#45;&gt;Metamodel::PrivateMethodContainer</title>
<path fill="none" stroke="#6666ff" d="M1353.17,-784.29C1314.26,-827.44 1218.48,-933.67 1218.48,-933.67 1218.48,-933.67 1292.78,-1195.19 1292.78,-1195.19 1292.78,-1195.19 1297.81,-1235.65 1301.39,-1264.5"/>
<polygon fill="#6666ff" stroke="#6666ff" points="1297.93,-1265.01 1302.64,-1274.5 1304.88,-1264.14 1297.93,-1265.01"/>
</g>
<!-- Metamodel::ConcreteRoleHOW&#45;&gt;Metamodel::MultipleInheritance -->
<g id="edge25" class="edge">
<title>Metamodel::ConcreteRoleHOW&#45;&gt;Metamodel::MultipleInheritance</title>
<path fill="none" stroke="#6666ff" d="M1353.17,-784.29C1314.26,-827.44 1218.48,-933.67 1218.48,-933.67 1218.48,-933.67 1088.09,-1195.04 1088.09,-1195.04 1088.09,-1195.04 1128.26,-1279.97 1149.54,-1324.96"/>
<polygon fill="#6666ff" stroke="#6666ff" points="1146.45,-1326.63 1153.89,-1334.17 1152.78,-1323.64 1146.45,-1326.63"/>
</g>
<!-- Metamodel::Documenting -->
<g id="node20" class="node">
<title>Metamodel::Documenting</title>
<g id="a_node20"><a xlink:href="/type/Metamodel::Documenting" xlink:title="Metamodel::Documenting">
<ellipse fill="none" stroke="#6666ff" cx="1038.32" cy="-1509.57" rx="111.28" ry="18"/>
<text text-anchor="middle" x="1038.32" y="-1505.87" font-family="FreeSans" font-size="14.00" fill="#6666ff">Metamodel::Documenting</text>
</a>
</g>
</g>
<!-- Metamodel::Finalization -->
<g id="node21" class="node">
<title>Metamodel::Finalization</title>
<g id="a_node21"><a xlink:href="/type/Metamodel::Finalization" xlink:title="Metamodel::Finalization">
<ellipse fill="none" stroke="#6666ff" cx="368.47" cy="-1512.26" rx="103.98" ry="18"/>
<text text-anchor="middle" x="368.47" y="-1508.56" font-family="FreeSans" font-size="14.00" fill="#6666ff">Metamodel::Finalization</text>
</a>
</g>
</g>
<!-- Metamodel::DefaultParent -->
<g id="node22" class="node">
<title>Metamodel::DefaultParent</title>
<g id="a_node22"><a xlink:href="/type/Metamodel::DefaultParent" xlink:title="Metamodel::DefaultParent">
<ellipse fill="none" stroke="#6666ff" cx="216.53" cy="-1380.82" rx="113.18" ry="18"/>
<text text-anchor="middle" x="216.53" y="-1377.12" font-family="FreeSans" font-size="14.00" fill="#6666ff">Metamodel::DefaultParent</text>
</a>
</g>
</g>
<!-- Metamodel::C3MRO -->
<g id="node23" class="node">
<title>Metamodel::C3MRO</title>
<g id="a_node23"><a xlink:href="/type/Metamodel::C3MRO" xlink:title="Metamodel::C3MRO">
<ellipse fill="none" stroke="#6666ff" cx="531.02" cy="-1606.16" rx="92.08" ry="18"/>
<text text-anchor="middle" x="531.02" y="-1602.46" font-family="FreeSans" font-size="14.00" fill="#6666ff">Metamodel::C3MRO</text>
</a>
</g>
</g>
<!-- Metamodel::Trusting -->
<g id="node24" class="node">
<title>Metamodel::Trusting</title>
<g id="a_node24"><a xlink:href="/type/Metamodel::Trusting" xlink:title="Metamodel::Trusting">
<ellipse fill="none" stroke="#6666ff" cx="716.03" cy="-1658.38" rx="91.78" ry="18"/>
<text text-anchor="middle" x="716.03" y="-1654.68" font-family="FreeSans" font-size="14.00" fill="#6666ff">Metamodel::Trusting</text>
</a>
</g>
</g>
<!-- Metamodel::ClassHOW -->
<g id="node25" class="node">
<title>Metamodel::ClassHOW</title>
<g id="a_node25"><a xlink:href="/type/Metamodel::ClassHOW" xlink:title="Metamodel::ClassHOW">
<ellipse fill="none" stroke="#000000" cx="674.22" cy="-1083.61" rx="103.18" ry="18"/>
<text text-anchor="middle" x="674.22" y="-1079.91" font-family="FreeSans" font-size="14.00" fill="#000000">Metamodel::ClassHOW</text>
</a>
</g>
</g>
<!-- Metamodel::ClassHOW&#45;&gt;Metamodel::RoleContainer -->
<g id="edge35" class="edge">
<title>Metamodel::ClassHOW&#45;&gt;Metamodel::RoleContainer</title>
<path fill="none" stroke="#6666ff" d="M682.02,-1065.5C707.89,-1005.45 790.94,-812.62 821.92,-740.68"/>
<polygon fill="#6666ff" stroke="#6666ff" points="825.2,-741.93 825.94,-731.36 818.77,-739.16 825.2,-741.93"/>
</g>
<!-- Metamodel::ClassHOW&#45;&gt;Any -->
<g id="edge4" class="edge">
<title>Metamodel::ClassHOW&#45;&gt;Any</title>
<path fill="none" stroke="#000000" d="M683.38,-1065.65C711.73,-1010.05 796.11,-844.57 796.11,-844.57 796.11,-844.57 951.01,-713.38 951.01,-713.38 951.01,-713.38 955.84,-679.39 955.84,-679.39 955.84,-679.39 1043.66,-563.71 1043.66,-563.71 1043.66,-563.71 1048.94,-542.24 1053.56,-523.48"/>
<polygon fill="#000000" stroke="#000000" points="1056.96,-524.31 1055.95,-513.76 1050.16,-522.63 1056.96,-524.31"/>
</g>
<!-- Metamodel::ClassHOW&#45;&gt;Metamodel::Naming -->
<g id="edge26" class="edge">
<title>Metamodel::ClassHOW&#45;&gt;Metamodel::Naming</title>
<path fill="none" stroke="#6666ff" d="M720.58,-1067.46C777.33,-1047.7 873.31,-1014.26 933.63,-993.24"/>
<polygon fill="#6666ff" stroke="#6666ff" points="935.07,-996.45 943.37,-989.86 932.77,-989.84 935.07,-996.45"/>
</g>
<!-- Metamodel::ClassHOW&#45;&gt;Metamodel::Stashing -->
<g id="edge29" class="edge">
<title>Metamodel::ClassHOW&#45;&gt;Metamodel::Stashing</title>
<path fill="none" stroke="#6666ff" d="M705.11,-1100.89C735.81,-1118.06 783.03,-1144.47 816.52,-1163.2"/>
<polygon fill="#6666ff" stroke="#6666ff" points="815.14,-1166.44 825.58,-1168.27 818.56,-1160.33 815.14,-1166.44"/>
</g>
<!-- Metamodel::ClassHOW&#45;&gt;Metamodel::AttributeContainer -->
<g id="edge30" class="edge">
<title>Metamodel::ClassHOW&#45;&gt;Metamodel::AttributeContainer</title>
<path fill="none" stroke="#6666ff" d="M693.27,-1065.66C738.06,-1023.44 850.13,-917.81 901.37,-869.51"/>
<polygon fill="#6666ff" stroke="#6666ff" points="903.89,-871.94 908.77,-862.54 899.09,-866.85 903.89,-871.94"/>
</g>
<!-- Metamodel::ClassHOW&#45;&gt;Metamodel::MethodContainer -->
<g id="edge32" class="edge">
<title>Metamodel::ClassHOW&#45;&gt;Metamodel::MethodContainer</title>
<path fill="none" stroke="#6666ff" d="M676.29,-1065.5C684.76,-991.13 716.44,-713.19 716.44,-713.19 716.44,-713.19 827,-629.76 882.98,-587.51"/>
<polygon fill="#6666ff" stroke="#6666ff" points="885.28,-590.16 891.15,-581.35 881.06,-584.58 885.28,-590.16"/>
</g>
<!-- Metamodel::ClassHOW&#45;&gt;Metamodel::MultiMethodContainer -->
<g id="edge34" class="edge">
<title>Metamodel::ClassHOW&#45;&gt;Metamodel::MultiMethodContainer</title>
<path fill="none" stroke="#6666ff" d="M683.38,-1065.65C711.73,-1010.05 796.11,-844.57 796.11,-844.57 796.11,-844.57 977.56,-747.18 1061.72,-702.01"/>
<polygon fill="#6666ff" stroke="#6666ff" points="1063.61,-704.97 1070.76,-697.15 1060.3,-698.8 1063.61,-704.97"/>
</g>
<!-- Metamodel::ClassHOW&#45;&gt;Metamodel::MROBasedMethodDispatch -->
<g id="edge39" class="edge">
<title>Metamodel::ClassHOW&#45;&gt;Metamodel::MROBasedMethodDispatch</title>
<path fill="none" stroke="#6666ff" d="M660.61,-1065.65C604.42,-991.55 390.42,-709.34 323.85,-621.54"/>
<polygon fill="#6666ff" stroke="#6666ff" points="326.53,-619.29 317.7,-613.43 320.95,-623.52 326.53,-619.29"/>
</g>
<!-- Metamodel::ClassHOW&#45;&gt;Metamodel::MROBasedTypeChecking -->
<g id="edge40" class="edge">
<title>Metamodel::ClassHOW&#45;&gt;Metamodel::MROBasedTypeChecking</title>
<path fill="none" stroke="#6666ff" d="M656.38,-1065.63C613.37,-1022.29 507.49,-915.6 507.49,-915.6 507.49,-915.6 329.88,-807.99 249.9,-759.53"/>
<polygon fill="#6666ff" stroke="#6666ff" points="251.47,-756.39 241.1,-754.2 247.84,-762.37 251.47,-756.39"/>
</g>
<!-- Metamodel::ClassHOW&#45;&gt;Metamodel::BUILDPLAN -->
<g id="edge42" class="edge">
<title>Metamodel::ClassHOW&#45;&gt;Metamodel::BUILDPLAN</title>
<path fill="none" stroke="#6666ff" d="M619.34,-1068.35C514.87,-1039.3 287.89,-976.18 175.54,-944.93"/>
<polygon fill="#6666ff" stroke="#6666ff" points="176.26,-941.5 165.69,-942.19 174.38,-948.25 176.26,-941.5"/>
</g>
<!-- Metamodel::ClassHOW&#45;&gt;Metamodel::BoolificationProtocol -->
<g id="edge44" class="edge">
<title>Metamodel::ClassHOW&#45;&gt;Metamodel::BoolificationProtocol</title>
<path fill="none" stroke="#6666ff" d="M642.77,-1066.41C586.87,-1035.83 470.29,-972.06 408.05,-938.01"/>
<polygon fill="#6666ff" stroke="#6666ff" points="409.36,-934.74 398.91,-933.02 406,-940.88 409.36,-934.74"/>
</g>
<!-- Metamodel::ClassHOW&#45;&gt;Metamodel::Mixins -->
<g id="edge43" class="edge">
<title>Metamodel::ClassHOW&#45;&gt;Metamodel::Mixins</title>
<path fill="none" stroke="#6666ff" d="M573.11,-1087.49C503.91,-1090.14 412.8,-1093.63 345.13,-1096.22"/>
<polygon fill="#6666ff" stroke="#6666ff" points="344.76,-1092.74 334.9,-1096.62 345.03,-1099.73 344.76,-1092.74"/>
</g>
<!-- Metamodel::ClassHOW&#45;&gt;Metamodel::Versioning -->
<g id="edge28" class="edge">
<title>Metamodel::ClassHOW&#45;&gt;Metamodel::Versioning</title>
<path fill="none" stroke="#6666ff" d="M739.34,-1097.68C835.48,-1118.44 1014.9,-1157.2 1116.08,-1179.05"/>
<polygon fill="#6666ff" stroke="#6666ff" points="1115.4,-1182.49 1125.92,-1181.18 1116.88,-1175.65 1115.4,-1182.49"/>
</g>
<!-- Metamodel::ClassHOW&#45;&gt;Metamodel::PrivateMethodContainer -->
<g id="edge33" class="edge">
<title>Metamodel::ClassHOW&#45;&gt;Metamodel::PrivateMethodContainer</title>
<path fill="none" stroke="#6666ff" d="M722.41,-1099.6C835.67,-1137.18 1118.72,-1231.09 1243.82,-1272.6"/>
<polygon fill="#6666ff" stroke="#6666ff" points="1243.04,-1276.03 1253.63,-1275.85 1245.24,-1269.38 1243.04,-1276.03"/>
</g>
<!-- Metamodel::ClassHOW&#45;&gt;Metamodel::MultipleInheritance -->
<g id="edge36" class="edge">
<title>Metamodel::ClassHOW&#45;&gt;Metamodel::MultipleInheritance</title>
<path fill="none" stroke="#6666ff" d="M720.03,-1099.76C792.14,-1125.19 923.99,-1171.67 923.99,-1171.67 923.99,-1171.67 951.51,-1185.56 951.51,-1185.56 951.51,-1185.56 1073.18,-1281.69 1131.69,-1327.93"/>
<polygon fill="#6666ff" stroke="#6666ff" points="1129.83,-1330.92 1139.85,-1334.37 1134.17,-1325.42 1129.83,-1330.92"/>
</g>
<!-- Metamodel::ClassHOW&#45;&gt;Metamodel::Documenting -->
<g id="edge27" class="edge">
<title>Metamodel::ClassHOW&#45;&gt;Metamodel::Documenting</title>
<path fill="none" stroke="#6666ff" d="M689.76,-1101.8C714.76,-1131.06 761.13,-1185.35 761.13,-1185.35 761.13,-1185.35 950.83,-1407.24 1016.37,-1483.89"/>
<polygon fill="#6666ff" stroke="#6666ff" points="1013.86,-1486.35 1023.02,-1491.67 1019.18,-1481.8 1013.86,-1486.35"/>
</g>
<!-- Metamodel::ClassHOW&#45;&gt;Metamodel::Finalization -->
<g id="edge31" class="edge">
<title>Metamodel::ClassHOW&#45;&gt;Metamodel::Finalization</title>
<path fill="none" stroke="#6666ff" d="M661.47,-1101.49C613.59,-1168.62 444.32,-1405.92 387.35,-1485.8"/>
<polygon fill="#6666ff" stroke="#6666ff" points="384.23,-1484.14 381.27,-1494.31 389.93,-1488.2 384.23,-1484.14"/>
</g>
<!-- Metamodel::ClassHOW&#45;&gt;Metamodel::DefaultParent -->
<g id="edge37" class="edge">
<title>Metamodel::ClassHOW&#45;&gt;Metamodel::DefaultParent</title>
<path fill="none" stroke="#6666ff" d="M647.3,-1101.09C568.94,-1151.98 340.93,-1300.03 252.33,-1357.57"/>
<polygon fill="#6666ff" stroke="#6666ff" points="250.18,-1354.79 243.7,-1363.17 254,-1360.66 250.18,-1354.79"/>
</g>
<!-- Metamodel::ClassHOW&#45;&gt;Metamodel::C3MRO -->
<g id="edge38" class="edge">
<title>Metamodel::ClassHOW&#45;&gt;Metamodel::C3MRO</title>
<path fill="none" stroke="#6666ff" d="M669.29,-1101.6C648.08,-1179.01 564.48,-1484.09 538.66,-1578.3"/>
<polygon fill="#6666ff" stroke="#6666ff" points="535.27,-1577.41 536.01,-1587.98 542.02,-1579.26 535.27,-1577.41"/>
</g>
<!-- Metamodel::ClassHOW&#45;&gt;Metamodel::Trusting -->
<g id="edge41" class="edge">
<title>Metamodel::ClassHOW&#45;&gt;Metamodel::Trusting</title>
<path fill="none" stroke="#6666ff" d="M675.54,-1101.76C681.58,-1184.8 706.6,-1528.75 713.98,-1630.13"/>
<polygon fill="#6666ff" stroke="#6666ff" points="710.49,-1630.51 714.71,-1640.23 717.48,-1630 710.49,-1630.51"/>
</g>
<!-- Metamodel::TypePretense -->
<g id="node26" class="node">
<title>Metamodel::TypePretense</title>
<g id="a_node26"><a xlink:href="/type/Metamodel::TypePretense" xlink:title="Metamodel::TypePretense">
<ellipse fill="none" stroke="#6666ff" cx="1825.37" cy="-700.96" rx="114.28" ry="18"/>
<text text-anchor="middle" x="1825.37" y="-697.26" font-family="FreeSans" font-size="14.00" fill="#6666ff">Metamodel::TypePretense</text>
</a>
</g>
</g>
<!-- Metamodel::RolePunning -->
<g id="node27" class="node">
<title>Metamodel::RolePunning</title>
<g id="a_node27"><a xlink:href="/type/Metamodel::RolePunning" xlink:title="Metamodel::RolePunning">
<ellipse fill="none" stroke="#6666ff" cx="1853.47" cy="-1100.6" rx="109.68" ry="18"/>
<text text-anchor="middle" x="1853.47" y="-1096.9" font-family="FreeSans" font-size="14.00" fill="#6666ff">Metamodel::RolePunning</text>
</a>
</g>
</g>
<!-- Metamodel::ParametricRoleHOW -->
<g id="node28" class="node">
<title>Metamodel::ParametricRoleHOW</title>
<g id="a_node28"><a xlink:href="/type/Metamodel::ParametricRoleHOW" xlink:title="Metamodel::ParametricRoleHOW">
<ellipse fill="none" stroke="#000000" cx="1361.77" cy="-933.83" rx="141.88" ry="18"/>
<text text-anchor="middle" x="1361.77" y="-930.13" font-family="FreeSans" font-size="14.00" fill="#000000">Metamodel::ParametricRoleHOW</text>
</a>
</g>
</g>
<!-- Metamodel::ParametricRoleHOW&#45;&gt;Metamodel::RoleContainer -->
<g id="edge52" class="edge">
<title>Metamodel::ParametricRoleHOW&#45;&gt;Metamodel::RoleContainer</title>
<path fill="none" stroke="#6666ff" d="M1320.33,-916.52C1224.38,-876.44 987.2,-777.38 883.55,-734.09"/>
<polygon fill="#6666ff" stroke="#6666ff" points="884.82,-730.83 874.24,-730.2 882.12,-737.29 884.82,-730.83"/>
</g>
<!-- Metamodel::ParametricRoleHOW&#45;&gt;Any -->
<g id="edge5" class="edge">
<title>Metamodel::ParametricRoleHOW&#45;&gt;Any</title>
<path fill="none" stroke="#000000" d="M1347.94,-915.89C1314.6,-872.67 1232.53,-766.26 1232.53,-766.26 1232.53,-766.26 1251.51,-679.59 1251.51,-679.59 1251.51,-679.59 1134.01,-566.73 1083.24,-517.96"/>
<polygon fill="#000000" stroke="#000000" points="1085.61,-515.39 1075.98,-510.98 1080.76,-520.44 1085.61,-515.39"/>
</g>
<!-- Metamodel::ParametricRoleHOW&#45;&gt;Metamodel::Naming -->
<g id="edge45" class="edge">
<title>Metamodel::ParametricRoleHOW&#45;&gt;Metamodel::Naming</title>
<path fill="none" stroke="#6666ff" d="M1253.77,-945.5C1198.02,-951.52 1130.82,-958.78 1077.99,-964.49"/>
<polygon fill="#6666ff" stroke="#6666ff" points="1077.53,-961.02 1067.96,-965.57 1078.28,-967.98 1077.53,-961.02"/>
</g>
<!-- Metamodel::ParametricRoleHOW&#45;&gt;Metamodel::Stashing -->
<g id="edge54" class="edge">
<title>Metamodel::ParametricRoleHOW&#45;&gt;Metamodel::Stashing</title>
<path fill="none" stroke="#6666ff" d="M1326.63,-951.32C1236.51,-996.18 997.41,-1115.21 899.27,-1164.07"/>
<polygon fill="#6666ff" stroke="#6666ff" points="897.62,-1160.98 890.23,-1168.57 900.74,-1167.25 897.62,-1160.98"/>
</g>
<!-- Metamodel::ParametricRoleHOW&#45;&gt;Metamodel::AttributeContainer -->
<g id="edge51" class="edge">
<title>Metamodel::ParametricRoleHOW&#45;&gt;Metamodel::AttributeContainer</title>
<path fill="none" stroke="#6666ff" d="M1287.15,-918.5C1210.2,-902.71 1090.5,-878.13 1010.64,-861.73"/>
<polygon fill="#6666ff" stroke="#6666ff" points="1011.12,-858.25 1000.62,-859.67 1009.71,-865.11 1011.12,-858.25"/>
</g>
<!-- Metamodel::ParametricRoleHOW&#45;&gt;Metamodel::MethodContainer -->
<g id="edge48" class="edge">
<title>Metamodel::ParametricRoleHOW&#45;&gt;Metamodel::MethodContainer</title>
<path fill="none" stroke="#6666ff" d="M1333.55,-916.14C1241.49,-858.43 955.84,-679.39 955.84,-679.39 955.84,-679.39 936.66,-625.43 924.48,-591.19"/>
<polygon fill="#6666ff" stroke="#6666ff" points="927.75,-589.94 921.1,-581.69 921.16,-592.29 927.75,-589.94"/>
</g>
<!-- Metamodel::ParametricRoleHOW&#45;&gt;Metamodel::MultiMethodContainer -->
<g id="edge50" class="edge">
<title>Metamodel::ParametricRoleHOW&#45;&gt;Metamodel::MultiMethodContainer</title>
<path fill="none" stroke="#6666ff" d="M1343.62,-915.94C1298.45,-871.43 1180.91,-755.59 1128.98,-704.42"/>
<polygon fill="#6666ff" stroke="#6666ff" points="1131.39,-701.88 1121.81,-697.35 1126.47,-706.86 1131.39,-701.88"/>
</g>
<!-- Metamodel::ParametricRoleHOW&#45;&gt;Metamodel::Versioning -->
<g id="edge47" class="edge">
<title>Metamodel::ParametricRoleHOW&#45;&gt;Metamodel::Versioning</title>
<path fill="none" stroke="#6666ff" d="M1349.99,-951.78C1320.4,-996.91 1242.82,-1115.22 1207.91,-1168.47"/>
<polygon fill="#6666ff" stroke="#6666ff" points="1204.85,-1166.75 1202.29,-1177.03 1210.7,-1170.59 1204.85,-1166.75"/>
</g>
<!-- Metamodel::ParametricRoleHOW&#45;&gt;Metamodel::PrivateMethodContainer -->
<g id="edge49" class="edge">
<title>Metamodel::ParametricRoleHOW&#45;&gt;Metamodel::PrivateMethodContainer</title>
<path fill="none" stroke="#6666ff" d="M1358.87,-952.12C1349.6,-1010.71 1320.59,-1193.93 1309.39,-1264.64"/>
<polygon fill="#6666ff" stroke="#6666ff" points="1305.92,-1264.19 1307.82,-1274.61 1312.84,-1265.28 1305.92,-1264.19"/>
</g>
<!-- Metamodel::ParametricRoleHOW&#45;&gt;Metamodel::MultipleInheritance -->
<g id="edge53" class="edge">
<title>Metamodel::ParametricRoleHOW&#45;&gt;Metamodel::MultipleInheritance</title>
<path fill="none" stroke="#6666ff" d="M1356.92,-952.2C1341.21,-1011.7 1292.78,-1195.19 1292.78,-1195.19 1292.78,-1195.19 1148.64,-1292.77 1148.64,-1292.77 1148.64,-1292.77 1152.35,-1308.79 1155.92,-1324.19"/>
<polygon fill="#6666ff" stroke="#6666ff" points="1152.54,-1325.1 1158.21,-1334.05 1159.36,-1323.52 1152.54,-1325.1"/>
</g>
<!-- Metamodel::ParametricRoleHOW&#45;&gt;Metamodel::Documenting -->
<g id="edge46" class="edge">
<title>Metamodel::ParametricRoleHOW&#45;&gt;Metamodel::Documenting</title>
<path fill="none" stroke="#6666ff" d="M1342.96,-951.78C1281.13,-1010.8 1088.09,-1195.04 1088.09,-1195.04 1088.09,-1195.04 1026.93,-1352.09 1026.93,-1352.09 1026.93,-1352.09 1033.01,-1436.13 1036.28,-1481.42"/>
<polygon fill="#6666ff" stroke="#6666ff" points="1032.8,-1481.78 1037.01,-1491.5 1039.78,-1481.28 1032.8,-1481.78"/>
</g>
<!-- Metamodel::ParametricRoleHOW&#45;&gt;Metamodel::TypePretense -->
<g id="edge55" class="edge">
<title>Metamodel::ParametricRoleHOW&#45;&gt;Metamodel::TypePretense</title>
<path fill="none" stroke="#6666ff" d="M1396.61,-916.32C1479.98,-874.45 1690.78,-768.56 1782.09,-722.7"/>
<polygon fill="#6666ff" stroke="#6666ff" points="1783.7,-725.81 1791.07,-718.19 1780.56,-719.55 1783.7,-725.81"/>
</g>
<!-- Metamodel::ParametricRoleHOW&#45;&gt;Metamodel::RolePunning -->
<g id="edge56" class="edge">
<title>Metamodel::ParametricRoleHOW&#45;&gt;Metamodel::RolePunning</title>
<path fill="none" stroke="#6666ff" d="M1411.62,-950.73C1503.44,-981.88 1698.77,-1048.13 1796.01,-1081.11"/>
<polygon fill="#6666ff" stroke="#6666ff" points="1795.07,-1084.49 1805.67,-1084.39 1797.32,-1077.86 1795.07,-1084.49"/>
</g>
</g>
</svg>
