<?xml version="1.0" encoding="UTF-8" standalone="no"?>
<!DOCTYPE svg PUBLIC "-//W3C//DTD SVG 1.1//EN"
 "http://www.w3.org/Graphics/SVG/1.1/DTD/svg11.dtd">
<!-- Generated by graphviz version 2.43.0 (0)
 -->
<!-- Title: perl6&#45;type&#45;graph Pages: 1 -->
<svg width="1279pt" height="1390pt"
 viewBox="0.00 0.00 1279.02 1389.52" xmlns="http://www.w3.org/2000/svg" xmlns:xlink="http://www.w3.org/1999/xlink">
<g id="graph0" class="graph" transform="scale(1 1) rotate(0) translate(4 1385.52)">
<title>perl6&#45;type&#45;graph</title>
<polygon fill="white" stroke="transparent" points="-4,4 -4,-1385.52 1275.02,-1385.52 1275.02,4 -4,4"/>
<!-- Metamodel::EnumHOW -->
<g id="node1" class="node">
<title>Metamodel::EnumHOW</title>
<g id="a_node1"><a xlink:href="/type/Metamodel::EnumHOW" xlink:title="Metamodel::EnumHOW">
<ellipse fill="none" stroke="#000000" cx="643.7" cy="-895.63" rx="104.78" ry="18"/>
<text text-anchor="middle" x="643.7" y="-891.93" font-family="FreeSans" font-size="14.00" fill="#000000">Metamodel::EnumHOW</text>
</a>
</g>
</g>
<!-- Any -->
<g id="node3" class="node">
<title>Any</title>
<g id="a_node3"><a xlink:href="/type/Any" xlink:title="Any">
<ellipse fill="none" stroke="#000000" cx="869.05" cy="-399.56" rx="27" ry="18"/>
<text text-anchor="middle" x="869.05" y="-395.86" font-family="FreeSans" font-size="14.00" fill="#000000">Any</text>
</a>
</g>
</g>
<!-- Metamodel::EnumHOW&#45;&gt;Any -->
<g id="edge1" class="edge">
<title>Metamodel::EnumHOW&#45;&gt;Any</title>
<path fill="none" stroke="#000000" d="M651.86,-877.68C685.85,-802.84 816.43,-515.39 856.97,-426.14"/>
<polygon fill="#000000" stroke="#000000" points="860.19,-427.52 861.14,-416.97 853.82,-424.62 860.19,-427.52"/>
</g>
<!-- Metamodel::Naming -->
<g id="node4" class="node">
<title>Metamodel::Naming</title>
<g id="a_node4"><a xlink:href="/type/Metamodel::Naming" xlink:title="Metamodel::Naming">
<ellipse fill="none" stroke="#6666ff" cx="391.73" cy="-1301.92" rx="90.18" ry="18"/>
<text text-anchor="middle" x="391.73" y="-1298.22" font-family="FreeSans" font-size="14.00" fill="#6666ff">Metamodel::Naming</text>
</a>
</g>
</g>
<!-- Metamodel::EnumHOW&#45;&gt;Metamodel::Naming -->
<g id="edge3" class="edge">
<title>Metamodel::EnumHOW&#45;&gt;Metamodel::Naming</title>
<path fill="none" stroke="#6666ff" d="M632.55,-913.61C592.56,-978.1 456.17,-1198.02 408.41,-1275.02"/>
<polygon fill="#6666ff" stroke="#6666ff" points="405.33,-1273.34 403.04,-1283.68 411.28,-1277.03 405.33,-1273.34"/>
</g>
<!-- Metamodel::Stashing -->
<g id="node5" class="node">
<title>Metamodel::Stashing</title>
<g id="a_node5"><a xlink:href="/type/Metamodel::Stashing" xlink:title="Metamodel::Stashing">
<ellipse fill="none" stroke="#6666ff" cx="995.44" cy="-1191.01" rx="93.68" ry="18"/>
<text text-anchor="middle" x="995.44" y="-1187.31" font-family="FreeSans" font-size="14.00" fill="#6666ff">Metamodel::Stashing</text>
</a>
</g>
</g>
<!-- Metamodel::EnumHOW&#45;&gt;Metamodel::Stashing -->
<g id="edge4" class="edge">
<title>Metamodel::EnumHOW&#45;&gt;Metamodel::Stashing</title>
<path fill="none" stroke="#6666ff" d="M664.91,-913.44C725.14,-964.02 897.31,-1108.6 966.32,-1166.55"/>
<polygon fill="#6666ff" stroke="#6666ff" points="964.3,-1169.42 974.21,-1173.17 968.8,-1164.06 964.3,-1169.42"/>
</g>
<!-- Metamodel::AttributeContainer -->
<g id="node6" class="node">
<title>Metamodel::AttributeContainer</title>
<g id="a_node6"><a xlink:href="/type/Metamodel::AttributeContainer" xlink:title="Metamodel::AttributeContainer">
<ellipse fill="none" stroke="#6666ff" cx="236.78" cy="-1134.87" rx="129.98" ry="18"/>
<text text-anchor="middle" x="236.78" y="-1131.17" font-family="FreeSans" font-size="14.00" fill="#6666ff">Metamodel::AttributeContainer</text>
</a>
</g>
</g>
<!-- Metamodel::EnumHOW&#45;&gt;Metamodel::AttributeContainer -->
<g id="edge5" class="edge">
<title>Metamodel::EnumHOW&#45;&gt;Metamodel::AttributeContainer</title>
<path fill="none" stroke="#6666ff" d="M614.11,-913.03C541.91,-955.48 356.71,-1064.36 275.7,-1111.98"/>
<polygon fill="#6666ff" stroke="#6666ff" points="273.66,-1109.12 266.81,-1117.21 277.21,-1115.16 273.66,-1109.12"/>
</g>
<!-- Metamodel::MethodContainer -->
<g id="node7" class="node">
<title>Metamodel::MethodContainer</title>
<g id="a_node7"><a xlink:href="/type/Metamodel::MethodContainer" xlink:title="Metamodel::MethodContainer">
<ellipse fill="none" stroke="#6666ff" cx="205.12" cy="-699.11" rx="127.28" ry="18"/>
<text text-anchor="middle" x="205.12" y="-695.41" font-family="FreeSans" font-size="14.00" fill="#6666ff">Metamodel::MethodContainer</text>
</a>
</g>
</g>
<!-- Metamodel::EnumHOW&#45;&gt;Metamodel::MethodContainer -->
<g id="edge6" class="edge">
<title>Metamodel::EnumHOW&#45;&gt;Metamodel::MethodContainer</title>
<path fill="none" stroke="#6666ff" d="M605.93,-878.71C526.14,-842.95 340.58,-759.8 252.79,-720.47"/>
<polygon fill="#6666ff" stroke="#6666ff" points="254.14,-717.24 243.59,-716.34 251.28,-723.63 254.14,-717.24"/>
</g>
<!-- Metamodel::MultiMethodContainer -->
<g id="node8" class="node">
<title>Metamodel::MultiMethodContainer</title>
<g id="a_node8"><a xlink:href="/type/Metamodel::MultiMethodContainer" xlink:title="Metamodel::MultiMethodContainer">
<ellipse fill="none" stroke="#6666ff" cx="1124.78" cy="-772.08" rx="146.47" ry="18"/>
<text text-anchor="middle" x="1124.78" y="-768.38" font-family="FreeSans" font-size="14.00" fill="#6666ff">Metamodel::MultiMethodContainer</text>
</a>
</g>
</g>
<!-- Metamodel::EnumHOW&#45;&gt;Metamodel::MultiMethodContainer -->
<g id="edge7" class="edge">
<title>Metamodel::EnumHOW&#45;&gt;Metamodel::MultiMethodContainer</title>
<path fill="none" stroke="#6666ff" d="M702.21,-880.61C790,-858.06 955.7,-815.51 1051.45,-790.92"/>
<polygon fill="#6666ff" stroke="#6666ff" points="1052.53,-794.25 1061.34,-788.38 1050.79,-787.47 1052.53,-794.25"/>
</g>
<!-- Metamodel::RoleContainer -->
<g id="node9" class="node">
<title>Metamodel::RoleContainer</title>
<g id="a_node9"><a xlink:href="/type/Metamodel::RoleContainer" xlink:title="Metamodel::RoleContainer">
<ellipse fill="none" stroke="#6666ff" cx="335.22" cy="-513.8" rx="115.88" ry="18"/>
<text text-anchor="middle" x="335.22" y="-510.1" font-family="FreeSans" font-size="14.00" fill="#6666ff">Metamodel::RoleContainer</text>
</a>
</g>
</g>
<!-- Metamodel::EnumHOW&#45;&gt;Metamodel::RoleContainer -->
<g id="edge8" class="edge">
<title>Metamodel::EnumHOW&#45;&gt;Metamodel::RoleContainer</title>
<path fill="none" stroke="#6666ff" d="M629.24,-877.73C579.45,-816.1 414.98,-612.53 356.27,-539.86"/>
<polygon fill="#6666ff" stroke="#6666ff" points="358.66,-537.24 349.65,-531.67 353.21,-541.64 358.66,-537.24"/>
</g>
<!-- Metamodel::BaseType -->
<g id="node10" class="node">
<title>Metamodel::BaseType</title>
<g id="a_node10"><a xlink:href="/type/Metamodel::BaseType" xlink:title="Metamodel::BaseType">
<ellipse fill="none" stroke="#6666ff" cx="904.38" cy="-648.29" rx="99.38" ry="18"/>
<text text-anchor="middle" x="904.38" y="-644.59" font-family="FreeSans" font-size="14.00" fill="#6666ff">Metamodel::BaseType</text>
</a>
</g>
</g>
<!-- Metamodel::EnumHOW&#45;&gt;Metamodel::BaseType -->
<g id="edge9" class="edge">
<title>Metamodel::EnumHOW&#45;&gt;Metamodel::BaseType</title>
<path fill="none" stroke="#6666ff" d="M662.45,-877.84C708.18,-834.45 825.56,-723.08 878.18,-673.15"/>
<polygon fill="#6666ff" stroke="#6666ff" points="880.61,-675.67 885.45,-666.25 875.79,-670.59 880.61,-675.67"/>
</g>
<!-- Metamodel::MROBasedMethodDispatch -->
<g id="node11" class="node">
<title>Metamodel::MROBasedMethodDispatch</title>
<g id="a_node11"><a xlink:href="/type/Metamodel::MROBasedMethodDispatch" xlink:title="Metamodel::MROBasedMethodDispatch">
<ellipse fill="none" stroke="#6666ff" cx="552.1" cy="-448.03" rx="169.77" ry="18"/>
<text text-anchor="middle" x="552.1" y="-444.33" font-family="FreeSans" font-size="14.00" fill="#6666ff">Metamodel::MROBasedMethodDispatch</text>
</a>
</g>
</g>
<!-- Metamodel::EnumHOW&#45;&gt;Metamodel::MROBasedMethodDispatch -->
<g id="edge10" class="edge">
<title>Metamodel::EnumHOW&#45;&gt;Metamodel::MROBasedMethodDispatch</title>
<path fill="none" stroke="#6666ff" d="M640,-877.53C625.84,-808.36 575.1,-560.42 557.87,-476.24"/>
<polygon fill="#6666ff" stroke="#6666ff" points="561.28,-475.45 555.85,-466.36 554.43,-476.86 561.28,-475.45"/>
</g>
<!-- Metamodel::MROBasedTypeChecking -->
<g id="node12" class="node">
<title>Metamodel::MROBasedTypeChecking</title>
<g id="a_node12"><a xlink:href="/type/Metamodel::MROBasedTypeChecking" xlink:title="Metamodel::MROBasedTypeChecking">
<ellipse fill="none" stroke="#6666ff" cx="163.14" cy="-920.68" rx="163.27" ry="18"/>
<text text-anchor="middle" x="163.14" y="-916.98" font-family="FreeSans" font-size="14.00" fill="#6666ff">Metamodel::MROBasedTypeChecking</text>
</a>
</g>
</g>
<!-- Metamodel::EnumHOW&#45;&gt;Metamodel::MROBasedTypeChecking -->
<g id="edge11" class="edge">
<title>Metamodel::EnumHOW&#45;&gt;Metamodel::MROBasedTypeChecking</title>
<path fill="none" stroke="#6666ff" d="M543.54,-900.85C479.31,-904.2 394.54,-908.62 321.32,-912.44"/>
<polygon fill="#6666ff" stroke="#6666ff" points="320.88,-908.95 311.07,-912.97 321.24,-915.94 320.88,-908.95"/>
</g>
<!-- Metamodel::BUILDPLAN -->
<g id="node13" class="node">
<title>Metamodel::BUILDPLAN</title>
<g id="a_node13"><a xlink:href="/type/Metamodel::BUILDPLAN" xlink:title="Metamodel::BUILDPLAN">
<ellipse fill="none" stroke="#6666ff" cx="1134.61" cy="-1017.13" rx="109.68" ry="18"/>
<text text-anchor="middle" x="1134.61" y="-1013.43" font-family="FreeSans" font-size="14.00" fill="#6666ff">Metamodel::BUILDPLAN</text>
</a>
</g>
</g>
<!-- Metamodel::EnumHOW&#45;&gt;Metamodel::BUILDPLAN -->
<g id="edge12" class="edge">
<title>Metamodel::EnumHOW&#45;&gt;Metamodel::BUILDPLAN</title>
<path fill="none" stroke="#6666ff" d="M703.9,-910.53C794.89,-933.05 967.11,-975.68 1063.93,-999.64"/>
<polygon fill="#6666ff" stroke="#6666ff" points="1063.37,-1003.11 1073.92,-1002.11 1065.05,-996.31 1063.37,-1003.11"/>
</g>
<!-- Metamodel::BoolificationProtocol -->
<g id="node14" class="node">
<title>Metamodel::BoolificationProtocol</title>
<g id="a_node14"><a xlink:href="/type/Metamodel::BoolificationProtocol" xlink:title="Metamodel::BoolificationProtocol">
<ellipse fill="none" stroke="#6666ff" cx="842.12" cy="-1352.51" rx="139.18" ry="18"/>
<text text-anchor="middle" x="842.12" y="-1348.81" font-family="FreeSans" font-size="14.00" fill="#6666ff">Metamodel::BoolificationProtocol</text>
</a>
</g>
</g>
<!-- Metamodel::EnumHOW&#45;&gt;Metamodel::BoolificationProtocol -->
<g id="edge13" class="edge">
<title>Metamodel::EnumHOW&#45;&gt;Metamodel::BoolificationProtocol</title>
<path fill="none" stroke="#6666ff" d="M651.6,-913.82C682.25,-984.39 793.37,-1240.26 830.19,-1325.02"/>
<polygon fill="#6666ff" stroke="#6666ff" points="827.01,-1326.49 834.2,-1334.27 833.43,-1323.7 827.01,-1326.49"/>
</g>
<!-- Metamodel::Mixins -->
<g id="node15" class="node">
<title>Metamodel::Mixins</title>
<g id="a_node15"><a xlink:href="/type/Metamodel::Mixins" xlink:title="Metamodel::Mixins">
<ellipse fill="none" stroke="#6666ff" cx="609.87" cy="-1363.52" rx="85.29" ry="18"/>
<text text-anchor="middle" x="609.87" y="-1359.82" font-family="FreeSans" font-size="14.00" fill="#6666ff">Metamodel::Mixins</text>
</a>
</g>
</g>
<!-- Metamodel::EnumHOW&#45;&gt;Metamodel::Mixins -->
<g id="edge14" class="edge">
<title>Metamodel::EnumHOW&#45;&gt;Metamodel::Mixins</title>
<path fill="none" stroke="#6666ff" d="M642.4,-913.69C637.23,-985.11 618.2,-1248.27 611.91,-1335.34"/>
<polygon fill="#6666ff" stroke="#6666ff" points="608.4,-1335.29 611.17,-1345.52 615.38,-1335.8 608.4,-1335.29"/>
</g>
<!-- Mu -->
<g id="node2" class="node">
<title>Mu</title>
<g id="a_node2"><a xlink:href="/type/Mu" xlink:title="Mu">
<ellipse fill="none" stroke="#000000" cx="1103.84" cy="-18" rx="27" ry="18"/>
<text text-anchor="middle" x="1103.84" y="-14.3" font-family="FreeSans" font-size="14.00" fill="#000000">Mu</text>
</a>
</g>
</g>
<!-- Any&#45;&gt;Mu -->
<g id="edge2" class="edge">
<title>Any&#45;&gt;Mu</title>
<path fill="none" stroke="#000000" d="M879.44,-382.67C916.64,-322.21 1043.34,-116.32 1088.06,-43.65"/>
<polygon fill="#000000" stroke="#000000" points="1091.31,-45.04 1093.57,-34.69 1085.35,-41.37 1091.31,-45.04"/>
</g>
</g>
</svg>
