<?xml version="1.0" encoding="UTF-8" standalone="no"?>
<!DOCTYPE svg PUBLIC "-//W3C//DTD SVG 1.1//EN"
 "http://www.w3.org/Graphics/SVG/1.1/DTD/svg11.dtd">
<!-- Generated by graphviz version 2.43.0 (0)
 -->
<!-- Title: perl6&#45;type&#45;graph Pages: 1 -->
<svg width="517pt" height="74pt"
 viewBox="0.00 0.00 517.29 74.45" xmlns="http://www.w3.org/2000/svg" xmlns:xlink="http://www.w3.org/1999/xlink">
<g id="graph0" class="graph" transform="scale(1 1) rotate(0) translate(4 70.45)">
<title>perl6&#45;type&#45;graph</title>
<polygon fill="white" stroke="transparent" points="-4,4 -4,-70.45 513.29,-70.45 513.29,4 -4,4"/>
<!-- Metamodel::ContainerDescriptor -->
<g id="node1" class="node">
<title>Metamodel::ContainerDescriptor</title>
<g id="a_node1"><a xlink:href="/type/Metamodel::ContainerDescriptor" xlink:title="Metamodel::ContainerDescriptor">
<ellipse fill="none" stroke="#000000" cx="137.79" cy="-41.44" rx="137.58" ry="18"/>
<text text-anchor="middle" x="137.79" y="-37.74" font-family="FreeSans" font-size="14.00" fill="#000000">Metamodel::ContainerDescriptor</text>
</a>
</g>
</g>
<!-- Any -->
<g id="node3" class="node">
<title>Any</title>
<g id="a_node3"><a xlink:href="/type/Any" xlink:title="Any">
<ellipse fill="none" stroke="#000000" cx="310.59" cy="-18" rx="27" ry="18"/>
<text text-anchor="middle" x="310.59" y="-14.3" font-family="FreeSans" font-size="14.00" fill="#000000">Any</text>
</a>
</g>
</g>
<!-- Metamodel::ContainerDescriptor&#45;&gt;Any -->
<g id="edge1" class="edge">
<title>Metamodel::ContainerDescriptor&#45;&gt;Any</title>
<path fill="none" stroke="#000000" d="M233.54,-28.45C247.87,-26.51 261.86,-24.61 273.9,-22.98"/>
<polygon fill="#000000" stroke="#000000" points="274.49,-26.43 283.93,-21.62 273.55,-19.49 274.49,-26.43"/>
</g>
<!-- Mu -->
<g id="node2" class="node">
<title>Mu</title>
<g id="a_node2"><a xlink:href="/type/Mu" xlink:title="Mu">
<ellipse fill="none" stroke="#000000" cx="482.29" cy="-48.45" rx="27" ry="18"/>
<text text-anchor="middle" x="482.29" y="-44.75" font-family="FreeSans" font-size="14.00" fill="#000000">Mu</text>
</a>
</g>
</g>
<!-- Any&#45;&gt;Mu -->
<g id="edge2" class="edge">
<title>Any&#45;&gt;Mu</title>
<path fill="none" stroke="#000000" d="M337.04,-22.69C366.24,-27.87 413.42,-36.24 446.05,-42.02"/>
<polygon fill="#000000" stroke="#000000" points="445.63,-45.5 456.09,-43.8 446.85,-38.61 445.63,-45.5"/>
</g>
</g>
</svg>
