<?xml version="1.0" encoding="UTF-8" standalone="no"?>
<!DOCTYPE svg PUBLIC "-//W3C//DTD SVG 1.1//EN"
 "http://www.w3.org/Graphics/SVG/1.1/DTD/svg11.dtd">
<!-- Generated by graphviz version 2.43.0 (0)
 -->
<!-- Title: perl6&#45;type&#45;graph Pages: 1 -->
<svg width="860pt" height="905pt"
 viewBox="0.00 0.00 859.94 904.56" xmlns="http://www.w3.org/2000/svg" xmlns:xlink="http://www.w3.org/1999/xlink">
<g id="graph0" class="graph" transform="scale(1 1) rotate(0) translate(4 900.56)">
<title>perl6&#45;type&#45;graph</title>
<polygon fill="white" stroke="transparent" points="-4,4 -4,-900.56 855.94,-900.56 855.94,4 -4,4"/>
<!-- Metamodel::ParametricRoleGroupHOW -->
<g id="node1" class="node">
<title>Metamodel::ParametricRoleGroupHOW</title>
<g id="a_node1"><a xlink:href="/type/Metamodel::ParametricRoleGroupHOW" xlink:title="Metamodel::ParametricRoleGroupHOW">
<ellipse fill="none" stroke="#000000" cx="399.35" cy="-583.08" rx="166.27" ry="18"/>
<text text-anchor="middle" x="399.35" y="-579.38" font-family="FreeSans" font-size="14.00" fill="#000000">Metamodel::ParametricRoleGroupHOW</text>
</a>
</g>
</g>
<!-- Any -->
<g id="node3" class="node">
<title>Any</title>
<g id="a_node3"><a xlink:href="/type/Any" xlink:title="Any">
<ellipse fill="none" stroke="#000000" cx="511.64" cy="-282.9" rx="27" ry="18"/>
<text text-anchor="middle" x="511.64" y="-279.2" font-family="FreeSans" font-size="14.00" fill="#000000">Any</text>
</a>
</g>
</g>
<!-- Metamodel::ParametricRoleGroupHOW&#45;&gt;Any -->
<g id="edge1" class="edge">
<title>Metamodel::ParametricRoleGroupHOW&#45;&gt;Any</title>
<path fill="none" stroke="#000000" d="M406.2,-564.75C425.24,-513.85 478.85,-370.54 501.42,-310.21"/>
<polygon fill="#000000" stroke="#000000" points="504.79,-311.2 505.01,-300.61 498.23,-308.75 504.79,-311.2"/>
</g>
<!-- Metamodel::Naming -->
<g id="node4" class="node">
<title>Metamodel::Naming</title>
<g id="a_node4"><a xlink:href="/type/Metamodel::Naming" xlink:title="Metamodel::Naming">
<ellipse fill="none" stroke="#6666ff" cx="90.34" cy="-656.4" rx="90.18" ry="18"/>
<text text-anchor="middle" x="90.34" y="-652.7" font-family="FreeSans" font-size="14.00" fill="#6666ff">Metamodel::Naming</text>
</a>
</g>
</g>
<!-- Metamodel::ParametricRoleGroupHOW&#45;&gt;Metamodel::Naming -->
<g id="edge3" class="edge">
<title>Metamodel::ParametricRoleGroupHOW&#45;&gt;Metamodel::Naming</title>
<path fill="none" stroke="#6666ff" d="M330,-599.53C278.79,-611.68 209.42,-628.14 158.49,-640.23"/>
<polygon fill="#6666ff" stroke="#6666ff" points="157.49,-636.87 148.56,-642.58 159.1,-643.68 157.49,-636.87"/>
</g>
<!-- Metamodel::Stashing -->
<g id="node5" class="node">
<title>Metamodel::Stashing</title>
<g id="a_node5"><a xlink:href="/type/Metamodel::Stashing" xlink:title="Metamodel::Stashing">
<ellipse fill="none" stroke="#6666ff" cx="584.71" cy="-841.98" rx="93.68" ry="18"/>
<text text-anchor="middle" x="584.71" y="-838.28" font-family="FreeSans" font-size="14.00" fill="#6666ff">Metamodel::Stashing</text>
</a>
</g>
</g>
<!-- Metamodel::ParametricRoleGroupHOW&#45;&gt;Metamodel::Stashing -->
<g id="edge4" class="edge">
<title>Metamodel::ParametricRoleGroupHOW&#45;&gt;Metamodel::Stashing</title>
<path fill="none" stroke="#6666ff" d="M412.38,-601.28C444.63,-646.33 528.26,-763.14 565.89,-815.69"/>
<polygon fill="#6666ff" stroke="#6666ff" points="563.27,-818.05 571.93,-824.14 568.96,-813.97 563.27,-818.05"/>
</g>
<!-- Metamodel::TypePretense -->
<g id="node6" class="node">
<title>Metamodel::TypePretense</title>
<g id="a_node6"><a xlink:href="/type/Metamodel::TypePretense" xlink:title="Metamodel::TypePretense">
<ellipse fill="none" stroke="#6666ff" cx="289.61" cy="-878.56" rx="114.28" ry="18"/>
<text text-anchor="middle" x="289.61" y="-874.86" font-family="FreeSans" font-size="14.00" fill="#6666ff">Metamodel::TypePretense</text>
</a>
</g>
</g>
<!-- Metamodel::ParametricRoleGroupHOW&#45;&gt;Metamodel::TypePretense -->
<g id="edge5" class="edge">
<title>Metamodel::ParametricRoleGroupHOW&#45;&gt;Metamodel::TypePretense</title>
<path fill="none" stroke="#6666ff" d="M392.65,-601.12C374.13,-650.98 322.14,-790.96 299.91,-850.83"/>
<polygon fill="#6666ff" stroke="#6666ff" points="296.56,-849.79 296.36,-860.39 303.12,-852.23 296.56,-849.79"/>
</g>
<!-- Metamodel::RolePunning -->
<g id="node7" class="node">
<title>Metamodel::RolePunning</title>
<g id="a_node7"><a xlink:href="/type/Metamodel::RolePunning" xlink:title="Metamodel::RolePunning">
<ellipse fill="none" stroke="#6666ff" cx="161.54" cy="-377.08" rx="109.68" ry="18"/>
<text text-anchor="middle" x="161.54" y="-373.38" font-family="FreeSans" font-size="14.00" fill="#6666ff">Metamodel::RolePunning</text>
</a>
</g>
</g>
<!-- Metamodel::ParametricRoleGroupHOW&#45;&gt;Metamodel::RolePunning -->
<g id="edge6" class="edge">
<title>Metamodel::ParametricRoleGroupHOW&#45;&gt;Metamodel::RolePunning</title>
<path fill="none" stroke="#6666ff" d="M378.66,-565.16C335.95,-528.16 237.98,-443.3 189.61,-401.4"/>
<polygon fill="#6666ff" stroke="#6666ff" points="191.86,-398.72 182.01,-394.81 187.28,-404.01 191.86,-398.72"/>
</g>
<!-- Metamodel::BoolificationProtocol -->
<g id="node8" class="node">
<title>Metamodel::BoolificationProtocol</title>
<g id="a_node8"><a xlink:href="/type/Metamodel::BoolificationProtocol" xlink:title="Metamodel::BoolificationProtocol">
<ellipse fill="none" stroke="#6666ff" cx="712.85" cy="-586.47" rx="139.18" ry="18"/>
<text text-anchor="middle" x="712.85" y="-582.77" font-family="FreeSans" font-size="14.00" fill="#6666ff">Metamodel::BoolificationProtocol</text>
</a>
</g>
</g>
<!-- Metamodel::ParametricRoleGroupHOW&#45;&gt;Metamodel::BoolificationProtocol -->
<g id="edge7" class="edge">
<title>Metamodel::ParametricRoleGroupHOW&#45;&gt;Metamodel::BoolificationProtocol</title>
<path fill="none" stroke="#6666ff" d="M565.28,-584.88C565.37,-584.88 565.46,-584.88 565.55,-584.88"/>
<polygon fill="#6666ff" stroke="#6666ff" points="564.04,-588.36 574.07,-584.97 564.11,-581.36 564.04,-588.36"/>
</g>
<!-- Mu -->
<g id="node2" class="node">
<title>Mu</title>
<g id="a_node2"><a xlink:href="/type/Mu" xlink:title="Mu">
<ellipse fill="none" stroke="#000000" cx="636.63" cy="-18" rx="27" ry="18"/>
<text text-anchor="middle" x="636.63" y="-14.3" font-family="FreeSans" font-size="14.00" fill="#000000">Mu</text>
</a>
</g>
</g>
<!-- Any&#45;&gt;Mu -->
<g id="edge2" class="edge">
<title>Any&#45;&gt;Mu</title>
<path fill="none" stroke="#000000" d="M519.84,-265.52C541.16,-220.33 598.45,-98.93 624.01,-44.75"/>
<polygon fill="#000000" stroke="#000000" points="627.3,-45.98 628.4,-35.44 620.97,-42.99 627.3,-45.98"/>
</g>
</g>
</svg>
