<?xml version="1.0" encoding="UTF-8" standalone="no"?>
<!DOCTYPE svg PUBLIC "-//W3C//DTD SVG 1.1//EN"
 "http://www.w3.org/Graphics/SVG/1.1/DTD/svg11.dtd">
<!-- Generated by graphviz version 2.43.0 (0)
 -->
<!-- Title: perl6&#45;type&#45;graph Pages: 1 -->
<svg width="1975pt" height="1501pt"
 viewBox="0.00 0.00 1975.26 1500.53" xmlns="http://www.w3.org/2000/svg" xmlns:xlink="http://www.w3.org/1999/xlink">
<g id="graph0" class="graph" transform="scale(1 1) rotate(0) translate(4 1496.53)">
<title>perl6&#45;type&#45;graph</title>
<polygon fill="white" stroke="transparent" points="-4,4 -4,-1496.53 1971.26,-1496.53 1971.26,4 -4,4"/>
<!-- Metamodel::PrivateMethodContainer -->
<g id="node1" class="node">
<title>Metamodel::PrivateMethodContainer</title>
<g id="a_node1"><a xlink:href="/type/Metamodel::PrivateMethodContainer" xlink:title="Metamodel::PrivateMethodContainer">
<ellipse fill="none" stroke="#6666ff" cx="952.84" cy="-983.13" rx="154.87" ry="18"/>
<text text-anchor="middle" x="952.84" y="-979.43" font-family="FreeSans" font-size="14.00" fill="#6666ff">Metamodel::PrivateMethodContainer</text>
</a>
</g>
</g>
<!-- Mu -->
<g id="node2" class="node">
<title>Mu</title>
<g id="a_node2"><a xlink:href="/type/Mu" xlink:title="Mu">
<ellipse fill="none" stroke="#000000" cx="1359.11" cy="-18" rx="27" ry="18"/>
<text text-anchor="middle" x="1359.11" y="-14.3" font-family="FreeSans" font-size="14.00" fill="#000000">Mu</text>
</a>
</g>
</g>
<!-- Any -->
<g id="node3" class="node">
<title>Any</title>
<g id="a_node3"><a xlink:href="/type/Any" xlink:title="Any">
<ellipse fill="none" stroke="#000000" cx="1135.08" cy="-480.15" rx="27" ry="18"/>
<text text-anchor="middle" x="1135.08" y="-476.45" font-family="FreeSans" font-size="14.00" fill="#000000">Any</text>
</a>
</g>
</g>
<!-- Any&#45;&gt;Mu -->
<g id="edge1" class="edge">
<title>Any&#45;&gt;Mu</title>
<path fill="none" stroke="#000000" d="M1143.46,-462.88C1177.42,-392.82 1305.03,-129.57 1346.21,-44.61"/>
<polygon fill="#000000" stroke="#000000" points="1349.36,-46.13 1350.58,-35.61 1343.06,-43.08 1349.36,-46.13"/>
</g>
<!-- Metamodel::Naming -->
<g id="node4" class="node">
<title>Metamodel::Naming</title>
<g id="a_node4"><a xlink:href="/type/Metamodel::Naming" xlink:title="Metamodel::Naming">
<ellipse fill="none" stroke="#6666ff" cx="920.49" cy="-1326.86" rx="90.18" ry="18"/>
<text text-anchor="middle" x="920.49" y="-1323.16" font-family="FreeSans" font-size="14.00" fill="#6666ff">Metamodel::Naming</text>
</a>
</g>
</g>
<!-- Metamodel::Versioning -->
<g id="node5" class="node">
<title>Metamodel::Versioning</title>
<g id="a_node5"><a xlink:href="/type/Metamodel::Versioning" xlink:title="Metamodel::Versioning">
<ellipse fill="none" stroke="#6666ff" cx="1073.35" cy="-1407.03" rx="100.98" ry="18"/>
<text text-anchor="middle" x="1073.35" y="-1403.33" font-family="FreeSans" font-size="14.00" fill="#6666ff">Metamodel::Versioning</text>
</a>
</g>
</g>
<!-- Metamodel::MethodContainer -->
<g id="node6" class="node">
<title>Metamodel::MethodContainer</title>
<g id="a_node6"><a xlink:href="/type/Metamodel::MethodContainer" xlink:title="Metamodel::MethodContainer">
<ellipse fill="none" stroke="#6666ff" cx="898.91" cy="-1153.73" rx="127.28" ry="18"/>
<text text-anchor="middle" x="898.91" y="-1150.03" font-family="FreeSans" font-size="14.00" fill="#6666ff">Metamodel::MethodContainer</text>
</a>
</g>
</g>
<!-- Metamodel::MultiMethodContainer -->
<g id="node7" class="node">
<title>Metamodel::MultiMethodContainer</title>
<g id="a_node7"><a xlink:href="/type/Metamodel::MultiMethodContainer" xlink:title="Metamodel::MultiMethodContainer">
<ellipse fill="none" stroke="#6666ff" cx="814.99" cy="-718.84" rx="146.47" ry="18"/>
<text text-anchor="middle" x="814.99" y="-715.14" font-family="FreeSans" font-size="14.00" fill="#6666ff">Metamodel::MultiMethodContainer</text>
</a>
</g>
</g>
<!-- Metamodel::AttributeContainer -->
<g id="node8" class="node">
<title>Metamodel::AttributeContainer</title>
<g id="a_node8"><a xlink:href="/type/Metamodel::AttributeContainer" xlink:title="Metamodel::AttributeContainer">
<ellipse fill="none" stroke="#6666ff" cx="1217.16" cy="-644.15" rx="129.98" ry="18"/>
<text text-anchor="middle" x="1217.16" y="-640.45" font-family="FreeSans" font-size="14.00" fill="#6666ff">Metamodel::AttributeContainer</text>
</a>
</g>
</g>
<!-- Metamodel::RoleContainer -->
<g id="node9" class="node">
<title>Metamodel::RoleContainer</title>
<g id="a_node9"><a xlink:href="/type/Metamodel::RoleContainer" xlink:title="Metamodel::RoleContainer">
<ellipse fill="none" stroke="#6666ff" cx="942.55" cy="-546.16" rx="115.88" ry="18"/>
<text text-anchor="middle" x="942.55" y="-542.46" font-family="FreeSans" font-size="14.00" fill="#6666ff">Metamodel::RoleContainer</text>
</a>
</g>
</g>
<!-- Metamodel::MultipleInheritance -->
<g id="node10" class="node">
<title>Metamodel::MultipleInheritance</title>
<g id="a_node10"><a xlink:href="/type/Metamodel::MultipleInheritance" xlink:title="Metamodel::MultipleInheritance">
<ellipse fill="none" stroke="#6666ff" cx="1103.23" cy="-748.89" rx="133.78" ry="18"/>
<text text-anchor="middle" x="1103.23" y="-745.19" font-family="FreeSans" font-size="14.00" fill="#6666ff">Metamodel::MultipleInheritance</text>
</a>
</g>
</g>
<!-- Metamodel::ConcreteRoleHOW -->
<g id="node11" class="node">
<title>Metamodel::ConcreteRoleHOW</title>
<g id="a_node11"><a xlink:href="/type/Metamodel::ConcreteRoleHOW" xlink:title="Metamodel::ConcreteRoleHOW">
<ellipse fill="none" stroke="#000000" cx="1344.7" cy="-899.64" rx="135.38" ry="18"/>
<text text-anchor="middle" x="1344.7" y="-895.94" font-family="FreeSans" font-size="14.00" fill="#000000">Metamodel::ConcreteRoleHOW</text>
</a>
</g>
</g>
<!-- Metamodel::ConcreteRoleHOW&#45;&gt;Metamodel::PrivateMethodContainer -->
<g id="edge7" class="edge">
<title>Metamodel::ConcreteRoleHOW&#45;&gt;Metamodel::PrivateMethodContainer</title>
<path fill="none" stroke="#6666ff" d="M1272.83,-914.95C1206.39,-929.11 1107.61,-950.15 1037.4,-965.11"/>
<polygon fill="#6666ff" stroke="#6666ff" points="1036.31,-961.77 1027.26,-967.27 1037.77,-968.61 1036.31,-961.77"/>
</g>
<!-- Metamodel::ConcreteRoleHOW&#45;&gt;Any -->
<g id="edge2" class="edge">
<title>Metamodel::ConcreteRoleHOW&#45;&gt;Any</title>
<path fill="none" stroke="#000000" d="M1344.99,-881.27C1345.92,-822.7 1348.75,-644.21 1348.75,-644.21 1348.75,-644.21 1218.05,-543.85 1161.09,-500.12"/>
<polygon fill="#000000" stroke="#000000" points="1163,-497.17 1152.93,-493.85 1158.73,-502.72 1163,-497.17"/>
</g>
<!-- Metamodel::ConcreteRoleHOW&#45;&gt;Metamodel::Naming -->
<g id="edge5" class="edge">
<title>Metamodel::ConcreteRoleHOW&#45;&gt;Metamodel::Naming</title>
<path fill="none" stroke="#6666ff" d="M1324.71,-917.44C1281.18,-956.22 1181.69,-1044.85 1181.69,-1044.85 1181.69,-1044.85 1008.48,-1231.86 944.16,-1301.3"/>
<polygon fill="#6666ff" stroke="#6666ff" points="941.45,-1299.07 937.23,-1308.79 946.59,-1303.83 941.45,-1299.07"/>
</g>
<!-- Metamodel::ConcreteRoleHOW&#45;&gt;Metamodel::Versioning -->
<g id="edge6" class="edge">
<title>Metamodel::ConcreteRoleHOW&#45;&gt;Metamodel::Versioning</title>
<path fill="none" stroke="#6666ff" d="M1324.71,-917.44C1281.18,-956.22 1181.69,-1044.85 1181.69,-1044.85 1181.69,-1044.85 1017.25,-1303.11 1017.25,-1303.11 1017.25,-1303.11 1042.1,-1349.14 1058.72,-1379.93"/>
<polygon fill="#6666ff" stroke="#6666ff" points="1055.75,-1381.79 1063.58,-1388.93 1061.91,-1378.47 1055.75,-1381.79"/>
</g>
<!-- Metamodel::ConcreteRoleHOW&#45;&gt;Metamodel::MethodContainer -->
<g id="edge8" class="edge">
<title>Metamodel::ConcreteRoleHOW&#45;&gt;Metamodel::MethodContainer</title>
<path fill="none" stroke="#6666ff" d="M1313.71,-917.3C1234.76,-962.3 1026.14,-1081.21 938.53,-1131.14"/>
<polygon fill="#6666ff" stroke="#6666ff" points="936.65,-1128.19 929.7,-1136.18 940.12,-1134.27 936.65,-1128.19"/>
</g>
<!-- Metamodel::ConcreteRoleHOW&#45;&gt;Metamodel::MultiMethodContainer -->
<g id="edge9" class="edge">
<title>Metamodel::ConcreteRoleHOW&#45;&gt;Metamodel::MultiMethodContainer</title>
<path fill="none" stroke="#6666ff" d="M1295.34,-882.79C1197.58,-849.43 979.71,-775.06 874.34,-739.1"/>
<polygon fill="#6666ff" stroke="#6666ff" points="875.4,-735.76 864.8,-735.84 873.14,-742.38 875.4,-735.76"/>
</g>
<!-- Metamodel::ConcreteRoleHOW&#45;&gt;Metamodel::AttributeContainer -->
<g id="edge10" class="edge">
<title>Metamodel::ConcreteRoleHOW&#45;&gt;Metamodel::AttributeContainer</title>
<path fill="none" stroke="#6666ff" d="M1335.73,-881.67C1313.74,-837.62 1257.02,-724.01 1230.81,-671.5"/>
<polygon fill="#6666ff" stroke="#6666ff" points="1233.89,-669.83 1226.29,-662.44 1227.62,-672.95 1233.89,-669.83"/>
</g>
<!-- Metamodel::ConcreteRoleHOW&#45;&gt;Metamodel::RoleContainer -->
<g id="edge11" class="edge">
<title>Metamodel::ConcreteRoleHOW&#45;&gt;Metamodel::RoleContainer</title>
<path fill="none" stroke="#6666ff" d="M1331.92,-881.47C1303.73,-841.41 1238.71,-749.02 1238.71,-749.02 1238.71,-749.02 1054.82,-623.06 976.85,-569.65"/>
<polygon fill="#6666ff" stroke="#6666ff" points="978.55,-566.57 968.32,-563.81 974.59,-572.35 978.55,-566.57"/>
</g>
<!-- Metamodel::ConcreteRoleHOW&#45;&gt;Metamodel::MultipleInheritance -->
<g id="edge12" class="edge">
<title>Metamodel::ConcreteRoleHOW&#45;&gt;Metamodel::MultipleInheritance</title>
<path fill="none" stroke="#6666ff" d="M1316.05,-881.75C1272.18,-854.37 1188.38,-802.05 1140.06,-771.88"/>
<polygon fill="#6666ff" stroke="#6666ff" points="1141.8,-768.84 1131.46,-766.52 1138.09,-774.78 1141.8,-768.84"/>
</g>
<!-- Metamodel::Documenting -->
<g id="node12" class="node">
<title>Metamodel::Documenting</title>
<g id="a_node12"><a xlink:href="/type/Metamodel::Documenting" xlink:title="Metamodel::Documenting">
<ellipse fill="none" stroke="#6666ff" cx="746.87" cy="-1431.87" rx="111.28" ry="18"/>
<text text-anchor="middle" x="746.87" y="-1428.17" font-family="FreeSans" font-size="14.00" fill="#6666ff">Metamodel::Documenting</text>
</a>
</g>
</g>
<!-- Metamodel::Stashing -->
<g id="node13" class="node">
<title>Metamodel::Stashing</title>
<g id="a_node13"><a xlink:href="/type/Metamodel::Stashing" xlink:title="Metamodel::Stashing">
<ellipse fill="none" stroke="#6666ff" cx="1112.44" cy="-1303.15" rx="93.68" ry="18"/>
<text text-anchor="middle" x="1112.44" y="-1299.45" font-family="FreeSans" font-size="14.00" fill="#6666ff">Metamodel::Stashing</text>
</a>
</g>
</g>
<!-- Metamodel::Finalization -->
<g id="node14" class="node">
<title>Metamodel::Finalization</title>
<g id="a_node14"><a xlink:href="/type/Metamodel::Finalization" xlink:title="Metamodel::Finalization">
<ellipse fill="none" stroke="#6666ff" cx="409.43" cy="-1474.53" rx="103.98" ry="18"/>
<text text-anchor="middle" x="409.43" y="-1470.83" font-family="FreeSans" font-size="14.00" fill="#6666ff">Metamodel::Finalization</text>
</a>
</g>
</g>
<!-- Metamodel::DefaultParent -->
<g id="node15" class="node">
<title>Metamodel::DefaultParent</title>
<g id="a_node15"><a xlink:href="/type/Metamodel::DefaultParent" xlink:title="Metamodel::DefaultParent">
<ellipse fill="none" stroke="#6666ff" cx="271.32" cy="-1341.45" rx="113.18" ry="18"/>
<text text-anchor="middle" x="271.32" y="-1337.75" font-family="FreeSans" font-size="14.00" fill="#6666ff">Metamodel::DefaultParent</text>
</a>
</g>
</g>
<!-- Metamodel::C3MRO -->
<g id="node16" class="node">
<title>Metamodel::C3MRO</title>
<g id="a_node16"><a xlink:href="/type/Metamodel::C3MRO" xlink:title="Metamodel::C3MRO">
<ellipse fill="none" stroke="#6666ff" cx="390.94" cy="-396.7" rx="92.08" ry="18"/>
<text text-anchor="middle" x="390.94" y="-393" font-family="FreeSans" font-size="14.00" fill="#6666ff">Metamodel::C3MRO</text>
</a>
</g>
</g>
<!-- Metamodel::MROBasedMethodDispatch -->
<g id="node17" class="node">
<title>Metamodel::MROBasedMethodDispatch</title>
<g id="a_node17"><a xlink:href="/type/Metamodel::MROBasedMethodDispatch" xlink:title="Metamodel::MROBasedMethodDispatch">
<ellipse fill="none" stroke="#6666ff" cx="559.74" cy="-316.61" rx="169.77" ry="18"/>
<text text-anchor="middle" x="559.74" y="-312.91" font-family="FreeSans" font-size="14.00" fill="#6666ff">Metamodel::MROBasedMethodDispatch</text>
</a>
</g>
</g>
<!-- Metamodel::MROBasedTypeChecking -->
<g id="node18" class="node">
<title>Metamodel::MROBasedTypeChecking</title>
<g id="a_node18"><a xlink:href="/type/Metamodel::MROBasedTypeChecking" xlink:title="Metamodel::MROBasedTypeChecking">
<ellipse fill="none" stroke="#6666ff" cx="167.14" cy="-1192.21" rx="163.27" ry="18"/>
<text text-anchor="middle" x="167.14" y="-1188.51" font-family="FreeSans" font-size="14.00" fill="#6666ff">Metamodel::MROBasedTypeChecking</text>
</a>
</g>
</g>
<!-- Metamodel::Trusting -->
<g id="node19" class="node">
<title>Metamodel::Trusting</title>
<g id="a_node19"><a xlink:href="/type/Metamodel::Trusting" xlink:title="Metamodel::Trusting">
<ellipse fill="none" stroke="#6666ff" cx="106.13" cy="-838.97" rx="91.78" ry="18"/>
<text text-anchor="middle" x="106.13" y="-835.27" font-family="FreeSans" font-size="14.00" fill="#6666ff">Metamodel::Trusting</text>
</a>
</g>
</g>
<!-- Metamodel::BUILDPLAN -->
<g id="node20" class="node">
<title>Metamodel::BUILDPLAN</title>
<g id="a_node20"><a xlink:href="/type/Metamodel::BUILDPLAN" xlink:title="Metamodel::BUILDPLAN">
<ellipse fill="none" stroke="#6666ff" cx="109.84" cy="-1020.25" rx="109.68" ry="18"/>
<text text-anchor="middle" x="109.84" y="-1016.55" font-family="FreeSans" font-size="14.00" fill="#6666ff">Metamodel::BUILDPLAN</text>
</a>
</g>
</g>
<!-- Metamodel::Mixins -->
<g id="node21" class="node">
<title>Metamodel::Mixins</title>
<g id="a_node21"><a xlink:href="/type/Metamodel::Mixins" xlink:title="Metamodel::Mixins">
<ellipse fill="none" stroke="#6666ff" cx="155.71" cy="-665.06" rx="85.29" ry="18"/>
<text text-anchor="middle" x="155.71" y="-661.36" font-family="FreeSans" font-size="14.00" fill="#6666ff">Metamodel::Mixins</text>
</a>
</g>
</g>
<!-- Metamodel::BoolificationProtocol -->
<g id="node22" class="node">
<title>Metamodel::BoolificationProtocol</title>
<g id="a_node22"><a xlink:href="/type/Metamodel::BoolificationProtocol" xlink:title="Metamodel::BoolificationProtocol">
<ellipse fill="none" stroke="#6666ff" cx="253.86" cy="-513.9" rx="139.18" ry="18"/>
<text text-anchor="middle" x="253.86" y="-510.2" font-family="FreeSans" font-size="14.00" fill="#6666ff">Metamodel::BoolificationProtocol</text>
</a>
</g>
</g>
<!-- Metamodel::ClassHOW -->
<g id="node23" class="node">
<title>Metamodel::ClassHOW</title>
<g id="a_node23"><a xlink:href="/type/Metamodel::ClassHOW" xlink:title="Metamodel::ClassHOW">
<ellipse fill="none" stroke="#000000" cx="608.42" cy="-912.76" rx="103.18" ry="18"/>
<text text-anchor="middle" x="608.42" y="-909.06" font-family="FreeSans" font-size="14.00" fill="#000000">Metamodel::ClassHOW</text>
</a>
</g>
</g>
<!-- Metamodel::ClassHOW&#45;&gt;Metamodel::PrivateMethodContainer -->
<g id="edge20" class="edge">
<title>Metamodel::ClassHOW&#45;&gt;Metamodel::PrivateMethodContainer</title>
<path fill="none" stroke="#6666ff" d="M675.64,-926.49C730.05,-937.61 807.07,-953.34 866.12,-965.41"/>
<polygon fill="#6666ff" stroke="#6666ff" points="865.68,-968.89 876.18,-967.46 867.08,-962.03 865.68,-968.89"/>
</g>
<!-- Metamodel::ClassHOW&#45;&gt;Any -->
<g id="edge3" class="edge">
<title>Metamodel::ClassHOW&#45;&gt;Any</title>
<path fill="none" stroke="#000000" d="M639.87,-895.56C726.6,-848.15 962.82,-719.02 962.82,-719.02 962.82,-719.02 1073.2,-565.96 1117.25,-504.88"/>
<polygon fill="#000000" stroke="#000000" points="1120.23,-506.73 1123.24,-496.57 1114.56,-502.63 1120.23,-506.73"/>
</g>
<!-- Metamodel::ClassHOW&#45;&gt;Metamodel::Naming -->
<g id="edge13" class="edge">
<title>Metamodel::ClassHOW&#45;&gt;Metamodel::Naming</title>
<path fill="none" stroke="#6666ff" d="M620.56,-930.86C658.12,-986.89 769.92,-1153.67 769.92,-1153.67 769.92,-1153.67 856.2,-1252.91 898.14,-1301.15"/>
<polygon fill="#6666ff" stroke="#6666ff" points="895.74,-1303.73 904.94,-1308.98 901.02,-1299.13 895.74,-1303.73"/>
</g>
<!-- Metamodel::ClassHOW&#45;&gt;Metamodel::Versioning -->
<g id="edge15" class="edge">
<title>Metamodel::ClassHOW&#45;&gt;Metamodel::Versioning</title>
<path fill="none" stroke="#6666ff" d="M620.56,-930.86C658.12,-986.89 769.92,-1153.67 769.92,-1153.67 769.92,-1153.67 1012.43,-1326.97 1012.43,-1326.97 1012.43,-1326.97 1035.53,-1357.33 1053.28,-1380.66"/>
<polygon fill="#6666ff" stroke="#6666ff" points="1050.68,-1383.03 1059.53,-1388.86 1056.26,-1378.79 1050.68,-1383.03"/>
</g>
<!-- Metamodel::ClassHOW&#45;&gt;Metamodel::MethodContainer -->
<g id="edge19" class="edge">
<title>Metamodel::ClassHOW&#45;&gt;Metamodel::MethodContainer</title>
<path fill="none" stroke="#6666ff" d="M629.78,-930.47C681.09,-973.04 811.34,-1081.08 869.77,-1129.55"/>
<polygon fill="#6666ff" stroke="#6666ff" points="867.59,-1132.29 877.52,-1135.98 872.06,-1126.9 867.59,-1132.29"/>
</g>
<!-- Metamodel::ClassHOW&#45;&gt;Metamodel::MultiMethodContainer -->
<g id="edge21" class="edge">
<title>Metamodel::ClassHOW&#45;&gt;Metamodel::MultiMethodContainer</title>
<path fill="none" stroke="#6666ff" d="M627.48,-894.86C664.53,-860.08 746.31,-783.32 788.56,-743.65"/>
<polygon fill="#6666ff" stroke="#6666ff" points="791.08,-746.09 795.97,-736.69 786.29,-740.99 791.08,-746.09"/>
</g>
<!-- Metamodel::ClassHOW&#45;&gt;Metamodel::AttributeContainer -->
<g id="edge17" class="edge">
<title>Metamodel::ClassHOW&#45;&gt;Metamodel::AttributeContainer</title>
<path fill="none" stroke="#6666ff" d="M645.52,-895.82C737.32,-853.92 967.74,-748.76 967.74,-748.76 967.74,-748.76 1093.91,-695.85 1166.78,-665.29"/>
<polygon fill="#6666ff" stroke="#6666ff" points="1168.38,-668.41 1176.25,-661.31 1165.68,-661.95 1168.38,-668.41"/>
</g>
<!-- Metamodel::ClassHOW&#45;&gt;Metamodel::RoleContainer -->
<g id="edge22" class="edge">
<title>Metamodel::ClassHOW&#45;&gt;Metamodel::RoleContainer</title>
<path fill="none" stroke="#6666ff" d="M613.94,-894.5C628.57,-846.18 667.16,-718.66 667.16,-718.66 667.16,-718.66 831.03,-616.02 905.95,-569.09"/>
<polygon fill="#6666ff" stroke="#6666ff" points="908.02,-571.93 914.63,-563.65 904.3,-565.99 908.02,-571.93"/>
</g>
<!-- Metamodel::ClassHOW&#45;&gt;Metamodel::MultipleInheritance -->
<g id="edge23" class="edge">
<title>Metamodel::ClassHOW&#45;&gt;Metamodel::MultipleInheritance</title>
<path fill="none" stroke="#6666ff" d="M656.76,-896.74C747.72,-866.62 944.06,-801.6 1043.26,-768.75"/>
<polygon fill="#6666ff" stroke="#6666ff" points="1044.45,-772.04 1052.84,-765.57 1042.25,-765.4 1044.45,-772.04"/>
</g>
<!-- Metamodel::ClassHOW&#45;&gt;Metamodel::Documenting -->
<g id="edge14" class="edge">
<title>Metamodel::ClassHOW&#45;&gt;Metamodel::Documenting</title>
<path fill="none" stroke="#6666ff" d="M613.26,-930.93C633.89,-1008.25 714.43,-1310.23 739.43,-1403.96"/>
<polygon fill="#6666ff" stroke="#6666ff" points="736.11,-1405.09 742.06,-1413.85 742.87,-1403.28 736.11,-1405.09"/>
</g>
<!-- Metamodel::ClassHOW&#45;&gt;Metamodel::Stashing -->
<g id="edge16" class="edge">
<title>Metamodel::ClassHOW&#45;&gt;Metamodel::Stashing</title>
<path fill="none" stroke="#6666ff" d="M638.58,-930.09C734.77,-985.35 1027.9,-1153.78 1027.9,-1153.78 1027.9,-1153.78 1072.91,-1233.3 1097.25,-1276.3"/>
<polygon fill="#6666ff" stroke="#6666ff" points="1094.27,-1278.15 1102.24,-1285.13 1100.36,-1274.7 1094.27,-1278.15"/>
</g>
<!-- Metamodel::ClassHOW&#45;&gt;Metamodel::Finalization -->
<g id="edge18" class="edge">
<title>Metamodel::ClassHOW&#45;&gt;Metamodel::Finalization</title>
<path fill="none" stroke="#6666ff" d="M602.02,-930.81C573.08,-1012.52 454.24,-1348.02 419.2,-1446.95"/>
<polygon fill="#6666ff" stroke="#6666ff" points="415.84,-1445.95 415.8,-1456.54 422.44,-1448.28 415.84,-1445.95"/>
</g>
<!-- Metamodel::ClassHOW&#45;&gt;Metamodel::DefaultParent -->
<g id="edge24" class="edge">
<title>Metamodel::ClassHOW&#45;&gt;Metamodel::DefaultParent</title>
<path fill="none" stroke="#6666ff" d="M594.36,-930.63C541.46,-997.9 354.2,-1236.05 291.76,-1315.46"/>
<polygon fill="#6666ff" stroke="#6666ff" points="288.87,-1313.47 285.44,-1323.49 294.37,-1317.8 288.87,-1313.47"/>
</g>
<!-- Metamodel::ClassHOW&#45;&gt;Metamodel::C3MRO -->
<g id="edge25" class="edge">
<title>Metamodel::ClassHOW&#45;&gt;Metamodel::C3MRO</title>
<path fill="none" stroke="#6666ff" d="M600.8,-894.69C568.38,-817.75 441.67,-517.08 402.53,-424.19"/>
<polygon fill="#6666ff" stroke="#6666ff" points="405.71,-422.74 398.6,-414.88 399.26,-425.46 405.71,-422.74"/>
</g>
<!-- Metamodel::ClassHOW&#45;&gt;Metamodel::MROBasedMethodDispatch -->
<g id="edge26" class="edge">
<title>Metamodel::ClassHOW&#45;&gt;Metamodel::MROBasedMethodDispatch</title>
<path fill="none" stroke="#6666ff" d="M606.93,-894.59C599.97,-809.31 570.51,-448.5 562.03,-344.67"/>
<polygon fill="#6666ff" stroke="#6666ff" points="565.52,-344.32 561.22,-334.63 558.54,-344.89 565.52,-344.32"/>
</g>
<!-- Metamodel::ClassHOW&#45;&gt;Metamodel::MROBasedTypeChecking -->
<g id="edge27" class="edge">
<title>Metamodel::ClassHOW&#45;&gt;Metamodel::MROBasedTypeChecking</title>
<path fill="none" stroke="#6666ff" d="M580.81,-930.24C504.45,-978.59 290.37,-1114.17 203.98,-1168.88"/>
<polygon fill="#6666ff" stroke="#6666ff" points="201.87,-1166.07 195.3,-1174.38 205.62,-1171.98 201.87,-1166.07"/>
</g>
<!-- Metamodel::ClassHOW&#45;&gt;Metamodel::Trusting -->
<g id="edge28" class="edge">
<title>Metamodel::ClassHOW&#45;&gt;Metamodel::Trusting</title>
<path fill="none" stroke="#6666ff" d="M529.38,-901.14C436.89,-887.56 284.38,-865.15 189.89,-851.27"/>
<polygon fill="#6666ff" stroke="#6666ff" points="190.2,-847.78 179.8,-849.79 189.19,-854.71 190.2,-847.78"/>
</g>
<!-- Metamodel::ClassHOW&#45;&gt;Metamodel::BUILDPLAN -->
<g id="edge29" class="edge">
<title>Metamodel::ClassHOW&#45;&gt;Metamodel::BUILDPLAN</title>
<path fill="none" stroke="#6666ff" d="M543.24,-926.81C451.37,-946.62 284.13,-982.67 186.44,-1003.73"/>
<polygon fill="#6666ff" stroke="#6666ff" points="185.67,-1000.32 176.63,-1005.85 187.14,-1007.16 185.67,-1000.32"/>
</g>
<!-- Metamodel::ClassHOW&#45;&gt;Metamodel::Mixins -->
<g id="edge30" class="edge">
<title>Metamodel::ClassHOW&#45;&gt;Metamodel::Mixins</title>
<path fill="none" stroke="#6666ff" d="M576.94,-895.53C496.67,-851.61 284.4,-735.47 195.63,-686.9"/>
<polygon fill="#6666ff" stroke="#6666ff" points="197.13,-683.73 186.68,-682 193.77,-689.87 197.13,-683.73"/>
</g>
<!-- Metamodel::ClassHOW&#45;&gt;Metamodel::BoolificationProtocol -->
<g id="edge31" class="edge">
<title>Metamodel::ClassHOW&#45;&gt;Metamodel::BoolificationProtocol</title>
<path fill="none" stroke="#6666ff" d="M592.49,-894.84C535.81,-831.07 343.67,-614.93 276.93,-539.85"/>
<polygon fill="#6666ff" stroke="#6666ff" points="279.41,-537.36 270.15,-532.22 274.18,-542.02 279.41,-537.36"/>
</g>
<!-- Metamodel::TypePretense -->
<g id="node24" class="node">
<title>Metamodel::TypePretense</title>
<g id="a_node24"><a xlink:href="/type/Metamodel::TypePretense" xlink:title="Metamodel::TypePretense">
<ellipse fill="none" stroke="#6666ff" cx="1852.87" cy="-949.43" rx="114.28" ry="18"/>
<text text-anchor="middle" x="1852.87" y="-945.73" font-family="FreeSans" font-size="14.00" fill="#6666ff">Metamodel::TypePretense</text>
</a>
</g>
</g>
<!-- Metamodel::RolePunning -->
<g id="node25" class="node">
<title>Metamodel::RolePunning</title>
<g id="a_node25"><a xlink:href="/type/Metamodel::RolePunning" xlink:title="Metamodel::RolePunning">
<ellipse fill="none" stroke="#6666ff" cx="1755.06" cy="-1362.21" rx="109.68" ry="18"/>
<text text-anchor="middle" x="1755.06" y="-1358.51" font-family="FreeSans" font-size="14.00" fill="#6666ff">Metamodel::RolePunning</text>
</a>
</g>
</g>
<!-- Metamodel::ParametricRoleHOW -->
<g id="node26" class="node">
<title>Metamodel::ParametricRoleHOW</title>
<g id="a_node26"><a xlink:href="/type/Metamodel::ParametricRoleHOW" xlink:title="Metamodel::ParametricRoleHOW">
<ellipse fill="none" stroke="#000000" cx="1324.97" cy="-1044.97" rx="141.88" ry="18"/>
<text text-anchor="middle" x="1324.97" y="-1041.27" font-family="FreeSans" font-size="14.00" fill="#000000">Metamodel::ParametricRoleHOW</text>
</a>
</g>
</g>
<!-- Metamodel::ParametricRoleHOW&#45;&gt;Metamodel::PrivateMethodContainer -->
<g id="edge36" class="edge">
<title>Metamodel::ParametricRoleHOW&#45;&gt;Metamodel::PrivateMethodContainer</title>
<path fill="none" stroke="#6666ff" d="M1238.66,-1030.63C1182.75,-1021.33 1109.76,-1009.21 1051.54,-999.53"/>
<polygon fill="#6666ff" stroke="#6666ff" points="1052.03,-996.06 1041.59,-997.88 1050.88,-1002.97 1052.03,-996.06"/>
</g>
<!-- Metamodel::ParametricRoleHOW&#45;&gt;Any -->
<g id="edge4" class="edge">
<title>Metamodel::ParametricRoleHOW&#45;&gt;Any</title>
<path fill="none" stroke="#000000" d="M1310.39,-1026.84C1279.01,-987.85 1207.91,-899.53 1207.91,-899.53 1207.91,-899.53 1238.71,-749.02 1238.71,-749.02 1238.71,-749.02 1085.57,-644.1 1085.57,-644.1 1085.57,-644.1 1112.61,-554.56 1126.73,-507.82"/>
<polygon fill="#000000" stroke="#000000" points="1130.15,-508.59 1129.69,-498.01 1123.45,-506.57 1130.15,-508.59"/>
</g>
<!-- Metamodel::ParametricRoleHOW&#45;&gt;Metamodel::Naming -->
<g id="edge32" class="edge">
<title>Metamodel::ParametricRoleHOW&#45;&gt;Metamodel::Naming</title>
<path fill="none" stroke="#6666ff" d="M1299.37,-1062.82C1229.05,-1111.82 1033,-1248.45 954.06,-1303.46"/>
<polygon fill="#6666ff" stroke="#6666ff" points="951.67,-1300.86 945.47,-1309.45 955.67,-1306.6 951.67,-1300.86"/>
</g>
<!-- Metamodel::ParametricRoleHOW&#45;&gt;Metamodel::Versioning -->
<g id="edge34" class="edge">
<title>Metamodel::ParametricRoleHOW&#45;&gt;Metamodel::Versioning</title>
<path fill="none" stroke="#6666ff" d="M1316.72,-1063.13C1290.01,-1121.9 1207.63,-1303.19 1207.63,-1303.19 1207.63,-1303.19 1143.84,-1352.52 1104.19,-1383.18"/>
<polygon fill="#6666ff" stroke="#6666ff" points="1101.9,-1380.53 1096.13,-1389.42 1106.18,-1386.07 1101.9,-1380.53"/>
</g>
<!-- Metamodel::ParametricRoleHOW&#45;&gt;Metamodel::MethodContainer -->
<g id="edge35" class="edge">
<title>Metamodel::ParametricRoleHOW&#45;&gt;Metamodel::MethodContainer</title>
<path fill="none" stroke="#6666ff" d="M1261.65,-1061.13C1183.95,-1080.97 1052.54,-1114.51 971.03,-1135.32"/>
<polygon fill="#6666ff" stroke="#6666ff" points="969.68,-1132.05 960.85,-1137.92 971.41,-1138.83 969.68,-1132.05"/>
</g>
<!-- Metamodel::ParametricRoleHOW&#45;&gt;Metamodel::MultiMethodContainer -->
<g id="edge37" class="edge">
<title>Metamodel::ParametricRoleHOW&#45;&gt;Metamodel::MultiMethodContainer</title>
<path fill="none" stroke="#6666ff" d="M1297.19,-1027.2C1211.02,-972.1 948.27,-804.07 851.38,-742.11"/>
<polygon fill="#6666ff" stroke="#6666ff" points="853.11,-739.06 842.8,-736.62 849.34,-744.96 853.11,-739.06"/>
</g>
<!-- Metamodel::ParametricRoleHOW&#45;&gt;Metamodel::AttributeContainer -->
<g id="edge38" class="edge">
<title>Metamodel::ParametricRoleHOW&#45;&gt;Metamodel::AttributeContainer</title>
<path fill="none" stroke="#6666ff" d="M1310.39,-1026.84C1279.01,-987.85 1207.91,-899.53 1207.91,-899.53 1207.91,-899.53 1238.71,-749.02 1238.71,-749.02 1238.71,-749.02 1229.33,-703.37 1222.95,-672.31"/>
<polygon fill="#6666ff" stroke="#6666ff" points="1226.35,-671.51 1220.91,-662.42 1219.5,-672.92 1226.35,-671.51"/>
</g>
<!-- Metamodel::ParametricRoleHOW&#45;&gt;Metamodel::RoleContainer -->
<g id="edge39" class="edge">
<title>Metamodel::ParametricRoleHOW&#45;&gt;Metamodel::RoleContainer</title>
<path fill="none" stroke="#6666ff" d="M1303.43,-1027.11C1226.2,-963.07 967.74,-748.76 967.74,-748.76 967.74,-748.76 953,-630.15 946.07,-574.44"/>
<polygon fill="#6666ff" stroke="#6666ff" points="949.54,-573.99 944.83,-564.5 942.59,-574.85 949.54,-573.99"/>
</g>
<!-- Metamodel::ParametricRoleHOW&#45;&gt;Metamodel::MultipleInheritance -->
<g id="edge40" class="edge">
<title>Metamodel::ParametricRoleHOW&#45;&gt;Metamodel::MultipleInheritance</title>
<path fill="none" stroke="#6666ff" d="M1310.39,-1026.84C1279.01,-987.85 1207.91,-899.53 1207.91,-899.53 1207.91,-899.53 1151.71,-818.65 1121.66,-775.42"/>
<polygon fill="#6666ff" stroke="#6666ff" points="1124.44,-773.27 1115.85,-767.06 1118.69,-777.27 1124.44,-773.27"/>
</g>
<!-- Metamodel::ParametricRoleHOW&#45;&gt;Metamodel::Documenting -->
<g id="edge33" class="edge">
<title>Metamodel::ParametricRoleHOW&#45;&gt;Metamodel::Documenting</title>
<path fill="none" stroke="#6666ff" d="M1293.92,-1062.6C1185.24,-1124.28 828.55,-1326.75 828.55,-1326.75 828.55,-1326.75 791.43,-1374.52 767.24,-1405.66"/>
<polygon fill="#6666ff" stroke="#6666ff" points="764.47,-1403.51 761.1,-1413.56 770,-1407.81 764.47,-1403.51"/>
</g>
<!-- Metamodel::ParametricRoleHOW&#45;&gt;Metamodel::Stashing -->
<g id="edge41" class="edge">
<title>Metamodel::ParametricRoleHOW&#45;&gt;Metamodel::Stashing</title>
<path fill="none" stroke="#6666ff" d="M1310.03,-1063.12C1272.9,-1108.23 1176.37,-1225.49 1133.49,-1277.58"/>
<polygon fill="#6666ff" stroke="#6666ff" points="1130.74,-1275.41 1127.09,-1285.35 1136.15,-1279.86 1130.74,-1275.41"/>
</g>
<!-- Metamodel::ParametricRoleHOW&#45;&gt;Metamodel::TypePretense -->
<g id="edge42" class="edge">
<title>Metamodel::ParametricRoleHOW&#45;&gt;Metamodel::TypePretense</title>
<path fill="none" stroke="#6666ff" d="M1406.59,-1030.2C1504.52,-1012.47 1667.94,-982.9 1767.51,-964.88"/>
<polygon fill="#6666ff" stroke="#6666ff" points="1768.32,-968.29 1777.53,-963.06 1767.07,-961.4 1768.32,-968.29"/>
</g>
<!-- Metamodel::ParametricRoleHOW&#45;&gt;Metamodel::RolePunning -->
<g id="edge43" class="edge">
<title>Metamodel::ParametricRoleHOW&#45;&gt;Metamodel::RolePunning</title>
<path fill="none" stroke="#6666ff" d="M1349.33,-1062.93C1422.53,-1116.93 1640.56,-1277.76 1723,-1338.57"/>
<polygon fill="#6666ff" stroke="#6666ff" points="1721.11,-1341.52 1731.24,-1344.64 1725.27,-1335.89 1721.11,-1341.52"/>
</g>
</g>
</svg>
