<?xml version="1.0" encoding="UTF-8" standalone="no"?>
<!DOCTYPE svg PUBLIC "-//W3C//DTD SVG 1.1//EN"
 "http://www.w3.org/Graphics/SVG/1.1/DTD/svg11.dtd">
<!-- Generated by graphviz version 2.43.0 (0)
 -->
<!-- Title: perl6&#45;type&#45;graph Pages: 1 -->
<svg width="414pt" height="68pt"
 viewBox="0.00 0.00 414.16 68.38" xmlns="http://www.w3.org/2000/svg" xmlns:xlink="http://www.w3.org/1999/xlink">
<g id="graph0" class="graph" transform="scale(1 1) rotate(0) translate(4 64.38)">
<title>perl6&#45;type&#45;graph</title>
<polygon fill="white" stroke="transparent" points="-4,4 -4,-64.38 410.16,-64.38 410.16,4 -4,4"/>
<!-- Metamodel::Archetypes -->
<g id="node1" class="node">
<title>Metamodel::Archetypes</title>
<g id="a_node1"><a xlink:href="/type/Metamodel::Archetypes" xlink:title="Metamodel::Archetypes">
<ellipse fill="none" stroke="#000000" cx="103.34" cy="-36.77" rx="103.18" ry="18"/>
<text text-anchor="middle" x="103.34" y="-33.07" font-family="FreeSans" font-size="14.00" fill="#000000">Metamodel::Archetypes</text>
</a>
</g>
</g>
<!-- Any -->
<g id="node3" class="node">
<title>Any</title>
<g id="a_node3"><a xlink:href="/type/Any" xlink:title="Any">
<ellipse fill="none" stroke="#000000" cx="241.7" cy="-18" rx="27" ry="18"/>
<text text-anchor="middle" x="241.7" y="-14.3" font-family="FreeSans" font-size="14.00" fill="#000000">Any</text>
</a>
</g>
</g>
<!-- Metamodel::Archetypes&#45;&gt;Any -->
<g id="edge1" class="edge">
<title>Metamodel::Archetypes&#45;&gt;Any</title>
<path fill="none" stroke="#000000" d="M185.02,-25.69C191.92,-24.75 198.64,-23.84 204.91,-22.99"/>
<polygon fill="#000000" stroke="#000000" points="205.53,-26.44 214.97,-21.63 204.59,-19.5 205.53,-26.44"/>
</g>
<!-- Mu -->
<g id="node2" class="node">
<title>Mu</title>
<g id="a_node2"><a xlink:href="/type/Mu" xlink:title="Mu">
<ellipse fill="none" stroke="#000000" cx="379.16" cy="-42.38" rx="27" ry="18"/>
<text text-anchor="middle" x="379.16" y="-38.68" font-family="FreeSans" font-size="14.00" fill="#000000">Mu</text>
</a>
</g>
</g>
<!-- Any&#45;&gt;Mu -->
<g id="edge2" class="edge">
<title>Any&#45;&gt;Mu</title>
<path fill="none" stroke="#000000" d="M267.88,-22.64C289.05,-26.4 319.1,-31.73 342.64,-35.9"/>
<polygon fill="#000000" stroke="#000000" points="342.15,-39.37 352.61,-37.67 343.38,-32.48 342.15,-39.37"/>
</g>
</g>
</svg>
