<?xml version="1.0" encoding="UTF-8" standalone="no"?>
<!DOCTYPE svg PUBLIC "-//W3C//DTD SVG 1.1//EN"
 "http://www.w3.org/Graphics/SVG/1.1/DTD/svg11.dtd">
<!-- Generated by graphviz version 2.43.0 (0)
 -->
<!-- Title: perl6&#45;type&#45;graph Pages: 1 -->
<svg width="741pt" height="701pt"
 viewBox="0.00 0.00 740.66 700.76" xmlns="http://www.w3.org/2000/svg" xmlns:xlink="http://www.w3.org/1999/xlink">
<g id="graph0" class="graph" transform="scale(1 1) rotate(0) translate(4 696.76)">
<title>perl6&#45;type&#45;graph</title>
<polygon fill="white" stroke="transparent" points="-4,4 -4,-696.76 736.66,-696.76 736.66,4 -4,4"/>
<!-- Metamodel::ModuleHOW -->
<g id="node1" class="node">
<title>Metamodel::ModuleHOW</title>
<g id="a_node1"><a xlink:href="/type/Metamodel::ModuleHOW" xlink:title="Metamodel::ModuleHOW">
<ellipse fill="none" stroke="#000000" cx="347.49" cy="-411.87" rx="110.48" ry="18"/>
<text text-anchor="middle" x="347.49" y="-408.17" font-family="FreeSans" font-size="14.00" fill="#000000">Metamodel::ModuleHOW</text>
</a>
</g>
</g>
<!-- Any -->
<g id="node3" class="node">
<title>Any</title>
<g id="a_node3"><a xlink:href="/type/Any" xlink:title="Any">
<ellipse fill="none" stroke="#000000" cx="526.56" cy="-197.01" rx="27" ry="18"/>
<text text-anchor="middle" x="526.56" y="-193.31" font-family="FreeSans" font-size="14.00" fill="#000000">Any</text>
</a>
</g>
</g>
<!-- Metamodel::ModuleHOW&#45;&gt;Any -->
<g id="edge1" class="edge">
<title>Metamodel::ModuleHOW&#45;&gt;Any</title>
<path fill="none" stroke="#000000" d="M362.45,-393.92C394.67,-355.27 470.62,-264.13 506.77,-220.76"/>
<polygon fill="#000000" stroke="#000000" points="509.53,-222.91 513.24,-212.99 504.15,-218.43 509.53,-222.91"/>
</g>
<!-- Metamodel::Naming -->
<g id="node4" class="node">
<title>Metamodel::Naming</title>
<g id="a_node4"><a xlink:href="/type/Metamodel::Naming" xlink:title="Metamodel::Naming">
<ellipse fill="none" stroke="#6666ff" cx="103.19" cy="-531.09" rx="90.18" ry="18"/>
<text text-anchor="middle" x="103.19" y="-527.39" font-family="FreeSans" font-size="14.00" fill="#6666ff">Metamodel::Naming</text>
</a>
</g>
</g>
<!-- Metamodel::ModuleHOW&#45;&gt;Metamodel::Naming -->
<g id="edge3" class="edge">
<title>Metamodel::ModuleHOW&#45;&gt;Metamodel::Naming</title>
<path fill="none" stroke="#6666ff" d="M312.49,-428.95C268.7,-450.32 193.74,-486.9 146.42,-509.99"/>
<polygon fill="#6666ff" stroke="#6666ff" points="144.79,-506.89 137.34,-514.42 147.86,-513.18 144.79,-506.89"/>
</g>
<!-- Metamodel::Documenting -->
<g id="node5" class="node">
<title>Metamodel::Documenting</title>
<g id="a_node5"><a xlink:href="/type/Metamodel::Documenting" xlink:title="Metamodel::Documenting">
<ellipse fill="none" stroke="#6666ff" cx="496.28" cy="-643.61" rx="111.28" ry="18"/>
<text text-anchor="middle" x="496.28" y="-639.91" font-family="FreeSans" font-size="14.00" fill="#6666ff">Metamodel::Documenting</text>
</a>
</g>
</g>
<!-- Metamodel::ModuleHOW&#45;&gt;Metamodel::Documenting -->
<g id="edge4" class="edge">
<title>Metamodel::ModuleHOW&#45;&gt;Metamodel::Documenting</title>
<path fill="none" stroke="#6666ff" d="M359.16,-430.06C385.29,-470.75 448.59,-569.33 479.17,-616.96"/>
<polygon fill="#6666ff" stroke="#6666ff" points="476.31,-618.98 484.66,-625.51 482.2,-615.2 476.31,-618.98"/>
</g>
<!-- Metamodel::Versioning -->
<g id="node6" class="node">
<title>Metamodel::Versioning</title>
<g id="a_node6"><a xlink:href="/type/Metamodel::Versioning" xlink:title="Metamodel::Versioning">
<ellipse fill="none" stroke="#6666ff" cx="276.37" cy="-674.76" rx="100.98" ry="18"/>
<text text-anchor="middle" x="276.37" y="-671.06" font-family="FreeSans" font-size="14.00" fill="#6666ff">Metamodel::Versioning</text>
</a>
</g>
</g>
<!-- Metamodel::ModuleHOW&#45;&gt;Metamodel::Versioning -->
<g id="edge5" class="edge">
<title>Metamodel::ModuleHOW&#45;&gt;Metamodel::Versioning</title>
<path fill="none" stroke="#6666ff" d="M342.6,-429.94C330.42,-474.97 298.65,-592.41 283.99,-646.61"/>
<polygon fill="#6666ff" stroke="#6666ff" points="280.53,-646 281.3,-656.56 287.29,-647.82 280.53,-646"/>
</g>
<!-- Metamodel::Stashing -->
<g id="node7" class="node">
<title>Metamodel::Stashing</title>
<g id="a_node7"><a xlink:href="/type/Metamodel::Stashing" xlink:title="Metamodel::Stashing">
<ellipse fill="none" stroke="#6666ff" cx="93.59" cy="-307.93" rx="93.68" ry="18"/>
<text text-anchor="middle" x="93.59" y="-304.23" font-family="FreeSans" font-size="14.00" fill="#6666ff">Metamodel::Stashing</text>
</a>
</g>
</g>
<!-- Metamodel::ModuleHOW&#45;&gt;Metamodel::Stashing -->
<g id="edge6" class="edge">
<title>Metamodel::ModuleHOW&#45;&gt;Metamodel::Stashing</title>
<path fill="none" stroke="#6666ff" d="M306.41,-395.06C261.9,-376.84 190.88,-347.76 143.26,-328.27"/>
<polygon fill="#6666ff" stroke="#6666ff" points="144.35,-324.93 133.77,-324.38 141.7,-331.41 144.35,-324.93"/>
</g>
<!-- Metamodel::TypePretense -->
<g id="node8" class="node">
<title>Metamodel::TypePretense</title>
<g id="a_node8"><a xlink:href="/type/Metamodel::TypePretense" xlink:title="Metamodel::TypePretense">
<ellipse fill="none" stroke="#6666ff" cx="608.9" cy="-460.61" rx="114.28" ry="18"/>
<text text-anchor="middle" x="608.9" y="-456.91" font-family="FreeSans" font-size="14.00" fill="#6666ff">Metamodel::TypePretense</text>
</a>
</g>
</g>
<!-- Metamodel::ModuleHOW&#45;&gt;Metamodel::TypePretense -->
<g id="edge7" class="edge">
<title>Metamodel::ModuleHOW&#45;&gt;Metamodel::TypePretense</title>
<path fill="none" stroke="#6666ff" d="M420.31,-425.45C452.89,-431.52 491.5,-438.72 525.26,-445.01"/>
<polygon fill="#6666ff" stroke="#6666ff" points="524.64,-448.46 535.11,-446.85 525.92,-441.58 524.64,-448.46"/>
</g>
<!-- Metamodel::MethodDelegation -->
<g id="node9" class="node">
<title>Metamodel::MethodDelegation</title>
<g id="a_node9"><a xlink:href="/type/Metamodel::MethodDelegation" xlink:title="Metamodel::MethodDelegation">
<ellipse fill="none" stroke="#6666ff" cx="252.87" cy="-161.31" rx="131.08" ry="18"/>
<text text-anchor="middle" x="252.87" y="-157.61" font-family="FreeSans" font-size="14.00" fill="#6666ff">Metamodel::MethodDelegation</text>
</a>
</g>
</g>
<!-- Metamodel::ModuleHOW&#45;&gt;Metamodel::MethodDelegation -->
<g id="edge8" class="edge">
<title>Metamodel::ModuleHOW&#45;&gt;Metamodel::MethodDelegation</title>
<path fill="none" stroke="#6666ff" d="M340.68,-393.85C324.36,-350.62 282.87,-240.75 263.34,-189.03"/>
<polygon fill="#6666ff" stroke="#6666ff" points="266.55,-187.62 259.74,-179.5 260,-190.09 266.55,-187.62"/>
</g>
<!-- Mu -->
<g id="node2" class="node">
<title>Mu</title>
<g id="a_node2"><a xlink:href="/type/Mu" xlink:title="Mu">
<ellipse fill="none" stroke="#000000" cx="705.66" cy="-18" rx="27" ry="18"/>
<text text-anchor="middle" x="705.66" y="-14.3" font-family="FreeSans" font-size="14.00" fill="#000000">Mu</text>
</a>
</g>
</g>
<!-- Any&#45;&gt;Mu -->
<g id="edge2" class="edge">
<title>Any&#45;&gt;Mu</title>
<path fill="none" stroke="#000000" d="M541.83,-181.75C573.42,-150.17 646.08,-77.55 683.09,-40.55"/>
<polygon fill="#000000" stroke="#000000" points="685.83,-42.77 690.42,-33.22 680.88,-37.82 685.83,-42.77"/>
</g>
</g>
</svg>
