<?xml version="1.0" encoding="UTF-8" standalone="no"?>
<!DOCTYPE svg PUBLIC "-//W3C//DTD SVG 1.1//EN"
 "http://www.w3.org/Graphics/SVG/1.1/DTD/svg11.dtd">
<!-- Generated by graphviz version 2.43.0 (0)
 -->
<!-- Title: perl6&#45;type&#45;graph Pages: 1 -->
<svg width="1795pt" height="1709pt"
 viewBox="0.00 0.00 1794.72 1708.66" xmlns="http://www.w3.org/2000/svg" xmlns:xlink="http://www.w3.org/1999/xlink">
<g id="graph0" class="graph" transform="scale(1 1) rotate(0) translate(4 1704.66)">
<title>perl6&#45;type&#45;graph</title>
<polygon fill="white" stroke="transparent" points="-4,4 -4,-1704.66 1790.72,-1704.66 1790.72,4 -4,4"/>
<!-- Metamodel::MROBasedMethodDispatch -->
<g id="node1" class="node">
<title>Metamodel::MROBasedMethodDispatch</title>
<g id="a_node1"><a xlink:href="/type/Metamodel::MROBasedMethodDispatch" xlink:title="Metamodel::MROBasedMethodDispatch">
<ellipse fill="none" stroke="#6666ff" cx="552.24" cy="-848.62" rx="169.77" ry="18"/>
<text text-anchor="middle" x="552.24" y="-844.92" font-family="FreeSans" font-size="14.00" fill="#6666ff">Metamodel::MROBasedMethodDispatch</text>
</a>
</g>
</g>
<!-- Mu -->
<g id="node2" class="node">
<title>Mu</title>
<g id="a_node2"><a xlink:href="/type/Mu" xlink:title="Mu">
<ellipse fill="none" stroke="#000000" cx="1759.72" cy="-370.24" rx="27" ry="18"/>
<text text-anchor="middle" x="1759.72" y="-366.54" font-family="FreeSans" font-size="14.00" fill="#000000">Mu</text>
</a>
</g>
</g>
<!-- Any -->
<g id="node3" class="node">
<title>Any</title>
<g id="a_node3"><a xlink:href="/type/Any" xlink:title="Any">
<ellipse fill="none" stroke="#000000" cx="1269.65" cy="-598.74" rx="27" ry="18"/>
<text text-anchor="middle" x="1269.65" y="-595.04" font-family="FreeSans" font-size="14.00" fill="#000000">Any</text>
</a>
</g>
</g>
<!-- Any&#45;&gt;Mu -->
<g id="edge1" class="edge">
<title>Any&#45;&gt;Mu</title>
<path fill="none" stroke="#000000" d="M1291.98,-588.33C1370.84,-551.56 1636.45,-427.72 1728.22,-384.93"/>
<polygon fill="#000000" stroke="#000000" points="1729.96,-387.98 1737.54,-380.58 1727,-381.63 1729.96,-387.98"/>
</g>
<!-- Metamodel::Naming -->
<g id="node4" class="node">
<title>Metamodel::Naming</title>
<g id="a_node4"><a xlink:href="/type/Metamodel::Naming" xlink:title="Metamodel::Naming">
<ellipse fill="none" stroke="#6666ff" cx="871.58" cy="-1291.24" rx="90.18" ry="18"/>
<text text-anchor="middle" x="871.58" y="-1287.54" font-family="FreeSans" font-size="14.00" fill="#6666ff">Metamodel::Naming</text>
</a>
</g>
</g>
<!-- Metamodel::Stashing -->
<g id="node5" class="node">
<title>Metamodel::Stashing</title>
<g id="a_node5"><a xlink:href="/type/Metamodel::Stashing" xlink:title="Metamodel::Stashing">
<ellipse fill="none" stroke="#6666ff" cx="1357.3" cy="-1113.39" rx="93.68" ry="18"/>
<text text-anchor="middle" x="1357.3" y="-1109.69" font-family="FreeSans" font-size="14.00" fill="#6666ff">Metamodel::Stashing</text>
</a>
</g>
</g>
<!-- Metamodel::AttributeContainer -->
<g id="node6" class="node">
<title>Metamodel::AttributeContainer</title>
<g id="a_node6"><a xlink:href="/type/Metamodel::AttributeContainer" xlink:title="Metamodel::AttributeContainer">
<ellipse fill="none" stroke="#6666ff" cx="320.49" cy="-934.14" rx="129.98" ry="18"/>
<text text-anchor="middle" x="320.49" y="-930.44" font-family="FreeSans" font-size="14.00" fill="#6666ff">Metamodel::AttributeContainer</text>
</a>
</g>
</g>
<!-- Metamodel::MethodContainer -->
<g id="node7" class="node">
<title>Metamodel::MethodContainer</title>
<g id="a_node7"><a xlink:href="/type/Metamodel::MethodContainer" xlink:title="Metamodel::MethodContainer">
<ellipse fill="none" stroke="#6666ff" cx="397.8" cy="-573.15" rx="127.28" ry="18"/>
<text text-anchor="middle" x="397.8" y="-569.45" font-family="FreeSans" font-size="14.00" fill="#6666ff">Metamodel::MethodContainer</text>
</a>
</g>
</g>
<!-- Metamodel::MultiMethodContainer -->
<g id="node8" class="node">
<title>Metamodel::MultiMethodContainer</title>
<g id="a_node8"><a xlink:href="/type/Metamodel::MultiMethodContainer" xlink:title="Metamodel::MultiMethodContainer">
<ellipse fill="none" stroke="#6666ff" cx="1276.79" cy="-770.17" rx="146.47" ry="18"/>
<text text-anchor="middle" x="1276.79" y="-766.47" font-family="FreeSans" font-size="14.00" fill="#6666ff">Metamodel::MultiMethodContainer</text>
</a>
</g>
</g>
<!-- Metamodel::RoleContainer -->
<g id="node9" class="node">
<title>Metamodel::RoleContainer</title>
<g id="a_node9"><a xlink:href="/type/Metamodel::RoleContainer" xlink:title="Metamodel::RoleContainer">
<ellipse fill="none" stroke="#6666ff" cx="544.85" cy="-441.54" rx="115.88" ry="18"/>
<text text-anchor="middle" x="544.85" y="-437.84" font-family="FreeSans" font-size="14.00" fill="#6666ff">Metamodel::RoleContainer</text>
</a>
</g>
</g>
<!-- Metamodel::BaseType -->
<g id="node10" class="node">
<title>Metamodel::BaseType</title>
<g id="a_node10"><a xlink:href="/type/Metamodel::BaseType" xlink:title="Metamodel::BaseType">
<ellipse fill="none" stroke="#6666ff" cx="988.05" cy="-18" rx="99.38" ry="18"/>
<text text-anchor="middle" x="988.05" y="-14.3" font-family="FreeSans" font-size="14.00" fill="#6666ff">Metamodel::BaseType</text>
</a>
</g>
</g>
<!-- Metamodel::MROBasedTypeChecking -->
<g id="node11" class="node">
<title>Metamodel::MROBasedTypeChecking</title>
<g id="a_node11"><a xlink:href="/type/Metamodel::MROBasedTypeChecking" xlink:title="Metamodel::MROBasedTypeChecking">
<ellipse fill="none" stroke="#6666ff" cx="741.84" cy="-508.86" rx="163.27" ry="18"/>
<text text-anchor="middle" x="741.84" y="-505.16" font-family="FreeSans" font-size="14.00" fill="#6666ff">Metamodel::MROBasedTypeChecking</text>
</a>
</g>
</g>
<!-- Metamodel::BUILDPLAN -->
<g id="node12" class="node">
<title>Metamodel::BUILDPLAN</title>
<g id="a_node12"><a xlink:href="/type/Metamodel::BUILDPLAN" xlink:title="Metamodel::BUILDPLAN">
<ellipse fill="none" stroke="#6666ff" cx="293.31" cy="-734.46" rx="109.68" ry="18"/>
<text text-anchor="middle" x="293.31" y="-730.76" font-family="FreeSans" font-size="14.00" fill="#6666ff">Metamodel::BUILDPLAN</text>
</a>
</g>
</g>
<!-- Metamodel::BoolificationProtocol -->
<g id="node13" class="node">
<title>Metamodel::BoolificationProtocol</title>
<g id="a_node13"><a xlink:href="/type/Metamodel::BoolificationProtocol" xlink:title="Metamodel::BoolificationProtocol">
<ellipse fill="none" stroke="#6666ff" cx="1354.94" cy="-929.42" rx="139.18" ry="18"/>
<text text-anchor="middle" x="1354.94" y="-925.72" font-family="FreeSans" font-size="14.00" fill="#6666ff">Metamodel::BoolificationProtocol</text>
</a>
</g>
</g>
<!-- Metamodel::Mixins -->
<g id="node14" class="node">
<title>Metamodel::Mixins</title>
<g id="a_node14"><a xlink:href="/type/Metamodel::Mixins" xlink:title="Metamodel::Mixins">
<ellipse fill="none" stroke="#6666ff" cx="1189.32" cy="-1208.38" rx="85.29" ry="18"/>
<text text-anchor="middle" x="1189.32" y="-1204.68" font-family="FreeSans" font-size="14.00" fill="#6666ff">Metamodel::Mixins</text>
</a>
</g>
</g>
<!-- Metamodel::EnumHOW -->
<g id="node15" class="node">
<title>Metamodel::EnumHOW</title>
<g id="a_node15"><a xlink:href="/type/Metamodel::EnumHOW" xlink:title="Metamodel::EnumHOW">
<ellipse fill="none" stroke="#000000" cx="899.34" cy="-684.16" rx="104.78" ry="18"/>
<text text-anchor="middle" x="899.34" y="-680.46" font-family="FreeSans" font-size="14.00" fill="#000000">Metamodel::EnumHOW</text>
</a>
</g>
</g>
<!-- Metamodel::EnumHOW&#45;&gt;Metamodel::MROBasedMethodDispatch -->
<g id="edge12" class="edge">
<title>Metamodel::EnumHOW&#45;&gt;Metamodel::MROBasedMethodDispatch</title>
<path fill="none" stroke="#6666ff" d="M863.5,-701.14C800.18,-731.14 668.59,-793.49 598.51,-826.69"/>
<polygon fill="#6666ff" stroke="#6666ff" points="596.99,-823.54 589.45,-830.98 599.99,-829.87 596.99,-823.54"/>
</g>
<!-- Metamodel::EnumHOW&#45;&gt;Any -->
<g id="edge2" class="edge">
<title>Metamodel::EnumHOW&#45;&gt;Any</title>
<path fill="none" stroke="#000000" d="M962.16,-669.67C1040.34,-651.64 1171.21,-621.45 1233.96,-606.97"/>
<polygon fill="#000000" stroke="#000000" points="1234.83,-610.36 1243.79,-604.71 1233.26,-603.54 1234.83,-610.36"/>
</g>
<!-- Metamodel::EnumHOW&#45;&gt;Metamodel::Naming -->
<g id="edge5" class="edge">
<title>Metamodel::EnumHOW&#45;&gt;Metamodel::Naming</title>
<path fill="none" stroke="#6666ff" d="M898.51,-702.33C894.56,-788.65 877.7,-1157.47 872.88,-1262.96"/>
<polygon fill="#6666ff" stroke="#6666ff" points="869.37,-1262.99 872.41,-1273.14 876.36,-1263.31 869.37,-1262.99"/>
</g>
<!-- Metamodel::EnumHOW&#45;&gt;Metamodel::Stashing -->
<g id="edge6" class="edge">
<title>Metamodel::EnumHOW&#45;&gt;Metamodel::Stashing</title>
<path fill="none" stroke="#6666ff" d="M918.44,-702.06C990.67,-769.76 1247.3,-1010.29 1330.82,-1088.57"/>
<polygon fill="#6666ff" stroke="#6666ff" points="1328.44,-1091.13 1338.13,-1095.42 1333.22,-1086.03 1328.44,-1091.13"/>
</g>
<!-- Metamodel::EnumHOW&#45;&gt;Metamodel::AttributeContainer -->
<g id="edge7" class="edge">
<title>Metamodel::EnumHOW&#45;&gt;Metamodel::AttributeContainer</title>
<path fill="none" stroke="#6666ff" d="M849.17,-700.07C719.09,-741.31 381.01,-848.48 381.01,-848.48 381.01,-848.48 357.07,-882.37 339.3,-907.52"/>
<polygon fill="#6666ff" stroke="#6666ff" points="336.24,-905.79 333.33,-915.98 341.95,-909.83 336.24,-905.79"/>
</g>
<!-- Metamodel::EnumHOW&#45;&gt;Metamodel::MethodContainer -->
<g id="edge8" class="edge">
<title>Metamodel::EnumHOW&#45;&gt;Metamodel::MethodContainer</title>
<path fill="none" stroke="#6666ff" d="M835.06,-669.93C743.44,-649.66 575.49,-612.48 476.54,-590.58"/>
<polygon fill="#6666ff" stroke="#6666ff" points="477.11,-587.12 466.59,-588.38 475.6,-593.95 477.11,-587.12"/>
</g>
<!-- Metamodel::EnumHOW&#45;&gt;Metamodel::MultiMethodContainer -->
<g id="edge9" class="edge">
<title>Metamodel::EnumHOW&#45;&gt;Metamodel::MultiMethodContainer</title>
<path fill="none" stroke="#6666ff" d="M962.52,-698.56C1026.93,-713.24 1127.04,-736.05 1196.91,-751.97"/>
<polygon fill="#6666ff" stroke="#6666ff" points="1196.46,-755.46 1206.99,-754.27 1198.02,-748.63 1196.46,-755.46"/>
</g>
<!-- Metamodel::EnumHOW&#45;&gt;Metamodel::RoleContainer -->
<g id="edge10" class="edge">
<title>Metamodel::EnumHOW&#45;&gt;Metamodel::RoleContainer</title>
<path fill="none" stroke="#6666ff" d="M867.56,-666.86C786.27,-622.61 577.1,-508.76 577.1,-508.76 577.1,-508.76 566.82,-487.32 557.86,-468.66"/>
<polygon fill="#6666ff" stroke="#6666ff" points="560.97,-467.06 553.49,-459.55 554.66,-470.08 560.97,-467.06"/>
</g>
<!-- Metamodel::EnumHOW&#45;&gt;Metamodel::BaseType -->
<g id="edge11" class="edge">
<title>Metamodel::EnumHOW&#45;&gt;Metamodel::BaseType</title>
<path fill="none" stroke="#6666ff" d="M900.92,-665.88C904.19,-627.98 911.4,-544.33 911.4,-544.33 911.4,-544.33 968.09,-155.03 983.96,-46.05"/>
<polygon fill="#6666ff" stroke="#6666ff" points="987.43,-46.52 985.41,-36.12 980.5,-45.51 987.43,-46.52"/>
</g>
<!-- Metamodel::EnumHOW&#45;&gt;Metamodel::MROBasedTypeChecking -->
<g id="edge13" class="edge">
<title>Metamodel::EnumHOW&#45;&gt;Metamodel::MROBasedTypeChecking</title>
<path fill="none" stroke="#6666ff" d="M883.08,-666.06C854.95,-634.75 797.12,-570.39 764.87,-534.5"/>
<polygon fill="#6666ff" stroke="#6666ff" points="767.3,-531.97 758.01,-526.87 762.09,-536.64 767.3,-531.97"/>
</g>
<!-- Metamodel::EnumHOW&#45;&gt;Metamodel::BUILDPLAN -->
<g id="edge14" class="edge">
<title>Metamodel::EnumHOW&#45;&gt;Metamodel::BUILDPLAN</title>
<path fill="none" stroke="#6666ff" d="M804.98,-691.99C695.83,-701.05 516.46,-715.94 401.68,-725.46"/>
<polygon fill="#6666ff" stroke="#6666ff" points="401.15,-721.99 391.47,-726.31 401.72,-728.97 401.15,-721.99"/>
</g>
<!-- Metamodel::EnumHOW&#45;&gt;Metamodel::BoolificationProtocol -->
<g id="edge15" class="edge">
<title>Metamodel::EnumHOW&#45;&gt;Metamodel::BoolificationProtocol</title>
<path fill="none" stroke="#6666ff" d="M931.38,-701.41C1012.06,-744.84 1223.56,-858.69 1313.5,-907.11"/>
<polygon fill="#6666ff" stroke="#6666ff" points="1311.86,-910.21 1322.33,-911.86 1315.18,-904.04 1311.86,-910.21"/>
</g>
<!-- Metamodel::EnumHOW&#45;&gt;Metamodel::Mixins -->
<g id="edge16" class="edge">
<title>Metamodel::EnumHOW&#45;&gt;Metamodel::Mixins</title>
<path fill="none" stroke="#6666ff" d="M912.44,-702.28C963.91,-773.47 1149.49,-1030.18 1149.49,-1030.18 1149.49,-1030.18 1171.86,-1130.26 1183.07,-1180.42"/>
<polygon fill="#6666ff" stroke="#6666ff" points="1179.69,-1181.31 1185.29,-1190.31 1186.52,-1179.79 1179.69,-1181.31"/>
</g>
<!-- Metamodel::Documenting -->
<g id="node16" class="node">
<title>Metamodel::Documenting</title>
<g id="a_node16"><a xlink:href="/type/Metamodel::Documenting" xlink:title="Metamodel::Documenting">
<ellipse fill="none" stroke="#6666ff" cx="1228.34" cy="-1489.51" rx="111.28" ry="18"/>
<text text-anchor="middle" x="1228.34" y="-1485.81" font-family="FreeSans" font-size="14.00" fill="#6666ff">Metamodel::Documenting</text>
</a>
</g>
</g>
<!-- Metamodel::Versioning -->
<g id="node17" class="node">
<title>Metamodel::Versioning</title>
<g id="a_node17"><a xlink:href="/type/Metamodel::Versioning" xlink:title="Metamodel::Versioning">
<ellipse fill="none" stroke="#6666ff" cx="1013.74" cy="-544.39" rx="100.98" ry="18"/>
<text text-anchor="middle" x="1013.74" y="-540.69" font-family="FreeSans" font-size="14.00" fill="#6666ff">Metamodel::Versioning</text>
</a>
</g>
</g>
<!-- Metamodel::MultipleInheritance -->
<g id="node18" class="node">
<title>Metamodel::MultipleInheritance</title>
<g id="a_node18"><a xlink:href="/type/Metamodel::MultipleInheritance" xlink:title="Metamodel::MultipleInheritance">
<ellipse fill="none" stroke="#6666ff" cx="819.68" cy="-1557.3" rx="133.78" ry="18"/>
<text text-anchor="middle" x="819.68" y="-1553.6" font-family="FreeSans" font-size="14.00" fill="#6666ff">Metamodel::MultipleInheritance</text>
</a>
</g>
</g>
<!-- Metamodel::C3MRO -->
<g id="node19" class="node">
<title>Metamodel::C3MRO</title>
<g id="a_node19"><a xlink:href="/type/Metamodel::C3MRO" xlink:title="Metamodel::C3MRO">
<ellipse fill="none" stroke="#6666ff" cx="535.16" cy="-1375.23" rx="92.08" ry="18"/>
<text text-anchor="middle" x="535.16" y="-1371.53" font-family="FreeSans" font-size="14.00" fill="#6666ff">Metamodel::C3MRO</text>
</a>
</g>
</g>
<!-- Metamodel::NativeHOW -->
<g id="node20" class="node">
<title>Metamodel::NativeHOW</title>
<g id="a_node20"><a xlink:href="/type/Metamodel::NativeHOW" xlink:title="Metamodel::NativeHOW">
<ellipse fill="none" stroke="#000000" cx="1041.3" cy="-1030.04" rx="106.68" ry="18"/>
<text text-anchor="middle" x="1041.3" y="-1026.34" font-family="FreeSans" font-size="14.00" fill="#000000">Metamodel::NativeHOW</text>
</a>
</g>
</g>
<!-- Metamodel::NativeHOW&#45;&gt;Metamodel::MROBasedMethodDispatch -->
<g id="edge23" class="edge">
<title>Metamodel::NativeHOW&#45;&gt;Metamodel::MROBasedMethodDispatch</title>
<path fill="none" stroke="#6666ff" d="M997.04,-1013.62C907.84,-980.53 706.62,-905.89 608.36,-869.44"/>
<polygon fill="#6666ff" stroke="#6666ff" points="609.49,-866.12 598.89,-865.92 607.05,-872.68 609.49,-866.12"/>
</g>
<!-- Metamodel::NativeHOW&#45;&gt;Any -->
<g id="edge3" class="edge">
<title>Metamodel::NativeHOW&#45;&gt;Any</title>
<path fill="none" stroke="#000000" d="M1047.46,-1011.77C1067.42,-952.6 1128.95,-770.12 1128.95,-770.12 1128.95,-770.12 1211.61,-669.44 1250.21,-622.41"/>
<polygon fill="#000000" stroke="#000000" points="1253.02,-624.51 1256.66,-614.56 1247.61,-620.07 1253.02,-624.51"/>
</g>
<!-- Metamodel::NativeHOW&#45;&gt;Metamodel::Naming -->
<g id="edge17" class="edge">
<title>Metamodel::NativeHOW&#45;&gt;Metamodel::Naming</title>
<path fill="none" stroke="#6666ff" d="M1029.64,-1048C1000.33,-1093.1 923.48,-1211.37 888.89,-1264.6"/>
<polygon fill="#6666ff" stroke="#6666ff" points="885.84,-1262.87 883.33,-1273.16 891.71,-1266.68 885.84,-1262.87"/>
</g>
<!-- Metamodel::NativeHOW&#45;&gt;Metamodel::Stashing -->
<g id="edge20" class="edge">
<title>Metamodel::NativeHOW&#45;&gt;Metamodel::Stashing</title>
<path fill="none" stroke="#6666ff" d="M1098.89,-1045.23C1153.39,-1059.61 1235.09,-1081.16 1291.99,-1096.17"/>
<polygon fill="#6666ff" stroke="#6666ff" points="1291.4,-1099.63 1301.96,-1098.79 1293.18,-1092.86 1291.4,-1099.63"/>
</g>
<!-- Metamodel::NativeHOW&#45;&gt;Metamodel::MROBasedTypeChecking -->
<g id="edge24" class="edge">
<title>Metamodel::NativeHOW&#45;&gt;Metamodel::MROBasedTypeChecking</title>
<path fill="none" stroke="#6666ff" d="M1028.31,-1011.93C977.24,-940.76 793.1,-684.12 793.1,-684.12 793.1,-684.12 764.45,-586.17 749.99,-536.72"/>
<polygon fill="#6666ff" stroke="#6666ff" points="753.3,-535.58 747.13,-526.96 746.58,-537.54 753.3,-535.58"/>
</g>
<!-- Metamodel::NativeHOW&#45;&gt;Metamodel::Documenting -->
<g id="edge18" class="edge">
<title>Metamodel::NativeHOW&#45;&gt;Metamodel::Documenting</title>
<path fill="none" stroke="#6666ff" d="M1047.51,-1048.11C1063.09,-1093.43 1102.58,-1208.28 1102.58,-1208.28 1102.58,-1208.28 1184.63,-1391.75 1216.18,-1462.31"/>
<polygon fill="#6666ff" stroke="#6666ff" points="1213,-1463.79 1220.28,-1471.49 1219.39,-1460.93 1213,-1463.79"/>
</g>
<!-- Metamodel::NativeHOW&#45;&gt;Metamodel::Versioning -->
<g id="edge19" class="edge">
<title>Metamodel::NativeHOW&#45;&gt;Metamodel::Versioning</title>
<path fill="none" stroke="#6666ff" d="M1040.27,-1011.89C1036.1,-938.41 1020.45,-662.7 1015.36,-572.87"/>
<polygon fill="#6666ff" stroke="#6666ff" points="1018.84,-572.42 1014.78,-562.63 1011.85,-572.81 1018.84,-572.42"/>
</g>
<!-- Metamodel::NativeHOW&#45;&gt;Metamodel::MultipleInheritance -->
<g id="edge21" class="edge">
<title>Metamodel::NativeHOW&#45;&gt;Metamodel::MultipleInheritance</title>
<path fill="none" stroke="#6666ff" d="M1035.83,-1048.42C1018.13,-1107.9 963.52,-1291.38 963.52,-1291.38 963.52,-1291.38 870.97,-1462.47 834.35,-1530.18"/>
<polygon fill="#6666ff" stroke="#6666ff" points="831.25,-1528.56 829.57,-1539.02 837.4,-1531.89 831.25,-1528.56"/>
</g>
<!-- Metamodel::NativeHOW&#45;&gt;Metamodel::C3MRO -->
<g id="edge22" class="edge">
<title>Metamodel::NativeHOW&#45;&gt;Metamodel::C3MRO</title>
<path fill="none" stroke="#6666ff" d="M1015.5,-1047.64C931.21,-1105.12 663.87,-1287.45 568.97,-1352.17"/>
<polygon fill="#6666ff" stroke="#6666ff" points="566.89,-1349.35 560.6,-1357.88 570.83,-1355.14 566.89,-1349.35"/>
</g>
<!-- Metamodel::Finalization -->
<g id="node21" class="node">
<title>Metamodel::Finalization</title>
<g id="a_node21"><a xlink:href="/type/Metamodel::Finalization" xlink:title="Metamodel::Finalization">
<ellipse fill="none" stroke="#6666ff" cx="270.05" cy="-1419.42" rx="103.98" ry="18"/>
<text text-anchor="middle" x="270.05" y="-1415.72" font-family="FreeSans" font-size="14.00" fill="#6666ff">Metamodel::Finalization</text>
</a>
</g>
</g>
<!-- Metamodel::PrivateMethodContainer -->
<g id="node22" class="node">
<title>Metamodel::PrivateMethodContainer</title>
<g id="a_node22"><a xlink:href="/type/Metamodel::PrivateMethodContainer" xlink:title="Metamodel::PrivateMethodContainer">
<ellipse fill="none" stroke="#6666ff" cx="154.69" cy="-1180.28" rx="154.87" ry="18"/>
<text text-anchor="middle" x="154.69" y="-1176.58" font-family="FreeSans" font-size="14.00" fill="#6666ff">Metamodel::PrivateMethodContainer</text>
</a>
</g>
</g>
<!-- Metamodel::DefaultParent -->
<g id="node23" class="node">
<title>Metamodel::DefaultParent</title>
<g id="a_node23"><a xlink:href="/type/Metamodel::DefaultParent" xlink:title="Metamodel::DefaultParent">
<ellipse fill="none" stroke="#6666ff" cx="531.06" cy="-1642.5" rx="113.18" ry="18"/>
<text text-anchor="middle" x="531.06" y="-1638.8" font-family="FreeSans" font-size="14.00" fill="#6666ff">Metamodel::DefaultParent</text>
</a>
</g>
</g>
<!-- Metamodel::Trusting -->
<g id="node24" class="node">
<title>Metamodel::Trusting</title>
<g id="a_node24"><a xlink:href="/type/Metamodel::Trusting" xlink:title="Metamodel::Trusting">
<ellipse fill="none" stroke="#6666ff" cx="988.62" cy="-1682.66" rx="91.78" ry="18"/>
<text text-anchor="middle" x="988.62" y="-1678.96" font-family="FreeSans" font-size="14.00" fill="#6666ff">Metamodel::Trusting</text>
</a>
</g>
</g>
<!-- Metamodel::ClassHOW -->
<g id="node25" class="node">
<title>Metamodel::ClassHOW</title>
<g id="a_node25"><a xlink:href="/type/Metamodel::ClassHOW" xlink:title="Metamodel::ClassHOW">
<ellipse fill="none" stroke="#000000" cx="776.58" cy="-1043.42" rx="103.18" ry="18"/>
<text text-anchor="middle" x="776.58" y="-1039.72" font-family="FreeSans" font-size="14.00" fill="#000000">Metamodel::ClassHOW</text>
</a>
</g>
</g>
<!-- Metamodel::ClassHOW&#45;&gt;Metamodel::MROBasedMethodDispatch -->
<g id="edge38" class="edge">
<title>Metamodel::ClassHOW&#45;&gt;Metamodel::MROBasedMethodDispatch</title>
<path fill="none" stroke="#6666ff" d="M755.88,-1025.44C715.56,-990.43 626.46,-913.07 580.65,-873.29"/>
<polygon fill="#6666ff" stroke="#6666ff" points="582.74,-870.46 572.89,-866.55 578.15,-875.75 582.74,-870.46"/>
</g>
<!-- Metamodel::ClassHOW&#45;&gt;Any -->
<g id="edge4" class="edge">
<title>Metamodel::ClassHOW&#45;&gt;Any</title>
<path fill="none" stroke="#000000" d="M796.21,-1025.71C874.12,-955.45 1161.35,-696.41 1246.01,-620.06"/>
<polygon fill="#000000" stroke="#000000" points="1248.48,-622.55 1253.56,-613.25 1243.79,-617.35 1248.48,-622.55"/>
</g>
<!-- Metamodel::ClassHOW&#45;&gt;Metamodel::Naming -->
<g id="edge25" class="edge">
<title>Metamodel::ClassHOW&#45;&gt;Metamodel::Naming</title>
<path fill="none" stroke="#6666ff" d="M783.57,-1061.64C800.04,-1104.61 841.38,-1212.46 860.97,-1263.56"/>
<polygon fill="#6666ff" stroke="#6666ff" points="857.74,-1264.91 864.59,-1272.99 864.27,-1262.4 857.74,-1264.91"/>
</g>
<!-- Metamodel::ClassHOW&#45;&gt;Metamodel::Stashing -->
<g id="edge28" class="edge">
<title>Metamodel::ClassHOW&#45;&gt;Metamodel::Stashing</title>
<path fill="none" stroke="#6666ff" d="M861.65,-1053.67C970.1,-1066.74 1156.79,-1089.23 1267.48,-1102.57"/>
<polygon fill="#6666ff" stroke="#6666ff" points="1267.27,-1106.07 1277.62,-1103.79 1268.11,-1099.12 1267.27,-1106.07"/>
</g>
<!-- Metamodel::ClassHOW&#45;&gt;Metamodel::AttributeContainer -->
<g id="edge29" class="edge">
<title>Metamodel::ClassHOW&#45;&gt;Metamodel::AttributeContainer</title>
<path fill="none" stroke="#6666ff" d="M715.54,-1028.8C632.72,-1008.95 484.84,-973.52 395.39,-952.09"/>
<polygon fill="#6666ff" stroke="#6666ff" points="396.13,-948.67 385.59,-949.74 394.5,-955.47 396.13,-948.67"/>
</g>
<!-- Metamodel::ClassHOW&#45;&gt;Metamodel::MethodContainer -->
<g id="edge31" class="edge">
<title>Metamodel::ClassHOW&#45;&gt;Metamodel::MethodContainer</title>
<path fill="none" stroke="#6666ff" d="M771.58,-1025.11C758.36,-976.65 723.47,-848.75 723.47,-848.75 723.47,-848.75 506.76,-665.36 426.9,-597.77"/>
<polygon fill="#6666ff" stroke="#6666ff" points="429.07,-595.02 419.17,-591.23 424.54,-600.37 429.07,-595.02"/>
</g>
<!-- Metamodel::ClassHOW&#45;&gt;Metamodel::MultiMethodContainer -->
<g id="edge33" class="edge">
<title>Metamodel::ClassHOW&#45;&gt;Metamodel::MultiMethodContainer</title>
<path fill="none" stroke="#6666ff" d="M808.25,-1026.12C895.32,-978.56 1138.28,-845.84 1235.65,-792.65"/>
<polygon fill="#6666ff" stroke="#6666ff" points="1237.51,-795.62 1244.61,-787.75 1234.16,-789.47 1237.51,-795.62"/>
</g>
<!-- Metamodel::ClassHOW&#45;&gt;Metamodel::RoleContainer -->
<g id="edge34" class="edge">
<title>Metamodel::ClassHOW&#45;&gt;Metamodel::RoleContainer</title>
<path fill="none" stroke="#6666ff" d="M771.58,-1025.11C758.36,-976.65 723.47,-848.75 723.47,-848.75 723.47,-848.75 596.98,-560.4 556.89,-468.99"/>
<polygon fill="#6666ff" stroke="#6666ff" points="559.98,-467.32 552.75,-459.56 553.57,-470.13 559.98,-467.32"/>
</g>
<!-- Metamodel::ClassHOW&#45;&gt;Metamodel::MROBasedTypeChecking -->
<g id="edge39" class="edge">
<title>Metamodel::ClassHOW&#45;&gt;Metamodel::MROBasedTypeChecking</title>
<path fill="none" stroke="#6666ff" d="M775.41,-1025.33C770.29,-946.57 749.92,-633.24 743.67,-537.08"/>
<polygon fill="#6666ff" stroke="#6666ff" points="747.15,-536.7 743.01,-526.95 740.17,-537.16 747.15,-536.7"/>
</g>
<!-- Metamodel::ClassHOW&#45;&gt;Metamodel::BUILDPLAN -->
<g id="edge41" class="edge">
<title>Metamodel::ClassHOW&#45;&gt;Metamodel::BUILDPLAN</title>
<path fill="none" stroke="#6666ff" d="M741.82,-1026.29C645.3,-978.72 381.01,-848.48 381.01,-848.48 381.01,-848.48 339.3,-794.26 313.41,-760.59"/>
<polygon fill="#6666ff" stroke="#6666ff" points="316.08,-758.32 307.21,-752.52 310.53,-762.58 316.08,-758.32"/>
</g>
<!-- Metamodel::ClassHOW&#45;&gt;Metamodel::BoolificationProtocol -->
<g id="edge43" class="edge">
<title>Metamodel::ClassHOW&#45;&gt;Metamodel::BoolificationProtocol</title>
<path fill="none" stroke="#6666ff" d="M845.2,-1029.9C950.74,-1009.09 1152.78,-969.27 1268.28,-946.5"/>
<polygon fill="#6666ff" stroke="#6666ff" points="1269.02,-949.92 1278.15,-944.55 1267.66,-943.05 1269.02,-949.92"/>
</g>
<!-- Metamodel::ClassHOW&#45;&gt;Metamodel::Mixins -->
<g id="edge42" class="edge">
<title>Metamodel::ClassHOW&#45;&gt;Metamodel::Mixins</title>
<path fill="none" stroke="#6666ff" d="M818.05,-1059.99C894.56,-1090.57 1057.62,-1155.74 1139.8,-1188.58"/>
<polygon fill="#6666ff" stroke="#6666ff" points="1138.82,-1191.96 1149.41,-1192.42 1141.42,-1185.46 1138.82,-1191.96"/>
</g>
<!-- Metamodel::ClassHOW&#45;&gt;Metamodel::Documenting -->
<g id="edge26" class="edge">
<title>Metamodel::ClassHOW&#45;&gt;Metamodel::Documenting</title>
<path fill="none" stroke="#6666ff" d="M794.57,-1061.18C864.84,-1130.57 1120.95,-1383.47 1202.92,-1464.41"/>
<polygon fill="#6666ff" stroke="#6666ff" points="1200.72,-1467.16 1210.3,-1471.69 1205.64,-1462.18 1200.72,-1467.16"/>
</g>
<!-- Metamodel::ClassHOW&#45;&gt;Metamodel::Versioning -->
<g id="edge27" class="edge">
<title>Metamodel::ClassHOW&#45;&gt;Metamodel::Versioning</title>
<path fill="none" stroke="#6666ff" d="M788.25,-1025.11C834.92,-951.91 1005.58,-684.2 1005.58,-684.2 1005.58,-684.2 1009.69,-613.72 1012.08,-572.84"/>
<polygon fill="#6666ff" stroke="#6666ff" points="1015.59,-572.85 1012.67,-562.67 1008.6,-572.44 1015.59,-572.85"/>
</g>
<!-- Metamodel::ClassHOW&#45;&gt;Metamodel::MultipleInheritance -->
<g id="edge35" class="edge">
<title>Metamodel::ClassHOW&#45;&gt;Metamodel::MultipleInheritance</title>
<path fill="none" stroke="#6666ff" d="M776.81,-1061.63C777.51,-1118.83 779.64,-1291.1 779.64,-1291.1 779.64,-1291.1 805.09,-1460.28 815.41,-1528.9"/>
<polygon fill="#6666ff" stroke="#6666ff" points="811.98,-1529.64 816.93,-1539.01 818.9,-1528.6 811.98,-1529.64"/>
</g>
<!-- Metamodel::ClassHOW&#45;&gt;Metamodel::C3MRO -->
<g id="edge37" class="edge">
<title>Metamodel::ClassHOW&#45;&gt;Metamodel::C3MRO</title>
<path fill="none" stroke="#6666ff" d="M763.26,-1061.73C722.85,-1117.27 601.57,-1283.96 554.31,-1348.91"/>
<polygon fill="#6666ff" stroke="#6666ff" points="551.2,-1347.24 548.15,-1357.38 556.86,-1351.35 551.2,-1347.24"/>
</g>
<!-- Metamodel::ClassHOW&#45;&gt;Metamodel::Finalization -->
<g id="edge30" class="edge">
<title>Metamodel::ClassHOW&#45;&gt;Metamodel::Finalization</title>
<path fill="none" stroke="#6666ff" d="M752.83,-1061.05C670.32,-1122.3 396.06,-1325.88 302.02,-1395.69"/>
<polygon fill="#6666ff" stroke="#6666ff" points="299.69,-1393.05 293.75,-1401.82 303.87,-1398.67 299.69,-1393.05"/>
</g>
<!-- Metamodel::ClassHOW&#45;&gt;Metamodel::PrivateMethodContainer -->
<g id="edge32" class="edge">
<title>Metamodel::ClassHOW&#45;&gt;Metamodel::PrivateMethodContainer</title>
<path fill="none" stroke="#6666ff" d="M712.37,-1057.55C598.76,-1082.55 362.5,-1134.55 237.07,-1162.15"/>
<polygon fill="#6666ff" stroke="#6666ff" points="236.14,-1158.77 227.13,-1164.34 237.65,-1165.61 236.14,-1158.77"/>
</g>
<!-- Metamodel::ClassHOW&#45;&gt;Metamodel::DefaultParent -->
<g id="edge36" class="edge">
<title>Metamodel::ClassHOW&#45;&gt;Metamodel::DefaultParent</title>
<path fill="none" stroke="#6666ff" d="M769.1,-1061.68C733.91,-1147.55 584.77,-1511.43 542.35,-1614.93"/>
<polygon fill="#6666ff" stroke="#6666ff" points="539.03,-1613.81 538.48,-1624.39 545.51,-1616.46 539.03,-1613.81"/>
</g>
<!-- Metamodel::ClassHOW&#45;&gt;Metamodel::Trusting -->
<g id="edge40" class="edge">
<title>Metamodel::ClassHOW&#45;&gt;Metamodel::Trusting</title>
<path fill="none" stroke="#6666ff" d="M776.81,-1061.63C777.51,-1118.83 779.64,-1291.1 779.64,-1291.1 779.64,-1291.1 955.16,-1557.44 955.16,-1557.44 955.16,-1557.44 971.3,-1617.83 981.16,-1654.74"/>
<polygon fill="#6666ff" stroke="#6666ff" points="977.79,-1655.7 983.75,-1664.45 984.56,-1653.89 977.79,-1655.7"/>
</g>
</g>
</svg>
