<?xml version="1.0" encoding="UTF-8" standalone="no"?>
<!DOCTYPE svg PUBLIC "-//W3C//DTD SVG 1.1//EN"
 "http://www.w3.org/Graphics/SVG/1.1/DTD/svg11.dtd">
<!-- Generated by graphviz version 2.43.0 (0)
 -->
<!-- Title: perl6&#45;type&#45;graph Pages: 1 -->
<svg width="1258pt" height="1390pt"
 viewBox="0.00 0.00 1258.22 1389.52" xmlns="http://www.w3.org/2000/svg" xmlns:xlink="http://www.w3.org/1999/xlink">
<g id="graph0" class="graph" transform="scale(1 1) rotate(0) translate(4 1385.52)">
<title>perl6&#45;type&#45;graph</title>
<polygon fill="white" stroke="transparent" points="-4,4 -4,-1385.52 1254.22,-1385.52 1254.22,4 -4,4"/>
<!-- Metamodel::ParametricRoleHOW -->
<g id="node1" class="node">
<title>Metamodel::ParametricRoleHOW</title>
<g id="a_node1"><a xlink:href="/type/Metamodel::ParametricRoleHOW" xlink:title="Metamodel::ParametricRoleHOW">
<ellipse fill="none" stroke="#000000" cx="614.46" cy="-895.63" rx="141.88" ry="18"/>
<text text-anchor="middle" x="614.46" y="-891.93" font-family="FreeSans" font-size="14.00" fill="#000000">Metamodel::ParametricRoleHOW</text>
</a>
</g>
</g>
<!-- Any -->
<g id="node3" class="node">
<title>Any</title>
<g id="a_node3"><a xlink:href="/type/Any" xlink:title="Any">
<ellipse fill="none" stroke="#000000" cx="839.8" cy="-399.56" rx="27" ry="18"/>
<text text-anchor="middle" x="839.8" y="-395.86" font-family="FreeSans" font-size="14.00" fill="#000000">Any</text>
</a>
</g>
</g>
<!-- Metamodel::ParametricRoleHOW&#45;&gt;Any -->
<g id="edge1" class="edge">
<title>Metamodel::ParametricRoleHOW&#45;&gt;Any</title>
<path fill="none" stroke="#000000" d="M622.74,-877.39C656.95,-802.07 787.29,-515.15 827.75,-426.09"/>
<polygon fill="#000000" stroke="#000000" points="830.96,-427.48 831.91,-416.93 824.59,-424.59 830.96,-427.48"/>
</g>
<!-- Metamodel::Naming -->
<g id="node4" class="node">
<title>Metamodel::Naming</title>
<g id="a_node4"><a xlink:href="/type/Metamodel::Naming" xlink:title="Metamodel::Naming">
<ellipse fill="none" stroke="#6666ff" cx="362.48" cy="-1301.92" rx="90.18" ry="18"/>
<text text-anchor="middle" x="362.48" y="-1298.22" font-family="FreeSans" font-size="14.00" fill="#6666ff">Metamodel::Naming</text>
</a>
</g>
</g>
<!-- Metamodel::ParametricRoleHOW&#45;&gt;Metamodel::Naming -->
<g id="edge3" class="edge">
<title>Metamodel::ParametricRoleHOW&#45;&gt;Metamodel::Naming</title>
<path fill="none" stroke="#6666ff" d="M603.3,-913.61C563.31,-978.1 426.92,-1198.02 379.16,-1275.02"/>
<polygon fill="#6666ff" stroke="#6666ff" points="376.09,-1273.34 373.79,-1283.68 382.04,-1277.03 376.09,-1273.34"/>
</g>
<!-- Metamodel::Documenting -->
<g id="node5" class="node">
<title>Metamodel::Documenting</title>
<g id="a_node5"><a xlink:href="/type/Metamodel::Documenting" xlink:title="Metamodel::Documenting">
<ellipse fill="none" stroke="#6666ff" cx="966.2" cy="-1191.01" rx="111.28" ry="18"/>
<text text-anchor="middle" x="966.2" y="-1187.31" font-family="FreeSans" font-size="14.00" fill="#6666ff">Metamodel::Documenting</text>
</a>
</g>
</g>
<!-- Metamodel::ParametricRoleHOW&#45;&gt;Metamodel::Documenting -->
<g id="edge4" class="edge">
<title>Metamodel::ParametricRoleHOW&#45;&gt;Metamodel::Documenting</title>
<path fill="none" stroke="#6666ff" d="M635.67,-913.44C695.9,-964.02 868.06,-1108.6 937.07,-1166.55"/>
<polygon fill="#6666ff" stroke="#6666ff" points="935.05,-1169.42 944.96,-1173.17 939.55,-1164.06 935.05,-1169.42"/>
</g>
<!-- Metamodel::Versioning -->
<g id="node6" class="node">
<title>Metamodel::Versioning</title>
<g id="a_node6"><a xlink:href="/type/Metamodel::Versioning" xlink:title="Metamodel::Versioning">
<ellipse fill="none" stroke="#6666ff" cx="207.53" cy="-1134.87" rx="100.98" ry="18"/>
<text text-anchor="middle" x="207.53" y="-1131.17" font-family="FreeSans" font-size="14.00" fill="#6666ff">Metamodel::Versioning</text>
</a>
</g>
</g>
<!-- Metamodel::ParametricRoleHOW&#45;&gt;Metamodel::Versioning -->
<g id="edge5" class="edge">
<title>Metamodel::ParametricRoleHOW&#45;&gt;Metamodel::Versioning</title>
<path fill="none" stroke="#6666ff" d="M584.2,-913.42C511.31,-956.27 326.06,-1065.18 245.7,-1112.43"/>
<polygon fill="#6666ff" stroke="#6666ff" points="243.73,-1109.52 236.88,-1117.61 247.28,-1115.56 243.73,-1109.52"/>
</g>
<!-- Metamodel::MethodContainer -->
<g id="node7" class="node">
<title>Metamodel::MethodContainer</title>
<g id="a_node7"><a xlink:href="/type/Metamodel::MethodContainer" xlink:title="Metamodel::MethodContainer">
<ellipse fill="none" stroke="#6666ff" cx="175.88" cy="-699.11" rx="127.28" ry="18"/>
<text text-anchor="middle" x="175.88" y="-695.41" font-family="FreeSans" font-size="14.00" fill="#6666ff">Metamodel::MethodContainer</text>
</a>
</g>
</g>
<!-- Metamodel::ParametricRoleHOW&#45;&gt;Metamodel::MethodContainer -->
<g id="edge6" class="edge">
<title>Metamodel::ParametricRoleHOW&#45;&gt;Metamodel::MethodContainer</title>
<path fill="none" stroke="#6666ff" d="M575.53,-878.19C495.13,-842.16 310.93,-759.63 223.55,-720.47"/>
<polygon fill="#6666ff" stroke="#6666ff" points="224.95,-717.26 214.4,-716.37 222.09,-723.65 224.95,-717.26"/>
</g>
<!-- Metamodel::PrivateMethodContainer -->
<g id="node8" class="node">
<title>Metamodel::PrivateMethodContainer</title>
<g id="a_node8"><a xlink:href="/type/Metamodel::PrivateMethodContainer" xlink:title="Metamodel::PrivateMethodContainer">
<ellipse fill="none" stroke="#6666ff" cx="1095.53" cy="-772.08" rx="154.87" ry="18"/>
<text text-anchor="middle" x="1095.53" y="-768.38" font-family="FreeSans" font-size="14.00" fill="#6666ff">Metamodel::PrivateMethodContainer</text>
</a>
</g>
</g>
<!-- Metamodel::ParametricRoleHOW&#45;&gt;Metamodel::PrivateMethodContainer -->
<g id="edge7" class="edge">
<title>Metamodel::ParametricRoleHOW&#45;&gt;Metamodel::PrivateMethodContainer</title>
<path fill="none" stroke="#6666ff" d="M677.35,-879.48C766.03,-856.71 927.48,-815.24 1021.73,-791.04"/>
<polygon fill="#6666ff" stroke="#6666ff" points="1022.66,-794.41 1031.48,-788.53 1020.92,-787.63 1022.66,-794.41"/>
</g>
<!-- Metamodel::MultiMethodContainer -->
<g id="node9" class="node">
<title>Metamodel::MultiMethodContainer</title>
<g id="a_node9"><a xlink:href="/type/Metamodel::MultiMethodContainer" xlink:title="Metamodel::MultiMethodContainer">
<ellipse fill="none" stroke="#6666ff" cx="305.97" cy="-513.8" rx="146.47" ry="18"/>
<text text-anchor="middle" x="305.97" y="-510.1" font-family="FreeSans" font-size="14.00" fill="#6666ff">Metamodel::MultiMethodContainer</text>
</a>
</g>
</g>
<!-- Metamodel::ParametricRoleHOW&#45;&gt;Metamodel::MultiMethodContainer -->
<g id="edge8" class="edge">
<title>Metamodel::ParametricRoleHOW&#45;&gt;Metamodel::MultiMethodContainer</title>
<path fill="none" stroke="#6666ff" d="M599.78,-877.47C549.75,-815.54 385.66,-612.43 327.03,-539.86"/>
<polygon fill="#6666ff" stroke="#6666ff" points="329.74,-537.65 320.73,-532.07 324.29,-542.05 329.74,-537.65"/>
</g>
<!-- Metamodel::AttributeContainer -->
<g id="node10" class="node">
<title>Metamodel::AttributeContainer</title>
<g id="a_node10"><a xlink:href="/type/Metamodel::AttributeContainer" xlink:title="Metamodel::AttributeContainer">
<ellipse fill="none" stroke="#6666ff" cx="875.13" cy="-648.29" rx="129.98" ry="18"/>
<text text-anchor="middle" x="875.13" y="-644.59" font-family="FreeSans" font-size="14.00" fill="#6666ff">Metamodel::AttributeContainer</text>
</a>
</g>
</g>
<!-- Metamodel::ParametricRoleHOW&#45;&gt;Metamodel::AttributeContainer -->
<g id="edge9" class="edge">
<title>Metamodel::ParametricRoleHOW&#45;&gt;Metamodel::AttributeContainer</title>
<path fill="none" stroke="#6666ff" d="M633.62,-877.44C679.59,-833.83 796.16,-723.22 848.72,-673.35"/>
<polygon fill="#6666ff" stroke="#6666ff" points="851.44,-675.59 856.29,-666.17 846.63,-670.51 851.44,-675.59"/>
</g>
<!-- Metamodel::RoleContainer -->
<g id="node11" class="node">
<title>Metamodel::RoleContainer</title>
<g id="a_node11"><a xlink:href="/type/Metamodel::RoleContainer" xlink:title="Metamodel::RoleContainer">
<ellipse fill="none" stroke="#6666ff" cx="522.85" cy="-448.03" rx="115.88" ry="18"/>
<text text-anchor="middle" x="522.85" y="-444.33" font-family="FreeSans" font-size="14.00" fill="#6666ff">Metamodel::RoleContainer</text>
</a>
</g>
</g>
<!-- Metamodel::ParametricRoleHOW&#45;&gt;Metamodel::RoleContainer -->
<g id="edge10" class="edge">
<title>Metamodel::ParametricRoleHOW&#45;&gt;Metamodel::RoleContainer</title>
<path fill="none" stroke="#6666ff" d="M610.75,-877.53C596.6,-808.36 545.85,-560.42 528.62,-476.24"/>
<polygon fill="#6666ff" stroke="#6666ff" points="532.04,-475.45 526.6,-466.36 525.18,-476.86 532.04,-475.45"/>
</g>
<!-- Metamodel::MultipleInheritance -->
<g id="node12" class="node">
<title>Metamodel::MultipleInheritance</title>
<g id="a_node12"><a xlink:href="/type/Metamodel::MultipleInheritance" xlink:title="Metamodel::MultipleInheritance">
<ellipse fill="none" stroke="#6666ff" cx="133.89" cy="-920.68" rx="133.78" ry="18"/>
<text text-anchor="middle" x="133.89" y="-916.98" font-family="FreeSans" font-size="14.00" fill="#6666ff">Metamodel::MultipleInheritance</text>
</a>
</g>
</g>
<!-- Metamodel::ParametricRoleHOW&#45;&gt;Metamodel::MultipleInheritance -->
<g id="edge11" class="edge">
<title>Metamodel::ParametricRoleHOW&#45;&gt;Metamodel::MultipleInheritance</title>
<path fill="none" stroke="#6666ff" d="M483.14,-902.48C416.66,-905.94 336.06,-910.14 269.05,-913.64"/>
<polygon fill="#6666ff" stroke="#6666ff" points="268.64,-910.15 258.84,-914.17 269.01,-917.14 268.64,-910.15"/>
</g>
<!-- Metamodel::Stashing -->
<g id="node13" class="node">
<title>Metamodel::Stashing</title>
<g id="a_node13"><a xlink:href="/type/Metamodel::Stashing" xlink:title="Metamodel::Stashing">
<ellipse fill="none" stroke="#6666ff" cx="1105.36" cy="-1017.13" rx="93.68" ry="18"/>
<text text-anchor="middle" x="1105.36" y="-1013.43" font-family="FreeSans" font-size="14.00" fill="#6666ff">Metamodel::Stashing</text>
</a>
</g>
</g>
<!-- Metamodel::ParametricRoleHOW&#45;&gt;Metamodel::Stashing -->
<g id="edge12" class="edge">
<title>Metamodel::ParametricRoleHOW&#45;&gt;Metamodel::Stashing</title>
<path fill="none" stroke="#6666ff" d="M679.39,-911.7C772.64,-934.78 943.61,-977.1 1038.12,-1000.49"/>
<polygon fill="#6666ff" stroke="#6666ff" points="1037.31,-1003.9 1047.86,-1002.9 1038.99,-997.1 1037.31,-1003.9"/>
</g>
<!-- Metamodel::TypePretense -->
<g id="node14" class="node">
<title>Metamodel::TypePretense</title>
<g id="a_node14"><a xlink:href="/type/Metamodel::TypePretense" xlink:title="Metamodel::TypePretense">
<ellipse fill="none" stroke="#6666ff" cx="812.88" cy="-1352.51" rx="114.28" ry="18"/>
<text text-anchor="middle" x="812.88" y="-1348.81" font-family="FreeSans" font-size="14.00" fill="#6666ff">Metamodel::TypePretense</text>
</a>
</g>
</g>
<!-- Metamodel::ParametricRoleHOW&#45;&gt;Metamodel::TypePretense -->
<g id="edge13" class="edge">
<title>Metamodel::ParametricRoleHOW&#45;&gt;Metamodel::TypePretense</title>
<path fill="none" stroke="#6666ff" d="M622.36,-913.82C653,-984.39 764.13,-1240.26 800.94,-1325.02"/>
<polygon fill="#6666ff" stroke="#6666ff" points="797.76,-1326.49 804.95,-1334.27 804.18,-1323.7 797.76,-1326.49"/>
</g>
<!-- Metamodel::RolePunning -->
<g id="node15" class="node">
<title>Metamodel::RolePunning</title>
<g id="a_node15"><a xlink:href="/type/Metamodel::RolePunning" xlink:title="Metamodel::RolePunning">
<ellipse fill="none" stroke="#6666ff" cx="580.62" cy="-1363.52" rx="109.68" ry="18"/>
<text text-anchor="middle" x="580.62" y="-1359.82" font-family="FreeSans" font-size="14.00" fill="#6666ff">Metamodel::RolePunning</text>
</a>
</g>
</g>
<!-- Metamodel::ParametricRoleHOW&#45;&gt;Metamodel::RolePunning -->
<g id="edge14" class="edge">
<title>Metamodel::ParametricRoleHOW&#45;&gt;Metamodel::RolePunning</title>
<path fill="none" stroke="#6666ff" d="M613.15,-913.69C607.98,-985.11 588.96,-1248.27 582.66,-1335.34"/>
<polygon fill="#6666ff" stroke="#6666ff" points="579.15,-1335.29 581.92,-1345.52 586.14,-1335.8 579.15,-1335.29"/>
</g>
<!-- Mu -->
<g id="node2" class="node">
<title>Mu</title>
<g id="a_node2"><a xlink:href="/type/Mu" xlink:title="Mu">
<ellipse fill="none" stroke="#000000" cx="1074.6" cy="-18" rx="27" ry="18"/>
<text text-anchor="middle" x="1074.6" y="-14.3" font-family="FreeSans" font-size="14.00" fill="#000000">Mu</text>
</a>
</g>
</g>
<!-- Any&#45;&gt;Mu -->
<g id="edge2" class="edge">
<title>Any&#45;&gt;Mu</title>
<path fill="none" stroke="#000000" d="M850.19,-382.67C887.4,-322.21 1014.1,-116.32 1058.81,-43.65"/>
<polygon fill="#000000" stroke="#000000" points="1062.07,-45.04 1064.33,-34.69 1056.1,-41.37 1062.07,-45.04"/>
</g>
</g>
</svg>
