<?xml version="1.0" encoding="UTF-8" standalone="no"?>
<!DOCTYPE svg PUBLIC "-//W3C//DTD SVG 1.1//EN"
 "http://www.w3.org/Graphics/SVG/1.1/DTD/svg11.dtd">
<!-- Generated by graphviz version 2.43.0 (0)
 -->
<!-- Title: perl6&#45;type&#45;graph Pages: 1 -->
<svg width="1451pt" height="1619pt"
 viewBox="0.00 0.00 1450.58 1619.46" xmlns="http://www.w3.org/2000/svg" xmlns:xlink="http://www.w3.org/1999/xlink">
<g id="graph0" class="graph" transform="scale(1 1) rotate(0) translate(4 1615.46)">
<title>perl6&#45;type&#45;graph</title>
<polygon fill="white" stroke="transparent" points="-4,4 -4,-1615.46 1446.58,-1615.46 1446.58,4 -4,4"/>
<!-- Metamodel::DefaultParent -->
<g id="node1" class="node">
<title>Metamodel::DefaultParent</title>
<g id="a_node1"><a xlink:href="/type/Metamodel::DefaultParent" xlink:title="Metamodel::DefaultParent">
<ellipse fill="none" stroke="#6666ff" cx="392.69" cy="-968.06" rx="113.18" ry="18"/>
<text text-anchor="middle" x="392.69" y="-964.36" font-family="FreeSans" font-size="14.00" fill="#6666ff">Metamodel::DefaultParent</text>
</a>
</g>
</g>
<!-- Mu -->
<g id="node2" class="node">
<title>Mu</title>
<g id="a_node2"><a xlink:href="/type/Mu" xlink:title="Mu">
<ellipse fill="none" stroke="#000000" cx="1318.5" cy="-18" rx="27" ry="18"/>
<text text-anchor="middle" x="1318.5" y="-14.3" font-family="FreeSans" font-size="14.00" fill="#000000">Mu</text>
</a>
</g>
</g>
<!-- Any -->
<g id="node3" class="node">
<title>Any</title>
<g id="a_node3"><a xlink:href="/type/Any" xlink:title="Any">
<ellipse fill="none" stroke="#000000" cx="1026.6" cy="-443.81" rx="27" ry="18"/>
<text text-anchor="middle" x="1026.6" y="-440.11" font-family="FreeSans" font-size="14.00" fill="#000000">Any</text>
</a>
</g>
</g>
<!-- Any&#45;&gt;Mu -->
<g id="edge1" class="edge">
<title>Any&#45;&gt;Mu</title>
<path fill="none" stroke="#000000" d="M1037.86,-427.37C1082.55,-362.18 1247.57,-121.47 1301.4,-42.95"/>
<polygon fill="#000000" stroke="#000000" points="1304.35,-44.84 1307.11,-34.61 1298.57,-40.88 1304.35,-44.84"/>
</g>
<!-- Metamodel::Naming -->
<g id="node4" class="node">
<title>Metamodel::Naming</title>
<g id="a_node4"><a xlink:href="/type/Metamodel::Naming" xlink:title="Metamodel::Naming">
<ellipse fill="none" stroke="#6666ff" cx="711.17" cy="-1593.46" rx="90.18" ry="18"/>
<text text-anchor="middle" x="711.17" y="-1589.76" font-family="FreeSans" font-size="14.00" fill="#6666ff">Metamodel::Naming</text>
</a>
</g>
</g>
<!-- Metamodel::Documenting -->
<g id="node5" class="node">
<title>Metamodel::Documenting</title>
<g id="a_node5"><a xlink:href="/type/Metamodel::Documenting" xlink:title="Metamodel::Documenting">
<ellipse fill="none" stroke="#6666ff" cx="1208.65" cy="-1214.36" rx="111.28" ry="18"/>
<text text-anchor="middle" x="1208.65" y="-1210.66" font-family="FreeSans" font-size="14.00" fill="#6666ff">Metamodel::Documenting</text>
</a>
</g>
</g>
<!-- Metamodel::Versioning -->
<g id="node6" class="node">
<title>Metamodel::Versioning</title>
<g id="a_node6"><a xlink:href="/type/Metamodel::Versioning" xlink:title="Metamodel::Versioning">
<ellipse fill="none" stroke="#6666ff" cx="213.39" cy="-1225.57" rx="100.98" ry="18"/>
<text text-anchor="middle" x="213.39" y="-1221.87" font-family="FreeSans" font-size="14.00" fill="#6666ff">Metamodel::Versioning</text>
</a>
</g>
</g>
<!-- Metamodel::Stashing -->
<g id="node7" class="node">
<title>Metamodel::Stashing</title>
<g id="a_node7"><a xlink:href="/type/Metamodel::Stashing" xlink:title="Metamodel::Stashing">
<ellipse fill="none" stroke="#6666ff" cx="272.63" cy="-624.48" rx="93.68" ry="18"/>
<text text-anchor="middle" x="272.63" y="-620.78" font-family="FreeSans" font-size="14.00" fill="#6666ff">Metamodel::Stashing</text>
</a>
</g>
</g>
<!-- Metamodel::AttributeContainer -->
<g id="node8" class="node">
<title>Metamodel::AttributeContainer</title>
<g id="a_node8"><a xlink:href="/type/Metamodel::AttributeContainer" xlink:title="Metamodel::AttributeContainer">
<ellipse fill="none" stroke="#6666ff" cx="1255.66" cy="-885.91" rx="129.98" ry="18"/>
<text text-anchor="middle" x="1255.66" y="-882.21" font-family="FreeSans" font-size="14.00" fill="#6666ff">Metamodel::AttributeContainer</text>
</a>
</g>
</g>
<!-- Metamodel::Finalization -->
<g id="node9" class="node">
<title>Metamodel::Finalization</title>
<g id="a_node9"><a xlink:href="/type/Metamodel::Finalization" xlink:title="Metamodel::Finalization">
<ellipse fill="none" stroke="#6666ff" cx="438.26" cy="-540.45" rx="103.98" ry="18"/>
<text text-anchor="middle" x="438.26" y="-536.75" font-family="FreeSans" font-size="14.00" fill="#6666ff">Metamodel::Finalization</text>
</a>
</g>
</g>
<!-- Metamodel::MethodContainer -->
<g id="node10" class="node">
<title>Metamodel::MethodContainer</title>
<g id="a_node10"><a xlink:href="/type/Metamodel::MethodContainer" xlink:title="Metamodel::MethodContainer">
<ellipse fill="none" stroke="#6666ff" cx="764.1" cy="-520.97" rx="127.28" ry="18"/>
<text text-anchor="middle" x="764.1" y="-517.27" font-family="FreeSans" font-size="14.00" fill="#6666ff">Metamodel::MethodContainer</text>
</a>
</g>
</g>
<!-- Metamodel::PrivateMethodContainer -->
<g id="node11" class="node">
<title>Metamodel::PrivateMethodContainer</title>
<g id="a_node11"><a xlink:href="/type/Metamodel::PrivateMethodContainer" xlink:title="Metamodel::PrivateMethodContainer">
<ellipse fill="none" stroke="#6666ff" cx="593.19" cy="-422.66" rx="154.87" ry="18"/>
<text text-anchor="middle" x="593.19" y="-418.96" font-family="FreeSans" font-size="14.00" fill="#6666ff">Metamodel::PrivateMethodContainer</text>
</a>
</g>
</g>
<!-- Metamodel::MultiMethodContainer -->
<g id="node12" class="node">
<title>Metamodel::MultiMethodContainer</title>
<g id="a_node12"><a xlink:href="/type/Metamodel::MultiMethodContainer" xlink:title="Metamodel::MultiMethodContainer">
<ellipse fill="none" stroke="#6666ff" cx="160.53" cy="-801.26" rx="146.47" ry="18"/>
<text text-anchor="middle" x="160.53" y="-797.56" font-family="FreeSans" font-size="14.00" fill="#6666ff">Metamodel::MultiMethodContainer</text>
</a>
</g>
</g>
<!-- Metamodel::RoleContainer -->
<g id="node13" class="node">
<title>Metamodel::RoleContainer</title>
<g id="a_node13"><a xlink:href="/type/Metamodel::RoleContainer" xlink:title="Metamodel::RoleContainer">
<ellipse fill="none" stroke="#6666ff" cx="1326.89" cy="-1068.85" rx="115.88" ry="18"/>
<text text-anchor="middle" x="1326.89" y="-1065.15" font-family="FreeSans" font-size="14.00" fill="#6666ff">Metamodel::RoleContainer</text>
</a>
</g>
</g>
<!-- Metamodel::MultipleInheritance -->
<g id="node14" class="node">
<title>Metamodel::MultipleInheritance</title>
<g id="a_node14"><a xlink:href="/type/Metamodel::MultipleInheritance" xlink:title="Metamodel::MultipleInheritance">
<ellipse fill="none" stroke="#6666ff" cx="1170.77" cy="-1437.19" rx="133.78" ry="18"/>
<text text-anchor="middle" x="1170.77" y="-1433.49" font-family="FreeSans" font-size="14.00" fill="#6666ff">Metamodel::MultipleInheritance</text>
</a>
</g>
</g>
<!-- Metamodel::C3MRO -->
<g id="node15" class="node">
<title>Metamodel::C3MRO</title>
<g id="a_node15"><a xlink:href="/type/Metamodel::C3MRO" xlink:title="Metamodel::C3MRO">
<ellipse fill="none" stroke="#6666ff" cx="928.53" cy="-1572.64" rx="92.08" ry="18"/>
<text text-anchor="middle" x="928.53" y="-1568.94" font-family="FreeSans" font-size="14.00" fill="#6666ff">Metamodel::C3MRO</text>
</a>
</g>
</g>
<!-- Metamodel::MROBasedMethodDispatch -->
<g id="node16" class="node">
<title>Metamodel::MROBasedMethodDispatch</title>
<g id="a_node16"><a xlink:href="/type/Metamodel::MROBasedMethodDispatch" xlink:title="Metamodel::MROBasedMethodDispatch">
<ellipse fill="none" stroke="#6666ff" cx="900.81" cy="-732.02" rx="169.77" ry="18"/>
<text text-anchor="middle" x="900.81" y="-728.32" font-family="FreeSans" font-size="14.00" fill="#6666ff">Metamodel::MROBasedMethodDispatch</text>
</a>
</g>
</g>
<!-- Metamodel::MROBasedTypeChecking -->
<g id="node17" class="node">
<title>Metamodel::MROBasedTypeChecking</title>
<g id="a_node17"><a xlink:href="/type/Metamodel::MROBasedTypeChecking" xlink:title="Metamodel::MROBasedTypeChecking">
<ellipse fill="none" stroke="#6666ff" cx="1241.61" cy="-688.72" rx="163.27" ry="18"/>
<text text-anchor="middle" x="1241.61" y="-685.02" font-family="FreeSans" font-size="14.00" fill="#6666ff">Metamodel::MROBasedTypeChecking</text>
</a>
</g>
</g>
<!-- Metamodel::Trusting -->
<g id="node18" class="node">
<title>Metamodel::Trusting</title>
<g id="a_node18"><a xlink:href="/type/Metamodel::Trusting" xlink:title="Metamodel::Trusting">
<ellipse fill="none" stroke="#6666ff" cx="277.58" cy="-1424.69" rx="91.78" ry="18"/>
<text text-anchor="middle" x="277.58" y="-1420.99" font-family="FreeSans" font-size="14.00" fill="#6666ff">Metamodel::Trusting</text>
</a>
</g>
</g>
<!-- Metamodel::BUILDPLAN -->
<g id="node19" class="node">
<title>Metamodel::BUILDPLAN</title>
<g id="a_node19"><a xlink:href="/type/Metamodel::BUILDPLAN" xlink:title="Metamodel::BUILDPLAN">
<ellipse fill="none" stroke="#6666ff" cx="109.84" cy="-1036.04" rx="109.68" ry="18"/>
<text text-anchor="middle" x="109.84" y="-1032.34" font-family="FreeSans" font-size="14.00" fill="#6666ff">Metamodel::BUILDPLAN</text>
</a>
</g>
</g>
<!-- Metamodel::Mixins -->
<g id="node20" class="node">
<title>Metamodel::Mixins</title>
<g id="a_node20"><a xlink:href="/type/Metamodel::Mixins" xlink:title="Metamodel::Mixins">
<ellipse fill="none" stroke="#6666ff" cx="486.66" cy="-1559.88" rx="85.29" ry="18"/>
<text text-anchor="middle" x="486.66" y="-1556.18" font-family="FreeSans" font-size="14.00" fill="#6666ff">Metamodel::Mixins</text>
</a>
</g>
</g>
<!-- Metamodel::BoolificationProtocol -->
<g id="node21" class="node">
<title>Metamodel::BoolificationProtocol</title>
<g id="a_node21"><a xlink:href="/type/Metamodel::BoolificationProtocol" xlink:title="Metamodel::BoolificationProtocol">
<ellipse fill="none" stroke="#6666ff" cx="958.78" cy="-1326.99" rx="139.18" ry="18"/>
<text text-anchor="middle" x="958.78" y="-1323.29" font-family="FreeSans" font-size="14.00" fill="#6666ff">Metamodel::BoolificationProtocol</text>
</a>
</g>
</g>
<!-- Metamodel::ClassHOW -->
<g id="node22" class="node">
<title>Metamodel::ClassHOW</title>
<g id="a_node22"><a xlink:href="/type/Metamodel::ClassHOW" xlink:title="Metamodel::ClassHOW">
<ellipse fill="none" stroke="#000000" cx="725.52" cy="-1005.12" rx="103.18" ry="18"/>
<text text-anchor="middle" x="725.52" y="-1001.42" font-family="FreeSans" font-size="14.00" fill="#000000">Metamodel::ClassHOW</text>
</a>
</g>
</g>
<!-- Metamodel::ClassHOW&#45;&gt;Metamodel::DefaultParent -->
<g id="edge15" class="edge">
<title>Metamodel::ClassHOW&#45;&gt;Metamodel::DefaultParent</title>
<path fill="none" stroke="#6666ff" d="M638.07,-995.38C594.38,-990.51 541.24,-984.6 495.59,-979.51"/>
<polygon fill="#6666ff" stroke="#6666ff" points="495.7,-976 485.37,-978.38 494.92,-982.96 495.7,-976"/>
</g>
<!-- Metamodel::ClassHOW&#45;&gt;Any -->
<g id="edge2" class="edge">
<title>Metamodel::ClassHOW&#45;&gt;Any</title>
<path fill="none" stroke="#000000" d="M725.79,-986.77C726.7,-925.5 729.58,-731.89 729.58,-731.89 729.58,-731.89 933.88,-533.73 1003.6,-466.11"/>
<polygon fill="#000000" stroke="#000000" points="1006.3,-468.36 1011.05,-458.89 1001.43,-463.34 1006.3,-468.36"/>
</g>
<!-- Metamodel::ClassHOW&#45;&gt;Metamodel::Naming -->
<g id="edge4" class="edge">
<title>Metamodel::ClassHOW&#45;&gt;Metamodel::Naming</title>
<path fill="none" stroke="#6666ff" d="M725.08,-1023.37C723.01,-1107.96 714.38,-1462.06 711.86,-1565.17"/>
<polygon fill="#6666ff" stroke="#6666ff" points="708.36,-1565.34 711.61,-1575.42 715.35,-1565.51 708.36,-1565.34"/>
</g>
<!-- Metamodel::ClassHOW&#45;&gt;Metamodel::Documenting -->
<g id="edge5" class="edge">
<title>Metamodel::ClassHOW&#45;&gt;Metamodel::Documenting</title>
<path fill="none" stroke="#6666ff" d="M764.24,-1021.89C851.68,-1059.75 1064.25,-1151.82 1160.22,-1193.38"/>
<polygon fill="#6666ff" stroke="#6666ff" points="1158.84,-1196.6 1169.41,-1197.36 1161.62,-1190.18 1158.84,-1196.6"/>
</g>
<!-- Metamodel::ClassHOW&#45;&gt;Metamodel::Versioning -->
<g id="edge6" class="edge">
<title>Metamodel::ClassHOW&#45;&gt;Metamodel::Versioning</title>
<path fill="none" stroke="#6666ff" d="M686.61,-1021.87C594.35,-1061.58 362.52,-1161.38 261.59,-1204.82"/>
<polygon fill="#6666ff" stroke="#6666ff" points="260.04,-1201.68 252.24,-1208.85 262.81,-1208.11 260.04,-1201.68"/>
</g>
<!-- Metamodel::ClassHOW&#45;&gt;Metamodel::Stashing -->
<g id="edge7" class="edge">
<title>Metamodel::ClassHOW&#45;&gt;Metamodel::Stashing</title>
<path fill="none" stroke="#6666ff" d="M704.29,-987.27C630.58,-925.32 385.72,-719.53 301.43,-648.69"/>
<polygon fill="#6666ff" stroke="#6666ff" points="303.47,-645.82 293.56,-642.07 298.96,-651.18 303.47,-645.82"/>
</g>
<!-- Metamodel::ClassHOW&#45;&gt;Metamodel::AttributeContainer -->
<g id="edge8" class="edge">
<title>Metamodel::ClassHOW&#45;&gt;Metamodel::AttributeContainer</title>
<path fill="none" stroke="#6666ff" d="M788.94,-990.86C886.12,-969 1071.67,-927.28 1177.19,-903.55"/>
<polygon fill="#6666ff" stroke="#6666ff" points="1178.15,-906.92 1187.14,-901.31 1176.62,-900.09 1178.15,-906.92"/>
</g>
<!-- Metamodel::ClassHOW&#45;&gt;Metamodel::Finalization -->
<g id="edge9" class="edge">
<title>Metamodel::ClassHOW&#45;&gt;Metamodel::Finalization</title>
<path fill="none" stroke="#6666ff" d="M714.44,-987.19C670.36,-915.9 507.4,-652.3 454.77,-567.16"/>
<polygon fill="#6666ff" stroke="#6666ff" points="457.7,-565.25 449.46,-558.58 451.74,-568.93 457.7,-565.25"/>
</g>
<!-- Metamodel::ClassHOW&#45;&gt;Metamodel::MethodContainer -->
<g id="edge10" class="edge">
<title>Metamodel::ClassHOW&#45;&gt;Metamodel::MethodContainer</title>
<path fill="none" stroke="#6666ff" d="M725.79,-986.77C726.7,-925.5 729.58,-731.89 729.58,-731.89 729.58,-731.89 750.07,-606.7 759.48,-549.22"/>
<polygon fill="#6666ff" stroke="#6666ff" points="762.94,-549.75 761.1,-539.32 756.03,-548.62 762.94,-549.75"/>
</g>
<!-- Metamodel::ClassHOW&#45;&gt;Metamodel::PrivateMethodContainer -->
<g id="edge11" class="edge">
<title>Metamodel::ClassHOW&#45;&gt;Metamodel::PrivateMethodContainer</title>
<path fill="none" stroke="#6666ff" d="M721.42,-987.05C702.39,-903.31 622.76,-552.81 599.56,-450.69"/>
<polygon fill="#6666ff" stroke="#6666ff" points="602.95,-449.78 597.32,-440.81 596.12,-451.33 602.95,-449.78"/>
</g>
<!-- Metamodel::ClassHOW&#45;&gt;Metamodel::MultiMethodContainer -->
<g id="edge12" class="edge">
<title>Metamodel::ClassHOW&#45;&gt;Metamodel::MultiMethodContainer</title>
<path fill="none" stroke="#6666ff" d="M680.24,-988.78C578.08,-951.92 329.86,-862.35 217.49,-821.81"/>
<polygon fill="#6666ff" stroke="#6666ff" points="218.61,-818.49 208.01,-818.39 216.23,-825.07 218.61,-818.49"/>
</g>
<!-- Metamodel::ClassHOW&#45;&gt;Metamodel::RoleContainer -->
<g id="edge13" class="edge">
<title>Metamodel::ClassHOW&#45;&gt;Metamodel::RoleContainer</title>
<path fill="none" stroke="#6666ff" d="M813.93,-1014.49C922.16,-1025.96 1105.27,-1045.36 1220.93,-1057.62"/>
<polygon fill="#6666ff" stroke="#6666ff" points="1220.9,-1061.14 1231.22,-1058.71 1221.64,-1054.18 1220.9,-1061.14"/>
</g>
<!-- Metamodel::ClassHOW&#45;&gt;Metamodel::MultipleInheritance -->
<g id="edge14" class="edge">
<title>Metamodel::ClassHOW&#45;&gt;Metamodel::MultipleInheritance</title>
<path fill="none" stroke="#6666ff" d="M746.16,-1022.88C824.55,-1090.37 1099.47,-1327.05 1099.47,-1327.05 1099.47,-1327.05 1132.28,-1377.74 1153.39,-1410.34"/>
<polygon fill="#6666ff" stroke="#6666ff" points="1150.62,-1412.51 1158.99,-1419 1156.5,-1408.71 1150.62,-1412.51"/>
</g>
<!-- Metamodel::ClassHOW&#45;&gt;Metamodel::C3MRO -->
<g id="edge16" class="edge">
<title>Metamodel::ClassHOW&#45;&gt;Metamodel::C3MRO</title>
<path fill="none" stroke="#6666ff" d="M730.76,-1023.34C750.35,-1091.42 818.09,-1326.94 818.09,-1326.94 818.09,-1326.94 887.3,-1480.91 916.15,-1545.08"/>
<polygon fill="#6666ff" stroke="#6666ff" points="913.12,-1546.88 920.41,-1554.57 919.51,-1544.02 913.12,-1546.88"/>
</g>
<!-- Metamodel::ClassHOW&#45;&gt;Metamodel::MROBasedMethodDispatch -->
<g id="edge17" class="edge">
<title>Metamodel::ClassHOW&#45;&gt;Metamodel::MROBasedMethodDispatch</title>
<path fill="none" stroke="#6666ff" d="M737.02,-987.2C767.11,-940.32 848.26,-813.89 883.78,-758.56"/>
<polygon fill="#6666ff" stroke="#6666ff" points="886.81,-760.31 889.27,-750 880.92,-756.53 886.81,-760.31"/>
</g>
<!-- Metamodel::ClassHOW&#45;&gt;Metamodel::MROBasedTypeChecking -->
<g id="edge18" class="edge">
<title>Metamodel::ClassHOW&#45;&gt;Metamodel::MROBasedTypeChecking</title>
<path fill="none" stroke="#6666ff" d="M754,-987.65C841.3,-934.14 1105.16,-772.37 1203.84,-711.88"/>
<polygon fill="#6666ff" stroke="#6666ff" points="1205.89,-714.73 1212.58,-706.52 1202.23,-708.76 1205.89,-714.73"/>
</g>
<!-- Metamodel::ClassHOW&#45;&gt;Metamodel::Trusting -->
<g id="edge19" class="edge">
<title>Metamodel::ClassHOW&#45;&gt;Metamodel::Trusting</title>
<path fill="none" stroke="#6666ff" d="M706.56,-1022.88C635.66,-1089.29 386.03,-1323.11 303.95,-1399.99"/>
<polygon fill="#6666ff" stroke="#6666ff" points="301.45,-1397.54 296.55,-1406.93 306.24,-1402.65 301.45,-1397.54"/>
</g>
<!-- Metamodel::ClassHOW&#45;&gt;Metamodel::BUILDPLAN -->
<g id="edge20" class="edge">
<title>Metamodel::ClassHOW&#45;&gt;Metamodel::BUILDPLAN</title>
<path fill="none" stroke="#6666ff" d="M625.92,-1010.12C516.4,-1015.62 340.69,-1024.45 225.26,-1030.24"/>
<polygon fill="#6666ff" stroke="#6666ff" points="224.78,-1026.76 214.97,-1030.76 225.13,-1033.75 224.78,-1026.76"/>
</g>
<!-- Metamodel::ClassHOW&#45;&gt;Metamodel::Mixins -->
<g id="edge21" class="edge">
<title>Metamodel::ClassHOW&#45;&gt;Metamodel::Mixins</title>
<path fill="none" stroke="#6666ff" d="M722.03,-1023.25C709.62,-1087.75 668.37,-1302.18 668.37,-1302.18 668.37,-1302.18 551.53,-1467.89 505.23,-1533.54"/>
<polygon fill="#6666ff" stroke="#6666ff" points="502.34,-1531.57 499.44,-1541.76 508.06,-1535.6 502.34,-1531.57"/>
</g>
<!-- Metamodel::ClassHOW&#45;&gt;Metamodel::BoolificationProtocol -->
<g id="edge22" class="edge">
<title>Metamodel::ClassHOW&#45;&gt;Metamodel::BoolificationProtocol</title>
<path fill="none" stroke="#6666ff" d="M738.73,-1023.34C777.94,-1077.45 893.79,-1237.31 939.71,-1300.69"/>
<polygon fill="#6666ff" stroke="#6666ff" points="937.01,-1302.92 945.71,-1308.97 942.68,-1298.82 937.01,-1302.92"/>
</g>
<!-- Metamodel::GrammarHOW -->
<g id="node23" class="node">
<title>Metamodel::GrammarHOW</title>
<g id="a_node23"><a xlink:href="/type/Metamodel::GrammarHOW" xlink:title="Metamodel::GrammarHOW">
<ellipse fill="none" stroke="#000000" cx="548.48" cy="-1302.03" rx="118.08" ry="18"/>
<text text-anchor="middle" x="548.48" y="-1298.33" font-family="FreeSans" font-size="14.00" fill="#000000">Metamodel::GrammarHOW</text>
</a>
</g>
</g>
<!-- Metamodel::GrammarHOW&#45;&gt;Metamodel::DefaultParent -->
<g id="edge23" class="edge">
<title>Metamodel::GrammarHOW&#45;&gt;Metamodel::DefaultParent</title>
<path fill="none" stroke="#6666ff" d="M540.1,-1284.08C514.37,-1228.92 436.36,-1061.68 405.47,-995.47"/>
<polygon fill="#6666ff" stroke="#6666ff" points="408.5,-993.68 401.1,-986.1 402.16,-996.64 408.5,-993.68"/>
</g>
<!-- Metamodel::GrammarHOW&#45;&gt;Metamodel::ClassHOW -->
<g id="edge3" class="edge">
<title>Metamodel::GrammarHOW&#45;&gt;Metamodel::ClassHOW</title>
<path fill="none" stroke="#000000" d="M559.29,-1283.9C589.29,-1233.59 673.73,-1091.98 709.35,-1032.24"/>
<polygon fill="#000000" stroke="#000000" points="712.51,-1033.76 714.63,-1023.38 706.5,-1030.18 712.51,-1033.76"/>
</g>
</g>
</svg>
