<?xml version="1.0" encoding="UTF-8" standalone="no"?>
<!DOCTYPE svg PUBLIC "-//W3C//DTD SVG 1.1//EN"
 "http://www.w3.org/Graphics/SVG/1.1/DTD/svg11.dtd">
<!-- Generated by graphviz version 2.43.0 (0)
 -->
<!-- Title: perl6&#45;type&#45;graph Pages: 1 -->
<svg width="536pt" height="589pt"
 viewBox="0.00 0.00 536.35 589.48" xmlns="http://www.w3.org/2000/svg" xmlns:xlink="http://www.w3.org/1999/xlink">
<g id="graph0" class="graph" transform="scale(1 1) rotate(0) translate(4 585.48)">
<title>perl6&#45;type&#45;graph</title>
<polygon fill="white" stroke="transparent" points="-4,4 -4,-585.48 532.35,-585.48 532.35,4 -4,4"/>
<!-- Metamodel::SubsetHOW -->
<g id="node1" class="node">
<title>Metamodel::SubsetHOW</title>
<g id="a_node1"><a xlink:href="/type/Metamodel::SubsetHOW" xlink:title="Metamodel::SubsetHOW">
<ellipse fill="none" stroke="#000000" cx="297.25" cy="-390.25" rx="108.58" ry="18"/>
<text text-anchor="middle" x="297.25" y="-386.55" font-family="FreeSans" font-size="14.00" fill="#000000">Metamodel::SubsetHOW</text>
</a>
</g>
</g>
<!-- Any -->
<g id="node3" class="node">
<title>Any</title>
<g id="a_node3"><a xlink:href="/type/Any" xlink:title="Any">
<ellipse fill="none" stroke="#000000" cx="374.92" cy="-197.29" rx="27" ry="18"/>
<text text-anchor="middle" x="374.92" y="-193.59" font-family="FreeSans" font-size="14.00" fill="#000000">Any</text>
</a>
</g>
</g>
<!-- Metamodel::SubsetHOW&#45;&gt;Any -->
<g id="edge1" class="edge">
<title>Metamodel::SubsetHOW&#45;&gt;Any</title>
<path fill="none" stroke="#000000" d="M304.55,-372.1C318.31,-337.93 348.09,-263.95 364.15,-224.06"/>
<polygon fill="#000000" stroke="#000000" points="367.43,-225.28 367.92,-214.7 360.93,-222.67 367.43,-225.28"/>
</g>
<!-- Metamodel::Naming -->
<g id="node4" class="node">
<title>Metamodel::Naming</title>
<g id="a_node4"><a xlink:href="/type/Metamodel::Naming" xlink:title="Metamodel::Naming">
<ellipse fill="none" stroke="#6666ff" cx="90.34" cy="-429.7" rx="90.18" ry="18"/>
<text text-anchor="middle" x="90.34" y="-426" font-family="FreeSans" font-size="14.00" fill="#6666ff">Metamodel::Naming</text>
</a>
</g>
</g>
<!-- Metamodel::SubsetHOW&#45;&gt;Metamodel::Naming -->
<g id="edge3" class="edge">
<title>Metamodel::SubsetHOW&#45;&gt;Metamodel::Naming</title>
<path fill="none" stroke="#6666ff" d="M225.75,-403.88C206.45,-407.56 185.51,-411.55 166,-415.27"/>
<polygon fill="#6666ff" stroke="#6666ff" points="165.1,-411.88 155.94,-417.19 166.42,-418.76 165.1,-411.88"/>
</g>
<!-- Metamodel::Documenting -->
<g id="node5" class="node">
<title>Metamodel::Documenting</title>
<g id="a_node5"><a xlink:href="/type/Metamodel::Documenting" xlink:title="Metamodel::Documenting">
<ellipse fill="none" stroke="#6666ff" cx="417.21" cy="-563.48" rx="111.28" ry="18"/>
<text text-anchor="middle" x="417.21" y="-559.78" font-family="FreeSans" font-size="14.00" fill="#6666ff">Metamodel::Documenting</text>
</a>
</g>
</g>
<!-- Metamodel::SubsetHOW&#45;&gt;Metamodel::Documenting -->
<g id="edge4" class="edge">
<title>Metamodel::SubsetHOW&#45;&gt;Metamodel::Documenting</title>
<path fill="none" stroke="#6666ff" d="M309.63,-408.14C330.82,-438.74 374.14,-501.28 398.85,-536.97"/>
<polygon fill="#6666ff" stroke="#6666ff" points="396.14,-539.2 404.71,-545.43 401.89,-535.22 396.14,-539.2"/>
</g>
<!-- Mu -->
<g id="node2" class="node">
<title>Mu</title>
<g id="a_node2"><a xlink:href="/type/Mu" xlink:title="Mu">
<ellipse fill="none" stroke="#000000" cx="459.82" cy="-18" rx="27" ry="18"/>
<text text-anchor="middle" x="459.82" y="-14.3" font-family="FreeSans" font-size="14.00" fill="#000000">Mu</text>
</a>
</g>
</g>
<!-- Any&#45;&gt;Mu -->
<g id="edge2" class="edge">
<title>Any&#45;&gt;Mu</title>
<path fill="none" stroke="#000000" d="M383.06,-180.1C397.92,-148.72 429.53,-81.97 447.2,-44.66"/>
<polygon fill="#000000" stroke="#000000" points="450.46,-45.94 451.58,-35.4 444.13,-42.94 450.46,-45.94"/>
</g>
</g>
</svg>
