<?xml version="1.0" encoding="UTF-8" standalone="no"?>
<!DOCTYPE svg PUBLIC "-//W3C//DTD SVG 1.1//EN"
 "http://www.w3.org/Graphics/SVG/1.1/DTD/svg11.dtd">
<!-- Generated by graphviz version 2.43.0 (0)
 -->
<!-- Title: perl6&#45;type&#45;graph Pages: 1 -->
<svg width="1802pt" height="1490pt"
 viewBox="0.00 0.00 1802.09 1489.89" xmlns="http://www.w3.org/2000/svg" xmlns:xlink="http://www.w3.org/1999/xlink">
<g id="graph0" class="graph" transform="scale(1 1) rotate(0) translate(4 1485.89)">
<title>perl6&#45;type&#45;graph</title>
<polygon fill="white" stroke="transparent" points="-4,4 -4,-1485.89 1798.09,-1485.89 1798.09,4 -4,4"/>
<!-- Metamodel::Documenting -->
<g id="node1" class="node">
<title>Metamodel::Documenting</title>
<g id="a_node1"><a xlink:href="/type/Metamodel::Documenting" xlink:title="Metamodel::Documenting">
<ellipse fill="none" stroke="#6666ff" cx="882.94" cy="-594.86" rx="111.28" ry="18"/>
<text text-anchor="middle" x="882.94" y="-591.16" font-family="FreeSans" font-size="14.00" fill="#6666ff">Metamodel::Documenting</text>
</a>
</g>
</g>
<!-- Mu -->
<g id="node2" class="node">
<title>Mu</title>
<g id="a_node2"><a xlink:href="/type/Mu" xlink:title="Mu">
<ellipse fill="none" stroke="#000000" cx="896.08" cy="-18" rx="27" ry="18"/>
<text text-anchor="middle" x="896.08" y="-14.3" font-family="FreeSans" font-size="14.00" fill="#000000">Mu</text>
</a>
</g>
</g>
<!-- Any -->
<g id="node3" class="node">
<title>Any</title>
<g id="a_node3"><a xlink:href="/type/Any" xlink:title="Any">
<ellipse fill="none" stroke="#000000" cx="888.01" cy="-506.56" rx="27" ry="18"/>
<text text-anchor="middle" x="888.01" y="-502.86" font-family="FreeSans" font-size="14.00" fill="#000000">Any</text>
</a>
</g>
</g>
<!-- Any&#45;&gt;Mu -->
<g id="edge1" class="edge">
<title>Any&#45;&gt;Mu</title>
<path fill="none" stroke="#000000" d="M888.31,-488.3C889.53,-414.3 894.13,-136.39 895.61,-46.35"/>
<polygon fill="#000000" stroke="#000000" points="899.12,-46.15 895.78,-36.09 892.12,-46.03 899.12,-46.15"/>
</g>
<!-- Metamodel::Naming -->
<g id="node4" class="node">
<title>Metamodel::Naming</title>
<g id="a_node4"><a xlink:href="/type/Metamodel::Naming" xlink:title="Metamodel::Naming">
<ellipse fill="none" stroke="#6666ff" cx="991" cy="-682.63" rx="90.18" ry="18"/>
<text text-anchor="middle" x="991" y="-678.93" font-family="FreeSans" font-size="14.00" fill="#6666ff">Metamodel::Naming</text>
</a>
</g>
</g>
<!-- Metamodel::SubsetHOW -->
<g id="node5" class="node">
<title>Metamodel::SubsetHOW</title>
<g id="a_node5"><a xlink:href="/type/Metamodel::SubsetHOW" xlink:title="Metamodel::SubsetHOW">
<ellipse fill="none" stroke="#000000" cx="1097.38" cy="-218.94" rx="108.58" ry="18"/>
<text text-anchor="middle" x="1097.38" y="-215.24" font-family="FreeSans" font-size="14.00" fill="#000000">Metamodel::SubsetHOW</text>
</a>
</g>
</g>
<!-- Metamodel::SubsetHOW&#45;&gt;Metamodel::Documenting -->
<g id="edge10" class="edge">
<title>Metamodel::SubsetHOW&#45;&gt;Metamodel::Documenting</title>
<path fill="none" stroke="#6666ff" d="M1087.04,-237.07C1052.29,-297.99 939.6,-495.53 898.3,-567.94"/>
<polygon fill="#6666ff" stroke="#6666ff" points="895.09,-566.49 893.18,-576.91 901.17,-569.96 895.09,-566.49"/>
</g>
<!-- Metamodel::SubsetHOW&#45;&gt;Any -->
<g id="edge2" class="edge">
<title>Metamodel::SubsetHOW&#45;&gt;Any</title>
<path fill="none" stroke="#000000" d="M1084.28,-236.93C1048.25,-286.43 947.59,-424.71 906.17,-481.61"/>
<polygon fill="#000000" stroke="#000000" points="903.1,-479.88 900.05,-490.02 908.76,-484 903.1,-479.88"/>
</g>
<!-- Metamodel::SubsetHOW&#45;&gt;Metamodel::Naming -->
<g id="edge9" class="edge">
<title>Metamodel::SubsetHOW&#45;&gt;Metamodel::Naming</title>
<path fill="none" stroke="#6666ff" d="M1093.21,-237.12C1076.87,-308.32 1017.16,-568.6 997.4,-654.74"/>
<polygon fill="#6666ff" stroke="#6666ff" points="993.96,-654.05 995.14,-664.58 1000.79,-655.62 993.96,-654.05"/>
</g>
<!-- Metamodel::Versioning -->
<g id="node6" class="node">
<title>Metamodel::Versioning</title>
<g id="a_node6"><a xlink:href="/type/Metamodel::Versioning" xlink:title="Metamodel::Versioning">
<ellipse fill="none" stroke="#6666ff" cx="886.34" cy="-895.46" rx="100.98" ry="18"/>
<text text-anchor="middle" x="886.34" y="-891.76" font-family="FreeSans" font-size="14.00" fill="#6666ff">Metamodel::Versioning</text>
</a>
</g>
</g>
<!-- Metamodel::Stashing -->
<g id="node7" class="node">
<title>Metamodel::Stashing</title>
<g id="a_node7"><a xlink:href="/type/Metamodel::Stashing" xlink:title="Metamodel::Stashing">
<ellipse fill="none" stroke="#6666ff" cx="956.61" cy="-788.54" rx="93.68" ry="18"/>
<text text-anchor="middle" x="956.61" y="-784.84" font-family="FreeSans" font-size="14.00" fill="#6666ff">Metamodel::Stashing</text>
</a>
</g>
</g>
<!-- Metamodel::MultipleInheritance -->
<g id="node8" class="node">
<title>Metamodel::MultipleInheritance</title>
<g id="a_node8"><a xlink:href="/type/Metamodel::MultipleInheritance" xlink:title="Metamodel::MultipleInheritance">
<ellipse fill="none" stroke="#6666ff" cx="647.49" cy="-814.43" rx="133.78" ry="18"/>
<text text-anchor="middle" x="647.49" y="-810.73" font-family="FreeSans" font-size="14.00" fill="#6666ff">Metamodel::MultipleInheritance</text>
</a>
</g>
</g>
<!-- Metamodel::C3MRO -->
<g id="node9" class="node">
<title>Metamodel::C3MRO</title>
<g id="a_node9"><a xlink:href="/type/Metamodel::C3MRO" xlink:title="Metamodel::C3MRO">
<ellipse fill="none" stroke="#6666ff" cx="284.49" cy="-740.65" rx="92.08" ry="18"/>
<text text-anchor="middle" x="284.49" y="-736.95" font-family="FreeSans" font-size="14.00" fill="#6666ff">Metamodel::C3MRO</text>
</a>
</g>
</g>
<!-- Metamodel::MROBasedMethodDispatch -->
<g id="node10" class="node">
<title>Metamodel::MROBasedMethodDispatch</title>
<g id="a_node10"><a xlink:href="/type/Metamodel::MROBasedMethodDispatch" xlink:title="Metamodel::MROBasedMethodDispatch">
<ellipse fill="none" stroke="#6666ff" cx="311.72" cy="-534.71" rx="169.77" ry="18"/>
<text text-anchor="middle" x="311.72" y="-531.01" font-family="FreeSans" font-size="14.00" fill="#6666ff">Metamodel::MROBasedMethodDispatch</text>
</a>
</g>
</g>
<!-- Metamodel::MROBasedTypeChecking -->
<g id="node11" class="node">
<title>Metamodel::MROBasedTypeChecking</title>
<g id="a_node11"><a xlink:href="/type/Metamodel::MROBasedTypeChecking" xlink:title="Metamodel::MROBasedTypeChecking">
<ellipse fill="none" stroke="#6666ff" cx="212.36" cy="-617.93" rx="163.27" ry="18"/>
<text text-anchor="middle" x="212.36" y="-614.23" font-family="FreeSans" font-size="14.00" fill="#6666ff">Metamodel::MROBasedTypeChecking</text>
</a>
</g>
</g>
<!-- Metamodel::NativeHOW -->
<g id="node12" class="node">
<title>Metamodel::NativeHOW</title>
<g id="a_node12"><a xlink:href="/type/Metamodel::NativeHOW" xlink:title="Metamodel::NativeHOW">
<ellipse fill="none" stroke="#000000" cx="605.29" cy="-467.07" rx="106.68" ry="18"/>
<text text-anchor="middle" x="605.29" y="-463.37" font-family="FreeSans" font-size="14.00" fill="#000000">Metamodel::NativeHOW</text>
</a>
</g>
</g>
<!-- Metamodel::NativeHOW&#45;&gt;Metamodel::Documenting -->
<g id="edge12" class="edge">
<title>Metamodel::NativeHOW&#45;&gt;Metamodel::Documenting</title>
<path fill="none" stroke="#6666ff" d="M642.16,-484.04C692.36,-507.14 782.2,-548.49 836.81,-573.63"/>
<polygon fill="#6666ff" stroke="#6666ff" points="835.37,-576.82 845.92,-577.82 838.3,-570.46 835.37,-576.82"/>
</g>
<!-- Metamodel::NativeHOW&#45;&gt;Any -->
<g id="edge3" class="edge">
<title>Metamodel::NativeHOW&#45;&gt;Any</title>
<path fill="none" stroke="#000000" d="M687.44,-478.54C741.59,-486.1 809.87,-495.64 851.18,-501.41"/>
<polygon fill="#000000" stroke="#000000" points="850.93,-504.91 861.32,-502.83 851.9,-497.98 850.93,-504.91"/>
</g>
<!-- Metamodel::NativeHOW&#45;&gt;Metamodel::Naming -->
<g id="edge11" class="edge">
<title>Metamodel::NativeHOW&#45;&gt;Metamodel::Naming</title>
<path fill="none" stroke="#6666ff" d="M628.22,-484.82C673.53,-519.9 770.2,-594.75 770.2,-594.75 770.2,-594.75 802.77,-608.64 802.77,-608.64 802.77,-608.64 885,-640.97 940.76,-662.89"/>
<polygon fill="#6666ff" stroke="#6666ff" points="939.57,-666.18 950.15,-666.58 942.13,-659.66 939.57,-666.18"/>
</g>
<!-- Metamodel::NativeHOW&#45;&gt;Metamodel::Versioning -->
<g id="edge13" class="edge">
<title>Metamodel::NativeHOW&#45;&gt;Metamodel::Versioning</title>
<path fill="none" stroke="#6666ff" d="M617.18,-485.2C661.45,-552.67 816.76,-789.4 869.03,-869.07"/>
<polygon fill="#6666ff" stroke="#6666ff" points="866.19,-871.12 874.6,-877.56 872.04,-867.28 866.19,-871.12"/>
</g>
<!-- Metamodel::NativeHOW&#45;&gt;Metamodel::Stashing -->
<g id="edge14" class="edge">
<title>Metamodel::NativeHOW&#45;&gt;Metamodel::Stashing</title>
<path fill="none" stroke="#6666ff" d="M624.68,-484.81C683.7,-538.82 861.31,-701.33 929.52,-763.75"/>
<polygon fill="#6666ff" stroke="#6666ff" points="927.54,-766.69 937.28,-770.85 932.27,-761.52 927.54,-766.69"/>
</g>
<!-- Metamodel::NativeHOW&#45;&gt;Metamodel::MultipleInheritance -->
<g id="edge15" class="edge">
<title>Metamodel::NativeHOW&#45;&gt;Metamodel::MultipleInheritance</title>
<path fill="none" stroke="#6666ff" d="M607.5,-485.25C614.42,-542.23 635.72,-717.56 644.07,-786.34"/>
<polygon fill="#6666ff" stroke="#6666ff" points="640.62,-786.92 645.3,-796.42 647.57,-786.08 640.62,-786.92"/>
</g>
<!-- Metamodel::NativeHOW&#45;&gt;Metamodel::C3MRO -->
<g id="edge16" class="edge">
<title>Metamodel::NativeHOW&#45;&gt;Metamodel::C3MRO</title>
<path fill="none" stroke="#6666ff" d="M584.24,-485.02C528.36,-532.67 376.24,-662.4 312.83,-716.48"/>
<polygon fill="#6666ff" stroke="#6666ff" points="310.53,-713.84 305.19,-722.99 315.07,-719.16 310.53,-713.84"/>
</g>
<!-- Metamodel::NativeHOW&#45;&gt;Metamodel::MROBasedMethodDispatch -->
<g id="edge17" class="edge">
<title>Metamodel::NativeHOW&#45;&gt;Metamodel::MROBasedMethodDispatch</title>
<path fill="none" stroke="#6666ff" d="M541.95,-481.66C498.28,-491.72 439.86,-505.18 392.8,-516.03"/>
<polygon fill="#6666ff" stroke="#6666ff" points="391.89,-512.65 382.93,-518.3 393.46,-519.47 391.89,-512.65"/>
</g>
<!-- Metamodel::NativeHOW&#45;&gt;Metamodel::MROBasedTypeChecking -->
<g id="edge18" class="edge">
<title>Metamodel::NativeHOW&#45;&gt;Metamodel::MROBasedTypeChecking</title>
<path fill="none" stroke="#6666ff" d="M574.1,-484.33C537.86,-504.39 482.96,-534.78 482.96,-534.78 482.96,-534.78 357.87,-573.22 277.79,-597.83"/>
<polygon fill="#6666ff" stroke="#6666ff" points="276.31,-594.62 267.78,-600.9 278.36,-601.31 276.31,-594.62"/>
</g>
<!-- Metamodel::AttributeContainer -->
<g id="node13" class="node">
<title>Metamodel::AttributeContainer</title>
<g id="a_node13"><a xlink:href="/type/Metamodel::AttributeContainer" xlink:title="Metamodel::AttributeContainer">
<ellipse fill="none" stroke="#6666ff" cx="969.43" cy="-1378.12" rx="129.98" ry="18"/>
<text text-anchor="middle" x="969.43" y="-1374.42" font-family="FreeSans" font-size="14.00" fill="#6666ff">Metamodel::AttributeContainer</text>
</a>
</g>
</g>
<!-- Metamodel::Finalization -->
<g id="node14" class="node">
<title>Metamodel::Finalization</title>
<g id="a_node14"><a xlink:href="/type/Metamodel::Finalization" xlink:title="Metamodel::Finalization">
<ellipse fill="none" stroke="#6666ff" cx="449.8" cy="-1463.89" rx="103.98" ry="18"/>
<text text-anchor="middle" x="449.8" y="-1460.19" font-family="FreeSans" font-size="14.00" fill="#6666ff">Metamodel::Finalization</text>
</a>
</g>
</g>
<!-- Metamodel::MethodContainer -->
<g id="node15" class="node">
<title>Metamodel::MethodContainer</title>
<g id="a_node15"><a xlink:href="/type/Metamodel::MethodContainer" xlink:title="Metamodel::MethodContainer">
<ellipse fill="none" stroke="#6666ff" cx="752.69" cy="-1422.12" rx="127.28" ry="18"/>
<text text-anchor="middle" x="752.69" y="-1418.42" font-family="FreeSans" font-size="14.00" fill="#6666ff">Metamodel::MethodContainer</text>
</a>
</g>
</g>
<!-- Metamodel::PrivateMethodContainer -->
<g id="node16" class="node">
<title>Metamodel::PrivateMethodContainer</title>
<g id="a_node16"><a xlink:href="/type/Metamodel::PrivateMethodContainer" xlink:title="Metamodel::PrivateMethodContainer">
<ellipse fill="none" stroke="#6666ff" cx="816.96" cy="-1206.22" rx="154.87" ry="18"/>
<text text-anchor="middle" x="816.96" y="-1202.52" font-family="FreeSans" font-size="14.00" fill="#6666ff">Metamodel::PrivateMethodContainer</text>
</a>
</g>
</g>
<!-- Metamodel::MultiMethodContainer -->
<g id="node17" class="node">
<title>Metamodel::MultiMethodContainer</title>
<g id="a_node17"><a xlink:href="/type/Metamodel::MultiMethodContainer" xlink:title="Metamodel::MultiMethodContainer">
<ellipse fill="none" stroke="#6666ff" cx="1029.45" cy="-1271.78" rx="146.47" ry="18"/>
<text text-anchor="middle" x="1029.45" y="-1268.08" font-family="FreeSans" font-size="14.00" fill="#6666ff">Metamodel::MultiMethodContainer</text>
</a>
</g>
</g>
<!-- Metamodel::RoleContainer -->
<g id="node18" class="node">
<title>Metamodel::RoleContainer</title>
<g id="a_node18"><a xlink:href="/type/Metamodel::RoleContainer" xlink:title="Metamodel::RoleContainer">
<ellipse fill="none" stroke="#6666ff" cx="669.06" cy="-1307.61" rx="115.88" ry="18"/>
<text text-anchor="middle" x="669.06" y="-1303.91" font-family="FreeSans" font-size="14.00" fill="#6666ff">Metamodel::RoleContainer</text>
</a>
</g>
</g>
<!-- Metamodel::DefaultParent -->
<g id="node19" class="node">
<title>Metamodel::DefaultParent</title>
<g id="a_node19"><a xlink:href="/type/Metamodel::DefaultParent" xlink:title="Metamodel::DefaultParent">
<ellipse fill="none" stroke="#6666ff" cx="138.76" cy="-1145.18" rx="113.18" ry="18"/>
<text text-anchor="middle" x="138.76" y="-1141.48" font-family="FreeSans" font-size="14.00" fill="#6666ff">Metamodel::DefaultParent</text>
</a>
</g>
</g>
<!-- Metamodel::Trusting -->
<g id="node20" class="node">
<title>Metamodel::Trusting</title>
<g id="a_node20"><a xlink:href="/type/Metamodel::Trusting" xlink:title="Metamodel::Trusting">
<ellipse fill="none" stroke="#6666ff" cx="227.77" cy="-1261.08" rx="91.78" ry="18"/>
<text text-anchor="middle" x="227.77" y="-1257.38" font-family="FreeSans" font-size="14.00" fill="#6666ff">Metamodel::Trusting</text>
</a>
</g>
</g>
<!-- Metamodel::BUILDPLAN -->
<g id="node21" class="node">
<title>Metamodel::BUILDPLAN</title>
<g id="a_node21"><a xlink:href="/type/Metamodel::BUILDPLAN" xlink:title="Metamodel::BUILDPLAN">
<ellipse fill="none" stroke="#6666ff" cx="120.73" cy="-999.8" rx="109.68" ry="18"/>
<text text-anchor="middle" x="120.73" y="-996.1" font-family="FreeSans" font-size="14.00" fill="#6666ff">Metamodel::BUILDPLAN</text>
</a>
</g>
</g>
<!-- Metamodel::Mixins -->
<g id="node22" class="node">
<title>Metamodel::Mixins</title>
<g id="a_node22"><a xlink:href="/type/Metamodel::Mixins" xlink:title="Metamodel::Mixins">
<ellipse fill="none" stroke="#6666ff" cx="85.14" cy="-846.88" rx="85.29" ry="18"/>
<text text-anchor="middle" x="85.14" y="-843.18" font-family="FreeSans" font-size="14.00" fill="#6666ff">Metamodel::Mixins</text>
</a>
</g>
</g>
<!-- Metamodel::BoolificationProtocol -->
<g id="node23" class="node">
<title>Metamodel::BoolificationProtocol</title>
<g id="a_node23"><a xlink:href="/type/Metamodel::BoolificationProtocol" xlink:title="Metamodel::BoolificationProtocol">
<ellipse fill="none" stroke="#6666ff" cx="323.92" cy="-1371.79" rx="139.18" ry="18"/>
<text text-anchor="middle" x="323.92" y="-1368.09" font-family="FreeSans" font-size="14.00" fill="#6666ff">Metamodel::BoolificationProtocol</text>
</a>
</g>
</g>
<!-- Metamodel::ClassHOW -->
<g id="node24" class="node">
<title>Metamodel::ClassHOW</title>
<g id="a_node24"><a xlink:href="/type/Metamodel::ClassHOW" xlink:title="Metamodel::ClassHOW">
<ellipse fill="none" stroke="#000000" cx="563.51" cy="-978.71" rx="103.18" ry="18"/>
<text text-anchor="middle" x="563.51" y="-975.01" font-family="FreeSans" font-size="14.00" fill="#000000">Metamodel::ClassHOW</text>
</a>
</g>
</g>
<!-- Metamodel::ClassHOW&#45;&gt;Metamodel::Documenting -->
<g id="edge20" class="edge">
<title>Metamodel::ClassHOW&#45;&gt;Metamodel::Documenting</title>
<path fill="none" stroke="#6666ff" d="M587,-961.14C643.61,-918.8 782.97,-814.56 782.97,-814.56 782.97,-814.56 843.66,-681.19 870.46,-622.28"/>
<polygon fill="#6666ff" stroke="#6666ff" points="873.8,-623.39 874.76,-612.84 867.43,-620.49 873.8,-623.39"/>
</g>
<!-- Metamodel::ClassHOW&#45;&gt;Any -->
<g id="edge4" class="edge">
<title>Metamodel::ClassHOW&#45;&gt;Any</title>
<path fill="none" stroke="#000000" d="M587,-961.14C643.61,-918.8 782.97,-814.56 782.97,-814.56 782.97,-814.56 770.2,-594.75 770.2,-594.75 770.2,-594.75 826.81,-552.37 861.55,-526.37"/>
<polygon fill="#000000" stroke="#000000" points="863.95,-528.94 869.86,-520.14 859.76,-523.33 863.95,-528.94"/>
</g>
<!-- Metamodel::ClassHOW&#45;&gt;Metamodel::Naming -->
<g id="edge19" class="edge">
<title>Metamodel::ClassHOW&#45;&gt;Metamodel::Naming</title>
<path fill="none" stroke="#6666ff" d="M588.98,-961.07C662.5,-910.15 875.12,-762.89 957.67,-705.71"/>
<polygon fill="#6666ff" stroke="#6666ff" points="959.71,-708.56 965.94,-699.99 955.72,-702.81 959.71,-708.56"/>
</g>
<!-- Metamodel::ClassHOW&#45;&gt;Metamodel::Versioning -->
<g id="edge21" class="edge">
<title>Metamodel::ClassHOW&#45;&gt;Metamodel::Versioning</title>
<path fill="none" stroke="#6666ff" d="M621.6,-963.73C677.03,-949.43 760.5,-927.91 818.86,-912.86"/>
<polygon fill="#6666ff" stroke="#6666ff" points="819.91,-916.2 828.72,-910.32 818.16,-909.43 819.91,-916.2"/>
</g>
<!-- Metamodel::ClassHOW&#45;&gt;Metamodel::Stashing -->
<g id="edge22" class="edge">
<title>Metamodel::ClassHOW&#45;&gt;Metamodel::Stashing</title>
<path fill="none" stroke="#6666ff" d="M598.75,-961.66C670.64,-926.88 834.07,-847.82 912.72,-809.77"/>
<polygon fill="#6666ff" stroke="#6666ff" points="914.4,-812.85 921.88,-805.34 911.35,-806.55 914.4,-812.85"/>
</g>
<!-- Metamodel::ClassHOW&#45;&gt;Metamodel::MultipleInheritance -->
<g id="edge29" class="edge">
<title>Metamodel::ClassHOW&#45;&gt;Metamodel::MultipleInheritance</title>
<path fill="none" stroke="#6666ff" d="M572.82,-960.5C587.51,-931.76 616.17,-875.69 633.4,-842"/>
<polygon fill="#6666ff" stroke="#6666ff" points="636.7,-843.22 638.14,-832.72 630.47,-840.03 636.7,-843.22"/>
</g>
<!-- Metamodel::ClassHOW&#45;&gt;Metamodel::C3MRO -->
<g id="edge31" class="edge">
<title>Metamodel::ClassHOW&#45;&gt;Metamodel::C3MRO</title>
<path fill="none" stroke="#6666ff" d="M542.54,-960.81C493.13,-918.66 369.37,-813.07 313.11,-765.07"/>
<polygon fill="#6666ff" stroke="#6666ff" points="315.2,-762.25 305.32,-758.43 310.66,-767.58 315.2,-762.25"/>
</g>
<!-- Metamodel::ClassHOW&#45;&gt;Metamodel::MROBasedMethodDispatch -->
<g id="edge32" class="edge">
<title>Metamodel::ClassHOW&#45;&gt;Metamodel::MROBasedMethodDispatch</title>
<path fill="none" stroke="#6666ff" d="M554.01,-960.32C516.03,-886.83 377.1,-618.03 377.1,-618.03 377.1,-618.03 351.3,-585.15 332.11,-560.7"/>
<polygon fill="#6666ff" stroke="#6666ff" points="334.84,-558.5 325.91,-552.79 329.33,-562.82 334.84,-558.5"/>
</g>
<!-- Metamodel::ClassHOW&#45;&gt;Metamodel::MROBasedTypeChecking -->
<g id="edge33" class="edge">
<title>Metamodel::ClassHOW&#45;&gt;Metamodel::MROBasedTypeChecking</title>
<path fill="none" stroke="#6666ff" d="M549.6,-960.82C506.54,-905.49 378.38,-740.77 378.38,-740.77 378.38,-740.77 293.09,-677.67 244.78,-641.92"/>
<polygon fill="#6666ff" stroke="#6666ff" points="246.62,-638.93 236.5,-635.79 242.46,-644.55 246.62,-638.93"/>
</g>
<!-- Metamodel::ClassHOW&#45;&gt;Metamodel::AttributeContainer -->
<g id="edge23" class="edge">
<title>Metamodel::ClassHOW&#45;&gt;Metamodel::AttributeContainer</title>
<path fill="none" stroke="#6666ff" d="M571.3,-996.93C594.36,-1050.89 660.68,-1206.1 660.68,-1206.1 660.68,-1206.1 845.06,-1308.83 928.85,-1355.51"/>
<polygon fill="#6666ff" stroke="#6666ff" points="927.4,-1358.71 937.84,-1360.52 930.8,-1352.59 927.4,-1358.71"/>
</g>
<!-- Metamodel::ClassHOW&#45;&gt;Metamodel::Finalization -->
<g id="edge24" class="edge">
<title>Metamodel::ClassHOW&#45;&gt;Metamodel::Finalization</title>
<path fill="none" stroke="#6666ff" d="M559.26,-996.84C542.04,-1070.32 477.37,-1346.25 456.4,-1435.7"/>
<polygon fill="#6666ff" stroke="#6666ff" points="452.94,-1435.13 454.07,-1445.66 459.76,-1436.72 452.94,-1435.13"/>
</g>
<!-- Metamodel::ClassHOW&#45;&gt;Metamodel::MethodContainer -->
<g id="edge25" class="edge">
<title>Metamodel::ClassHOW&#45;&gt;Metamodel::MethodContainer</title>
<path fill="none" stroke="#6666ff" d="M571.3,-996.93C594.36,-1050.89 660.68,-1206.1 660.68,-1206.1 660.68,-1206.1 786.35,-1307.72 786.35,-1307.72 786.35,-1307.72 770.88,-1360.29 760.91,-1394.16"/>
<polygon fill="#6666ff" stroke="#6666ff" points="757.49,-1393.41 758.02,-1403.99 764.2,-1395.39 757.49,-1393.41"/>
</g>
<!-- Metamodel::ClassHOW&#45;&gt;Metamodel::PrivateMethodContainer -->
<g id="edge26" class="edge">
<title>Metamodel::ClassHOW&#45;&gt;Metamodel::PrivateMethodContainer</title>
<path fill="none" stroke="#6666ff" d="M583.4,-996.56C628.36,-1036.91 737.88,-1135.23 789.36,-1181.45"/>
<polygon fill="#6666ff" stroke="#6666ff" points="787.03,-1184.06 796.81,-1188.14 791.71,-1178.85 787.03,-1184.06"/>
</g>
<!-- Metamodel::ClassHOW&#45;&gt;Metamodel::MultiMethodContainer -->
<g id="edge27" class="edge">
<title>Metamodel::ClassHOW&#45;&gt;Metamodel::MultiMethodContainer</title>
<path fill="none" stroke="#6666ff" d="M594.65,-996C690.26,-1049.12 973.24,-1206.34 973.24,-1206.34 973.24,-1206.34 991.56,-1227.66 1007.28,-1245.96"/>
<polygon fill="#6666ff" stroke="#6666ff" points="1004.63,-1248.25 1013.8,-1253.55 1009.94,-1243.69 1004.63,-1248.25"/>
</g>
<!-- Metamodel::ClassHOW&#45;&gt;Metamodel::RoleContainer -->
<g id="edge28" class="edge">
<title>Metamodel::ClassHOW&#45;&gt;Metamodel::RoleContainer</title>
<path fill="none" stroke="#6666ff" d="M569.34,-996.86C586.86,-1051.44 639.13,-1214.34 660.16,-1279.86"/>
<polygon fill="#6666ff" stroke="#6666ff" points="656.87,-1281.06 663.25,-1289.51 663.53,-1278.92 656.87,-1281.06"/>
</g>
<!-- Metamodel::ClassHOW&#45;&gt;Metamodel::DefaultParent -->
<g id="edge30" class="edge">
<title>Metamodel::ClassHOW&#45;&gt;Metamodel::DefaultParent</title>
<path fill="none" stroke="#6666ff" d="M521.23,-995.28C443.04,-1025.92 276.07,-1091.37 190.96,-1124.72"/>
<polygon fill="#6666ff" stroke="#6666ff" points="189.53,-1121.53 181.5,-1128.43 192.09,-1128.04 189.53,-1121.53"/>
</g>
<!-- Metamodel::ClassHOW&#45;&gt;Metamodel::Trusting -->
<g id="edge34" class="edge">
<title>Metamodel::ClassHOW&#45;&gt;Metamodel::Trusting</title>
<path fill="none" stroke="#6666ff" d="M542.51,-996.37C484.69,-1045 323.07,-1180.93 256.74,-1236.72"/>
<polygon fill="#6666ff" stroke="#6666ff" points="254.17,-1234.31 248.77,-1243.42 258.67,-1239.67 254.17,-1234.31"/>
</g>
<!-- Metamodel::ClassHOW&#45;&gt;Metamodel::BUILDPLAN -->
<g id="edge35" class="edge">
<title>Metamodel::ClassHOW&#45;&gt;Metamodel::BUILDPLAN</title>
<path fill="none" stroke="#6666ff" d="M463.59,-983.47C396.25,-986.68 307.19,-990.92 236.72,-994.28"/>
<polygon fill="#6666ff" stroke="#6666ff" points="236.28,-990.79 226.46,-994.77 236.62,-997.79 236.28,-990.79"/>
</g>
<!-- Metamodel::ClassHOW&#45;&gt;Metamodel::Mixins -->
<g id="edge36" class="edge">
<title>Metamodel::ClassHOW&#45;&gt;Metamodel::Mixins</title>
<path fill="none" stroke="#6666ff" d="M508.17,-963.46C418.15,-938.65 240.62,-889.73 146.73,-863.85"/>
<polygon fill="#6666ff" stroke="#6666ff" points="147.65,-860.48 137.08,-861.2 145.79,-867.23 147.65,-860.48"/>
</g>
<!-- Metamodel::ClassHOW&#45;&gt;Metamodel::BoolificationProtocol -->
<g id="edge37" class="edge">
<title>Metamodel::ClassHOW&#45;&gt;Metamodel::BoolificationProtocol</title>
<path fill="none" stroke="#6666ff" d="M552.6,-996.62C514.32,-1059.42 386.05,-1269.85 340.3,-1344.91"/>
<polygon fill="#6666ff" stroke="#6666ff" points="337.12,-1343.41 334.9,-1353.77 343.09,-1347.05 337.12,-1343.41"/>
</g>
<!-- Metamodel::TypePretense -->
<g id="node25" class="node">
<title>Metamodel::TypePretense</title>
<g id="a_node25"><a xlink:href="/type/Metamodel::TypePretense" xlink:title="Metamodel::TypePretense">
<ellipse fill="none" stroke="#6666ff" cx="1548.9" cy="-882.29" rx="114.28" ry="18"/>
<text text-anchor="middle" x="1548.9" y="-878.59" font-family="FreeSans" font-size="14.00" fill="#6666ff">Metamodel::TypePretense</text>
</a>
</g>
</g>
<!-- Metamodel::MethodDelegation -->
<g id="node26" class="node">
<title>Metamodel::MethodDelegation</title>
<g id="a_node26"><a xlink:href="/type/Metamodel::MethodDelegation" xlink:title="Metamodel::MethodDelegation">
<ellipse fill="none" stroke="#6666ff" cx="1662.8" cy="-332.07" rx="131.08" ry="18"/>
<text text-anchor="middle" x="1662.8" y="-328.37" font-family="FreeSans" font-size="14.00" fill="#6666ff">Metamodel::MethodDelegation</text>
</a>
</g>
</g>
<!-- Metamodel::PackageHOW -->
<g id="node27" class="node">
<title>Metamodel::PackageHOW</title>
<g id="a_node27"><a xlink:href="/type/Metamodel::PackageHOW" xlink:title="Metamodel::PackageHOW">
<ellipse fill="none" stroke="#000000" cx="1308.95" cy="-474.03" rx="116.18" ry="18"/>
<text text-anchor="middle" x="1308.95" y="-470.33" font-family="FreeSans" font-size="14.00" fill="#000000">Metamodel::PackageHOW</text>
</a>
</g>
</g>
<!-- Metamodel::PackageHOW&#45;&gt;Metamodel::Documenting -->
<g id="edge39" class="edge">
<title>Metamodel::PackageHOW&#45;&gt;Metamodel::Documenting</title>
<path fill="none" stroke="#6666ff" d="M1252.82,-489.95C1174.12,-512.27 1031.3,-552.78 948.03,-576.4"/>
<polygon fill="#6666ff" stroke="#6666ff" points="946.85,-573.09 938.18,-579.19 948.76,-579.83 946.85,-573.09"/>
</g>
<!-- Metamodel::PackageHOW&#45;&gt;Any -->
<g id="edge5" class="edge">
<title>Metamodel::PackageHOW&#45;&gt;Any</title>
<path fill="none" stroke="#000000" d="M1204.63,-482.09C1113.71,-489.11 987.01,-498.91 925.07,-503.69"/>
<polygon fill="#000000" stroke="#000000" points="924.69,-500.21 914.99,-504.47 925.23,-507.19 924.69,-500.21"/>
</g>
<!-- Metamodel::PackageHOW&#45;&gt;Metamodel::Naming -->
<g id="edge38" class="edge">
<title>Metamodel::PackageHOW&#45;&gt;Metamodel::Naming</title>
<path fill="none" stroke="#6666ff" d="M1282.12,-491.63C1224.78,-529.25 1090.33,-617.46 1026.21,-659.53"/>
<polygon fill="#6666ff" stroke="#6666ff" points="1024.09,-656.74 1017.65,-665.15 1027.93,-662.59 1024.09,-656.74"/>
</g>
<!-- Metamodel::PackageHOW&#45;&gt;Metamodel::Stashing -->
<g id="edge40" class="edge">
<title>Metamodel::PackageHOW&#45;&gt;Metamodel::Stashing</title>
<path fill="none" stroke="#6666ff" d="M1289.68,-491.81C1235.03,-542.26 1082.94,-682.65 1082.94,-682.65 1082.94,-682.65 1023.11,-732.8 985.8,-764.08"/>
<polygon fill="#6666ff" stroke="#6666ff" points="983.17,-761.71 977.75,-770.82 987.67,-767.08 983.17,-761.71"/>
</g>
<!-- Metamodel::PackageHOW&#45;&gt;Metamodel::TypePretense -->
<g id="edge41" class="edge">
<title>Metamodel::PackageHOW&#45;&gt;Metamodel::TypePretense</title>
<path fill="none" stroke="#6666ff" d="M1323.33,-491.99C1353.5,-529.71 1420.68,-613.66 1420.68,-613.66 1420.68,-613.66 1503.22,-786.59 1535.85,-854.95"/>
<polygon fill="#6666ff" stroke="#6666ff" points="1532.82,-856.73 1540.29,-864.25 1539.14,-853.72 1532.82,-856.73"/>
</g>
<!-- Metamodel::PackageHOW&#45;&gt;Metamodel::MethodDelegation -->
<g id="edge42" class="edge">
<title>Metamodel::PackageHOW&#45;&gt;Metamodel::MethodDelegation</title>
<path fill="none" stroke="#6666ff" d="M1350.93,-457.18C1415.8,-431.16 1540.25,-381.23 1610.75,-352.95"/>
<polygon fill="#6666ff" stroke="#6666ff" points="1612.35,-356.08 1620.32,-349.11 1609.74,-349.59 1612.35,-356.08"/>
</g>
<!-- Metamodel::ModuleHOW -->
<g id="node28" class="node">
<title>Metamodel::ModuleHOW</title>
<g id="a_node28"><a xlink:href="/type/Metamodel::ModuleHOW" xlink:title="Metamodel::ModuleHOW">
<ellipse fill="none" stroke="#000000" cx="1308.59" cy="-613.58" rx="110.48" ry="18"/>
<text text-anchor="middle" x="1308.59" y="-609.88" font-family="FreeSans" font-size="14.00" fill="#000000">Metamodel::ModuleHOW</text>
</a>
</g>
</g>
<!-- Metamodel::ModuleHOW&#45;&gt;Metamodel::Documenting -->
<g id="edge44" class="edge">
<title>Metamodel::ModuleHOW&#45;&gt;Metamodel::Documenting</title>
<path fill="none" stroke="#6666ff" d="M1201.73,-608.88C1140.49,-606.19 1063.55,-602.8 1000.59,-600.04"/>
<polygon fill="#6666ff" stroke="#6666ff" points="1000.36,-596.52 990.21,-599.58 1000.05,-603.51 1000.36,-596.52"/>
</g>
<!-- Metamodel::ModuleHOW&#45;&gt;Any -->
<g id="edge6" class="edge">
<title>Metamodel::ModuleHOW&#45;&gt;Any</title>
<path fill="none" stroke="#000000" d="M1248.78,-598.36C1159.94,-575.76 995.85,-534 923.67,-515.63"/>
<polygon fill="#000000" stroke="#000000" points="924.26,-512.17 913.71,-513.1 922.53,-518.95 924.26,-512.17"/>
</g>
<!-- Metamodel::ModuleHOW&#45;&gt;Metamodel::Naming -->
<g id="edge43" class="edge">
<title>Metamodel::ModuleHOW&#45;&gt;Metamodel::Naming</title>
<path fill="none" stroke="#6666ff" d="M1242.01,-628.06C1189.27,-639.53 1115.76,-655.51 1061.92,-667.21"/>
<polygon fill="#6666ff" stroke="#6666ff" points="1061.14,-663.8 1052.11,-669.35 1062.62,-670.64 1061.14,-663.8"/>
</g>
<!-- Metamodel::ModuleHOW&#45;&gt;Metamodel::Versioning -->
<g id="edge45" class="edge">
<title>Metamodel::ModuleHOW&#45;&gt;Metamodel::Versioning</title>
<path fill="none" stroke="#6666ff" d="M1282.55,-631.34C1217.27,-675.86 1051.8,-788.69 1051.8,-788.69 1051.8,-788.69 970.6,-841.09 921.97,-872.47"/>
<polygon fill="#6666ff" stroke="#6666ff" points="919.8,-869.7 913.29,-878.07 923.59,-875.59 919.8,-869.7"/>
</g>
<!-- Metamodel::ModuleHOW&#45;&gt;Metamodel::Stashing -->
<g id="edge46" class="edge">
<title>Metamodel::ModuleHOW&#45;&gt;Metamodel::Stashing</title>
<path fill="none" stroke="#6666ff" d="M1273.87,-630.84C1209.14,-663.02 1070.19,-732.09 999.62,-767.16"/>
<polygon fill="#6666ff" stroke="#6666ff" points="997.94,-764.09 990.55,-771.67 1001.06,-770.36 997.94,-764.09"/>
</g>
<!-- Metamodel::ModuleHOW&#45;&gt;Metamodel::TypePretense -->
<g id="edge47" class="edge">
<title>Metamodel::ModuleHOW&#45;&gt;Metamodel::TypePretense</title>
<path fill="none" stroke="#6666ff" d="M1324.73,-631.63C1366.37,-678.19 1477.54,-802.5 1525.9,-856.57"/>
<polygon fill="#6666ff" stroke="#6666ff" points="1523.56,-859.2 1532.83,-864.32 1528.78,-854.54 1523.56,-859.2"/>
</g>
<!-- Metamodel::ModuleHOW&#45;&gt;Metamodel::MethodDelegation -->
<g id="edge48" class="edge">
<title>Metamodel::ModuleHOW&#45;&gt;Metamodel::MethodDelegation</title>
<path fill="none" stroke="#6666ff" d="M1331.01,-595.76C1392.24,-547.1 1562.35,-411.9 1632.23,-356.36"/>
<polygon fill="#6666ff" stroke="#6666ff" points="1634.59,-358.96 1640.24,-350 1630.24,-353.48 1634.59,-358.96"/>
</g>
<!-- Metamodel::DefiniteHOW -->
<g id="node29" class="node">
<title>Metamodel::DefiniteHOW</title>
<g id="a_node29"><a xlink:href="/type/Metamodel::DefiniteHOW" xlink:title="Metamodel::DefiniteHOW">
<ellipse fill="none" stroke="#000000" cx="682.75" cy="-124.86" rx="111.28" ry="18"/>
<text text-anchor="middle" x="682.75" y="-121.16" font-family="FreeSans" font-size="14.00" fill="#000000">Metamodel::DefiniteHOW</text>
</a>
</g>
</g>
<!-- Metamodel::DefiniteHOW&#45;&gt;Metamodel::Documenting -->
<g id="edge49" class="edge">
<title>Metamodel::DefiniteHOW&#45;&gt;Metamodel::Documenting</title>
<path fill="none" stroke="#6666ff" d="M690.48,-143C721.13,-214.97 834.32,-480.71 871.22,-567.35"/>
<polygon fill="#6666ff" stroke="#6666ff" points="868.1,-568.95 875.24,-576.78 874.54,-566.21 868.1,-568.95"/>
</g>
<!-- Metamodel::DefiniteHOW&#45;&gt;Any -->
<g id="edge7" class="edge">
<title>Metamodel::DefiniteHOW&#45;&gt;Any</title>
<path fill="none" stroke="#000000" d="M692.51,-143.02C725.83,-204.98 835.16,-408.28 874.09,-480.67"/>
<polygon fill="#000000" stroke="#000000" points="871.08,-482.46 878.9,-489.61 877.24,-479.14 871.08,-482.46"/>
</g>
<!-- Metamodel::RolePunning -->
<g id="node30" class="node">
<title>Metamodel::RolePunning</title>
<g id="a_node30"><a xlink:href="/type/Metamodel::RolePunning" xlink:title="Metamodel::RolePunning">
<ellipse fill="none" stroke="#6666ff" cx="1513.85" cy="-1269.34" rx="109.68" ry="18"/>
<text text-anchor="middle" x="1513.85" y="-1265.64" font-family="FreeSans" font-size="14.00" fill="#6666ff">Metamodel::RolePunning</text>
</a>
</g>
</g>
<!-- Metamodel::ParametricRoleHOW -->
<g id="node31" class="node">
<title>Metamodel::ParametricRoleHOW</title>
<g id="a_node31"><a xlink:href="/type/Metamodel::ParametricRoleHOW" xlink:title="Metamodel::ParametricRoleHOW">
<ellipse fill="none" stroke="#000000" cx="1119.44" cy="-1013.74" rx="141.88" ry="18"/>
<text text-anchor="middle" x="1119.44" y="-1010.04" font-family="FreeSans" font-size="14.00" fill="#000000">Metamodel::ParametricRoleHOW</text>
</a>
</g>
</g>
<!-- Metamodel::ParametricRoleHOW&#45;&gt;Metamodel::Documenting -->
<g id="edge51" class="edge">
<title>Metamodel::ParametricRoleHOW&#45;&gt;Metamodel::Documenting</title>
<path fill="none" stroke="#6666ff" d="M1114.02,-995.71C1097.97,-942.3 1051.8,-788.69 1051.8,-788.69 1051.8,-788.69 899.05,-682.62 899.05,-682.62 899.05,-682.62 892.83,-648.73 888.12,-623.07"/>
<polygon fill="#6666ff" stroke="#6666ff" points="891.53,-622.25 886.28,-613.04 884.64,-623.51 891.53,-622.25"/>
</g>
<!-- Metamodel::ParametricRoleHOW&#45;&gt;Any -->
<g id="edge8" class="edge">
<title>Metamodel::ParametricRoleHOW&#45;&gt;Any</title>
<path fill="none" stroke="#000000" d="M1117.43,-995.47C1109.78,-926.06 1082.94,-682.65 1082.94,-682.65 1082.94,-682.65 995.68,-594.97 995.68,-594.97 995.68,-594.97 945.17,-553.5 913.34,-527.36"/>
<polygon fill="#000000" stroke="#000000" points="915.26,-524.4 905.31,-520.76 910.82,-529.81 915.26,-524.4"/>
</g>
<!-- Metamodel::ParametricRoleHOW&#45;&gt;Metamodel::Naming -->
<g id="edge50" class="edge">
<title>Metamodel::ParametricRoleHOW&#45;&gt;Metamodel::Naming</title>
<path fill="none" stroke="#6666ff" d="M1114.02,-995.71C1097.97,-942.3 1051.8,-788.69 1051.8,-788.69 1051.8,-788.69 1024.35,-740.8 1006.33,-709.39"/>
<polygon fill="#6666ff" stroke="#6666ff" points="1009.32,-707.56 1001.31,-700.62 1003.25,-711.04 1009.32,-707.56"/>
</g>
<!-- Metamodel::ParametricRoleHOW&#45;&gt;Metamodel::Versioning -->
<g id="edge52" class="edge">
<title>Metamodel::ParametricRoleHOW&#45;&gt;Metamodel::Versioning</title>
<path fill="none" stroke="#6666ff" d="M1084.8,-996.16C1043.36,-975.13 973.98,-939.93 929.2,-917.21"/>
<polygon fill="#6666ff" stroke="#6666ff" points="930.54,-913.96 920.04,-912.56 927.38,-920.21 930.54,-913.96"/>
</g>
<!-- Metamodel::ParametricRoleHOW&#45;&gt;Metamodel::Stashing -->
<g id="edge59" class="edge">
<title>Metamodel::ParametricRoleHOW&#45;&gt;Metamodel::Stashing</title>
<path fill="none" stroke="#6666ff" d="M1106.39,-995.69C1077.75,-956.08 1009.27,-861.37 975.75,-815.01"/>
<polygon fill="#6666ff" stroke="#6666ff" points="978.42,-812.73 969.72,-806.68 972.75,-816.83 978.42,-812.73"/>
</g>
<!-- Metamodel::ParametricRoleHOW&#45;&gt;Metamodel::MultipleInheritance -->
<g id="edge58" class="edge">
<title>Metamodel::ParametricRoleHOW&#45;&gt;Metamodel::MultipleInheritance</title>
<path fill="none" stroke="#6666ff" d="M1069.94,-996.83C983.35,-967.25 813.47,-909.22 813.47,-909.22 813.47,-909.22 784,-895.32 784,-895.32 784,-895.32 726.64,-861.33 686.28,-837.42"/>
<polygon fill="#6666ff" stroke="#6666ff" points="687.83,-834.27 677.45,-832.18 684.27,-840.29 687.83,-834.27"/>
</g>
<!-- Metamodel::ParametricRoleHOW&#45;&gt;Metamodel::AttributeContainer -->
<g id="edge56" class="edge">
<title>Metamodel::ParametricRoleHOW&#45;&gt;Metamodel::AttributeContainer</title>
<path fill="none" stroke="#6666ff" d="M1105.69,-1031.86C1069.29,-1079.81 973.24,-1206.34 973.24,-1206.34 973.24,-1206.34 881.62,-1271.77 881.62,-1271.77 881.62,-1271.77 921.95,-1320.61 947.94,-1352.1"/>
<polygon fill="#6666ff" stroke="#6666ff" points="945.47,-1354.59 954.53,-1360.08 950.86,-1350.14 945.47,-1354.59"/>
</g>
<!-- Metamodel::ParametricRoleHOW&#45;&gt;Metamodel::MethodContainer -->
<g id="edge53" class="edge">
<title>Metamodel::ParametricRoleHOW&#45;&gt;Metamodel::MethodContainer</title>
<path fill="none" stroke="#6666ff" d="M1105.69,-1031.86C1069.29,-1079.81 973.24,-1206.34 973.24,-1206.34 973.24,-1206.34 881.62,-1271.77 881.62,-1271.77 881.62,-1271.77 811.82,-1353.16 774.93,-1396.18"/>
<polygon fill="#6666ff" stroke="#6666ff" points="772.09,-1394.12 768.24,-1403.98 777.41,-1398.67 772.09,-1394.12"/>
</g>
<!-- Metamodel::ParametricRoleHOW&#45;&gt;Metamodel::PrivateMethodContainer -->
<g id="edge54" class="edge">
<title>Metamodel::ParametricRoleHOW&#45;&gt;Metamodel::PrivateMethodContainer</title>
<path fill="none" stroke="#6666ff" d="M1091.53,-1031.51C1036.6,-1066.45 914.54,-1144.13 853.37,-1183.05"/>
<polygon fill="#6666ff" stroke="#6666ff" points="851.36,-1180.18 844.81,-1188.5 855.12,-1186.09 851.36,-1180.18"/>
</g>
<!-- Metamodel::ParametricRoleHOW&#45;&gt;Metamodel::MultiMethodContainer -->
<g id="edge55" class="edge">
<title>Metamodel::ParametricRoleHOW&#45;&gt;Metamodel::MultiMethodContainer</title>
<path fill="none" stroke="#6666ff" d="M1113.11,-1031.89C1097.59,-1076.4 1057.55,-1191.21 1039.07,-1244.21"/>
<polygon fill="#6666ff" stroke="#6666ff" points="1035.76,-1243.06 1035.78,-1253.66 1042.37,-1245.37 1035.76,-1243.06"/>
</g>
<!-- Metamodel::ParametricRoleHOW&#45;&gt;Metamodel::RoleContainer -->
<g id="edge57" class="edge">
<title>Metamodel::ParametricRoleHOW&#45;&gt;Metamodel::RoleContainer</title>
<path fill="none" stroke="#6666ff" d="M1105.69,-1031.86C1069.29,-1079.81 973.24,-1206.34 973.24,-1206.34 973.24,-1206.34 816.34,-1258.57 727.91,-1288.01"/>
<polygon fill="#6666ff" stroke="#6666ff" points="726.65,-1284.74 718.27,-1291.22 728.86,-1291.38 726.65,-1284.74"/>
</g>
<!-- Metamodel::ParametricRoleHOW&#45;&gt;Metamodel::TypePretense -->
<g id="edge60" class="edge">
<title>Metamodel::ParametricRoleHOW&#45;&gt;Metamodel::TypePretense</title>
<path fill="none" stroke="#6666ff" d="M1173.83,-997.09C1253.73,-972.64 1402.43,-927.12 1486.61,-901.36"/>
<polygon fill="#6666ff" stroke="#6666ff" points="1487.76,-904.67 1496.3,-898.39 1485.71,-897.97 1487.76,-904.67"/>
</g>
<!-- Metamodel::ParametricRoleHOW&#45;&gt;Metamodel::RolePunning -->
<g id="edge61" class="edge">
<title>Metamodel::ParametricRoleHOW&#45;&gt;Metamodel::RolePunning</title>
<path fill="none" stroke="#6666ff" d="M1146.86,-1031.51C1216.59,-1076.7 1400.61,-1195.96 1478.37,-1246.34"/>
<polygon fill="#6666ff" stroke="#6666ff" points="1476.58,-1249.35 1486.87,-1251.86 1480.38,-1243.48 1476.58,-1249.35"/>
</g>
</g>
</svg>
