<?xml version="1.0" encoding="UTF-8" standalone="no"?>
<!DOCTYPE svg PUBLIC "-//W3C//DTD SVG 1.1//EN"
 "http://www.w3.org/Graphics/SVG/1.1/DTD/svg11.dtd">
<!-- Generated by graphviz version 2.43.0 (0)
 -->
<!-- Title: perl6&#45;type&#45;graph Pages: 1 -->
<svg width="307pt" height="174pt"
 viewBox="0.00 0.00 306.67 173.64" xmlns="http://www.w3.org/2000/svg" xmlns:xlink="http://www.w3.org/1999/xlink">
<g id="graph0" class="graph" transform="scale(1 1) rotate(0) translate(4 169.64)">
<title>perl6&#45;type&#45;graph</title>
<polygon fill="white" stroke="transparent" points="-4,4 -4,-169.64 302.67,-169.64 302.67,4 -4,4"/>
<!-- Metamodel::GenericHOW -->
<g id="node1" class="node">
<title>Metamodel::GenericHOW</title>
<g id="a_node1"><a xlink:href="/type/Metamodel::GenericHOW" xlink:title="Metamodel::GenericHOW">
<ellipse fill="none" stroke="#000000" cx="140.63" cy="-91.32" rx="112.38" ry="18"/>
<text text-anchor="middle" x="140.63" y="-87.62" font-family="FreeSans" font-size="14.00" fill="#000000">Metamodel::GenericHOW</text>
</a>
</g>
</g>
<!-- Any -->
<g id="node3" class="node">
<title>Any</title>
<g id="a_node3"><a xlink:href="/type/Any" xlink:title="Any">
<ellipse fill="none" stroke="#000000" cx="202.07" cy="-47.32" rx="27" ry="18"/>
<text text-anchor="middle" x="202.07" y="-43.62" font-family="FreeSans" font-size="14.00" fill="#000000">Any</text>
</a>
</g>
</g>
<!-- Metamodel::GenericHOW&#45;&gt;Any -->
<g id="edge1" class="edge">
<title>Metamodel::GenericHOW&#45;&gt;Any</title>
<path fill="none" stroke="#000000" d="M165.26,-73.68C168.62,-71.27 172.08,-68.79 175.48,-66.36"/>
<polygon fill="#000000" stroke="#000000" points="177.58,-69.16 183.67,-60.49 173.5,-63.47 177.58,-69.16"/>
</g>
<!-- Metamodel::Naming -->
<g id="node4" class="node">
<title>Metamodel::Naming</title>
<g id="a_node4"><a xlink:href="/type/Metamodel::Naming" xlink:title="Metamodel::Naming">
<ellipse fill="none" stroke="#6666ff" cx="90.34" cy="-147.64" rx="90.18" ry="18"/>
<text text-anchor="middle" x="90.34" y="-143.94" font-family="FreeSans" font-size="14.00" fill="#6666ff">Metamodel::Naming</text>
</a>
</g>
</g>
<!-- Metamodel::GenericHOW&#45;&gt;Metamodel::Naming -->
<g id="edge3" class="edge">
<title>Metamodel::GenericHOW&#45;&gt;Metamodel::Naming</title>
<path fill="none" stroke="#6666ff" d="M124.72,-109.14C121.05,-113.25 117.08,-117.7 113.18,-122.07"/>
<polygon fill="#6666ff" stroke="#6666ff" points="110.37,-119.95 106.32,-129.74 115.59,-124.62 110.37,-119.95"/>
</g>
<!-- Mu -->
<g id="node2" class="node">
<title>Mu</title>
<g id="a_node2"><a xlink:href="/type/Mu" xlink:title="Mu">
<ellipse fill="none" stroke="#000000" cx="271.67" cy="-18" rx="27" ry="18"/>
<text text-anchor="middle" x="271.67" y="-14.3" font-family="FreeSans" font-size="14.00" fill="#000000">Mu</text>
</a>
</g>
</g>
<!-- Any&#45;&gt;Mu -->
<g id="edge2" class="edge">
<title>Any&#45;&gt;Mu</title>
<path fill="none" stroke="#000000" d="M225.25,-37.55C229.75,-35.66 234.56,-33.63 239.3,-31.64"/>
<polygon fill="#000000" stroke="#000000" points="240.98,-34.73 248.83,-27.62 238.26,-28.28 240.98,-34.73"/>
</g>
</g>
</svg>
