<?xml version="1.0" encoding="UTF-8" standalone="no"?>
<!DOCTYPE svg PUBLIC "-//W3C//DTD SVG 1.1//EN"
 "http://www.w3.org/Graphics/SVG/1.1/DTD/svg11.dtd">
<!-- Generated by graphviz version 2.43.0 (0)
 -->
<!-- Title: perl6&#45;type&#45;graph Pages: 1 -->
<svg width="942pt" height="105pt"
 viewBox="0.00 0.00 942.27 105.25" xmlns="http://www.w3.org/2000/svg" xmlns:xlink="http://www.w3.org/1999/xlink">
<g id="graph0" class="graph" transform="scale(1 1) rotate(0) translate(4 101.25)">
<title>perl6&#45;type&#45;graph</title>
<polygon fill="white" stroke="transparent" points="-4,4 -4,-101.25 938.27,-101.25 938.27,4 -4,4"/>
<!-- Metamodel::MethodDispatcher -->
<g id="node1" class="node">
<title>Metamodel::MethodDispatcher</title>
<g id="a_node1"><a xlink:href="/type/Metamodel::MethodDispatcher" xlink:title="Metamodel::MethodDispatcher">
<ellipse fill="none" stroke="#000000" cx="131.29" cy="-67.88" rx="131.08" ry="18"/>
<text text-anchor="middle" x="131.29" y="-64.18" font-family="FreeSans" font-size="14.00" fill="#000000">Metamodel::MethodDispatcher</text>
</a>
</g>
</g>
<!-- Metamodel::BaseDispatcher -->
<g id="node4" class="node">
<title>Metamodel::BaseDispatcher</title>
<g id="a_node4"><a xlink:href="/type/Metamodel::BaseDispatcher" xlink:title="Metamodel::BaseDispatcher">
<ellipse fill="none" stroke="#000000" cx="392.14" cy="-79.25" rx="121.58" ry="18"/>
<text text-anchor="middle" x="392.14" y="-75.55" font-family="FreeSans" font-size="14.00" fill="#000000">Metamodel::BaseDispatcher</text>
</a>
</g>
</g>
<!-- Metamodel::MethodDispatcher&#45;&gt;Metamodel::BaseDispatcher -->
<g id="edge1" class="edge">
<title>Metamodel::MethodDispatcher&#45;&gt;Metamodel::BaseDispatcher</title>
<path fill="none" stroke="#000000" d="M256.75,-73.35C259.59,-73.47 262.43,-73.6 265.27,-73.72"/>
<polygon fill="#000000" stroke="#000000" points="265.39,-77.23 275.53,-74.17 265.69,-70.24 265.39,-77.23"/>
</g>
<!-- Mu -->
<g id="node2" class="node">
<title>Mu</title>
<g id="a_node2"><a xlink:href="/type/Mu" xlink:title="Mu">
<ellipse fill="none" stroke="#000000" cx="907.27" cy="-18" rx="27" ry="18"/>
<text text-anchor="middle" x="907.27" y="-14.3" font-family="FreeSans" font-size="14.00" fill="#000000">Mu</text>
</a>
</g>
</g>
<!-- Any -->
<g id="node3" class="node">
<title>Any</title>
<g id="a_node3"><a xlink:href="/type/Any" xlink:title="Any">
<ellipse fill="none" stroke="#000000" cx="646.47" cy="-18.38" rx="27" ry="18"/>
<text text-anchor="middle" x="646.47" y="-14.68" font-family="FreeSans" font-size="14.00" fill="#000000">Any</text>
</a>
</g>
</g>
<!-- Any&#45;&gt;Mu -->
<g id="edge2" class="edge">
<title>Any&#45;&gt;Mu</title>
<path fill="none" stroke="#000000" d="M673.89,-18.34C720.87,-18.27 816.82,-18.13 869.89,-18.05"/>
<polygon fill="#000000" stroke="#000000" points="870.23,-21.55 880.22,-18.04 870.22,-14.55 870.23,-21.55"/>
</g>
<!-- Metamodel::BaseDispatcher&#45;&gt;Any -->
<g id="edge3" class="edge">
<title>Metamodel::BaseDispatcher&#45;&gt;Any</title>
<path fill="none" stroke="#000000" d="M456.32,-63.89C505.32,-52.16 571.02,-36.44 610.97,-26.87"/>
<polygon fill="#000000" stroke="#000000" points="611.87,-30.26 620.78,-24.52 610.24,-23.45 611.87,-30.26"/>
</g>
</g>
</svg>
