<?xml version="1.0" encoding="UTF-8" standalone="no"?>
<!DOCTYPE svg PUBLIC "-//W3C//DTD SVG 1.1//EN"
 "http://www.w3.org/Graphics/SVG/1.1/DTD/svg11.dtd">
<!-- Generated by graphviz version 2.43.0 (0)
 -->
<!-- Title: perl6&#45;type&#45;graph Pages: 1 -->
<svg width="597pt" height="652pt"
 viewBox="0.00 0.00 596.83 652.46" xmlns="http://www.w3.org/2000/svg" xmlns:xlink="http://www.w3.org/1999/xlink">
<g id="graph0" class="graph" transform="scale(1 1) rotate(0) translate(4 648.46)">
<title>perl6&#45;type&#45;graph</title>
<polygon fill="white" stroke="transparent" points="-4,4 -4,-648.46 592.83,-648.46 592.83,4 -4,4"/>
<!-- Metamodel::CurriedRoleHOW -->
<g id="node1" class="node">
<title>Metamodel::CurriedRoleHOW</title>
<g id="a_node1"><a xlink:href="/type/Metamodel::CurriedRoleHOW" xlink:title="Metamodel::CurriedRoleHOW">
<ellipse fill="none" stroke="#000000" cx="340.63" cy="-433.23" rx="128.08" ry="18"/>
<text text-anchor="middle" x="340.63" y="-429.53" font-family="FreeSans" font-size="14.00" fill="#000000">Metamodel::CurriedRoleHOW</text>
</a>
</g>
</g>
<!-- Any -->
<g id="node3" class="node">
<title>Any</title>
<g id="a_node3"><a xlink:href="/type/Any" xlink:title="Any">
<ellipse fill="none" stroke="#000000" cx="427.28" cy="-217.99" rx="27" ry="18"/>
<text text-anchor="middle" x="427.28" y="-214.29" font-family="FreeSans" font-size="14.00" fill="#000000">Any</text>
</a>
</g>
</g>
<!-- Metamodel::CurriedRoleHOW&#45;&gt;Any -->
<g id="edge1" class="edge">
<title>Metamodel::CurriedRoleHOW&#45;&gt;Any</title>
<path fill="none" stroke="#000000" d="M347.87,-415.25C363.11,-377.39 398.57,-289.31 416.49,-244.79"/>
<polygon fill="#000000" stroke="#000000" points="419.75,-246.05 420.24,-235.47 413.26,-243.44 419.75,-246.05"/>
</g>
<!-- Metamodel::RolePunning -->
<g id="node4" class="node">
<title>Metamodel::RolePunning</title>
<g id="a_node4"><a xlink:href="/type/Metamodel::RolePunning" xlink:title="Metamodel::RolePunning">
<ellipse fill="none" stroke="#6666ff" cx="109.84" cy="-477.23" rx="109.68" ry="18"/>
<text text-anchor="middle" x="109.84" y="-473.53" font-family="FreeSans" font-size="14.00" fill="#6666ff">Metamodel::RolePunning</text>
</a>
</g>
</g>
<!-- Metamodel::CurriedRoleHOW&#45;&gt;Metamodel::RolePunning -->
<g id="edge3" class="edge">
<title>Metamodel::CurriedRoleHOW&#45;&gt;Metamodel::RolePunning</title>
<path fill="none" stroke="#6666ff" d="M264.42,-447.76C241.1,-452.2 215.36,-457.11 191.68,-461.63"/>
<polygon fill="#6666ff" stroke="#6666ff" points="190.83,-458.23 181.67,-463.54 192.15,-465.1 190.83,-458.23"/>
</g>
<!-- Metamodel::TypePretense -->
<g id="node5" class="node">
<title>Metamodel::TypePretense</title>
<g id="a_node5"><a xlink:href="/type/Metamodel::TypePretense" xlink:title="Metamodel::TypePretense">
<ellipse fill="none" stroke="#6666ff" cx="474.44" cy="-626.46" rx="114.28" ry="18"/>
<text text-anchor="middle" x="474.44" y="-622.76" font-family="FreeSans" font-size="14.00" fill="#6666ff">Metamodel::TypePretense</text>
</a>
</g>
</g>
<!-- Metamodel::CurriedRoleHOW&#45;&gt;Metamodel::TypePretense -->
<g id="edge4" class="edge">
<title>Metamodel::CurriedRoleHOW&#45;&gt;Metamodel::TypePretense</title>
<path fill="none" stroke="#6666ff" d="M353.22,-451.41C376.99,-485.73 428.57,-560.21 456.16,-600.05"/>
<polygon fill="#6666ff" stroke="#6666ff" points="453.41,-602.24 461.98,-608.47 459.17,-598.25 453.41,-602.24"/>
</g>
<!-- Mu -->
<g id="node2" class="node">
<title>Mu</title>
<g id="a_node2"><a xlink:href="/type/Mu" xlink:title="Mu">
<ellipse fill="none" stroke="#000000" cx="521.97" cy="-18" rx="27" ry="18"/>
<text text-anchor="middle" x="521.97" y="-14.3" font-family="FreeSans" font-size="14.00" fill="#000000">Mu</text>
</a>
</g>
</g>
<!-- Any&#45;&gt;Mu -->
<g id="edge2" class="edge">
<title>Any&#45;&gt;Mu</title>
<path fill="none" stroke="#000000" d="M435.52,-200.6C452.14,-165.49 489.78,-86 509.45,-44.44"/>
<polygon fill="#000000" stroke="#000000" points="512.7,-45.75 513.82,-35.22 506.38,-42.76 512.7,-45.75"/>
</g>
</g>
</svg>
