<?xml version="1.0" encoding="UTF-8" standalone="no"?>
<!DOCTYPE svg PUBLIC "-//W3C//DTD SVG 1.1//EN"
 "http://www.w3.org/Graphics/SVG/1.1/DTD/svg11.dtd">
<!-- Generated by graphviz version 2.43.0 (0)
 -->
<!-- Title: perl6&#45;type&#45;graph Pages: 1 -->
<svg width="1524pt" height="1384pt"
 viewBox="0.00 0.00 1523.68 1384.28" xmlns="http://www.w3.org/2000/svg" xmlns:xlink="http://www.w3.org/1999/xlink">
<g id="graph0" class="graph" transform="scale(1 1) rotate(0) translate(4 1380.28)">
<title>perl6&#45;type&#45;graph</title>
<polygon fill="white" stroke="transparent" points="-4,4 -4,-1380.28 1519.68,-1380.28 1519.68,4 -4,4"/>
<!-- Metamodel::C3MRO -->
<g id="node1" class="node">
<title>Metamodel::C3MRO</title>
<g id="a_node1"><a xlink:href="/type/Metamodel::C3MRO" xlink:title="Metamodel::C3MRO">
<ellipse fill="none" stroke="#6666ff" cx="706.71" cy="-462.91" rx="92.08" ry="18"/>
<text text-anchor="middle" x="706.71" y="-459.21" font-family="FreeSans" font-size="14.00" fill="#6666ff">Metamodel::C3MRO</text>
</a>
</g>
</g>
<!-- Mu -->
<g id="node2" class="node">
<title>Mu</title>
<g id="a_node2"><a xlink:href="/type/Mu" xlink:title="Mu">
<ellipse fill="none" stroke="#000000" cx="1488.68" cy="-18" rx="27" ry="18"/>
<text text-anchor="middle" x="1488.68" y="-14.3" font-family="FreeSans" font-size="14.00" fill="#000000">Mu</text>
</a>
</g>
</g>
<!-- Any -->
<g id="node3" class="node">
<title>Any</title>
<g id="a_node3"><a xlink:href="/type/Any" xlink:title="Any">
<ellipse fill="none" stroke="#000000" cx="1123.84" cy="-332.3" rx="27" ry="18"/>
<text text-anchor="middle" x="1123.84" y="-328.6" font-family="FreeSans" font-size="14.00" fill="#000000">Any</text>
</a>
</g>
</g>
<!-- Any&#45;&gt;Mu -->
<g id="edge1" class="edge">
<title>Any&#45;&gt;Mu</title>
<path fill="none" stroke="#000000" d="M1140.46,-317.98C1198.87,-267.67 1394.86,-98.83 1464.16,-39.13"/>
<polygon fill="#000000" stroke="#000000" points="1466.67,-41.58 1471.96,-32.41 1462.1,-36.28 1466.67,-41.58"/>
</g>
<!-- Metamodel::Naming -->
<g id="node4" class="node">
<title>Metamodel::Naming</title>
<g id="a_node4"><a xlink:href="/type/Metamodel::Naming" xlink:title="Metamodel::Naming">
<ellipse fill="none" stroke="#6666ff" cx="988.64" cy="-637.23" rx="90.18" ry="18"/>
<text text-anchor="middle" x="988.64" y="-633.53" font-family="FreeSans" font-size="14.00" fill="#6666ff">Metamodel::Naming</text>
</a>
</g>
</g>
<!-- Metamodel::Documenting -->
<g id="node5" class="node">
<title>Metamodel::Documenting</title>
<g id="a_node5"><a xlink:href="/type/Metamodel::Documenting" xlink:title="Metamodel::Documenting">
<ellipse fill="none" stroke="#6666ff" cx="925.21" cy="-409.14" rx="111.28" ry="18"/>
<text text-anchor="middle" x="925.21" y="-405.44" font-family="FreeSans" font-size="14.00" fill="#6666ff">Metamodel::Documenting</text>
</a>
</g>
</g>
<!-- Metamodel::Versioning -->
<g id="node6" class="node">
<title>Metamodel::Versioning</title>
<g id="a_node6"><a xlink:href="/type/Metamodel::Versioning" xlink:title="Metamodel::Versioning">
<ellipse fill="none" stroke="#6666ff" cx="445.22" cy="-554.31" rx="100.98" ry="18"/>
<text text-anchor="middle" x="445.22" y="-550.61" font-family="FreeSans" font-size="14.00" fill="#6666ff">Metamodel::Versioning</text>
</a>
</g>
</g>
<!-- Metamodel::Stashing -->
<g id="node7" class="node">
<title>Metamodel::Stashing</title>
<g id="a_node7"><a xlink:href="/type/Metamodel::Stashing" xlink:title="Metamodel::Stashing">
<ellipse fill="none" stroke="#6666ff" cx="279.08" cy="-422.74" rx="93.68" ry="18"/>
<text text-anchor="middle" x="279.08" y="-419.04" font-family="FreeSans" font-size="14.00" fill="#6666ff">Metamodel::Stashing</text>
</a>
</g>
</g>
<!-- Metamodel::MultipleInheritance -->
<g id="node8" class="node">
<title>Metamodel::MultipleInheritance</title>
<g id="a_node8"><a xlink:href="/type/Metamodel::MultipleInheritance" xlink:title="Metamodel::MultipleInheritance">
<ellipse fill="none" stroke="#6666ff" cx="1154.02" cy="-548.73" rx="133.78" ry="18"/>
<text text-anchor="middle" x="1154.02" y="-545.03" font-family="FreeSans" font-size="14.00" fill="#6666ff">Metamodel::MultipleInheritance</text>
</a>
</g>
</g>
<!-- Metamodel::MROBasedMethodDispatch -->
<g id="node9" class="node">
<title>Metamodel::MROBasedMethodDispatch</title>
<g id="a_node9"><a xlink:href="/type/Metamodel::MROBasedMethodDispatch" xlink:title="Metamodel::MROBasedMethodDispatch">
<ellipse fill="none" stroke="#6666ff" cx="317.86" cy="-277.61" rx="169.77" ry="18"/>
<text text-anchor="middle" x="317.86" y="-273.91" font-family="FreeSans" font-size="14.00" fill="#6666ff">Metamodel::MROBasedMethodDispatch</text>
</a>
</g>
</g>
<!-- Metamodel::MROBasedTypeChecking -->
<g id="node10" class="node">
<title>Metamodel::MROBasedTypeChecking</title>
<g id="a_node10"><a xlink:href="/type/Metamodel::MROBasedTypeChecking" xlink:title="Metamodel::MROBasedTypeChecking">
<ellipse fill="none" stroke="#6666ff" cx="658.89" cy="-268" rx="163.27" ry="18"/>
<text text-anchor="middle" x="658.89" y="-264.3" font-family="FreeSans" font-size="14.00" fill="#6666ff">Metamodel::MROBasedTypeChecking</text>
</a>
</g>
</g>
<!-- Metamodel::NativeHOW -->
<g id="node11" class="node">
<title>Metamodel::NativeHOW</title>
<g id="a_node11"><a xlink:href="/type/Metamodel::NativeHOW" xlink:title="Metamodel::NativeHOW">
<ellipse fill="none" stroke="#000000" cx="808.59" cy="-107.54" rx="106.68" ry="18"/>
<text text-anchor="middle" x="808.59" y="-103.84" font-family="FreeSans" font-size="14.00" fill="#000000">Metamodel::NativeHOW</text>
</a>
</g>
</g>
<!-- Metamodel::NativeHOW&#45;&gt;Metamodel::C3MRO -->
<g id="edge9" class="edge">
<title>Metamodel::NativeHOW&#45;&gt;Metamodel::C3MRO</title>
<path fill="none" stroke="#6666ff" d="M810.29,-125.65C814.22,-167.64 823.62,-268.11 823.62,-268.11 823.62,-268.11 754.65,-383.03 722.66,-436.34"/>
<polygon fill="#6666ff" stroke="#6666ff" points="719.65,-434.56 717.5,-444.93 725.65,-438.16 719.65,-434.56"/>
</g>
<!-- Metamodel::NativeHOW&#45;&gt;Any -->
<g id="edge2" class="edge">
<title>Metamodel::NativeHOW&#45;&gt;Any</title>
<path fill="none" stroke="#000000" d="M833.33,-125.18C891.57,-166.7 1036.96,-270.36 1097.12,-313.26"/>
<polygon fill="#000000" stroke="#000000" points="1095.18,-316.17 1105.36,-319.13 1099.25,-310.48 1095.18,-316.17"/>
</g>
<!-- Metamodel::NativeHOW&#45;&gt;Metamodel::Naming -->
<g id="edge4" class="edge">
<title>Metamodel::NativeHOW&#45;&gt;Metamodel::Naming</title>
<path fill="none" stroke="#6666ff" d="M810.29,-125.65C814.22,-167.64 823.62,-268.11 823.62,-268.11 823.62,-268.11 812.48,-409.01 812.48,-409.01 812.48,-409.01 922.23,-551.19 968.47,-611.11"/>
<polygon fill="#6666ff" stroke="#6666ff" points="965.93,-613.55 974.81,-619.32 971.48,-609.27 965.93,-613.55"/>
</g>
<!-- Metamodel::NativeHOW&#45;&gt;Metamodel::Documenting -->
<g id="edge5" class="edge">
<title>Metamodel::NativeHOW&#45;&gt;Metamodel::Documenting</title>
<path fill="none" stroke="#6666ff" d="M815.54,-125.5C835.14,-176.2 890.99,-320.63 914.54,-381.53"/>
<polygon fill="#6666ff" stroke="#6666ff" points="911.29,-382.83 918.16,-390.89 917.82,-380.3 911.29,-382.83"/>
</g>
<!-- Metamodel::NativeHOW&#45;&gt;Metamodel::Versioning -->
<g id="edge6" class="edge">
<title>Metamodel::NativeHOW&#45;&gt;Metamodel::Versioning</title>
<path fill="none" stroke="#6666ff" d="M810.29,-125.65C814.22,-167.64 823.62,-268.11 823.62,-268.11 823.62,-268.11 567.36,-461.93 476.61,-530.57"/>
<polygon fill="#6666ff" stroke="#6666ff" points="474.47,-527.8 468.61,-536.62 478.69,-533.38 474.47,-527.8"/>
</g>
<!-- Metamodel::NativeHOW&#45;&gt;Metamodel::Stashing -->
<g id="edge7" class="edge">
<title>Metamodel::NativeHOW&#45;&gt;Metamodel::Stashing</title>
<path fill="none" stroke="#6666ff" d="M774.94,-124.7C693.82,-166.07 494.15,-267.89 494.15,-267.89 494.15,-267.89 489.09,-277.68 489.09,-277.68 489.09,-277.68 372.06,-358.52 312.72,-399.5"/>
<polygon fill="#6666ff" stroke="#6666ff" points="310.65,-396.68 304.41,-405.24 314.63,-402.44 310.65,-396.68"/>
</g>
<!-- Metamodel::NativeHOW&#45;&gt;Metamodel::MultipleInheritance -->
<g id="edge8" class="edge">
<title>Metamodel::NativeHOW&#45;&gt;Metamodel::MultipleInheritance</title>
<path fill="none" stroke="#6666ff" d="M822.78,-125.66C876.79,-194.65 1069.8,-441.16 1133.47,-522.49"/>
<polygon fill="#6666ff" stroke="#6666ff" points="1130.99,-524.99 1139.91,-530.7 1136.5,-520.67 1130.99,-524.99"/>
</g>
<!-- Metamodel::NativeHOW&#45;&gt;Metamodel::MROBasedMethodDispatch -->
<g id="edge10" class="edge">
<title>Metamodel::NativeHOW&#45;&gt;Metamodel::MROBasedMethodDispatch</title>
<path fill="none" stroke="#6666ff" d="M761.54,-123.85C671.69,-154.99 475.88,-222.85 377.21,-257.04"/>
<polygon fill="#6666ff" stroke="#6666ff" points="375.98,-253.76 367.68,-260.34 378.28,-260.38 375.98,-253.76"/>
</g>
<!-- Metamodel::NativeHOW&#45;&gt;Metamodel::MROBasedTypeChecking -->
<g id="edge11" class="edge">
<title>Metamodel::NativeHOW&#45;&gt;Metamodel::MROBasedTypeChecking</title>
<path fill="none" stroke="#6666ff" d="M792,-125.33C765.5,-153.73 713.5,-209.46 682.93,-242.23"/>
<polygon fill="#6666ff" stroke="#6666ff" points="680.28,-239.94 676.02,-249.64 685.4,-244.72 680.28,-239.94"/>
</g>
<!-- Metamodel::AttributeContainer -->
<g id="node12" class="node">
<title>Metamodel::AttributeContainer</title>
<g id="a_node12"><a xlink:href="/type/Metamodel::AttributeContainer" xlink:title="Metamodel::AttributeContainer">
<ellipse fill="none" stroke="#6666ff" cx="261.11" cy="-1028.63" rx="129.98" ry="18"/>
<text text-anchor="middle" x="261.11" y="-1024.93" font-family="FreeSans" font-size="14.00" fill="#6666ff">Metamodel::AttributeContainer</text>
</a>
</g>
</g>
<!-- Metamodel::Finalization -->
<g id="node13" class="node">
<title>Metamodel::Finalization</title>
<g id="a_node13"><a xlink:href="/type/Metamodel::Finalization" xlink:title="Metamodel::Finalization">
<ellipse fill="none" stroke="#6666ff" cx="1075.47" cy="-1144.44" rx="103.98" ry="18"/>
<text text-anchor="middle" x="1075.47" y="-1140.74" font-family="FreeSans" font-size="14.00" fill="#6666ff">Metamodel::Finalization</text>
</a>
</g>
</g>
<!-- Metamodel::MethodContainer -->
<g id="node14" class="node">
<title>Metamodel::MethodContainer</title>
<g id="a_node14"><a xlink:href="/type/Metamodel::MethodContainer" xlink:title="Metamodel::MethodContainer">
<ellipse fill="none" stroke="#6666ff" cx="966.47" cy="-1292.85" rx="127.28" ry="18"/>
<text text-anchor="middle" x="966.47" y="-1289.15" font-family="FreeSans" font-size="14.00" fill="#6666ff">Metamodel::MethodContainer</text>
</a>
</g>
</g>
<!-- Metamodel::PrivateMethodContainer -->
<g id="node15" class="node">
<title>Metamodel::PrivateMethodContainer</title>
<g id="a_node15"><a xlink:href="/type/Metamodel::PrivateMethodContainer" xlink:title="Metamodel::PrivateMethodContainer">
<ellipse fill="none" stroke="#6666ff" cx="788.39" cy="-1244.63" rx="154.87" ry="18"/>
<text text-anchor="middle" x="788.39" y="-1240.93" font-family="FreeSans" font-size="14.00" fill="#6666ff">Metamodel::PrivateMethodContainer</text>
</a>
</g>
</g>
<!-- Metamodel::MultiMethodContainer -->
<g id="node16" class="node">
<title>Metamodel::MultiMethodContainer</title>
<g id="a_node16"><a xlink:href="/type/Metamodel::MultiMethodContainer" xlink:title="Metamodel::MultiMethodContainer">
<ellipse fill="none" stroke="#6666ff" cx="1260.63" cy="-853.34" rx="146.47" ry="18"/>
<text text-anchor="middle" x="1260.63" y="-849.64" font-family="FreeSans" font-size="14.00" fill="#6666ff">Metamodel::MultiMethodContainer</text>
</a>
</g>
</g>
<!-- Metamodel::RoleContainer -->
<g id="node17" class="node">
<title>Metamodel::RoleContainer</title>
<g id="a_node17"><a xlink:href="/type/Metamodel::RoleContainer" xlink:title="Metamodel::RoleContainer">
<ellipse fill="none" stroke="#6666ff" cx="1199.1" cy="-1026.47" rx="115.88" ry="18"/>
<text text-anchor="middle" x="1199.1" y="-1022.77" font-family="FreeSans" font-size="14.00" fill="#6666ff">Metamodel::RoleContainer</text>
</a>
</g>
</g>
<!-- Metamodel::DefaultParent -->
<g id="node18" class="node">
<title>Metamodel::DefaultParent</title>
<g id="a_node18"><a xlink:href="/type/Metamodel::DefaultParent" xlink:title="Metamodel::DefaultParent">
<ellipse fill="none" stroke="#6666ff" cx="520.73" cy="-1194.39" rx="113.18" ry="18"/>
<text text-anchor="middle" x="520.73" y="-1190.69" font-family="FreeSans" font-size="14.00" fill="#6666ff">Metamodel::DefaultParent</text>
</a>
</g>
</g>
<!-- Metamodel::Trusting -->
<g id="node19" class="node">
<title>Metamodel::Trusting</title>
<g id="a_node19"><a xlink:href="/type/Metamodel::Trusting" xlink:title="Metamodel::Trusting">
<ellipse fill="none" stroke="#6666ff" cx="307.98" cy="-1209.36" rx="91.78" ry="18"/>
<text text-anchor="middle" x="307.98" y="-1205.66" font-family="FreeSans" font-size="14.00" fill="#6666ff">Metamodel::Trusting</text>
</a>
</g>
</g>
<!-- Metamodel::BUILDPLAN -->
<g id="node20" class="node">
<title>Metamodel::BUILDPLAN</title>
<g id="a_node20"><a xlink:href="/type/Metamodel::BUILDPLAN" xlink:title="Metamodel::BUILDPLAN">
<ellipse fill="none" stroke="#6666ff" cx="625.59" cy="-1358.28" rx="109.68" ry="18"/>
<text text-anchor="middle" x="625.59" y="-1354.58" font-family="FreeSans" font-size="14.00" fill="#6666ff">Metamodel::BUILDPLAN</text>
</a>
</g>
</g>
<!-- Metamodel::Mixins -->
<g id="node21" class="node">
<title>Metamodel::Mixins</title>
<g id="a_node21"><a xlink:href="/type/Metamodel::Mixins" xlink:title="Metamodel::Mixins">
<ellipse fill="none" stroke="#6666ff" cx="163.03" cy="-885.85" rx="85.29" ry="18"/>
<text text-anchor="middle" x="163.03" y="-882.15" font-family="FreeSans" font-size="14.00" fill="#6666ff">Metamodel::Mixins</text>
</a>
</g>
</g>
<!-- Metamodel::BoolificationProtocol -->
<g id="node22" class="node">
<title>Metamodel::BoolificationProtocol</title>
<g id="a_node22"><a xlink:href="/type/Metamodel::BoolificationProtocol" xlink:title="Metamodel::BoolificationProtocol">
<ellipse fill="none" stroke="#6666ff" cx="139.09" cy="-699.39" rx="139.18" ry="18"/>
<text text-anchor="middle" x="139.09" y="-695.69" font-family="FreeSans" font-size="14.00" fill="#6666ff">Metamodel::BoolificationProtocol</text>
</a>
</g>
</g>
<!-- Metamodel::ClassHOW -->
<g id="node23" class="node">
<title>Metamodel::ClassHOW</title>
<g id="a_node23"><a xlink:href="/type/Metamodel::ClassHOW" xlink:title="Metamodel::ClassHOW">
<ellipse fill="none" stroke="#000000" cx="699.34" cy="-811.31" rx="103.18" ry="18"/>
<text text-anchor="middle" x="699.34" y="-807.61" font-family="FreeSans" font-size="14.00" fill="#000000">Metamodel::ClassHOW</text>
</a>
</g>
</g>
<!-- Metamodel::ClassHOW&#45;&gt;Metamodel::C3MRO -->
<g id="edge24" class="edge">
<title>Metamodel::ClassHOW&#45;&gt;Metamodel::C3MRO</title>
<path fill="none" stroke="#6666ff" d="M699.73,-793.07C700.94,-735.92 704.66,-560.07 706.12,-491.09"/>
<polygon fill="#6666ff" stroke="#6666ff" points="709.62,-491.04 706.33,-480.97 702.62,-490.9 709.62,-491.04"/>
</g>
<!-- Metamodel::ClassHOW&#45;&gt;Any -->
<g id="edge3" class="edge">
<title>Metamodel::ClassHOW&#45;&gt;Any</title>
<path fill="none" stroke="#000000" d="M715.21,-793.41C780.61,-719.61 1029.32,-438.95 1103.09,-355.71"/>
<polygon fill="#000000" stroke="#000000" points="1105.85,-357.87 1109.87,-348.07 1100.62,-353.23 1105.85,-357.87"/>
</g>
<!-- Metamodel::ClassHOW&#45;&gt;Metamodel::Naming -->
<g id="edge12" class="edge">
<title>Metamodel::ClassHOW&#45;&gt;Metamodel::Naming</title>
<path fill="none" stroke="#6666ff" d="M728.14,-793.99C780.77,-762.31 892.48,-695.1 951.03,-659.86"/>
<polygon fill="#6666ff" stroke="#6666ff" points="953.19,-662.65 959.96,-654.49 949.58,-656.65 953.19,-662.65"/>
</g>
<!-- Metamodel::ClassHOW&#45;&gt;Metamodel::Documenting -->
<g id="edge13" class="edge">
<title>Metamodel::ClassHOW&#45;&gt;Metamodel::Documenting</title>
<path fill="none" stroke="#6666ff" d="M709.48,-793.25C745.46,-729.2 867.07,-512.66 910.03,-436.18"/>
<polygon fill="#6666ff" stroke="#6666ff" points="913.25,-437.59 915.1,-427.15 907.15,-434.16 913.25,-437.59"/>
</g>
<!-- Metamodel::ClassHOW&#45;&gt;Metamodel::Versioning -->
<g id="edge14" class="edge">
<title>Metamodel::ClassHOW&#45;&gt;Metamodel::Versioning</title>
<path fill="none" stroke="#6666ff" d="M681.47,-793.24C637,-748.27 521.26,-631.21 470.13,-579.5"/>
<polygon fill="#6666ff" stroke="#6666ff" points="472.59,-577.01 463.07,-572.36 467.61,-581.93 472.59,-577.01"/>
</g>
<!-- Metamodel::ClassHOW&#45;&gt;Metamodel::Stashing -->
<g id="edge15" class="edge">
<title>Metamodel::ClassHOW&#45;&gt;Metamodel::Stashing</title>
<path fill="none" stroke="#6666ff" d="M674.84,-793.65C594.31,-735.58 342.88,-554.28 342.88,-554.28 342.88,-554.28 310.93,-488.42 292.25,-449.9"/>
<polygon fill="#6666ff" stroke="#6666ff" points="295.33,-448.23 287.81,-440.76 289.03,-451.28 295.33,-448.23"/>
</g>
<!-- Metamodel::ClassHOW&#45;&gt;Metamodel::MultipleInheritance -->
<g id="edge22" class="edge">
<title>Metamodel::ClassHOW&#45;&gt;Metamodel::MultipleInheritance</title>
<path fill="none" stroke="#6666ff" d="M736.52,-794.48C827.32,-753.38 1053.01,-651.23 1053.01,-651.23 1053.01,-651.23 1080.58,-637.43 1080.58,-637.43 1080.58,-637.43 1111.06,-600.61 1132.75,-574.41"/>
<polygon fill="#6666ff" stroke="#6666ff" points="1135.47,-576.61 1139.16,-566.68 1130.08,-572.15 1135.47,-576.61"/>
</g>
<!-- Metamodel::ClassHOW&#45;&gt;Metamodel::MROBasedMethodDispatch -->
<g id="edge25" class="edge">
<title>Metamodel::ClassHOW&#45;&gt;Metamodel::MROBasedMethodDispatch</title>
<path fill="none" stroke="#6666ff" d="M688.67,-793.24C654.12,-734.75 547.56,-554.34 547.56,-554.34 547.56,-554.34 396.56,-372.42 339.42,-303.58"/>
<polygon fill="#6666ff" stroke="#6666ff" points="342.01,-301.23 332.93,-295.77 336.62,-305.7 342.01,-301.23"/>
</g>
<!-- Metamodel::ClassHOW&#45;&gt;Metamodel::MROBasedTypeChecking -->
<g id="edge26" class="edge">
<title>Metamodel::ClassHOW&#45;&gt;Metamodel::MROBasedTypeChecking</title>
<path fill="none" stroke="#6666ff" d="M694.81,-793.07C677.01,-721.35 612.82,-462.76 612.82,-462.76 612.82,-462.76 639.42,-350.3 652.2,-296.29"/>
<polygon fill="#6666ff" stroke="#6666ff" points="655.66,-296.86 654.55,-286.32 648.85,-295.25 655.66,-296.86"/>
</g>
<!-- Metamodel::ClassHOW&#45;&gt;Metamodel::AttributeContainer -->
<g id="edge16" class="edge">
<title>Metamodel::ClassHOW&#45;&gt;Metamodel::AttributeContainer</title>
<path fill="none" stroke="#6666ff" d="M664.95,-828.37C586.2,-867.42 392.86,-963.3 305.38,-1006.68"/>
<polygon fill="#6666ff" stroke="#6666ff" points="303.65,-1003.63 296.24,-1011.21 306.76,-1009.9 303.65,-1003.63"/>
</g>
<!-- Metamodel::ClassHOW&#45;&gt;Metamodel::Finalization -->
<g id="edge17" class="edge">
<title>Metamodel::ClassHOW&#45;&gt;Metamodel::Finalization</title>
<path fill="none" stroke="#6666ff" d="M719.3,-828.99C781.89,-884.42 974.48,-1055 1047.24,-1119.44"/>
<polygon fill="#6666ff" stroke="#6666ff" points="1045.3,-1122.39 1055.1,-1126.41 1049.94,-1117.15 1045.3,-1122.39"/>
</g>
<!-- Metamodel::ClassHOW&#45;&gt;Metamodel::MethodContainer -->
<g id="edge18" class="edge">
<title>Metamodel::ClassHOW&#45;&gt;Metamodel::MethodContainer</title>
<path fill="none" stroke="#6666ff" d="M709.57,-829.39C756,-911.41 944.68,-1244.73 944.68,-1244.73 944.68,-1244.73 949.18,-1254.68 954.1,-1265.53"/>
<polygon fill="#6666ff" stroke="#6666ff" points="950.92,-1267 958.23,-1274.66 957.29,-1264.11 950.92,-1267"/>
</g>
<!-- Metamodel::ClassHOW&#45;&gt;Metamodel::PrivateMethodContainer -->
<g id="edge19" class="edge">
<title>Metamodel::ClassHOW&#45;&gt;Metamodel::PrivateMethodContainer</title>
<path fill="none" stroke="#6666ff" d="M703.05,-829.38C716.93,-896.9 765.8,-1134.7 782.64,-1216.63"/>
<polygon fill="#6666ff" stroke="#6666ff" points="779.22,-1217.39 784.66,-1226.48 786.08,-1215.98 779.22,-1217.39"/>
</g>
<!-- Metamodel::ClassHOW&#45;&gt;Metamodel::MultiMethodContainer -->
<g id="edge20" class="edge">
<title>Metamodel::ClassHOW&#45;&gt;Metamodel::MultiMethodContainer</title>
<path fill="none" stroke="#6666ff" d="M794.56,-818.44C885.44,-825.25 1023.28,-835.57 1125.51,-843.23"/>
<polygon fill="#6666ff" stroke="#6666ff" points="1125.37,-846.73 1135.6,-843.98 1125.89,-839.74 1125.37,-846.73"/>
</g>
<!-- Metamodel::ClassHOW&#45;&gt;Metamodel::RoleContainer -->
<g id="edge21" class="edge">
<title>Metamodel::ClassHOW&#45;&gt;Metamodel::RoleContainer</title>
<path fill="none" stroke="#6666ff" d="M738.14,-828.02C828.23,-866.8 1051.43,-962.9 1150.45,-1005.53"/>
<polygon fill="#6666ff" stroke="#6666ff" points="1149.07,-1008.74 1159.64,-1009.48 1151.84,-1002.31 1149.07,-1008.74"/>
</g>
<!-- Metamodel::ClassHOW&#45;&gt;Metamodel::DefaultParent -->
<g id="edge23" class="edge">
<title>Metamodel::ClassHOW&#45;&gt;Metamodel::DefaultParent</title>
<path fill="none" stroke="#6666ff" d="M690.96,-829.28C662.32,-890.72 568.12,-1092.75 533.58,-1166.84"/>
<polygon fill="#6666ff" stroke="#6666ff" points="530.35,-1165.47 529.29,-1176.02 536.69,-1168.43 530.35,-1165.47"/>
</g>
<!-- Metamodel::ClassHOW&#45;&gt;Metamodel::Trusting -->
<g id="edge27" class="edge">
<title>Metamodel::ClassHOW&#45;&gt;Metamodel::Trusting</title>
<path fill="none" stroke="#6666ff" d="M681.76,-829.19C619.05,-892.97 406.14,-1109.53 332.94,-1183.98"/>
<polygon fill="#6666ff" stroke="#6666ff" points="330.02,-1181.95 325.5,-1191.54 335.01,-1186.86 330.02,-1181.95"/>
</g>
<!-- Metamodel::ClassHOW&#45;&gt;Metamodel::BUILDPLAN -->
<g id="edge28" class="edge">
<title>Metamodel::ClassHOW&#45;&gt;Metamodel::BUILDPLAN</title>
<path fill="none" stroke="#6666ff" d="M696.54,-829.38C683.81,-911.36 632.11,-1244.52 632.11,-1244.52 632.11,-1244.52 629.14,-1296.35 627.21,-1330.04"/>
<polygon fill="#6666ff" stroke="#6666ff" points="623.7,-1330.07 626.63,-1340.25 630.69,-1330.47 623.7,-1330.07"/>
</g>
<!-- Metamodel::ClassHOW&#45;&gt;Metamodel::Mixins -->
<g id="edge29" class="edge">
<title>Metamodel::ClassHOW&#45;&gt;Metamodel::Mixins</title>
<path fill="none" stroke="#6666ff" d="M618.47,-822.55C517.47,-836.59 345.68,-860.47 244.43,-874.54"/>
<polygon fill="#6666ff" stroke="#6666ff" points="243.68,-871.11 234.26,-875.95 244.64,-878.04 243.68,-871.11"/>
</g>
<!-- Metamodel::ClassHOW&#45;&gt;Metamodel::BoolificationProtocol -->
<g id="edge30" class="edge">
<title>Metamodel::ClassHOW&#45;&gt;Metamodel::BoolificationProtocol</title>
<path fill="none" stroke="#6666ff" d="M631.2,-797.7C529.01,-777.29 336.18,-738.77 224.65,-716.48"/>
<polygon fill="#6666ff" stroke="#6666ff" points="225.27,-713.04 214.78,-714.51 223.9,-719.9 225.27,-713.04"/>
</g>
</g>
</svg>
