<?xml version="1.0" encoding="UTF-8" standalone="no"?>
<!DOCTYPE svg PUBLIC "-//W3C//DTD SVG 1.1//EN"
 "http://www.w3.org/Graphics/SVG/1.1/DTD/svg11.dtd">
<!-- Generated by graphviz version 2.43.0 (0)
 -->
<!-- Title: perl6&#45;type&#45;graph Pages: 1 -->
<svg width="439pt" height="70pt"
 viewBox="0.00 0.00 439.46 69.87" xmlns="http://www.w3.org/2000/svg" xmlns:xlink="http://www.w3.org/1999/xlink">
<g id="graph0" class="graph" transform="scale(1 1) rotate(0) translate(4 65.87)">
<title>perl6&#45;type&#45;graph</title>
<polygon fill="white" stroke="transparent" points="-4,4 -4,-65.87 435.46,-65.87 435.46,4 -4,4"/>
<!-- Metamodel::StaticLexPad -->
<g id="node1" class="node">
<title>Metamodel::StaticLexPad</title>
<g id="a_node1"><a xlink:href="/type/Metamodel::StaticLexPad" xlink:title="Metamodel::StaticLexPad">
<ellipse fill="none" stroke="#000000" cx="111.79" cy="-37.92" rx="111.58" ry="18"/>
<text text-anchor="middle" x="111.79" y="-34.22" font-family="FreeSans" font-size="14.00" fill="#000000">Metamodel::StaticLexPad</text>
</a>
</g>
</g>
<!-- Any -->
<g id="node3" class="node">
<title>Any</title>
<g id="a_node3"><a xlink:href="/type/Any" xlink:title="Any">
<ellipse fill="none" stroke="#000000" cx="258.59" cy="-18" rx="27" ry="18"/>
<text text-anchor="middle" x="258.59" y="-14.3" font-family="FreeSans" font-size="14.00" fill="#000000">Any</text>
</a>
</g>
</g>
<!-- Metamodel::StaticLexPad&#45;&gt;Any -->
<g id="edge1" class="edge">
<title>Metamodel::StaticLexPad&#45;&gt;Any</title>
<path fill="none" stroke="#000000" d="M197.61,-26.27C206.06,-25.13 214.27,-24.01 221.8,-22.99"/>
<polygon fill="#000000" stroke="#000000" points="222.5,-26.43 231.94,-21.62 221.56,-19.49 222.5,-26.43"/>
</g>
<!-- Mu -->
<g id="node2" class="node">
<title>Mu</title>
<g id="a_node2"><a xlink:href="/type/Mu" xlink:title="Mu">
<ellipse fill="none" stroke="#000000" cx="404.46" cy="-43.87" rx="27" ry="18"/>
<text text-anchor="middle" x="404.46" y="-40.17" font-family="FreeSans" font-size="14.00" fill="#000000">Mu</text>
</a>
</g>
</g>
<!-- Any&#45;&gt;Mu -->
<g id="edge2" class="edge">
<title>Any&#45;&gt;Mu</title>
<path fill="none" stroke="#000000" d="M285.01,-22.68C308.24,-26.8 342.29,-32.84 368.09,-37.42"/>
<polygon fill="#000000" stroke="#000000" points="367.78,-40.92 378.24,-39.22 369,-34.03 367.78,-40.92"/>
</g>
</g>
</svg>
