<?xml version="1.0" encoding="UTF-8" standalone="no"?>
<!DOCTYPE svg PUBLIC "-//W3C//DTD SVG 1.1//EN"
 "http://www.w3.org/Graphics/SVG/1.1/DTD/svg11.dtd">
<!-- Generated by graphviz version 2.43.0 (0)
 -->
<!-- Title: perl6&#45;type&#45;graph Pages: 1 -->
<svg width="1773pt" height="1620pt"
 viewBox="0.00 0.00 1773.41 1620.36" xmlns="http://www.w3.org/2000/svg" xmlns:xlink="http://www.w3.org/1999/xlink">
<g id="graph0" class="graph" transform="scale(1 1) rotate(0) translate(4 1616.36)">
<title>perl6&#45;type&#45;graph</title>
<polygon fill="white" stroke="transparent" points="-4,4 -4,-1616.36 1769.41,-1616.36 1769.41,4 -4,4"/>
<!-- Metamodel::Mixins -->
<g id="node1" class="node">
<title>Metamodel::Mixins</title>
<g id="a_node1"><a xlink:href="/type/Metamodel::Mixins" xlink:title="Metamodel::Mixins">
<ellipse fill="none" stroke="#6666ff" cx="252.73" cy="-659.99" rx="85.29" ry="18"/>
<text text-anchor="middle" x="252.73" y="-656.29" font-family="FreeSans" font-size="14.00" fill="#6666ff">Metamodel::Mixins</text>
</a>
</g>
</g>
<!-- Mu -->
<g id="node2" class="node">
<title>Mu</title>
<g id="a_node2"><a xlink:href="/type/Mu" xlink:title="Mu">
<ellipse fill="none" stroke="#000000" cx="1738.41" cy="-455.88" rx="27" ry="18"/>
<text text-anchor="middle" x="1738.41" y="-452.18" font-family="FreeSans" font-size="14.00" fill="#000000">Mu</text>
</a>
</g>
</g>
<!-- Any -->
<g id="node3" class="node">
<title>Any</title>
<g id="a_node3"><a xlink:href="/type/Any" xlink:title="Any">
<ellipse fill="none" stroke="#000000" cx="1234.06" cy="-602.39" rx="27" ry="18"/>
<text text-anchor="middle" x="1234.06" y="-598.69" font-family="FreeSans" font-size="14.00" fill="#000000">Any</text>
</a>
</g>
</g>
<!-- Any&#45;&gt;Mu -->
<g id="edge1" class="edge">
<title>Any&#45;&gt;Mu</title>
<path fill="none" stroke="#000000" d="M1259.07,-595.13C1342.02,-571.03 1608.17,-493.72 1703.79,-465.94"/>
<polygon fill="#000000" stroke="#000000" points="1704.92,-469.25 1713.54,-463.1 1702.96,-462.53 1704.92,-469.25"/>
</g>
<!-- Metamodel::Naming -->
<g id="node4" class="node">
<title>Metamodel::Naming</title>
<g id="a_node4"><a xlink:href="/type/Metamodel::Naming" xlink:title="Metamodel::Naming">
<ellipse fill="none" stroke="#6666ff" cx="724.68" cy="-1228.18" rx="90.18" ry="18"/>
<text text-anchor="middle" x="724.68" y="-1224.48" font-family="FreeSans" font-size="14.00" fill="#6666ff">Metamodel::Naming</text>
</a>
</g>
</g>
<!-- Metamodel::Stashing -->
<g id="node5" class="node">
<title>Metamodel::Stashing</title>
<g id="a_node5"><a xlink:href="/type/Metamodel::Stashing" xlink:title="Metamodel::Stashing">
<ellipse fill="none" stroke="#6666ff" cx="1081.79" cy="-933.82" rx="93.68" ry="18"/>
<text text-anchor="middle" x="1081.79" y="-930.12" font-family="FreeSans" font-size="14.00" fill="#6666ff">Metamodel::Stashing</text>
</a>
</g>
</g>
<!-- Metamodel::AttributeContainer -->
<g id="node6" class="node">
<title>Metamodel::AttributeContainer</title>
<g id="a_node6"><a xlink:href="/type/Metamodel::AttributeContainer" xlink:title="Metamodel::AttributeContainer">
<ellipse fill="none" stroke="#6666ff" cx="387.89" cy="-979.07" rx="129.98" ry="18"/>
<text text-anchor="middle" x="387.89" y="-975.37" font-family="FreeSans" font-size="14.00" fill="#6666ff">Metamodel::AttributeContainer</text>
</a>
</g>
</g>
<!-- Metamodel::MethodContainer -->
<g id="node7" class="node">
<title>Metamodel::MethodContainer</title>
<g id="a_node7"><a xlink:href="/type/Metamodel::MethodContainer" xlink:title="Metamodel::MethodContainer">
<ellipse fill="none" stroke="#6666ff" cx="382.17" cy="-532.19" rx="127.28" ry="18"/>
<text text-anchor="middle" x="382.17" y="-528.49" font-family="FreeSans" font-size="14.00" fill="#6666ff">Metamodel::MethodContainer</text>
</a>
</g>
</g>
<!-- Metamodel::MultiMethodContainer -->
<g id="node8" class="node">
<title>Metamodel::MultiMethodContainer</title>
<g id="a_node8"><a xlink:href="/type/Metamodel::MultiMethodContainer" xlink:title="Metamodel::MultiMethodContainer">
<ellipse fill="none" stroke="#6666ff" cx="1212.75" cy="-785.73" rx="146.47" ry="18"/>
<text text-anchor="middle" x="1212.75" y="-782.03" font-family="FreeSans" font-size="14.00" fill="#6666ff">Metamodel::MultiMethodContainer</text>
</a>
</g>
</g>
<!-- Metamodel::RoleContainer -->
<g id="node9" class="node">
<title>Metamodel::RoleContainer</title>
<g id="a_node9"><a xlink:href="/type/Metamodel::RoleContainer" xlink:title="Metamodel::RoleContainer">
<ellipse fill="none" stroke="#6666ff" cx="517.56" cy="-446.6" rx="115.88" ry="18"/>
<text text-anchor="middle" x="517.56" y="-442.9" font-family="FreeSans" font-size="14.00" fill="#6666ff">Metamodel::RoleContainer</text>
</a>
</g>
</g>
<!-- Metamodel::BaseType -->
<g id="node10" class="node">
<title>Metamodel::BaseType</title>
<g id="a_node10"><a xlink:href="/type/Metamodel::BaseType" xlink:title="Metamodel::BaseType">
<ellipse fill="none" stroke="#6666ff" cx="956.83" cy="-18" rx="99.38" ry="18"/>
<text text-anchor="middle" x="956.83" y="-14.3" font-family="FreeSans" font-size="14.00" fill="#6666ff">Metamodel::BaseType</text>
</a>
</g>
</g>
<!-- Metamodel::MROBasedMethodDispatch -->
<g id="node11" class="node">
<title>Metamodel::MROBasedMethodDispatch</title>
<g id="a_node11"><a xlink:href="/type/Metamodel::MROBasedMethodDispatch" xlink:title="Metamodel::MROBasedMethodDispatch">
<ellipse fill="none" stroke="#6666ff" cx="697.52" cy="-394.47" rx="169.77" ry="18"/>
<text text-anchor="middle" x="697.52" y="-390.77" font-family="FreeSans" font-size="14.00" fill="#6666ff">Metamodel::MROBasedMethodDispatch</text>
</a>
</g>
</g>
<!-- Metamodel::MROBasedTypeChecking -->
<g id="node12" class="node">
<title>Metamodel::MROBasedTypeChecking</title>
<g id="a_node12"><a xlink:href="/type/Metamodel::MROBasedTypeChecking" xlink:title="Metamodel::MROBasedTypeChecking">
<ellipse fill="none" stroke="#6666ff" cx="342.48" cy="-793.58" rx="163.27" ry="18"/>
<text text-anchor="middle" x="342.48" y="-789.88" font-family="FreeSans" font-size="14.00" fill="#6666ff">Metamodel::MROBasedTypeChecking</text>
</a>
</g>
</g>
<!-- Metamodel::BUILDPLAN -->
<g id="node13" class="node">
<title>Metamodel::BUILDPLAN</title>
<g id="a_node13"><a xlink:href="/type/Metamodel::BUILDPLAN" xlink:title="Metamodel::BUILDPLAN">
<ellipse fill="none" stroke="#6666ff" cx="1266.23" cy="-1015.53" rx="109.68" ry="18"/>
<text text-anchor="middle" x="1266.23" y="-1011.83" font-family="FreeSans" font-size="14.00" fill="#6666ff">Metamodel::BUILDPLAN</text>
</a>
</g>
</g>
<!-- Metamodel::BoolificationProtocol -->
<g id="node14" class="node">
<title>Metamodel::BoolificationProtocol</title>
<g id="a_node14"><a xlink:href="/type/Metamodel::BoolificationProtocol" xlink:title="Metamodel::BoolificationProtocol">
<ellipse fill="none" stroke="#6666ff" cx="1043.2" cy="-1164.66" rx="139.18" ry="18"/>
<text text-anchor="middle" x="1043.2" y="-1160.96" font-family="FreeSans" font-size="14.00" fill="#6666ff">Metamodel::BoolificationProtocol</text>
</a>
</g>
</g>
<!-- Metamodel::EnumHOW -->
<g id="node15" class="node">
<title>Metamodel::EnumHOW</title>
<g id="a_node15"><a xlink:href="/type/Metamodel::EnumHOW" xlink:title="Metamodel::EnumHOW">
<ellipse fill="none" stroke="#000000" cx="819.35" cy="-656.73" rx="104.78" ry="18"/>
<text text-anchor="middle" x="819.35" y="-653.03" font-family="FreeSans" font-size="14.00" fill="#000000">Metamodel::EnumHOW</text>
</a>
</g>
</g>
<!-- Metamodel::EnumHOW&#45;&gt;Metamodel::Mixins -->
<g id="edge15" class="edge">
<title>Metamodel::EnumHOW&#45;&gt;Metamodel::Mixins</title>
<path fill="none" stroke="#6666ff" d="M714.76,-657.33C609.96,-657.93 450.01,-658.85 348.45,-659.44"/>
<polygon fill="#6666ff" stroke="#6666ff" points="348.18,-655.94 338.2,-659.49 348.22,-662.94 348.18,-655.94"/>
</g>
<!-- Metamodel::EnumHOW&#45;&gt;Any -->
<g id="edge2" class="edge">
<title>Metamodel::EnumHOW&#45;&gt;Any</title>
<path fill="none" stroke="#000000" d="M902.77,-645.8C992.62,-634.03 1131.5,-615.83 1197.2,-607.22"/>
<polygon fill="#000000" stroke="#000000" points="1198.02,-610.65 1207.48,-605.88 1197.11,-603.7 1198.02,-610.65"/>
</g>
<!-- Metamodel::EnumHOW&#45;&gt;Metamodel::Naming -->
<g id="edge4" class="edge">
<title>Metamodel::EnumHOW&#45;&gt;Metamodel::Naming</title>
<path fill="none" stroke="#6666ff" d="M819.32,-675.18C819.22,-745.27 818.89,-991.08 818.89,-991.08 818.89,-991.08 760.64,-1137.67 735.75,-1200.33"/>
<polygon fill="#6666ff" stroke="#6666ff" points="732.36,-1199.38 731.92,-1209.97 738.87,-1201.97 732.36,-1199.38"/>
</g>
<!-- Metamodel::EnumHOW&#45;&gt;Metamodel::Stashing -->
<g id="edge5" class="edge">
<title>Metamodel::EnumHOW&#45;&gt;Metamodel::Stashing</title>
<path fill="none" stroke="#6666ff" d="M836.57,-674.91C882.09,-722.97 1005.72,-853.49 1057.97,-908.66"/>
<polygon fill="#6666ff" stroke="#6666ff" points="1055.43,-911.08 1064.85,-915.93 1060.52,-906.26 1055.43,-911.08"/>
</g>
<!-- Metamodel::EnumHOW&#45;&gt;Metamodel::AttributeContainer -->
<g id="edge6" class="edge">
<title>Metamodel::EnumHOW&#45;&gt;Metamodel::AttributeContainer</title>
<path fill="none" stroke="#6666ff" d="M795.84,-674.29C723.25,-728.52 502.51,-893.44 419.71,-955.3"/>
<polygon fill="#6666ff" stroke="#6666ff" points="417.6,-952.51 411.68,-961.3 421.79,-958.12 417.6,-952.51"/>
</g>
<!-- Metamodel::EnumHOW&#45;&gt;Metamodel::MethodContainer -->
<g id="edge7" class="edge">
<title>Metamodel::EnumHOW&#45;&gt;Metamodel::MethodContainer</title>
<path fill="none" stroke="#6666ff" d="M764.86,-641.21C684.75,-618.38 535.33,-575.82 448.8,-551.17"/>
<polygon fill="#6666ff" stroke="#6666ff" points="449.66,-547.77 439.08,-548.4 447.74,-554.5 449.66,-547.77"/>
</g>
<!-- Metamodel::EnumHOW&#45;&gt;Metamodel::MultiMethodContainer -->
<g id="edge8" class="edge">
<title>Metamodel::EnumHOW&#45;&gt;Metamodel::MultiMethodContainer</title>
<path fill="none" stroke="#6666ff" d="M867.98,-672.68C939.54,-696.14 1073.17,-739.96 1151.38,-765.61"/>
<polygon fill="#6666ff" stroke="#6666ff" points="1150.51,-769.01 1161.11,-768.8 1152.69,-762.36 1150.51,-769.01"/>
</g>
<!-- Metamodel::EnumHOW&#45;&gt;Metamodel::RoleContainer -->
<g id="edge9" class="edge">
<title>Metamodel::EnumHOW&#45;&gt;Metamodel::RoleContainer</title>
<path fill="none" stroke="#6666ff" d="M794.14,-639.17C739.99,-601.48 612.56,-512.75 551.43,-470.19"/>
<polygon fill="#6666ff" stroke="#6666ff" points="553.12,-467.09 542.91,-464.25 549.12,-472.84 553.12,-467.09"/>
</g>
<!-- Metamodel::EnumHOW&#45;&gt;Metamodel::BaseType -->
<g id="edge10" class="edge">
<title>Metamodel::EnumHOW&#45;&gt;Metamodel::BaseType</title>
<path fill="none" stroke="#6666ff" d="M822.12,-638.45C828.9,-593.8 845.74,-482.83 845.74,-482.83 845.74,-482.83 868.75,-394.65 868.75,-394.65 868.75,-394.65 929.91,-133.1 950.3,-45.91"/>
<polygon fill="#6666ff" stroke="#6666ff" points="953.71,-46.7 952.58,-36.17 946.9,-45.11 953.71,-46.7"/>
</g>
<!-- Metamodel::EnumHOW&#45;&gt;Metamodel::MROBasedMethodDispatch -->
<g id="edge11" class="edge">
<title>Metamodel::EnumHOW&#45;&gt;Metamodel::MROBasedMethodDispatch</title>
<path fill="none" stroke="#6666ff" d="M810.97,-638.7C790.02,-593.6 735.23,-475.64 710.26,-421.88"/>
<polygon fill="#6666ff" stroke="#6666ff" points="713.34,-420.22 705.95,-412.62 706.99,-423.17 713.34,-420.22"/>
</g>
<!-- Metamodel::EnumHOW&#45;&gt;Metamodel::MROBasedTypeChecking -->
<g id="edge12" class="edge">
<title>Metamodel::EnumHOW&#45;&gt;Metamodel::MROBasedTypeChecking</title>
<path fill="none" stroke="#6666ff" d="M765.11,-672.29C677.87,-697.33 506.53,-746.5 410.99,-773.92"/>
<polygon fill="#6666ff" stroke="#6666ff" points="409.78,-770.63 401.13,-776.75 411.71,-777.35 409.78,-770.63"/>
</g>
<!-- Metamodel::EnumHOW&#45;&gt;Metamodel::BUILDPLAN -->
<g id="edge13" class="edge">
<title>Metamodel::EnumHOW&#45;&gt;Metamodel::BUILDPLAN</title>
<path fill="none" stroke="#6666ff" d="M842.26,-674.49C921.2,-735.69 1176.98,-933.99 1176.98,-933.99 1176.98,-933.99 1212.72,-966.64 1238.97,-990.62"/>
<polygon fill="#6666ff" stroke="#6666ff" points="1236.68,-993.27 1246.42,-997.43 1241.4,-988.1 1236.68,-993.27"/>
</g>
<!-- Metamodel::EnumHOW&#45;&gt;Metamodel::BoolificationProtocol -->
<g id="edge14" class="edge">
<title>Metamodel::EnumHOW&#45;&gt;Metamodel::BoolificationProtocol</title>
<path fill="none" stroke="#6666ff" d="M827.31,-674.81C860.87,-750.94 990.8,-1045.76 1031.16,-1137.35"/>
<polygon fill="#6666ff" stroke="#6666ff" points="1027.97,-1138.79 1035.21,-1146.53 1034.38,-1135.97 1027.97,-1138.79"/>
</g>
<!-- Metamodel::Documenting -->
<g id="node16" class="node">
<title>Metamodel::Documenting</title>
<g id="a_node16"><a xlink:href="/type/Metamodel::Documenting" xlink:title="Metamodel::Documenting">
<ellipse fill="none" stroke="#6666ff" cx="958.48" cy="-482.93" rx="111.28" ry="18"/>
<text text-anchor="middle" x="958.48" y="-479.23" font-family="FreeSans" font-size="14.00" fill="#6666ff">Metamodel::Documenting</text>
</a>
</g>
</g>
<!-- Metamodel::Versioning -->
<g id="node17" class="node">
<title>Metamodel::Versioning</title>
<g id="a_node17"><a xlink:href="/type/Metamodel::Versioning" xlink:title="Metamodel::Versioning">
<ellipse fill="none" stroke="#6666ff" cx="1217.34" cy="-1395.09" rx="100.98" ry="18"/>
<text text-anchor="middle" x="1217.34" y="-1391.39" font-family="FreeSans" font-size="14.00" fill="#6666ff">Metamodel::Versioning</text>
</a>
</g>
</g>
<!-- Metamodel::Finalization -->
<g id="node18" class="node">
<title>Metamodel::Finalization</title>
<g id="a_node18"><a xlink:href="/type/Metamodel::Finalization" xlink:title="Metamodel::Finalization">
<ellipse fill="none" stroke="#6666ff" cx="529.77" cy="-1557.25" rx="103.98" ry="18"/>
<text text-anchor="middle" x="529.77" y="-1553.55" font-family="FreeSans" font-size="14.00" fill="#6666ff">Metamodel::Finalization</text>
</a>
</g>
</g>
<!-- Metamodel::PrivateMethodContainer -->
<g id="node19" class="node">
<title>Metamodel::PrivateMethodContainer</title>
<g id="a_node19"><a xlink:href="/type/Metamodel::PrivateMethodContainer" xlink:title="Metamodel::PrivateMethodContainer">
<ellipse fill="none" stroke="#6666ff" cx="352.17" cy="-1452.22" rx="154.87" ry="18"/>
<text text-anchor="middle" x="352.17" y="-1448.52" font-family="FreeSans" font-size="14.00" fill="#6666ff">Metamodel::PrivateMethodContainer</text>
</a>
</g>
</g>
<!-- Metamodel::MultipleInheritance -->
<g id="node20" class="node">
<title>Metamodel::MultipleInheritance</title>
<g id="a_node20"><a xlink:href="/type/Metamodel::MultipleInheritance" xlink:title="Metamodel::MultipleInheritance">
<ellipse fill="none" stroke="#6666ff" cx="775.67" cy="-1594.36" rx="133.78" ry="18"/>
<text text-anchor="middle" x="775.67" y="-1590.66" font-family="FreeSans" font-size="14.00" fill="#6666ff">Metamodel::MultipleInheritance</text>
</a>
</g>
</g>
<!-- Metamodel::DefaultParent -->
<g id="node21" class="node">
<title>Metamodel::DefaultParent</title>
<g id="a_node21"><a xlink:href="/type/Metamodel::DefaultParent" xlink:title="Metamodel::DefaultParent">
<ellipse fill="none" stroke="#6666ff" cx="200.85" cy="-1294.98" rx="113.18" ry="18"/>
<text text-anchor="middle" x="200.85" y="-1291.28" font-family="FreeSans" font-size="14.00" fill="#6666ff">Metamodel::DefaultParent</text>
</a>
</g>
</g>
<!-- Metamodel::C3MRO -->
<g id="node22" class="node">
<title>Metamodel::C3MRO</title>
<g id="a_node22"><a xlink:href="/type/Metamodel::C3MRO" xlink:title="Metamodel::C3MRO">
<ellipse fill="none" stroke="#6666ff" cx="92.29" cy="-1064.53" rx="92.08" ry="18"/>
<text text-anchor="middle" x="92.29" y="-1060.83" font-family="FreeSans" font-size="14.00" fill="#6666ff">Metamodel::C3MRO</text>
</a>
</g>
</g>
<!-- Metamodel::Trusting -->
<g id="node23" class="node">
<title>Metamodel::Trusting</title>
<g id="a_node23"><a xlink:href="/type/Metamodel::Trusting" xlink:title="Metamodel::Trusting">
<ellipse fill="none" stroke="#6666ff" cx="992.94" cy="-1542.12" rx="91.78" ry="18"/>
<text text-anchor="middle" x="992.94" y="-1538.42" font-family="FreeSans" font-size="14.00" fill="#6666ff">Metamodel::Trusting</text>
</a>
</g>
</g>
<!-- Metamodel::ClassHOW -->
<g id="node24" class="node">
<title>Metamodel::ClassHOW</title>
<g id="a_node24"><a xlink:href="/type/Metamodel::ClassHOW" xlink:title="Metamodel::ClassHOW">
<ellipse fill="none" stroke="#000000" cx="713.95" cy="-991.01" rx="103.18" ry="18"/>
<text text-anchor="middle" x="713.95" y="-987.31" font-family="FreeSans" font-size="14.00" fill="#000000">Metamodel::ClassHOW</text>
</a>
</g>
</g>
<!-- Metamodel::ClassHOW&#45;&gt;Metamodel::Mixins -->
<g id="edge33" class="edge">
<title>Metamodel::ClassHOW&#45;&gt;Metamodel::Mixins</title>
<path fill="none" stroke="#6666ff" d="M695.24,-973.14C644.35,-924.56 507.22,-793.63 507.22,-793.63 507.22,-793.63 366.02,-719.48 293.97,-681.64"/>
<polygon fill="#6666ff" stroke="#6666ff" points="295.18,-678.33 284.7,-676.78 291.93,-684.53 295.18,-678.33"/>
</g>
<!-- Metamodel::ClassHOW&#45;&gt;Any -->
<g id="edge3" class="edge">
<title>Metamodel::ClassHOW&#45;&gt;Any</title>
<path fill="none" stroke="#000000" d="M737.65,-973.3C823.51,-909.15 1117.97,-689.14 1207.82,-622"/>
<polygon fill="#000000" stroke="#000000" points="1209.95,-624.78 1215.86,-615.99 1205.76,-619.17 1209.95,-624.78"/>
</g>
<!-- Metamodel::ClassHOW&#45;&gt;Metamodel::Naming -->
<g id="edge16" class="edge">
<title>Metamodel::ClassHOW&#45;&gt;Metamodel::Naming</title>
<path fill="none" stroke="#6666ff" d="M714.77,-1009.23C716.63,-1050.27 721.16,-1150.23 723.39,-1199.61"/>
<polygon fill="#6666ff" stroke="#6666ff" points="719.91,-1200.07 723.86,-1209.9 726.9,-1199.75 719.91,-1200.07"/>
</g>
<!-- Metamodel::ClassHOW&#45;&gt;Metamodel::Stashing -->
<g id="edge19" class="edge">
<title>Metamodel::ClassHOW&#45;&gt;Metamodel::Stashing</title>
<path fill="none" stroke="#6666ff" d="M791.06,-979.02C851.83,-969.57 936.4,-956.42 998.67,-946.74"/>
<polygon fill="#6666ff" stroke="#6666ff" points="999.51,-950.15 1008.85,-945.16 998.43,-943.24 999.51,-950.15"/>
</g>
<!-- Metamodel::ClassHOW&#45;&gt;Metamodel::AttributeContainer -->
<g id="edge20" class="edge">
<title>Metamodel::ClassHOW&#45;&gt;Metamodel::AttributeContainer</title>
<path fill="none" stroke="#6666ff" d="M612.57,-987.3C584.44,-986.27 553.43,-985.13 523.67,-984.04"/>
<polygon fill="#6666ff" stroke="#6666ff" points="523.76,-980.54 513.63,-983.67 523.5,-987.54 523.76,-980.54"/>
</g>
<!-- Metamodel::ClassHOW&#45;&gt;Metamodel::MethodContainer -->
<g id="edge22" class="edge">
<title>Metamodel::ClassHOW&#45;&gt;Metamodel::MethodContainer</title>
<path fill="none" stroke="#6666ff" d="M700.94,-973.02C649.8,-902.29 462.34,-643.05 401.43,-558.82"/>
<polygon fill="#6666ff" stroke="#6666ff" points="404.15,-556.6 395.45,-550.55 398.47,-560.7 404.15,-556.6"/>
</g>
<!-- Metamodel::ClassHOW&#45;&gt;Metamodel::MultiMethodContainer -->
<g id="edge24" class="edge">
<title>Metamodel::ClassHOW&#45;&gt;Metamodel::MultiMethodContainer</title>
<path fill="none" stroke="#6666ff" d="M754.34,-974.38C844.44,-937.31 1061.71,-847.89 1161.3,-806.9"/>
<polygon fill="#6666ff" stroke="#6666ff" points="1162.65,-810.13 1170.57,-803.09 1159.99,-803.66 1162.65,-810.13"/>
</g>
<!-- Metamodel::ClassHOW&#45;&gt;Metamodel::RoleContainer -->
<g id="edge25" class="edge">
<title>Metamodel::ClassHOW&#45;&gt;Metamodel::RoleContainer</title>
<path fill="none" stroke="#6666ff" d="M707.41,-972.9C678.58,-892.97 562.62,-571.51 527.61,-474.47"/>
<polygon fill="#6666ff" stroke="#6666ff" points="530.8,-473 524.12,-464.78 524.22,-475.38 530.8,-473"/>
</g>
<!-- Metamodel::ClassHOW&#45;&gt;Metamodel::MROBasedMethodDispatch -->
<g id="edge29" class="edge">
<title>Metamodel::ClassHOW&#45;&gt;Metamodel::MROBasedMethodDispatch</title>
<path fill="none" stroke="#6666ff" d="M713.45,-972.83C711.1,-887.49 701.16,-526.45 698.3,-422.55"/>
<polygon fill="#6666ff" stroke="#6666ff" points="701.79,-422.41 698.02,-412.51 694.8,-422.6 701.79,-422.41"/>
</g>
<!-- Metamodel::ClassHOW&#45;&gt;Metamodel::MROBasedTypeChecking -->
<g id="edge30" class="edge">
<title>Metamodel::ClassHOW&#45;&gt;Metamodel::MROBasedTypeChecking</title>
<path fill="none" stroke="#6666ff" d="M681.63,-973.83C614.51,-938.16 460.04,-856.06 384.97,-816.16"/>
<polygon fill="#6666ff" stroke="#6666ff" points="386.26,-812.88 375.79,-811.28 382.98,-819.07 386.26,-812.88"/>
</g>
<!-- Metamodel::ClassHOW&#45;&gt;Metamodel::BUILDPLAN -->
<g id="edge32" class="edge">
<title>Metamodel::ClassHOW&#45;&gt;Metamodel::BUILDPLAN</title>
<path fill="none" stroke="#6666ff" d="M814.28,-995.46C908.84,-999.66 1050.48,-1005.95 1149.93,-1010.36"/>
<polygon fill="#6666ff" stroke="#6666ff" points="1149.88,-1013.86 1160.03,-1010.81 1150.19,-1006.87 1149.88,-1013.86"/>
</g>
<!-- Metamodel::ClassHOW&#45;&gt;Metamodel::BoolificationProtocol -->
<g id="edge34" class="edge">
<title>Metamodel::ClassHOW&#45;&gt;Metamodel::BoolificationProtocol</title>
<path fill="none" stroke="#6666ff" d="M746.42,-1008.13C806.38,-1039.76 934.44,-1107.3 1001.02,-1142.41"/>
<polygon fill="#6666ff" stroke="#6666ff" points="999.52,-1145.58 1009.99,-1147.15 1002.78,-1139.39 999.52,-1145.58"/>
</g>
<!-- Metamodel::ClassHOW&#45;&gt;Metamodel::Documenting -->
<g id="edge17" class="edge">
<title>Metamodel::ClassHOW&#45;&gt;Metamodel::Documenting</title>
<path fill="none" stroke="#6666ff" d="M725.33,-973.04C769.28,-903.63 925.59,-656.84 925.59,-656.84 925.59,-656.84 943.8,-560.52 953.13,-511.25"/>
<polygon fill="#6666ff" stroke="#6666ff" points="956.6,-511.69 955.02,-501.22 949.72,-510.39 956.6,-511.69"/>
</g>
<!-- Metamodel::ClassHOW&#45;&gt;Metamodel::Versioning -->
<g id="edge18" class="edge">
<title>Metamodel::ClassHOW&#45;&gt;Metamodel::Versioning</title>
<path fill="none" stroke="#6666ff" d="M733.42,-1008.93C781.59,-1053.26 902.51,-1164.53 902.51,-1164.53 902.51,-1164.53 1104.93,-1312.77 1185.15,-1371.52"/>
<polygon fill="#6666ff" stroke="#6666ff" points="1183.29,-1374.49 1193.42,-1377.57 1187.42,-1368.84 1183.29,-1374.49"/>
</g>
<!-- Metamodel::ClassHOW&#45;&gt;Metamodel::Finalization -->
<g id="edge21" class="edge">
<title>Metamodel::ClassHOW&#45;&gt;Metamodel::Finalization</title>
<path fill="none" stroke="#6666ff" d="M707.71,-1009.22C688.69,-1064.75 632.74,-1228.15 632.74,-1228.15 632.74,-1228.15 563.41,-1449.75 538.53,-1529.27"/>
<polygon fill="#6666ff" stroke="#6666ff" points="535.1,-1528.5 535.45,-1539.09 541.78,-1530.59 535.1,-1528.5"/>
</g>
<!-- Metamodel::ClassHOW&#45;&gt;Metamodel::PrivateMethodContainer -->
<g id="edge23" class="edge">
<title>Metamodel::ClassHOW&#45;&gt;Metamodel::PrivateMethodContainer</title>
<path fill="none" stroke="#6666ff" d="M699.76,-1009.09C643.81,-1080.42 438.24,-1342.49 372.52,-1426.28"/>
<polygon fill="#6666ff" stroke="#6666ff" points="369.67,-1424.24 366.26,-1434.26 375.18,-1428.56 369.67,-1424.24"/>
</g>
<!-- Metamodel::ClassHOW&#45;&gt;Metamodel::MultipleInheritance -->
<g id="edge26" class="edge">
<title>Metamodel::ClassHOW&#45;&gt;Metamodel::MultipleInheritance</title>
<path fill="none" stroke="#6666ff" d="M721.83,-1009.23C745.88,-1064.77 816.63,-1228.21 816.63,-1228.21 816.63,-1228.21 788.43,-1480.3 778.83,-1566.14"/>
<polygon fill="#6666ff" stroke="#6666ff" points="775.34,-1565.88 777.7,-1576.2 782.29,-1566.66 775.34,-1565.88"/>
</g>
<!-- Metamodel::ClassHOW&#45;&gt;Metamodel::DefaultParent -->
<g id="edge27" class="edge">
<title>Metamodel::ClassHOW&#45;&gt;Metamodel::DefaultParent</title>
<path fill="none" stroke="#6666ff" d="M684.52,-1008.44C596.86,-1060.37 337.5,-1214.02 239.2,-1272.26"/>
<polygon fill="#6666ff" stroke="#6666ff" points="237.3,-1269.32 230.48,-1277.43 240.86,-1275.34 237.3,-1269.32"/>
</g>
<!-- Metamodel::ClassHOW&#45;&gt;Metamodel::C3MRO -->
<g id="edge28" class="edge">
<title>Metamodel::ClassHOW&#45;&gt;Metamodel::C3MRO</title>
<path fill="none" stroke="#6666ff" d="M628.16,-1001.15C510.68,-1015.05 300.75,-1039.88 181.5,-1053.98"/>
<polygon fill="#6666ff" stroke="#6666ff" points="180.83,-1050.53 171.31,-1055.18 181.65,-1057.48 180.83,-1050.53"/>
</g>
<!-- Metamodel::ClassHOW&#45;&gt;Metamodel::Trusting -->
<g id="edge31" class="edge">
<title>Metamodel::ClassHOW&#45;&gt;Metamodel::Trusting</title>
<path fill="none" stroke="#6666ff" d="M723.07,-1009.03C763.88,-1089.65 929.84,-1417.47 979.1,-1514.77"/>
<polygon fill="#6666ff" stroke="#6666ff" points="976.11,-1516.62 983.75,-1523.96 982.36,-1513.45 976.11,-1516.62"/>
</g>
</g>
</svg>
