<?xml version="1.0" encoding="UTF-8" standalone="no"?>
<!DOCTYPE svg PUBLIC "-//W3C//DTD SVG 1.1//EN"
 "http://www.w3.org/Graphics/SVG/1.1/DTD/svg11.dtd">
<!-- Generated by graphviz version 2.43.0 (0)
 -->
<!-- Title: perl6&#45;type&#45;graph Pages: 1 -->
<svg width="1827pt" height="1707pt"
 viewBox="0.00 0.00 1826.54 1707.45" xmlns="http://www.w3.org/2000/svg" xmlns:xlink="http://www.w3.org/1999/xlink">
<g id="graph0" class="graph" transform="scale(1 1) rotate(0) translate(4 1703.45)">
<title>perl6&#45;type&#45;graph</title>
<polygon fill="white" stroke="transparent" points="-4,4 -4,-1703.45 1822.54,-1703.45 1822.54,4 -4,4"/>
<!-- Metamodel::MultipleInheritance -->
<g id="node1" class="node">
<title>Metamodel::MultipleInheritance</title>
<g id="a_node1"><a xlink:href="/type/Metamodel::MultipleInheritance" xlink:title="Metamodel::MultipleInheritance">
<ellipse fill="none" stroke="#6666ff" cx="845" cy="-863.59" rx="133.78" ry="18"/>
<text text-anchor="middle" x="845" y="-859.89" font-family="FreeSans" font-size="14.00" fill="#6666ff">Metamodel::MultipleInheritance</text>
</a>
</g>
</g>
<!-- Mu -->
<g id="node2" class="node">
<title>Mu</title>
<g id="a_node2"><a xlink:href="/type/Mu" xlink:title="Mu">
<ellipse fill="none" stroke="#000000" cx="1791.54" cy="-1100.61" rx="27" ry="18"/>
<text text-anchor="middle" x="1791.54" y="-1096.91" font-family="FreeSans" font-size="14.00" fill="#000000">Mu</text>
</a>
</g>
</g>
<!-- Any -->
<g id="node3" class="node">
<title>Any</title>
<g id="a_node3"><a xlink:href="/type/Any" xlink:title="Any">
<ellipse fill="none" stroke="#000000" cx="1290.3" cy="-966.82" rx="27" ry="18"/>
<text text-anchor="middle" x="1290.3" y="-963.12" font-family="FreeSans" font-size="14.00" fill="#000000">Any</text>
</a>
</g>
</g>
<!-- Any&#45;&gt;Mu -->
<g id="edge1" class="edge">
<title>Any&#45;&gt;Mu</title>
<path fill="none" stroke="#000000" d="M1315.5,-973.55C1398.15,-995.61 1661.15,-1065.8 1756.55,-1091.27"/>
<polygon fill="#000000" stroke="#000000" points="1755.73,-1094.67 1766.29,-1093.87 1757.53,-1087.91 1755.73,-1094.67"/>
</g>
<!-- Metamodel::Naming -->
<g id="node4" class="node">
<title>Metamodel::Naming</title>
<g id="a_node4"><a xlink:href="/type/Metamodel::Naming" xlink:title="Metamodel::Naming">
<ellipse fill="none" stroke="#6666ff" cx="976.38" cy="-933.95" rx="90.18" ry="18"/>
<text text-anchor="middle" x="976.38" y="-930.25" font-family="FreeSans" font-size="14.00" fill="#6666ff">Metamodel::Naming</text>
</a>
</g>
</g>
<!-- Metamodel::Versioning -->
<g id="node5" class="node">
<title>Metamodel::Versioning</title>
<g id="a_node5"><a xlink:href="/type/Metamodel::Versioning" xlink:title="Metamodel::Versioning">
<ellipse fill="none" stroke="#6666ff" cx="1101.37" cy="-981.26" rx="100.98" ry="18"/>
<text text-anchor="middle" x="1101.37" y="-977.56" font-family="FreeSans" font-size="14.00" fill="#6666ff">Metamodel::Versioning</text>
</a>
</g>
</g>
<!-- Metamodel::PrivateMethodContainer -->
<g id="node6" class="node">
<title>Metamodel::PrivateMethodContainer</title>
<g id="a_node6"><a xlink:href="/type/Metamodel::PrivateMethodContainer" xlink:title="Metamodel::PrivateMethodContainer">
<ellipse fill="none" stroke="#6666ff" cx="459.84" cy="-664.03" rx="154.87" ry="18"/>
<text text-anchor="middle" x="459.84" y="-660.33" font-family="FreeSans" font-size="14.00" fill="#6666ff">Metamodel::PrivateMethodContainer</text>
</a>
</g>
</g>
<!-- Metamodel::MethodContainer -->
<g id="node7" class="node">
<title>Metamodel::MethodContainer</title>
<g id="a_node7"><a xlink:href="/type/Metamodel::MethodContainer" xlink:title="Metamodel::MethodContainer">
<ellipse fill="none" stroke="#6666ff" cx="499.09" cy="-513.14" rx="127.28" ry="18"/>
<text text-anchor="middle" x="499.09" y="-509.44" font-family="FreeSans" font-size="14.00" fill="#6666ff">Metamodel::MethodContainer</text>
</a>
</g>
</g>
<!-- Metamodel::MultiMethodContainer -->
<g id="node8" class="node">
<title>Metamodel::MultiMethodContainer</title>
<g id="a_node8"><a xlink:href="/type/Metamodel::MultiMethodContainer" xlink:title="Metamodel::MultiMethodContainer">
<ellipse fill="none" stroke="#6666ff" cx="1199.03" cy="-778.92" rx="146.47" ry="18"/>
<text text-anchor="middle" x="1199.03" y="-775.22" font-family="FreeSans" font-size="14.00" fill="#6666ff">Metamodel::MultiMethodContainer</text>
</a>
</g>
</g>
<!-- Metamodel::AttributeContainer -->
<g id="node9" class="node">
<title>Metamodel::AttributeContainer</title>
<g id="a_node9"><a xlink:href="/type/Metamodel::AttributeContainer" xlink:title="Metamodel::AttributeContainer">
<ellipse fill="none" stroke="#6666ff" cx="642.36" cy="-448.72" rx="129.98" ry="18"/>
<text text-anchor="middle" x="642.36" y="-445.02" font-family="FreeSans" font-size="14.00" fill="#6666ff">Metamodel::AttributeContainer</text>
</a>
</g>
</g>
<!-- Metamodel::RoleContainer -->
<g id="node10" class="node">
<title>Metamodel::RoleContainer</title>
<g id="a_node10"><a xlink:href="/type/Metamodel::RoleContainer" xlink:title="Metamodel::RoleContainer">
<ellipse fill="none" stroke="#6666ff" cx="673.97" cy="-620.03" rx="115.88" ry="18"/>
<text text-anchor="middle" x="673.97" y="-616.33" font-family="FreeSans" font-size="14.00" fill="#6666ff">Metamodel::RoleContainer</text>
</a>
</g>
</g>
<!-- Metamodel::ConcreteRoleHOW -->
<g id="node11" class="node">
<title>Metamodel::ConcreteRoleHOW</title>
<g id="a_node11"><a xlink:href="/type/Metamodel::ConcreteRoleHOW" xlink:title="Metamodel::ConcreteRoleHOW">
<ellipse fill="none" stroke="#000000" cx="983.17" cy="-466.89" rx="135.38" ry="18"/>
<text text-anchor="middle" x="983.17" y="-463.19" font-family="FreeSans" font-size="14.00" fill="#000000">Metamodel::ConcreteRoleHOW</text>
</a>
</g>
</g>
<!-- Metamodel::ConcreteRoleHOW&#45;&gt;Metamodel::MultipleInheritance -->
<g id="edge13" class="edge">
<title>Metamodel::ConcreteRoleHOW&#45;&gt;Metamodel::MultipleInheritance</title>
<path fill="none" stroke="#6666ff" d="M967.42,-485.09C947.77,-507.8 916.71,-543.69 916.71,-543.69 916.71,-543.69 868.84,-757.24 851.32,-835.38"/>
<polygon fill="#6666ff" stroke="#6666ff" points="847.83,-834.95 849.06,-845.48 854.66,-836.48 847.83,-834.95"/>
</g>
<!-- Metamodel::ConcreteRoleHOW&#45;&gt;Any -->
<g id="edge2" class="edge">
<title>Metamodel::ConcreteRoleHOW&#45;&gt;Any</title>
<path fill="none" stroke="#000000" d="M967.42,-485.09C947.77,-507.8 916.71,-543.69 916.71,-543.69 916.71,-543.69 1051.2,-778.79 1051.2,-778.79 1051.2,-778.79 1202.9,-898.09 1264.63,-946.64"/>
<polygon fill="#000000" stroke="#000000" points="1262.7,-949.57 1272.72,-953 1267.02,-944.06 1262.7,-949.57"/>
</g>
<!-- Metamodel::ConcreteRoleHOW&#45;&gt;Metamodel::Naming -->
<g id="edge6" class="edge">
<title>Metamodel::ConcreteRoleHOW&#45;&gt;Metamodel::Naming</title>
<path fill="none" stroke="#6666ff" d="M967.42,-485.09C947.77,-507.8 916.71,-543.69 916.71,-543.69 916.71,-543.69 980.49,-863.67 980.49,-863.67 980.49,-863.67 979.17,-886.2 978.03,-905.74"/>
<polygon fill="#6666ff" stroke="#6666ff" points="974.53,-905.66 977.44,-915.85 981.51,-906.07 974.53,-905.66"/>
</g>
<!-- Metamodel::ConcreteRoleHOW&#45;&gt;Metamodel::Versioning -->
<g id="edge7" class="edge">
<title>Metamodel::ConcreteRoleHOW&#45;&gt;Metamodel::Versioning</title>
<path fill="none" stroke="#6666ff" d="M967.42,-485.09C947.77,-507.8 916.71,-543.69 916.71,-543.69 916.71,-543.69 1049.48,-858.29 1089.86,-953.98"/>
<polygon fill="#6666ff" stroke="#6666ff" points="1086.68,-955.44 1093.79,-963.29 1093.13,-952.71 1086.68,-955.44"/>
</g>
<!-- Metamodel::ConcreteRoleHOW&#45;&gt;Metamodel::PrivateMethodContainer -->
<g id="edge8" class="edge">
<title>Metamodel::ConcreteRoleHOW&#45;&gt;Metamodel::PrivateMethodContainer</title>
<path fill="none" stroke="#6666ff" d="M935.53,-483.82C831.14,-520.92 591.45,-606.1 591.45,-606.1 591.45,-606.1 556.68,-619.93 556.68,-619.93 556.68,-619.93 532.08,-631.13 507.68,-642.24"/>
<polygon fill="#6666ff" stroke="#6666ff" points="506.04,-639.14 498.39,-646.47 508.95,-645.51 506.04,-639.14"/>
</g>
<!-- Metamodel::ConcreteRoleHOW&#45;&gt;Metamodel::MethodContainer -->
<g id="edge9" class="edge">
<title>Metamodel::ConcreteRoleHOW&#45;&gt;Metamodel::MethodContainer</title>
<path fill="none" stroke="#6666ff" d="M873.32,-477.38C796.3,-484.74 693.52,-494.56 615.16,-502.05"/>
<polygon fill="#6666ff" stroke="#6666ff" points="614.38,-498.61 604.76,-503.04 615.04,-505.57 614.38,-498.61"/>
</g>
<!-- Metamodel::ConcreteRoleHOW&#45;&gt;Metamodel::MultiMethodContainer -->
<g id="edge10" class="edge">
<title>Metamodel::ConcreteRoleHOW&#45;&gt;Metamodel::MultiMethodContainer</title>
<path fill="none" stroke="#6666ff" d="M1031.47,-483.76C1096.27,-506.4 1203.28,-543.79 1203.28,-543.79 1203.28,-543.79 1200.68,-687.97 1199.55,-750.53"/>
<polygon fill="#6666ff" stroke="#6666ff" points="1196.04,-750.8 1199.36,-760.86 1203.04,-750.93 1196.04,-750.8"/>
</g>
<!-- Metamodel::ConcreteRoleHOW&#45;&gt;Metamodel::AttributeContainer -->
<g id="edge11" class="edge">
<title>Metamodel::ConcreteRoleHOW&#45;&gt;Metamodel::AttributeContainer</title>
<path fill="none" stroke="#6666ff" d="M857.23,-460.17C830.05,-458.72 801.23,-457.19 773.84,-455.73"/>
<polygon fill="#6666ff" stroke="#6666ff" points="773.99,-452.23 763.81,-455.19 773.61,-459.22 773.99,-452.23"/>
</g>
<!-- Metamodel::ConcreteRoleHOW&#45;&gt;Metamodel::RoleContainer -->
<g id="edge12" class="edge">
<title>Metamodel::ConcreteRoleHOW&#45;&gt;Metamodel::RoleContainer</title>
<path fill="none" stroke="#6666ff" d="M948,-484.3C891.39,-512.34 780.16,-567.43 718.24,-598.1"/>
<polygon fill="#6666ff" stroke="#6666ff" points="716.51,-595.05 709.1,-602.62 719.62,-601.32 716.51,-595.05"/>
</g>
<!-- Metamodel::Documenting -->
<g id="node12" class="node">
<title>Metamodel::Documenting</title>
<g id="a_node12"><a xlink:href="/type/Metamodel::Documenting" xlink:title="Metamodel::Documenting">
<ellipse fill="none" stroke="#6666ff" cx="625.58" cy="-923.68" rx="111.28" ry="18"/>
<text text-anchor="middle" x="625.58" y="-919.98" font-family="FreeSans" font-size="14.00" fill="#6666ff">Metamodel::Documenting</text>
</a>
</g>
</g>
<!-- Metamodel::Stashing -->
<g id="node13" class="node">
<title>Metamodel::Stashing</title>
<g id="a_node13"><a xlink:href="/type/Metamodel::Stashing" xlink:title="Metamodel::Stashing">
<ellipse fill="none" stroke="#6666ff" cx="1222.53" cy="-1163.12" rx="93.68" ry="18"/>
<text text-anchor="middle" x="1222.53" y="-1159.42" font-family="FreeSans" font-size="14.00" fill="#6666ff">Metamodel::Stashing</text>
</a>
</g>
</g>
<!-- Metamodel::C3MRO -->
<g id="node14" class="node">
<title>Metamodel::C3MRO</title>
<g id="a_node14"><a xlink:href="/type/Metamodel::C3MRO" xlink:title="Metamodel::C3MRO">
<ellipse fill="none" stroke="#6666ff" cx="1025.47" cy="-1612.22" rx="92.08" ry="18"/>
<text text-anchor="middle" x="1025.47" y="-1608.52" font-family="FreeSans" font-size="14.00" fill="#6666ff">Metamodel::C3MRO</text>
</a>
</g>
</g>
<!-- Metamodel::MROBasedMethodDispatch -->
<g id="node15" class="node">
<title>Metamodel::MROBasedMethodDispatch</title>
<g id="a_node15"><a xlink:href="/type/Metamodel::MROBasedMethodDispatch" xlink:title="Metamodel::MROBasedMethodDispatch">
<ellipse fill="none" stroke="#6666ff" cx="703.69" cy="-1613.98" rx="169.77" ry="18"/>
<text text-anchor="middle" x="703.69" y="-1610.28" font-family="FreeSans" font-size="14.00" fill="#6666ff">Metamodel::MROBasedMethodDispatch</text>
</a>
</g>
</g>
<!-- Metamodel::MROBasedTypeChecking -->
<g id="node16" class="node">
<title>Metamodel::MROBasedTypeChecking</title>
<g id="a_node16"><a xlink:href="/type/Metamodel::MROBasedTypeChecking" xlink:title="Metamodel::MROBasedTypeChecking">
<ellipse fill="none" stroke="#6666ff" cx="589.76" cy="-1503.97" rx="163.27" ry="18"/>
<text text-anchor="middle" x="589.76" y="-1500.27" font-family="FreeSans" font-size="14.00" fill="#6666ff">Metamodel::MROBasedTypeChecking</text>
</a>
</g>
</g>
<!-- Metamodel::NativeHOW -->
<g id="node17" class="node">
<title>Metamodel::NativeHOW</title>
<g id="a_node17"><a xlink:href="/type/Metamodel::NativeHOW" xlink:title="Metamodel::NativeHOW">
<ellipse fill="none" stroke="#000000" cx="1073.26" cy="-1356.21" rx="106.68" ry="18"/>
<text text-anchor="middle" x="1073.26" y="-1352.51" font-family="FreeSans" font-size="14.00" fill="#000000">Metamodel::NativeHOW</text>
</a>
</g>
</g>
<!-- Metamodel::NativeHOW&#45;&gt;Metamodel::MultipleInheritance -->
<g id="edge18" class="edge">
<title>Metamodel::NativeHOW&#45;&gt;Metamodel::MultipleInheritance</title>
<path fill="none" stroke="#6666ff" d="M1064.87,-1338.1C1030.33,-1263.56 899.07,-980.29 857.62,-890.83"/>
<polygon fill="#6666ff" stroke="#6666ff" points="860.73,-889.21 853.35,-881.61 854.38,-892.16 860.73,-889.21"/>
</g>
<!-- Metamodel::NativeHOW&#45;&gt;Any -->
<g id="edge3" class="edge">
<title>Metamodel::NativeHOW&#45;&gt;Any</title>
<path fill="none" stroke="#000000" d="M1078.35,-1338.04C1091.81,-1289.96 1127.33,-1163.07 1127.33,-1163.07 1127.33,-1163.07 1227.09,-1042.95 1270.5,-990.66"/>
<polygon fill="#000000" stroke="#000000" points="1273.27,-992.81 1276.97,-982.88 1267.88,-988.34 1273.27,-992.81"/>
</g>
<!-- Metamodel::NativeHOW&#45;&gt;Metamodel::Naming -->
<g id="edge14" class="edge">
<title>Metamodel::NativeHOW&#45;&gt;Metamodel::Naming</title>
<path fill="none" stroke="#6666ff" d="M1069.1,-1338.07C1053.88,-1271.75 1001.21,-1042.15 982.79,-961.9"/>
<polygon fill="#6666ff" stroke="#6666ff" points="986.17,-960.99 980.53,-952.02 979.35,-962.55 986.17,-960.99"/>
</g>
<!-- Metamodel::NativeHOW&#45;&gt;Metamodel::Versioning -->
<g id="edge16" class="edge">
<title>Metamodel::NativeHOW&#45;&gt;Metamodel::Versioning</title>
<path fill="none" stroke="#6666ff" d="M1074.62,-1338.13C1079.14,-1277.88 1093.7,-1083.64 1099.22,-1009.96"/>
<polygon fill="#6666ff" stroke="#6666ff" points="1102.74,-1009.83 1100,-999.6 1095.76,-1009.31 1102.74,-1009.83"/>
</g>
<!-- Metamodel::NativeHOW&#45;&gt;Metamodel::Documenting -->
<g id="edge15" class="edge">
<title>Metamodel::NativeHOW&#45;&gt;Metamodel::Documenting</title>
<path fill="none" stroke="#6666ff" d="M1054.88,-1338.45C984.75,-1270.69 733.84,-1028.28 651.77,-948.98"/>
<polygon fill="#6666ff" stroke="#6666ff" points="653.99,-946.26 644.37,-941.83 649.12,-951.29 653.99,-946.26"/>
</g>
<!-- Metamodel::NativeHOW&#45;&gt;Metamodel::Stashing -->
<g id="edge17" class="edge">
<title>Metamodel::NativeHOW&#45;&gt;Metamodel::Stashing</title>
<path fill="none" stroke="#6666ff" d="M1087.31,-1338.05C1113.88,-1303.67 1171.59,-1229.01 1202.32,-1189.26"/>
<polygon fill="#6666ff" stroke="#6666ff" points="1205.28,-1191.15 1208.63,-1181.1 1199.74,-1186.87 1205.28,-1191.15"/>
</g>
<!-- Metamodel::NativeHOW&#45;&gt;Metamodel::C3MRO -->
<g id="edge19" class="edge">
<title>Metamodel::NativeHOW&#45;&gt;Metamodel::C3MRO</title>
<path fill="none" stroke="#6666ff" d="M1069.9,-1374.22C1061.71,-1418.09 1040.67,-1530.79 1030.77,-1583.83"/>
<polygon fill="#6666ff" stroke="#6666ff" points="1027.29,-1583.43 1028.89,-1593.9 1034.17,-1584.71 1027.29,-1583.43"/>
</g>
<!-- Metamodel::NativeHOW&#45;&gt;Metamodel::MROBasedMethodDispatch -->
<g id="edge20" class="edge">
<title>Metamodel::NativeHOW&#45;&gt;Metamodel::MROBasedMethodDispatch</title>
<path fill="none" stroke="#6666ff" d="M1048.15,-1373.73C983.52,-1418.81 811.36,-1538.88 737.79,-1590.19"/>
<polygon fill="#6666ff" stroke="#6666ff" points="735.52,-1587.51 729.32,-1596.1 739.53,-1593.25 735.52,-1587.51"/>
</g>
<!-- Metamodel::NativeHOW&#45;&gt;Metamodel::MROBasedTypeChecking -->
<g id="edge21" class="edge">
<title>Metamodel::NativeHOW&#45;&gt;Metamodel::MROBasedTypeChecking</title>
<path fill="none" stroke="#6666ff" d="M1021.52,-1372.03C932.84,-1399.12 752.03,-1454.38 654.9,-1484.06"/>
<polygon fill="#6666ff" stroke="#6666ff" points="653.74,-1480.76 645.2,-1487.02 655.78,-1487.45 653.74,-1480.76"/>
</g>
<!-- Metamodel::Finalization -->
<g id="node18" class="node">
<title>Metamodel::Finalization</title>
<g id="a_node18"><a xlink:href="/type/Metamodel::Finalization" xlink:title="Metamodel::Finalization">
<ellipse fill="none" stroke="#6666ff" cx="360.19" cy="-1579.71" rx="103.98" ry="18"/>
<text text-anchor="middle" x="360.19" y="-1576.01" font-family="FreeSans" font-size="14.00" fill="#6666ff">Metamodel::Finalization</text>
</a>
</g>
</g>
<!-- Metamodel::DefaultParent -->
<g id="node19" class="node">
<title>Metamodel::DefaultParent</title>
<g id="a_node19"><a xlink:href="/type/Metamodel::DefaultParent" xlink:title="Metamodel::DefaultParent">
<ellipse fill="none" stroke="#6666ff" cx="146.42" cy="-1247.39" rx="113.18" ry="18"/>
<text text-anchor="middle" x="146.42" y="-1243.69" font-family="FreeSans" font-size="14.00" fill="#6666ff">Metamodel::DefaultParent</text>
</a>
</g>
</g>
<!-- Metamodel::Trusting -->
<g id="node20" class="node">
<title>Metamodel::Trusting</title>
<g id="a_node20"><a xlink:href="/type/Metamodel::Trusting" xlink:title="Metamodel::Trusting">
<ellipse fill="none" stroke="#6666ff" cx="229.11" cy="-1414.3" rx="91.78" ry="18"/>
<text text-anchor="middle" x="229.11" y="-1410.6" font-family="FreeSans" font-size="14.00" fill="#6666ff">Metamodel::Trusting</text>
</a>
</g>
</g>
<!-- Metamodel::BUILDPLAN -->
<g id="node21" class="node">
<title>Metamodel::BUILDPLAN</title>
<g id="a_node21"><a xlink:href="/type/Metamodel::BUILDPLAN" xlink:title="Metamodel::BUILDPLAN">
<ellipse fill="none" stroke="#6666ff" cx="109.84" cy="-1066.25" rx="109.68" ry="18"/>
<text text-anchor="middle" x="109.84" y="-1062.55" font-family="FreeSans" font-size="14.00" fill="#6666ff">Metamodel::BUILDPLAN</text>
</a>
</g>
</g>
<!-- Metamodel::Mixins -->
<g id="node22" class="node">
<title>Metamodel::Mixins</title>
<g id="a_node22"><a xlink:href="/type/Metamodel::Mixins" xlink:title="Metamodel::Mixins">
<ellipse fill="none" stroke="#6666ff" cx="121.2" cy="-874.46" rx="85.29" ry="18"/>
<text text-anchor="middle" x="121.2" y="-870.76" font-family="FreeSans" font-size="14.00" fill="#6666ff">Metamodel::Mixins</text>
</a>
</g>
</g>
<!-- Metamodel::BoolificationProtocol -->
<g id="node23" class="node">
<title>Metamodel::BoolificationProtocol</title>
<g id="a_node23"><a xlink:href="/type/Metamodel::BoolificationProtocol" xlink:title="Metamodel::BoolificationProtocol">
<ellipse fill="none" stroke="#6666ff" cx="829.15" cy="-1681.45" rx="139.18" ry="18"/>
<text text-anchor="middle" x="829.15" y="-1677.75" font-family="FreeSans" font-size="14.00" fill="#6666ff">Metamodel::BoolificationProtocol</text>
</a>
</g>
</g>
<!-- Metamodel::ClassHOW -->
<g id="node24" class="node">
<title>Metamodel::ClassHOW</title>
<g id="a_node24"><a xlink:href="/type/Metamodel::ClassHOW" xlink:title="Metamodel::ClassHOW">
<ellipse fill="none" stroke="#000000" cx="660.4" cy="-1126.04" rx="103.18" ry="18"/>
<text text-anchor="middle" x="660.4" y="-1122.34" font-family="FreeSans" font-size="14.00" fill="#000000">Metamodel::ClassHOW</text>
</a>
</g>
</g>
<!-- Metamodel::ClassHOW&#45;&gt;Metamodel::MultipleInheritance -->
<g id="edge32" class="edge">
<title>Metamodel::ClassHOW&#45;&gt;Metamodel::MultipleInheritance</title>
<path fill="none" stroke="#6666ff" d="M673.09,-1108.01C705.03,-1062.59 788.9,-943.35 826.41,-890.03"/>
<polygon fill="#6666ff" stroke="#6666ff" points="829.33,-891.95 832.22,-881.76 823.61,-887.92 829.33,-891.95"/>
</g>
<!-- Metamodel::ClassHOW&#45;&gt;Any -->
<g id="edge4" class="edge">
<title>Metamodel::ClassHOW&#45;&gt;Any</title>
<path fill="none" stroke="#000000" d="M719.09,-1111.21C847.68,-1078.7 1151.06,-1002.02 1254.8,-975.8"/>
<polygon fill="#000000" stroke="#000000" points="1255.93,-979.12 1264.76,-973.28 1254.21,-972.34 1255.93,-979.12"/>
</g>
<!-- Metamodel::ClassHOW&#45;&gt;Metamodel::Naming -->
<g id="edge22" class="edge">
<title>Metamodel::ClassHOW&#45;&gt;Metamodel::Naming</title>
<path fill="none" stroke="#6666ff" d="M689,-1108.66C746.34,-1073.8 875.31,-995.39 939.14,-956.58"/>
<polygon fill="#6666ff" stroke="#6666ff" points="941.35,-959.34 948.07,-951.15 937.71,-953.36 941.35,-959.34"/>
</g>
<!-- Metamodel::ClassHOW&#45;&gt;Metamodel::Versioning -->
<g id="edge24" class="edge">
<title>Metamodel::ClassHOW&#45;&gt;Metamodel::Versioning</title>
<path fill="none" stroke="#6666ff" d="M708.85,-1110.14C790.69,-1083.26 955.94,-1029.01 1043.65,-1000.21"/>
<polygon fill="#6666ff" stroke="#6666ff" points="1044.77,-1003.53 1053.17,-997.08 1042.58,-996.88 1044.77,-1003.53"/>
</g>
<!-- Metamodel::ClassHOW&#45;&gt;Metamodel::PrivateMethodContainer -->
<g id="edge29" class="edge">
<title>Metamodel::ClassHOW&#45;&gt;Metamodel::PrivateMethodContainer</title>
<path fill="none" stroke="#6666ff" d="M647.3,-1108.08C611.19,-1058.55 512.84,-923.66 512.84,-923.66 512.84,-923.66 479.32,-759.43 465.6,-692.2"/>
<polygon fill="#6666ff" stroke="#6666ff" points="469,-691.38 463.57,-682.29 462.14,-692.78 469,-691.38"/>
</g>
<!-- Metamodel::ClassHOW&#45;&gt;Metamodel::MethodContainer -->
<g id="edge28" class="edge">
<title>Metamodel::ClassHOW&#45;&gt;Metamodel::MethodContainer</title>
<path fill="none" stroke="#6666ff" d="M667.45,-1107.73C686.63,-1057.92 738.32,-923.7 738.32,-923.7 738.32,-923.7 709.51,-863.52 709.51,-863.52 709.51,-863.52 616.13,-664.08 616.13,-664.08 616.13,-664.08 556.68,-619.93 556.68,-619.93 556.68,-619.93 530.67,-571.71 513.61,-540.07"/>
<polygon fill="#6666ff" stroke="#6666ff" points="516.68,-538.39 508.86,-531.25 510.52,-541.72 516.68,-538.39"/>
</g>
<!-- Metamodel::ClassHOW&#45;&gt;Metamodel::MultiMethodContainer -->
<g id="edge30" class="edge">
<title>Metamodel::ClassHOW&#45;&gt;Metamodel::MultiMethodContainer</title>
<path fill="none" stroke="#6666ff" d="M681.07,-1108.31C736.54,-1060.74 884.44,-933.89 884.44,-933.89 884.44,-933.89 911.54,-920.05 911.54,-920.05 911.54,-920.05 1072.76,-840.91 1153.74,-801.15"/>
<polygon fill="#6666ff" stroke="#6666ff" points="1155.77,-804.06 1163.2,-796.51 1152.69,-797.77 1155.77,-804.06"/>
</g>
<!-- Metamodel::ClassHOW&#45;&gt;Metamodel::AttributeContainer -->
<g id="edge26" class="edge">
<title>Metamodel::ClassHOW&#45;&gt;Metamodel::AttributeContainer</title>
<path fill="none" stroke="#6666ff" d="M667.45,-1107.73C686.63,-1057.92 738.32,-923.7 738.32,-923.7 738.32,-923.7 709.51,-863.52 709.51,-863.52 709.51,-863.52 791.26,-620.13 791.26,-620.13 791.26,-620.13 706.35,-522.38 664.77,-474.52"/>
<polygon fill="#6666ff" stroke="#6666ff" points="667.22,-471.99 658.02,-466.74 661.93,-476.58 667.22,-471.99"/>
</g>
<!-- Metamodel::ClassHOW&#45;&gt;Metamodel::RoleContainer -->
<g id="edge31" class="edge">
<title>Metamodel::ClassHOW&#45;&gt;Metamodel::RoleContainer</title>
<path fill="none" stroke="#6666ff" d="M667.45,-1107.73C686.63,-1057.92 738.32,-923.7 738.32,-923.7 738.32,-923.7 709.51,-863.52 709.51,-863.52 709.51,-863.52 687.52,-712.89 678.13,-648.58"/>
<polygon fill="#6666ff" stroke="#6666ff" points="681.55,-647.72 676.64,-638.33 674.62,-648.73 681.55,-647.72"/>
</g>
<!-- Metamodel::ClassHOW&#45;&gt;Metamodel::Documenting -->
<g id="edge23" class="edge">
<title>Metamodel::ClassHOW&#45;&gt;Metamodel::Documenting</title>
<path fill="none" stroke="#6666ff" d="M657.25,-1107.73C651.13,-1072.21 637.64,-993.77 630.4,-951.68"/>
<polygon fill="#6666ff" stroke="#6666ff" points="633.84,-951.07 628.7,-941.81 626.94,-952.26 633.84,-951.07"/>
</g>
<!-- Metamodel::ClassHOW&#45;&gt;Metamodel::Stashing -->
<g id="edge25" class="edge">
<title>Metamodel::ClassHOW&#45;&gt;Metamodel::Stashing</title>
<path fill="none" stroke="#6666ff" d="M757.35,-1132.44C859.78,-1139.2 1020.47,-1149.79 1123.63,-1156.6"/>
<polygon fill="#6666ff" stroke="#6666ff" points="1123.53,-1160.1 1133.74,-1157.27 1123.99,-1153.11 1123.53,-1160.1"/>
</g>
<!-- Metamodel::ClassHOW&#45;&gt;Metamodel::C3MRO -->
<g id="edge34" class="edge">
<title>Metamodel::ClassHOW&#45;&gt;Metamodel::C3MRO</title>
<path fill="none" stroke="#6666ff" d="M673.82,-1143.92C729.22,-1217.7 940.22,-1498.69 1005.86,-1586.11"/>
<polygon fill="#6666ff" stroke="#6666ff" points="1003.12,-1588.29 1011.92,-1594.18 1008.72,-1584.08 1003.12,-1588.29"/>
</g>
<!-- Metamodel::ClassHOW&#45;&gt;Metamodel::MROBasedMethodDispatch -->
<g id="edge35" class="edge">
<title>Metamodel::ClassHOW&#45;&gt;Metamodel::MROBasedMethodDispatch</title>
<path fill="none" stroke="#6666ff" d="M664.94,-1144.28C683.73,-1219.8 754.49,-1504.1 754.49,-1504.1 754.49,-1504.1 731.5,-1553.81 716.46,-1586.36"/>
<polygon fill="#6666ff" stroke="#6666ff" points="713.09,-1585.29 712.07,-1595.84 719.45,-1588.23 713.09,-1585.29"/>
</g>
<!-- Metamodel::ClassHOW&#45;&gt;Metamodel::MROBasedTypeChecking -->
<g id="edge36" class="edge">
<title>Metamodel::ClassHOW&#45;&gt;Metamodel::MROBasedTypeChecking</title>
<path fill="none" stroke="#6666ff" d="M656.99,-1144.27C645.59,-1205.26 608.72,-1402.49 594.98,-1476"/>
<polygon fill="#6666ff" stroke="#6666ff" points="591.53,-1475.45 593.13,-1485.92 598.41,-1476.74 591.53,-1475.45"/>
</g>
<!-- Metamodel::ClassHOW&#45;&gt;Metamodel::Finalization -->
<g id="edge27" class="edge">
<title>Metamodel::ClassHOW&#45;&gt;Metamodel::Finalization</title>
<path fill="none" stroke="#6666ff" d="M648.44,-1144.11C601.94,-1214.39 432.92,-1469.8 377.75,-1553.18"/>
<polygon fill="#6666ff" stroke="#6666ff" points="374.78,-1551.32 372.18,-1561.59 380.62,-1555.19 374.78,-1551.32"/>
</g>
<!-- Metamodel::ClassHOW&#45;&gt;Metamodel::DefaultParent -->
<g id="edge33" class="edge">
<title>Metamodel::ClassHOW&#45;&gt;Metamodel::DefaultParent</title>
<path fill="none" stroke="#6666ff" d="M598.91,-1140.56C503.88,-1163 321.71,-1206.01 219.89,-1230.04"/>
<polygon fill="#6666ff" stroke="#6666ff" points="218.92,-1226.68 209.99,-1232.38 220.52,-1233.49 218.92,-1226.68"/>
</g>
<!-- Metamodel::ClassHOW&#45;&gt;Metamodel::Trusting -->
<g id="edge37" class="edge">
<title>Metamodel::ClassHOW&#45;&gt;Metamodel::Trusting</title>
<path fill="none" stroke="#6666ff" d="M634.07,-1143.64C559.53,-1193.46 347.04,-1335.48 263.47,-1391.33"/>
<polygon fill="#6666ff" stroke="#6666ff" points="261.46,-1388.47 255.1,-1396.93 265.35,-1394.29 261.46,-1388.47"/>
</g>
<!-- Metamodel::ClassHOW&#45;&gt;Metamodel::BUILDPLAN -->
<g id="edge38" class="edge">
<title>Metamodel::ClassHOW&#45;&gt;Metamodel::BUILDPLAN</title>
<path fill="none" stroke="#6666ff" d="M572.55,-1116.5C474.27,-1105.83 315.3,-1088.56 211.67,-1077.31"/>
<polygon fill="#6666ff" stroke="#6666ff" points="211.82,-1073.8 201.5,-1076.2 211.07,-1080.76 211.82,-1073.8"/>
</g>
<!-- Metamodel::ClassHOW&#45;&gt;Metamodel::Mixins -->
<g id="edge39" class="edge">
<title>Metamodel::ClassHOW&#45;&gt;Metamodel::Mixins</title>
<path fill="none" stroke="#6666ff" d="M624.18,-1109.15C528.7,-1064.6 270.29,-944.03 165.87,-895.31"/>
<polygon fill="#6666ff" stroke="#6666ff" points="167.09,-892.02 156.55,-890.96 164.13,-898.36 167.09,-892.02"/>
</g>
<!-- Metamodel::ClassHOW&#45;&gt;Metamodel::BoolificationProtocol -->
<g id="edge40" class="edge">
<title>Metamodel::ClassHOW&#45;&gt;Metamodel::BoolificationProtocol</title>
<path fill="none" stroke="#6666ff" d="M668.29,-1143.99C706.99,-1232.05 874.92,-1614.13 874.92,-1614.13 874.92,-1614.13 859.92,-1636.19 847.09,-1655.06"/>
<polygon fill="#6666ff" stroke="#6666ff" points="844.14,-1653.17 841.41,-1663.41 849.93,-1657.11 844.14,-1653.17"/>
</g>
<!-- Metamodel::TypePretense -->
<g id="node25" class="node">
<title>Metamodel::TypePretense</title>
<g id="a_node25"><a xlink:href="/type/Metamodel::TypePretense" xlink:title="Metamodel::TypePretense">
<ellipse fill="none" stroke="#6666ff" cx="1483.97" cy="-235.15" rx="114.28" ry="18"/>
<text text-anchor="middle" x="1483.97" y="-231.45" font-family="FreeSans" font-size="14.00" fill="#6666ff">Metamodel::TypePretense</text>
</a>
</g>
</g>
<!-- Metamodel::RolePunning -->
<g id="node26" class="node">
<title>Metamodel::RolePunning</title>
<g id="a_node26"><a xlink:href="/type/Metamodel::RolePunning" xlink:title="Metamodel::RolePunning">
<ellipse fill="none" stroke="#6666ff" cx="1131.69" cy="-18" rx="109.68" ry="18"/>
<text text-anchor="middle" x="1131.69" y="-14.3" font-family="FreeSans" font-size="14.00" fill="#6666ff">Metamodel::RolePunning</text>
</a>
</g>
</g>
<!-- Metamodel::ParametricRoleHOW -->
<g id="node27" class="node">
<title>Metamodel::ParametricRoleHOW</title>
<g id="a_node27"><a xlink:href="/type/Metamodel::ParametricRoleHOW" xlink:title="Metamodel::ParametricRoleHOW">
<ellipse fill="none" stroke="#000000" cx="1059.99" cy="-543.74" rx="141.88" ry="18"/>
<text text-anchor="middle" x="1059.99" y="-540.04" font-family="FreeSans" font-size="14.00" fill="#000000">Metamodel::ParametricRoleHOW</text>
</a>
</g>
</g>
<!-- Metamodel::ParametricRoleHOW&#45;&gt;Metamodel::MultipleInheritance -->
<g id="edge49" class="edge">
<title>Metamodel::ParametricRoleHOW&#45;&gt;Metamodel::MultipleInheritance</title>
<path fill="none" stroke="#6666ff" d="M1047.82,-561.85C1011.84,-615.39 905.84,-773.08 863.13,-836.61"/>
<polygon fill="#6666ff" stroke="#6666ff" points="859.98,-835.03 857.31,-845.28 865.79,-838.93 859.98,-835.03"/>
</g>
<!-- Metamodel::ParametricRoleHOW&#45;&gt;Any -->
<g id="edge5" class="edge">
<title>Metamodel::ParametricRoleHOW&#45;&gt;Any</title>
<path fill="none" stroke="#000000" d="M1059.32,-561.8C1057.26,-616.84 1051.2,-778.79 1051.2,-778.79 1051.2,-778.79 1202.9,-898.09 1264.63,-946.64"/>
<polygon fill="#000000" stroke="#000000" points="1262.7,-949.57 1272.72,-953 1267.02,-944.06 1262.7,-949.57"/>
</g>
<!-- Metamodel::ParametricRoleHOW&#45;&gt;Metamodel::Naming -->
<g id="edge41" class="edge">
<title>Metamodel::ParametricRoleHOW&#45;&gt;Metamodel::Naming</title>
<path fill="none" stroke="#6666ff" d="M1056.13,-561.78C1042.81,-623.92 998.77,-829.47 982.49,-905.42"/>
<polygon fill="#6666ff" stroke="#6666ff" points="978.97,-905.14 980.3,-915.65 985.82,-906.6 978.97,-905.14"/>
</g>
<!-- Metamodel::ParametricRoleHOW&#45;&gt;Metamodel::Versioning -->
<g id="edge43" class="edge">
<title>Metamodel::ParametricRoleHOW&#45;&gt;Metamodel::Versioning</title>
<path fill="none" stroke="#6666ff" d="M1059.32,-561.8C1057.26,-616.84 1051.2,-778.79 1051.2,-778.79 1051.2,-778.79 1080.57,-897.32 1094.37,-953"/>
<polygon fill="#6666ff" stroke="#6666ff" points="1091.03,-954.07 1096.83,-962.93 1097.82,-952.38 1091.03,-954.07"/>
</g>
<!-- Metamodel::ParametricRoleHOW&#45;&gt;Metamodel::PrivateMethodContainer -->
<g id="edge45" class="edge">
<title>Metamodel::ParametricRoleHOW&#45;&gt;Metamodel::PrivateMethodContainer</title>
<path fill="none" stroke="#6666ff" d="M1003.97,-560.39C916.27,-586.46 756.48,-633.96 756.48,-633.96 756.48,-633.96 667.45,-642.98 586.93,-651.15"/>
<polygon fill="#6666ff" stroke="#6666ff" points="586.25,-647.7 576.66,-652.19 586.96,-654.66 586.25,-647.7"/>
</g>
<!-- Metamodel::ParametricRoleHOW&#45;&gt;Metamodel::MethodContainer -->
<g id="edge44" class="edge">
<title>Metamodel::ParametricRoleHOW&#45;&gt;Metamodel::MethodContainer</title>
<path fill="none" stroke="#6666ff" d="M929.55,-536.62C838.92,-531.68 718.67,-525.12 628.31,-520.19"/>
<polygon fill="#6666ff" stroke="#6666ff" points="628.45,-516.69 618.28,-519.64 628.07,-523.68 628.45,-516.69"/>
</g>
<!-- Metamodel::ParametricRoleHOW&#45;&gt;Metamodel::MultiMethodContainer -->
<g id="edge46" class="edge">
<title>Metamodel::ParametricRoleHOW&#45;&gt;Metamodel::MultiMethodContainer</title>
<path fill="none" stroke="#6666ff" d="M1070.67,-561.8C1094.99,-602.93 1154.57,-703.72 1183.19,-752.12"/>
<polygon fill="#6666ff" stroke="#6666ff" points="1180.22,-753.97 1188.32,-760.8 1186.24,-750.41 1180.22,-753.97"/>
</g>
<!-- Metamodel::ParametricRoleHOW&#45;&gt;Metamodel::AttributeContainer -->
<g id="edge47" class="edge">
<title>Metamodel::ParametricRoleHOW&#45;&gt;Metamodel::AttributeContainer</title>
<path fill="none" stroke="#6666ff" d="M990.56,-527.94C916.09,-511 798.08,-484.15 720.43,-466.48"/>
<polygon fill="#6666ff" stroke="#6666ff" points="720.75,-462.97 710.23,-464.16 719.2,-469.79 720.75,-462.97"/>
</g>
<!-- Metamodel::ParametricRoleHOW&#45;&gt;Metamodel::RoleContainer -->
<g id="edge48" class="edge">
<title>Metamodel::ParametricRoleHOW&#45;&gt;Metamodel::RoleContainer</title>
<path fill="none" stroke="#6666ff" d="M983.27,-558.9C917.49,-571.9 822.99,-590.58 755.79,-603.86"/>
<polygon fill="#6666ff" stroke="#6666ff" points="754.79,-600.49 745.66,-605.86 756.15,-607.35 754.79,-600.49"/>
</g>
<!-- Metamodel::ParametricRoleHOW&#45;&gt;Metamodel::Documenting -->
<g id="edge42" class="edge">
<title>Metamodel::ParametricRoleHOW&#45;&gt;Metamodel::Documenting</title>
<path fill="none" stroke="#6666ff" d="M1039.62,-561.56C969.08,-623.26 735.07,-827.92 653.73,-899.06"/>
<polygon fill="#6666ff" stroke="#6666ff" points="651.13,-896.68 645.9,-905.9 655.74,-901.95 651.13,-896.68"/>
</g>
<!-- Metamodel::ParametricRoleHOW&#45;&gt;Metamodel::Stashing -->
<g id="edge50" class="edge">
<title>Metamodel::ParametricRoleHOW&#45;&gt;Metamodel::Stashing</title>
<path fill="none" stroke="#6666ff" d="M1059.32,-561.8C1057.26,-616.84 1051.2,-778.79 1051.2,-778.79 1051.2,-778.79 1203.71,-981.44 1203.71,-981.44 1203.71,-981.44 1214.33,-1083.98 1219.61,-1134.99"/>
<polygon fill="#6666ff" stroke="#6666ff" points="1216.14,-1135.45 1220.65,-1145.04 1223.1,-1134.73 1216.14,-1135.45"/>
</g>
<!-- Metamodel::ParametricRoleHOW&#45;&gt;Metamodel::TypePretense -->
<g id="edge51" class="edge">
<title>Metamodel::ParametricRoleHOW&#45;&gt;Metamodel::TypePretense</title>
<path fill="none" stroke="#6666ff" d="M1084.62,-525.82C1157.01,-473.13 1369.14,-318.73 1451.11,-259.07"/>
<polygon fill="#6666ff" stroke="#6666ff" points="1453.52,-261.65 1459.54,-252.93 1449.4,-255.99 1453.52,-261.65"/>
</g>
<!-- Metamodel::ParametricRoleHOW&#45;&gt;Metamodel::RolePunning -->
<g id="edge52" class="edge">
<title>Metamodel::ParametricRoleHOW&#45;&gt;Metamodel::RolePunning</title>
<path fill="none" stroke="#6666ff" d="M1074.2,-525.54C1091.94,-502.82 1119.96,-466.93 1119.96,-466.93 1119.96,-466.93 1128.38,-144.75 1130.95,-46.26"/>
<polygon fill="#6666ff" stroke="#6666ff" points="1134.45,-46.24 1131.22,-36.15 1127.46,-46.06 1134.45,-46.24"/>
</g>
</g>
</svg>
