<?xml version="1.0" encoding="UTF-8" standalone="no"?>
<!DOCTYPE svg PUBLIC "-//W3C//DTD SVG 1.1//EN"
 "http://www.w3.org/Graphics/SVG/1.1/DTD/svg11.dtd">
<!-- Generated by graphviz version 2.43.0 (0)
 -->
<!-- Title: perl6&#45;type&#45;graph Pages: 1 -->
<svg width="938pt" height="1032pt"
 viewBox="0.00 0.00 937.67 1031.70" xmlns="http://www.w3.org/2000/svg" xmlns:xlink="http://www.w3.org/1999/xlink">
<g id="graph0" class="graph" transform="scale(1 1) rotate(0) translate(4 1027.7)">
<title>perl6&#45;type&#45;graph</title>
<polygon fill="white" stroke="transparent" points="-4,4 -4,-1027.7 933.67,-1027.7 933.67,4 -4,4"/>
<!-- Metamodel::NativeHOW -->
<g id="node1" class="node">
<title>Metamodel::NativeHOW</title>
<g id="a_node1"><a xlink:href="/type/Metamodel::NativeHOW" xlink:title="Metamodel::NativeHOW">
<ellipse fill="none" stroke="#000000" cx="423.63" cy="-672.72" rx="106.68" ry="18"/>
<text text-anchor="middle" x="423.63" y="-669.02" font-family="FreeSans" font-size="14.00" fill="#000000">Metamodel::NativeHOW</text>
</a>
</g>
</g>
<!-- Any -->
<g id="node3" class="node">
<title>Any</title>
<g id="a_node3"><a xlink:href="/type/Any" xlink:title="Any">
<ellipse fill="none" stroke="#000000" cx="487.39" cy="-321.27" rx="27" ry="18"/>
<text text-anchor="middle" x="487.39" y="-317.57" font-family="FreeSans" font-size="14.00" fill="#000000">Any</text>
</a>
</g>
</g>
<!-- Metamodel::NativeHOW&#45;&gt;Any -->
<g id="edge1" class="edge">
<title>Metamodel::NativeHOW&#45;&gt;Any</title>
<path fill="none" stroke="#000000" d="M426.97,-654.32C437.43,-596.67 469.61,-419.28 482.24,-349.7"/>
<polygon fill="#000000" stroke="#000000" points="485.75,-349.95 484.09,-339.49 478.86,-348.7 485.75,-349.95"/>
</g>
<!-- Metamodel::Naming -->
<g id="node4" class="node">
<title>Metamodel::Naming</title>
<g id="a_node4"><a xlink:href="/type/Metamodel::Naming" xlink:title="Metamodel::Naming">
<ellipse fill="none" stroke="#6666ff" cx="110.87" cy="-803.41" rx="90.18" ry="18"/>
<text text-anchor="middle" x="110.87" y="-799.71" font-family="FreeSans" font-size="14.00" fill="#6666ff">Metamodel::Naming</text>
</a>
</g>
</g>
<!-- Metamodel::NativeHOW&#45;&gt;Metamodel::Naming -->
<g id="edge3" class="edge">
<title>Metamodel::NativeHOW&#45;&gt;Metamodel::Naming</title>
<path fill="none" stroke="#6666ff" d="M383.38,-689.54C326.06,-713.49 221.06,-757.37 159.47,-783.1"/>
<polygon fill="#6666ff" stroke="#6666ff" points="157.85,-779.99 149.98,-787.07 160.55,-786.45 157.85,-779.99"/>
</g>
<!-- Metamodel::Documenting -->
<g id="node5" class="node">
<title>Metamodel::Documenting</title>
<g id="a_node5"><a xlink:href="/type/Metamodel::Documenting" xlink:title="Metamodel::Documenting">
<ellipse fill="none" stroke="#6666ff" cx="480.71" cy="-1005.7" rx="111.28" ry="18"/>
<text text-anchor="middle" x="480.71" y="-1002" font-family="FreeSans" font-size="14.00" fill="#6666ff">Metamodel::Documenting</text>
</a>
</g>
</g>
<!-- Metamodel::NativeHOW&#45;&gt;Metamodel::Documenting -->
<g id="edge4" class="edge">
<title>Metamodel::NativeHOW&#45;&gt;Metamodel::Documenting</title>
<path fill="none" stroke="#6666ff" d="M426.78,-691.1C436.24,-746.25 464.41,-910.6 475.83,-977.2"/>
<polygon fill="#6666ff" stroke="#6666ff" points="472.43,-978.11 477.57,-987.38 479.33,-976.93 472.43,-978.11"/>
</g>
<!-- Metamodel::Versioning -->
<g id="node6" class="node">
<title>Metamodel::Versioning</title>
<g id="a_node6"><a xlink:href="/type/Metamodel::Versioning" xlink:title="Metamodel::Versioning">
<ellipse fill="none" stroke="#6666ff" cx="260.81" cy="-967.9" rx="100.98" ry="18"/>
<text text-anchor="middle" x="260.81" y="-964.2" font-family="FreeSans" font-size="14.00" fill="#6666ff">Metamodel::Versioning</text>
</a>
</g>
</g>
<!-- Metamodel::NativeHOW&#45;&gt;Metamodel::Versioning -->
<g id="edge5" class="edge">
<title>Metamodel::NativeHOW&#45;&gt;Metamodel::Versioning</title>
<path fill="none" stroke="#6666ff" d="M413.69,-690.74C386.1,-740.76 308.44,-881.54 275.69,-940.93"/>
<polygon fill="#6666ff" stroke="#6666ff" points="272.59,-939.29 270.83,-949.74 278.72,-942.67 272.59,-939.29"/>
</g>
<!-- Metamodel::Stashing -->
<g id="node7" class="node">
<title>Metamodel::Stashing</title>
<g id="a_node7"><a xlink:href="/type/Metamodel::Stashing" xlink:title="Metamodel::Stashing">
<ellipse fill="none" stroke="#6666ff" cx="93.59" cy="-583.44" rx="93.68" ry="18"/>
<text text-anchor="middle" x="93.59" y="-579.74" font-family="FreeSans" font-size="14.00" fill="#6666ff">Metamodel::Stashing</text>
</a>
</g>
</g>
<!-- Metamodel::NativeHOW&#45;&gt;Metamodel::Stashing -->
<g id="edge6" class="edge">
<title>Metamodel::NativeHOW&#45;&gt;Metamodel::Stashing</title>
<path fill="none" stroke="#6666ff" d="M366.9,-657.37C308.76,-641.65 218.52,-617.23 157.8,-600.81"/>
<polygon fill="#6666ff" stroke="#6666ff" points="158.51,-597.37 147.95,-598.14 156.68,-604.13 158.51,-597.37"/>
</g>
<!-- Metamodel::MultipleInheritance -->
<g id="node8" class="node">
<title>Metamodel::MultipleInheritance</title>
<g id="a_node8"><a xlink:href="/type/Metamodel::MultipleInheritance" xlink:title="Metamodel::MultipleInheritance">
<ellipse fill="none" stroke="#6666ff" cx="676" cy="-901.5" rx="133.78" ry="18"/>
<text text-anchor="middle" x="676" y="-897.8" font-family="FreeSans" font-size="14.00" fill="#6666ff">Metamodel::MultipleInheritance</text>
</a>
</g>
</g>
<!-- Metamodel::NativeHOW&#45;&gt;Metamodel::MultipleInheritance -->
<g id="edge7" class="edge">
<title>Metamodel::NativeHOW&#45;&gt;Metamodel::MultipleInheritance</title>
<path fill="none" stroke="#6666ff" d="M443.43,-690.68C488.21,-731.27 597.34,-830.2 648.58,-876.65"/>
<polygon fill="#6666ff" stroke="#6666ff" points="646.53,-879.51 656.29,-883.63 651.23,-874.32 646.53,-879.51"/>
</g>
<!-- Metamodel::C3MRO -->
<g id="node9" class="node">
<title>Metamodel::C3MRO</title>
<g id="a_node9"><a xlink:href="/type/Metamodel::C3MRO" xlink:title="Metamodel::C3MRO">
<ellipse fill="none" stroke="#6666ff" cx="226.8" cy="-413.84" rx="92.08" ry="18"/>
<text text-anchor="middle" x="226.8" y="-410.14" font-family="FreeSans" font-size="14.00" fill="#6666ff">Metamodel::C3MRO</text>
</a>
</g>
</g>
<!-- Metamodel::NativeHOW&#45;&gt;Metamodel::C3MRO -->
<g id="edge8" class="edge">
<title>Metamodel::NativeHOW&#45;&gt;Metamodel::C3MRO</title>
<path fill="none" stroke="#6666ff" d="M409.79,-654.52C375.47,-609.38 286.37,-492.19 246.54,-439.8"/>
<polygon fill="#6666ff" stroke="#6666ff" points="249.21,-437.52 240.37,-431.68 243.63,-441.76 249.21,-437.52"/>
</g>
<!-- Metamodel::MROBasedMethodDispatch -->
<g id="node10" class="node">
<title>Metamodel::MROBasedMethodDispatch</title>
<g id="a_node10"><a xlink:href="/type/Metamodel::MROBasedMethodDispatch" xlink:title="Metamodel::MROBasedMethodDispatch">
<ellipse fill="none" stroke="#6666ff" cx="690.39" cy="-499.95" rx="169.77" ry="18"/>
<text text-anchor="middle" x="690.39" y="-496.25" font-family="FreeSans" font-size="14.00" fill="#6666ff">Metamodel::MROBasedMethodDispatch</text>
</a>
</g>
</g>
<!-- Metamodel::NativeHOW&#45;&gt;Metamodel::MROBasedMethodDispatch -->
<g id="edge9" class="edge">
<title>Metamodel::NativeHOW&#45;&gt;Metamodel::MROBasedMethodDispatch</title>
<path fill="none" stroke="#6666ff" d="M450.68,-655.21C498.98,-623.92 600.1,-558.43 654.28,-523.33"/>
<polygon fill="#6666ff" stroke="#6666ff" points="656.38,-526.14 662.87,-517.77 652.58,-520.27 656.38,-526.14"/>
</g>
<!-- Metamodel::MROBasedTypeChecking -->
<g id="node11" class="node">
<title>Metamodel::MROBasedTypeChecking</title>
<g id="a_node11"><a xlink:href="/type/Metamodel::MROBasedTypeChecking" xlink:title="Metamodel::MROBasedTypeChecking">
<ellipse fill="none" stroke="#6666ff" cx="766.53" cy="-701.25" rx="163.27" ry="18"/>
<text text-anchor="middle" x="766.53" y="-697.55" font-family="FreeSans" font-size="14.00" fill="#6666ff">Metamodel::MROBasedTypeChecking</text>
</a>
</g>
</g>
<!-- Metamodel::NativeHOW&#45;&gt;Metamodel::MROBasedTypeChecking -->
<g id="edge10" class="edge">
<title>Metamodel::NativeHOW&#45;&gt;Metamodel::MROBasedTypeChecking</title>
<path fill="none" stroke="#6666ff" d="M519.6,-680.71C552.57,-683.45 590.18,-686.58 625.94,-689.55"/>
<polygon fill="#6666ff" stroke="#6666ff" points="625.71,-693.05 635.97,-690.39 626.29,-686.07 625.71,-693.05"/>
</g>
<!-- Mu -->
<g id="node2" class="node">
<title>Mu</title>
<g id="a_node2"><a xlink:href="/type/Mu" xlink:title="Mu">
<ellipse fill="none" stroke="#000000" cx="580.87" cy="-18" rx="27" ry="18"/>
<text text-anchor="middle" x="580.87" y="-14.3" font-family="FreeSans" font-size="14.00" fill="#000000">Mu</text>
</a>
</g>
</g>
<!-- Any&#45;&gt;Mu -->
<g id="edge2" class="edge">
<title>Any&#45;&gt;Mu</title>
<path fill="none" stroke="#000000" d="M492.96,-303.21C508.68,-252.22 553.46,-106.91 572.33,-45.71"/>
<polygon fill="#000000" stroke="#000000" points="575.73,-46.56 575.33,-35.97 569.04,-44.49 575.73,-46.56"/>
</g>
</g>
</svg>
