<?xml version="1.0" encoding="UTF-8" standalone="no"?>
<!DOCTYPE svg PUBLIC "-//W3C//DTD SVG 1.1//EN"
 "http://www.w3.org/Graphics/SVG/1.1/DTD/svg11.dtd">
<!-- Generated by graphviz version 2.43.0 (0)
 -->
<!-- Title: perl6&#45;type&#45;graph Pages: 1 -->
<svg width="791pt" height="525pt"
 viewBox="0.00 0.00 791.20 525.40" xmlns="http://www.w3.org/2000/svg" xmlns:xlink="http://www.w3.org/1999/xlink">
<g id="graph0" class="graph" transform="scale(1 1) rotate(0) translate(4 521.4)">
<title>perl6&#45;type&#45;graph</title>
<polygon fill="white" stroke="transparent" points="-4,4 -4,-521.4 787.2,-521.4 787.2,4 -4,4"/>
<!-- Metamodel::MethodDelegation -->
<g id="node1" class="node">
<title>Metamodel::MethodDelegation</title>
<g id="a_node1"><a xlink:href="/type/Metamodel::MethodDelegation" xlink:title="Metamodel::MethodDelegation">
<ellipse fill="none" stroke="#6666ff" cx="131.29" cy="-290.67" rx="131.08" ry="18"/>
<text text-anchor="middle" x="131.29" y="-286.97" font-family="FreeSans" font-size="14.00" fill="#6666ff">Metamodel::MethodDelegation</text>
</a>
</g>
</g>
<!-- Mu -->
<g id="node2" class="node">
<title>Mu</title>
<g id="a_node2"><a xlink:href="/type/Mu" xlink:title="Mu">
<ellipse fill="none" stroke="#000000" cx="756.2" cy="-18" rx="27" ry="18"/>
<text text-anchor="middle" x="756.2" y="-14.3" font-family="FreeSans" font-size="14.00" fill="#000000">Mu</text>
</a>
</g>
</g>
<!-- Any -->
<g id="node3" class="node">
<title>Any</title>
<g id="a_node3"><a xlink:href="/type/Any" xlink:title="Any">
<ellipse fill="none" stroke="#000000" cx="553.95" cy="-128.09" rx="27" ry="18"/>
<text text-anchor="middle" x="553.95" y="-124.39" font-family="FreeSans" font-size="14.00" fill="#000000">Any</text>
</a>
</g>
</g>
<!-- Any&#45;&gt;Mu -->
<g id="edge1" class="edge">
<title>Any&#45;&gt;Mu</title>
<path fill="none" stroke="#000000" d="M575.21,-116.51C611.41,-96.81 685.12,-56.69 726.43,-34.2"/>
<polygon fill="#000000" stroke="#000000" points="728.11,-37.27 735.22,-29.42 724.76,-31.12 728.11,-37.27"/>
</g>
<!-- Metamodel::Naming -->
<g id="node4" class="node">
<title>Metamodel::Naming</title>
<g id="a_node4"><a xlink:href="/type/Metamodel::Naming" xlink:title="Metamodel::Naming">
<ellipse fill="none" stroke="#6666ff" cx="395.23" cy="-499.4" rx="90.18" ry="18"/>
<text text-anchor="middle" x="395.23" y="-495.7" font-family="FreeSans" font-size="14.00" fill="#6666ff">Metamodel::Naming</text>
</a>
</g>
</g>
<!-- Metamodel::Documenting -->
<g id="node5" class="node">
<title>Metamodel::Documenting</title>
<g id="a_node5"><a xlink:href="/type/Metamodel::Documenting" xlink:title="Metamodel::Documenting">
<ellipse fill="none" stroke="#6666ff" cx="564.02" cy="-380.01" rx="111.28" ry="18"/>
<text text-anchor="middle" x="564.02" y="-376.31" font-family="FreeSans" font-size="14.00" fill="#6666ff">Metamodel::Documenting</text>
</a>
</g>
</g>
<!-- Metamodel::Stashing -->
<g id="node6" class="node">
<title>Metamodel::Stashing</title>
<g id="a_node6"><a xlink:href="/type/Metamodel::Stashing" xlink:title="Metamodel::Stashing">
<ellipse fill="none" stroke="#6666ff" cx="215.39" cy="-449.1" rx="93.68" ry="18"/>
<text text-anchor="middle" x="215.39" y="-445.4" font-family="FreeSans" font-size="14.00" fill="#6666ff">Metamodel::Stashing</text>
</a>
</g>
</g>
<!-- Metamodel::TypePretense -->
<g id="node7" class="node">
<title>Metamodel::TypePretense</title>
<g id="a_node7"><a xlink:href="/type/Metamodel::TypePretense" xlink:title="Metamodel::TypePretense">
<ellipse fill="none" stroke="#6666ff" cx="349" cy="-39.59" rx="114.28" ry="18"/>
<text text-anchor="middle" x="349" y="-35.89" font-family="FreeSans" font-size="14.00" fill="#6666ff">Metamodel::TypePretense</text>
</a>
</g>
</g>
<!-- Metamodel::PackageHOW -->
<g id="node8" class="node">
<title>Metamodel::PackageHOW</title>
<g id="a_node8"><a xlink:href="/type/Metamodel::PackageHOW" xlink:title="Metamodel::PackageHOW">
<ellipse fill="none" stroke="#000000" cx="398.16" cy="-296.64" rx="116.18" ry="18"/>
<text text-anchor="middle" x="398.16" y="-292.94" font-family="FreeSans" font-size="14.00" fill="#000000">Metamodel::PackageHOW</text>
</a>
</g>
</g>
<!-- Metamodel::PackageHOW&#45;&gt;Metamodel::MethodDelegation -->
<g id="edge8" class="edge">
<title>Metamodel::PackageHOW&#45;&gt;Metamodel::MethodDelegation</title>
<path fill="none" stroke="#6666ff" d="M282.66,-294.06C278.84,-293.97 275.01,-293.89 271.16,-293.8"/>
<polygon fill="#6666ff" stroke="#6666ff" points="271.05,-290.3 260.98,-293.57 270.9,-297.3 271.05,-290.3"/>
</g>
<!-- Metamodel::PackageHOW&#45;&gt;Any -->
<g id="edge2" class="edge">
<title>Metamodel::PackageHOW&#45;&gt;Any</title>
<path fill="none" stroke="#000000" d="M414.83,-278.6C443.32,-247.78 501.31,-185.03 532.67,-151.1"/>
<polygon fill="#000000" stroke="#000000" points="535.46,-153.25 539.67,-143.53 530.32,-148.5 535.46,-153.25"/>
</g>
<!-- Metamodel::PackageHOW&#45;&gt;Metamodel::Naming -->
<g id="edge4" class="edge">
<title>Metamodel::PackageHOW&#45;&gt;Metamodel::Naming</title>
<path fill="none" stroke="#6666ff" d="M397.9,-314.99C397.38,-350.5 396.25,-428.83 395.64,-471.07"/>
<polygon fill="#6666ff" stroke="#6666ff" points="392.14,-471.18 395.5,-481.23 399.14,-471.28 392.14,-471.18"/>
</g>
<!-- Metamodel::PackageHOW&#45;&gt;Metamodel::Documenting -->
<g id="edge5" class="edge">
<title>Metamodel::PackageHOW&#45;&gt;Metamodel::Documenting</title>
<path fill="none" stroke="#6666ff" d="M432.53,-313.91C458.1,-326.77 493.19,-344.41 520.69,-358.23"/>
<polygon fill="#6666ff" stroke="#6666ff" points="519.19,-361.39 529.7,-362.76 522.33,-355.14 519.19,-361.39"/>
</g>
<!-- Metamodel::PackageHOW&#45;&gt;Metamodel::Stashing -->
<g id="edge6" class="edge">
<title>Metamodel::PackageHOW&#45;&gt;Metamodel::Stashing</title>
<path fill="none" stroke="#6666ff" d="M376.84,-314.43C344.09,-341.74 281.37,-394.07 244.48,-424.84"/>
<polygon fill="#6666ff" stroke="#6666ff" points="242.02,-422.33 236.58,-431.43 246.5,-427.71 242.02,-422.33"/>
</g>
<!-- Metamodel::PackageHOW&#45;&gt;Metamodel::TypePretense -->
<g id="edge7" class="edge">
<title>Metamodel::PackageHOW&#45;&gt;Metamodel::TypePretense</title>
<path fill="none" stroke="#6666ff" d="M412.03,-278.66C424.63,-262.33 441.26,-240.78 441.26,-240.78 441.26,-240.78 386.8,-122.02 361.56,-66.99"/>
<polygon fill="#6666ff" stroke="#6666ff" points="364.7,-65.43 357.35,-57.8 358.33,-68.35 364.7,-65.43"/>
</g>
<!-- Metamodel::Versioning -->
<g id="node9" class="node">
<title>Metamodel::Versioning</title>
<g id="a_node9"><a xlink:href="/type/Metamodel::Versioning" xlink:title="Metamodel::Versioning">
<ellipse fill="none" stroke="#6666ff" cx="125.84" cy="-65.14" rx="100.98" ry="18"/>
<text text-anchor="middle" x="125.84" y="-61.44" font-family="FreeSans" font-size="14.00" fill="#6666ff">Metamodel::Versioning</text>
</a>
</g>
</g>
<!-- Metamodel::ModuleHOW -->
<g id="node10" class="node">
<title>Metamodel::ModuleHOW</title>
<g id="a_node10"><a xlink:href="/type/Metamodel::ModuleHOW" xlink:title="Metamodel::ModuleHOW">
<ellipse fill="none" stroke="#000000" cx="329.17" cy="-240.61" rx="110.48" ry="18"/>
<text text-anchor="middle" x="329.17" y="-236.91" font-family="FreeSans" font-size="14.00" fill="#000000">Metamodel::ModuleHOW</text>
</a>
</g>
</g>
<!-- Metamodel::ModuleHOW&#45;&gt;Metamodel::MethodDelegation -->
<g id="edge14" class="edge">
<title>Metamodel::ModuleHOW&#45;&gt;Metamodel::MethodDelegation</title>
<path fill="none" stroke="#6666ff" d="M269.27,-255.77C248.65,-260.98 225.34,-266.88 203.82,-272.32"/>
<polygon fill="#6666ff" stroke="#6666ff" points="202.92,-268.94 194.08,-274.79 204.64,-275.73 202.92,-268.94"/>
</g>
<!-- Metamodel::ModuleHOW&#45;&gt;Any -->
<g id="edge3" class="edge">
<title>Metamodel::ModuleHOW&#45;&gt;Any</title>
<path fill="none" stroke="#000000" d="M363.8,-223.27C407.33,-201.48 481.38,-164.41 523.06,-143.55"/>
<polygon fill="#000000" stroke="#000000" points="524.81,-146.59 532.19,-138.98 521.68,-140.33 524.81,-146.59"/>
</g>
<!-- Metamodel::ModuleHOW&#45;&gt;Metamodel::Naming -->
<g id="edge9" class="edge">
<title>Metamodel::ModuleHOW&#45;&gt;Metamodel::Naming</title>
<path fill="none" stroke="#6666ff" d="M313.42,-258.61C299.11,-274.95 280.22,-296.52 280.22,-296.52 280.22,-296.52 348.72,-417.36 379.99,-472.51"/>
<polygon fill="#6666ff" stroke="#6666ff" points="377.05,-474.42 385.03,-481.39 383.14,-470.97 377.05,-474.42"/>
</g>
<!-- Metamodel::ModuleHOW&#45;&gt;Metamodel::Documenting -->
<g id="edge10" class="edge">
<title>Metamodel::ModuleHOW&#45;&gt;Metamodel::Documenting</title>
<path fill="none" stroke="#6666ff" d="M385.67,-256.22C429.21,-268.26 482.05,-282.86 482.05,-282.86 482.05,-282.86 516.1,-296.75 516.1,-296.75 516.1,-296.75 534.52,-328.76 548.52,-353.08"/>
<polygon fill="#6666ff" stroke="#6666ff" points="545.6,-355.03 553.62,-361.95 551.67,-351.53 545.6,-355.03"/>
</g>
<!-- Metamodel::ModuleHOW&#45;&gt;Metamodel::Stashing -->
<g id="edge12" class="edge">
<title>Metamodel::ModuleHOW&#45;&gt;Metamodel::Stashing</title>
<path fill="none" stroke="#6666ff" d="M313.42,-258.61C299.11,-274.95 280.22,-296.52 280.22,-296.52 280.22,-296.52 245.68,-377.82 227.02,-421.73"/>
<polygon fill="#6666ff" stroke="#6666ff" points="223.77,-420.43 223.08,-431 230.21,-423.16 223.77,-420.43"/>
</g>
<!-- Metamodel::ModuleHOW&#45;&gt;Metamodel::TypePretense -->
<g id="edge13" class="edge">
<title>Metamodel::ModuleHOW&#45;&gt;Metamodel::TypePretense</title>
<path fill="none" stroke="#6666ff" d="M330.97,-222.42C334.44,-187.21 342.1,-109.55 346.23,-67.67"/>
<polygon fill="#6666ff" stroke="#6666ff" points="349.72,-67.9 347.22,-57.6 342.76,-67.21 349.72,-67.9"/>
</g>
<!-- Metamodel::ModuleHOW&#45;&gt;Metamodel::Versioning -->
<g id="edge11" class="edge">
<title>Metamodel::ModuleHOW&#45;&gt;Metamodel::Versioning</title>
<path fill="none" stroke="#6666ff" d="M308.56,-222.82C272.02,-191.29 195.86,-125.56 154.33,-89.73"/>
<polygon fill="#6666ff" stroke="#6666ff" points="156.37,-86.86 146.51,-82.98 151.8,-92.16 156.37,-86.86"/>
</g>
</g>
</svg>
