<?xml version="1.0" encoding="UTF-8" standalone="no"?>
<!DOCTYPE svg PUBLIC "-//W3C//DTD SVG 1.1//EN"
 "http://www.w3.org/Graphics/SVG/1.1/DTD/svg11.dtd">
<!-- Generated by graphviz version 2.43.0 (0)
 -->
<!-- Title: perl6&#45;type&#45;graph Pages: 1 -->
<svg width="1971pt" height="1685pt"
 viewBox="0.00 0.00 1971.40 1684.60" xmlns="http://www.w3.org/2000/svg" xmlns:xlink="http://www.w3.org/1999/xlink">
<g id="graph0" class="graph" transform="scale(1 1) rotate(0) translate(4 1680.6)">
<title>perl6&#45;type&#45;graph</title>
<polygon fill="white" stroke="transparent" points="-4,4 -4,-1680.6 1967.4,-1680.6 1967.4,4 -4,4"/>
<!-- Metamodel::MethodContainer -->
<g id="node1" class="node">
<title>Metamodel::MethodContainer</title>
<g id="a_node1"><a xlink:href="/type/Metamodel::MethodContainer" xlink:title="Metamodel::MethodContainer">
<ellipse fill="none" stroke="#6666ff" cx="843.16" cy="-712.23" rx="127.28" ry="18"/>
<text text-anchor="middle" x="843.16" y="-708.53" font-family="FreeSans" font-size="14.00" fill="#6666ff">Metamodel::MethodContainer</text>
</a>
</g>
</g>
<!-- Mu -->
<g id="node2" class="node">
<title>Mu</title>
<g id="a_node2"><a xlink:href="/type/Mu" xlink:title="Mu">
<ellipse fill="none" stroke="#000000" cx="1186.18" cy="-18" rx="27" ry="18"/>
<text text-anchor="middle" x="1186.18" y="-14.3" font-family="FreeSans" font-size="14.00" fill="#000000">Mu</text>
</a>
</g>
</g>
<!-- Any -->
<g id="node3" class="node">
<title>Any</title>
<g id="a_node3"><a xlink:href="/type/Any" xlink:title="Any">
<ellipse fill="none" stroke="#000000" cx="1048.02" cy="-497.58" rx="27" ry="18"/>
<text text-anchor="middle" x="1048.02" y="-493.88" font-family="FreeSans" font-size="14.00" fill="#000000">Any</text>
</a>
</g>
</g>
<!-- Any&#45;&gt;Mu -->
<g id="edge1" class="edge">
<title>Any&#45;&gt;Mu</title>
<path fill="none" stroke="#000000" d="M1053.18,-479.65C1074.13,-406.94 1152.86,-133.66 1178.24,-45.56"/>
<polygon fill="#000000" stroke="#000000" points="1181.66,-46.34 1181.06,-35.76 1174.93,-44.4 1181.66,-46.34"/>
</g>
<!-- Metamodel::Naming -->
<g id="node4" class="node">
<title>Metamodel::Naming</title>
<g id="a_node4"><a xlink:href="/type/Metamodel::Naming" xlink:title="Metamodel::Naming">
<ellipse fill="none" stroke="#6666ff" cx="984.44" cy="-974.8" rx="90.18" ry="18"/>
<text text-anchor="middle" x="984.44" y="-971.1" font-family="FreeSans" font-size="14.00" fill="#6666ff">Metamodel::Naming</text>
</a>
</g>
</g>
<!-- Metamodel::Stashing -->
<g id="node5" class="node">
<title>Metamodel::Stashing</title>
<g id="a_node5"><a xlink:href="/type/Metamodel::Stashing" xlink:title="Metamodel::Stashing">
<ellipse fill="none" stroke="#6666ff" cx="856.27" cy="-1185.61" rx="93.68" ry="18"/>
<text text-anchor="middle" x="856.27" y="-1181.91" font-family="FreeSans" font-size="14.00" fill="#6666ff">Metamodel::Stashing</text>
</a>
</g>
</g>
<!-- Metamodel::AttributeContainer -->
<g id="node6" class="node">
<title>Metamodel::AttributeContainer</title>
<g id="a_node6"><a xlink:href="/type/Metamodel::AttributeContainer" xlink:title="Metamodel::AttributeContainer">
<ellipse fill="none" stroke="#6666ff" cx="933.93" cy="-844.02" rx="129.98" ry="18"/>
<text text-anchor="middle" x="933.93" y="-840.32" font-family="FreeSans" font-size="14.00" fill="#6666ff">Metamodel::AttributeContainer</text>
</a>
</g>
</g>
<!-- Metamodel::MultiMethodContainer -->
<g id="node7" class="node">
<title>Metamodel::MultiMethodContainer</title>
<g id="a_node7"><a xlink:href="/type/Metamodel::MultiMethodContainer" xlink:title="Metamodel::MultiMethodContainer">
<ellipse fill="none" stroke="#6666ff" cx="918.53" cy="-563.12" rx="146.47" ry="18"/>
<text text-anchor="middle" x="918.53" y="-559.42" font-family="FreeSans" font-size="14.00" fill="#6666ff">Metamodel::MultiMethodContainer</text>
</a>
</g>
</g>
<!-- Metamodel::RoleContainer -->
<g id="node8" class="node">
<title>Metamodel::RoleContainer</title>
<g id="a_node8"><a xlink:href="/type/Metamodel::RoleContainer" xlink:title="Metamodel::RoleContainer">
<ellipse fill="none" stroke="#6666ff" cx="1094.26" cy="-680.71" rx="115.88" ry="18"/>
<text text-anchor="middle" x="1094.26" y="-677.01" font-family="FreeSans" font-size="14.00" fill="#6666ff">Metamodel::RoleContainer</text>
</a>
</g>
</g>
<!-- Metamodel::BaseType -->
<g id="node9" class="node">
<title>Metamodel::BaseType</title>
<g id="a_node9"><a xlink:href="/type/Metamodel::BaseType" xlink:title="Metamodel::BaseType">
<ellipse fill="none" stroke="#6666ff" cx="375.09" cy="-82.68" rx="99.38" ry="18"/>
<text text-anchor="middle" x="375.09" y="-78.98" font-family="FreeSans" font-size="14.00" fill="#6666ff">Metamodel::BaseType</text>
</a>
</g>
</g>
<!-- Metamodel::MROBasedMethodDispatch -->
<g id="node10" class="node">
<title>Metamodel::MROBasedMethodDispatch</title>
<g id="a_node10"><a xlink:href="/type/Metamodel::MROBasedMethodDispatch" xlink:title="Metamodel::MROBasedMethodDispatch">
<ellipse fill="none" stroke="#6666ff" cx="303.75" cy="-595.4" rx="169.77" ry="18"/>
<text text-anchor="middle" x="303.75" y="-591.7" font-family="FreeSans" font-size="14.00" fill="#6666ff">Metamodel::MROBasedMethodDispatch</text>
</a>
</g>
</g>
<!-- Metamodel::MROBasedTypeChecking -->
<g id="node11" class="node">
<title>Metamodel::MROBasedTypeChecking</title>
<g id="a_node11"><a xlink:href="/type/Metamodel::MROBasedTypeChecking" xlink:title="Metamodel::MROBasedTypeChecking">
<ellipse fill="none" stroke="#6666ff" cx="215.63" cy="-736.41" rx="163.27" ry="18"/>
<text text-anchor="middle" x="215.63" y="-732.71" font-family="FreeSans" font-size="14.00" fill="#6666ff">Metamodel::MROBasedTypeChecking</text>
</a>
</g>
</g>
<!-- Metamodel::BUILDPLAN -->
<g id="node12" class="node">
<title>Metamodel::BUILDPLAN</title>
<g id="a_node12"><a xlink:href="/type/Metamodel::BUILDPLAN" xlink:title="Metamodel::BUILDPLAN">
<ellipse fill="none" stroke="#6666ff" cx="109.84" cy="-926.8" rx="109.68" ry="18"/>
<text text-anchor="middle" x="109.84" y="-923.1" font-family="FreeSans" font-size="14.00" fill="#6666ff">Metamodel::BUILDPLAN</text>
</a>
</g>
</g>
<!-- Metamodel::BoolificationProtocol -->
<g id="node13" class="node">
<title>Metamodel::BoolificationProtocol</title>
<g id="a_node13"><a xlink:href="/type/Metamodel::BoolificationProtocol" xlink:title="Metamodel::BoolificationProtocol">
<ellipse fill="none" stroke="#6666ff" cx="366.88" cy="-915.55" rx="139.18" ry="18"/>
<text text-anchor="middle" x="366.88" y="-911.85" font-family="FreeSans" font-size="14.00" fill="#6666ff">Metamodel::BoolificationProtocol</text>
</a>
</g>
</g>
<!-- Metamodel::Mixins -->
<g id="node14" class="node">
<title>Metamodel::Mixins</title>
<g id="a_node14"><a xlink:href="/type/Metamodel::Mixins" xlink:title="Metamodel::Mixins">
<ellipse fill="none" stroke="#6666ff" cx="250.49" cy="-1099.99" rx="85.29" ry="18"/>
<text text-anchor="middle" x="250.49" y="-1096.29" font-family="FreeSans" font-size="14.00" fill="#6666ff">Metamodel::Mixins</text>
</a>
</g>
</g>
<!-- Metamodel::EnumHOW -->
<g id="node15" class="node">
<title>Metamodel::EnumHOW</title>
<g id="a_node15"><a xlink:href="/type/Metamodel::EnumHOW" xlink:title="Metamodel::EnumHOW">
<ellipse fill="none" stroke="#000000" cx="586.08" cy="-596.58" rx="104.78" ry="18"/>
<text text-anchor="middle" x="586.08" y="-592.88" font-family="FreeSans" font-size="14.00" fill="#000000">Metamodel::EnumHOW</text>
</a>
</g>
</g>
<!-- Metamodel::EnumHOW&#45;&gt;Metamodel::MethodContainer -->
<g id="edge9" class="edge">
<title>Metamodel::EnumHOW&#45;&gt;Metamodel::MethodContainer</title>
<path fill="none" stroke="#6666ff" d="M623.46,-613.4C668.99,-633.88 745.95,-668.5 795.64,-690.85"/>
<polygon fill="#6666ff" stroke="#6666ff" points="794.34,-694.11 804.89,-695.02 797.21,-687.72 794.34,-694.11"/>
</g>
<!-- Metamodel::EnumHOW&#45;&gt;Any -->
<g id="edge2" class="edge">
<title>Metamodel::EnumHOW&#45;&gt;Any</title>
<path fill="none" stroke="#000000" d="M651.77,-582.5C750.62,-561.32 934.28,-521.96 1011.9,-505.32"/>
<polygon fill="#000000" stroke="#000000" points="1013.08,-508.65 1022.12,-503.13 1011.61,-501.8 1013.08,-508.65"/>
</g>
<!-- Metamodel::EnumHOW&#45;&gt;Metamodel::Naming -->
<g id="edge6" class="edge">
<title>Metamodel::EnumHOW&#45;&gt;Metamodel::Naming</title>
<path fill="none" stroke="#6666ff" d="M601.98,-614.77C651.93,-671.88 802.35,-843.89 802.35,-843.89 802.35,-843.89 899.6,-913.8 951.96,-951.44"/>
<polygon fill="#6666ff" stroke="#6666ff" points="950.1,-954.42 960.26,-957.41 954.19,-948.73 950.1,-954.42"/>
</g>
<!-- Metamodel::EnumHOW&#45;&gt;Metamodel::Stashing -->
<g id="edge7" class="edge">
<title>Metamodel::EnumHOW&#45;&gt;Metamodel::Stashing</title>
<path fill="none" stroke="#6666ff" d="M594.31,-614.53C633,-698.87 796.79,-1055.95 843.68,-1158.17"/>
<polygon fill="#6666ff" stroke="#6666ff" points="840.62,-1159.88 847.97,-1167.51 846.98,-1156.97 840.62,-1159.88"/>
</g>
<!-- Metamodel::EnumHOW&#45;&gt;Metamodel::AttributeContainer -->
<g id="edge8" class="edge">
<title>Metamodel::EnumHOW&#45;&gt;Metamodel::AttributeContainer</title>
<path fill="none" stroke="#6666ff" d="M605.81,-614.39C641.74,-646.8 714.17,-712.14 714.17,-712.14 714.17,-712.14 832.39,-783.08 895.42,-820.9"/>
<polygon fill="#6666ff" stroke="#6666ff" points="893.92,-824.08 904.29,-826.23 897.52,-818.08 893.92,-824.08"/>
</g>
<!-- Metamodel::EnumHOW&#45;&gt;Metamodel::MultiMethodContainer -->
<g id="edge10" class="edge">
<title>Metamodel::EnumHOW&#45;&gt;Metamodel::MultiMethodContainer</title>
<path fill="none" stroke="#6666ff" d="M676.48,-587.48C713.01,-583.81 755.75,-579.51 795.07,-575.55"/>
<polygon fill="#6666ff" stroke="#6666ff" points="795.65,-579.01 805.25,-574.52 794.95,-572.04 795.65,-579.01"/>
</g>
<!-- Metamodel::EnumHOW&#45;&gt;Metamodel::RoleContainer -->
<g id="edge11" class="edge">
<title>Metamodel::EnumHOW&#45;&gt;Metamodel::RoleContainer</title>
<path fill="none" stroke="#6666ff" d="M661.61,-609.09C753.21,-624.25 907.4,-649.77 1004.84,-665.9"/>
<polygon fill="#6666ff" stroke="#6666ff" points="1004.53,-669.4 1014.96,-667.58 1005.67,-662.49 1004.53,-669.4"/>
</g>
<!-- Metamodel::EnumHOW&#45;&gt;Metamodel::BaseType -->
<g id="edge12" class="edge">
<title>Metamodel::EnumHOW&#45;&gt;Metamodel::BaseType</title>
<path fill="none" stroke="#6666ff" d="M578.7,-578.59C547.24,-501.98 424.31,-202.56 386.33,-110.06"/>
<polygon fill="#6666ff" stroke="#6666ff" points="389.56,-108.71 382.53,-100.79 383.09,-111.37 389.56,-108.71"/>
</g>
<!-- Metamodel::EnumHOW&#45;&gt;Metamodel::MROBasedMethodDispatch -->
<g id="edge13" class="edge">
<title>Metamodel::EnumHOW&#45;&gt;Metamodel::MROBasedMethodDispatch</title>
<path fill="none" stroke="#6666ff" d="M481.35,-596.15C481.27,-596.14 481.19,-596.14 481.1,-596.14"/>
<polygon fill="#6666ff" stroke="#6666ff" points="483.31,-592.65 473.3,-596.11 483.28,-599.65 483.31,-592.65"/>
</g>
<!-- Metamodel::EnumHOW&#45;&gt;Metamodel::MROBasedTypeChecking -->
<g id="edge14" class="edge">
<title>Metamodel::EnumHOW&#45;&gt;Metamodel::MROBasedTypeChecking</title>
<path fill="none" stroke="#6666ff" d="M542.5,-613.03C475.05,-638.49 345.44,-687.41 271.3,-715.39"/>
<polygon fill="#6666ff" stroke="#6666ff" points="269.78,-712.23 261.66,-719.03 272.25,-718.78 269.78,-712.23"/>
</g>
<!-- Metamodel::EnumHOW&#45;&gt;Metamodel::BUILDPLAN -->
<g id="edge15" class="edge">
<title>Metamodel::EnumHOW&#45;&gt;Metamodel::BUILDPLAN</title>
<path fill="none" stroke="#6666ff" d="M560.81,-614.1C480.99,-669.45 234.16,-840.6 143.6,-903.39"/>
<polygon fill="#6666ff" stroke="#6666ff" points="141.56,-900.55 135.34,-909.12 145.55,-906.3 141.56,-900.55"/>
</g>
<!-- Metamodel::EnumHOW&#45;&gt;Metamodel::BoolificationProtocol -->
<g id="edge16" class="edge">
<title>Metamodel::EnumHOW&#45;&gt;Metamodel::BoolificationProtocol</title>
<path fill="none" stroke="#6666ff" d="M573.67,-614.65C536.9,-668.14 428.46,-825.94 385.1,-889.04"/>
<polygon fill="#6666ff" stroke="#6666ff" points="382.21,-887.07 379.43,-897.29 387.97,-891.03 382.21,-887.07"/>
</g>
<!-- Metamodel::EnumHOW&#45;&gt;Metamodel::Mixins -->
<g id="edge17" class="edge">
<title>Metamodel::EnumHOW&#45;&gt;Metamodel::Mixins</title>
<path fill="none" stroke="#6666ff" d="M581.63,-614.65C565.02,-682.16 507.56,-915.7 507.56,-915.7 507.56,-915.7 352.24,-1027.05 283.06,-1076.64"/>
<polygon fill="#6666ff" stroke="#6666ff" points="280.77,-1073.98 274.68,-1082.66 284.84,-1079.67 280.77,-1073.98"/>
</g>
<!-- Metamodel::Versioning -->
<g id="node16" class="node">
<title>Metamodel::Versioning</title>
<g id="a_node16"><a xlink:href="/type/Metamodel::Versioning" xlink:title="Metamodel::Versioning">
<ellipse fill="none" stroke="#6666ff" cx="1190.43" cy="-1195.27" rx="100.98" ry="18"/>
<text text-anchor="middle" x="1190.43" y="-1191.57" font-family="FreeSans" font-size="14.00" fill="#6666ff">Metamodel::Versioning</text>
</a>
</g>
</g>
<!-- Metamodel::PrivateMethodContainer -->
<g id="node17" class="node">
<title>Metamodel::PrivateMethodContainer</title>
<g id="a_node17"><a xlink:href="/type/Metamodel::PrivateMethodContainer" xlink:title="Metamodel::PrivateMethodContainer">
<ellipse fill="none" stroke="#6666ff" cx="1304.94" cy="-1293.04" rx="154.87" ry="18"/>
<text text-anchor="middle" x="1304.94" y="-1289.34" font-family="FreeSans" font-size="14.00" fill="#6666ff">Metamodel::PrivateMethodContainer</text>
</a>
</g>
</g>
<!-- Metamodel::MultipleInheritance -->
<g id="node18" class="node">
<title>Metamodel::MultipleInheritance</title>
<g id="a_node18"><a xlink:href="/type/Metamodel::MultipleInheritance" xlink:title="Metamodel::MultipleInheritance">
<ellipse fill="none" stroke="#6666ff" cx="1162.41" cy="-1352.38" rx="133.78" ry="18"/>
<text text-anchor="middle" x="1162.41" y="-1348.68" font-family="FreeSans" font-size="14.00" fill="#6666ff">Metamodel::MultipleInheritance</text>
</a>
</g>
</g>
<!-- Metamodel::ConcreteRoleHOW -->
<g id="node19" class="node">
<title>Metamodel::ConcreteRoleHOW</title>
<g id="a_node19"><a xlink:href="/type/Metamodel::ConcreteRoleHOW" xlink:title="Metamodel::ConcreteRoleHOW">
<ellipse fill="none" stroke="#000000" cx="1362.85" cy="-767.31" rx="135.38" ry="18"/>
<text text-anchor="middle" x="1362.85" y="-763.61" font-family="FreeSans" font-size="14.00" fill="#000000">Metamodel::ConcreteRoleHOW</text>
</a>
</g>
</g>
<!-- Metamodel::ConcreteRoleHOW&#45;&gt;Metamodel::MethodContainer -->
<g id="edge21" class="edge">
<title>Metamodel::ConcreteRoleHOW&#45;&gt;Metamodel::MethodContainer</title>
<path fill="none" stroke="#6666ff" d="M1257.06,-756.1C1169.33,-746.8 1044.93,-733.62 955.45,-724.13"/>
<polygon fill="#6666ff" stroke="#6666ff" points="955.58,-720.63 945.26,-723.05 954.84,-727.59 955.58,-720.63"/>
</g>
<!-- Metamodel::ConcreteRoleHOW&#45;&gt;Any -->
<g id="edge3" class="edge">
<title>Metamodel::ConcreteRoleHOW&#45;&gt;Any</title>
<path fill="none" stroke="#000000" d="M1341.7,-749.19C1285.48,-701.02 1132.49,-569.95 1072.56,-518.61"/>
<polygon fill="#000000" stroke="#000000" points="1074.62,-515.76 1064.74,-511.91 1070.06,-521.07 1074.62,-515.76"/>
</g>
<!-- Metamodel::ConcreteRoleHOW&#45;&gt;Metamodel::Naming -->
<g id="edge18" class="edge">
<title>Metamodel::ConcreteRoleHOW&#45;&gt;Metamodel::Naming</title>
<path fill="none" stroke="#6666ff" d="M1330.91,-784.82C1262.14,-822.53 1100.15,-911.36 1024.58,-952.79"/>
<polygon fill="#6666ff" stroke="#6666ff" points="1022.45,-949.97 1015.37,-957.84 1025.82,-956.1 1022.45,-949.97"/>
</g>
<!-- Metamodel::ConcreteRoleHOW&#45;&gt;Metamodel::AttributeContainer -->
<g id="edge23" class="edge">
<title>Metamodel::ConcreteRoleHOW&#45;&gt;Metamodel::AttributeContainer</title>
<path fill="none" stroke="#6666ff" d="M1281.92,-781.78C1208.39,-794.93 1100.07,-814.31 1023.85,-827.93"/>
<polygon fill="#6666ff" stroke="#6666ff" points="1023.02,-824.53 1013.79,-829.73 1024.25,-831.42 1023.02,-824.53"/>
</g>
<!-- Metamodel::ConcreteRoleHOW&#45;&gt;Metamodel::MultiMethodContainer -->
<g id="edge22" class="edge">
<title>Metamodel::ConcreteRoleHOW&#45;&gt;Metamodel::MultiMethodContainer</title>
<path fill="none" stroke="#6666ff" d="M1331.87,-749.6C1287.6,-724.29 1211.55,-680.81 1211.55,-680.81 1211.55,-680.81 1177.62,-666.92 1177.62,-666.92 1177.62,-666.92 1046.71,-614.47 971,-584.14"/>
<polygon fill="#6666ff" stroke="#6666ff" points="972.19,-580.85 961.6,-580.38 969.59,-587.35 972.19,-580.85"/>
</g>
<!-- Metamodel::ConcreteRoleHOW&#45;&gt;Metamodel::RoleContainer -->
<g id="edge24" class="edge">
<title>Metamodel::ConcreteRoleHOW&#45;&gt;Metamodel::RoleContainer</title>
<path fill="none" stroke="#6666ff" d="M1311.06,-750.61C1266.38,-736.2 1201.79,-715.38 1154.74,-700.21"/>
<polygon fill="#6666ff" stroke="#6666ff" points="1155.57,-696.8 1144.98,-697.06 1153.42,-703.46 1155.57,-696.8"/>
</g>
<!-- Metamodel::ConcreteRoleHOW&#45;&gt;Metamodel::Versioning -->
<g id="edge19" class="edge">
<title>Metamodel::ConcreteRoleHOW&#45;&gt;Metamodel::Versioning</title>
<path fill="none" stroke="#6666ff" d="M1346.77,-785.49C1308.51,-828.75 1215.23,-934.21 1215.23,-934.21 1215.23,-934.21 1199.54,-1099.35 1193.12,-1166.95"/>
<polygon fill="#6666ff" stroke="#6666ff" points="1189.64,-1166.63 1192.18,-1176.92 1196.61,-1167.29 1189.64,-1166.63"/>
</g>
<!-- Metamodel::ConcreteRoleHOW&#45;&gt;Metamodel::PrivateMethodContainer -->
<g id="edge20" class="edge">
<title>Metamodel::ConcreteRoleHOW&#45;&gt;Metamodel::PrivateMethodContainer</title>
<path fill="none" stroke="#6666ff" d="M1346.77,-785.49C1308.51,-828.75 1215.23,-934.21 1215.23,-934.21 1215.23,-934.21 1292.77,-1195.35 1292.77,-1195.35 1292.77,-1195.35 1297.81,-1235.82 1301.4,-1264.66"/>
<polygon fill="#6666ff" stroke="#6666ff" points="1297.94,-1265.18 1302.65,-1274.67 1304.89,-1264.31 1297.94,-1265.18"/>
</g>
<!-- Metamodel::ConcreteRoleHOW&#45;&gt;Metamodel::MultipleInheritance -->
<g id="edge25" class="edge">
<title>Metamodel::ConcreteRoleHOW&#45;&gt;Metamodel::MultipleInheritance</title>
<path fill="none" stroke="#6666ff" d="M1346.77,-785.49C1308.51,-828.75 1215.23,-934.21 1215.23,-934.21 1215.23,-934.21 1088.09,-1195.2 1088.09,-1195.2 1088.09,-1195.2 1128.26,-1280.14 1149.53,-1325.14"/>
<polygon fill="#6666ff" stroke="#6666ff" points="1146.45,-1326.81 1153.89,-1334.35 1152.78,-1323.81 1146.45,-1326.81"/>
</g>
<!-- Metamodel::Documenting -->
<g id="node20" class="node">
<title>Metamodel::Documenting</title>
<g id="a_node20"><a xlink:href="/type/Metamodel::Documenting" xlink:title="Metamodel::Documenting">
<ellipse fill="none" stroke="#6666ff" cx="1038.3" cy="-1509.77" rx="111.28" ry="18"/>
<text text-anchor="middle" x="1038.3" y="-1506.07" font-family="FreeSans" font-size="14.00" fill="#6666ff">Metamodel::Documenting</text>
</a>
</g>
</g>
<!-- Metamodel::Finalization -->
<g id="node21" class="node">
<title>Metamodel::Finalization</title>
<g id="a_node21"><a xlink:href="/type/Metamodel::Finalization" xlink:title="Metamodel::Finalization">
<ellipse fill="none" stroke="#6666ff" cx="368.36" cy="-1512.46" rx="103.98" ry="18"/>
<text text-anchor="middle" x="368.36" y="-1508.76" font-family="FreeSans" font-size="14.00" fill="#6666ff">Metamodel::Finalization</text>
</a>
</g>
</g>
<!-- Metamodel::DefaultParent -->
<g id="node22" class="node">
<title>Metamodel::DefaultParent</title>
<g id="a_node22"><a xlink:href="/type/Metamodel::DefaultParent" xlink:title="Metamodel::DefaultParent">
<ellipse fill="none" stroke="#6666ff" cx="220.44" cy="-1380.82" rx="113.18" ry="18"/>
<text text-anchor="middle" x="220.44" y="-1377.12" font-family="FreeSans" font-size="14.00" fill="#6666ff">Metamodel::DefaultParent</text>
</a>
</g>
</g>
<!-- Metamodel::C3MRO -->
<g id="node23" class="node">
<title>Metamodel::C3MRO</title>
<g id="a_node23"><a xlink:href="/type/Metamodel::C3MRO" xlink:title="Metamodel::C3MRO">
<ellipse fill="none" stroke="#6666ff" cx="530.93" cy="-1606.38" rx="92.08" ry="18"/>
<text text-anchor="middle" x="530.93" y="-1602.68" font-family="FreeSans" font-size="14.00" fill="#6666ff">Metamodel::C3MRO</text>
</a>
</g>
</g>
<!-- Metamodel::Trusting -->
<g id="node24" class="node">
<title>Metamodel::Trusting</title>
<g id="a_node24"><a xlink:href="/type/Metamodel::Trusting" xlink:title="Metamodel::Trusting">
<ellipse fill="none" stroke="#6666ff" cx="715.97" cy="-1658.6" rx="91.78" ry="18"/>
<text text-anchor="middle" x="715.97" y="-1654.9" font-family="FreeSans" font-size="14.00" fill="#6666ff">Metamodel::Trusting</text>
</a>
</g>
</g>
<!-- Metamodel::ClassHOW -->
<g id="node25" class="node">
<title>Metamodel::ClassHOW</title>
<g id="a_node25"><a xlink:href="/type/Metamodel::ClassHOW" xlink:title="Metamodel::ClassHOW">
<ellipse fill="none" stroke="#000000" cx="673.14" cy="-1083.54" rx="103.18" ry="18"/>
<text text-anchor="middle" x="673.14" y="-1079.84" font-family="FreeSans" font-size="14.00" fill="#000000">Metamodel::ClassHOW</text>
</a>
</g>
</g>
<!-- Metamodel::ClassHOW&#45;&gt;Metamodel::MethodContainer -->
<g id="edge32" class="edge">
<title>Metamodel::ClassHOW&#45;&gt;Metamodel::MethodContainer</title>
<path fill="none" stroke="#6666ff" d="M681.45,-1065.38C709.02,-1005.17 797.55,-811.83 830.58,-739.7"/>
<polygon fill="#6666ff" stroke="#6666ff" points="833.88,-740.9 834.86,-730.36 827.51,-737.99 833.88,-740.9"/>
</g>
<!-- Metamodel::ClassHOW&#45;&gt;Any -->
<g id="edge4" class="edge">
<title>Metamodel::ClassHOW&#45;&gt;Any</title>
<path fill="none" stroke="#000000" d="M682.85,-1065.53C712.9,-1009.79 802.35,-843.89 802.35,-843.89 802.35,-843.89 972.14,-712.32 972.14,-712.32 972.14,-712.32 976.97,-680.61 976.97,-680.61 976.97,-680.61 1066.37,-563.23 1066.37,-563.23 1066.37,-563.23 1060.79,-543.29 1055.79,-525.39"/>
<polygon fill="#000000" stroke="#000000" points="1059.09,-524.21 1053.03,-515.52 1052.35,-526.09 1059.09,-524.21"/>
</g>
<!-- Metamodel::ClassHOW&#45;&gt;Metamodel::Naming -->
<g id="edge26" class="edge">
<title>Metamodel::ClassHOW&#45;&gt;Metamodel::Naming</title>
<path fill="none" stroke="#6666ff" d="M719.41,-1067.38C775.56,-1047.76 870.13,-1014.73 929.81,-993.88"/>
<polygon fill="#6666ff" stroke="#6666ff" points="931.15,-997.12 939.44,-990.52 928.84,-990.51 931.15,-997.12"/>
</g>
<!-- Metamodel::ClassHOW&#45;&gt;Metamodel::Stashing -->
<g id="edge29" class="edge">
<title>Metamodel::ClassHOW&#45;&gt;Metamodel::Stashing</title>
<path fill="none" stroke="#6666ff" d="M704.2,-1100.85C735.17,-1118.12 782.85,-1144.69 816.55,-1163.48"/>
<polygon fill="#6666ff" stroke="#6666ff" points="815.22,-1166.74 825.66,-1168.55 818.63,-1160.63 815.22,-1166.74"/>
</g>
<!-- Metamodel::ClassHOW&#45;&gt;Metamodel::AttributeContainer -->
<g id="edge30" class="edge">
<title>Metamodel::ClassHOW&#45;&gt;Metamodel::AttributeContainer</title>
<path fill="none" stroke="#6666ff" d="M692.74,-1065.54C738.82,-1023.21 854.12,-917.31 906.85,-868.89"/>
<polygon fill="#6666ff" stroke="#6666ff" points="909.46,-871.24 914.46,-861.9 904.73,-866.09 909.46,-871.24"/>
</g>
<!-- Metamodel::ClassHOW&#45;&gt;Metamodel::MultiMethodContainer -->
<g id="edge34" class="edge">
<title>Metamodel::ClassHOW&#45;&gt;Metamodel::MultiMethodContainer</title>
<path fill="none" stroke="#6666ff" d="M675.14,-1065.37C683.38,-990.81 714.17,-712.14 714.17,-712.14 714.17,-712.14 828.05,-629.1 885.79,-587"/>
<polygon fill="#6666ff" stroke="#6666ff" points="887.86,-589.82 893.88,-581.1 883.74,-584.16 887.86,-589.82"/>
</g>
<!-- Metamodel::ClassHOW&#45;&gt;Metamodel::RoleContainer -->
<g id="edge35" class="edge">
<title>Metamodel::ClassHOW&#45;&gt;Metamodel::RoleContainer</title>
<path fill="none" stroke="#6666ff" d="M682.85,-1065.53C712.9,-1009.79 802.35,-843.89 802.35,-843.89 802.35,-843.89 974.21,-747.81 1054.2,-703.1"/>
<polygon fill="#6666ff" stroke="#6666ff" points="1056,-706.1 1063.02,-698.17 1052.58,-699.99 1056,-706.1"/>
</g>
<!-- Metamodel::ClassHOW&#45;&gt;Metamodel::MROBasedMethodDispatch -->
<g id="edge39" class="edge">
<title>Metamodel::ClassHOW&#45;&gt;Metamodel::MROBasedMethodDispatch</title>
<path fill="none" stroke="#6666ff" d="M659.55,-1065.59C603.5,-991.51 390.01,-709.39 323.59,-621.62"/>
<polygon fill="#6666ff" stroke="#6666ff" points="326.28,-619.38 317.46,-613.52 320.7,-623.6 326.28,-619.38"/>
</g>
<!-- Metamodel::ClassHOW&#45;&gt;Metamodel::MROBasedTypeChecking -->
<g id="edge40" class="edge">
<title>Metamodel::ClassHOW&#45;&gt;Metamodel::MROBasedTypeChecking</title>
<path fill="none" stroke="#6666ff" d="M655.42,-1065.58C612.7,-1022.28 507.56,-915.7 507.56,-915.7 507.56,-915.7 332.3,-808.06 253.37,-759.58"/>
<polygon fill="#6666ff" stroke="#6666ff" points="255.05,-756.5 244.69,-754.25 251.38,-762.47 255.05,-756.5"/>
</g>
<!-- Metamodel::ClassHOW&#45;&gt;Metamodel::BUILDPLAN -->
<g id="edge42" class="edge">
<title>Metamodel::ClassHOW&#45;&gt;Metamodel::BUILDPLAN</title>
<path fill="none" stroke="#6666ff" d="M618.1,-1068.22C513.84,-1039.21 287.94,-976.36 175.77,-945.15"/>
<polygon fill="#6666ff" stroke="#6666ff" points="176.51,-941.72 165.94,-942.41 174.63,-948.46 176.51,-941.72"/>
</g>
<!-- Metamodel::ClassHOW&#45;&gt;Metamodel::BoolificationProtocol -->
<g id="edge44" class="edge">
<title>Metamodel::ClassHOW&#45;&gt;Metamodel::BoolificationProtocol</title>
<path fill="none" stroke="#6666ff" d="M641.8,-1066.35C586.12,-1035.81 469.97,-972.1 407.96,-938.09"/>
<polygon fill="#6666ff" stroke="#6666ff" points="409.31,-934.83 398.86,-933.09 405.94,-940.97 409.31,-934.83"/>
</g>
<!-- Metamodel::ClassHOW&#45;&gt;Metamodel::Mixins -->
<g id="edge43" class="edge">
<title>Metamodel::ClassHOW&#45;&gt;Metamodel::Mixins</title>
<path fill="none" stroke="#6666ff" d="M572.17,-1087.47C503.07,-1090.16 412.1,-1093.7 344.53,-1096.33"/>
<polygon fill="#6666ff" stroke="#6666ff" points="344.17,-1092.84 334.31,-1096.73 344.44,-1099.84 344.17,-1092.84"/>
</g>
<!-- Metamodel::ClassHOW&#45;&gt;Metamodel::Versioning -->
<g id="edge28" class="edge">
<title>Metamodel::ClassHOW&#45;&gt;Metamodel::Versioning</title>
<path fill="none" stroke="#6666ff" d="M738.13,-1097.58C834.51,-1118.39 1014.83,-1157.34 1116.25,-1179.25"/>
<polygon fill="#6666ff" stroke="#6666ff" points="1115.6,-1182.69 1126.11,-1181.38 1117.08,-1175.85 1115.6,-1182.69"/>
</g>
<!-- Metamodel::ClassHOW&#45;&gt;Metamodel::PrivateMethodContainer -->
<g id="edge33" class="edge">
<title>Metamodel::ClassHOW&#45;&gt;Metamodel::PrivateMethodContainer</title>
<path fill="none" stroke="#6666ff" d="M721.4,-1099.54C834.87,-1137.17 1118.41,-1231.19 1243.73,-1272.75"/>
<polygon fill="#6666ff" stroke="#6666ff" points="1242.96,-1276.18 1253.56,-1276.01 1245.17,-1269.54 1242.96,-1276.18"/>
</g>
<!-- Metamodel::ClassHOW&#45;&gt;Metamodel::MultipleInheritance -->
<g id="edge36" class="edge">
<title>Metamodel::ClassHOW&#45;&gt;Metamodel::MultipleInheritance</title>
<path fill="none" stroke="#6666ff" d="M719.14,-1099.73C791.55,-1125.22 923.94,-1171.83 923.94,-1171.83 923.94,-1171.83 951.46,-1185.72 951.46,-1185.72 951.46,-1185.72 1073.15,-1281.86 1131.68,-1328.1"/>
<polygon fill="#6666ff" stroke="#6666ff" points="1129.82,-1331.09 1139.84,-1334.55 1134.16,-1325.6 1129.82,-1331.09"/>
</g>
<!-- Metamodel::ClassHOW&#45;&gt;Metamodel::Documenting -->
<g id="edge27" class="edge">
<title>Metamodel::ClassHOW&#45;&gt;Metamodel::Documenting</title>
<path fill="none" stroke="#6666ff" d="M688.6,-1101.58C746.09,-1168.69 947.79,-1404.12 1015.75,-1483.45"/>
<polygon fill="#6666ff" stroke="#6666ff" points="1013.47,-1486.16 1022.63,-1491.48 1018.78,-1481.61 1013.47,-1486.16"/>
</g>
<!-- Metamodel::ClassHOW&#45;&gt;Metamodel::Finalization -->
<g id="edge31" class="edge">
<title>Metamodel::ClassHOW&#45;&gt;Metamodel::Finalization</title>
<path fill="none" stroke="#6666ff" d="M660.43,-1101.42C612.7,-1168.6 443.97,-1406.05 387.18,-1485.98"/>
<polygon fill="#6666ff" stroke="#6666ff" points="384.06,-1484.32 381.12,-1494.5 389.77,-1488.38 384.06,-1484.32"/>
</g>
<!-- Metamodel::ClassHOW&#45;&gt;Metamodel::DefaultParent -->
<g id="edge37" class="edge">
<title>Metamodel::ClassHOW&#45;&gt;Metamodel::DefaultParent</title>
<path fill="none" stroke="#6666ff" d="M646.51,-1101.02C569,-1151.92 343.49,-1300.02 255.85,-1357.57"/>
<polygon fill="#6666ff" stroke="#6666ff" points="253.76,-1354.75 247.32,-1363.17 257.6,-1360.61 253.76,-1354.75"/>
</g>
<!-- Metamodel::ClassHOW&#45;&gt;Metamodel::C3MRO -->
<g id="edge38" class="edge">
<title>Metamodel::ClassHOW&#45;&gt;Metamodel::C3MRO</title>
<path fill="none" stroke="#6666ff" d="M668.24,-1101.54C647.18,-1178.99 564.16,-1484.23 538.52,-1578.5"/>
<polygon fill="#6666ff" stroke="#6666ff" points="535.13,-1577.62 535.88,-1588.19 541.88,-1579.45 535.13,-1577.62"/>
</g>
<!-- Metamodel::ClassHOW&#45;&gt;Metamodel::Trusting -->
<g id="edge41" class="edge">
<title>Metamodel::ClassHOW&#45;&gt;Metamodel::Trusting</title>
<path fill="none" stroke="#6666ff" d="M674.49,-1101.7C680.68,-1184.78 706.31,-1528.9 713.86,-1630.34"/>
<polygon fill="#6666ff" stroke="#6666ff" points="710.38,-1630.73 714.61,-1640.44 717.36,-1630.21 710.38,-1630.73"/>
</g>
<!-- Metamodel::TypePretense -->
<g id="node26" class="node">
<title>Metamodel::TypePretense</title>
<g id="a_node26"><a xlink:href="/type/Metamodel::TypePretense" xlink:title="Metamodel::TypePretense">
<ellipse fill="none" stroke="#6666ff" cx="1825.45" cy="-701.05" rx="114.28" ry="18"/>
<text text-anchor="middle" x="1825.45" y="-697.35" font-family="FreeSans" font-size="14.00" fill="#6666ff">Metamodel::TypePretense</text>
</a>
</g>
</g>
<!-- Metamodel::RolePunning -->
<g id="node27" class="node">
<title>Metamodel::RolePunning</title>
<g id="a_node27"><a xlink:href="/type/Metamodel::RolePunning" xlink:title="Metamodel::RolePunning">
<ellipse fill="none" stroke="#6666ff" cx="1853.56" cy="-1100.75" rx="109.68" ry="18"/>
<text text-anchor="middle" x="1853.56" y="-1097.05" font-family="FreeSans" font-size="14.00" fill="#6666ff">Metamodel::RolePunning</text>
</a>
</g>
</g>
<!-- Metamodel::ParametricRoleHOW -->
<g id="node28" class="node">
<title>Metamodel::ParametricRoleHOW</title>
<g id="a_node28"><a xlink:href="/type/Metamodel::ParametricRoleHOW" xlink:title="Metamodel::ParametricRoleHOW">
<ellipse fill="none" stroke="#000000" cx="1358.51" cy="-934.36" rx="141.88" ry="18"/>
<text text-anchor="middle" x="1358.51" y="-930.66" font-family="FreeSans" font-size="14.00" fill="#000000">Metamodel::ParametricRoleHOW</text>
</a>
</g>
</g>
<!-- Metamodel::ParametricRoleHOW&#45;&gt;Metamodel::MethodContainer -->
<g id="edge48" class="edge">
<title>Metamodel::ParametricRoleHOW&#45;&gt;Metamodel::MethodContainer</title>
<path fill="none" stroke="#6666ff" d="M1318.07,-916.93C1224.63,-876.66 993.98,-777.24 892.47,-733.48"/>
<polygon fill="#6666ff" stroke="#6666ff" points="893.62,-730.17 883.05,-729.43 890.85,-736.6 893.62,-730.17"/>
</g>
<!-- Metamodel::ParametricRoleHOW&#45;&gt;Any -->
<g id="edge5" class="edge">
<title>Metamodel::ParametricRoleHOW&#45;&gt;Any</title>
<path fill="none" stroke="#000000" d="M1344.09,-916.15C1309.76,-872.82 1226.06,-767.18 1226.06,-767.18 1226.06,-767.18 1211.55,-680.81 1211.55,-680.81 1211.55,-680.81 1112.81,-570.17 1068.78,-520.84"/>
<polygon fill="#000000" stroke="#000000" points="1071.23,-518.33 1061.96,-513.2 1066.01,-522.99 1071.23,-518.33"/>
</g>
<!-- Metamodel::ParametricRoleHOW&#45;&gt;Metamodel::Naming -->
<g id="edge45" class="edge">
<title>Metamodel::ParametricRoleHOW&#45;&gt;Metamodel::Naming</title>
<path fill="none" stroke="#6666ff" d="M1250.57,-946.03C1194.61,-952.08 1127.08,-959.38 1074.05,-965.11"/>
<polygon fill="#6666ff" stroke="#6666ff" points="1073.55,-961.65 1063.98,-966.2 1074.3,-968.6 1073.55,-961.65"/>
</g>
<!-- Metamodel::ParametricRoleHOW&#45;&gt;Metamodel::Stashing -->
<g id="edge54" class="edge">
<title>Metamodel::ParametricRoleHOW&#45;&gt;Metamodel::Stashing</title>
<path fill="none" stroke="#6666ff" d="M1323.59,-951.83C1234.05,-996.63 996.47,-1115.48 898.96,-1164.26"/>
<polygon fill="#6666ff" stroke="#6666ff" points="897.34,-1161.15 889.97,-1168.76 900.47,-1167.41 897.34,-1161.15"/>
</g>
<!-- Metamodel::ParametricRoleHOW&#45;&gt;Metamodel::AttributeContainer -->
<g id="edge51" class="edge">
<title>Metamodel::ParametricRoleHOW&#45;&gt;Metamodel::AttributeContainer</title>
<path fill="none" stroke="#6666ff" d="M1285.52,-918.83C1210.15,-902.79 1092.83,-877.83 1014.71,-861.2"/>
<polygon fill="#6666ff" stroke="#6666ff" points="1015.42,-857.78 1004.91,-859.12 1013.96,-864.62 1015.42,-857.78"/>
</g>
<!-- Metamodel::ParametricRoleHOW&#45;&gt;Metamodel::MultiMethodContainer -->
<g id="edge50" class="edge">
<title>Metamodel::ParametricRoleHOW&#45;&gt;Metamodel::MultiMethodContainer</title>
<path fill="none" stroke="#6666ff" d="M1331.68,-916.52C1244.84,-858.76 976.97,-680.61 976.97,-680.61 976.97,-680.61 949.36,-625.1 932.1,-590.4"/>
<polygon fill="#6666ff" stroke="#6666ff" points="935.12,-588.62 927.53,-581.22 928.85,-591.73 935.12,-588.62"/>
</g>
<!-- Metamodel::ParametricRoleHOW&#45;&gt;Metamodel::RoleContainer -->
<g id="edge52" class="edge">
<title>Metamodel::ParametricRoleHOW&#45;&gt;Metamodel::RoleContainer</title>
<path fill="none" stroke="#6666ff" d="M1339.51,-916.12C1293.04,-871.51 1173.58,-756.85 1120.44,-705.83"/>
<polygon fill="#6666ff" stroke="#6666ff" points="1122.73,-703.18 1113.09,-698.78 1117.88,-708.23 1122.73,-703.18"/>
</g>
<!-- Metamodel::ParametricRoleHOW&#45;&gt;Metamodel::Versioning -->
<g id="edge47" class="edge">
<title>Metamodel::ParametricRoleHOW&#45;&gt;Metamodel::Versioning</title>
<path fill="none" stroke="#6666ff" d="M1346.69,-952.71C1317.45,-998.11 1241.62,-1115.83 1207.5,-1168.78"/>
<polygon fill="#6666ff" stroke="#6666ff" points="1204.49,-1166.99 1202.02,-1177.29 1210.37,-1170.78 1204.49,-1166.99"/>
</g>
<!-- Metamodel::ParametricRoleHOW&#45;&gt;Metamodel::PrivateMethodContainer -->
<g id="edge49" class="edge">
<title>Metamodel::ParametricRoleHOW&#45;&gt;Metamodel::PrivateMethodContainer</title>
<path fill="none" stroke="#6666ff" d="M1355.78,-952.64C1347.04,-1011.17 1319.7,-1194.21 1309.15,-1264.84"/>
<polygon fill="#6666ff" stroke="#6666ff" points="1305.68,-1264.39 1307.66,-1274.8 1312.6,-1265.43 1305.68,-1264.39"/>
</g>
<!-- Metamodel::ParametricRoleHOW&#45;&gt;Metamodel::MultipleInheritance -->
<g id="edge53" class="edge">
<title>Metamodel::ParametricRoleHOW&#45;&gt;Metamodel::MultipleInheritance</title>
<path fill="none" stroke="#6666ff" d="M1353.89,-952.72C1338.93,-1012.12 1292.77,-1195.35 1292.77,-1195.35 1292.77,-1195.35 1148.65,-1292.94 1148.65,-1292.94 1148.65,-1292.94 1152.36,-1308.96 1155.93,-1324.37"/>
<polygon fill="#6666ff" stroke="#6666ff" points="1152.54,-1325.27 1158.21,-1334.23 1159.36,-1323.69 1152.54,-1325.27"/>
</g>
<!-- Metamodel::ParametricRoleHOW&#45;&gt;Metamodel::Documenting -->
<g id="edge46" class="edge">
<title>Metamodel::ParametricRoleHOW&#45;&gt;Metamodel::Documenting</title>
<path fill="none" stroke="#6666ff" d="M1339.93,-952.29C1278.83,-1011.22 1088.09,-1195.2 1088.09,-1195.2 1088.09,-1195.2 1026.93,-1352.27 1026.93,-1352.27 1026.93,-1352.27 1032.99,-1436.32 1036.27,-1481.62"/>
<polygon fill="#6666ff" stroke="#6666ff" points="1032.78,-1481.98 1036.99,-1491.7 1039.76,-1481.47 1032.78,-1481.98"/>
</g>
<!-- Metamodel::ParametricRoleHOW&#45;&gt;Metamodel::TypePretense -->
<g id="edge55" class="edge">
<title>Metamodel::ParametricRoleHOW&#45;&gt;Metamodel::TypePretense</title>
<path fill="none" stroke="#6666ff" d="M1393.61,-916.83C1477.58,-874.87 1689.89,-768.79 1781.86,-722.83"/>
<polygon fill="#6666ff" stroke="#6666ff" points="1783.52,-725.92 1790.9,-718.32 1780.39,-719.65 1783.52,-725.92"/>
</g>
<!-- Metamodel::ParametricRoleHOW&#45;&gt;Metamodel::RolePunning -->
<g id="edge56" class="edge">
<title>Metamodel::ParametricRoleHOW&#45;&gt;Metamodel::RolePunning</title>
<path fill="none" stroke="#6666ff" d="M1408.71,-951.23C1501.03,-982.26 1697.3,-1048.23 1795.33,-1081.17"/>
<polygon fill="#6666ff" stroke="#6666ff" points="1794.47,-1084.58 1805.07,-1084.45 1796.7,-1077.95 1794.47,-1084.58"/>
</g>
</g>
</svg>
