<?xml version="1.0" encoding="UTF-8" standalone="no"?>
<!DOCTYPE svg PUBLIC "-//W3C//DTD SVG 1.1//EN"
 "http://www.w3.org/Graphics/SVG/1.1/DTD/svg11.dtd">
<!-- Generated by graphviz version 2.43.0 (0)
 -->
<!-- Title: perl6&#45;type&#45;graph Pages: 1 -->
<svg width="1479pt" height="1609pt"
 viewBox="0.00 0.00 1478.71 1608.55" xmlns="http://www.w3.org/2000/svg" xmlns:xlink="http://www.w3.org/1999/xlink">
<g id="graph0" class="graph" transform="scale(1 1) rotate(0) translate(4 1604.55)">
<title>perl6&#45;type&#45;graph</title>
<polygon fill="white" stroke="transparent" points="-4,4 -4,-1604.55 1474.71,-1604.55 1474.71,4 -4,4"/>
<!-- Metamodel::ClassHOW -->
<g id="node1" class="node">
<title>Metamodel::ClassHOW</title>
<g id="a_node1"><a xlink:href="/type/Metamodel::ClassHOW" xlink:title="Metamodel::ClassHOW">
<ellipse fill="none" stroke="#000000" cx="738.82" cy="-981.1" rx="103.18" ry="18"/>
<text text-anchor="middle" x="738.82" y="-977.4" font-family="FreeSans" font-size="14.00" fill="#000000">Metamodel::ClassHOW</text>
</a>
</g>
</g>
<!-- Any -->
<g id="node3" class="node">
<title>Any</title>
<g id="a_node3"><a xlink:href="/type/Any" xlink:title="Any">
<ellipse fill="none" stroke="#000000" cx="1043.14" cy="-416.01" rx="27" ry="18"/>
<text text-anchor="middle" x="1043.14" y="-412.31" font-family="FreeSans" font-size="14.00" fill="#000000">Any</text>
</a>
</g>
</g>
<!-- Metamodel::ClassHOW&#45;&gt;Any -->
<g id="edge1" class="edge">
<title>Metamodel::ClassHOW&#45;&gt;Any</title>
<path fill="none" stroke="#000000" d="M748.02,-962.98C778.27,-903.43 872.69,-717.51 872.69,-717.51 872.69,-717.51 986.94,-515.42 1028.36,-442.14"/>
<polygon fill="#000000" stroke="#000000" points="1031.61,-443.51 1033.48,-433.08 1025.52,-440.07 1031.61,-443.51"/>
</g>
<!-- Metamodel::Naming -->
<g id="node4" class="node">
<title>Metamodel::Naming</title>
<g id="a_node4"><a xlink:href="/type/Metamodel::Naming" xlink:title="Metamodel::Naming">
<ellipse fill="none" stroke="#6666ff" cx="599.61" cy="-1538.36" rx="90.18" ry="18"/>
<text text-anchor="middle" x="599.61" y="-1534.66" font-family="FreeSans" font-size="14.00" fill="#6666ff">Metamodel::Naming</text>
</a>
</g>
</g>
<!-- Metamodel::ClassHOW&#45;&gt;Metamodel::Naming -->
<g id="edge4" class="edge">
<title>Metamodel::ClassHOW&#45;&gt;Metamodel::Naming</title>
<path fill="none" stroke="#6666ff" d="M734.27,-999.33C713.92,-1080.77 631.25,-1411.71 606.59,-1510.43"/>
<polygon fill="#6666ff" stroke="#6666ff" points="603.15,-1509.72 604.13,-1520.27 609.95,-1511.42 603.15,-1509.72"/>
</g>
<!-- Metamodel::Documenting -->
<g id="node5" class="node">
<title>Metamodel::Documenting</title>
<g id="a_node5"><a xlink:href="/type/Metamodel::Documenting" xlink:title="Metamodel::Documenting">
<ellipse fill="none" stroke="#6666ff" cx="1120.17" cy="-1115.43" rx="111.28" ry="18"/>
<text text-anchor="middle" x="1120.17" y="-1111.73" font-family="FreeSans" font-size="14.00" fill="#6666ff">Metamodel::Documenting</text>
</a>
</g>
</g>
<!-- Metamodel::ClassHOW&#45;&gt;Metamodel::Documenting -->
<g id="edge5" class="edge">
<title>Metamodel::ClassHOW&#45;&gt;Metamodel::Documenting</title>
<path fill="none" stroke="#6666ff" d="M784.82,-997.31C854.87,-1021.98 988.13,-1068.92 1063.86,-1095.6"/>
<polygon fill="#6666ff" stroke="#6666ff" points="1063.11,-1099.05 1073.71,-1099.07 1065.44,-1092.44 1063.11,-1099.05"/>
</g>
<!-- Metamodel::Versioning -->
<g id="node6" class="node">
<title>Metamodel::Versioning</title>
<g id="a_node6"><a xlink:href="/type/Metamodel::Versioning" xlink:title="Metamodel::Versioning">
<ellipse fill="none" stroke="#6666ff" cx="448.05" cy="-1188.61" rx="100.98" ry="18"/>
<text text-anchor="middle" x="448.05" y="-1184.91" font-family="FreeSans" font-size="14.00" fill="#6666ff">Metamodel::Versioning</text>
</a>
</g>
</g>
<!-- Metamodel::ClassHOW&#45;&gt;Metamodel::Versioning -->
<g id="edge6" class="edge">
<title>Metamodel::ClassHOW&#45;&gt;Metamodel::Versioning</title>
<path fill="none" stroke="#6666ff" d="M714.03,-998.79C661.67,-1036.16 539.81,-1123.13 480.99,-1165.1"/>
<polygon fill="#6666ff" stroke="#6666ff" points="478.89,-1162.3 472.78,-1170.96 482.95,-1168 478.89,-1162.3"/>
</g>
<!-- Metamodel::Stashing -->
<g id="node7" class="node">
<title>Metamodel::Stashing</title>
<g id="a_node7"><a xlink:href="/type/Metamodel::Stashing" xlink:title="Metamodel::Stashing">
<ellipse fill="none" stroke="#6666ff" cx="260.5" cy="-598.77" rx="93.68" ry="18"/>
<text text-anchor="middle" x="260.5" y="-595.07" font-family="FreeSans" font-size="14.00" fill="#6666ff">Metamodel::Stashing</text>
</a>
</g>
</g>
<!-- Metamodel::ClassHOW&#45;&gt;Metamodel::Stashing -->
<g id="edge7" class="edge">
<title>Metamodel::ClassHOW&#45;&gt;Metamodel::Stashing</title>
<path fill="none" stroke="#6666ff" d="M717.26,-963.43C660.97,-917.3 513.93,-796.8 513.93,-796.8 513.93,-796.8 358.59,-675.41 291.14,-622.72"/>
<polygon fill="#6666ff" stroke="#6666ff" points="293.02,-619.74 282.99,-616.34 288.71,-625.26 293.02,-619.74"/>
</g>
<!-- Metamodel::AttributeContainer -->
<g id="node8" class="node">
<title>Metamodel::AttributeContainer</title>
<g id="a_node8"><a xlink:href="/type/Metamodel::AttributeContainer" xlink:title="Metamodel::AttributeContainer">
<ellipse fill="none" stroke="#6666ff" cx="1301.74" cy="-849.84" rx="129.98" ry="18"/>
<text text-anchor="middle" x="1301.74" y="-846.14" font-family="FreeSans" font-size="14.00" fill="#6666ff">Metamodel::AttributeContainer</text>
</a>
</g>
</g>
<!-- Metamodel::ClassHOW&#45;&gt;Metamodel::AttributeContainer -->
<g id="edge8" class="edge">
<title>Metamodel::ClassHOW&#45;&gt;Metamodel::AttributeContainer</title>
<path fill="none" stroke="#6666ff" d="M800.67,-966.68C904.22,-942.53 1112.37,-894 1225.06,-867.72"/>
<polygon fill="#6666ff" stroke="#6666ff" points="1226.05,-871.08 1235,-865.4 1224.46,-864.26 1226.05,-871.08"/>
</g>
<!-- Metamodel::Finalization -->
<g id="node9" class="node">
<title>Metamodel::Finalization</title>
<g id="a_node9"><a xlink:href="/type/Metamodel::Finalization" xlink:title="Metamodel::Finalization">
<ellipse fill="none" stroke="#6666ff" cx="453.2" cy="-505.6" rx="103.98" ry="18"/>
<text text-anchor="middle" x="453.2" y="-501.9" font-family="FreeSans" font-size="14.00" fill="#6666ff">Metamodel::Finalization</text>
</a>
</g>
</g>
<!-- Metamodel::ClassHOW&#45;&gt;Metamodel::Finalization -->
<g id="edge9" class="edge">
<title>Metamodel::ClassHOW&#45;&gt;Metamodel::Finalization</title>
<path fill="none" stroke="#6666ff" d="M727.97,-963.04C684.32,-890.37 521.36,-619.07 469.3,-532.4"/>
<polygon fill="#6666ff" stroke="#6666ff" points="472.21,-530.45 464.06,-523.68 466.21,-534.05 472.21,-530.45"/>
</g>
<!-- Metamodel::MethodContainer -->
<g id="node10" class="node">
<title>Metamodel::MethodContainer</title>
<g id="a_node10"><a xlink:href="/type/Metamodel::MethodContainer" xlink:title="Metamodel::MethodContainer">
<ellipse fill="none" stroke="#6666ff" cx="780.78" cy="-506.39" rx="127.28" ry="18"/>
<text text-anchor="middle" x="780.78" y="-502.69" font-family="FreeSans" font-size="14.00" fill="#6666ff">Metamodel::MethodContainer</text>
</a>
</g>
</g>
<!-- Metamodel::ClassHOW&#45;&gt;Metamodel::MethodContainer -->
<g id="edge10" class="edge">
<title>Metamodel::ClassHOW&#45;&gt;Metamodel::MethodContainer</title>
<path fill="none" stroke="#6666ff" d="M740.42,-963.07C746.8,-890.89 770.53,-622.41 778.3,-534.47"/>
<polygon fill="#6666ff" stroke="#6666ff" points="781.79,-534.71 779.19,-524.44 774.82,-534.09 781.79,-534.71"/>
</g>
<!-- Metamodel::PrivateMethodContainer -->
<g id="node11" class="node">
<title>Metamodel::PrivateMethodContainer</title>
<g id="a_node11"><a xlink:href="/type/Metamodel::PrivateMethodContainer" xlink:title="Metamodel::PrivateMethodContainer">
<ellipse fill="none" stroke="#6666ff" cx="621.24" cy="-394.15" rx="154.87" ry="18"/>
<text text-anchor="middle" x="621.24" y="-390.45" font-family="FreeSans" font-size="14.00" fill="#6666ff">Metamodel::PrivateMethodContainer</text>
</a>
</g>
</g>
<!-- Metamodel::ClassHOW&#45;&gt;Metamodel::PrivateMethodContainer -->
<g id="edge11" class="edge">
<title>Metamodel::ClassHOW&#45;&gt;Metamodel::PrivateMethodContainer</title>
<path fill="none" stroke="#6666ff" d="M735.17,-962.89C718.25,-878.42 647.36,-524.52 626.83,-422.05"/>
<polygon fill="#6666ff" stroke="#6666ff" points="630.24,-421.26 624.85,-412.14 623.38,-422.64 630.24,-421.26"/>
</g>
<!-- Metamodel::MultiMethodContainer -->
<g id="node12" class="node">
<title>Metamodel::MultiMethodContainer</title>
<g id="a_node12"><a xlink:href="/type/Metamodel::MultiMethodContainer" xlink:title="Metamodel::MultiMethodContainer">
<ellipse fill="none" stroke="#6666ff" cx="146.24" cy="-862.1" rx="146.47" ry="18"/>
<text text-anchor="middle" x="146.24" y="-858.4" font-family="FreeSans" font-size="14.00" fill="#6666ff">Metamodel::MultiMethodContainer</text>
</a>
</g>
</g>
<!-- Metamodel::ClassHOW&#45;&gt;Metamodel::MultiMethodContainer -->
<g id="edge12" class="edge">
<title>Metamodel::ClassHOW&#45;&gt;Metamodel::MultiMethodContainer</title>
<path fill="none" stroke="#6666ff" d="M670.84,-967.45C562.73,-945.74 351.7,-903.36 232.89,-879.5"/>
<polygon fill="#6666ff" stroke="#6666ff" points="233.23,-876 222.74,-877.46 231.85,-882.86 233.23,-876"/>
</g>
<!-- Metamodel::RoleContainer -->
<g id="node13" class="node">
<title>Metamodel::RoleContainer</title>
<g id="a_node13"><a xlink:href="/type/Metamodel::RoleContainer" xlink:title="Metamodel::RoleContainer">
<ellipse fill="none" stroke="#6666ff" cx="1355.02" cy="-1072.65" rx="115.88" ry="18"/>
<text text-anchor="middle" x="1355.02" y="-1068.95" font-family="FreeSans" font-size="14.00" fill="#6666ff">Metamodel::RoleContainer</text>
</a>
</g>
</g>
<!-- Metamodel::ClassHOW&#45;&gt;Metamodel::RoleContainer -->
<g id="edge13" class="edge">
<title>Metamodel::ClassHOW&#45;&gt;Metamodel::RoleContainer</title>
<path fill="none" stroke="#6666ff" d="M817.49,-992.79C930.78,-1009.62 1139.56,-1040.64 1260.89,-1058.67"/>
<polygon fill="#6666ff" stroke="#6666ff" points="1260.5,-1062.15 1270.91,-1060.16 1261.53,-1055.23 1260.5,-1062.15"/>
</g>
<!-- Metamodel::MultipleInheritance -->
<g id="node14" class="node">
<title>Metamodel::MultipleInheritance</title>
<g id="a_node14"><a xlink:href="/type/Metamodel::MultipleInheritance" xlink:title="Metamodel::MultipleInheritance">
<ellipse fill="none" stroke="#6666ff" cx="1235.82" cy="-1331.67" rx="133.78" ry="18"/>
<text text-anchor="middle" x="1235.82" y="-1327.97" font-family="FreeSans" font-size="14.00" fill="#6666ff">Metamodel::MultipleInheritance</text>
</a>
</g>
</g>
<!-- Metamodel::ClassHOW&#45;&gt;Metamodel::MultipleInheritance -->
<g id="edge14" class="edge">
<title>Metamodel::ClassHOW&#45;&gt;Metamodel::MultipleInheritance</title>
<path fill="none" stroke="#6666ff" d="M763.81,-998.73C846.08,-1056.76 1108.57,-1241.91 1202.22,-1307.97"/>
<polygon fill="#6666ff" stroke="#6666ff" points="1200.3,-1310.9 1210.49,-1313.8 1204.34,-1305.18 1200.3,-1310.9"/>
</g>
<!-- Metamodel::DefaultParent -->
<g id="node15" class="node">
<title>Metamodel::DefaultParent</title>
<g id="a_node15"><a xlink:href="/type/Metamodel::DefaultParent" xlink:title="Metamodel::DefaultParent">
<ellipse fill="none" stroke="#6666ff" cx="806.06" cy="-1582.55" rx="113.18" ry="18"/>
<text text-anchor="middle" x="806.06" y="-1578.85" font-family="FreeSans" font-size="14.00" fill="#6666ff">Metamodel::DefaultParent</text>
</a>
</g>
</g>
<!-- Metamodel::ClassHOW&#45;&gt;Metamodel::DefaultParent -->
<g id="edge15" class="edge">
<title>Metamodel::ClassHOW&#45;&gt;Metamodel::DefaultParent</title>
<path fill="none" stroke="#6666ff" d="M740.85,-999.26C749.09,-1073.13 779.66,-1347.21 779.66,-1347.21 779.66,-1347.21 795.92,-1492.11 802.92,-1554.51"/>
<polygon fill="#6666ff" stroke="#6666ff" points="799.44,-1554.93 804.03,-1564.47 806.4,-1554.14 799.44,-1554.93"/>
</g>
<!-- Metamodel::C3MRO -->
<g id="node16" class="node">
<title>Metamodel::C3MRO</title>
<g id="a_node16"><a xlink:href="/type/Metamodel::C3MRO" xlink:title="Metamodel::C3MRO">
<ellipse fill="none" stroke="#6666ff" cx="966.58" cy="-717.64" rx="92.08" ry="18"/>
<text text-anchor="middle" x="966.58" y="-713.94" font-family="FreeSans" font-size="14.00" fill="#6666ff">Metamodel::C3MRO</text>
</a>
</g>
</g>
<!-- Metamodel::ClassHOW&#45;&gt;Metamodel::C3MRO -->
<g id="edge16" class="edge">
<title>Metamodel::ClassHOW&#45;&gt;Metamodel::C3MRO</title>
<path fill="none" stroke="#6666ff" d="M754.48,-962.99C794.15,-917.1 898.72,-796.14 944.54,-743.13"/>
<polygon fill="#6666ff" stroke="#6666ff" points="947.22,-745.38 951.12,-735.53 941.93,-740.8 947.22,-745.38"/>
</g>
<!-- Metamodel::MROBasedMethodDispatch -->
<g id="node17" class="node">
<title>Metamodel::MROBasedMethodDispatch</title>
<g id="a_node17"><a xlink:href="/type/Metamodel::MROBasedMethodDispatch" xlink:title="Metamodel::MROBasedMethodDispatch">
<ellipse fill="none" stroke="#6666ff" cx="1196.31" cy="-658.47" rx="169.77" ry="18"/>
<text text-anchor="middle" x="1196.31" y="-654.77" font-family="FreeSans" font-size="14.00" fill="#6666ff">Metamodel::MROBasedMethodDispatch</text>
</a>
</g>
</g>
<!-- Metamodel::ClassHOW&#45;&gt;Metamodel::MROBasedMethodDispatch -->
<g id="edge17" class="edge">
<title>Metamodel::ClassHOW&#45;&gt;Metamodel::MROBasedMethodDispatch</title>
<path fill="none" stroke="#6666ff" d="M763.74,-963.53C840.71,-909.25 1074.71,-744.23 1162.53,-682.3"/>
<polygon fill="#6666ff" stroke="#6666ff" points="1164.65,-685.08 1170.81,-676.46 1160.62,-679.36 1164.65,-685.08"/>
</g>
<!-- Metamodel::MROBasedTypeChecking -->
<g id="node18" class="node">
<title>Metamodel::MROBasedTypeChecking</title>
<g id="a_node18"><a xlink:href="/type/Metamodel::MROBasedTypeChecking" xlink:title="Metamodel::MROBasedTypeChecking">
<ellipse fill="none" stroke="#6666ff" cx="229.33" cy="-1304.08" rx="163.27" ry="18"/>
<text text-anchor="middle" x="229.33" y="-1300.38" font-family="FreeSans" font-size="14.00" fill="#6666ff">Metamodel::MROBasedTypeChecking</text>
</a>
</g>
</g>
<!-- Metamodel::ClassHOW&#45;&gt;Metamodel::MROBasedTypeChecking -->
<g id="edge18" class="edge">
<title>Metamodel::ClassHOW&#45;&gt;Metamodel::MROBasedTypeChecking</title>
<path fill="none" stroke="#6666ff" d="M706.32,-998.26C612.13,-1047.97 345.71,-1188.58 345.71,-1188.58 345.71,-1188.58 289.13,-1244.73 254.87,-1278.74"/>
<polygon fill="#6666ff" stroke="#6666ff" points="252.15,-1276.51 247.52,-1286.04 257.08,-1281.48 252.15,-1276.51"/>
</g>
<!-- Metamodel::Trusting -->
<g id="node19" class="node">
<title>Metamodel::Trusting</title>
<g id="a_node19"><a xlink:href="/type/Metamodel::Trusting" xlink:title="Metamodel::Trusting">
<ellipse fill="none" stroke="#6666ff" cx="169.35" cy="-1079.95" rx="91.78" ry="18"/>
<text text-anchor="middle" x="169.35" y="-1076.25" font-family="FreeSans" font-size="14.00" fill="#6666ff">Metamodel::Trusting</text>
</a>
</g>
</g>
<!-- Metamodel::ClassHOW&#45;&gt;Metamodel::Trusting -->
<g id="edge19" class="edge">
<title>Metamodel::ClassHOW&#45;&gt;Metamodel::Trusting</title>
<path fill="none" stroke="#6666ff" d="M665.54,-993.82C558.19,-1012.45 358.98,-1047.03 248.43,-1066.22"/>
<polygon fill="#6666ff" stroke="#6666ff" points="247.6,-1062.81 238.34,-1067.97 248.79,-1069.71 247.6,-1062.81"/>
</g>
<!-- Metamodel::BUILDPLAN -->
<g id="node20" class="node">
<title>Metamodel::BUILDPLAN</title>
<g id="a_node20"><a xlink:href="/type/Metamodel::BUILDPLAN" xlink:title="Metamodel::BUILDPLAN">
<ellipse fill="none" stroke="#6666ff" cx="408.31" cy="-1464.96" rx="109.68" ry="18"/>
<text text-anchor="middle" x="408.31" y="-1461.26" font-family="FreeSans" font-size="14.00" fill="#6666ff">Metamodel::BUILDPLAN</text>
</a>
</g>
</g>
<!-- Metamodel::ClassHOW&#45;&gt;Metamodel::BUILDPLAN -->
<g id="edge20" class="edge">
<title>Metamodel::ClassHOW&#45;&gt;Metamodel::BUILDPLAN</title>
<path fill="none" stroke="#6666ff" d="M726.47,-999.19C676.05,-1073 485.72,-1351.64 426.21,-1438.76"/>
<polygon fill="#6666ff" stroke="#6666ff" points="423.3,-1436.81 420.55,-1447.04 429.08,-1440.76 423.3,-1436.81"/>
</g>
<!-- Metamodel::Mixins -->
<g id="node21" class="node">
<title>Metamodel::Mixins</title>
<g id="a_node21"><a xlink:href="/type/Metamodel::Mixins" xlink:title="Metamodel::Mixins">
<ellipse fill="none" stroke="#6666ff" cx="866.4" cy="-1347.26" rx="85.29" ry="18"/>
<text text-anchor="middle" x="866.4" y="-1343.56" font-family="FreeSans" font-size="14.00" fill="#6666ff">Metamodel::Mixins</text>
</a>
</g>
</g>
<!-- Metamodel::ClassHOW&#45;&gt;Metamodel::Mixins -->
<g id="edge21" class="edge">
<title>Metamodel::ClassHOW&#45;&gt;Metamodel::Mixins</title>
<path fill="none" stroke="#6666ff" d="M745.15,-999.26C765.85,-1058.68 831.67,-1247.59 856.65,-1319.29"/>
<polygon fill="#6666ff" stroke="#6666ff" points="853.44,-1320.7 860.03,-1328.99 860.05,-1318.4 853.44,-1320.7"/>
</g>
<!-- Metamodel::BoolificationProtocol -->
<g id="node22" class="node">
<title>Metamodel::BoolificationProtocol</title>
<g id="a_node22"><a xlink:href="/type/Metamodel::BoolificationProtocol" xlink:title="Metamodel::BoolificationProtocol">
<ellipse fill="none" stroke="#6666ff" cx="373.25" cy="-796.66" rx="139.18" ry="18"/>
<text text-anchor="middle" x="373.25" y="-792.96" font-family="FreeSans" font-size="14.00" fill="#6666ff">Metamodel::BoolificationProtocol</text>
</a>
</g>
</g>
<!-- Metamodel::ClassHOW&#45;&gt;Metamodel::BoolificationProtocol -->
<g id="edge22" class="edge">
<title>Metamodel::ClassHOW&#45;&gt;Metamodel::BoolificationProtocol</title>
<path fill="none" stroke="#6666ff" d="M705.08,-964.08C638.64,-930.56 490.88,-856.01 417.03,-818.75"/>
<polygon fill="#6666ff" stroke="#6666ff" points="418.48,-815.56 407.97,-814.18 415.32,-821.81 418.48,-815.56"/>
</g>
<!-- Mu -->
<g id="node2" class="node">
<title>Mu</title>
<g id="a_node2"><a xlink:href="/type/Mu" xlink:title="Mu">
<ellipse fill="none" stroke="#000000" cx="1374.95" cy="-18" rx="27" ry="18"/>
<text text-anchor="middle" x="1374.95" y="-14.3" font-family="FreeSans" font-size="14.00" fill="#000000">Mu</text>
</a>
</g>
</g>
<!-- Any&#45;&gt;Mu -->
<g id="edge2" class="edge">
<title>Any&#45;&gt;Mu</title>
<path fill="none" stroke="#000000" d="M1056.55,-399.91C1108.16,-338.02 1293.97,-115.13 1355.22,-41.67"/>
<polygon fill="#000000" stroke="#000000" points="1358.01,-43.78 1361.73,-33.86 1352.64,-39.3 1358.01,-43.78"/>
</g>
<!-- Metamodel::GrammarHOW -->
<g id="node23" class="node">
<title>Metamodel::GrammarHOW</title>
<g id="a_node23"><a xlink:href="/type/Metamodel::GrammarHOW" xlink:title="Metamodel::GrammarHOW">
<ellipse fill="none" stroke="#000000" cx="1070.05" cy="-1491.85" rx="118.08" ry="18"/>
<text text-anchor="middle" x="1070.05" y="-1488.15" font-family="FreeSans" font-size="14.00" fill="#000000">Metamodel::GrammarHOW</text>
</a>
</g>
</g>
<!-- Metamodel::GrammarHOW&#45;&gt;Metamodel::ClassHOW -->
<g id="edge3" class="edge">
<title>Metamodel::GrammarHOW&#45;&gt;Metamodel::ClassHOW</title>
<path fill="none" stroke="#000000" d="M1058.26,-1473.67C1008.46,-1396.87 815.15,-1098.8 756.07,-1007.7"/>
<polygon fill="#000000" stroke="#000000" points="758.85,-1005.55 750.47,-999.06 752.97,-1009.36 758.85,-1005.55"/>
</g>
<!-- Metamodel::GrammarHOW&#45;&gt;Metamodel::DefaultParent -->
<g id="edge23" class="edge">
<title>Metamodel::GrammarHOW&#45;&gt;Metamodel::DefaultParent</title>
<path fill="none" stroke="#6666ff" d="M1021.94,-1508.38C977.28,-1523.72 910.74,-1546.58 863.35,-1562.86"/>
<polygon fill="#6666ff" stroke="#6666ff" points="862.16,-1559.57 853.84,-1566.13 864.44,-1566.19 862.16,-1559.57"/>
</g>
</g>
</svg>
