<?xml version="1.0" encoding="UTF-8" standalone="no"?>
<!DOCTYPE svg PUBLIC "-//W3C//DTD SVG 1.1//EN"
 "http://www.w3.org/Graphics/SVG/1.1/DTD/svg11.dtd">
<!-- Generated by graphviz version 2.43.0 (0)
 -->
<!-- Title: perl6&#45;type&#45;graph Pages: 1 -->
<svg width="1453pt" height="1578pt"
 viewBox="0.00 0.00 1452.69 1577.51" xmlns="http://www.w3.org/2000/svg" xmlns:xlink="http://www.w3.org/1999/xlink">
<g id="graph0" class="graph" transform="scale(1 1) rotate(0) translate(4 1573.51)">
<title>perl6&#45;type&#45;graph</title>
<polygon fill="white" stroke="transparent" points="-4,4 -4,-1573.51 1448.69,-1573.51 1448.69,4 -4,4"/>
<!-- Metamodel::Trusting -->
<g id="node1" class="node">
<title>Metamodel::Trusting</title>
<g id="a_node1"><a xlink:href="/type/Metamodel::Trusting" xlink:title="Metamodel::Trusting">
<ellipse fill="none" stroke="#6666ff" cx="321.17" cy="-783.5" rx="91.78" ry="18"/>
<text text-anchor="middle" x="321.17" y="-779.8" font-family="FreeSans" font-size="14.00" fill="#6666ff">Metamodel::Trusting</text>
</a>
</g>
</g>
<!-- Mu -->
<g id="node2" class="node">
<title>Mu</title>
<g id="a_node2"><a xlink:href="/type/Mu" xlink:title="Mu">
<ellipse fill="none" stroke="#000000" cx="1353.98" cy="-18" rx="27" ry="18"/>
<text text-anchor="middle" x="1353.98" y="-14.3" font-family="FreeSans" font-size="14.00" fill="#000000">Mu</text>
</a>
</g>
</g>
<!-- Any -->
<g id="node3" class="node">
<title>Any</title>
<g id="a_node3"><a xlink:href="/type/Any" xlink:title="Any">
<ellipse fill="none" stroke="#000000" cx="1027.74" cy="-414.78" rx="27" ry="18"/>
<text text-anchor="middle" x="1027.74" y="-411.08" font-family="FreeSans" font-size="14.00" fill="#000000">Any</text>
</a>
</g>
</g>
<!-- Any&#45;&gt;Mu -->
<g id="edge1" class="edge">
<title>Any&#45;&gt;Mu</title>
<path fill="none" stroke="#000000" d="M1040.93,-398.73C1091.66,-337.03 1274.36,-114.83 1334.57,-41.6"/>
<polygon fill="#000000" stroke="#000000" points="1337.33,-43.76 1340.98,-33.81 1331.92,-39.31 1337.33,-43.76"/>
</g>
<!-- Metamodel::Naming -->
<g id="node4" class="node">
<title>Metamodel::Naming</title>
<g id="a_node4"><a xlink:href="/type/Metamodel::Naming" xlink:title="Metamodel::Naming">
<ellipse fill="none" stroke="#6666ff" cx="662.63" cy="-1539.82" rx="90.18" ry="18"/>
<text text-anchor="middle" x="662.63" y="-1536.12" font-family="FreeSans" font-size="14.00" fill="#6666ff">Metamodel::Naming</text>
</a>
</g>
</g>
<!-- Metamodel::Documenting -->
<g id="node5" class="node">
<title>Metamodel::Documenting</title>
<g id="a_node5"><a xlink:href="/type/Metamodel::Documenting" xlink:title="Metamodel::Documenting">
<ellipse fill="none" stroke="#6666ff" cx="1173.22" cy="-1201.15" rx="111.28" ry="18"/>
<text text-anchor="middle" x="1173.22" y="-1197.45" font-family="FreeSans" font-size="14.00" fill="#6666ff">Metamodel::Documenting</text>
</a>
</g>
</g>
<!-- Metamodel::Versioning -->
<g id="node6" class="node">
<title>Metamodel::Versioning</title>
<g id="a_node6"><a xlink:href="/type/Metamodel::Versioning" xlink:title="Metamodel::Versioning">
<ellipse fill="none" stroke="#6666ff" cx="484.26" cy="-1220.33" rx="100.98" ry="18"/>
<text text-anchor="middle" x="484.26" y="-1216.63" font-family="FreeSans" font-size="14.00" fill="#6666ff">Metamodel::Versioning</text>
</a>
</g>
</g>
<!-- Metamodel::Stashing -->
<g id="node7" class="node">
<title>Metamodel::Stashing</title>
<g id="a_node7"><a xlink:href="/type/Metamodel::Stashing" xlink:title="Metamodel::Stashing">
<ellipse fill="none" stroke="#6666ff" cx="276.62" cy="-572.49" rx="93.68" ry="18"/>
<text text-anchor="middle" x="276.62" y="-568.79" font-family="FreeSans" font-size="14.00" fill="#6666ff">Metamodel::Stashing</text>
</a>
</g>
</g>
<!-- Metamodel::AttributeContainer -->
<g id="node8" class="node">
<title>Metamodel::AttributeContainer</title>
<g id="a_node8"><a xlink:href="/type/Metamodel::AttributeContainer" xlink:title="Metamodel::AttributeContainer">
<ellipse fill="none" stroke="#6666ff" cx="1305.33" cy="-860.97" rx="129.98" ry="18"/>
<text text-anchor="middle" x="1305.33" y="-857.27" font-family="FreeSans" font-size="14.00" fill="#6666ff">Metamodel::AttributeContainer</text>
</a>
</g>
</g>
<!-- Metamodel::Finalization -->
<g id="node9" class="node">
<title>Metamodel::Finalization</title>
<g id="a_node9"><a xlink:href="/type/Metamodel::Finalization" xlink:title="Metamodel::Finalization">
<ellipse fill="none" stroke="#6666ff" cx="482.23" cy="-531.14" rx="103.98" ry="18"/>
<text text-anchor="middle" x="482.23" y="-527.44" font-family="FreeSans" font-size="14.00" fill="#6666ff">Metamodel::Finalization</text>
</a>
</g>
</g>
<!-- Metamodel::MethodContainer -->
<g id="node10" class="node">
<title>Metamodel::MethodContainer</title>
<g id="a_node10"><a xlink:href="/type/Metamodel::MethodContainer" xlink:title="Metamodel::MethodContainer">
<ellipse fill="none" stroke="#6666ff" cx="786.76" cy="-539.64" rx="127.28" ry="18"/>
<text text-anchor="middle" x="786.76" y="-535.94" font-family="FreeSans" font-size="14.00" fill="#6666ff">Metamodel::MethodContainer</text>
</a>
</g>
</g>
<!-- Metamodel::PrivateMethodContainer -->
<g id="node11" class="node">
<title>Metamodel::PrivateMethodContainer</title>
<g id="a_node11"><a xlink:href="/type/Metamodel::PrivateMethodContainer" xlink:title="Metamodel::PrivateMethodContainer">
<ellipse fill="none" stroke="#6666ff" cx="631.82" cy="-386.1" rx="154.87" ry="18"/>
<text text-anchor="middle" x="631.82" y="-382.4" font-family="FreeSans" font-size="14.00" fill="#6666ff">Metamodel::PrivateMethodContainer</text>
</a>
</g>
</g>
<!-- Metamodel::MultiMethodContainer -->
<g id="node12" class="node">
<title>Metamodel::MultiMethodContainer</title>
<g id="a_node12"><a xlink:href="/type/Metamodel::MultiMethodContainer" xlink:title="Metamodel::MultiMethodContainer">
<ellipse fill="none" stroke="#6666ff" cx="146.24" cy="-892.18" rx="146.47" ry="18"/>
<text text-anchor="middle" x="146.24" y="-888.48" font-family="FreeSans" font-size="14.00" fill="#6666ff">Metamodel::MultiMethodContainer</text>
</a>
</g>
</g>
<!-- Metamodel::RoleContainer -->
<g id="node13" class="node">
<title>Metamodel::RoleContainer</title>
<g id="a_node13"><a xlink:href="/type/Metamodel::RoleContainer" xlink:title="Metamodel::RoleContainer">
<ellipse fill="none" stroke="#6666ff" cx="1329" cy="-1086.45" rx="115.88" ry="18"/>
<text text-anchor="middle" x="1329" y="-1082.75" font-family="FreeSans" font-size="14.00" fill="#6666ff">Metamodel::RoleContainer</text>
</a>
</g>
</g>
<!-- Metamodel::MultipleInheritance -->
<g id="node14" class="node">
<title>Metamodel::MultipleInheritance</title>
<g id="a_node14"><a xlink:href="/type/Metamodel::MultipleInheritance" xlink:title="Metamodel::MultipleInheritance">
<ellipse fill="none" stroke="#6666ff" cx="1154.34" cy="-1416.4" rx="133.78" ry="18"/>
<text text-anchor="middle" x="1154.34" y="-1412.7" font-family="FreeSans" font-size="14.00" fill="#6666ff">Metamodel::MultipleInheritance</text>
</a>
</g>
</g>
<!-- Metamodel::DefaultParent -->
<g id="node15" class="node">
<title>Metamodel::DefaultParent</title>
<g id="a_node15"><a xlink:href="/type/Metamodel::DefaultParent" xlink:title="Metamodel::DefaultParent">
<ellipse fill="none" stroke="#6666ff" cx="903.12" cy="-1551.51" rx="113.18" ry="18"/>
<text text-anchor="middle" x="903.12" y="-1547.81" font-family="FreeSans" font-size="14.00" fill="#6666ff">Metamodel::DefaultParent</text>
</a>
</g>
</g>
<!-- Metamodel::C3MRO -->
<g id="node16" class="node">
<title>Metamodel::C3MRO</title>
<g id="a_node16"><a xlink:href="/type/Metamodel::C3MRO" xlink:title="Metamodel::C3MRO">
<ellipse fill="none" stroke="#6666ff" cx="1030.95" cy="-806.83" rx="92.08" ry="18"/>
<text text-anchor="middle" x="1030.95" y="-803.13" font-family="FreeSans" font-size="14.00" fill="#6666ff">Metamodel::C3MRO</text>
</a>
</g>
</g>
<!-- Metamodel::MROBasedMethodDispatch -->
<g id="node17" class="node">
<title>Metamodel::MROBasedMethodDispatch</title>
<g id="a_node17"><a xlink:href="/type/Metamodel::MROBasedMethodDispatch" xlink:title="Metamodel::MROBasedMethodDispatch">
<ellipse fill="none" stroke="#6666ff" cx="1177.3" cy="-639.53" rx="169.77" ry="18"/>
<text text-anchor="middle" x="1177.3" y="-635.83" font-family="FreeSans" font-size="14.00" fill="#6666ff">Metamodel::MROBasedMethodDispatch</text>
</a>
</g>
</g>
<!-- Metamodel::MROBasedTypeChecking -->
<g id="node18" class="node">
<title>Metamodel::MROBasedTypeChecking</title>
<g id="a_node18"><a xlink:href="/type/Metamodel::MROBasedTypeChecking" xlink:title="Metamodel::MROBasedTypeChecking">
<ellipse fill="none" stroke="#6666ff" cx="252.06" cy="-1314.13" rx="163.27" ry="18"/>
<text text-anchor="middle" x="252.06" y="-1310.43" font-family="FreeSans" font-size="14.00" fill="#6666ff">Metamodel::MROBasedTypeChecking</text>
</a>
</g>
</g>
<!-- Metamodel::BUILDPLAN -->
<g id="node19" class="node">
<title>Metamodel::BUILDPLAN</title>
<g id="a_node19"><a xlink:href="/type/Metamodel::BUILDPLAN" xlink:title="Metamodel::BUILDPLAN">
<ellipse fill="none" stroke="#6666ff" cx="196.59" cy="-1096.99" rx="109.68" ry="18"/>
<text text-anchor="middle" x="196.59" y="-1093.29" font-family="FreeSans" font-size="14.00" fill="#6666ff">Metamodel::BUILDPLAN</text>
</a>
</g>
</g>
<!-- Metamodel::Mixins -->
<g id="node20" class="node">
<title>Metamodel::Mixins</title>
<g id="a_node20"><a xlink:href="/type/Metamodel::Mixins" xlink:title="Metamodel::Mixins">
<ellipse fill="none" stroke="#6666ff" cx="448.33" cy="-1481.98" rx="85.29" ry="18"/>
<text text-anchor="middle" x="448.33" y="-1478.28" font-family="FreeSans" font-size="14.00" fill="#6666ff">Metamodel::Mixins</text>
</a>
</g>
</g>
<!-- Metamodel::BoolificationProtocol -->
<g id="node21" class="node">
<title>Metamodel::BoolificationProtocol</title>
<g id="a_node21"><a xlink:href="/type/Metamodel::BoolificationProtocol" xlink:title="Metamodel::BoolificationProtocol">
<ellipse fill="none" stroke="#6666ff" cx="889.75" cy="-1326.84" rx="139.18" ry="18"/>
<text text-anchor="middle" x="889.75" y="-1323.14" font-family="FreeSans" font-size="14.00" fill="#6666ff">Metamodel::BoolificationProtocol</text>
</a>
</g>
</g>
<!-- Metamodel::ClassHOW -->
<g id="node22" class="node">
<title>Metamodel::ClassHOW</title>
<g id="a_node22"><a xlink:href="/type/Metamodel::ClassHOW" xlink:title="Metamodel::ClassHOW">
<ellipse fill="none" stroke="#000000" cx="734.75" cy="-970.67" rx="103.18" ry="18"/>
<text text-anchor="middle" x="734.75" y="-966.97" font-family="FreeSans" font-size="14.00" fill="#000000">Metamodel::ClassHOW</text>
</a>
</g>
</g>
<!-- Metamodel::ClassHOW&#45;&gt;Metamodel::Trusting -->
<g id="edge18" class="edge">
<title>Metamodel::ClassHOW&#45;&gt;Metamodel::Trusting</title>
<path fill="none" stroke="#6666ff" d="M697.32,-953.73C621.4,-919.37 449.55,-841.6 367.05,-804.27"/>
<polygon fill="#6666ff" stroke="#6666ff" points="368.48,-801.07 357.92,-800.14 365.59,-807.45 368.48,-801.07"/>
</g>
<!-- Metamodel::ClassHOW&#45;&gt;Any -->
<g id="edge2" class="edge">
<title>Metamodel::ClassHOW&#45;&gt;Any</title>
<path fill="none" stroke="#000000" d="M744.33,-952.49C787.38,-870.81 963.02,-537.57 1013.88,-441.07"/>
<polygon fill="#000000" stroke="#000000" points="1017.1,-442.47 1018.67,-431.99 1010.91,-439.2 1017.1,-442.47"/>
</g>
<!-- Metamodel::ClassHOW&#45;&gt;Metamodel::Naming -->
<g id="edge3" class="edge">
<title>Metamodel::ClassHOW&#45;&gt;Metamodel::Naming</title>
<path fill="none" stroke="#6666ff" d="M732.43,-988.96C721.95,-1071.66 678.96,-1410.96 666.21,-1511.57"/>
<polygon fill="#6666ff" stroke="#6666ff" points="662.72,-1511.24 664.94,-1521.6 669.67,-1512.12 662.72,-1511.24"/>
</g>
<!-- Metamodel::ClassHOW&#45;&gt;Metamodel::Documenting -->
<g id="edge4" class="edge">
<title>Metamodel::ClassHOW&#45;&gt;Metamodel::Documenting</title>
<path fill="none" stroke="#6666ff" d="M767.35,-987.8C845.67,-1028.97 1044.36,-1133.42 1131.35,-1179.15"/>
<polygon fill="#6666ff" stroke="#6666ff" points="1129.93,-1182.35 1140.41,-1183.91 1133.18,-1176.15 1129.93,-1182.35"/>
</g>
<!-- Metamodel::ClassHOW&#45;&gt;Metamodel::Versioning -->
<g id="edge5" class="edge">
<title>Metamodel::ClassHOW&#45;&gt;Metamodel::Versioning</title>
<path fill="none" stroke="#6666ff" d="M716.73,-988.62C672.77,-1032.44 559.91,-1144.92 509.38,-1195.29"/>
<polygon fill="#6666ff" stroke="#6666ff" points="506.72,-1193 502.11,-1202.54 511.66,-1197.96 506.72,-1193"/>
</g>
<!-- Metamodel::ClassHOW&#45;&gt;Metamodel::Stashing -->
<g id="edge6" class="edge">
<title>Metamodel::ClassHOW&#45;&gt;Metamodel::Stashing</title>
<path fill="none" stroke="#6666ff" d="M714.17,-952.78C640.38,-888.65 388.93,-670.1 304.52,-596.73"/>
<polygon fill="#6666ff" stroke="#6666ff" points="306.73,-594.01 296.88,-590.09 302.13,-599.29 306.73,-594.01"/>
</g>
<!-- Metamodel::ClassHOW&#45;&gt;Metamodel::AttributeContainer -->
<g id="edge7" class="edge">
<title>Metamodel::ClassHOW&#45;&gt;Metamodel::AttributeContainer</title>
<path fill="none" stroke="#6666ff" d="M804.14,-957.32C908.5,-937.26 1105.69,-899.35 1219.13,-877.54"/>
<polygon fill="#6666ff" stroke="#6666ff" points="1220,-880.93 1229.16,-875.61 1218.68,-874.06 1220,-880.93"/>
</g>
<!-- Metamodel::ClassHOW&#45;&gt;Metamodel::Finalization -->
<g id="edge8" class="edge">
<title>Metamodel::ClassHOW&#45;&gt;Metamodel::Finalization</title>
<path fill="none" stroke="#6666ff" d="M724.38,-952.62C684.97,-884.02 544.37,-639.3 497.53,-557.78"/>
<polygon fill="#6666ff" stroke="#6666ff" points="500.56,-556.02 492.54,-549.1 494.49,-559.51 500.56,-556.02"/>
</g>
<!-- Metamodel::ClassHOW&#45;&gt;Metamodel::MethodContainer -->
<g id="edge9" class="edge">
<title>Metamodel::ClassHOW&#45;&gt;Metamodel::MethodContainer</title>
<path fill="none" stroke="#6666ff" d="M736.95,-952.42C745.09,-884.95 773.53,-649.25 783.37,-567.68"/>
<polygon fill="#6666ff" stroke="#6666ff" points="786.86,-568 784.58,-557.65 779.91,-567.16 786.86,-568"/>
</g>
<!-- Metamodel::ClassHOW&#45;&gt;Metamodel::PrivateMethodContainer -->
<g id="edge10" class="edge">
<title>Metamodel::ClassHOW&#45;&gt;Metamodel::PrivateMethodContainer</title>
<path fill="none" stroke="#6666ff" d="M731.49,-952.41C716.84,-870.35 657.77,-539.5 657.77,-539.5 657.77,-539.5 644.06,-458.45 636.57,-414.17"/>
<polygon fill="#6666ff" stroke="#6666ff" points="640.02,-413.57 634.9,-404.3 633.12,-414.74 640.02,-413.57"/>
</g>
<!-- Metamodel::ClassHOW&#45;&gt;Metamodel::MultiMethodContainer -->
<g id="edge11" class="edge">
<title>Metamodel::ClassHOW&#45;&gt;Metamodel::MultiMethodContainer</title>
<path fill="none" stroke="#6666ff" d="M652.61,-959.71C549.05,-945.9 370.7,-922.12 255.66,-906.78"/>
<polygon fill="#6666ff" stroke="#6666ff" points="255.8,-903.26 245.43,-905.41 254.88,-910.2 255.8,-903.26"/>
</g>
<!-- Metamodel::ClassHOW&#45;&gt;Metamodel::RoleContainer -->
<g id="edge12" class="edge">
<title>Metamodel::ClassHOW&#45;&gt;Metamodel::RoleContainer</title>
<path fill="none" stroke="#6666ff" d="M803.79,-984.12C913.89,-1005.57 1128.82,-1047.45 1246.73,-1070.42"/>
<polygon fill="#6666ff" stroke="#6666ff" points="1246.3,-1073.9 1256.79,-1072.38 1247.64,-1067.03 1246.3,-1073.9"/>
</g>
<!-- Metamodel::ClassHOW&#45;&gt;Metamodel::MultipleInheritance -->
<g id="edge13" class="edge">
<title>Metamodel::ClassHOW&#45;&gt;Metamodel::MultipleInheritance</title>
<path fill="none" stroke="#6666ff" d="M751.72,-988.69C817.22,-1058.27 1053.73,-1309.52 1130.26,-1390.83"/>
<polygon fill="#6666ff" stroke="#6666ff" points="1127.75,-1393.27 1137.16,-1398.15 1132.85,-1388.47 1127.75,-1393.27"/>
</g>
<!-- Metamodel::ClassHOW&#45;&gt;Metamodel::DefaultParent -->
<g id="edge14" class="edge">
<title>Metamodel::ClassHOW&#45;&gt;Metamodel::DefaultParent</title>
<path fill="none" stroke="#6666ff" d="M735.48,-988.82C738.39,-1061.39 749.06,-1326.8 749.06,-1326.8 749.06,-1326.8 844.2,-1465.56 884.95,-1525"/>
<polygon fill="#6666ff" stroke="#6666ff" points="882.23,-1527.23 890.77,-1533.5 888.01,-1523.27 882.23,-1527.23"/>
</g>
<!-- Metamodel::ClassHOW&#45;&gt;Metamodel::C3MRO -->
<g id="edge15" class="edge">
<title>Metamodel::ClassHOW&#45;&gt;Metamodel::C3MRO</title>
<path fill="none" stroke="#6666ff" d="M765.89,-953.44C820.14,-923.43 931.88,-861.63 991.48,-828.66"/>
<polygon fill="#6666ff" stroke="#6666ff" points="993.17,-831.73 1000.23,-823.82 989.78,-825.6 993.17,-831.73"/>
</g>
<!-- Metamodel::ClassHOW&#45;&gt;Metamodel::MROBasedMethodDispatch -->
<g id="edge16" class="edge">
<title>Metamodel::ClassHOW&#45;&gt;Metamodel::MROBasedMethodDispatch</title>
<path fill="none" stroke="#6666ff" d="M756.78,-952.81C809.22,-910.34 937.06,-806.78 937.06,-806.78 937.06,-806.78 1076.79,-709.5 1143.12,-663.32"/>
<polygon fill="#6666ff" stroke="#6666ff" points="1145.39,-666.01 1151.59,-657.42 1141.39,-660.27 1145.39,-666.01"/>
</g>
<!-- Metamodel::ClassHOW&#45;&gt;Metamodel::MROBasedTypeChecking -->
<g id="edge17" class="edge">
<title>Metamodel::ClassHOW&#45;&gt;Metamodel::MROBasedTypeChecking</title>
<path fill="none" stroke="#6666ff" d="M709.94,-988.21C629.63,-1044.99 381.92,-1220.14 381.92,-1220.14 381.92,-1220.14 323.62,-1262.34 285.15,-1290.19"/>
<polygon fill="#6666ff" stroke="#6666ff" points="282.84,-1287.53 276.79,-1296.23 286.94,-1293.2 282.84,-1287.53"/>
</g>
<!-- Metamodel::ClassHOW&#45;&gt;Metamodel::BUILDPLAN -->
<g id="edge19" class="edge">
<title>Metamodel::ClassHOW&#45;&gt;Metamodel::BUILDPLAN</title>
<path fill="none" stroke="#6666ff" d="M673.01,-985.16C573.12,-1008.6 376.48,-1054.76 269.73,-1079.82"/>
<polygon fill="#6666ff" stroke="#6666ff" points="268.62,-1076.49 259.68,-1082.18 270.22,-1083.3 268.62,-1076.49"/>
</g>
<!-- Metamodel::ClassHOW&#45;&gt;Metamodel::Mixins -->
<g id="edge20" class="edge">
<title>Metamodel::ClassHOW&#45;&gt;Metamodel::Mixins</title>
<path fill="none" stroke="#6666ff" d="M724.55,-988.86C681.53,-1065.67 514.67,-1363.55 463.4,-1455.08"/>
<polygon fill="#6666ff" stroke="#6666ff" points="460.24,-1453.57 458.4,-1464 466.34,-1456.99 460.24,-1453.57"/>
</g>
<!-- Metamodel::ClassHOW&#45;&gt;Metamodel::BoolificationProtocol -->
<g id="edge21" class="edge">
<title>Metamodel::ClassHOW&#45;&gt;Metamodel::BoolificationProtocol</title>
<path fill="none" stroke="#6666ff" d="M742.65,-988.82C767.99,-1047.05 847.36,-1229.44 877.75,-1299.26"/>
<polygon fill="#6666ff" stroke="#6666ff" points="874.66,-1300.95 881.86,-1308.72 881.08,-1298.15 874.66,-1300.95"/>
</g>
</g>
</svg>
