<?xml version="1.0" encoding="UTF-8" standalone="no"?>
<!DOCTYPE svg PUBLIC "-//W3C//DTD SVG 1.1//EN"
 "http://www.w3.org/Graphics/SVG/1.1/DTD/svg11.dtd">
<!-- Generated by graphviz version 2.43.0 (0)
 -->
<!-- Title: perl6&#45;type&#45;graph Pages: 1 -->
<svg width="898pt" height="103pt"
 viewBox="0.00 0.00 898.35 102.66" xmlns="http://www.w3.org/2000/svg" xmlns:xlink="http://www.w3.org/1999/xlink">
<g id="graph0" class="graph" transform="scale(1 1) rotate(0) translate(4 98.66)">
<title>perl6&#45;type&#45;graph</title>
<polygon fill="white" stroke="transparent" points="-4,4 -4,-98.66 894.35,-98.66 894.35,4 -4,4"/>
<!-- Metamodel::MultiDispatcher -->
<g id="node1" class="node">
<title>Metamodel::MultiDispatcher</title>
<g id="a_node1"><a xlink:href="/type/Metamodel::MultiDispatcher" xlink:title="Metamodel::MultiDispatcher">
<ellipse fill="none" stroke="#000000" cx="120.24" cy="-65.77" rx="120.48" ry="18"/>
<text text-anchor="middle" x="120.24" y="-62.07" font-family="FreeSans" font-size="14.00" fill="#000000">Metamodel::MultiDispatcher</text>
</a>
</g>
</g>
<!-- Metamodel::BaseDispatcher -->
<g id="node4" class="node">
<title>Metamodel::BaseDispatcher</title>
<g id="a_node4"><a xlink:href="/type/Metamodel::BaseDispatcher" xlink:title="Metamodel::BaseDispatcher">
<ellipse fill="none" stroke="#000000" cx="370.04" cy="-76.66" rx="121.58" ry="18"/>
<text text-anchor="middle" x="370.04" y="-72.96" font-family="FreeSans" font-size="14.00" fill="#000000">Metamodel::BaseDispatcher</text>
</a>
</g>
</g>
<!-- Metamodel::MultiDispatcher&#45;&gt;Metamodel::BaseDispatcher -->
<g id="edge1" class="edge">
<title>Metamodel::MultiDispatcher&#45;&gt;Metamodel::BaseDispatcher</title>
<path fill="none" stroke="#000000" d="M236,-70.81C238.33,-70.92 240.67,-71.02 243.01,-71.12"/>
<polygon fill="#000000" stroke="#000000" points="243.12,-74.63 253.26,-71.57 243.42,-67.63 243.12,-74.63"/>
</g>
<!-- Mu -->
<g id="node2" class="node">
<title>Mu</title>
<g id="a_node2"><a xlink:href="/type/Mu" xlink:title="Mu">
<ellipse fill="none" stroke="#000000" cx="863.35" cy="-18" rx="27" ry="18"/>
<text text-anchor="middle" x="863.35" y="-14.3" font-family="FreeSans" font-size="14.00" fill="#000000">Mu</text>
</a>
</g>
</g>
<!-- Any -->
<g id="node3" class="node">
<title>Any</title>
<g id="a_node3"><a xlink:href="/type/Any" xlink:title="Any">
<ellipse fill="none" stroke="#000000" cx="613.59" cy="-18.36" rx="27" ry="18"/>
<text text-anchor="middle" x="613.59" y="-14.66" font-family="FreeSans" font-size="14.00" fill="#000000">Any</text>
</a>
</g>
</g>
<!-- Any&#45;&gt;Mu -->
<g id="edge2" class="edge">
<title>Any&#45;&gt;Mu</title>
<path fill="none" stroke="#000000" d="M640.8,-18.32C685.65,-18.26 775.2,-18.13 825.97,-18.05"/>
<polygon fill="#000000" stroke="#000000" points="826.19,-21.55 836.18,-18.04 826.18,-14.55 826.19,-21.55"/>
</g>
<!-- Metamodel::BaseDispatcher&#45;&gt;Any -->
<g id="edge3" class="edge">
<title>Metamodel::BaseDispatcher&#45;&gt;Any</title>
<path fill="none" stroke="#000000" d="M434.03,-61.34C480.02,-50.33 540.33,-35.9 578.02,-26.88"/>
<polygon fill="#000000" stroke="#000000" points="579.11,-30.21 588.02,-24.48 577.48,-23.41 579.11,-30.21"/>
</g>
</g>
</svg>
