<?xml version="1.0" encoding="UTF-8" standalone="no"?>
<!DOCTYPE svg PUBLIC "-//W3C//DTD SVG 1.1//EN"
 "http://www.w3.org/Graphics/SVG/1.1/DTD/svg11.dtd">
<!-- Generated by graphviz version 2.43.0 (0)
 -->
<!-- Title: perl6&#45;type&#45;graph Pages: 1 -->
<svg width="1053pt" height="1194pt"
 viewBox="0.00 0.00 1052.71 1193.87" xmlns="http://www.w3.org/2000/svg" xmlns:xlink="http://www.w3.org/1999/xlink">
<g id="graph0" class="graph" transform="scale(1 1) rotate(0) translate(4 1189.87)">
<title>perl6&#45;type&#45;graph</title>
<polygon fill="white" stroke="transparent" points="-4,4 -4,-1189.87 1048.71,-1189.87 1048.71,4 -4,4"/>
<!-- Metamodel::ConcreteRoleHOW -->
<g id="node1" class="node">
<title>Metamodel::ConcreteRoleHOW</title>
<g id="a_node1"><a xlink:href="/type/Metamodel::ConcreteRoleHOW" xlink:title="Metamodel::ConcreteRoleHOW">
<ellipse fill="none" stroke="#000000" cx="511.62" cy="-780.22" rx="135.38" ry="18"/>
<text text-anchor="middle" x="511.62" y="-776.52" font-family="FreeSans" font-size="14.00" fill="#000000">Metamodel::ConcreteRoleHOW</text>
</a>
</g>
</g>
<!-- Any -->
<g id="node3" class="node">
<title>Any</title>
<g id="a_node3"><a xlink:href="/type/Any" xlink:title="Any">
<ellipse fill="none" stroke="#000000" cx="585.85" cy="-371.07" rx="27" ry="18"/>
<text text-anchor="middle" x="585.85" y="-367.37" font-family="FreeSans" font-size="14.00" fill="#000000">Any</text>
</a>
</g>
</g>
<!-- Metamodel::ConcreteRoleHOW&#45;&gt;Any -->
<g id="edge1" class="edge">
<title>Metamodel::ConcreteRoleHOW&#45;&gt;Any</title>
<path fill="none" stroke="#000000" d="M514.9,-762.11C526.64,-697.42 566.56,-477.39 580.77,-399.05"/>
<polygon fill="#000000" stroke="#000000" points="584.26,-399.43 582.6,-388.97 577.37,-398.18 584.26,-399.43"/>
</g>
<!-- Metamodel::Naming -->
<g id="node4" class="node">
<title>Metamodel::Naming</title>
<g id="a_node4"><a xlink:href="/type/Metamodel::Naming" xlink:title="Metamodel::Naming">
<ellipse fill="none" stroke="#6666ff" cx="147.5" cy="-932.37" rx="90.18" ry="18"/>
<text text-anchor="middle" x="147.5" y="-928.67" font-family="FreeSans" font-size="14.00" fill="#6666ff">Metamodel::Naming</text>
</a>
</g>
</g>
<!-- Metamodel::ConcreteRoleHOW&#45;&gt;Metamodel::Naming -->
<g id="edge3" class="edge">
<title>Metamodel::ConcreteRoleHOW&#45;&gt;Metamodel::Naming</title>
<path fill="none" stroke="#6666ff" d="M470.56,-797.38C402.83,-825.68 268.02,-882.01 195.82,-912.18"/>
<polygon fill="#6666ff" stroke="#6666ff" points="194.36,-909 186.48,-916.08 197.06,-915.46 194.36,-909"/>
</g>
<!-- Metamodel::Versioning -->
<g id="node5" class="node">
<title>Metamodel::Versioning</title>
<g id="a_node5"><a xlink:href="/type/Metamodel::Versioning" xlink:title="Metamodel::Versioning">
<ellipse fill="none" stroke="#6666ff" cx="578.07" cy="-1167.87" rx="100.98" ry="18"/>
<text text-anchor="middle" x="578.07" y="-1164.17" font-family="FreeSans" font-size="14.00" fill="#6666ff">Metamodel::Versioning</text>
</a>
</g>
</g>
<!-- Metamodel::ConcreteRoleHOW&#45;&gt;Metamodel::Versioning -->
<g id="edge4" class="edge">
<title>Metamodel::ConcreteRoleHOW&#45;&gt;Metamodel::Versioning</title>
<path fill="none" stroke="#6666ff" d="M514.73,-798.4C525.37,-860.46 560.32,-1064.29 573.22,-1139.59"/>
<polygon fill="#6666ff" stroke="#6666ff" points="569.82,-1140.47 574.96,-1149.73 576.72,-1139.28 569.82,-1140.47"/>
</g>
<!-- Metamodel::PrivateMethodContainer -->
<g id="node6" class="node">
<title>Metamodel::PrivateMethodContainer</title>
<g id="a_node6"><a xlink:href="/type/Metamodel::PrivateMethodContainer" xlink:title="Metamodel::PrivateMethodContainer">
<ellipse fill="none" stroke="#6666ff" cx="322.06" cy="-1123.86" rx="154.87" ry="18"/>
<text text-anchor="middle" x="322.06" y="-1120.16" font-family="FreeSans" font-size="14.00" fill="#6666ff">Metamodel::PrivateMethodContainer</text>
</a>
</g>
</g>
<!-- Metamodel::ConcreteRoleHOW&#45;&gt;Metamodel::PrivateMethodContainer -->
<g id="edge5" class="edge">
<title>Metamodel::ConcreteRoleHOW&#45;&gt;Metamodel::PrivateMethodContainer</title>
<path fill="none" stroke="#6666ff" d="M501.69,-798.21C470.48,-854.8 374.19,-1029.37 336.97,-1096.85"/>
<polygon fill="#6666ff" stroke="#6666ff" points="333.88,-1095.19 332.12,-1105.64 340.01,-1098.57 333.88,-1095.19"/>
</g>
<!-- Metamodel::MethodContainer -->
<g id="node7" class="node">
<title>Metamodel::MethodContainer</title>
<g id="a_node7"><a xlink:href="/type/Metamodel::MethodContainer" xlink:title="Metamodel::MethodContainer">
<ellipse fill="none" stroke="#6666ff" cx="127.39" cy="-676.28" rx="127.28" ry="18"/>
<text text-anchor="middle" x="127.39" y="-672.58" font-family="FreeSans" font-size="14.00" fill="#6666ff">Metamodel::MethodContainer</text>
</a>
</g>
</g>
<!-- Metamodel::ConcreteRoleHOW&#45;&gt;Metamodel::MethodContainer -->
<g id="edge6" class="edge">
<title>Metamodel::ConcreteRoleHOW&#45;&gt;Metamodel::MethodContainer</title>
<path fill="none" stroke="#6666ff" d="M451.58,-763.98C382.44,-745.28 269.06,-714.6 196.35,-694.93"/>
<polygon fill="#6666ff" stroke="#6666ff" points="196.94,-691.47 186.37,-692.23 195.11,-698.22 196.94,-691.47"/>
</g>
<!-- Metamodel::MultiMethodContainer -->
<g id="node8" class="node">
<title>Metamodel::MultiMethodContainer</title>
<g id="a_node8"><a xlink:href="/type/Metamodel::MultiMethodContainer" xlink:title="Metamodel::MultiMethodContainer">
<ellipse fill="none" stroke="#6666ff" cx="805.42" cy="-1046.56" rx="146.47" ry="18"/>
<text text-anchor="middle" x="805.42" y="-1042.86" font-family="FreeSans" font-size="14.00" fill="#6666ff">Metamodel::MultiMethodContainer</text>
</a>
</g>
</g>
<!-- Metamodel::ConcreteRoleHOW&#45;&gt;Metamodel::MultiMethodContainer -->
<g id="edge7" class="edge">
<title>Metamodel::ConcreteRoleHOW&#45;&gt;Metamodel::MultiMethodContainer</title>
<path fill="none" stroke="#6666ff" d="M531.35,-798.11C582.45,-844.44 719.19,-968.39 777.95,-1021.67"/>
<polygon fill="#6666ff" stroke="#6666ff" points="775.62,-1024.28 785.38,-1028.4 780.33,-1019.09 775.62,-1024.28"/>
</g>
<!-- Metamodel::AttributeContainer -->
<g id="node9" class="node">
<title>Metamodel::AttributeContainer</title>
<g id="a_node9"><a xlink:href="/type/Metamodel::AttributeContainer" xlink:title="Metamodel::AttributeContainer">
<ellipse fill="none" stroke="#6666ff" cx="282.47" cy="-478.83" rx="129.98" ry="18"/>
<text text-anchor="middle" x="282.47" y="-475.13" font-family="FreeSans" font-size="14.00" fill="#6666ff">Metamodel::AttributeContainer</text>
</a>
</g>
</g>
<!-- Metamodel::ConcreteRoleHOW&#45;&gt;Metamodel::AttributeContainer -->
<g id="edge8" class="edge">
<title>Metamodel::ConcreteRoleHOW&#45;&gt;Metamodel::AttributeContainer</title>
<path fill="none" stroke="#6666ff" d="M497.97,-762.27C459.22,-711.3 348.36,-565.49 302.6,-505.31"/>
<polygon fill="#6666ff" stroke="#6666ff" points="305.18,-502.91 296.34,-497.07 299.6,-507.15 305.18,-502.91"/>
</g>
<!-- Metamodel::RoleContainer -->
<g id="node10" class="node">
<title>Metamodel::RoleContainer</title>
<g id="a_node10"><a xlink:href="/type/Metamodel::RoleContainer" xlink:title="Metamodel::RoleContainer">
<ellipse fill="none" stroke="#6666ff" cx="822.17" cy="-579.08" rx="115.88" ry="18"/>
<text text-anchor="middle" x="822.17" y="-575.38" font-family="FreeSans" font-size="14.00" fill="#6666ff">Metamodel::RoleContainer</text>
</a>
</g>
</g>
<!-- Metamodel::ConcreteRoleHOW&#45;&gt;Metamodel::RoleContainer -->
<g id="edge9" class="edge">
<title>Metamodel::ConcreteRoleHOW&#45;&gt;Metamodel::RoleContainer</title>
<path fill="none" stroke="#6666ff" d="M538.9,-762.55C595.05,-726.18 723.5,-642.99 786.29,-602.32"/>
<polygon fill="#6666ff" stroke="#6666ff" points="788.57,-605.01 795.06,-596.64 784.76,-599.14 788.57,-605.01"/>
</g>
<!-- Metamodel::MultipleInheritance -->
<g id="node11" class="node">
<title>Metamodel::MultipleInheritance</title>
<g id="a_node11"><a xlink:href="/type/Metamodel::MultipleInheritance" xlink:title="Metamodel::MultipleInheritance">
<ellipse fill="none" stroke="#6666ff" cx="910.82" cy="-813.43" rx="133.78" ry="18"/>
<text text-anchor="middle" x="910.82" y="-809.73" font-family="FreeSans" font-size="14.00" fill="#6666ff">Metamodel::MultipleInheritance</text>
</a>
</g>
</g>
<!-- Metamodel::ConcreteRoleHOW&#45;&gt;Metamodel::MultipleInheritance -->
<g id="edge10" class="edge">
<title>Metamodel::ConcreteRoleHOW&#45;&gt;Metamodel::MultipleInheritance</title>
<path fill="none" stroke="#6666ff" d="M626.28,-789.76C676.49,-793.94 735.52,-798.85 786.76,-803.11"/>
<polygon fill="#6666ff" stroke="#6666ff" points="786.64,-806.61 796.9,-803.95 787.22,-799.64 786.64,-806.61"/>
</g>
<!-- Mu -->
<g id="node2" class="node">
<title>Mu</title>
<g id="a_node2"><a xlink:href="/type/Mu" xlink:title="Mu">
<ellipse fill="none" stroke="#000000" cx="694.67" cy="-18" rx="27" ry="18"/>
<text text-anchor="middle" x="694.67" y="-14.3" font-family="FreeSans" font-size="14.00" fill="#000000">Mu</text>
</a>
</g>
</g>
<!-- Any&#45;&gt;Mu -->
<g id="edge2" class="edge">
<title>Any&#45;&gt;Mu</title>
<path fill="none" stroke="#000000" d="M591.39,-353.07C609.15,-295.46 664.68,-115.29 686.12,-45.76"/>
<polygon fill="#000000" stroke="#000000" points="689.54,-46.55 689.14,-35.96 682.85,-44.48 689.54,-46.55"/>
</g>
</g>
</svg>
