<?xml version="1.0" encoding="UTF-8" standalone="no"?>
<!DOCTYPE svg PUBLIC "-//W3C//DTD SVG 1.1//EN"
 "http://www.w3.org/Graphics/SVG/1.1/DTD/svg11.dtd">
<!-- Generated by graphviz version 2.43.0 (0)
 -->
<!-- Title: perl6&#45;type&#45;graph Pages: 1 -->
<svg width="906pt" height="103pt"
 viewBox="0.00 0.00 906.10 103.12" xmlns="http://www.w3.org/2000/svg" xmlns:xlink="http://www.w3.org/1999/xlink">
<g id="graph0" class="graph" transform="scale(1 1) rotate(0) translate(4 99.12)">
<title>perl6&#45;type&#45;graph</title>
<polygon fill="white" stroke="transparent" points="-4,4 -4,-99.12 902.1,-99.12 902.1,4 -4,4"/>
<!-- Metamodel::WrapDispatcher -->
<g id="node1" class="node">
<title>Metamodel::WrapDispatcher</title>
<g id="a_node1"><a xlink:href="/type/Metamodel::WrapDispatcher" xlink:title="Metamodel::WrapDispatcher">
<ellipse fill="none" stroke="#000000" cx="122.19" cy="-66.14" rx="122.38" ry="18"/>
<text text-anchor="middle" x="122.19" y="-62.44" font-family="FreeSans" font-size="14.00" fill="#000000">Metamodel::WrapDispatcher</text>
</a>
</g>
</g>
<!-- Metamodel::BaseDispatcher -->
<g id="node4" class="node">
<title>Metamodel::BaseDispatcher</title>
<g id="a_node4"><a xlink:href="/type/Metamodel::BaseDispatcher" xlink:title="Metamodel::BaseDispatcher">
<ellipse fill="none" stroke="#000000" cx="373.94" cy="-77.12" rx="121.58" ry="18"/>
<text text-anchor="middle" x="373.94" y="-73.42" font-family="FreeSans" font-size="14.00" fill="#000000">Metamodel::BaseDispatcher</text>
</a>
</g>
</g>
<!-- Metamodel::WrapDispatcher&#45;&gt;Metamodel::BaseDispatcher -->
<g id="edge1" class="edge">
<title>Metamodel::WrapDispatcher&#45;&gt;Metamodel::BaseDispatcher</title>
<path fill="none" stroke="#000000" d="M239.59,-71.26C242.08,-71.37 244.57,-71.48 247.06,-71.58"/>
<polygon fill="#000000" stroke="#000000" points="247.16,-75.09 257.3,-72.03 247.46,-68.1 247.16,-75.09"/>
</g>
<!-- Mu -->
<g id="node2" class="node">
<title>Mu</title>
<g id="a_node2"><a xlink:href="/type/Mu" xlink:title="Mu">
<ellipse fill="none" stroke="#000000" cx="871.1" cy="-18" rx="27" ry="18"/>
<text text-anchor="middle" x="871.1" y="-14.3" font-family="FreeSans" font-size="14.00" fill="#000000">Mu</text>
</a>
</g>
</g>
<!-- Any -->
<g id="node3" class="node">
<title>Any</title>
<g id="a_node3"><a xlink:href="/type/Any" xlink:title="Any">
<ellipse fill="none" stroke="#000000" cx="619.4" cy="-18.36" rx="27" ry="18"/>
<text text-anchor="middle" x="619.4" y="-14.66" font-family="FreeSans" font-size="14.00" fill="#000000">Any</text>
</a>
</g>
</g>
<!-- Any&#45;&gt;Mu -->
<g id="edge2" class="edge">
<title>Any&#45;&gt;Mu</title>
<path fill="none" stroke="#000000" d="M646.81,-18.32C692.13,-18.26 782.74,-18.13 833.83,-18.05"/>
<polygon fill="#000000" stroke="#000000" points="834.11,-21.55 844.1,-18.04 834.1,-14.55 834.11,-21.55"/>
</g>
<!-- Metamodel::BaseDispatcher&#45;&gt;Any -->
<g id="edge3" class="edge">
<title>Metamodel::BaseDispatcher&#45;&gt;Any</title>
<path fill="none" stroke="#000000" d="M438.11,-61.76C484.59,-50.63 545.71,-36 583.77,-26.89"/>
<polygon fill="#000000" stroke="#000000" points="584.95,-30.21 593.86,-24.48 583.32,-23.4 584.95,-30.21"/>
</g>
</g>
</svg>
