<?xml version="1.0" encoding="UTF-8" standalone="no"?>
<!DOCTYPE svg PUBLIC "-//W3C//DTD SVG 1.1//EN"
 "http://www.w3.org/Graphics/SVG/1.1/DTD/svg11.dtd">
<!-- Generated by graphviz version 2.43.0 (0)
 -->
<!-- Title: perl6&#45;type&#45;graph Pages: 1 -->
<svg width="770pt" height="780pt"
 viewBox="0.00 0.00 770.13 780.43" xmlns="http://www.w3.org/2000/svg" xmlns:xlink="http://www.w3.org/1999/xlink">
<g id="graph0" class="graph" transform="scale(1 1) rotate(0) translate(4 776.43)">
<title>perl6&#45;type&#45;graph</title>
<polygon fill="white" stroke="transparent" points="-4,4 -4,-776.43 766.13,-776.43 766.13,4 -4,4"/>
<!-- Metamodel::BaseDispatcher -->
<g id="node1" class="node">
<title>Metamodel::BaseDispatcher</title>
<g id="a_node1"><a xlink:href="/type/Metamodel::BaseDispatcher" xlink:title="Metamodel::BaseDispatcher">
<ellipse fill="none" stroke="#000000" cx="392.14" cy="-502.86" rx="121.58" ry="18"/>
<text text-anchor="middle" x="392.14" y="-499.16" font-family="FreeSans" font-size="14.00" fill="#000000">Metamodel::BaseDispatcher</text>
</a>
</g>
</g>
<!-- Any -->
<g id="node3" class="node">
<title>Any</title>
<g id="a_node3"><a xlink:href="/type/Any" xlink:title="Any">
<ellipse fill="none" stroke="#000000" cx="435.09" cy="-250.74" rx="27" ry="18"/>
<text text-anchor="middle" x="435.09" y="-247.04" font-family="FreeSans" font-size="14.00" fill="#000000">Any</text>
</a>
</g>
</g>
<!-- Metamodel::BaseDispatcher&#45;&gt;Any -->
<g id="edge1" class="edge">
<title>Metamodel::BaseDispatcher&#45;&gt;Any</title>
<path fill="none" stroke="#000000" d="M395.23,-484.73C402.64,-441.21 421.48,-330.6 430.34,-278.58"/>
<polygon fill="#000000" stroke="#000000" points="433.8,-279.15 432.03,-268.71 426.9,-277.98 433.8,-279.15"/>
</g>
<!-- Mu -->
<g id="node2" class="node">
<title>Mu</title>
<g id="a_node2"><a xlink:href="/type/Mu" xlink:title="Mu">
<ellipse fill="none" stroke="#000000" cx="492.34" cy="-18" rx="27" ry="18"/>
<text text-anchor="middle" x="492.34" y="-14.3" font-family="FreeSans" font-size="14.00" fill="#000000">Mu</text>
</a>
</g>
</g>
<!-- Any&#45;&gt;Mu -->
<g id="edge2" class="edge">
<title>Any&#45;&gt;Mu</title>
<path fill="none" stroke="#000000" d="M439.48,-232.86C449.41,-192.5 473.62,-94.08 485.51,-45.73"/>
<polygon fill="#000000" stroke="#000000" points="488.93,-46.48 487.92,-35.94 482.14,-44.81 488.93,-46.48"/>
</g>
<!-- Metamodel::MethodDispatcher -->
<g id="node4" class="node">
<title>Metamodel::MethodDispatcher</title>
<g id="a_node4"><a xlink:href="/type/Metamodel::MethodDispatcher" xlink:title="Metamodel::MethodDispatcher">
<ellipse fill="none" stroke="#000000" cx="131.29" cy="-493.95" rx="131.08" ry="18"/>
<text text-anchor="middle" x="131.29" y="-490.25" font-family="FreeSans" font-size="14.00" fill="#000000">Metamodel::MethodDispatcher</text>
</a>
</g>
</g>
<!-- Metamodel::MethodDispatcher&#45;&gt;Metamodel::BaseDispatcher -->
<g id="edge3" class="edge">
<title>Metamodel::MethodDispatcher&#45;&gt;Metamodel::BaseDispatcher</title>
<path fill="none" stroke="#000000" d="M259.04,-498.31C260.38,-498.36 261.73,-498.41 263.07,-498.45"/>
<polygon fill="#000000" stroke="#000000" points="263.24,-501.96 273.36,-498.8 263.48,-494.96 263.24,-501.96"/>
</g>
<!-- Metamodel::WrapDispatcher -->
<g id="node5" class="node">
<title>Metamodel::WrapDispatcher</title>
<g id="a_node5"><a xlink:href="/type/Metamodel::WrapDispatcher" xlink:title="Metamodel::WrapDispatcher">
<ellipse fill="none" stroke="#000000" cx="639.94" cy="-584.38" rx="122.38" ry="18"/>
<text text-anchor="middle" x="639.94" y="-580.68" font-family="FreeSans" font-size="14.00" fill="#000000">Metamodel::WrapDispatcher</text>
</a>
</g>
</g>
<!-- Metamodel::WrapDispatcher&#45;&gt;Metamodel::BaseDispatcher -->
<g id="edge4" class="edge">
<title>Metamodel::WrapDispatcher&#45;&gt;Metamodel::BaseDispatcher</title>
<path fill="none" stroke="#000000" d="M589.8,-567.88C549.91,-554.76 493.99,-536.37 451.81,-522.49"/>
<polygon fill="#000000" stroke="#000000" points="452.81,-519.14 442.21,-519.34 450.62,-525.79 452.81,-519.14"/>
</g>
<!-- Metamodel::MultiDispatcher -->
<g id="node6" class="node">
<title>Metamodel::MultiDispatcher</title>
<g id="a_node6"><a xlink:href="/type/Metamodel::MultiDispatcher" xlink:title="Metamodel::MultiDispatcher">
<ellipse fill="none" stroke="#000000" cx="348.35" cy="-754.43" rx="120.48" ry="18"/>
<text text-anchor="middle" x="348.35" y="-750.73" font-family="FreeSans" font-size="14.00" fill="#000000">Metamodel::MultiDispatcher</text>
</a>
</g>
</g>
<!-- Metamodel::MultiDispatcher&#45;&gt;Metamodel::BaseDispatcher -->
<g id="edge5" class="edge">
<title>Metamodel::MultiDispatcher&#45;&gt;Metamodel::BaseDispatcher</title>
<path fill="none" stroke="#000000" d="M351.5,-736.33C359.04,-693.02 378.18,-583.09 387.24,-531.03"/>
<polygon fill="#000000" stroke="#000000" points="390.69,-531.58 388.96,-521.13 383.8,-530.38 390.69,-531.58"/>
</g>
</g>
</svg>
