<?xml version="1.0" encoding="UTF-8" standalone="no"?>
<!DOCTYPE svg PUBLIC "-//W3C//DTD SVG 1.1//EN"
 "http://www.w3.org/Graphics/SVG/1.1/DTD/svg11.dtd">
<!-- Generated by graphviz version 2.43.0 (0)
 -->
<!-- Title: perl6&#45;type&#45;graph Pages: 1 -->
<svg width="1441pt" height="1578pt"
 viewBox="0.00 0.00 1441.09 1578.48" xmlns="http://www.w3.org/2000/svg" xmlns:xlink="http://www.w3.org/1999/xlink">
<g id="graph0" class="graph" transform="scale(1 1) rotate(0) translate(4 1574.48)">
<title>perl6&#45;type&#45;graph</title>
<polygon fill="white" stroke="transparent" points="-4,4 -4,-1574.48 1437.09,-1574.48 1437.09,4 -4,4"/>
<!-- Metamodel::Finalization -->
<g id="node1" class="node">
<title>Metamodel::Finalization</title>
<g id="a_node1"><a xlink:href="/type/Metamodel::Finalization" xlink:title="Metamodel::Finalization">
<ellipse fill="none" stroke="#6666ff" cx="290.73" cy="-783.99" rx="103.98" ry="18"/>
<text text-anchor="middle" x="290.73" y="-780.29" font-family="FreeSans" font-size="14.00" fill="#6666ff">Metamodel::Finalization</text>
</a>
</g>
</g>
<!-- Mu -->
<g id="node2" class="node">
<title>Mu</title>
<g id="a_node2"><a xlink:href="/type/Mu" xlink:title="Mu">
<ellipse fill="none" stroke="#000000" cx="1324.19" cy="-18" rx="27" ry="18"/>
<text text-anchor="middle" x="1324.19" y="-14.3" font-family="FreeSans" font-size="14.00" fill="#000000">Mu</text>
</a>
</g>
</g>
<!-- Any -->
<g id="node3" class="node">
<title>Any</title>
<g id="a_node3"><a xlink:href="/type/Any" xlink:title="Any">
<ellipse fill="none" stroke="#000000" cx="997.75" cy="-415.03" rx="27" ry="18"/>
<text text-anchor="middle" x="997.75" y="-411.33" font-family="FreeSans" font-size="14.00" fill="#000000">Any</text>
</a>
</g>
</g>
<!-- Any&#45;&gt;Mu -->
<g id="edge1" class="edge">
<title>Any&#45;&gt;Mu</title>
<path fill="none" stroke="#000000" d="M1010.95,-398.98C1061.72,-337.23 1244.53,-114.89 1304.78,-41.61"/>
<polygon fill="#000000" stroke="#000000" points="1307.54,-43.77 1311.19,-33.82 1302.13,-39.32 1307.54,-43.77"/>
</g>
<!-- Metamodel::Naming -->
<g id="node4" class="node">
<title>Metamodel::Naming</title>
<g id="a_node4"><a xlink:href="/type/Metamodel::Naming" xlink:title="Metamodel::Naming">
<ellipse fill="none" stroke="#6666ff" cx="632.41" cy="-1540.79" rx="90.18" ry="18"/>
<text text-anchor="middle" x="632.41" y="-1537.09" font-family="FreeSans" font-size="14.00" fill="#6666ff">Metamodel::Naming</text>
</a>
</g>
</g>
<!-- Metamodel::Documenting -->
<g id="node5" class="node">
<title>Metamodel::Documenting</title>
<g id="a_node5"><a xlink:href="/type/Metamodel::Documenting" xlink:title="Metamodel::Documenting">
<ellipse fill="none" stroke="#6666ff" cx="1143.32" cy="-1201.91" rx="111.28" ry="18"/>
<text text-anchor="middle" x="1143.32" y="-1198.21" font-family="FreeSans" font-size="14.00" fill="#6666ff">Metamodel::Documenting</text>
</a>
</g>
</g>
<!-- Metamodel::Versioning -->
<g id="node6" class="node">
<title>Metamodel::Versioning</title>
<g id="a_node6"><a xlink:href="/type/Metamodel::Versioning" xlink:title="Metamodel::Versioning">
<ellipse fill="none" stroke="#6666ff" cx="453.92" cy="-1221.1" rx="100.98" ry="18"/>
<text text-anchor="middle" x="453.92" y="-1217.4" font-family="FreeSans" font-size="14.00" fill="#6666ff">Metamodel::Versioning</text>
</a>
</g>
</g>
<!-- Metamodel::Stashing -->
<g id="node7" class="node">
<title>Metamodel::Stashing</title>
<g id="a_node7"><a xlink:href="/type/Metamodel::Stashing" xlink:title="Metamodel::Stashing">
<ellipse fill="none" stroke="#6666ff" cx="239.6" cy="-574.16" rx="93.68" ry="18"/>
<text text-anchor="middle" x="239.6" y="-570.46" font-family="FreeSans" font-size="14.00" fill="#6666ff">Metamodel::Stashing</text>
</a>
</g>
</g>
<!-- Metamodel::AttributeContainer -->
<g id="node8" class="node">
<title>Metamodel::AttributeContainer</title>
<g id="a_node8"><a xlink:href="/type/Metamodel::AttributeContainer" xlink:title="Metamodel::AttributeContainer">
<ellipse fill="none" stroke="#6666ff" cx="1275.51" cy="-861.5" rx="129.98" ry="18"/>
<text text-anchor="middle" x="1275.51" y="-857.8" font-family="FreeSans" font-size="14.00" fill="#6666ff">Metamodel::AttributeContainer</text>
</a>
</g>
</g>
<!-- Metamodel::MethodContainer -->
<g id="node9" class="node">
<title>Metamodel::MethodContainer</title>
<g id="a_node9"><a xlink:href="/type/Metamodel::MethodContainer" xlink:title="Metamodel::MethodContainer">
<ellipse fill="none" stroke="#6666ff" cx="458.42" cy="-530.15" rx="127.28" ry="18"/>
<text text-anchor="middle" x="458.42" y="-526.45" font-family="FreeSans" font-size="14.00" fill="#6666ff">Metamodel::MethodContainer</text>
</a>
</g>
</g>
<!-- Metamodel::PrivateMethodContainer -->
<g id="node10" class="node">
<title>Metamodel::PrivateMethodContainer</title>
<g id="a_node10"><a xlink:href="/type/Metamodel::PrivateMethodContainer" xlink:title="Metamodel::PrivateMethodContainer">
<ellipse fill="none" stroke="#6666ff" cx="756.61" cy="-539.97" rx="154.87" ry="18"/>
<text text-anchor="middle" x="756.61" y="-536.27" font-family="FreeSans" font-size="14.00" fill="#6666ff">Metamodel::PrivateMethodContainer</text>
</a>
</g>
</g>
<!-- Metamodel::MultiMethodContainer -->
<g id="node11" class="node">
<title>Metamodel::MultiMethodContainer</title>
<g id="a_node11"><a xlink:href="/type/Metamodel::MultiMethodContainer" xlink:title="Metamodel::MultiMethodContainer">
<ellipse fill="none" stroke="#6666ff" cx="601.58" cy="-386.33" rx="146.47" ry="18"/>
<text text-anchor="middle" x="601.58" y="-382.63" font-family="FreeSans" font-size="14.00" fill="#6666ff">Metamodel::MultiMethodContainer</text>
</a>
</g>
</g>
<!-- Metamodel::RoleContainer -->
<g id="node12" class="node">
<title>Metamodel::RoleContainer</title>
<g id="a_node12"><a xlink:href="/type/Metamodel::RoleContainer" xlink:title="Metamodel::RoleContainer">
<ellipse fill="none" stroke="#6666ff" cx="115.69" cy="-892.74" rx="115.88" ry="18"/>
<text text-anchor="middle" x="115.69" y="-889.04" font-family="FreeSans" font-size="14.00" fill="#6666ff">Metamodel::RoleContainer</text>
</a>
</g>
</g>
<!-- Metamodel::MultipleInheritance -->
<g id="node13" class="node">
<title>Metamodel::MultipleInheritance</title>
<g id="a_node13"><a xlink:href="/type/Metamodel::MultipleInheritance" xlink:title="Metamodel::MultipleInheritance">
<ellipse fill="none" stroke="#6666ff" cx="1299.2" cy="-1087.12" rx="133.78" ry="18"/>
<text text-anchor="middle" x="1299.2" y="-1083.42" font-family="FreeSans" font-size="14.00" fill="#6666ff">Metamodel::MultipleInheritance</text>
</a>
</g>
</g>
<!-- Metamodel::DefaultParent -->
<g id="node14" class="node">
<title>Metamodel::DefaultParent</title>
<g id="a_node14"><a xlink:href="/type/Metamodel::DefaultParent" xlink:title="Metamodel::DefaultParent">
<ellipse fill="none" stroke="#6666ff" cx="1124.43" cy="-1417.29" rx="113.18" ry="18"/>
<text text-anchor="middle" x="1124.43" y="-1413.59" font-family="FreeSans" font-size="14.00" fill="#6666ff">Metamodel::DefaultParent</text>
</a>
</g>
</g>
<!-- Metamodel::C3MRO -->
<g id="node15" class="node">
<title>Metamodel::C3MRO</title>
<g id="a_node15"><a xlink:href="/type/Metamodel::C3MRO" xlink:title="Metamodel::C3MRO">
<ellipse fill="none" stroke="#6666ff" cx="873.05" cy="-1552.48" rx="92.08" ry="18"/>
<text text-anchor="middle" x="873.05" y="-1548.78" font-family="FreeSans" font-size="14.00" fill="#6666ff">Metamodel::C3MRO</text>
</a>
</g>
</g>
<!-- Metamodel::MROBasedMethodDispatch -->
<g id="node16" class="node">
<title>Metamodel::MROBasedMethodDispatch</title>
<g id="a_node16"><a xlink:href="/type/Metamodel::MROBasedMethodDispatch" xlink:title="Metamodel::MROBasedMethodDispatch">
<ellipse fill="none" stroke="#6666ff" cx="1000.97" cy="-807.33" rx="169.77" ry="18"/>
<text text-anchor="middle" x="1000.97" y="-803.63" font-family="FreeSans" font-size="14.00" fill="#6666ff">Metamodel::MROBasedMethodDispatch</text>
</a>
</g>
</g>
<!-- Metamodel::MROBasedTypeChecking -->
<g id="node17" class="node">
<title>Metamodel::MROBasedTypeChecking</title>
<g id="a_node17"><a xlink:href="/type/Metamodel::MROBasedTypeChecking" xlink:title="Metamodel::MROBasedTypeChecking">
<ellipse fill="none" stroke="#6666ff" cx="1147.41" cy="-639.92" rx="163.27" ry="18"/>
<text text-anchor="middle" x="1147.41" y="-636.22" font-family="FreeSans" font-size="14.00" fill="#6666ff">Metamodel::MROBasedTypeChecking</text>
</a>
</g>
</g>
<!-- Metamodel::Trusting -->
<g id="node18" class="node">
<title>Metamodel::Trusting</title>
<g id="a_node18"><a xlink:href="/type/Metamodel::Trusting" xlink:title="Metamodel::Trusting">
<ellipse fill="none" stroke="#6666ff" cx="221.58" cy="-1314.95" rx="91.78" ry="18"/>
<text text-anchor="middle" x="221.58" y="-1311.25" font-family="FreeSans" font-size="14.00" fill="#6666ff">Metamodel::Trusting</text>
</a>
</g>
</g>
<!-- Metamodel::BUILDPLAN -->
<g id="node19" class="node">
<title>Metamodel::BUILDPLAN</title>
<g id="a_node19"><a xlink:href="/type/Metamodel::BUILDPLAN" xlink:title="Metamodel::BUILDPLAN">
<ellipse fill="none" stroke="#6666ff" cx="166.08" cy="-1097.67" rx="109.68" ry="18"/>
<text text-anchor="middle" x="166.08" y="-1093.97" font-family="FreeSans" font-size="14.00" fill="#6666ff">Metamodel::BUILDPLAN</text>
</a>
</g>
</g>
<!-- Metamodel::Mixins -->
<g id="node20" class="node">
<title>Metamodel::Mixins</title>
<g id="a_node20"><a xlink:href="/type/Metamodel::Mixins" xlink:title="Metamodel::Mixins">
<ellipse fill="none" stroke="#6666ff" cx="417.98" cy="-1482.91" rx="85.29" ry="18"/>
<text text-anchor="middle" x="417.98" y="-1479.21" font-family="FreeSans" font-size="14.00" fill="#6666ff">Metamodel::Mixins</text>
</a>
</g>
</g>
<!-- Metamodel::BoolificationProtocol -->
<g id="node21" class="node">
<title>Metamodel::BoolificationProtocol</title>
<g id="a_node21"><a xlink:href="/type/Metamodel::BoolificationProtocol" xlink:title="Metamodel::BoolificationProtocol">
<ellipse fill="none" stroke="#6666ff" cx="859.67" cy="-1327.67" rx="139.18" ry="18"/>
<text text-anchor="middle" x="859.67" y="-1323.97" font-family="FreeSans" font-size="14.00" fill="#6666ff">Metamodel::BoolificationProtocol</text>
</a>
</g>
</g>
<!-- Metamodel::ClassHOW -->
<g id="node22" class="node">
<title>Metamodel::ClassHOW</title>
<g id="a_node22"><a xlink:href="/type/Metamodel::ClassHOW" xlink:title="Metamodel::ClassHOW">
<ellipse fill="none" stroke="#000000" cx="704.57" cy="-971.27" rx="103.18" ry="18"/>
<text text-anchor="middle" x="704.57" y="-967.57" font-family="FreeSans" font-size="14.00" fill="#000000">Metamodel::ClassHOW</text>
</a>
</g>
</g>
<!-- Metamodel::ClassHOW&#45;&gt;Metamodel::Finalization -->
<g id="edge8" class="edge">
<title>Metamodel::ClassHOW&#45;&gt;Metamodel::Finalization</title>
<path fill="none" stroke="#6666ff" d="M667.12,-954.32C591.35,-920.03 420.07,-842.52 337.27,-805.05"/>
<polygon fill="#6666ff" stroke="#6666ff" points="338.66,-801.83 328.1,-800.9 335.77,-808.21 338.66,-801.83"/>
</g>
<!-- Metamodel::ClassHOW&#45;&gt;Any -->
<g id="edge2" class="edge">
<title>Metamodel::ClassHOW&#45;&gt;Any</title>
<path fill="none" stroke="#000000" d="M714.16,-953.08C757.24,-871.35 932.99,-537.9 983.88,-441.34"/>
<polygon fill="#000000" stroke="#000000" points="987.1,-442.73 988.67,-432.25 980.91,-439.47 987.1,-442.73"/>
</g>
<!-- Metamodel::ClassHOW&#45;&gt;Metamodel::Naming -->
<g id="edge3" class="edge">
<title>Metamodel::ClassHOW&#45;&gt;Metamodel::Naming</title>
<path fill="none" stroke="#6666ff" d="M702.25,-989.57C691.77,-1072.33 648.75,-1411.84 635.99,-1512.52"/>
<polygon fill="#6666ff" stroke="#6666ff" points="632.51,-1512.19 634.72,-1522.55 639.45,-1513.07 632.51,-1512.19"/>
</g>
<!-- Metamodel::ClassHOW&#45;&gt;Metamodel::Documenting -->
<g id="edge4" class="edge">
<title>Metamodel::ClassHOW&#45;&gt;Metamodel::Documenting</title>
<path fill="none" stroke="#6666ff" d="M737.19,-988.42C815.56,-1029.61 1014.39,-1134.13 1101.43,-1179.88"/>
<polygon fill="#6666ff" stroke="#6666ff" points="1100.01,-1183.09 1110.49,-1184.65 1103.27,-1176.89 1100.01,-1183.09"/>
</g>
<!-- Metamodel::ClassHOW&#45;&gt;Metamodel::Versioning -->
<g id="edge5" class="edge">
<title>Metamodel::ClassHOW&#45;&gt;Metamodel::Versioning</title>
<path fill="none" stroke="#6666ff" d="M686.55,-989.24C642.56,-1033.08 529.63,-1145.64 479.06,-1196.04"/>
<polygon fill="#6666ff" stroke="#6666ff" points="476.4,-1193.75 471.79,-1203.29 481.34,-1198.71 476.4,-1193.75"/>
</g>
<!-- Metamodel::ClassHOW&#45;&gt;Metamodel::Stashing -->
<g id="edge6" class="edge">
<title>Metamodel::ClassHOW&#45;&gt;Metamodel::Stashing</title>
<path fill="none" stroke="#6666ff" d="M683.69,-953.43C608.88,-889.54 354.17,-672.01 268.2,-598.59"/>
<polygon fill="#6666ff" stroke="#6666ff" points="270.3,-595.78 260.42,-591.94 265.75,-601.1 270.3,-595.78"/>
</g>
<!-- Metamodel::ClassHOW&#45;&gt;Metamodel::AttributeContainer -->
<g id="edge7" class="edge">
<title>Metamodel::ClassHOW&#45;&gt;Metamodel::AttributeContainer</title>
<path fill="none" stroke="#6666ff" d="M774.01,-957.92C878.44,-937.84 1075.75,-899.91 1189.26,-878.08"/>
<polygon fill="#6666ff" stroke="#6666ff" points="1190.14,-881.48 1199.3,-876.15 1188.82,-874.6 1190.14,-881.48"/>
</g>
<!-- Metamodel::ClassHOW&#45;&gt;Metamodel::MethodContainer -->
<g id="edge9" class="edge">
<title>Metamodel::ClassHOW&#45;&gt;Metamodel::MethodContainer</title>
<path fill="none" stroke="#6666ff" d="M694.47,-953.15C656.13,-884.45 519.55,-639.7 473.61,-557.39"/>
<polygon fill="#6666ff" stroke="#6666ff" points="476.4,-555.2 468.47,-548.18 470.29,-558.61 476.4,-555.2"/>
</g>
<!-- Metamodel::ClassHOW&#45;&gt;Metamodel::PrivateMethodContainer -->
<g id="edge10" class="edge">
<title>Metamodel::ClassHOW&#45;&gt;Metamodel::PrivateMethodContainer</title>
<path fill="none" stroke="#6666ff" d="M706.78,-953.01C714.92,-885.5 743.38,-649.65 753.23,-568.02"/>
<polygon fill="#6666ff" stroke="#6666ff" points="756.72,-568.34 754.44,-557.99 749.77,-567.5 756.72,-568.34"/>
</g>
<!-- Metamodel::ClassHOW&#45;&gt;Metamodel::MultiMethodContainer -->
<g id="edge11" class="edge">
<title>Metamodel::ClassHOW&#45;&gt;Metamodel::MultiMethodContainer</title>
<path fill="none" stroke="#6666ff" d="M700.23,-953.28C680.5,-871.63 600.33,-539.83 600.33,-539.83 600.33,-539.83 600.99,-459.07 601.35,-414.71"/>
<polygon fill="#6666ff" stroke="#6666ff" points="604.85,-414.57 601.43,-404.54 597.85,-414.51 604.85,-414.57"/>
</g>
<!-- Metamodel::ClassHOW&#45;&gt;Metamodel::RoleContainer -->
<g id="edge12" class="edge">
<title>Metamodel::ClassHOW&#45;&gt;Metamodel::RoleContainer</title>
<path fill="none" stroke="#6666ff" d="M622.38,-960.31C515.39,-946.04 328.58,-921.13 214.14,-905.87"/>
<polygon fill="#6666ff" stroke="#6666ff" points="214.35,-902.36 203.98,-904.51 213.43,-909.3 214.35,-902.36"/>
</g>
<!-- Metamodel::ClassHOW&#45;&gt;Metamodel::MultipleInheritance -->
<g id="edge13" class="edge">
<title>Metamodel::ClassHOW&#45;&gt;Metamodel::MultipleInheritance</title>
<path fill="none" stroke="#6666ff" d="M773.66,-984.73C882.49,-1005.93 1093.69,-1047.08 1212.54,-1070.24"/>
<polygon fill="#6666ff" stroke="#6666ff" points="1212.21,-1073.74 1222.69,-1072.22 1213.55,-1066.87 1212.21,-1073.74"/>
</g>
<!-- Metamodel::ClassHOW&#45;&gt;Metamodel::DefaultParent -->
<g id="edge14" class="edge">
<title>Metamodel::ClassHOW&#45;&gt;Metamodel::DefaultParent</title>
<path fill="none" stroke="#6666ff" d="M721.55,-989.31C787.09,-1058.93 1023.76,-1310.34 1100.34,-1391.7"/>
<polygon fill="#6666ff" stroke="#6666ff" points="1097.84,-1394.14 1107.24,-1399.03 1102.93,-1389.35 1097.84,-1394.14"/>
</g>
<!-- Metamodel::ClassHOW&#45;&gt;Metamodel::C3MRO -->
<g id="edge15" class="edge">
<title>Metamodel::ClassHOW&#45;&gt;Metamodel::C3MRO</title>
<path fill="none" stroke="#6666ff" d="M705.31,-989.43C708.24,-1062.05 718.98,-1327.63 718.98,-1327.63 718.98,-1327.63 814.13,-1466.48 854.88,-1525.96"/>
<polygon fill="#6666ff" stroke="#6666ff" points="852.17,-1528.19 860.71,-1534.46 857.94,-1524.23 852.17,-1528.19"/>
</g>
<!-- Metamodel::ClassHOW&#45;&gt;Metamodel::MROBasedMethodDispatch -->
<g id="edge16" class="edge">
<title>Metamodel::ClassHOW&#45;&gt;Metamodel::MROBasedMethodDispatch</title>
<path fill="none" stroke="#6666ff" d="M735.73,-954.03C789.59,-924.24 900.09,-863.13 960.06,-829.96"/>
<polygon fill="#6666ff" stroke="#6666ff" points="961.83,-832.98 968.88,-825.08 958.44,-826.85 961.83,-832.98"/>
</g>
<!-- Metamodel::ClassHOW&#45;&gt;Metamodel::MROBasedTypeChecking -->
<g id="edge17" class="edge">
<title>Metamodel::ClassHOW&#45;&gt;Metamodel::MROBasedTypeChecking</title>
<path fill="none" stroke="#6666ff" d="M718.21,-953.41C750.64,-910.91 829.73,-807.28 829.73,-807.28 829.73,-807.28 1017.99,-708.1 1104.66,-662.44"/>
<polygon fill="#6666ff" stroke="#6666ff" points="1106.5,-665.43 1113.71,-657.67 1103.23,-659.24 1106.5,-665.43"/>
</g>
<!-- Metamodel::ClassHOW&#45;&gt;Metamodel::Trusting -->
<g id="edge18" class="edge">
<title>Metamodel::ClassHOW&#45;&gt;Metamodel::Trusting</title>
<path fill="none" stroke="#6666ff" d="M679.75,-988.82C599.41,-1045.65 351.59,-1220.9 351.59,-1220.9 351.59,-1220.9 292.59,-1263.59 254.08,-1291.44"/>
<polygon fill="#6666ff" stroke="#6666ff" points="251.78,-1288.79 245.73,-1297.49 255.88,-1294.46 251.78,-1288.79"/>
</g>
<!-- Metamodel::ClassHOW&#45;&gt;Metamodel::BUILDPLAN -->
<g id="edge19" class="edge">
<title>Metamodel::ClassHOW&#45;&gt;Metamodel::BUILDPLAN</title>
<path fill="none" stroke="#6666ff" d="M642.8,-985.77C542.84,-1009.23 346.08,-1055.42 239.26,-1080.49"/>
<polygon fill="#6666ff" stroke="#6666ff" points="238.14,-1077.16 229.21,-1082.85 239.74,-1083.98 238.14,-1077.16"/>
</g>
<!-- Metamodel::ClassHOW&#45;&gt;Metamodel::Mixins -->
<g id="edge20" class="edge">
<title>Metamodel::ClassHOW&#45;&gt;Metamodel::Mixins</title>
<path fill="none" stroke="#6666ff" d="M694.37,-989.48C651.32,-1066.33 484.36,-1364.41 433.06,-1455.99"/>
<polygon fill="#6666ff" stroke="#6666ff" points="429.89,-1454.48 428.05,-1464.92 436,-1457.9 429.89,-1454.48"/>
</g>
<!-- Metamodel::ClassHOW&#45;&gt;Metamodel::BoolificationProtocol -->
<g id="edge21" class="edge">
<title>Metamodel::ClassHOW&#45;&gt;Metamodel::BoolificationProtocol</title>
<path fill="none" stroke="#6666ff" d="M712.48,-989.43C737.84,-1047.7 817.26,-1230.21 847.66,-1300.08"/>
<polygon fill="#6666ff" stroke="#6666ff" points="844.58,-1301.77 851.78,-1309.54 851,-1298.97 844.58,-1301.77"/>
</g>
</g>
</svg>
