<?xml version="1.0" encoding="UTF-8" standalone="no"?>
<!DOCTYPE svg PUBLIC "-//W3C//DTD SVG 1.1//EN"
 "http://www.w3.org/Graphics/SVG/1.1/DTD/svg11.dtd">
<!-- Generated by graphviz version 2.43.0 (0)
 -->
<!-- Title: perl6&#45;type&#45;graph Pages: 1 -->
<svg width="2212pt" height="1662pt"
 viewBox="0.00 0.00 2212.14 1662.05" xmlns="http://www.w3.org/2000/svg" xmlns:xlink="http://www.w3.org/1999/xlink">
<g id="graph0" class="graph" transform="scale(1 1) rotate(0) translate(4 1658.05)">
<title>perl6&#45;type&#45;graph</title>
<polygon fill="white" stroke="transparent" points="-4,4 -4,-1658.05 2208.14,-1658.05 2208.14,4 -4,4"/>
<!-- Metamodel::Versioning -->
<g id="node1" class="node">
<title>Metamodel::Versioning</title>
<g id="a_node1"><a xlink:href="/type/Metamodel::Versioning" xlink:title="Metamodel::Versioning">
<ellipse fill="none" stroke="#6666ff" cx="1243.15" cy="-745.87" rx="100.98" ry="18"/>
<text text-anchor="middle" x="1243.15" y="-742.17" font-family="FreeSans" font-size="14.00" fill="#6666ff">Metamodel::Versioning</text>
</a>
</g>
</g>
<!-- Mu -->
<g id="node2" class="node">
<title>Mu</title>
<g id="a_node2"><a xlink:href="/type/Mu" xlink:title="Mu">
<ellipse fill="none" stroke="#000000" cx="1223.44" cy="-18" rx="27" ry="18"/>
<text text-anchor="middle" x="1223.44" y="-14.3" font-family="FreeSans" font-size="14.00" fill="#000000">Mu</text>
</a>
</g>
</g>
<!-- Any -->
<g id="node3" class="node">
<title>Any</title>
<g id="a_node3"><a xlink:href="/type/Any" xlink:title="Any">
<ellipse fill="none" stroke="#000000" cx="1169.17" cy="-537.75" rx="27" ry="18"/>
<text text-anchor="middle" x="1169.17" y="-534.05" font-family="FreeSans" font-size="14.00" fill="#000000">Any</text>
</a>
</g>
</g>
<!-- Any&#45;&gt;Mu -->
<g id="edge1" class="edge">
<title>Any&#45;&gt;Mu</title>
<path fill="none" stroke="#000000" d="M1171.07,-519.56C1179.14,-442.22 1210.66,-140.4 1220.49,-46.23"/>
<polygon fill="#000000" stroke="#000000" points="1224,-46.36 1221.55,-36.05 1217.03,-45.63 1224,-46.36"/>
</g>
<!-- Metamodel::Naming -->
<g id="node4" class="node">
<title>Metamodel::Naming</title>
<g id="a_node4"><a xlink:href="/type/Metamodel::Naming" xlink:title="Metamodel::Naming">
<ellipse fill="none" stroke="#6666ff" cx="1187.88" cy="-1123.26" rx="90.18" ry="18"/>
<text text-anchor="middle" x="1187.88" y="-1119.56" font-family="FreeSans" font-size="14.00" fill="#6666ff">Metamodel::Naming</text>
</a>
</g>
</g>
<!-- Metamodel::PrivateMethodContainer -->
<g id="node5" class="node">
<title>Metamodel::PrivateMethodContainer</title>
<g id="a_node5"><a xlink:href="/type/Metamodel::PrivateMethodContainer" xlink:title="Metamodel::PrivateMethodContainer">
<ellipse fill="none" stroke="#6666ff" cx="837.3" cy="-1295.87" rx="154.87" ry="18"/>
<text text-anchor="middle" x="837.3" y="-1292.17" font-family="FreeSans" font-size="14.00" fill="#6666ff">Metamodel::PrivateMethodContainer</text>
</a>
</g>
</g>
<!-- Metamodel::MethodContainer -->
<g id="node6" class="node">
<title>Metamodel::MethodContainer</title>
<g id="a_node6"><a xlink:href="/type/Metamodel::MethodContainer" xlink:title="Metamodel::MethodContainer">
<ellipse fill="none" stroke="#6666ff" cx="497.95" cy="-1056.64" rx="127.28" ry="18"/>
<text text-anchor="middle" x="497.95" y="-1052.94" font-family="FreeSans" font-size="14.00" fill="#6666ff">Metamodel::MethodContainer</text>
</a>
</g>
</g>
<!-- Metamodel::MultiMethodContainer -->
<g id="node7" class="node">
<title>Metamodel::MultiMethodContainer</title>
<g id="a_node7"><a xlink:href="/type/Metamodel::MultiMethodContainer" xlink:title="Metamodel::MultiMethodContainer">
<ellipse fill="none" stroke="#6666ff" cx="486.14" cy="-757.85" rx="146.47" ry="18"/>
<text text-anchor="middle" x="486.14" y="-754.15" font-family="FreeSans" font-size="14.00" fill="#6666ff">Metamodel::MultiMethodContainer</text>
</a>
</g>
</g>
<!-- Metamodel::AttributeContainer -->
<g id="node8" class="node">
<title>Metamodel::AttributeContainer</title>
<g id="a_node8"><a xlink:href="/type/Metamodel::AttributeContainer" xlink:title="Metamodel::AttributeContainer">
<ellipse fill="none" stroke="#6666ff" cx="636.28" cy="-801.88" rx="129.98" ry="18"/>
<text text-anchor="middle" x="636.28" y="-798.18" font-family="FreeSans" font-size="14.00" fill="#6666ff">Metamodel::AttributeContainer</text>
</a>
</g>
</g>
<!-- Metamodel::RoleContainer -->
<g id="node9" class="node">
<title>Metamodel::RoleContainer</title>
<g id="a_node9"><a xlink:href="/type/Metamodel::RoleContainer" xlink:title="Metamodel::RoleContainer">
<ellipse fill="none" stroke="#6666ff" cx="560.16" cy="-578.63" rx="115.88" ry="18"/>
<text text-anchor="middle" x="560.16" y="-574.93" font-family="FreeSans" font-size="14.00" fill="#6666ff">Metamodel::RoleContainer</text>
</a>
</g>
</g>
<!-- Metamodel::MultipleInheritance -->
<g id="node10" class="node">
<title>Metamodel::MultipleInheritance</title>
<g id="a_node10"><a xlink:href="/type/Metamodel::MultipleInheritance" xlink:title="Metamodel::MultipleInheritance">
<ellipse fill="none" stroke="#6666ff" cx="906.42" cy="-845.91" rx="133.78" ry="18"/>
<text text-anchor="middle" x="906.42" y="-842.21" font-family="FreeSans" font-size="14.00" fill="#6666ff">Metamodel::MultipleInheritance</text>
</a>
</g>
</g>
<!-- Metamodel::ConcreteRoleHOW -->
<g id="node11" class="node">
<title>Metamodel::ConcreteRoleHOW</title>
<g id="a_node11"><a xlink:href="/type/Metamodel::ConcreteRoleHOW" xlink:title="Metamodel::ConcreteRoleHOW">
<ellipse fill="none" stroke="#000000" cx="867.12" cy="-554.29" rx="135.38" ry="18"/>
<text text-anchor="middle" x="867.12" y="-550.59" font-family="FreeSans" font-size="14.00" fill="#000000">Metamodel::ConcreteRoleHOW</text>
</a>
</g>
</g>
<!-- Metamodel::ConcreteRoleHOW&#45;&gt;Metamodel::Versioning -->
<g id="edge8" class="edge">
<title>Metamodel::ConcreteRoleHOW&#45;&gt;Metamodel::Versioning</title>
<path fill="none" stroke="#6666ff" d="M890.89,-572.12C936.75,-606.53 1032.98,-678.73 1032.98,-678.73 1032.98,-678.73 1065.46,-692.63 1065.46,-692.63 1065.46,-692.63 1130.22,-712.03 1181.54,-727.41"/>
<polygon fill="#6666ff" stroke="#6666ff" points="1180.69,-730.81 1191.28,-730.33 1182.7,-724.1 1180.69,-730.81"/>
</g>
<!-- Metamodel::ConcreteRoleHOW&#45;&gt;Any -->
<g id="edge2" class="edge">
<title>Metamodel::ConcreteRoleHOW&#45;&gt;Any</title>
<path fill="none" stroke="#000000" d="M992.16,-547.44C1042.61,-544.68 1097.04,-541.7 1132.03,-539.79"/>
<polygon fill="#000000" stroke="#000000" points="1132.44,-543.27 1142.24,-539.23 1132.06,-536.28 1132.44,-543.27"/>
</g>
<!-- Metamodel::ConcreteRoleHOW&#45;&gt;Metamodel::Naming -->
<g id="edge7" class="edge">
<title>Metamodel::ConcreteRoleHOW&#45;&gt;Metamodel::Naming</title>
<path fill="none" stroke="#6666ff" d="M883.13,-572.19C953.76,-651.21 1234.11,-964.82 1234.11,-964.82 1234.11,-964.82 1209.34,-1049.73 1196.06,-1095.23"/>
<polygon fill="#6666ff" stroke="#6666ff" points="1192.63,-1094.51 1193.19,-1105.09 1199.35,-1096.47 1192.63,-1094.51"/>
</g>
<!-- Metamodel::ConcreteRoleHOW&#45;&gt;Metamodel::PrivateMethodContainer -->
<g id="edge9" class="edge">
<title>Metamodel::ConcreteRoleHOW&#45;&gt;Metamodel::PrivateMethodContainer</title>
<path fill="none" stroke="#6666ff" d="M861.11,-572.52C840.05,-636.34 770.94,-845.77 770.94,-845.77 770.94,-845.77 841.83,-1066.59 841.83,-1066.59 841.83,-1066.59 839.08,-1205.86 837.86,-1267.32"/>
<polygon fill="#6666ff" stroke="#6666ff" points="834.36,-1267.43 837.66,-1277.5 841.36,-1267.57 834.36,-1267.43"/>
</g>
<!-- Metamodel::ConcreteRoleHOW&#45;&gt;Metamodel::MethodContainer -->
<g id="edge10" class="edge">
<title>Metamodel::ConcreteRoleHOW&#45;&gt;Metamodel::MethodContainer</title>
<path fill="none" stroke="#6666ff" d="M859.82,-572.5C836.9,-629.68 767.86,-801.89 767.86,-801.89 767.86,-801.89 592.17,-967.71 524.29,-1031.79"/>
<polygon fill="#6666ff" stroke="#6666ff" points="521.8,-1029.32 516.93,-1038.73 526.61,-1034.41 521.8,-1029.32"/>
</g>
<!-- Metamodel::ConcreteRoleHOW&#45;&gt;Metamodel::MultiMethodContainer -->
<g id="edge11" class="edge">
<title>Metamodel::ConcreteRoleHOW&#45;&gt;Metamodel::MultiMethodContainer</title>
<path fill="none" stroke="#6666ff" d="M834.31,-571.82C765.11,-608.8 604.3,-694.71 527.89,-735.54"/>
<polygon fill="#6666ff" stroke="#6666ff" points="526.18,-732.48 519.01,-740.28 529.48,-738.66 526.18,-732.48"/>
</g>
<!-- Metamodel::ConcreteRoleHOW&#45;&gt;Metamodel::AttributeContainer -->
<g id="edge12" class="edge">
<title>Metamodel::ConcreteRoleHOW&#45;&gt;Metamodel::AttributeContainer</title>
<path fill="none" stroke="#6666ff" d="M850.15,-572.5C809.53,-616.06 706.64,-726.41 659.96,-776.48"/>
<polygon fill="#6666ff" stroke="#6666ff" points="657.22,-774.28 652.96,-783.98 662.34,-779.05 657.22,-774.28"/>
</g>
<!-- Metamodel::ConcreteRoleHOW&#45;&gt;Metamodel::RoleContainer -->
<g id="edge13" class="edge">
<title>Metamodel::ConcreteRoleHOW&#45;&gt;Metamodel::RoleContainer</title>
<path fill="none" stroke="#6666ff" d="M750.64,-563.53C725.44,-565.52 698.84,-567.63 673.76,-569.62"/>
<polygon fill="#6666ff" stroke="#6666ff" points="673.18,-566.15 663.49,-570.43 673.73,-573.13 673.18,-566.15"/>
</g>
<!-- Metamodel::ConcreteRoleHOW&#45;&gt;Metamodel::MultipleInheritance -->
<g id="edge14" class="edge">
<title>Metamodel::ConcreteRoleHOW&#45;&gt;Metamodel::MultipleInheritance</title>
<path fill="none" stroke="#6666ff" d="M869.58,-572.53C876.23,-621.84 894.58,-758.02 902.59,-817.5"/>
<polygon fill="#6666ff" stroke="#6666ff" points="899.16,-818.23 903.96,-827.68 906.1,-817.3 899.16,-818.23"/>
</g>
<!-- Metamodel::Documenting -->
<g id="node12" class="node">
<title>Metamodel::Documenting</title>
<g id="a_node12"><a xlink:href="/type/Metamodel::Documenting" xlink:title="Metamodel::Documenting">
<ellipse fill="none" stroke="#6666ff" cx="1145.72" cy="-678.86" rx="111.28" ry="18"/>
<text text-anchor="middle" x="1145.72" y="-675.16" font-family="FreeSans" font-size="14.00" fill="#6666ff">Metamodel::Documenting</text>
</a>
</g>
</g>
<!-- Metamodel::Stashing -->
<g id="node13" class="node">
<title>Metamodel::Stashing</title>
<g id="a_node13"><a xlink:href="/type/Metamodel::Stashing" xlink:title="Metamodel::Stashing">
<ellipse fill="none" stroke="#6666ff" cx="1287.67" cy="-1275.81" rx="93.68" ry="18"/>
<text text-anchor="middle" x="1287.67" y="-1272.11" font-family="FreeSans" font-size="14.00" fill="#6666ff">Metamodel::Stashing</text>
</a>
</g>
</g>
<!-- Metamodel::C3MRO -->
<g id="node14" class="node">
<title>Metamodel::C3MRO</title>
<g id="a_node14"><a xlink:href="/type/Metamodel::C3MRO" xlink:title="Metamodel::C3MRO">
<ellipse fill="none" stroke="#6666ff" cx="1114.24" cy="-1518.77" rx="92.08" ry="18"/>
<text text-anchor="middle" x="1114.24" y="-1515.07" font-family="FreeSans" font-size="14.00" fill="#6666ff">Metamodel::C3MRO</text>
</a>
</g>
</g>
<!-- Metamodel::MROBasedMethodDispatch -->
<g id="node15" class="node">
<title>Metamodel::MROBasedMethodDispatch</title>
<g id="a_node15"><a xlink:href="/type/Metamodel::MROBasedMethodDispatch" xlink:title="Metamodel::MROBasedMethodDispatch">
<ellipse fill="none" stroke="#6666ff" cx="844.29" cy="-1557.01" rx="169.77" ry="18"/>
<text text-anchor="middle" x="844.29" y="-1553.31" font-family="FreeSans" font-size="14.00" fill="#6666ff">Metamodel::MROBasedMethodDispatch</text>
</a>
</g>
</g>
<!-- Metamodel::MROBasedTypeChecking -->
<g id="node16" class="node">
<title>Metamodel::MROBasedTypeChecking</title>
<g id="a_node16"><a xlink:href="/type/Metamodel::MROBasedTypeChecking" xlink:title="Metamodel::MROBasedTypeChecking">
<ellipse fill="none" stroke="#6666ff" cx="719.89" cy="-458.3" rx="163.27" ry="18"/>
<text text-anchor="middle" x="719.89" y="-454.6" font-family="FreeSans" font-size="14.00" fill="#6666ff">Metamodel::MROBasedTypeChecking</text>
</a>
</g>
</g>
<!-- Metamodel::NativeHOW -->
<g id="node17" class="node">
<title>Metamodel::NativeHOW</title>
<g id="a_node17"><a xlink:href="/type/Metamodel::NativeHOW" xlink:title="Metamodel::NativeHOW">
<ellipse fill="none" stroke="#000000" cx="1354.01" cy="-991.43" rx="106.68" ry="18"/>
<text text-anchor="middle" x="1354.01" y="-987.73" font-family="FreeSans" font-size="14.00" fill="#000000">Metamodel::NativeHOW</text>
</a>
</g>
</g>
<!-- Metamodel::NativeHOW&#45;&gt;Metamodel::Versioning -->
<g id="edge17" class="edge">
<title>Metamodel::NativeHOW&#45;&gt;Metamodel::Versioning</title>
<path fill="none" stroke="#6666ff" d="M1345.86,-973.37C1326.64,-930.8 1278.39,-823.93 1255.53,-773.29"/>
<polygon fill="#6666ff" stroke="#6666ff" points="1258.62,-771.63 1251.31,-763.95 1252.24,-774.51 1258.62,-771.63"/>
</g>
<!-- Metamodel::NativeHOW&#45;&gt;Any -->
<g id="edge3" class="edge">
<title>Metamodel::NativeHOW&#45;&gt;Any</title>
<path fill="none" stroke="#000000" d="M1353.39,-973.39C1351.42,-916.72 1345.49,-746.05 1345.49,-746.05 1345.49,-746.05 1235.57,-616.2 1189.31,-561.55"/>
<polygon fill="#000000" stroke="#000000" points="1191.84,-559.12 1182.71,-553.75 1186.5,-563.65 1191.84,-559.12"/>
</g>
<!-- Metamodel::NativeHOW&#45;&gt;Metamodel::Naming -->
<g id="edge15" class="edge">
<title>Metamodel::NativeHOW&#45;&gt;Metamodel::Naming</title>
<path fill="none" stroke="#6666ff" d="M1331.61,-1009.21C1302.22,-1032.54 1250.54,-1073.54 1217.82,-1099.51"/>
<polygon fill="#6666ff" stroke="#6666ff" points="1215.59,-1096.81 1209.93,-1105.76 1219.94,-1102.29 1215.59,-1096.81"/>
</g>
<!-- Metamodel::NativeHOW&#45;&gt;Metamodel::MultipleInheritance -->
<g id="edge19" class="edge">
<title>Metamodel::NativeHOW&#45;&gt;Metamodel::MultipleInheritance</title>
<path fill="none" stroke="#6666ff" d="M1304.83,-975.44C1222.53,-948.68 1057.12,-894.91 967.5,-865.77"/>
<polygon fill="#6666ff" stroke="#6666ff" points="968.34,-862.36 957.75,-862.6 966.17,-869.02 968.34,-862.36"/>
</g>
<!-- Metamodel::NativeHOW&#45;&gt;Metamodel::Documenting -->
<g id="edge16" class="edge">
<title>Metamodel::NativeHOW&#45;&gt;Metamodel::Documenting</title>
<path fill="none" stroke="#6666ff" d="M1338.34,-973.36C1289.1,-916.61 1140.81,-745.68 1140.81,-745.68 1140.81,-745.68 1142.3,-725.39 1143.64,-707.16"/>
<polygon fill="#6666ff" stroke="#6666ff" points="1147.14,-707.35 1144.38,-697.12 1140.15,-706.84 1147.14,-707.35"/>
</g>
<!-- Metamodel::NativeHOW&#45;&gt;Metamodel::Stashing -->
<g id="edge18" class="edge">
<title>Metamodel::NativeHOW&#45;&gt;Metamodel::Stashing</title>
<path fill="none" stroke="#6666ff" d="M1349.76,-1009.65C1338.48,-1058.01 1307.73,-1189.83 1294.21,-1247.81"/>
<polygon fill="#6666ff" stroke="#6666ff" points="1290.75,-1247.2 1291.89,-1257.74 1297.57,-1248.79 1290.75,-1247.2"/>
</g>
<!-- Metamodel::NativeHOW&#45;&gt;Metamodel::C3MRO -->
<g id="edge20" class="edge">
<title>Metamodel::NativeHOW&#45;&gt;Metamodel::C3MRO</title>
<path fill="none" stroke="#6666ff" d="M1343.85,-1009.5C1323.53,-1045.64 1279.82,-1123.39 1279.82,-1123.39 1279.82,-1123.39 1192.48,-1275.69 1192.48,-1275.69 1192.48,-1275.69 1143.88,-1426.69 1123.29,-1490.67"/>
<polygon fill="#6666ff" stroke="#6666ff" points="1119.86,-1489.91 1120.12,-1500.5 1126.52,-1492.06 1119.86,-1489.91"/>
</g>
<!-- Metamodel::NativeHOW&#45;&gt;Metamodel::MROBasedMethodDispatch -->
<g id="edge21" class="edge">
<title>Metamodel::NativeHOW&#45;&gt;Metamodel::MROBasedMethodDispatch</title>
<path fill="none" stroke="#6666ff" d="M1343.85,-1009.5C1323.53,-1045.64 1279.82,-1123.39 1279.82,-1123.39 1279.82,-1123.39 962.94,-1438.87 869.76,-1531.64"/>
<polygon fill="#6666ff" stroke="#6666ff" points="867.07,-1529.39 862.45,-1538.93 872,-1534.35 867.07,-1529.39"/>
</g>
<!-- Metamodel::NativeHOW&#45;&gt;Metamodel::MROBasedTypeChecking -->
<g id="edge22" class="edge">
<title>Metamodel::NativeHOW&#45;&gt;Metamodel::MROBasedTypeChecking</title>
<path fill="none" stroke="#6666ff" d="M1328.79,-973.75C1212.11,-891.94 730.34,-554.14 730.34,-554.14 730.34,-554.14 726.05,-514.79 722.96,-486.52"/>
<polygon fill="#6666ff" stroke="#6666ff" points="726.42,-485.89 721.85,-476.33 719.46,-486.65 726.42,-485.89"/>
</g>
<!-- Metamodel::Finalization -->
<g id="node18" class="node">
<title>Metamodel::Finalization</title>
<g id="a_node18"><a xlink:href="/type/Metamodel::Finalization" xlink:title="Metamodel::Finalization">
<ellipse fill="none" stroke="#6666ff" cx="399.54" cy="-1529.32" rx="103.98" ry="18"/>
<text text-anchor="middle" x="399.54" y="-1525.62" font-family="FreeSans" font-size="14.00" fill="#6666ff">Metamodel::Finalization</text>
</a>
</g>
</g>
<!-- Metamodel::DefaultParent -->
<g id="node19" class="node">
<title>Metamodel::DefaultParent</title>
<g id="a_node19"><a xlink:href="/type/Metamodel::DefaultParent" xlink:title="Metamodel::DefaultParent">
<ellipse fill="none" stroke="#6666ff" cx="113.09" cy="-949.91" rx="113.18" ry="18"/>
<text text-anchor="middle" x="113.09" y="-946.21" font-family="FreeSans" font-size="14.00" fill="#6666ff">Metamodel::DefaultParent</text>
</a>
</g>
</g>
<!-- Metamodel::Trusting -->
<g id="node20" class="node">
<title>Metamodel::Trusting</title>
<g id="a_node20"><a xlink:href="/type/Metamodel::Trusting" xlink:title="Metamodel::Trusting">
<ellipse fill="none" stroke="#6666ff" cx="248.46" cy="-1381.32" rx="91.78" ry="18"/>
<text text-anchor="middle" x="248.46" y="-1377.62" font-family="FreeSans" font-size="14.00" fill="#6666ff">Metamodel::Trusting</text>
</a>
</g>
</g>
<!-- Metamodel::BUILDPLAN -->
<g id="node21" class="node">
<title>Metamodel::BUILDPLAN</title>
<g id="a_node21"><a xlink:href="/type/Metamodel::BUILDPLAN" xlink:title="Metamodel::BUILDPLAN">
<ellipse fill="none" stroke="#6666ff" cx="145.74" cy="-1184.69" rx="109.68" ry="18"/>
<text text-anchor="middle" x="145.74" y="-1180.99" font-family="FreeSans" font-size="14.00" fill="#6666ff">Metamodel::BUILDPLAN</text>
</a>
</g>
</g>
<!-- Metamodel::Mixins -->
<g id="node22" class="node">
<title>Metamodel::Mixins</title>
<g id="a_node22"><a xlink:href="/type/Metamodel::Mixins" xlink:title="Metamodel::Mixins">
<ellipse fill="none" stroke="#6666ff" cx="172.94" cy="-685.92" rx="85.29" ry="18"/>
<text text-anchor="middle" x="172.94" y="-682.22" font-family="FreeSans" font-size="14.00" fill="#6666ff">Metamodel::Mixins</text>
</a>
</g>
</g>
<!-- Metamodel::BoolificationProtocol -->
<g id="node23" class="node">
<title>Metamodel::BoolificationProtocol</title>
<g id="a_node23"><a xlink:href="/type/Metamodel::BoolificationProtocol" xlink:title="Metamodel::BoolificationProtocol">
<ellipse fill="none" stroke="#6666ff" cx="581.38" cy="-1636.05" rx="139.18" ry="18"/>
<text text-anchor="middle" x="581.38" y="-1632.35" font-family="FreeSans" font-size="14.00" fill="#6666ff">Metamodel::BoolificationProtocol</text>
</a>
</g>
</g>
<!-- Metamodel::ClassHOW -->
<g id="node24" class="node">
<title>Metamodel::ClassHOW</title>
<g id="a_node24"><a xlink:href="/type/Metamodel::ClassHOW" xlink:title="Metamodel::ClassHOW">
<ellipse fill="none" stroke="#000000" cx="736.9" cy="-1066.41" rx="103.18" ry="18"/>
<text text-anchor="middle" x="736.9" y="-1062.71" font-family="FreeSans" font-size="14.00" fill="#000000">Metamodel::ClassHOW</text>
</a>
</g>
</g>
<!-- Metamodel::ClassHOW&#45;&gt;Metamodel::Versioning -->
<g id="edge25" class="edge">
<title>Metamodel::ClassHOW&#45;&gt;Metamodel::Versioning</title>
<path fill="none" stroke="#6666ff" d="M764.48,-1048.95C850.01,-994.79 1110.85,-829.64 1207.03,-768.74"/>
<polygon fill="#6666ff" stroke="#6666ff" points="1208.97,-771.65 1215.55,-763.35 1205.23,-765.74 1208.97,-771.65"/>
</g>
<!-- Metamodel::ClassHOW&#45;&gt;Any -->
<g id="edge4" class="edge">
<title>Metamodel::ClassHOW&#45;&gt;Any</title>
<path fill="none" stroke="#000000" d="M739.68,-1048.35C747.81,-995.66 770.94,-845.77 770.94,-845.77 770.94,-845.77 1054.59,-626.38 1143.11,-557.91"/>
<polygon fill="#000000" stroke="#000000" points="1145.52,-560.47 1151.28,-551.59 1141.23,-554.94 1145.52,-560.47"/>
</g>
<!-- Metamodel::ClassHOW&#45;&gt;Metamodel::Naming -->
<g id="edge23" class="edge">
<title>Metamodel::ClassHOW&#45;&gt;Metamodel::Naming</title>
<path fill="none" stroke="#6666ff" d="M820.67,-1076.97C900.55,-1087.04 1020.33,-1102.14 1101.17,-1112.33"/>
<polygon fill="#6666ff" stroke="#6666ff" points="1100.97,-1115.83 1111.33,-1113.61 1101.84,-1108.89 1100.97,-1115.83"/>
</g>
<!-- Metamodel::ClassHOW&#45;&gt;Metamodel::PrivateMethodContainer -->
<g id="edge30" class="edge">
<title>Metamodel::ClassHOW&#45;&gt;Metamodel::PrivateMethodContainer</title>
<path fill="none" stroke="#6666ff" d="M744.78,-1084.41C762.25,-1124.36 804.37,-1220.63 825.21,-1268.25"/>
<polygon fill="#6666ff" stroke="#6666ff" points="822.1,-1269.87 829.31,-1277.63 828.51,-1267.07 822.1,-1269.87"/>
</g>
<!-- Metamodel::ClassHOW&#45;&gt;Metamodel::MethodContainer -->
<g id="edge29" class="edge">
<title>Metamodel::ClassHOW&#45;&gt;Metamodel::MethodContainer</title>
<path fill="none" stroke="#6666ff" d="M636.26,-1062.29C634.46,-1062.22 632.66,-1062.15 630.85,-1062.07"/>
<polygon fill="#6666ff" stroke="#6666ff" points="630.6,-1058.56 620.46,-1061.65 630.31,-1065.55 630.6,-1058.56"/>
</g>
<!-- Metamodel::ClassHOW&#45;&gt;Metamodel::MultiMethodContainer -->
<g id="edge31" class="edge">
<title>Metamodel::ClassHOW&#45;&gt;Metamodel::MultiMethodContainer</title>
<path fill="none" stroke="#6666ff" d="M720.94,-1048.22C668.47,-988.45 504.69,-801.86 504.69,-801.86 504.69,-801.86 501.5,-794.29 497.77,-785.44"/>
<polygon fill="#6666ff" stroke="#6666ff" points="500.9,-783.86 493.79,-776 494.45,-786.58 500.9,-783.86"/>
</g>
<!-- Metamodel::ClassHOW&#45;&gt;Metamodel::AttributeContainer -->
<g id="edge27" class="edge">
<title>Metamodel::ClassHOW&#45;&gt;Metamodel::AttributeContainer</title>
<path fill="none" stroke="#6666ff" d="M729.98,-1048.22C712.71,-1002.82 667.61,-884.25 646.92,-829.86"/>
<polygon fill="#6666ff" stroke="#6666ff" points="650.07,-828.29 643.24,-820.19 643.52,-830.78 650.07,-828.29"/>
</g>
<!-- Metamodel::ClassHOW&#45;&gt;Metamodel::RoleContainer -->
<g id="edge32" class="edge">
<title>Metamodel::ClassHOW&#45;&gt;Metamodel::RoleContainer</title>
<path fill="none" stroke="#6666ff" d="M739.03,-1048.23C746.02,-988.46 767.86,-801.89 767.86,-801.89 767.86,-801.89 638.02,-662.31 583.65,-603.88"/>
<polygon fill="#6666ff" stroke="#6666ff" points="586.18,-601.46 576.81,-596.52 581.06,-606.22 586.18,-601.46"/>
</g>
<!-- Metamodel::ClassHOW&#45;&gt;Metamodel::MultipleInheritance -->
<g id="edge33" class="edge">
<title>Metamodel::ClassHOW&#45;&gt;Metamodel::MultipleInheritance</title>
<path fill="none" stroke="#6666ff" d="M750.77,-1048.36C780.71,-1009.42 851.48,-917.37 886.33,-872.05"/>
<polygon fill="#6666ff" stroke="#6666ff" points="889.27,-873.96 892.59,-863.9 883.72,-869.69 889.27,-873.96"/>
</g>
<!-- Metamodel::ClassHOW&#45;&gt;Metamodel::Documenting -->
<g id="edge24" class="edge">
<title>Metamodel::ClassHOW&#45;&gt;Metamodel::Documenting</title>
<path fill="none" stroke="#6666ff" d="M761.34,-1048.75C833.72,-996.46 1041.91,-846.05 1041.91,-846.05 1041.91,-846.05 1099.8,-752.81 1129.12,-705.59"/>
<polygon fill="#6666ff" stroke="#6666ff" points="1132.11,-707.41 1134.41,-697.07 1126.16,-703.72 1132.11,-707.41"/>
</g>
<!-- Metamodel::ClassHOW&#45;&gt;Metamodel::Stashing -->
<g id="edge26" class="edge">
<title>Metamodel::ClassHOW&#45;&gt;Metamodel::Stashing</title>
<path fill="none" stroke="#6666ff" d="M780.12,-1082.84C880.31,-1120.93 1128.08,-1215.13 1236.03,-1256.17"/>
<polygon fill="#6666ff" stroke="#6666ff" points="1234.82,-1259.46 1245.41,-1259.74 1237.31,-1252.92 1234.82,-1259.46"/>
</g>
<!-- Metamodel::ClassHOW&#45;&gt;Metamodel::C3MRO -->
<g id="edge35" class="edge">
<title>Metamodel::ClassHOW&#45;&gt;Metamodel::C3MRO</title>
<path fill="none" stroke="#6666ff" d="M757.04,-1084.42C817.55,-1138.54 993.58,-1295.98 993.58,-1295.98 993.58,-1295.98 1067.44,-1432.35 1099.58,-1491.71"/>
<polygon fill="#6666ff" stroke="#6666ff" points="1096.53,-1493.42 1104.37,-1500.54 1102.68,-1490.08 1096.53,-1493.42"/>
</g>
<!-- Metamodel::ClassHOW&#45;&gt;Metamodel::MROBasedMethodDispatch -->
<g id="edge36" class="edge">
<title>Metamodel::ClassHOW&#45;&gt;Metamodel::MROBasedMethodDispatch</title>
<path fill="none" stroke="#6666ff" d="M732.51,-1084.4C719.34,-1138.47 681.01,-1295.76 681.01,-1295.76 681.01,-1295.76 785.57,-1463.06 827.35,-1529.9"/>
<polygon fill="#6666ff" stroke="#6666ff" points="824.54,-1532.01 832.81,-1538.64 830.48,-1528.3 824.54,-1532.01"/>
</g>
<!-- Metamodel::ClassHOW&#45;&gt;Metamodel::MROBasedTypeChecking -->
<g id="edge37" class="edge">
<title>Metamodel::ClassHOW&#45;&gt;Metamodel::MROBasedTypeChecking</title>
<path fill="none" stroke="#6666ff" d="M739.03,-1048.23C746.02,-988.46 767.86,-801.89 767.86,-801.89 767.86,-801.89 730.34,-554.14 730.34,-554.14 730.34,-554.14 726.05,-514.79 722.96,-486.52"/>
<polygon fill="#6666ff" stroke="#6666ff" points="726.42,-485.89 721.85,-476.33 719.46,-486.65 726.42,-485.89"/>
</g>
<!-- Metamodel::ClassHOW&#45;&gt;Metamodel::Finalization -->
<g id="edge28" class="edge">
<title>Metamodel::ClassHOW&#45;&gt;Metamodel::Finalization</title>
<path fill="none" stroke="#6666ff" d="M723.88,-1084.27C672.07,-1155.36 480.35,-1418.43 418.74,-1502.97"/>
<polygon fill="#6666ff" stroke="#6666ff" points="415.76,-1501.12 412.7,-1511.26 421.42,-1505.24 415.76,-1501.12"/>
</g>
<!-- Metamodel::ClassHOW&#45;&gt;Metamodel::DefaultParent -->
<g id="edge34" class="edge">
<title>Metamodel::ClassHOW&#45;&gt;Metamodel::DefaultParent</title>
<path fill="none" stroke="#6666ff" d="M666.25,-1053.21C550.37,-1031.57 320.44,-988.63 196.65,-965.52"/>
<polygon fill="#6666ff" stroke="#6666ff" points="196.94,-962.01 186.47,-963.61 195.66,-968.89 196.94,-962.01"/>
</g>
<!-- Metamodel::ClassHOW&#45;&gt;Metamodel::Trusting -->
<g id="edge38" class="edge">
<title>Metamodel::ClassHOW&#45;&gt;Metamodel::Trusting</title>
<path fill="none" stroke="#6666ff" d="M709.94,-1083.79C627.21,-1137.12 376.94,-1298.49 283.84,-1358.51"/>
<polygon fill="#6666ff" stroke="#6666ff" points="281.84,-1355.64 275.33,-1364 285.63,-1361.52 281.84,-1355.64"/>
</g>
<!-- Metamodel::ClassHOW&#45;&gt;Metamodel::BUILDPLAN -->
<g id="edge39" class="edge">
<title>Metamodel::ClassHOW&#45;&gt;Metamodel::BUILDPLAN</title>
<path fill="none" stroke="#6666ff" d="M668.8,-1080.03C558.76,-1102.05 342.41,-1145.34 225.4,-1168.75"/>
<polygon fill="#6666ff" stroke="#6666ff" points="224.54,-1165.35 215.42,-1170.75 225.92,-1172.22 224.54,-1165.35"/>
</g>
<!-- Metamodel::ClassHOW&#45;&gt;Metamodel::Mixins -->
<g id="edge40" class="edge">
<title>Metamodel::ClassHOW&#45;&gt;Metamodel::Mixins</title>
<path fill="none" stroke="#6666ff" d="M710.83,-1048.82C618.95,-986.83 310.17,-778.51 206.9,-708.84"/>
<polygon fill="#6666ff" stroke="#6666ff" points="208.66,-705.8 198.41,-703.11 204.74,-711.6 208.66,-705.8"/>
</g>
<!-- Metamodel::ClassHOW&#45;&gt;Metamodel::BoolificationProtocol -->
<g id="edge41" class="edge">
<title>Metamodel::ClassHOW&#45;&gt;Metamodel::BoolificationProtocol</title>
<path fill="none" stroke="#6666ff" d="M731.99,-1084.4C709.5,-1166.77 616.27,-1508.26 588.94,-1608.35"/>
<polygon fill="#6666ff" stroke="#6666ff" points="585.55,-1607.48 586.29,-1618.05 592.3,-1609.33 585.55,-1607.48"/>
</g>
<!-- Metamodel::TypePretense -->
<g id="node25" class="node">
<title>Metamodel::TypePretense</title>
<g id="a_node25"><a xlink:href="/type/Metamodel::TypePretense" xlink:title="Metamodel::TypePretense">
<ellipse fill="none" stroke="#6666ff" cx="1768.87" cy="-989.2" rx="114.28" ry="18"/>
<text text-anchor="middle" x="1768.87" y="-985.5" font-family="FreeSans" font-size="14.00" fill="#6666ff">Metamodel::TypePretense</text>
</a>
</g>
</g>
<!-- Metamodel::MethodDelegation -->
<g id="node26" class="node">
<title>Metamodel::MethodDelegation</title>
<g id="a_node26"><a xlink:href="/type/Metamodel::MethodDelegation" xlink:title="Metamodel::MethodDelegation">
<ellipse fill="none" stroke="#6666ff" cx="2072.86" cy="-478.14" rx="131.08" ry="18"/>
<text text-anchor="middle" x="2072.86" y="-474.44" font-family="FreeSans" font-size="14.00" fill="#6666ff">Metamodel::MethodDelegation</text>
</a>
</g>
</g>
<!-- Metamodel::ModuleHOW -->
<g id="node27" class="node">
<title>Metamodel::ModuleHOW</title>
<g id="a_node27"><a xlink:href="/type/Metamodel::ModuleHOW" xlink:title="Metamodel::ModuleHOW">
<ellipse fill="none" stroke="#000000" cx="1625.55" cy="-700.69" rx="110.48" ry="18"/>
<text text-anchor="middle" x="1625.55" y="-696.99" font-family="FreeSans" font-size="14.00" fill="#000000">Metamodel::ModuleHOW</text>
</a>
</g>
</g>
<!-- Metamodel::ModuleHOW&#45;&gt;Metamodel::Versioning -->
<g id="edge44" class="edge">
<title>Metamodel::ModuleHOW&#45;&gt;Metamodel::Versioning</title>
<path fill="none" stroke="#6666ff" d="M1535.89,-711.28C1476.19,-718.33 1397.88,-727.59 1337.28,-734.75"/>
<polygon fill="#6666ff" stroke="#6666ff" points="1336.85,-731.27 1327.33,-735.92 1337.67,-738.22 1336.85,-731.27"/>
</g>
<!-- Metamodel::ModuleHOW&#45;&gt;Any -->
<g id="edge5" class="edge">
<title>Metamodel::ModuleHOW&#45;&gt;Any</title>
<path fill="none" stroke="#000000" d="M1579.28,-684.17C1487.24,-651.31 1283.18,-578.45 1202.72,-549.73"/>
<polygon fill="#000000" stroke="#000000" points="1203.68,-546.36 1193.09,-546.29 1201.33,-552.95 1203.68,-546.36"/>
</g>
<!-- Metamodel::ModuleHOW&#45;&gt;Metamodel::Naming -->
<g id="edge42" class="edge">
<title>Metamodel::ModuleHOW&#45;&gt;Metamodel::Naming</title>
<path fill="none" stroke="#6666ff" d="M1602.37,-718.43C1519.92,-781.52 1245.83,-991.3 1245.83,-991.3 1245.83,-991.3 1216.81,-1057.38 1199.85,-1096.01"/>
<polygon fill="#6666ff" stroke="#6666ff" points="1196.63,-1094.63 1195.82,-1105.19 1203.04,-1097.44 1196.63,-1094.63"/>
</g>
<!-- Metamodel::ModuleHOW&#45;&gt;Metamodel::Documenting -->
<g id="edge43" class="edge">
<title>Metamodel::ModuleHOW&#45;&gt;Metamodel::Documenting</title>
<path fill="none" stroke="#6666ff" d="M1519.06,-695.84C1443.22,-692.39 1341.31,-687.76 1263.12,-684.2"/>
<polygon fill="#6666ff" stroke="#6666ff" points="1262.89,-680.69 1252.74,-683.73 1262.57,-687.68 1262.89,-680.69"/>
</g>
<!-- Metamodel::ModuleHOW&#45;&gt;Metamodel::Stashing -->
<g id="edge45" class="edge">
<title>Metamodel::ModuleHOW&#45;&gt;Metamodel::Stashing</title>
<path fill="none" stroke="#6666ff" d="M1615.33,-718.88C1579.57,-782.56 1462.2,-991.56 1462.2,-991.56 1462.2,-991.56 1347.87,-1177.76 1304.28,-1248.76"/>
<polygon fill="#6666ff" stroke="#6666ff" points="1301.11,-1247.24 1298.86,-1257.59 1307.07,-1250.9 1301.11,-1247.24"/>
</g>
<!-- Metamodel::ModuleHOW&#45;&gt;Metamodel::TypePretense -->
<g id="edge46" class="edge">
<title>Metamodel::ModuleHOW&#45;&gt;Metamodel::TypePretense</title>
<path fill="none" stroke="#6666ff" d="M1634.51,-718.73C1658.9,-767.81 1726.51,-903.93 1755.45,-962.18"/>
<polygon fill="#6666ff" stroke="#6666ff" points="1752.33,-963.76 1759.91,-971.15 1758.59,-960.64 1752.33,-963.76"/>
</g>
<!-- Metamodel::ModuleHOW&#45;&gt;Metamodel::MethodDelegation -->
<g id="edge47" class="edge">
<title>Metamodel::ModuleHOW&#45;&gt;Metamodel::MethodDelegation</title>
<path fill="none" stroke="#6666ff" d="M1660.28,-683.41C1740.77,-643.36 1939.97,-544.26 2028.83,-500.04"/>
<polygon fill="#6666ff" stroke="#6666ff" points="2030.45,-503.15 2037.84,-495.56 2027.33,-496.88 2030.45,-503.15"/>
</g>
<!-- Metamodel::RolePunning -->
<g id="node28" class="node">
<title>Metamodel::RolePunning</title>
<g id="a_node28"><a xlink:href="/type/Metamodel::RolePunning" xlink:title="Metamodel::RolePunning">
<ellipse fill="none" stroke="#6666ff" cx="1604.34" cy="-1438.55" rx="109.68" ry="18"/>
<text text-anchor="middle" x="1604.34" y="-1434.85" font-family="FreeSans" font-size="14.00" fill="#6666ff">Metamodel::RolePunning</text>
</a>
</g>
</g>
<!-- Metamodel::ParametricRoleHOW -->
<g id="node29" class="node">
<title>Metamodel::ParametricRoleHOW</title>
<g id="a_node29"><a xlink:href="/type/Metamodel::ParametricRoleHOW" xlink:title="Metamodel::ParametricRoleHOW">
<ellipse fill="none" stroke="#000000" cx="1090.83" cy="-964.64" rx="141.88" ry="18"/>
<text text-anchor="middle" x="1090.83" y="-960.94" font-family="FreeSans" font-size="14.00" fill="#000000">Metamodel::ParametricRoleHOW</text>
</a>
</g>
</g>
<!-- Metamodel::ParametricRoleHOW&#45;&gt;Metamodel::Versioning -->
<g id="edge50" class="edge">
<title>Metamodel::ParametricRoleHOW&#45;&gt;Metamodel::Versioning</title>
<path fill="none" stroke="#6666ff" d="M1103.56,-946.36C1130.5,-907.66 1193.41,-817.3 1224.74,-772.3"/>
<polygon fill="#6666ff" stroke="#6666ff" points="1227.73,-774.15 1230.57,-763.94 1221.98,-770.15 1227.73,-774.15"/>
</g>
<!-- Metamodel::ParametricRoleHOW&#45;&gt;Any -->
<g id="edge6" class="edge">
<title>Metamodel::ParametricRoleHOW&#45;&gt;Any</title>
<path fill="none" stroke="#000000" d="M1087.13,-946.32C1074.36,-883.21 1032.98,-678.73 1032.98,-678.73 1032.98,-678.73 1108.62,-600.43 1147.16,-560.54"/>
<polygon fill="#000000" stroke="#000000" points="1149.9,-562.73 1154.33,-553.11 1144.87,-557.87 1149.9,-562.73"/>
</g>
<!-- Metamodel::ParametricRoleHOW&#45;&gt;Metamodel::Naming -->
<g id="edge48" class="edge">
<title>Metamodel::ParametricRoleHOW&#45;&gt;Metamodel::Naming</title>
<path fill="none" stroke="#6666ff" d="M1101.97,-982.83C1119,-1010.68 1151.65,-1064.04 1171.43,-1096.36"/>
<polygon fill="#6666ff" stroke="#6666ff" points="1168.68,-1098.57 1176.88,-1105.28 1174.65,-1094.92 1168.68,-1098.57"/>
</g>
<!-- Metamodel::ParametricRoleHOW&#45;&gt;Metamodel::PrivateMethodContainer -->
<g id="edge52" class="edge">
<title>Metamodel::ParametricRoleHOW&#45;&gt;Metamodel::PrivateMethodContainer</title>
<path fill="none" stroke="#6666ff" d="M1076.84,-982.92C1034.42,-1038.34 907.11,-1204.66 857.45,-1269.54"/>
<polygon fill="#6666ff" stroke="#6666ff" points="854.54,-1267.58 851.24,-1277.65 860.1,-1271.83 854.54,-1267.58"/>
</g>
<!-- Metamodel::ParametricRoleHOW&#45;&gt;Metamodel::MethodContainer -->
<g id="edge51" class="edge">
<title>Metamodel::ParametricRoleHOW&#45;&gt;Metamodel::MethodContainer</title>
<path fill="none" stroke="#6666ff" d="M1000.79,-978.61C891.05,-995.64 706.39,-1024.3 593.99,-1041.74"/>
<polygon fill="#6666ff" stroke="#6666ff" points="593.37,-1038.29 584.02,-1043.28 594.44,-1045.21 593.37,-1038.29"/>
</g>
<!-- Metamodel::ParametricRoleHOW&#45;&gt;Metamodel::MultiMethodContainer -->
<g id="edge53" class="edge">
<title>Metamodel::ParametricRoleHOW&#45;&gt;Metamodel::MultiMethodContainer</title>
<path fill="none" stroke="#6666ff" d="M1030.65,-948.27C888.38,-909.59 543.15,-815.72 543.15,-815.72 543.15,-815.72 504.69,-801.86 504.69,-801.86 504.69,-801.86 501.5,-794.29 497.77,-785.44"/>
<polygon fill="#6666ff" stroke="#6666ff" points="500.9,-783.86 493.79,-776 494.45,-786.58 500.9,-783.86"/>
</g>
<!-- Metamodel::ParametricRoleHOW&#45;&gt;Metamodel::AttributeContainer -->
<g id="edge54" class="edge">
<title>Metamodel::ParametricRoleHOW&#45;&gt;Metamodel::AttributeContainer</title>
<path fill="none" stroke="#6666ff" d="M1043.05,-947.53C958.59,-917.29 783.36,-854.54 692.96,-822.17"/>
<polygon fill="#6666ff" stroke="#6666ff" points="694.02,-818.83 683.42,-818.76 691.66,-825.42 694.02,-818.83"/>
</g>
<!-- Metamodel::ParametricRoleHOW&#45;&gt;Metamodel::RoleContainer -->
<g id="edge55" class="edge">
<title>Metamodel::ParametricRoleHOW&#45;&gt;Metamodel::RoleContainer</title>
<path fill="none" stroke="#6666ff" d="M1083.4,-946.63C1069.71,-913.45 1041.91,-846.05 1041.91,-846.05 1041.91,-846.05 716.04,-665.16 600.33,-600.92"/>
<polygon fill="#6666ff" stroke="#6666ff" points="601.84,-597.76 591.4,-595.97 598.44,-603.88 601.84,-597.76"/>
</g>
<!-- Metamodel::ParametricRoleHOW&#45;&gt;Metamodel::MultipleInheritance -->
<g id="edge56" class="edge">
<title>Metamodel::ParametricRoleHOW&#45;&gt;Metamodel::MultipleInheritance</title>
<path fill="none" stroke="#6666ff" d="M1063.22,-946.86C1031.08,-926.17 977.9,-891.93 942.51,-869.14"/>
<polygon fill="#6666ff" stroke="#6666ff" points="944.22,-866.08 933.92,-863.61 940.43,-871.97 944.22,-866.08"/>
</g>
<!-- Metamodel::ParametricRoleHOW&#45;&gt;Metamodel::Documenting -->
<g id="edge49" class="edge">
<title>Metamodel::ParametricRoleHOW&#45;&gt;Metamodel::Documenting</title>
<path fill="none" stroke="#6666ff" d="M1094.35,-946.33C1103.68,-897.73 1129.12,-765.26 1140.31,-707"/>
<polygon fill="#6666ff" stroke="#6666ff" points="1143.78,-707.5 1142.23,-697.02 1136.91,-706.18 1143.78,-707.5"/>
</g>
<!-- Metamodel::ParametricRoleHOW&#45;&gt;Metamodel::Stashing -->
<g id="edge57" class="edge">
<title>Metamodel::ParametricRoleHOW&#45;&gt;Metamodel::Stashing</title>
<path fill="none" stroke="#6666ff" d="M1112.15,-982.54C1161.57,-1024.06 1279.82,-1123.39 1279.82,-1123.39 1279.82,-1123.39 1283.95,-1203.58 1286.22,-1247.63"/>
<polygon fill="#6666ff" stroke="#6666ff" points="1282.73,-1247.92 1286.74,-1257.72 1289.72,-1247.56 1282.73,-1247.92"/>
</g>
<!-- Metamodel::ParametricRoleHOW&#45;&gt;Metamodel::TypePretense -->
<g id="edge58" class="edge">
<title>Metamodel::ParametricRoleHOW&#45;&gt;Metamodel::TypePretense</title>
<path fill="none" stroke="#6666ff" d="M1229.73,-968.42C1293.31,-970.16 1354.73,-971.83 1354.73,-971.83 1354.73,-971.83 1525.73,-979 1647.97,-984.13"/>
<polygon fill="#6666ff" stroke="#6666ff" points="1648.02,-987.63 1658.16,-984.55 1648.32,-980.64 1648.02,-987.63"/>
</g>
<!-- Metamodel::ParametricRoleHOW&#45;&gt;Metamodel::RolePunning -->
<g id="edge59" class="edge">
<title>Metamodel::ParametricRoleHOW&#45;&gt;Metamodel::RolePunning</title>
<path fill="none" stroke="#6666ff" d="M1112.15,-982.54C1161.57,-1024.06 1279.82,-1123.39 1279.82,-1123.39 1279.82,-1123.39 1501.81,-1338.97 1578.58,-1413.53"/>
<polygon fill="#6666ff" stroke="#6666ff" points="1576.35,-1416.25 1585.96,-1420.7 1581.23,-1411.22 1576.35,-1416.25"/>
</g>
</g>
</svg>
