<?xml version="1.0" encoding="UTF-8" standalone="no"?>
<!DOCTYPE svg PUBLIC "-//W3C//DTD SVG 1.1//EN"
 "http://www.w3.org/Graphics/SVG/1.1/DTD/svg11.dtd">
<!-- Generated by graphviz version 2.43.0 (0)
 -->
<!-- Title: perl6&#45;type&#45;graph Pages: 1 -->
<svg width="1795pt" height="1709pt"
 viewBox="0.00 0.00 1794.75 1708.69" xmlns="http://www.w3.org/2000/svg" xmlns:xlink="http://www.w3.org/1999/xlink">
<g id="graph0" class="graph" transform="scale(1 1) rotate(0) translate(4 1704.69)">
<title>perl6&#45;type&#45;graph</title>
<polygon fill="white" stroke="transparent" points="-4,4 -4,-1704.69 1790.75,-1704.69 1790.75,4 -4,4"/>
<!-- Metamodel::MROBasedTypeChecking -->
<g id="node1" class="node">
<title>Metamodel::MROBasedTypeChecking</title>
<g id="a_node1"><a xlink:href="/type/Metamodel::MROBasedTypeChecking" xlink:title="Metamodel::MROBasedTypeChecking">
<ellipse fill="none" stroke="#6666ff" cx="552.24" cy="-848.63" rx="163.27" ry="18"/>
<text text-anchor="middle" x="552.24" y="-844.93" font-family="FreeSans" font-size="14.00" fill="#6666ff">Metamodel::MROBasedTypeChecking</text>
</a>
</g>
</g>
<!-- Mu -->
<g id="node2" class="node">
<title>Mu</title>
<g id="a_node2"><a xlink:href="/type/Mu" xlink:title="Mu">
<ellipse fill="none" stroke="#000000" cx="1759.75" cy="-370.24" rx="27" ry="18"/>
<text text-anchor="middle" x="1759.75" y="-366.54" font-family="FreeSans" font-size="14.00" fill="#000000">Mu</text>
</a>
</g>
</g>
<!-- Any -->
<g id="node3" class="node">
<title>Any</title>
<g id="a_node3"><a xlink:href="/type/Any" xlink:title="Any">
<ellipse fill="none" stroke="#000000" cx="1269.66" cy="-598.75" rx="27" ry="18"/>
<text text-anchor="middle" x="1269.66" y="-595.05" font-family="FreeSans" font-size="14.00" fill="#000000">Any</text>
</a>
</g>
</g>
<!-- Any&#45;&gt;Mu -->
<g id="edge1" class="edge">
<title>Any&#45;&gt;Mu</title>
<path fill="none" stroke="#000000" d="M1291.99,-588.34C1370.86,-551.57 1636.47,-427.72 1728.24,-384.93"/>
<polygon fill="#000000" stroke="#000000" points="1729.98,-387.98 1737.56,-380.59 1727.02,-381.64 1729.98,-387.98"/>
</g>
<!-- Metamodel::Naming -->
<g id="node4" class="node">
<title>Metamodel::Naming</title>
<g id="a_node4"><a xlink:href="/type/Metamodel::Naming" xlink:title="Metamodel::Naming">
<ellipse fill="none" stroke="#6666ff" cx="871.59" cy="-1291.26" rx="90.18" ry="18"/>
<text text-anchor="middle" x="871.59" y="-1287.56" font-family="FreeSans" font-size="14.00" fill="#6666ff">Metamodel::Naming</text>
</a>
</g>
</g>
<!-- Metamodel::Stashing -->
<g id="node5" class="node">
<title>Metamodel::Stashing</title>
<g id="a_node5"><a xlink:href="/type/Metamodel::Stashing" xlink:title="Metamodel::Stashing">
<ellipse fill="none" stroke="#6666ff" cx="1357.32" cy="-1113.41" rx="93.68" ry="18"/>
<text text-anchor="middle" x="1357.32" y="-1109.71" font-family="FreeSans" font-size="14.00" fill="#6666ff">Metamodel::Stashing</text>
</a>
</g>
</g>
<!-- Metamodel::AttributeContainer -->
<g id="node6" class="node">
<title>Metamodel::AttributeContainer</title>
<g id="a_node6"><a xlink:href="/type/Metamodel::AttributeContainer" xlink:title="Metamodel::AttributeContainer">
<ellipse fill="none" stroke="#6666ff" cx="320.5" cy="-934.16" rx="129.98" ry="18"/>
<text text-anchor="middle" x="320.5" y="-930.46" font-family="FreeSans" font-size="14.00" fill="#6666ff">Metamodel::AttributeContainer</text>
</a>
</g>
</g>
<!-- Metamodel::MethodContainer -->
<g id="node7" class="node">
<title>Metamodel::MethodContainer</title>
<g id="a_node7"><a xlink:href="/type/Metamodel::MethodContainer" xlink:title="Metamodel::MethodContainer">
<ellipse fill="none" stroke="#6666ff" cx="397.81" cy="-573.16" rx="127.28" ry="18"/>
<text text-anchor="middle" x="397.81" y="-569.46" font-family="FreeSans" font-size="14.00" fill="#6666ff">Metamodel::MethodContainer</text>
</a>
</g>
</g>
<!-- Metamodel::MultiMethodContainer -->
<g id="node8" class="node">
<title>Metamodel::MultiMethodContainer</title>
<g id="a_node8"><a xlink:href="/type/Metamodel::MultiMethodContainer" xlink:title="Metamodel::MultiMethodContainer">
<ellipse fill="none" stroke="#6666ff" cx="1276.81" cy="-770.18" rx="146.47" ry="18"/>
<text text-anchor="middle" x="1276.81" y="-766.48" font-family="FreeSans" font-size="14.00" fill="#6666ff">Metamodel::MultiMethodContainer</text>
</a>
</g>
</g>
<!-- Metamodel::RoleContainer -->
<g id="node9" class="node">
<title>Metamodel::RoleContainer</title>
<g id="a_node9"><a xlink:href="/type/Metamodel::RoleContainer" xlink:title="Metamodel::RoleContainer">
<ellipse fill="none" stroke="#6666ff" cx="544.85" cy="-441.55" rx="115.88" ry="18"/>
<text text-anchor="middle" x="544.85" y="-437.85" font-family="FreeSans" font-size="14.00" fill="#6666ff">Metamodel::RoleContainer</text>
</a>
</g>
</g>
<!-- Metamodel::BaseType -->
<g id="node10" class="node">
<title>Metamodel::BaseType</title>
<g id="a_node10"><a xlink:href="/type/Metamodel::BaseType" xlink:title="Metamodel::BaseType">
<ellipse fill="none" stroke="#6666ff" cx="988.06" cy="-18" rx="99.38" ry="18"/>
<text text-anchor="middle" x="988.06" y="-14.3" font-family="FreeSans" font-size="14.00" fill="#6666ff">Metamodel::BaseType</text>
</a>
</g>
</g>
<!-- Metamodel::MROBasedMethodDispatch -->
<g id="node11" class="node">
<title>Metamodel::MROBasedMethodDispatch</title>
<g id="a_node11"><a xlink:href="/type/Metamodel::MROBasedMethodDispatch" xlink:title="Metamodel::MROBasedMethodDispatch">
<ellipse fill="none" stroke="#6666ff" cx="738.6" cy="-508.45" rx="169.77" ry="18"/>
<text text-anchor="middle" x="738.6" y="-504.75" font-family="FreeSans" font-size="14.00" fill="#6666ff">Metamodel::MROBasedMethodDispatch</text>
</a>
</g>
</g>
<!-- Metamodel::BUILDPLAN -->
<g id="node12" class="node">
<title>Metamodel::BUILDPLAN</title>
<g id="a_node12"><a xlink:href="/type/Metamodel::BUILDPLAN" xlink:title="Metamodel::BUILDPLAN">
<ellipse fill="none" stroke="#6666ff" cx="293.31" cy="-734.47" rx="109.68" ry="18"/>
<text text-anchor="middle" x="293.31" y="-730.77" font-family="FreeSans" font-size="14.00" fill="#6666ff">Metamodel::BUILDPLAN</text>
</a>
</g>
</g>
<!-- Metamodel::BoolificationProtocol -->
<g id="node13" class="node">
<title>Metamodel::BoolificationProtocol</title>
<g id="a_node13"><a xlink:href="/type/Metamodel::BoolificationProtocol" xlink:title="Metamodel::BoolificationProtocol">
<ellipse fill="none" stroke="#6666ff" cx="1354.96" cy="-929.43" rx="139.18" ry="18"/>
<text text-anchor="middle" x="1354.96" y="-925.73" font-family="FreeSans" font-size="14.00" fill="#6666ff">Metamodel::BoolificationProtocol</text>
</a>
</g>
</g>
<!-- Metamodel::Mixins -->
<g id="node14" class="node">
<title>Metamodel::Mixins</title>
<g id="a_node14"><a xlink:href="/type/Metamodel::Mixins" xlink:title="Metamodel::Mixins">
<ellipse fill="none" stroke="#6666ff" cx="1189.34" cy="-1208.4" rx="85.29" ry="18"/>
<text text-anchor="middle" x="1189.34" y="-1204.7" font-family="FreeSans" font-size="14.00" fill="#6666ff">Metamodel::Mixins</text>
</a>
</g>
</g>
<!-- Metamodel::EnumHOW -->
<g id="node15" class="node">
<title>Metamodel::EnumHOW</title>
<g id="a_node15"><a xlink:href="/type/Metamodel::EnumHOW" xlink:title="Metamodel::EnumHOW">
<ellipse fill="none" stroke="#000000" cx="899.35" cy="-684.17" rx="104.78" ry="18"/>
<text text-anchor="middle" x="899.35" y="-680.47" font-family="FreeSans" font-size="14.00" fill="#000000">Metamodel::EnumHOW</text>
</a>
</g>
</g>
<!-- Metamodel::EnumHOW&#45;&gt;Metamodel::MROBasedTypeChecking -->
<g id="edge13" class="edge">
<title>Metamodel::EnumHOW&#45;&gt;Metamodel::MROBasedTypeChecking</title>
<path fill="none" stroke="#6666ff" d="M863.51,-701.15C800.19,-731.16 668.6,-793.5 598.51,-826.71"/>
<polygon fill="#6666ff" stroke="#6666ff" points="596.99,-823.55 589.46,-831 599.99,-829.88 596.99,-823.55"/>
</g>
<!-- Metamodel::EnumHOW&#45;&gt;Any -->
<g id="edge2" class="edge">
<title>Metamodel::EnumHOW&#45;&gt;Any</title>
<path fill="none" stroke="#000000" d="M962.17,-669.68C1040.36,-651.65 1171.23,-621.46 1233.98,-606.98"/>
<polygon fill="#000000" stroke="#000000" points="1234.85,-610.37 1243.81,-604.71 1233.28,-603.55 1234.85,-610.37"/>
</g>
<!-- Metamodel::EnumHOW&#45;&gt;Metamodel::Naming -->
<g id="edge5" class="edge">
<title>Metamodel::EnumHOW&#45;&gt;Metamodel::Naming</title>
<path fill="none" stroke="#6666ff" d="M898.52,-702.34C894.57,-788.66 877.71,-1157.49 872.89,-1262.97"/>
<polygon fill="#6666ff" stroke="#6666ff" points="869.38,-1263.01 872.42,-1273.16 876.37,-1263.33 869.38,-1263.01"/>
</g>
<!-- Metamodel::EnumHOW&#45;&gt;Metamodel::Stashing -->
<g id="edge6" class="edge">
<title>Metamodel::EnumHOW&#45;&gt;Metamodel::Stashing</title>
<path fill="none" stroke="#6666ff" d="M918.45,-702.07C990.68,-769.77 1247.31,-1010.3 1330.84,-1088.59"/>
<polygon fill="#6666ff" stroke="#6666ff" points="1328.45,-1091.15 1338.14,-1095.43 1333.24,-1086.04 1328.45,-1091.15"/>
</g>
<!-- Metamodel::EnumHOW&#45;&gt;Metamodel::AttributeContainer -->
<g id="edge7" class="edge">
<title>Metamodel::EnumHOW&#45;&gt;Metamodel::AttributeContainer</title>
<path fill="none" stroke="#6666ff" d="M849.81,-700.08C721.36,-741.32 387.51,-848.49 387.51,-848.49 387.51,-848.49 360.77,-882.68 341.07,-907.86"/>
<polygon fill="#6666ff" stroke="#6666ff" points="338.11,-905.96 334.71,-915.99 343.63,-910.27 338.11,-905.96"/>
</g>
<!-- Metamodel::EnumHOW&#45;&gt;Metamodel::MethodContainer -->
<g id="edge8" class="edge">
<title>Metamodel::EnumHOW&#45;&gt;Metamodel::MethodContainer</title>
<path fill="none" stroke="#6666ff" d="M835.07,-669.94C743.45,-649.67 575.5,-612.49 476.54,-590.59"/>
<polygon fill="#6666ff" stroke="#6666ff" points="477.11,-587.13 466.59,-588.38 475.6,-593.96 477.11,-587.13"/>
</g>
<!-- Metamodel::EnumHOW&#45;&gt;Metamodel::MultiMethodContainer -->
<g id="edge9" class="edge">
<title>Metamodel::EnumHOW&#45;&gt;Metamodel::MultiMethodContainer</title>
<path fill="none" stroke="#6666ff" d="M962.53,-698.57C1026.94,-713.25 1127.05,-736.06 1196.93,-751.98"/>
<polygon fill="#6666ff" stroke="#6666ff" points="1196.48,-755.47 1207.01,-754.28 1198.04,-748.65 1196.48,-755.47"/>
</g>
<!-- Metamodel::EnumHOW&#45;&gt;Metamodel::RoleContainer -->
<g id="edge10" class="edge">
<title>Metamodel::EnumHOW&#45;&gt;Metamodel::RoleContainer</title>
<path fill="none" stroke="#6666ff" d="M866.92,-666.99C783.38,-622.75 567.37,-508.34 567.37,-508.34 567.37,-508.34 560.4,-487.67 554.22,-469.33"/>
<polygon fill="#6666ff" stroke="#6666ff" points="557.52,-468.16 551.01,-459.8 550.88,-470.39 557.52,-468.16"/>
</g>
<!-- Metamodel::EnumHOW&#45;&gt;Metamodel::BaseType -->
<g id="edge11" class="edge">
<title>Metamodel::EnumHOW&#45;&gt;Metamodel::BaseType</title>
<path fill="none" stroke="#6666ff" d="M901.35,-665.95C905.5,-628.16 914.66,-544.76 914.66,-544.76 914.66,-544.76 968.95,-155.14 984.15,-46.07"/>
<polygon fill="#6666ff" stroke="#6666ff" points="987.62,-46.52 985.53,-36.13 980.69,-45.55 987.62,-46.52"/>
</g>
<!-- Metamodel::EnumHOW&#45;&gt;Metamodel::MROBasedMethodDispatch -->
<g id="edge12" class="edge">
<title>Metamodel::EnumHOW&#45;&gt;Metamodel::MROBasedMethodDispatch</title>
<path fill="none" stroke="#6666ff" d="M883.05,-666.36C854.48,-635.13 795.26,-570.39 762.21,-534.25"/>
<polygon fill="#6666ff" stroke="#6666ff" points="764.51,-531.59 755.18,-526.57 759.35,-536.32 764.51,-531.59"/>
</g>
<!-- Metamodel::EnumHOW&#45;&gt;Metamodel::BUILDPLAN -->
<g id="edge14" class="edge">
<title>Metamodel::EnumHOW&#45;&gt;Metamodel::BUILDPLAN</title>
<path fill="none" stroke="#6666ff" d="M804.99,-692C695.84,-701.06 516.46,-715.95 401.69,-725.47"/>
<polygon fill="#6666ff" stroke="#6666ff" points="401.15,-722.01 391.47,-726.32 401.73,-728.98 401.15,-722.01"/>
</g>
<!-- Metamodel::EnumHOW&#45;&gt;Metamodel::BoolificationProtocol -->
<g id="edge15" class="edge">
<title>Metamodel::EnumHOW&#45;&gt;Metamodel::BoolificationProtocol</title>
<path fill="none" stroke="#6666ff" d="M931.39,-701.42C1012.07,-744.85 1223.57,-858.71 1313.52,-907.13"/>
<polygon fill="#6666ff" stroke="#6666ff" points="1311.88,-910.22 1322.35,-911.88 1315.2,-904.06 1311.88,-910.22"/>
</g>
<!-- Metamodel::EnumHOW&#45;&gt;Metamodel::Mixins -->
<g id="edge16" class="edge">
<title>Metamodel::EnumHOW&#45;&gt;Metamodel::Mixins</title>
<path fill="none" stroke="#6666ff" d="M912.45,-702.29C963.92,-773.48 1149.5,-1030.19 1149.5,-1030.19 1149.5,-1030.19 1171.88,-1130.28 1183.09,-1180.44"/>
<polygon fill="#6666ff" stroke="#6666ff" points="1179.7,-1181.33 1185.3,-1190.33 1186.53,-1179.8 1179.7,-1181.33"/>
</g>
<!-- Metamodel::Documenting -->
<g id="node16" class="node">
<title>Metamodel::Documenting</title>
<g id="a_node16"><a xlink:href="/type/Metamodel::Documenting" xlink:title="Metamodel::Documenting">
<ellipse fill="none" stroke="#6666ff" cx="1228.35" cy="-1489.53" rx="111.28" ry="18"/>
<text text-anchor="middle" x="1228.35" y="-1485.83" font-family="FreeSans" font-size="14.00" fill="#6666ff">Metamodel::Documenting</text>
</a>
</g>
</g>
<!-- Metamodel::Versioning -->
<g id="node17" class="node">
<title>Metamodel::Versioning</title>
<g id="a_node17"><a xlink:href="/type/Metamodel::Versioning" xlink:title="Metamodel::Versioning">
<ellipse fill="none" stroke="#6666ff" cx="1017" cy="-544.82" rx="100.98" ry="18"/>
<text text-anchor="middle" x="1017" y="-541.12" font-family="FreeSans" font-size="14.00" fill="#6666ff">Metamodel::Versioning</text>
</a>
</g>
</g>
<!-- Metamodel::MultipleInheritance -->
<g id="node18" class="node">
<title>Metamodel::MultipleInheritance</title>
<g id="a_node18"><a xlink:href="/type/Metamodel::MultipleInheritance" xlink:title="Metamodel::MultipleInheritance">
<ellipse fill="none" stroke="#6666ff" cx="819.69" cy="-1557.32" rx="133.78" ry="18"/>
<text text-anchor="middle" x="819.69" y="-1553.62" font-family="FreeSans" font-size="14.00" fill="#6666ff">Metamodel::MultipleInheritance</text>
</a>
</g>
</g>
<!-- Metamodel::C3MRO -->
<g id="node19" class="node">
<title>Metamodel::C3MRO</title>
<g id="a_node19"><a xlink:href="/type/Metamodel::C3MRO" xlink:title="Metamodel::C3MRO">
<ellipse fill="none" stroke="#6666ff" cx="535.16" cy="-1375.25" rx="92.08" ry="18"/>
<text text-anchor="middle" x="535.16" y="-1371.55" font-family="FreeSans" font-size="14.00" fill="#6666ff">Metamodel::C3MRO</text>
</a>
</g>
</g>
<!-- Metamodel::NativeHOW -->
<g id="node20" class="node">
<title>Metamodel::NativeHOW</title>
<g id="a_node20"><a xlink:href="/type/Metamodel::NativeHOW" xlink:title="Metamodel::NativeHOW">
<ellipse fill="none" stroke="#000000" cx="1041.31" cy="-1030.06" rx="106.68" ry="18"/>
<text text-anchor="middle" x="1041.31" y="-1026.36" font-family="FreeSans" font-size="14.00" fill="#000000">Metamodel::NativeHOW</text>
</a>
</g>
</g>
<!-- Metamodel::NativeHOW&#45;&gt;Metamodel::MROBasedTypeChecking -->
<g id="edge24" class="edge">
<title>Metamodel::NativeHOW&#45;&gt;Metamodel::MROBasedTypeChecking</title>
<path fill="none" stroke="#6666ff" d="M997.05,-1013.64C907.85,-980.55 706.63,-905.9 608.37,-869.45"/>
<polygon fill="#6666ff" stroke="#6666ff" points="609.49,-866.13 598.9,-865.94 607.06,-872.7 609.49,-866.13"/>
</g>
<!-- Metamodel::NativeHOW&#45;&gt;Any -->
<g id="edge3" class="edge">
<title>Metamodel::NativeHOW&#45;&gt;Any</title>
<path fill="none" stroke="#000000" d="M1047.48,-1011.78C1067.43,-952.62 1128.97,-770.13 1128.97,-770.13 1128.97,-770.13 1211.62,-669.45 1250.23,-622.42"/>
<polygon fill="#000000" stroke="#000000" points="1253.04,-624.52 1256.68,-614.57 1247.63,-620.07 1253.04,-624.52"/>
</g>
<!-- Metamodel::NativeHOW&#45;&gt;Metamodel::Naming -->
<g id="edge17" class="edge">
<title>Metamodel::NativeHOW&#45;&gt;Metamodel::Naming</title>
<path fill="none" stroke="#6666ff" d="M1029.65,-1048.01C1000.34,-1093.12 923.49,-1211.39 888.9,-1264.62"/>
<polygon fill="#6666ff" stroke="#6666ff" points="885.85,-1262.89 883.34,-1273.18 891.72,-1266.7 885.85,-1262.89"/>
</g>
<!-- Metamodel::NativeHOW&#45;&gt;Metamodel::Stashing -->
<g id="edge20" class="edge">
<title>Metamodel::NativeHOW&#45;&gt;Metamodel::Stashing</title>
<path fill="none" stroke="#6666ff" d="M1098.91,-1045.25C1153.4,-1059.62 1235.11,-1081.17 1292.01,-1096.18"/>
<polygon fill="#6666ff" stroke="#6666ff" points="1291.41,-1099.64 1301.98,-1098.81 1293.2,-1092.88 1291.41,-1099.64"/>
</g>
<!-- Metamodel::NativeHOW&#45;&gt;Metamodel::MROBasedMethodDispatch -->
<g id="edge23" class="edge">
<title>Metamodel::NativeHOW&#45;&gt;Metamodel::MROBasedMethodDispatch</title>
<path fill="none" stroke="#6666ff" d="M1028.32,-1011.95C977.25,-940.77 793.11,-684.13 793.11,-684.13 793.11,-684.13 762.64,-585.94 747.26,-536.37"/>
<polygon fill="#6666ff" stroke="#6666ff" points="750.53,-535.1 744.23,-526.59 743.85,-537.18 750.53,-535.1"/>
</g>
<!-- Metamodel::NativeHOW&#45;&gt;Metamodel::Documenting -->
<g id="edge18" class="edge">
<title>Metamodel::NativeHOW&#45;&gt;Metamodel::Documenting</title>
<path fill="none" stroke="#6666ff" d="M1047.53,-1048.13C1063.11,-1093.44 1102.6,-1208.3 1102.6,-1208.3 1102.6,-1208.3 1184.64,-1391.77 1216.19,-1462.33"/>
<polygon fill="#6666ff" stroke="#6666ff" points="1213.02,-1463.81 1220.3,-1471.51 1219.41,-1460.95 1213.02,-1463.81"/>
</g>
<!-- Metamodel::NativeHOW&#45;&gt;Metamodel::Versioning -->
<g id="edge19" class="edge">
<title>Metamodel::NativeHOW&#45;&gt;Metamodel::Versioning</title>
<path fill="none" stroke="#6666ff" d="M1040.4,-1011.92C1036.73,-938.51 1022.92,-663.03 1018.43,-573.28"/>
<polygon fill="#6666ff" stroke="#6666ff" points="1021.91,-572.86 1017.92,-563.05 1014.92,-573.21 1021.91,-572.86"/>
</g>
<!-- Metamodel::NativeHOW&#45;&gt;Metamodel::MultipleInheritance -->
<g id="edge21" class="edge">
<title>Metamodel::NativeHOW&#45;&gt;Metamodel::MultipleInheritance</title>
<path fill="none" stroke="#6666ff" d="M1035.84,-1048.44C1018.14,-1107.92 963.53,-1291.39 963.53,-1291.39 963.53,-1291.39 870.98,-1462.49 834.36,-1530.21"/>
<polygon fill="#6666ff" stroke="#6666ff" points="831.25,-1528.59 829.58,-1539.05 837.41,-1531.92 831.25,-1528.59"/>
</g>
<!-- Metamodel::NativeHOW&#45;&gt;Metamodel::C3MRO -->
<g id="edge22" class="edge">
<title>Metamodel::NativeHOW&#45;&gt;Metamodel::C3MRO</title>
<path fill="none" stroke="#6666ff" d="M1015.52,-1047.65C931.22,-1105.14 663.87,-1287.47 568.98,-1352.19"/>
<polygon fill="#6666ff" stroke="#6666ff" points="566.9,-1349.37 560.61,-1357.9 570.84,-1355.16 566.9,-1349.37"/>
</g>
<!-- Metamodel::Finalization -->
<g id="node21" class="node">
<title>Metamodel::Finalization</title>
<g id="a_node21"><a xlink:href="/type/Metamodel::Finalization" xlink:title="Metamodel::Finalization">
<ellipse fill="none" stroke="#6666ff" cx="270.05" cy="-1419.44" rx="103.98" ry="18"/>
<text text-anchor="middle" x="270.05" y="-1415.74" font-family="FreeSans" font-size="14.00" fill="#6666ff">Metamodel::Finalization</text>
</a>
</g>
</g>
<!-- Metamodel::PrivateMethodContainer -->
<g id="node22" class="node">
<title>Metamodel::PrivateMethodContainer</title>
<g id="a_node22"><a xlink:href="/type/Metamodel::PrivateMethodContainer" xlink:title="Metamodel::PrivateMethodContainer">
<ellipse fill="none" stroke="#6666ff" cx="154.69" cy="-1180.3" rx="154.87" ry="18"/>
<text text-anchor="middle" x="154.69" y="-1176.6" font-family="FreeSans" font-size="14.00" fill="#6666ff">Metamodel::PrivateMethodContainer</text>
</a>
</g>
</g>
<!-- Metamodel::DefaultParent -->
<g id="node23" class="node">
<title>Metamodel::DefaultParent</title>
<g id="a_node23"><a xlink:href="/type/Metamodel::DefaultParent" xlink:title="Metamodel::DefaultParent">
<ellipse fill="none" stroke="#6666ff" cx="531.06" cy="-1642.52" rx="113.18" ry="18"/>
<text text-anchor="middle" x="531.06" y="-1638.82" font-family="FreeSans" font-size="14.00" fill="#6666ff">Metamodel::DefaultParent</text>
</a>
</g>
</g>
<!-- Metamodel::Trusting -->
<g id="node24" class="node">
<title>Metamodel::Trusting</title>
<g id="a_node24"><a xlink:href="/type/Metamodel::Trusting" xlink:title="Metamodel::Trusting">
<ellipse fill="none" stroke="#6666ff" cx="988.63" cy="-1682.69" rx="91.78" ry="18"/>
<text text-anchor="middle" x="988.63" y="-1678.99" font-family="FreeSans" font-size="14.00" fill="#6666ff">Metamodel::Trusting</text>
</a>
</g>
</g>
<!-- Metamodel::ClassHOW -->
<g id="node25" class="node">
<title>Metamodel::ClassHOW</title>
<g id="a_node25"><a xlink:href="/type/Metamodel::ClassHOW" xlink:title="Metamodel::ClassHOW">
<ellipse fill="none" stroke="#000000" cx="776.59" cy="-1043.44" rx="103.18" ry="18"/>
<text text-anchor="middle" x="776.59" y="-1039.74" font-family="FreeSans" font-size="14.00" fill="#000000">Metamodel::ClassHOW</text>
</a>
</g>
</g>
<!-- Metamodel::ClassHOW&#45;&gt;Metamodel::MROBasedTypeChecking -->
<g id="edge39" class="edge">
<title>Metamodel::ClassHOW&#45;&gt;Metamodel::MROBasedTypeChecking</title>
<path fill="none" stroke="#6666ff" d="M755.89,-1025.46C715.57,-990.45 626.47,-913.08 580.66,-873.3"/>
<polygon fill="#6666ff" stroke="#6666ff" points="582.74,-870.48 572.9,-866.56 578.15,-875.76 582.74,-870.48"/>
</g>
<!-- Metamodel::ClassHOW&#45;&gt;Any -->
<g id="edge4" class="edge">
<title>Metamodel::ClassHOW&#45;&gt;Any</title>
<path fill="none" stroke="#000000" d="M796.22,-1025.73C874.13,-955.47 1161.36,-696.42 1246.03,-620.07"/>
<polygon fill="#000000" stroke="#000000" points="1248.49,-622.56 1253.57,-613.26 1243.8,-617.36 1248.49,-622.56"/>
</g>
<!-- Metamodel::ClassHOW&#45;&gt;Metamodel::Naming -->
<g id="edge25" class="edge">
<title>Metamodel::ClassHOW&#45;&gt;Metamodel::Naming</title>
<path fill="none" stroke="#6666ff" d="M783.58,-1061.66C800.05,-1104.62 841.39,-1212.48 860.98,-1263.58"/>
<polygon fill="#6666ff" stroke="#6666ff" points="857.75,-1264.92 864.6,-1273.01 864.28,-1262.42 857.75,-1264.92"/>
</g>
<!-- Metamodel::ClassHOW&#45;&gt;Metamodel::Stashing -->
<g id="edge28" class="edge">
<title>Metamodel::ClassHOW&#45;&gt;Metamodel::Stashing</title>
<path fill="none" stroke="#6666ff" d="M861.66,-1053.68C970.11,-1066.75 1156.8,-1089.25 1267.49,-1102.58"/>
<polygon fill="#6666ff" stroke="#6666ff" points="1267.28,-1106.08 1277.63,-1103.81 1268.12,-1099.13 1267.28,-1106.08"/>
</g>
<!-- Metamodel::ClassHOW&#45;&gt;Metamodel::AttributeContainer -->
<g id="edge29" class="edge">
<title>Metamodel::ClassHOW&#45;&gt;Metamodel::AttributeContainer</title>
<path fill="none" stroke="#6666ff" d="M715.55,-1028.81C632.73,-1008.97 484.84,-973.53 395.4,-952.1"/>
<polygon fill="#6666ff" stroke="#6666ff" points="396.13,-948.68 385.59,-949.75 394.5,-955.49 396.13,-948.68"/>
</g>
<!-- Metamodel::ClassHOW&#45;&gt;Metamodel::MethodContainer -->
<g id="edge31" class="edge">
<title>Metamodel::ClassHOW&#45;&gt;Metamodel::MethodContainer</title>
<path fill="none" stroke="#6666ff" d="M770.98,-1025.12C756.14,-976.66 716.97,-848.76 716.97,-848.76 716.97,-848.76 504.59,-665.37 426.32,-597.78"/>
<polygon fill="#6666ff" stroke="#6666ff" points="428.6,-595.13 418.75,-591.24 424.03,-600.43 428.6,-595.13"/>
</g>
<!-- Metamodel::ClassHOW&#45;&gt;Metamodel::MultiMethodContainer -->
<g id="edge33" class="edge">
<title>Metamodel::ClassHOW&#45;&gt;Metamodel::MultiMethodContainer</title>
<path fill="none" stroke="#6666ff" d="M808.26,-1026.13C895.33,-978.57 1138.29,-845.85 1235.67,-792.66"/>
<polygon fill="#6666ff" stroke="#6666ff" points="1237.53,-795.63 1244.63,-787.76 1234.17,-789.48 1237.53,-795.63"/>
</g>
<!-- Metamodel::ClassHOW&#45;&gt;Metamodel::RoleContainer -->
<g id="edge34" class="edge">
<title>Metamodel::ClassHOW&#45;&gt;Metamodel::RoleContainer</title>
<path fill="none" stroke="#6666ff" d="M770.98,-1025.12C756.14,-976.66 716.97,-848.76 716.97,-848.76 716.97,-848.76 567.37,-508.34 567.37,-508.34 567.37,-508.34 560.4,-487.67 554.22,-469.33"/>
<polygon fill="#6666ff" stroke="#6666ff" points="557.52,-468.16 551.01,-459.8 550.88,-470.39 557.52,-468.16"/>
</g>
<!-- Metamodel::ClassHOW&#45;&gt;Metamodel::MROBasedMethodDispatch -->
<g id="edge38" class="edge">
<title>Metamodel::ClassHOW&#45;&gt;Metamodel::MROBasedMethodDispatch</title>
<path fill="none" stroke="#6666ff" d="M775.3,-1025.33C769.71,-946.5 747.44,-632.92 740.6,-536.68"/>
<polygon fill="#6666ff" stroke="#6666ff" points="744.08,-536.28 739.88,-526.55 737.1,-536.77 744.08,-536.28"/>
</g>
<!-- Metamodel::ClassHOW&#45;&gt;Metamodel::BUILDPLAN -->
<g id="edge41" class="edge">
<title>Metamodel::ClassHOW&#45;&gt;Metamodel::BUILDPLAN</title>
<path fill="none" stroke="#6666ff" d="M742.4,-1026.31C647.46,-978.74 387.51,-848.49 387.51,-848.49 387.51,-848.49 342.71,-794.27 314.91,-760.6"/>
<polygon fill="#6666ff" stroke="#6666ff" points="317.31,-758.01 308.24,-752.53 311.91,-762.47 317.31,-758.01"/>
</g>
<!-- Metamodel::ClassHOW&#45;&gt;Metamodel::BoolificationProtocol -->
<g id="edge43" class="edge">
<title>Metamodel::ClassHOW&#45;&gt;Metamodel::BoolificationProtocol</title>
<path fill="none" stroke="#6666ff" d="M845.21,-1029.91C950.75,-1009.11 1152.8,-969.28 1268.29,-946.51"/>
<polygon fill="#6666ff" stroke="#6666ff" points="1269.03,-949.94 1278.17,-944.57 1267.68,-943.07 1269.03,-949.94"/>
</g>
<!-- Metamodel::ClassHOW&#45;&gt;Metamodel::Mixins -->
<g id="edge42" class="edge">
<title>Metamodel::ClassHOW&#45;&gt;Metamodel::Mixins</title>
<path fill="none" stroke="#6666ff" d="M818.06,-1060.01C894.57,-1090.59 1057.63,-1155.76 1139.81,-1188.6"/>
<polygon fill="#6666ff" stroke="#6666ff" points="1138.84,-1191.98 1149.42,-1192.44 1141.44,-1185.48 1138.84,-1191.98"/>
</g>
<!-- Metamodel::ClassHOW&#45;&gt;Metamodel::Documenting -->
<g id="edge26" class="edge">
<title>Metamodel::ClassHOW&#45;&gt;Metamodel::Documenting</title>
<path fill="none" stroke="#6666ff" d="M794.58,-1061.2C864.85,-1130.58 1120.97,-1383.49 1202.94,-1464.43"/>
<polygon fill="#6666ff" stroke="#6666ff" points="1200.74,-1467.18 1210.31,-1471.71 1205.66,-1462.2 1200.74,-1467.18"/>
</g>
<!-- Metamodel::ClassHOW&#45;&gt;Metamodel::Versioning -->
<g id="edge27" class="edge">
<title>Metamodel::ClassHOW&#45;&gt;Metamodel::Versioning</title>
<path fill="none" stroke="#6666ff" d="M788.26,-1025.13C834.93,-951.92 1005.59,-684.21 1005.59,-684.21 1005.59,-684.21 1011.34,-613.95 1014.68,-573.19"/>
<polygon fill="#6666ff" stroke="#6666ff" points="1018.18,-573.29 1015.51,-563.04 1011.21,-572.72 1018.18,-573.29"/>
</g>
<!-- Metamodel::ClassHOW&#45;&gt;Metamodel::MultipleInheritance -->
<g id="edge35" class="edge">
<title>Metamodel::ClassHOW&#45;&gt;Metamodel::MultipleInheritance</title>
<path fill="none" stroke="#6666ff" d="M776.82,-1061.65C777.52,-1118.85 779.65,-1291.12 779.65,-1291.12 779.65,-1291.12 805.1,-1460.3 815.42,-1528.92"/>
<polygon fill="#6666ff" stroke="#6666ff" points="811.99,-1529.66 816.94,-1539.03 818.91,-1528.62 811.99,-1529.66"/>
</g>
<!-- Metamodel::ClassHOW&#45;&gt;Metamodel::C3MRO -->
<g id="edge37" class="edge">
<title>Metamodel::ClassHOW&#45;&gt;Metamodel::C3MRO</title>
<path fill="none" stroke="#6666ff" d="M763.27,-1061.75C722.86,-1117.28 601.58,-1283.97 554.31,-1348.93"/>
<polygon fill="#6666ff" stroke="#6666ff" points="551.21,-1347.25 548.15,-1357.4 556.87,-1351.37 551.21,-1347.25"/>
</g>
<!-- Metamodel::ClassHOW&#45;&gt;Metamodel::Finalization -->
<g id="edge30" class="edge">
<title>Metamodel::ClassHOW&#45;&gt;Metamodel::Finalization</title>
<path fill="none" stroke="#6666ff" d="M752.84,-1061.07C670.33,-1122.31 396.06,-1325.9 302.02,-1395.71"/>
<polygon fill="#6666ff" stroke="#6666ff" points="299.7,-1393.07 293.75,-1401.84 303.87,-1398.69 299.7,-1393.07"/>
</g>
<!-- Metamodel::ClassHOW&#45;&gt;Metamodel::PrivateMethodContainer -->
<g id="edge32" class="edge">
<title>Metamodel::ClassHOW&#45;&gt;Metamodel::PrivateMethodContainer</title>
<path fill="none" stroke="#6666ff" d="M712.38,-1057.57C598.77,-1082.57 362.51,-1134.56 237.07,-1162.17"/>
<polygon fill="#6666ff" stroke="#6666ff" points="236.14,-1158.79 227.13,-1164.35 237.65,-1165.62 236.14,-1158.79"/>
</g>
<!-- Metamodel::ClassHOW&#45;&gt;Metamodel::DefaultParent -->
<g id="edge36" class="edge">
<title>Metamodel::ClassHOW&#45;&gt;Metamodel::DefaultParent</title>
<path fill="none" stroke="#6666ff" d="M769.11,-1061.69C733.91,-1147.57 584.78,-1511.45 542.36,-1614.96"/>
<polygon fill="#6666ff" stroke="#6666ff" points="539.04,-1613.83 538.48,-1624.41 545.52,-1616.48 539.04,-1613.83"/>
</g>
<!-- Metamodel::ClassHOW&#45;&gt;Metamodel::Trusting -->
<g id="edge40" class="edge">
<title>Metamodel::ClassHOW&#45;&gt;Metamodel::Trusting</title>
<path fill="none" stroke="#6666ff" d="M776.82,-1061.65C777.52,-1118.85 779.65,-1291.12 779.65,-1291.12 779.65,-1291.12 955.17,-1557.46 955.17,-1557.46 955.17,-1557.46 971.31,-1617.86 981.17,-1654.76"/>
<polygon fill="#6666ff" stroke="#6666ff" points="977.8,-1655.72 983.77,-1664.48 984.57,-1653.91 977.8,-1655.72"/>
</g>
</g>
</svg>
