<?xml version="1.0" encoding="UTF-8" standalone="no"?>
<!DOCTYPE svg PUBLIC "-//W3C//DTD SVG 1.1//EN"
 "http://www.w3.org/Graphics/SVG/1.1/DTD/svg11.dtd">
<!-- Generated by graphviz version 2.43.0 (0)
 -->
<!-- Title: perl6&#45;type&#45;graph Pages: 1 -->
<svg width="737pt" height="746pt"
 viewBox="0.00 0.00 737.27 745.76" xmlns="http://www.w3.org/2000/svg" xmlns:xlink="http://www.w3.org/1999/xlink">
<g id="graph0" class="graph" transform="scale(1 1) rotate(0) translate(4 741.76)">
<title>perl6&#45;type&#45;graph</title>
<polygon fill="white" stroke="transparent" points="-4,4 -4,-741.76 733.27,-741.76 733.27,4 -4,4"/>
<!-- Metamodel::PackageHOW -->
<g id="node1" class="node">
<title>Metamodel::PackageHOW</title>
<g id="a_node1"><a xlink:href="/type/Metamodel::PackageHOW" xlink:title="Metamodel::PackageHOW">
<ellipse fill="none" stroke="#000000" cx="342.33" cy="-478.8" rx="116.18" ry="18"/>
<text text-anchor="middle" x="342.33" y="-475.1" font-family="FreeSans" font-size="14.00" fill="#000000">Metamodel::PackageHOW</text>
</a>
</g>
</g>
<!-- Any -->
<g id="node3" class="node">
<title>Any</title>
<g id="a_node3"><a xlink:href="/type/Any" xlink:title="Any">
<ellipse fill="none" stroke="#000000" cx="433.9" cy="-234.02" rx="27" ry="18"/>
<text text-anchor="middle" x="433.9" y="-230.32" font-family="FreeSans" font-size="14.00" fill="#000000">Any</text>
</a>
</g>
</g>
<!-- Metamodel::PackageHOW&#45;&gt;Any -->
<g id="edge1" class="edge">
<title>Metamodel::PackageHOW&#45;&gt;Any</title>
<path fill="none" stroke="#000000" d="M349.06,-460.8C364.94,-418.35 404.82,-311.75 423.69,-261.3"/>
<polygon fill="#000000" stroke="#000000" points="427.05,-262.31 427.28,-251.71 420.5,-259.85 427.05,-262.31"/>
</g>
<!-- Metamodel::Naming -->
<g id="node4" class="node">
<title>Metamodel::Naming</title>
<g id="a_node4"><a xlink:href="/type/Metamodel::Naming" xlink:title="Metamodel::Naming">
<ellipse fill="none" stroke="#6666ff" cx="90.34" cy="-538.59" rx="90.18" ry="18"/>
<text text-anchor="middle" x="90.34" y="-534.89" font-family="FreeSans" font-size="14.00" fill="#6666ff">Metamodel::Naming</text>
</a>
</g>
</g>
<!-- Metamodel::PackageHOW&#45;&gt;Metamodel::Naming -->
<g id="edge3" class="edge">
<title>Metamodel::PackageHOW&#45;&gt;Metamodel::Naming</title>
<path fill="none" stroke="#6666ff" d="M278.74,-493.89C242.07,-502.59 195.96,-513.53 158.54,-522.41"/>
<polygon fill="#6666ff" stroke="#6666ff" points="157.65,-519.03 148.73,-524.74 159.26,-525.84 157.65,-519.03"/>
</g>
<!-- Metamodel::Documenting -->
<g id="node5" class="node">
<title>Metamodel::Documenting</title>
<g id="a_node5"><a xlink:href="/type/Metamodel::Documenting" xlink:title="Metamodel::Documenting">
<ellipse fill="none" stroke="#6666ff" cx="493.48" cy="-689.93" rx="111.28" ry="18"/>
<text text-anchor="middle" x="493.48" y="-686.23" font-family="FreeSans" font-size="14.00" fill="#6666ff">Metamodel::Documenting</text>
</a>
</g>
</g>
<!-- Metamodel::PackageHOW&#45;&gt;Metamodel::Documenting -->
<g id="edge4" class="edge">
<title>Metamodel::PackageHOW&#45;&gt;Metamodel::Documenting</title>
<path fill="none" stroke="#6666ff" d="M355.21,-496.81C381.93,-534.12 443.46,-620.06 474.64,-663.61"/>
<polygon fill="#6666ff" stroke="#6666ff" points="471.96,-665.88 480.63,-671.98 477.65,-661.81 471.96,-665.88"/>
</g>
<!-- Metamodel::Stashing -->
<g id="node6" class="node">
<title>Metamodel::Stashing</title>
<g id="a_node6"><a xlink:href="/type/Metamodel::Stashing" xlink:title="Metamodel::Stashing">
<ellipse fill="none" stroke="#6666ff" cx="252.84" cy="-719.76" rx="93.68" ry="18"/>
<text text-anchor="middle" x="252.84" y="-716.06" font-family="FreeSans" font-size="14.00" fill="#6666ff">Metamodel::Stashing</text>
</a>
</g>
</g>
<!-- Metamodel::PackageHOW&#45;&gt;Metamodel::Stashing -->
<g id="edge5" class="edge">
<title>Metamodel::PackageHOW&#45;&gt;Metamodel::Stashing</title>
<path fill="none" stroke="#6666ff" d="M335.6,-496.92C320.05,-538.8 281.52,-642.54 263.04,-692.3"/>
<polygon fill="#6666ff" stroke="#6666ff" points="259.72,-691.18 259.52,-701.77 266.28,-693.62 259.72,-691.18"/>
</g>
<!-- Metamodel::TypePretense -->
<g id="node7" class="node">
<title>Metamodel::TypePretense</title>
<g id="a_node7"><a xlink:href="/type/Metamodel::TypePretense" xlink:title="Metamodel::TypePretense">
<ellipse fill="none" stroke="#6666ff" cx="148.4" cy="-310.82" rx="114.28" ry="18"/>
<text text-anchor="middle" x="148.4" y="-307.12" font-family="FreeSans" font-size="14.00" fill="#6666ff">Metamodel::TypePretense</text>
</a>
</g>
</g>
<!-- Metamodel::PackageHOW&#45;&gt;Metamodel::TypePretense -->
<g id="edge6" class="edge">
<title>Metamodel::PackageHOW&#45;&gt;Metamodel::TypePretense</title>
<path fill="none" stroke="#6666ff" d="M321.57,-460.83C286.73,-430.64 216.41,-369.73 176.94,-335.54"/>
<polygon fill="#6666ff" stroke="#6666ff" points="178.86,-332.57 169.01,-328.67 174.27,-337.86 178.86,-332.57"/>
</g>
<!-- Metamodel::MethodDelegation -->
<g id="node8" class="node">
<title>Metamodel::MethodDelegation</title>
<g id="a_node8"><a xlink:href="/type/Metamodel::MethodDelegation" xlink:title="Metamodel::MethodDelegation">
<ellipse fill="none" stroke="#6666ff" cx="597.98" cy="-481.57" rx="131.08" ry="18"/>
<text text-anchor="middle" x="597.98" y="-477.87" font-family="FreeSans" font-size="14.00" fill="#6666ff">Metamodel::MethodDelegation</text>
</a>
</g>
</g>
<!-- Metamodel::PackageHOW&#45;&gt;Metamodel::MethodDelegation -->
<g id="edge7" class="edge">
<title>Metamodel::PackageHOW&#45;&gt;Metamodel::MethodDelegation</title>
<path fill="none" stroke="#6666ff" d="M458.56,-480.06C458.64,-480.06 458.73,-480.07 458.82,-480.07"/>
<polygon fill="#6666ff" stroke="#6666ff" points="456.85,-483.55 466.88,-480.15 456.92,-476.55 456.85,-483.55"/>
</g>
<!-- Mu -->
<g id="node2" class="node">
<title>Mu</title>
<g id="a_node2"><a xlink:href="/type/Mu" xlink:title="Mu">
<ellipse fill="none" stroke="#000000" cx="535.82" cy="-18" rx="27" ry="18"/>
<text text-anchor="middle" x="535.82" y="-14.3" font-family="FreeSans" font-size="14.00" fill="#000000">Mu</text>
</a>
</g>
</g>
<!-- Any&#45;&gt;Mu -->
<g id="edge2" class="edge">
<title>Any&#45;&gt;Mu</title>
<path fill="none" stroke="#000000" d="M442.07,-216.7C459.85,-179.02 502.15,-89.36 523.32,-44.51"/>
<polygon fill="#000000" stroke="#000000" points="526.51,-45.93 527.62,-35.39 520.18,-42.95 526.51,-45.93"/>
</g>
</g>
</svg>
