<?xml version="1.0" encoding="UTF-8" standalone="no"?>
<!DOCTYPE svg PUBLIC "-//W3C//DTD SVG 1.1//EN"
 "http://www.w3.org/Graphics/SVG/1.1/DTD/svg11.dtd">
<!-- Generated by graphviz version 2.43.0 (0)
 -->
<!-- Title: perl6&#45;type&#45;graph Pages: 1 -->
<svg width="1692pt" height="1956pt"
 viewBox="0.00 0.00 1692.44 1956.50" xmlns="http://www.w3.org/2000/svg" xmlns:xlink="http://www.w3.org/1999/xlink">
<g id="graph0" class="graph" transform="scale(1 1) rotate(0) translate(4 1952.5)">
<title>perl6&#45;type&#45;graph</title>
<polygon fill="white" stroke="transparent" points="-4,4 -4,-1952.5 1688.44,-1952.5 1688.44,4 -4,4"/>
<!-- Metamodel::BoolificationProtocol -->
<g id="node1" class="node">
<title>Metamodel::BoolificationProtocol</title>
<g id="a_node1"><a xlink:href="/type/Metamodel::BoolificationProtocol" xlink:title="Metamodel::BoolificationProtocol">
<ellipse fill="none" stroke="#6666ff" cx="483.37" cy="-850.42" rx="139.18" ry="18"/>
<text text-anchor="middle" x="483.37" y="-846.72" font-family="FreeSans" font-size="14.00" fill="#6666ff">Metamodel::BoolificationProtocol</text>
</a>
</g>
</g>
<!-- Mu -->
<g id="node2" class="node">
<title>Mu</title>
<g id="a_node2"><a xlink:href="/type/Mu" xlink:title="Mu">
<ellipse fill="none" stroke="#000000" cx="1657.44" cy="-849.03" rx="27" ry="18"/>
<text text-anchor="middle" x="1657.44" y="-845.33" font-family="FreeSans" font-size="14.00" fill="#000000">Mu</text>
</a>
</g>
</g>
<!-- Any -->
<g id="node3" class="node">
<title>Any</title>
<g id="a_node3"><a xlink:href="/type/Any" xlink:title="Any">
<ellipse fill="none" stroke="#000000" cx="1123.86" cy="-919.76" rx="27" ry="18"/>
<text text-anchor="middle" x="1123.86" y="-916.06" font-family="FreeSans" font-size="14.00" fill="#000000">Any</text>
</a>
</g>
</g>
<!-- Any&#45;&gt;Mu -->
<g id="edge1" class="edge">
<title>Any&#45;&gt;Mu</title>
<path fill="none" stroke="#000000" d="M1150.68,-916.2C1238.86,-904.51 1519.85,-867.27 1620.85,-853.88"/>
<polygon fill="#000000" stroke="#000000" points="1621.42,-857.34 1630.88,-852.55 1620.5,-850.4 1621.42,-857.34"/>
</g>
<!-- Metamodel::Naming -->
<g id="node4" class="node">
<title>Metamodel::Naming</title>
<g id="a_node4"><a xlink:href="/type/Metamodel::Naming" xlink:title="Metamodel::Naming">
<ellipse fill="none" stroke="#6666ff" cx="720.82" cy="-857.45" rx="90.18" ry="18"/>
<text text-anchor="middle" x="720.82" y="-853.75" font-family="FreeSans" font-size="14.00" fill="#6666ff">Metamodel::Naming</text>
</a>
</g>
</g>
<!-- Metamodel::Stashing -->
<g id="node5" class="node">
<title>Metamodel::Stashing</title>
<g id="a_node5"><a xlink:href="/type/Metamodel::Stashing" xlink:title="Metamodel::Stashing">
<ellipse fill="none" stroke="#6666ff" cx="912.84" cy="-857.32" rx="93.68" ry="18"/>
<text text-anchor="middle" x="912.84" y="-853.62" font-family="FreeSans" font-size="14.00" fill="#6666ff">Metamodel::Stashing</text>
</a>
</g>
</g>
<!-- Metamodel::AttributeContainer -->
<g id="node6" class="node">
<title>Metamodel::AttributeContainer</title>
<g id="a_node6"><a xlink:href="/type/Metamodel::AttributeContainer" xlink:title="Metamodel::AttributeContainer">
<ellipse fill="none" stroke="#6666ff" cx="1007.38" cy="-1573.69" rx="129.98" ry="18"/>
<text text-anchor="middle" x="1007.38" y="-1569.99" font-family="FreeSans" font-size="14.00" fill="#6666ff">Metamodel::AttributeContainer</text>
</a>
</g>
</g>
<!-- Metamodel::MethodContainer -->
<g id="node7" class="node">
<title>Metamodel::MethodContainer</title>
<g id="a_node7"><a xlink:href="/type/Metamodel::MethodContainer" xlink:title="Metamodel::MethodContainer">
<ellipse fill="none" stroke="#6666ff" cx="395.08" cy="-1253.94" rx="127.28" ry="18"/>
<text text-anchor="middle" x="395.08" y="-1250.24" font-family="FreeSans" font-size="14.00" fill="#6666ff">Metamodel::MethodContainer</text>
</a>
</g>
</g>
<!-- Metamodel::MultiMethodContainer -->
<g id="node8" class="node">
<title>Metamodel::MultiMethodContainer</title>
<g id="a_node8"><a xlink:href="/type/Metamodel::MultiMethodContainer" xlink:title="Metamodel::MultiMethodContainer">
<ellipse fill="none" stroke="#6666ff" cx="1237.58" cy="-1246.56" rx="146.47" ry="18"/>
<text text-anchor="middle" x="1237.58" y="-1242.86" font-family="FreeSans" font-size="14.00" fill="#6666ff">Metamodel::MultiMethodContainer</text>
</a>
</g>
</g>
<!-- Metamodel::RoleContainer -->
<g id="node9" class="node">
<title>Metamodel::RoleContainer</title>
<g id="a_node9"><a xlink:href="/type/Metamodel::RoleContainer" xlink:title="Metamodel::RoleContainer">
<ellipse fill="none" stroke="#6666ff" cx="370" cy="-1056.84" rx="115.88" ry="18"/>
<text text-anchor="middle" x="370" y="-1053.14" font-family="FreeSans" font-size="14.00" fill="#6666ff">Metamodel::RoleContainer</text>
</a>
</g>
</g>
<!-- Metamodel::BaseType -->
<g id="node10" class="node">
<title>Metamodel::BaseType</title>
<g id="a_node10"><a xlink:href="/type/Metamodel::BaseType" xlink:title="Metamodel::BaseType">
<ellipse fill="none" stroke="#6666ff" cx="1348.8" cy="-662.16" rx="99.38" ry="18"/>
<text text-anchor="middle" x="1348.8" y="-658.46" font-family="FreeSans" font-size="14.00" fill="#6666ff">Metamodel::BaseType</text>
</a>
</g>
</g>
<!-- Metamodel::MROBasedMethodDispatch -->
<g id="node11" class="node">
<title>Metamodel::MROBasedMethodDispatch</title>
<g id="a_node11"><a xlink:href="/type/Metamodel::MROBasedMethodDispatch" xlink:title="Metamodel::MROBasedMethodDispatch">
<ellipse fill="none" stroke="#6666ff" cx="552.48" cy="-1158.02" rx="169.77" ry="18"/>
<text text-anchor="middle" x="552.48" y="-1154.32" font-family="FreeSans" font-size="14.00" fill="#6666ff">Metamodel::MROBasedMethodDispatch</text>
</a>
</g>
</g>
<!-- Metamodel::MROBasedTypeChecking -->
<g id="node12" class="node">
<title>Metamodel::MROBasedTypeChecking</title>
<g id="a_node12"><a xlink:href="/type/Metamodel::MROBasedTypeChecking" xlink:title="Metamodel::MROBasedTypeChecking">
<ellipse fill="none" stroke="#6666ff" cx="563.12" cy="-1496.49" rx="163.27" ry="18"/>
<text text-anchor="middle" x="563.12" y="-1492.79" font-family="FreeSans" font-size="14.00" fill="#6666ff">Metamodel::MROBasedTypeChecking</text>
</a>
</g>
</g>
<!-- Metamodel::BUILDPLAN -->
<g id="node13" class="node">
<title>Metamodel::BUILDPLAN</title>
<g id="a_node13"><a xlink:href="/type/Metamodel::BUILDPLAN" xlink:title="Metamodel::BUILDPLAN">
<ellipse fill="none" stroke="#6666ff" cx="1300.5" cy="-1402.57" rx="109.68" ry="18"/>
<text text-anchor="middle" x="1300.5" y="-1398.87" font-family="FreeSans" font-size="14.00" fill="#6666ff">Metamodel::BUILDPLAN</text>
</a>
</g>
</g>
<!-- Metamodel::Mixins -->
<g id="node14" class="node">
<title>Metamodel::Mixins</title>
<g id="a_node14"><a xlink:href="/type/Metamodel::Mixins" xlink:title="Metamodel::Mixins">
<ellipse fill="none" stroke="#6666ff" cx="1165.23" cy="-1469.25" rx="85.29" ry="18"/>
<text text-anchor="middle" x="1165.23" y="-1465.55" font-family="FreeSans" font-size="14.00" fill="#6666ff">Metamodel::Mixins</text>
</a>
</g>
</g>
<!-- Metamodel::EnumHOW -->
<g id="node15" class="node">
<title>Metamodel::EnumHOW</title>
<g id="a_node15"><a xlink:href="/type/Metamodel::EnumHOW" xlink:title="Metamodel::EnumHOW">
<ellipse fill="none" stroke="#000000" cx="925.5" cy="-1109.31" rx="104.78" ry="18"/>
<text text-anchor="middle" x="925.5" y="-1105.61" font-family="FreeSans" font-size="14.00" fill="#000000">Metamodel::EnumHOW</text>
</a>
</g>
</g>
<!-- Metamodel::EnumHOW&#45;&gt;Metamodel::BoolificationProtocol -->
<g id="edge15" class="edge">
<title>Metamodel::EnumHOW&#45;&gt;Metamodel::BoolificationProtocol</title>
<path fill="none" stroke="#6666ff" d="M895.81,-1091.92C818.2,-1046.48 609.34,-924.18 522.29,-873.21"/>
<polygon fill="#6666ff" stroke="#6666ff" points="523.92,-870.11 513.52,-868.08 520.38,-876.15 523.92,-870.11"/>
</g>
<!-- Metamodel::EnumHOW&#45;&gt;Any -->
<g id="edge2" class="edge">
<title>Metamodel::EnumHOW&#45;&gt;Any</title>
<path fill="none" stroke="#000000" d="M944.16,-1091.47C980.6,-1056.65 1061.11,-979.72 1100.81,-941.78"/>
<polygon fill="#000000" stroke="#000000" points="1103.37,-944.18 1108.18,-934.74 1098.53,-939.12 1103.37,-944.18"/>
</g>
<!-- Metamodel::EnumHOW&#45;&gt;Metamodel::Naming -->
<g id="edge5" class="edge">
<title>Metamodel::EnumHOW&#45;&gt;Metamodel::Naming</title>
<path fill="none" stroke="#6666ff" d="M910.78,-1091.19C875.01,-1047.17 783.4,-934.45 741.86,-883.34"/>
<polygon fill="#6666ff" stroke="#6666ff" points="744.43,-880.95 735.41,-875.4 739,-885.36 744.43,-880.95"/>
</g>
<!-- Metamodel::EnumHOW&#45;&gt;Metamodel::Stashing -->
<g id="edge6" class="edge">
<title>Metamodel::EnumHOW&#45;&gt;Metamodel::Stashing</title>
<path fill="none" stroke="#6666ff" d="M924.59,-1091.18C922.42,-1047.88 916.9,-938.14 914.27,-885.86"/>
<polygon fill="#6666ff" stroke="#6666ff" points="917.76,-885.43 913.76,-875.62 910.77,-885.78 917.76,-885.43"/>
</g>
<!-- Metamodel::EnumHOW&#45;&gt;Metamodel::AttributeContainer -->
<g id="edge7" class="edge">
<title>Metamodel::EnumHOW&#45;&gt;Metamodel::AttributeContainer</title>
<path fill="none" stroke="#6666ff" d="M928.71,-1127.51C941.29,-1198.82 987.24,-1459.48 1002.45,-1545.75"/>
<polygon fill="#6666ff" stroke="#6666ff" points="999.01,-1546.37 1004.19,-1555.61 1005.9,-1545.16 999.01,-1546.37"/>
</g>
<!-- Metamodel::EnumHOW&#45;&gt;Metamodel::MethodContainer -->
<g id="edge8" class="edge">
<title>Metamodel::EnumHOW&#45;&gt;Metamodel::MethodContainer</title>
<path fill="none" stroke="#6666ff" d="M869.49,-1124.58C771.62,-1151.27 569.8,-1206.3 463.7,-1235.23"/>
<polygon fill="#6666ff" stroke="#6666ff" points="462.78,-1231.85 454.05,-1237.86 464.62,-1238.61 462.78,-1231.85"/>
</g>
<!-- Metamodel::EnumHOW&#45;&gt;Metamodel::MultiMethodContainer -->
<g id="edge9" class="edge">
<title>Metamodel::EnumHOW&#45;&gt;Metamodel::MultiMethodContainer</title>
<path fill="none" stroke="#6666ff" d="M963.77,-1126.13C1020.43,-1151.05 1126.63,-1197.76 1188.8,-1225.1"/>
<polygon fill="#6666ff" stroke="#6666ff" points="1187.45,-1228.33 1198.02,-1229.16 1190.27,-1221.93 1187.45,-1228.33"/>
</g>
<!-- Metamodel::EnumHOW&#45;&gt;Metamodel::RoleContainer -->
<g id="edge10" class="edge">
<title>Metamodel::EnumHOW&#45;&gt;Metamodel::RoleContainer</title>
<path fill="none" stroke="#6666ff" d="M833.77,-1100.64C736.55,-1091.46 583.05,-1076.96 479.55,-1067.19"/>
<polygon fill="#6666ff" stroke="#6666ff" points="479.66,-1063.69 469.38,-1066.23 479,-1070.65 479.66,-1063.69"/>
</g>
<!-- Metamodel::EnumHOW&#45;&gt;Metamodel::BaseType -->
<g id="edge11" class="edge">
<title>Metamodel::EnumHOW&#45;&gt;Metamodel::BaseType</title>
<path fill="none" stroke="#6666ff" d="M941.32,-1091.25C984.94,-1041.45 1103.73,-905.83 1103.73,-905.83 1103.73,-905.83 1261.12,-749.33 1323.64,-687.17"/>
<polygon fill="#6666ff" stroke="#6666ff" points="1326.15,-689.61 1330.78,-680.07 1321.22,-684.64 1326.15,-689.61"/>
</g>
<!-- Metamodel::EnumHOW&#45;&gt;Metamodel::MROBasedMethodDispatch -->
<g id="edge12" class="edge">
<title>Metamodel::EnumHOW&#45;&gt;Metamodel::MROBasedMethodDispatch</title>
<path fill="none" stroke="#6666ff" d="M841.79,-1120.24C791.03,-1126.87 725.5,-1135.43 669.64,-1142.72"/>
<polygon fill="#6666ff" stroke="#6666ff" points="669.15,-1139.26 659.69,-1144.02 670.06,-1146.2 669.15,-1139.26"/>
</g>
<!-- Metamodel::EnumHOW&#45;&gt;Metamodel::MROBasedTypeChecking -->
<g id="edge13" class="edge">
<title>Metamodel::EnumHOW&#45;&gt;Metamodel::MROBasedTypeChecking</title>
<path fill="none" stroke="#6666ff" d="M908.75,-1127.2C850.33,-1189.62 655.43,-1397.86 587.07,-1470.9"/>
<polygon fill="#6666ff" stroke="#6666ff" points="584.39,-1468.64 580.11,-1478.33 589.5,-1473.42 584.39,-1468.64"/>
</g>
<!-- Metamodel::EnumHOW&#45;&gt;Metamodel::BUILDPLAN -->
<g id="edge14" class="edge">
<title>Metamodel::EnumHOW&#45;&gt;Metamodel::BUILDPLAN</title>
<path fill="none" stroke="#6666ff" d="M946.64,-1126.95C991,-1163.99 1089.75,-1246.43 1089.75,-1246.43 1089.75,-1246.43 1209.55,-1335.18 1268.5,-1378.86"/>
<polygon fill="#6666ff" stroke="#6666ff" points="1266.62,-1381.82 1276.74,-1384.96 1270.78,-1376.2 1266.62,-1381.82"/>
</g>
<!-- Metamodel::EnumHOW&#45;&gt;Metamodel::Mixins -->
<g id="edge16" class="edge">
<title>Metamodel::EnumHOW&#45;&gt;Metamodel::Mixins</title>
<path fill="none" stroke="#6666ff" d="M937.72,-1127.65C977.17,-1186.88 1101.25,-1373.19 1147.56,-1442.73"/>
<polygon fill="#6666ff" stroke="#6666ff" points="1144.86,-1444.98 1153.32,-1451.37 1150.69,-1441.1 1144.86,-1444.98"/>
</g>
<!-- Metamodel::TypePretense -->
<g id="node16" class="node">
<title>Metamodel::TypePretense</title>
<g id="a_node16"><a xlink:href="/type/Metamodel::TypePretense" xlink:title="Metamodel::TypePretense">
<ellipse fill="none" stroke="#6666ff" cx="511.4" cy="-49.62" rx="114.28" ry="18"/>
<text text-anchor="middle" x="511.4" y="-45.92" font-family="FreeSans" font-size="14.00" fill="#6666ff">Metamodel::TypePretense</text>
</a>
</g>
</g>
<!-- Metamodel::RolePunning -->
<g id="node17" class="node">
<title>Metamodel::RolePunning</title>
<g id="a_node17"><a xlink:href="/type/Metamodel::RolePunning" xlink:title="Metamodel::RolePunning">
<ellipse fill="none" stroke="#6666ff" cx="1043.74" cy="-18" rx="109.68" ry="18"/>
<text text-anchor="middle" x="1043.74" y="-14.3" font-family="FreeSans" font-size="14.00" fill="#6666ff">Metamodel::RolePunning</text>
</a>
</g>
</g>
<!-- Metamodel::ParametricRoleGroupHOW -->
<g id="node18" class="node">
<title>Metamodel::ParametricRoleGroupHOW</title>
<g id="a_node18"><a xlink:href="/type/Metamodel::ParametricRoleGroupHOW" xlink:title="Metamodel::ParametricRoleGroupHOW">
<ellipse fill="none" stroke="#000000" cx="821.52" cy="-435.75" rx="166.27" ry="18"/>
<text text-anchor="middle" x="821.52" y="-432.05" font-family="FreeSans" font-size="14.00" fill="#000000">Metamodel::ParametricRoleGroupHOW</text>
</a>
</g>
</g>
<!-- Metamodel::ParametricRoleGroupHOW&#45;&gt;Metamodel::BoolificationProtocol -->
<g id="edge21" class="edge">
<title>Metamodel::ParametricRoleGroupHOW&#45;&gt;Metamodel::BoolificationProtocol</title>
<path fill="none" stroke="#6666ff" d="M806.77,-453.84C753.05,-519.71 567.68,-747.03 504.59,-824.4"/>
<polygon fill="#6666ff" stroke="#6666ff" points="501.8,-822.28 498.19,-832.24 507.23,-826.7 501.8,-822.28"/>
</g>
<!-- Metamodel::ParametricRoleGroupHOW&#45;&gt;Any -->
<g id="edge3" class="edge">
<title>Metamodel::ParametricRoleGroupHOW&#45;&gt;Any</title>
<path fill="none" stroke="#000000" d="M832.82,-453.84C879.1,-527.94 1054.3,-808.4 1108.07,-894.48"/>
<polygon fill="#000000" stroke="#000000" points="1105.18,-896.47 1113.45,-903.09 1111.12,-892.76 1105.18,-896.47"/>
</g>
<!-- Metamodel::ParametricRoleGroupHOW&#45;&gt;Metamodel::Naming -->
<g id="edge17" class="edge">
<title>Metamodel::ParametricRoleGroupHOW&#45;&gt;Metamodel::Naming</title>
<path fill="none" stroke="#6666ff" d="M817.19,-453.87C801.37,-520.1 746.62,-749.39 727.49,-829.53"/>
<polygon fill="#6666ff" stroke="#6666ff" points="724.05,-828.86 725.13,-839.4 730.86,-830.48 724.05,-828.86"/>
</g>
<!-- Metamodel::ParametricRoleGroupHOW&#45;&gt;Metamodel::Stashing -->
<g id="edge18" class="edge">
<title>Metamodel::ParametricRoleGroupHOW&#45;&gt;Metamodel::Stashing</title>
<path fill="none" stroke="#6666ff" d="M825.44,-453.87C839.78,-520.08 889.44,-749.29 906.79,-829.41"/>
<polygon fill="#6666ff" stroke="#6666ff" points="903.39,-830.24 908.93,-839.27 910.23,-828.76 903.39,-830.24"/>
</g>
<!-- Metamodel::ParametricRoleGroupHOW&#45;&gt;Metamodel::TypePretense -->
<g id="edge19" class="edge">
<title>Metamodel::ParametricRoleGroupHOW&#45;&gt;Metamodel::TypePretense</title>
<path fill="none" stroke="#6666ff" d="M806.97,-417.65C756.82,-355.19 590.91,-148.62 532.2,-75.52"/>
<polygon fill="#6666ff" stroke="#6666ff" points="534.9,-73.29 525.91,-67.68 529.44,-77.67 534.9,-73.29"/>
</g>
<!-- Metamodel::ParametricRoleGroupHOW&#45;&gt;Metamodel::RolePunning -->
<g id="edge20" class="edge">
<title>Metamodel::ParametricRoleGroupHOW&#45;&gt;Metamodel::RolePunning</title>
<path fill="none" stroke="#6666ff" d="M831.21,-417.53C866.37,-351.44 987.34,-124.02 1029.28,-45.17"/>
<polygon fill="#6666ff" stroke="#6666ff" points="1032.39,-46.79 1034,-36.31 1026.21,-43.5 1032.39,-46.79"/>
</g>
<!-- Metamodel::Documenting -->
<g id="node19" class="node">
<title>Metamodel::Documenting</title>
<g id="a_node19"><a xlink:href="/type/Metamodel::Documenting" xlink:title="Metamodel::Documenting">
<ellipse fill="none" stroke="#6666ff" cx="218.56" cy="-1585.4" rx="111.28" ry="18"/>
<text text-anchor="middle" x="218.56" y="-1581.7" font-family="FreeSans" font-size="14.00" fill="#6666ff">Metamodel::Documenting</text>
</a>
</g>
</g>
<!-- Metamodel::Versioning -->
<g id="node20" class="node">
<title>Metamodel::Versioning</title>
<g id="a_node20"><a xlink:href="/type/Metamodel::Versioning" xlink:title="Metamodel::Versioning">
<ellipse fill="none" stroke="#6666ff" cx="478.95" cy="-1865.73" rx="100.98" ry="18"/>
<text text-anchor="middle" x="478.95" y="-1862.03" font-family="FreeSans" font-size="14.00" fill="#6666ff">Metamodel::Versioning</text>
</a>
</g>
</g>
<!-- Metamodel::Finalization -->
<g id="node21" class="node">
<title>Metamodel::Finalization</title>
<g id="a_node21"><a xlink:href="/type/Metamodel::Finalization" xlink:title="Metamodel::Finalization">
<ellipse fill="none" stroke="#6666ff" cx="334.35" cy="-1754.16" rx="103.98" ry="18"/>
<text text-anchor="middle" x="334.35" y="-1750.46" font-family="FreeSans" font-size="14.00" fill="#6666ff">Metamodel::Finalization</text>
</a>
</g>
</g>
<!-- Metamodel::PrivateMethodContainer -->
<g id="node22" class="node">
<title>Metamodel::PrivateMethodContainer</title>
<g id="a_node22"><a xlink:href="/type/Metamodel::PrivateMethodContainer" xlink:title="Metamodel::PrivateMethodContainer">
<ellipse fill="none" stroke="#6666ff" cx="154.69" cy="-1367.82" rx="154.87" ry="18"/>
<text text-anchor="middle" x="154.69" y="-1364.12" font-family="FreeSans" font-size="14.00" fill="#6666ff">Metamodel::PrivateMethodContainer</text>
</a>
</g>
</g>
<!-- Metamodel::MultipleInheritance -->
<g id="node23" class="node">
<title>Metamodel::MultipleInheritance</title>
<g id="a_node23"><a xlink:href="/type/Metamodel::MultipleInheritance" xlink:title="Metamodel::MultipleInheritance">
<ellipse fill="none" stroke="#6666ff" cx="873.49" cy="-1930.5" rx="133.78" ry="18"/>
<text text-anchor="middle" x="873.49" y="-1926.8" font-family="FreeSans" font-size="14.00" fill="#6666ff">Metamodel::MultipleInheritance</text>
</a>
</g>
</g>
<!-- Metamodel::DefaultParent -->
<g id="node24" class="node">
<title>Metamodel::DefaultParent</title>
<g id="a_node24"><a xlink:href="/type/Metamodel::DefaultParent" xlink:title="Metamodel::DefaultParent">
<ellipse fill="none" stroke="#6666ff" cx="1048.96" cy="-1884.45" rx="113.18" ry="18"/>
<text text-anchor="middle" x="1048.96" y="-1880.75" font-family="FreeSans" font-size="14.00" fill="#6666ff">Metamodel::DefaultParent</text>
</a>
</g>
</g>
<!-- Metamodel::C3MRO -->
<g id="node25" class="node">
<title>Metamodel::C3MRO</title>
<g id="a_node25"><a xlink:href="/type/Metamodel::C3MRO" xlink:title="Metamodel::C3MRO">
<ellipse fill="none" stroke="#6666ff" cx="639.19" cy="-1919.82" rx="92.08" ry="18"/>
<text text-anchor="middle" x="639.19" y="-1916.12" font-family="FreeSans" font-size="14.00" fill="#6666ff">Metamodel::C3MRO</text>
</a>
</g>
</g>
<!-- Metamodel::Trusting -->
<g id="node26" class="node">
<title>Metamodel::Trusting</title>
<g id="a_node26"><a xlink:href="/type/Metamodel::Trusting" xlink:title="Metamodel::Trusting">
<ellipse fill="none" stroke="#6666ff" cx="1228.57" cy="-1754.7" rx="91.78" ry="18"/>
<text text-anchor="middle" x="1228.57" y="-1751" font-family="FreeSans" font-size="14.00" fill="#6666ff">Metamodel::Trusting</text>
</a>
</g>
</g>
<!-- Metamodel::ClassHOW -->
<g id="node27" class="node">
<title>Metamodel::ClassHOW</title>
<g id="a_node27"><a xlink:href="/type/Metamodel::ClassHOW" xlink:title="Metamodel::ClassHOW">
<ellipse fill="none" stroke="#000000" cx="763.06" cy="-1400.28" rx="103.18" ry="18"/>
<text text-anchor="middle" x="763.06" y="-1396.58" font-family="FreeSans" font-size="14.00" fill="#000000">Metamodel::ClassHOW</text>
</a>
</g>
</g>
<!-- Metamodel::ClassHOW&#45;&gt;Metamodel::BoolificationProtocol -->
<g id="edge40" class="edge">
<title>Metamodel::ClassHOW&#45;&gt;Metamodel::BoolificationProtocol</title>
<path fill="none" stroke="#6666ff" d="M760.1,-1382.07C750.95,-1325.74 723.72,-1158.06 723.72,-1158.06 723.72,-1158.06 562.12,-951.23 503.93,-876.75"/>
<polygon fill="#6666ff" stroke="#6666ff" points="506.6,-874.47 497.68,-868.75 501.08,-878.78 506.6,-874.47"/>
</g>
<!-- Metamodel::ClassHOW&#45;&gt;Any -->
<g id="edge4" class="edge">
<title>Metamodel::ClassHOW&#45;&gt;Any</title>
<path fill="none" stroke="#000000" d="M779.87,-1382.09C838.69,-1318.42 1031.74,-1109.45 1031.74,-1109.45 1031.74,-1109.45 1085.67,-998.4 1111,-946.23"/>
<polygon fill="#000000" stroke="#000000" points="1114.3,-947.45 1115.52,-936.92 1108,-944.39 1114.3,-947.45"/>
</g>
<!-- Metamodel::ClassHOW&#45;&gt;Metamodel::Naming -->
<g id="edge22" class="edge">
<title>Metamodel::ClassHOW&#45;&gt;Metamodel::Naming</title>
<path fill="none" stroke="#6666ff" d="M761.66,-1382.22C755.47,-1302.68 730.61,-983.29 723.03,-885.83"/>
<polygon fill="#6666ff" stroke="#6666ff" points="726.5,-885.28 722.23,-875.58 719.52,-885.82 726.5,-885.28"/>
</g>
<!-- Metamodel::ClassHOW&#45;&gt;Metamodel::Stashing -->
<g id="edge25" class="edge">
<title>Metamodel::ClassHOW&#45;&gt;Metamodel::Stashing</title>
<path fill="none" stroke="#6666ff" d="M766.58,-1382.07C778.88,-1318.34 819.27,-1109.16 819.27,-1109.16 819.27,-1109.16 878.18,-950.59 902.52,-885.11"/>
<polygon fill="#6666ff" stroke="#6666ff" points="905.91,-886.03 906.11,-875.43 899.35,-883.59 905.91,-886.03"/>
</g>
<!-- Metamodel::ClassHOW&#45;&gt;Metamodel::AttributeContainer -->
<g id="edge26" class="edge">
<title>Metamodel::ClassHOW&#45;&gt;Metamodel::AttributeContainer</title>
<path fill="none" stroke="#6666ff" d="M787.83,-1417.86C831.98,-1449.2 924.3,-1514.72 974,-1550"/>
<polygon fill="#6666ff" stroke="#6666ff" points="972,-1552.87 982.18,-1555.8 976.05,-1547.16 972,-1552.87"/>
</g>
<!-- Metamodel::ClassHOW&#45;&gt;Metamodel::MethodContainer -->
<g id="edge28" class="edge">
<title>Metamodel::ClassHOW&#45;&gt;Metamodel::MethodContainer</title>
<path fill="none" stroke="#6666ff" d="M721.56,-1383.78C654.2,-1356.99 521.16,-1304.08 447.41,-1274.75"/>
<polygon fill="#6666ff" stroke="#6666ff" points="448.43,-1271.39 437.84,-1270.95 445.84,-1277.89 448.43,-1271.39"/>
</g>
<!-- Metamodel::ClassHOW&#45;&gt;Metamodel::MultiMethodContainer -->
<g id="edge30" class="edge">
<title>Metamodel::ClassHOW&#45;&gt;Metamodel::MultiMethodContainer</title>
<path fill="none" stroke="#6666ff" d="M812.06,-1384.41C899.08,-1356.22 1080.4,-1297.48 1175.82,-1266.56"/>
<polygon fill="#6666ff" stroke="#6666ff" points="1177.19,-1269.8 1185.62,-1263.39 1175.03,-1263.14 1177.19,-1269.8"/>
</g>
<!-- Metamodel::ClassHOW&#45;&gt;Metamodel::RoleContainer -->
<g id="edge31" class="edge">
<title>Metamodel::ClassHOW&#45;&gt;Metamodel::RoleContainer</title>
<path fill="none" stroke="#6666ff" d="M735.6,-1382.85C648.06,-1327.3 381.25,-1157.98 381.25,-1157.98 381.25,-1157.98 376.45,-1114.8 373.12,-1084.87"/>
<polygon fill="#6666ff" stroke="#6666ff" points="376.6,-1084.48 372.01,-1074.93 369.64,-1085.25 376.6,-1084.48"/>
</g>
<!-- Metamodel::ClassHOW&#45;&gt;Metamodel::MROBasedMethodDispatch -->
<g id="edge35" class="edge">
<title>Metamodel::ClassHOW&#45;&gt;Metamodel::MROBasedMethodDispatch</title>
<path fill="none" stroke="#6666ff" d="M747.58,-1382.47C710.78,-1340.13 617.96,-1233.35 574.97,-1183.9"/>
<polygon fill="#6666ff" stroke="#6666ff" points="577.48,-1181.44 568.28,-1176.19 572.19,-1186.04 577.48,-1181.44"/>
</g>
<!-- Metamodel::ClassHOW&#45;&gt;Metamodel::MROBasedTypeChecking -->
<g id="edge36" class="edge">
<title>Metamodel::ClassHOW&#45;&gt;Metamodel::MROBasedTypeChecking</title>
<path fill="none" stroke="#6666ff" d="M727.78,-1417.26C694.74,-1433.15 645.19,-1457 609.08,-1474.37"/>
<polygon fill="#6666ff" stroke="#6666ff" points="607.23,-1471.37 599.74,-1478.86 610.27,-1477.68 607.23,-1471.37"/>
</g>
<!-- Metamodel::ClassHOW&#45;&gt;Metamodel::BUILDPLAN -->
<g id="edge38" class="edge">
<title>Metamodel::ClassHOW&#45;&gt;Metamodel::BUILDPLAN</title>
<path fill="none" stroke="#6666ff" d="M866.68,-1400.72C956.3,-1401.1 1085.91,-1401.66 1180.11,-1402.06"/>
<polygon fill="#6666ff" stroke="#6666ff" points="1180.25,-1405.56 1190.26,-1402.1 1180.28,-1398.56 1180.25,-1405.56"/>
</g>
<!-- Metamodel::ClassHOW&#45;&gt;Metamodel::Mixins -->
<g id="edge39" class="edge">
<title>Metamodel::ClassHOW&#45;&gt;Metamodel::Mixins</title>
<path fill="none" stroke="#6666ff" d="M836.82,-1412.93C908.4,-1425.2 1016.54,-1443.75 1088.96,-1456.17"/>
<polygon fill="#6666ff" stroke="#6666ff" points="1088.48,-1459.64 1098.93,-1457.88 1089.67,-1452.74 1088.48,-1459.64"/>
</g>
<!-- Metamodel::ClassHOW&#45;&gt;Metamodel::Documenting -->
<g id="edge23" class="edge">
<title>Metamodel::ClassHOW&#45;&gt;Metamodel::Documenting</title>
<path fill="none" stroke="#6666ff" d="M705.41,-1415.29C614.17,-1439.03 446.74,-1482.61 446.74,-1482.61 446.74,-1482.61 398.38,-1496.47 398.38,-1496.47 398.38,-1496.47 315.71,-1537.36 262.48,-1563.68"/>
<polygon fill="#6666ff" stroke="#6666ff" points="260.65,-1560.69 253.24,-1568.26 263.75,-1566.96 260.65,-1560.69"/>
</g>
<!-- Metamodel::ClassHOW&#45;&gt;Metamodel::Versioning -->
<g id="edge24" class="edge">
<title>Metamodel::ClassHOW&#45;&gt;Metamodel::Versioning</title>
<path fill="none" stroke="#6666ff" d="M756.44,-1418.38C746.24,-1446.25 727.85,-1496.5 727.85,-1496.5 727.85,-1496.5 553.65,-1754.93 496.72,-1839.38"/>
<polygon fill="#6666ff" stroke="#6666ff" points="493.82,-1837.43 491.13,-1847.68 499.62,-1841.34 493.82,-1837.43"/>
</g>
<!-- Metamodel::ClassHOW&#45;&gt;Metamodel::Finalization -->
<g id="edge27" class="edge">
<title>Metamodel::ClassHOW&#45;&gt;Metamodel::Finalization</title>
<path fill="none" stroke="#6666ff" d="M756.44,-1418.38C746.24,-1446.25 727.85,-1496.5 727.85,-1496.5 727.85,-1496.5 466.25,-1667.8 369.64,-1731.06"/>
<polygon fill="#6666ff" stroke="#6666ff" points="367.54,-1728.25 361.09,-1736.66 371.37,-1734.11 367.54,-1728.25"/>
</g>
<!-- Metamodel::ClassHOW&#45;&gt;Metamodel::PrivateMethodContainer -->
<g id="edge29" class="edge">
<title>Metamodel::ClassHOW&#45;&gt;Metamodel::PrivateMethodContainer</title>
<path fill="none" stroke="#6666ff" d="M663.96,-1394.99C566.81,-1389.81 417.41,-1381.84 305.52,-1375.87"/>
<polygon fill="#6666ff" stroke="#6666ff" points="305.66,-1372.37 295.49,-1375.33 305.29,-1379.36 305.66,-1372.37"/>
</g>
<!-- Metamodel::ClassHOW&#45;&gt;Metamodel::MultipleInheritance -->
<g id="edge32" class="edge">
<title>Metamodel::ClassHOW&#45;&gt;Metamodel::MultipleInheritance</title>
<path fill="none" stroke="#6666ff" d="M766.86,-1418.53C783.22,-1497.08 847.71,-1806.69 867.61,-1902.26"/>
<polygon fill="#6666ff" stroke="#6666ff" points="864.24,-1903.25 869.71,-1912.32 871.09,-1901.82 864.24,-1903.25"/>
</g>
<!-- Metamodel::ClassHOW&#45;&gt;Metamodel::DefaultParent -->
<g id="edge33" class="edge">
<title>Metamodel::ClassHOW&#45;&gt;Metamodel::DefaultParent</title>
<path fill="none" stroke="#6666ff" d="M773.75,-1418.38C817.27,-1492.08 981.33,-1769.92 1033.16,-1857.7"/>
<polygon fill="#6666ff" stroke="#6666ff" points="1030.27,-1859.68 1038.37,-1866.52 1036.3,-1856.12 1030.27,-1859.68"/>
</g>
<!-- Metamodel::ClassHOW&#45;&gt;Metamodel::C3MRO -->
<g id="edge34" class="edge">
<title>Metamodel::ClassHOW&#45;&gt;Metamodel::C3MRO</title>
<path fill="none" stroke="#6666ff" d="M758.72,-1418.47C740.27,-1495.85 668.22,-1798.08 645.85,-1891.89"/>
<polygon fill="#6666ff" stroke="#6666ff" points="642.41,-1891.24 643.49,-1901.78 649.22,-1892.87 642.41,-1891.24"/>
</g>
<!-- Metamodel::ClassHOW&#45;&gt;Metamodel::Trusting -->
<g id="edge37" class="edge">
<title>Metamodel::ClassHOW&#45;&gt;Metamodel::Trusting</title>
<path fill="none" stroke="#6666ff" d="M774.7,-1418.18C803.5,-1462.47 875.79,-1573.64 875.79,-1573.64 875.79,-1573.64 1093.39,-1685.32 1186.8,-1733.26"/>
<polygon fill="#6666ff" stroke="#6666ff" points="1185.21,-1736.37 1195.7,-1737.83 1188.4,-1730.15 1185.21,-1736.37"/>
</g>
</g>
</svg>
