<?xml version="1.0" encoding="UTF-8" standalone="no"?>
<!DOCTYPE svg PUBLIC "-//W3C//DTD SVG 1.1//EN"
 "http://www.w3.org/Graphics/SVG/1.1/DTD/svg11.dtd">
<!-- Generated by graphviz version 2.43.0 (0)
 -->
<!-- Title: perl6&#45;type&#45;graph Pages: 1 -->
<svg width="2489pt" height="1880pt"
 viewBox="0.00 0.00 2488.66 1879.66" xmlns="http://www.w3.org/2000/svg" xmlns:xlink="http://www.w3.org/1999/xlink">
<g id="graph0" class="graph" transform="scale(1 1) rotate(0) translate(4 1875.66)">
<title>perl6&#45;type&#45;graph</title>
<polygon fill="white" stroke="transparent" points="-4,4 -4,-1875.66 2484.66,-1875.66 2484.66,4 -4,4"/>
<!-- Metamodel::Stashing -->
<g id="node1" class="node">
<title>Metamodel::Stashing</title>
<g id="a_node1"><a xlink:href="/type/Metamodel::Stashing" xlink:title="Metamodel::Stashing">
<ellipse fill="none" stroke="#6666ff" cx="1129.78" cy="-746.91" rx="93.68" ry="18"/>
<text text-anchor="middle" x="1129.78" y="-743.21" font-family="FreeSans" font-size="14.00" fill="#6666ff">Metamodel::Stashing</text>
</a>
</g>
</g>
<!-- Mu -->
<g id="node2" class="node">
<title>Mu</title>
<g id="a_node2"><a xlink:href="/type/Mu" xlink:title="Mu">
<ellipse fill="none" stroke="#000000" cx="1598.34" cy="-18" rx="27" ry="18"/>
<text text-anchor="middle" x="1598.34" y="-14.3" font-family="FreeSans" font-size="14.00" fill="#000000">Mu</text>
</a>
</g>
</g>
<!-- Any -->
<g id="node3" class="node">
<title>Any</title>
<g id="a_node3"><a xlink:href="/type/Any" xlink:title="Any">
<ellipse fill="none" stroke="#000000" cx="1262.95" cy="-605.89" rx="27" ry="18"/>
<text text-anchor="middle" x="1262.95" y="-602.19" font-family="FreeSans" font-size="14.00" fill="#000000">Any</text>
</a>
</g>
</g>
<!-- Any&#45;&gt;Mu -->
<g id="edge1" class="edge">
<title>Any&#45;&gt;Mu</title>
<path fill="none" stroke="#000000" d="M1272.63,-588.93C1319.87,-506.13 1526.29,-144.3 1583.55,-43.91"/>
<polygon fill="#000000" stroke="#000000" points="1586.71,-45.45 1588.62,-35.03 1580.62,-41.98 1586.71,-45.45"/>
</g>
<!-- Metamodel::Naming -->
<g id="node4" class="node">
<title>Metamodel::Naming</title>
<g id="a_node4"><a xlink:href="/type/Metamodel::Naming" xlink:title="Metamodel::Naming">
<ellipse fill="none" stroke="#6666ff" cx="1091.46" cy="-846.42" rx="90.18" ry="18"/>
<text text-anchor="middle" x="1091.46" y="-842.72" font-family="FreeSans" font-size="14.00" fill="#6666ff">Metamodel::Naming</text>
</a>
</g>
</g>
<!-- Metamodel::AttributeContainer -->
<g id="node5" class="node">
<title>Metamodel::AttributeContainer</title>
<g id="a_node5"><a xlink:href="/type/Metamodel::AttributeContainer" xlink:title="Metamodel::AttributeContainer">
<ellipse fill="none" stroke="#6666ff" cx="1973.01" cy="-922.43" rx="129.98" ry="18"/>
<text text-anchor="middle" x="1973.01" y="-918.73" font-family="FreeSans" font-size="14.00" fill="#6666ff">Metamodel::AttributeContainer</text>
</a>
</g>
</g>
<!-- Metamodel::MethodContainer -->
<g id="node6" class="node">
<title>Metamodel::MethodContainer</title>
<g id="a_node6"><a xlink:href="/type/Metamodel::MethodContainer" xlink:title="Metamodel::MethodContainer">
<ellipse fill="none" stroke="#6666ff" cx="1484.65" cy="-1338.11" rx="127.28" ry="18"/>
<text text-anchor="middle" x="1484.65" y="-1334.41" font-family="FreeSans" font-size="14.00" fill="#6666ff">Metamodel::MethodContainer</text>
</a>
</g>
</g>
<!-- Metamodel::MultiMethodContainer -->
<g id="node7" class="node">
<title>Metamodel::MultiMethodContainer</title>
<g id="a_node7"><a xlink:href="/type/Metamodel::MultiMethodContainer" xlink:title="Metamodel::MultiMethodContainer">
<ellipse fill="none" stroke="#6666ff" cx="1808.98" cy="-631.22" rx="146.47" ry="18"/>
<text text-anchor="middle" x="1808.98" y="-627.52" font-family="FreeSans" font-size="14.00" fill="#6666ff">Metamodel::MultiMethodContainer</text>
</a>
</g>
</g>
<!-- Metamodel::RoleContainer -->
<g id="node8" class="node">
<title>Metamodel::RoleContainer</title>
<g id="a_node8"><a xlink:href="/type/Metamodel::RoleContainer" xlink:title="Metamodel::RoleContainer">
<ellipse fill="none" stroke="#6666ff" cx="1923.75" cy="-740.61" rx="115.88" ry="18"/>
<text text-anchor="middle" x="1923.75" y="-736.91" font-family="FreeSans" font-size="14.00" fill="#6666ff">Metamodel::RoleContainer</text>
</a>
</g>
</g>
<!-- Metamodel::BaseType -->
<g id="node9" class="node">
<title>Metamodel::BaseType</title>
<g id="a_node9"><a xlink:href="/type/Metamodel::BaseType" xlink:title="Metamodel::BaseType">
<ellipse fill="none" stroke="#6666ff" cx="2381.22" cy="-588.81" rx="99.38" ry="18"/>
<text text-anchor="middle" x="2381.22" y="-585.11" font-family="FreeSans" font-size="14.00" fill="#6666ff">Metamodel::BaseType</text>
</a>
</g>
</g>
<!-- Metamodel::MROBasedMethodDispatch -->
<g id="node10" class="node">
<title>Metamodel::MROBasedMethodDispatch</title>
<g id="a_node10"><a xlink:href="/type/Metamodel::MROBasedMethodDispatch" xlink:title="Metamodel::MROBasedMethodDispatch">
<ellipse fill="none" stroke="#6666ff" cx="1663.37" cy="-1560.38" rx="169.77" ry="18"/>
<text text-anchor="middle" x="1663.37" y="-1556.68" font-family="FreeSans" font-size="14.00" fill="#6666ff">Metamodel::MROBasedMethodDispatch</text>
</a>
</g>
</g>
<!-- Metamodel::MROBasedTypeChecking -->
<g id="node11" class="node">
<title>Metamodel::MROBasedTypeChecking</title>
<g id="a_node11"><a xlink:href="/type/Metamodel::MROBasedTypeChecking" xlink:title="Metamodel::MROBasedTypeChecking">
<ellipse fill="none" stroke="#6666ff" cx="1820.01" cy="-1390.06" rx="163.27" ry="18"/>
<text text-anchor="middle" x="1820.01" y="-1386.36" font-family="FreeSans" font-size="14.00" fill="#6666ff">Metamodel::MROBasedTypeChecking</text>
</a>
</g>
</g>
<!-- Metamodel::BUILDPLAN -->
<g id="node12" class="node">
<title>Metamodel::BUILDPLAN</title>
<g id="a_node12"><a xlink:href="/type/Metamodel::BUILDPLAN" xlink:title="Metamodel::BUILDPLAN">
<ellipse fill="none" stroke="#6666ff" cx="1993.97" cy="-1532.41" rx="109.68" ry="18"/>
<text text-anchor="middle" x="1993.97" y="-1528.71" font-family="FreeSans" font-size="14.00" fill="#6666ff">Metamodel::BUILDPLAN</text>
</a>
</g>
</g>
<!-- Metamodel::BoolificationProtocol -->
<g id="node13" class="node">
<title>Metamodel::BoolificationProtocol</title>
<g id="a_node13"><a xlink:href="/type/Metamodel::BoolificationProtocol" xlink:title="Metamodel::BoolificationProtocol">
<ellipse fill="none" stroke="#6666ff" cx="1622.46" cy="-549.95" rx="139.18" ry="18"/>
<text text-anchor="middle" x="1622.46" y="-546.25" font-family="FreeSans" font-size="14.00" fill="#6666ff">Metamodel::BoolificationProtocol</text>
</a>
</g>
</g>
<!-- Metamodel::Mixins -->
<g id="node14" class="node">
<title>Metamodel::Mixins</title>
<g id="a_node14"><a xlink:href="/type/Metamodel::Mixins" xlink:title="Metamodel::Mixins">
<ellipse fill="none" stroke="#6666ff" cx="2095.88" cy="-1334.55" rx="85.29" ry="18"/>
<text text-anchor="middle" x="2095.88" y="-1330.85" font-family="FreeSans" font-size="14.00" fill="#6666ff">Metamodel::Mixins</text>
</a>
</g>
</g>
<!-- Metamodel::EnumHOW -->
<g id="node15" class="node">
<title>Metamodel::EnumHOW</title>
<g id="a_node15"><a xlink:href="/type/Metamodel::EnumHOW" xlink:title="Metamodel::EnumHOW">
<ellipse fill="none" stroke="#000000" cx="1724.51" cy="-952.73" rx="104.78" ry="18"/>
<text text-anchor="middle" x="1724.51" y="-949.03" font-family="FreeSans" font-size="14.00" fill="#000000">Metamodel::EnumHOW</text>
</a>
</g>
</g>
<!-- Metamodel::EnumHOW&#45;&gt;Metamodel::Stashing -->
<g id="edge10" class="edge">
<title>Metamodel::EnumHOW&#45;&gt;Metamodel::Stashing</title>
<path fill="none" stroke="#6666ff" d="M1673.06,-936.99C1549.04,-899.03 1243.75,-805.59 1243.75,-805.59 1243.75,-805.59 1202.1,-791.71 1202.1,-791.71 1202.1,-791.71 1184.24,-780.65 1166.28,-769.52"/>
<polygon fill="#6666ff" stroke="#6666ff" points="1167.87,-766.39 1157.53,-764.1 1164.19,-772.34 1167.87,-766.39"/>
</g>
<!-- Metamodel::EnumHOW&#45;&gt;Any -->
<g id="edge2" class="edge">
<title>Metamodel::EnumHOW&#45;&gt;Any</title>
<path fill="none" stroke="#000000" d="M1700.99,-935.06C1622.82,-876.32 1372.05,-687.87 1289.55,-625.88"/>
<polygon fill="#000000" stroke="#000000" points="1291.31,-622.82 1281.21,-619.61 1287.11,-628.42 1291.31,-622.82"/>
</g>
<!-- Metamodel::EnumHOW&#45;&gt;Metamodel::Naming -->
<g id="edge9" class="edge">
<title>Metamodel::EnumHOW&#45;&gt;Metamodel::Naming</title>
<path fill="none" stroke="#6666ff" d="M1649.41,-940.12C1528.99,-919.9 1293.8,-880.4 1170.77,-859.74"/>
<polygon fill="#6666ff" stroke="#6666ff" points="1171.11,-856.25 1160.67,-858.05 1169.95,-863.15 1171.11,-856.25"/>
</g>
<!-- Metamodel::EnumHOW&#45;&gt;Metamodel::AttributeContainer -->
<g id="edge11" class="edge">
<title>Metamodel::EnumHOW&#45;&gt;Metamodel::AttributeContainer</title>
<path fill="none" stroke="#6666ff" d="M1810.03,-942.3C1827.88,-940.13 1846.92,-937.81 1865.45,-935.55"/>
<polygon fill="#6666ff" stroke="#6666ff" points="1865.88,-939.02 1875.38,-934.33 1865.03,-932.07 1865.88,-939.02"/>
</g>
<!-- Metamodel::EnumHOW&#45;&gt;Metamodel::MethodContainer -->
<g id="edge12" class="edge">
<title>Metamodel::EnumHOW&#45;&gt;Metamodel::MethodContainer</title>
<path fill="none" stroke="#6666ff" d="M1714.88,-970.73C1687.95,-1021.04 1613.81,-1159.55 1613.81,-1159.55 1613.81,-1159.55 1539.74,-1261.95 1503.79,-1311.66"/>
<polygon fill="#6666ff" stroke="#6666ff" points="1500.77,-1309.86 1497.75,-1320.01 1506.44,-1313.96 1500.77,-1309.86"/>
</g>
<!-- Metamodel::EnumHOW&#45;&gt;Metamodel::MultiMethodContainer -->
<g id="edge13" class="edge">
<title>Metamodel::EnumHOW&#45;&gt;Metamodel::MultiMethodContainer</title>
<path fill="none" stroke="#6666ff" d="M1729.3,-934.53C1743.38,-880.92 1784.76,-723.4 1801.67,-659.07"/>
<polygon fill="#6666ff" stroke="#6666ff" points="1805.1,-659.79 1804.25,-649.23 1798.33,-658.01 1805.1,-659.79"/>
</g>
<!-- Metamodel::EnumHOW&#45;&gt;Metamodel::RoleContainer -->
<g id="edge14" class="edge">
<title>Metamodel::EnumHOW&#45;&gt;Metamodel::RoleContainer</title>
<path fill="none" stroke="#6666ff" d="M1741.5,-934.65C1777.01,-896.84 1859.17,-809.37 1899.93,-765.97"/>
<polygon fill="#6666ff" stroke="#6666ff" points="1902.51,-768.34 1906.8,-758.65 1897.41,-763.55 1902.51,-768.34"/>
</g>
<!-- Metamodel::EnumHOW&#45;&gt;Metamodel::BaseType -->
<g id="edge15" class="edge">
<title>Metamodel::EnumHOW&#45;&gt;Metamodel::BaseType</title>
<path fill="none" stroke="#6666ff" d="M1755.75,-935.43C1863.69,-875.61 2220.94,-677.63 2341.26,-610.95"/>
<polygon fill="#6666ff" stroke="#6666ff" points="2343.13,-613.92 2350.18,-606.01 2339.73,-607.8 2343.13,-613.92"/>
</g>
<!-- Metamodel::EnumHOW&#45;&gt;Metamodel::MROBasedMethodDispatch -->
<g id="edge16" class="edge">
<title>Metamodel::EnumHOW&#45;&gt;Metamodel::MROBasedMethodDispatch</title>
<path fill="none" stroke="#6666ff" d="M1721.63,-970.96C1708.52,-1053.71 1655.28,-1389.93 1655.28,-1389.93 1655.28,-1389.93 1659.72,-1483.48 1662.02,-1531.97"/>
<polygon fill="#6666ff" stroke="#6666ff" points="1658.53,-1532.32 1662.5,-1542.14 1665.53,-1531.99 1658.53,-1532.32"/>
</g>
<!-- Metamodel::EnumHOW&#45;&gt;Metamodel::MROBasedTypeChecking -->
<g id="edge17" class="edge">
<title>Metamodel::EnumHOW&#45;&gt;Metamodel::MROBasedTypeChecking</title>
<path fill="none" stroke="#6666ff" d="M1728.5,-970.97C1743.38,-1039.11 1795.79,-1279.11 1813.84,-1361.81"/>
<polygon fill="#6666ff" stroke="#6666ff" points="1810.46,-1362.73 1816.01,-1371.75 1817.3,-1361.23 1810.46,-1362.73"/>
</g>
<!-- Metamodel::EnumHOW&#45;&gt;Metamodel::BUILDPLAN -->
<g id="edge18" class="edge">
<title>Metamodel::EnumHOW&#45;&gt;Metamodel::BUILDPLAN</title>
<path fill="none" stroke="#6666ff" d="M1735.2,-970.7C1784.17,-1053.02 1984.75,-1390.19 1984.75,-1390.19 1984.75,-1390.19 1989.46,-1462.92 1992.15,-1504.36"/>
<polygon fill="#6666ff" stroke="#6666ff" points="1988.67,-1504.65 1992.81,-1514.4 1995.65,-1504.2 1988.67,-1504.65"/>
</g>
<!-- Metamodel::EnumHOW&#45;&gt;Metamodel::BoolificationProtocol -->
<g id="edge19" class="edge">
<title>Metamodel::EnumHOW&#45;&gt;Metamodel::BoolificationProtocol</title>
<path fill="none" stroke="#6666ff" d="M1719.93,-934.64C1703.74,-870.76 1649.18,-655.4 1629.56,-577.97"/>
<polygon fill="#6666ff" stroke="#6666ff" points="1632.88,-576.83 1627.03,-567.99 1626.09,-578.55 1632.88,-576.83"/>
</g>
<!-- Metamodel::EnumHOW&#45;&gt;Metamodel::Mixins -->
<g id="edge20" class="edge">
<title>Metamodel::EnumHOW&#45;&gt;Metamodel::Mixins</title>
<path fill="none" stroke="#6666ff" d="M1741.93,-970.64C1802.11,-1032.52 2001.47,-1237.48 2071.39,-1309.37"/>
<polygon fill="#6666ff" stroke="#6666ff" points="2069.02,-1311.95 2078.5,-1316.68 2074.04,-1307.07 2069.02,-1311.95"/>
</g>
<!-- Metamodel::TypePretense -->
<g id="node16" class="node">
<title>Metamodel::TypePretense</title>
<g id="a_node16"><a xlink:href="/type/Metamodel::TypePretense" xlink:title="Metamodel::TypePretense">
<ellipse fill="none" stroke="#6666ff" cx="793.35" cy="-257.72" rx="114.28" ry="18"/>
<text text-anchor="middle" x="793.35" y="-254.02" font-family="FreeSans" font-size="14.00" fill="#6666ff">Metamodel::TypePretense</text>
</a>
</g>
</g>
<!-- Metamodel::RolePunning -->
<g id="node17" class="node">
<title>Metamodel::RolePunning</title>
<g id="a_node17"><a xlink:href="/type/Metamodel::RolePunning" xlink:title="Metamodel::RolePunning">
<ellipse fill="none" stroke="#6666ff" cx="1339.96" cy="-30.41" rx="109.68" ry="18"/>
<text text-anchor="middle" x="1339.96" y="-26.71" font-family="FreeSans" font-size="14.00" fill="#6666ff">Metamodel::RolePunning</text>
</a>
</g>
</g>
<!-- Metamodel::ParametricRoleGroupHOW -->
<g id="node18" class="node">
<title>Metamodel::ParametricRoleGroupHOW</title>
<g id="a_node18"><a xlink:href="/type/Metamodel::ParametricRoleGroupHOW" xlink:title="Metamodel::ParametricRoleGroupHOW">
<ellipse fill="none" stroke="#000000" cx="1133.14" cy="-229.09" rx="166.27" ry="18"/>
<text text-anchor="middle" x="1133.14" y="-225.39" font-family="FreeSans" font-size="14.00" fill="#000000">Metamodel::ParametricRoleGroupHOW</text>
</a>
</g>
</g>
<!-- Metamodel::ParametricRoleGroupHOW&#45;&gt;Metamodel::Stashing -->
<g id="edge22" class="edge">
<title>Metamodel::ParametricRoleGroupHOW&#45;&gt;Metamodel::Stashing</title>
<path fill="none" stroke="#6666ff" d="M1133.02,-247.22C1132.52,-324.18 1130.57,-624.29 1129.96,-718.47"/>
<polygon fill="#6666ff" stroke="#6666ff" points="1126.46,-718.64 1129.9,-728.66 1133.46,-718.68 1126.46,-718.64"/>
</g>
<!-- Metamodel::ParametricRoleGroupHOW&#45;&gt;Any -->
<g id="edge3" class="edge">
<title>Metamodel::ParametricRoleGroupHOW&#45;&gt;Any</title>
<path fill="none" stroke="#000000" d="M1139.4,-247.27C1160.4,-308.22 1228.41,-505.62 1253.52,-578.52"/>
<polygon fill="#000000" stroke="#000000" points="1250.34,-580.02 1256.91,-588.34 1256.96,-577.74 1250.34,-580.02"/>
</g>
<!-- Metamodel::ParametricRoleGroupHOW&#45;&gt;Metamodel::Naming -->
<g id="edge21" class="edge">
<title>Metamodel::ParametricRoleGroupHOW&#45;&gt;Metamodel::Naming</title>
<path fill="none" stroke="#6666ff" d="M1129.69,-247.22C1112.25,-338.86 1034.59,-746.87 1034.59,-746.87 1034.59,-746.87 1059.03,-789.66 1075.87,-819.13"/>
<polygon fill="#6666ff" stroke="#6666ff" points="1073.03,-821.22 1081.03,-828.16 1079.11,-817.74 1073.03,-821.22"/>
</g>
<!-- Metamodel::ParametricRoleGroupHOW&#45;&gt;Metamodel::BoolificationProtocol -->
<g id="edge25" class="edge">
<title>Metamodel::ParametricRoleGroupHOW&#45;&gt;Metamodel::BoolificationProtocol</title>
<path fill="none" stroke="#6666ff" d="M1160.5,-247.03C1243.65,-301.56 1493.43,-465.35 1586.76,-526.55"/>
<polygon fill="#6666ff" stroke="#6666ff" points="1585.01,-529.58 1595.29,-532.14 1588.85,-523.73 1585.01,-529.58"/>
</g>
<!-- Metamodel::ParametricRoleGroupHOW&#45;&gt;Metamodel::TypePretense -->
<g id="edge23" class="edge">
<title>Metamodel::ParametricRoleGroupHOW&#45;&gt;Metamodel::TypePretense</title>
<path fill="none" stroke="#6666ff" d="M1001.77,-240.16C969.58,-242.87 935.45,-245.75 904.32,-248.37"/>
<polygon fill="#6666ff" stroke="#6666ff" points="904,-244.88 894.33,-249.21 904.59,-251.86 904,-244.88"/>
</g>
<!-- Metamodel::ParametricRoleGroupHOW&#45;&gt;Metamodel::RolePunning -->
<g id="edge24" class="edge">
<title>Metamodel::ParametricRoleGroupHOW&#45;&gt;Metamodel::RolePunning</title>
<path fill="none" stroke="#6666ff" d="M1151.86,-211.11C1188.93,-175.5 1271.74,-95.95 1314.03,-55.32"/>
<polygon fill="#6666ff" stroke="#6666ff" points="1316.65,-57.66 1321.43,-48.21 1311.8,-52.61 1316.65,-57.66"/>
</g>
<!-- Metamodel::Documenting -->
<g id="node19" class="node">
<title>Metamodel::Documenting</title>
<g id="a_node19"><a xlink:href="/type/Metamodel::Documenting" xlink:title="Metamodel::Documenting">
<ellipse fill="none" stroke="#6666ff" cx="886.59" cy="-1011.57" rx="111.28" ry="18"/>
<text text-anchor="middle" x="886.59" y="-1007.87" font-family="FreeSans" font-size="14.00" fill="#6666ff">Metamodel::Documenting</text>
</a>
</g>
</g>
<!-- Metamodel::Versioning -->
<g id="node20" class="node">
<title>Metamodel::Versioning</title>
<g id="a_node20"><a xlink:href="/type/Metamodel::Versioning" xlink:title="Metamodel::Versioning">
<ellipse fill="none" stroke="#6666ff" cx="858.49" cy="-1178.08" rx="100.98" ry="18"/>
<text text-anchor="middle" x="858.49" y="-1174.38" font-family="FreeSans" font-size="14.00" fill="#6666ff">Metamodel::Versioning</text>
</a>
</g>
</g>
<!-- Metamodel::MultipleInheritance -->
<g id="node21" class="node">
<title>Metamodel::MultipleInheritance</title>
<g id="a_node21"><a xlink:href="/type/Metamodel::MultipleInheritance" xlink:title="Metamodel::MultipleInheritance">
<ellipse fill="none" stroke="#6666ff" cx="932.64" cy="-1401.83" rx="133.78" ry="18"/>
<text text-anchor="middle" x="932.64" y="-1398.13" font-family="FreeSans" font-size="14.00" fill="#6666ff">Metamodel::MultipleInheritance</text>
</a>
</g>
</g>
<!-- Metamodel::C3MRO -->
<g id="node22" class="node">
<title>Metamodel::C3MRO</title>
<g id="a_node22"><a xlink:href="/type/Metamodel::C3MRO" xlink:title="Metamodel::C3MRO">
<ellipse fill="none" stroke="#6666ff" cx="1152.2" cy="-1748.24" rx="92.08" ry="18"/>
<text text-anchor="middle" x="1152.2" y="-1744.54" font-family="FreeSans" font-size="14.00" fill="#6666ff">Metamodel::C3MRO</text>
</a>
</g>
</g>
<!-- Metamodel::NativeHOW -->
<g id="node23" class="node">
<title>Metamodel::NativeHOW</title>
<g id="a_node23"><a xlink:href="/type/Metamodel::NativeHOW" xlink:title="Metamodel::NativeHOW">
<ellipse fill="none" stroke="#000000" cx="1179.25" cy="-1241.51" rx="106.68" ry="18"/>
<text text-anchor="middle" x="1179.25" y="-1237.81" font-family="FreeSans" font-size="14.00" fill="#000000">Metamodel::NativeHOW</text>
</a>
</g>
</g>
<!-- Metamodel::NativeHOW&#45;&gt;Metamodel::Stashing -->
<g id="edge29" class="edge">
<title>Metamodel::NativeHOW&#45;&gt;Metamodel::Stashing</title>
<path fill="none" stroke="#6666ff" d="M1179.44,-1223.25C1180.26,-1145.58 1183.4,-846.56 1183.4,-846.56 1183.4,-846.56 1160.35,-803.73 1144.48,-774.23"/>
<polygon fill="#6666ff" stroke="#6666ff" points="1147.43,-772.33 1139.61,-765.19 1141.27,-775.65 1147.43,-772.33"/>
</g>
<!-- Metamodel::NativeHOW&#45;&gt;Any -->
<g id="edge4" class="edge">
<title>Metamodel::NativeHOW&#45;&gt;Any</title>
<path fill="none" stroke="#000000" d="M1180.17,-1223.32C1184.45,-1139.17 1202.1,-791.71 1202.1,-791.71 1202.1,-791.71 1224.97,-746.95 1224.97,-746.95 1224.97,-746.95 1244.48,-674.51 1255.53,-633.46"/>
<polygon fill="#000000" stroke="#000000" points="1258.92,-634.32 1258.14,-623.76 1252.16,-632.5 1258.92,-634.32"/>
</g>
<!-- Metamodel::NativeHOW&#45;&gt;Metamodel::Naming -->
<g id="edge26" class="edge">
<title>Metamodel::NativeHOW&#45;&gt;Metamodel::Naming</title>
<path fill="none" stroke="#6666ff" d="M1175.25,-1223.51C1161.28,-1160.65 1114.61,-950.61 1097.67,-874.37"/>
<polygon fill="#6666ff" stroke="#6666ff" points="1101.07,-873.53 1095.48,-864.53 1094.23,-875.05 1101.07,-873.53"/>
</g>
<!-- Metamodel::NativeHOW&#45;&gt;Metamodel::MROBasedMethodDispatch -->
<g id="edge32" class="edge">
<title>Metamodel::NativeHOW&#45;&gt;Metamodel::MROBasedMethodDispatch</title>
<path fill="none" stroke="#6666ff" d="M1205.97,-1259.11C1287.77,-1312.99 1534.87,-1475.74 1627.65,-1536.85"/>
<polygon fill="#6666ff" stroke="#6666ff" points="1625.86,-1539.87 1636.14,-1542.44 1629.71,-1534.02 1625.86,-1539.87"/>
</g>
<!-- Metamodel::NativeHOW&#45;&gt;Metamodel::MROBasedTypeChecking -->
<g id="edge33" class="edge">
<title>Metamodel::NativeHOW&#45;&gt;Metamodel::MROBasedTypeChecking</title>
<path fill="none" stroke="#6666ff" d="M1246.63,-1255.56C1359.96,-1279.2 1576.47,-1324.35 1576.47,-1324.35 1576.47,-1324.35 1676.46,-1351.33 1748.3,-1370.71"/>
<polygon fill="#6666ff" stroke="#6666ff" points="1747.68,-1374.17 1758.24,-1373.4 1749.5,-1367.41 1747.68,-1374.17"/>
</g>
<!-- Metamodel::NativeHOW&#45;&gt;Metamodel::Documenting -->
<g id="edge27" class="edge">
<title>Metamodel::NativeHOW&#45;&gt;Metamodel::Documenting</title>
<path fill="none" stroke="#6666ff" d="M1156.77,-1223.85C1104.85,-1183.05 976.51,-1082.22 917.35,-1035.74"/>
<polygon fill="#6666ff" stroke="#6666ff" points="919.17,-1032.72 909.14,-1029.29 914.84,-1038.22 919.17,-1032.72"/>
</g>
<!-- Metamodel::NativeHOW&#45;&gt;Metamodel::Versioning -->
<g id="edge28" class="edge">
<title>Metamodel::NativeHOW&#45;&gt;Metamodel::Versioning</title>
<path fill="none" stroke="#6666ff" d="M1109.65,-1227.75C1058.5,-1217.63 988.98,-1203.88 936.05,-1193.41"/>
<polygon fill="#6666ff" stroke="#6666ff" points="936.52,-1189.94 926.03,-1191.43 935.16,-1196.81 936.52,-1189.94"/>
</g>
<!-- Metamodel::NativeHOW&#45;&gt;Metamodel::MultipleInheritance -->
<g id="edge30" class="edge">
<title>Metamodel::NativeHOW&#45;&gt;Metamodel::MultipleInheritance</title>
<path fill="none" stroke="#6666ff" d="M1152.39,-1258.97C1107.76,-1287.99 1018.3,-1346.14 968.39,-1378.59"/>
<polygon fill="#6666ff" stroke="#6666ff" points="966.32,-1375.76 959.85,-1384.14 970.14,-1381.63 966.32,-1375.76"/>
</g>
<!-- Metamodel::NativeHOW&#45;&gt;Metamodel::C3MRO -->
<g id="edge31" class="edge">
<title>Metamodel::NativeHOW&#45;&gt;Metamodel::C3MRO</title>
<path fill="none" stroke="#6666ff" d="M1166.72,-1259.6C1137.66,-1301.54 1068.13,-1401.89 1068.13,-1401.89 1068.13,-1401.89 1026.19,-1445.65 1026.19,-1445.65 1026.19,-1445.65 1109.54,-1645.81 1140.67,-1720.54"/>
<polygon fill="#6666ff" stroke="#6666ff" points="1137.62,-1722.33 1144.7,-1730.22 1144.08,-1719.64 1137.62,-1722.33"/>
</g>
<!-- Metamodel::Finalization -->
<g id="node24" class="node">
<title>Metamodel::Finalization</title>
<g id="a_node24"><a xlink:href="/type/Metamodel::Finalization" xlink:title="Metamodel::Finalization">
<ellipse fill="none" stroke="#6666ff" cx="1405.86" cy="-1853.66" rx="103.98" ry="18"/>
<text text-anchor="middle" x="1405.86" y="-1849.96" font-family="FreeSans" font-size="14.00" fill="#6666ff">Metamodel::Finalization</text>
</a>
</g>
</g>
<!-- Metamodel::PrivateMethodContainer -->
<g id="node25" class="node">
<title>Metamodel::PrivateMethodContainer</title>
<g id="a_node25"><a xlink:href="/type/Metamodel::PrivateMethodContainer" xlink:title="Metamodel::PrivateMethodContainer">
<ellipse fill="none" stroke="#6666ff" cx="1182.47" cy="-1445.83" rx="154.87" ry="18"/>
<text text-anchor="middle" x="1182.47" y="-1442.13" font-family="FreeSans" font-size="14.00" fill="#6666ff">Metamodel::PrivateMethodContainer</text>
</a>
</g>
</g>
<!-- Metamodel::DefaultParent -->
<g id="node26" class="node">
<title>Metamodel::DefaultParent</title>
<g id="a_node26"><a xlink:href="/type/Metamodel::DefaultParent" xlink:title="Metamodel::DefaultParent">
<ellipse fill="none" stroke="#6666ff" cx="2205.77" cy="-1195.5" rx="113.18" ry="18"/>
<text text-anchor="middle" x="2205.77" y="-1191.8" font-family="FreeSans" font-size="14.00" fill="#6666ff">Metamodel::DefaultParent</text>
</a>
</g>
</g>
<!-- Metamodel::Trusting -->
<g id="node27" class="node">
<title>Metamodel::Trusting</title>
<g id="a_node27"><a xlink:href="/type/Metamodel::Trusting" xlink:title="Metamodel::Trusting">
<ellipse fill="none" stroke="#6666ff" cx="1690.47" cy="-1837.07" rx="91.78" ry="18"/>
<text text-anchor="middle" x="1690.47" y="-1833.37" font-family="FreeSans" font-size="14.00" fill="#6666ff">Metamodel::Trusting</text>
</a>
</g>
</g>
<!-- Metamodel::ClassHOW -->
<g id="node28" class="node">
<title>Metamodel::ClassHOW</title>
<g id="a_node28"><a xlink:href="/type/Metamodel::ClassHOW" xlink:title="Metamodel::ClassHOW">
<ellipse fill="none" stroke="#000000" cx="1508.87" cy="-1159.46" rx="103.18" ry="18"/>
<text text-anchor="middle" x="1508.87" y="-1155.76" font-family="FreeSans" font-size="14.00" fill="#000000">Metamodel::ClassHOW</text>
</a>
</g>
</g>
<!-- Metamodel::ClassHOW&#45;&gt;Metamodel::Stashing -->
<g id="edge37" class="edge">
<title>Metamodel::ClassHOW&#45;&gt;Metamodel::Stashing</title>
<path fill="none" stroke="#6666ff" d="M1492.34,-1141.46C1432.11,-1075.92 1224.3,-849.78 1153.57,-772.8"/>
<polygon fill="#6666ff" stroke="#6666ff" points="1155.74,-769.99 1146.4,-765 1150.59,-774.73 1155.74,-769.99"/>
</g>
<!-- Metamodel::ClassHOW&#45;&gt;Any -->
<g id="edge5" class="edge">
<title>Metamodel::ClassHOW&#45;&gt;Any</title>
<path fill="none" stroke="#000000" d="M1507.87,-1141.23C1503.79,-1067.05 1488.67,-791.83 1488.67,-791.83 1488.67,-791.83 1346.8,-674.97 1288.01,-626.53"/>
<polygon fill="#000000" stroke="#000000" points="1290.23,-623.83 1280.29,-620.17 1285.78,-629.23 1290.23,-623.83"/>
</g>
<!-- Metamodel::ClassHOW&#45;&gt;Metamodel::Naming -->
<g id="edge34" class="edge">
<title>Metamodel::ClassHOW&#45;&gt;Metamodel::Naming</title>
<path fill="none" stroke="#6666ff" d="M1485.23,-1141.73C1414.35,-1088.57 1203.5,-930.45 1123.09,-870.15"/>
<polygon fill="#6666ff" stroke="#6666ff" points="1124.94,-867.16 1114.84,-863.96 1120.74,-872.76 1124.94,-867.16"/>
</g>
<!-- Metamodel::ClassHOW&#45;&gt;Metamodel::AttributeContainer -->
<g id="edge38" class="edge">
<title>Metamodel::ClassHOW&#45;&gt;Metamodel::AttributeContainer</title>
<path fill="none" stroke="#6666ff" d="M1542.25,-1142.41C1624.64,-1100.33 1837.64,-991.56 1929.64,-944.58"/>
<polygon fill="#6666ff" stroke="#6666ff" points="1931.36,-947.63 1938.68,-939.96 1928.18,-941.39 1931.36,-947.63"/>
</g>
<!-- Metamodel::ClassHOW&#45;&gt;Metamodel::MethodContainer -->
<g id="edge40" class="edge">
<title>Metamodel::ClassHOW&#45;&gt;Metamodel::MethodContainer</title>
<path fill="none" stroke="#6666ff" d="M1506.41,-1177.57C1502.19,-1208.74 1493.52,-1272.72 1488.49,-1309.81"/>
<polygon fill="#6666ff" stroke="#6666ff" points="1484.99,-1309.57 1487.11,-1319.95 1491.92,-1310.51 1484.99,-1309.57"/>
</g>
<!-- Metamodel::ClassHOW&#45;&gt;Metamodel::MultiMethodContainer -->
<g id="edge42" class="edge">
<title>Metamodel::ClassHOW&#45;&gt;Metamodel::MultiMethodContainer</title>
<path fill="none" stroke="#6666ff" d="M1518.39,-1141.47C1545,-1091.17 1618.27,-952.72 1618.27,-952.72 1618.27,-952.72 1747.15,-735.46 1793.02,-658.14"/>
<polygon fill="#6666ff" stroke="#6666ff" points="1796.09,-659.81 1798.18,-649.43 1790.07,-656.24 1796.09,-659.81"/>
</g>
<!-- Metamodel::ClassHOW&#45;&gt;Metamodel::RoleContainer -->
<g id="edge43" class="edge">
<title>Metamodel::ClassHOW&#45;&gt;Metamodel::RoleContainer</title>
<path fill="none" stroke="#6666ff" d="M1518.39,-1141.47C1545,-1091.17 1618.27,-952.72 1618.27,-952.72 1618.27,-952.72 1810.54,-819.22 1890.01,-764.04"/>
<polygon fill="#6666ff" stroke="#6666ff" points="1892.01,-766.91 1898.23,-758.33 1888.02,-761.16 1892.01,-766.91"/>
</g>
<!-- Metamodel::ClassHOW&#45;&gt;Metamodel::MROBasedMethodDispatch -->
<g id="edge47" class="edge">
<title>Metamodel::ClassHOW&#45;&gt;Metamodel::MROBasedMethodDispatch</title>
<path fill="none" stroke="#6666ff" d="M1519.49,-1177.58C1546.13,-1223.04 1613.64,-1338.25 1613.64,-1338.25 1613.64,-1338.25 1643.7,-1472.54 1657.08,-1532.29"/>
<polygon fill="#6666ff" stroke="#6666ff" points="1653.7,-1533.21 1659.3,-1542.2 1660.53,-1531.68 1653.7,-1533.21"/>
</g>
<!-- Metamodel::ClassHOW&#45;&gt;Metamodel::MROBasedTypeChecking -->
<g id="edge48" class="edge">
<title>Metamodel::ClassHOW&#45;&gt;Metamodel::MROBasedTypeChecking</title>
<path fill="none" stroke="#6666ff" d="M1532.77,-1177.17C1587.95,-1218.06 1724.3,-1319.13 1787.23,-1365.76"/>
<polygon fill="#6666ff" stroke="#6666ff" points="1785.49,-1368.83 1795.6,-1371.97 1789.65,-1363.21 1785.49,-1368.83"/>
</g>
<!-- Metamodel::ClassHOW&#45;&gt;Metamodel::BUILDPLAN -->
<g id="edge50" class="edge">
<title>Metamodel::ClassHOW&#45;&gt;Metamodel::BUILDPLAN</title>
<path fill="none" stroke="#6666ff" d="M1520.36,-1177.54C1554.87,-1231.87 1655.28,-1389.93 1655.28,-1389.93 1655.28,-1389.93 1850.44,-1472.03 1944.47,-1511.59"/>
<polygon fill="#6666ff" stroke="#6666ff" points="1943.22,-1514.86 1953.79,-1515.51 1945.93,-1508.41 1943.22,-1514.86"/>
</g>
<!-- Metamodel::ClassHOW&#45;&gt;Metamodel::BoolificationProtocol -->
<g id="edge52" class="edge">
<title>Metamodel::ClassHOW&#45;&gt;Metamodel::BoolificationProtocol</title>
<path fill="none" stroke="#6666ff" d="M1512.27,-1141.21C1528.44,-1054.47 1597.57,-683.51 1617.23,-578.03"/>
<polygon fill="#6666ff" stroke="#6666ff" points="1620.68,-578.6 1619.07,-568.12 1613.8,-577.31 1620.68,-578.6"/>
</g>
<!-- Metamodel::ClassHOW&#45;&gt;Metamodel::Mixins -->
<g id="edge51" class="edge">
<title>Metamodel::ClassHOW&#45;&gt;Metamodel::Mixins</title>
<path fill="none" stroke="#6666ff" d="M1561.22,-1175.07C1670.44,-1207.65 1921.94,-1282.67 2036.77,-1316.92"/>
<polygon fill="#6666ff" stroke="#6666ff" points="2035.87,-1320.3 2046.45,-1319.81 2037.87,-1313.59 2035.87,-1320.3"/>
</g>
<!-- Metamodel::ClassHOW&#45;&gt;Metamodel::Documenting -->
<g id="edge35" class="edge">
<title>Metamodel::ClassHOW&#45;&gt;Metamodel::Documenting</title>
<path fill="none" stroke="#6666ff" d="M1447.5,-1144.87C1331.97,-1117.41 1082.7,-1058.17 959.1,-1028.8"/>
<polygon fill="#6666ff" stroke="#6666ff" points="959.88,-1025.39 949.34,-1026.48 958.26,-1032.2 959.88,-1025.39"/>
</g>
<!-- Metamodel::ClassHOW&#45;&gt;Metamodel::Versioning -->
<g id="edge36" class="edge">
<title>Metamodel::ClassHOW&#45;&gt;Metamodel::Versioning</title>
<path fill="none" stroke="#6666ff" d="M1406.89,-1162.38C1287.62,-1165.79 1090.94,-1171.42 968.37,-1174.93"/>
<polygon fill="#6666ff" stroke="#6666ff" points="968.11,-1171.44 958.21,-1175.22 968.31,-1178.43 968.11,-1171.44"/>
</g>
<!-- Metamodel::ClassHOW&#45;&gt;Metamodel::MultipleInheritance -->
<g id="edge44" class="edge">
<title>Metamodel::ClassHOW&#45;&gt;Metamodel::MultipleInheritance</title>
<path fill="none" stroke="#6666ff" d="M1469.26,-1176.11C1367.35,-1218.98 1096.13,-1333.06 983.15,-1380.58"/>
<polygon fill="#6666ff" stroke="#6666ff" points="981.54,-1377.46 973.68,-1384.57 984.26,-1383.91 981.54,-1377.46"/>
</g>
<!-- Metamodel::ClassHOW&#45;&gt;Metamodel::C3MRO -->
<g id="edge46" class="edge">
<title>Metamodel::ClassHOW&#45;&gt;Metamodel::C3MRO</title>
<path fill="none" stroke="#6666ff" d="M1493.34,-1177.56C1454.39,-1222.94 1355.66,-1337.98 1355.66,-1337.98 1355.66,-1337.98 1338.75,-1446.01 1338.75,-1446.01 1338.75,-1446.01 1214.34,-1647.56 1168.72,-1721.48"/>
<polygon fill="#6666ff" stroke="#6666ff" points="1165.59,-1719.89 1163.31,-1730.24 1171.54,-1723.57 1165.59,-1719.89"/>
</g>
<!-- Metamodel::ClassHOW&#45;&gt;Metamodel::Finalization -->
<g id="edge39" class="edge">
<title>Metamodel::ClassHOW&#45;&gt;Metamodel::Finalization</title>
<path fill="none" stroke="#6666ff" d="M1493.34,-1177.56C1454.39,-1222.94 1355.66,-1337.98 1355.66,-1337.98 1355.66,-1337.98 1392.64,-1717.8 1403.12,-1825.5"/>
<polygon fill="#6666ff" stroke="#6666ff" points="1399.65,-1826 1404.11,-1835.61 1406.62,-1825.32 1399.65,-1826"/>
</g>
<!-- Metamodel::ClassHOW&#45;&gt;Metamodel::PrivateMethodContainer -->
<g id="edge41" class="edge">
<title>Metamodel::ClassHOW&#45;&gt;Metamodel::PrivateMethodContainer</title>
<path fill="none" stroke="#6666ff" d="M1488.45,-1177.37C1432.24,-1226.69 1275.11,-1364.55 1210.63,-1421.12"/>
<polygon fill="#6666ff" stroke="#6666ff" points="1208.09,-1418.7 1202.88,-1427.92 1212.7,-1423.96 1208.09,-1418.7"/>
</g>
<!-- Metamodel::ClassHOW&#45;&gt;Metamodel::DefaultParent -->
<g id="edge45" class="edge">
<title>Metamodel::ClassHOW&#45;&gt;Metamodel::DefaultParent</title>
<path fill="none" stroke="#6666ff" d="M1607.98,-1164.58C1734.42,-1171.12 1952.86,-1182.42 2087.76,-1189.4"/>
<polygon fill="#6666ff" stroke="#6666ff" points="2087.96,-1192.92 2098.13,-1189.94 2088.33,-1185.92 2087.96,-1192.92"/>
</g>
<!-- Metamodel::ClassHOW&#45;&gt;Metamodel::Trusting -->
<g id="edge49" class="edge">
<title>Metamodel::ClassHOW&#45;&gt;Metamodel::Trusting</title>
<path fill="none" stroke="#6666ff" d="M1519.49,-1177.58C1546.13,-1223.04 1613.64,-1338.25 1613.64,-1338.25 1613.64,-1338.25 1492.14,-1560.27 1492.14,-1560.27 1492.14,-1560.27 1621.99,-1741.5 1671.55,-1810.67"/>
<polygon fill="#6666ff" stroke="#6666ff" points="1668.78,-1812.82 1677.45,-1818.91 1674.47,-1808.74 1668.78,-1812.82"/>
</g>
<!-- Metamodel::MethodDelegation -->
<g id="node29" class="node">
<title>Metamodel::MethodDelegation</title>
<g id="a_node29"><a xlink:href="/type/Metamodel::MethodDelegation" xlink:title="Metamodel::MethodDelegation">
<ellipse fill="none" stroke="#6666ff" cx="131.29" cy="-547.72" rx="131.08" ry="18"/>
<text text-anchor="middle" x="131.29" y="-544.02" font-family="FreeSans" font-size="14.00" fill="#6666ff">Metamodel::MethodDelegation</text>
</a>
</g>
</g>
<!-- Metamodel::PackageHOW -->
<g id="node30" class="node">
<title>Metamodel::PackageHOW</title>
<g id="a_node30"><a xlink:href="/type/Metamodel::PackageHOW" xlink:title="Metamodel::PackageHOW">
<ellipse fill="none" stroke="#000000" cx="661.07" cy="-543.66" rx="116.18" ry="18"/>
<text text-anchor="middle" x="661.07" y="-539.96" font-family="FreeSans" font-size="14.00" fill="#000000">Metamodel::PackageHOW</text>
</a>
</g>
</g>
<!-- Metamodel::PackageHOW&#45;&gt;Metamodel::Stashing -->
<g id="edge55" class="edge">
<title>Metamodel::PackageHOW&#45;&gt;Metamodel::Stashing</title>
<path fill="none" stroke="#6666ff" d="M700.23,-560.64C785.87,-597.78 989.54,-686.1 1082.3,-726.32"/>
<polygon fill="#6666ff" stroke="#6666ff" points="1081.15,-729.64 1091.72,-730.4 1083.94,-723.22 1081.15,-729.64"/>
</g>
<!-- Metamodel::PackageHOW&#45;&gt;Any -->
<g id="edge6" class="edge">
<title>Metamodel::PackageHOW&#45;&gt;Any</title>
<path fill="none" stroke="#000000" d="M758.11,-553.7C893.88,-567.73 1134.19,-592.58 1225.94,-602.07"/>
<polygon fill="#000000" stroke="#000000" points="1225.82,-605.57 1236.13,-603.12 1226.54,-598.61 1225.82,-605.57"/>
</g>
<!-- Metamodel::PackageHOW&#45;&gt;Metamodel::Naming -->
<g id="edge53" class="edge">
<title>Metamodel::PackageHOW&#45;&gt;Metamodel::Naming</title>
<path fill="none" stroke="#6666ff" d="M686.07,-561.25C759.63,-612.99 975.32,-764.73 1058.35,-823.14"/>
<polygon fill="#6666ff" stroke="#6666ff" points="1056.47,-826.09 1066.66,-828.98 1060.49,-820.36 1056.47,-826.09"/>
</g>
<!-- Metamodel::PackageHOW&#45;&gt;Metamodel::TypePretense -->
<g id="edge56" class="edge">
<title>Metamodel::PackageHOW&#45;&gt;Metamodel::TypePretense</title>
<path fill="none" stroke="#6666ff" d="M669.55,-525.34C692.13,-476.52 753.86,-343.07 780.66,-285.15"/>
<polygon fill="#6666ff" stroke="#6666ff" points="783.92,-286.43 784.94,-275.89 777.57,-283.5 783.92,-286.43"/>
</g>
<!-- Metamodel::PackageHOW&#45;&gt;Metamodel::Documenting -->
<g id="edge54" class="edge">
<title>Metamodel::PackageHOW&#45;&gt;Metamodel::Documenting</title>
<path fill="none" stroke="#6666ff" d="M669.78,-561.72C704.34,-633.44 832.08,-898.47 873.52,-984.45"/>
<polygon fill="#6666ff" stroke="#6666ff" points="870.42,-986.08 877.91,-993.57 876.72,-983.04 870.42,-986.08"/>
</g>
<!-- Metamodel::PackageHOW&#45;&gt;Metamodel::MethodDelegation -->
<g id="edge57" class="edge">
<title>Metamodel::PackageHOW&#45;&gt;Metamodel::MethodDelegation</title>
<path fill="none" stroke="#6666ff" d="M544.81,-544.55C464.76,-545.17 357.93,-545.98 272.91,-546.63"/>
<polygon fill="#6666ff" stroke="#6666ff" points="272.62,-543.13 262.65,-546.71 272.68,-550.13 272.62,-543.13"/>
</g>
<!-- Metamodel::ModuleHOW -->
<g id="node31" class="node">
<title>Metamodel::ModuleHOW</title>
<g id="a_node31"><a xlink:href="/type/Metamodel::ModuleHOW" xlink:title="Metamodel::ModuleHOW">
<ellipse fill="none" stroke="#000000" cx="614.79" cy="-720.61" rx="110.48" ry="18"/>
<text text-anchor="middle" x="614.79" y="-716.91" font-family="FreeSans" font-size="14.00" fill="#000000">Metamodel::ModuleHOW</text>
</a>
</g>
</g>
<!-- Metamodel::ModuleHOW&#45;&gt;Metamodel::Stashing -->
<g id="edge61" class="edge">
<title>Metamodel::ModuleHOW&#45;&gt;Metamodel::Stashing</title>
<path fill="none" stroke="#6666ff" d="M720.25,-726C810.64,-730.61 939.97,-737.22 1028.98,-741.76"/>
<polygon fill="#6666ff" stroke="#6666ff" points="1028.92,-745.26 1039.09,-742.28 1029.28,-738.27 1028.92,-745.26"/>
</g>
<!-- Metamodel::ModuleHOW&#45;&gt;Any -->
<g id="edge7" class="edge">
<title>Metamodel::ModuleHOW&#45;&gt;Any</title>
<path fill="none" stroke="#000000" d="M689.78,-707.34C829.44,-682.62 1124.51,-630.4 1226.99,-612.26"/>
<polygon fill="#000000" stroke="#000000" points="1227.61,-615.7 1236.85,-610.51 1226.39,-608.81 1227.61,-615.7"/>
</g>
<!-- Metamodel::ModuleHOW&#45;&gt;Metamodel::Naming -->
<g id="edge58" class="edge">
<title>Metamodel::ModuleHOW&#45;&gt;Metamodel::Naming</title>
<path fill="none" stroke="#6666ff" d="M673.24,-736.04C762.95,-759.72 933.94,-804.85 1027.09,-829.43"/>
<polygon fill="#6666ff" stroke="#6666ff" points="1026.39,-832.87 1036.95,-832.04 1028.18,-826.1 1026.39,-832.87"/>
</g>
<!-- Metamodel::ModuleHOW&#45;&gt;Metamodel::TypePretense -->
<g id="edge62" class="edge">
<title>Metamodel::ModuleHOW&#45;&gt;Metamodel::TypePretense</title>
<path fill="none" stroke="#6666ff" d="M631.44,-702.68C673.19,-657.71 779.01,-543.73 779.01,-543.73 779.01,-543.73 788.29,-358.66 791.92,-286.26"/>
<polygon fill="#6666ff" stroke="#6666ff" points="795.42,-286.21 792.43,-276.05 788.43,-285.86 795.42,-286.21"/>
</g>
<!-- Metamodel::ModuleHOW&#45;&gt;Metamodel::Documenting -->
<g id="edge59" class="edge">
<title>Metamodel::ModuleHOW&#45;&gt;Metamodel::Documenting</title>
<path fill="none" stroke="#6666ff" d="M631.79,-738.81C678.52,-788.84 809,-928.51 862.86,-986.17"/>
<polygon fill="#6666ff" stroke="#6666ff" points="860.56,-988.83 869.94,-993.75 865.67,-984.05 860.56,-988.83"/>
</g>
<!-- Metamodel::ModuleHOW&#45;&gt;Metamodel::Versioning -->
<g id="edge60" class="edge">
<title>Metamodel::ModuleHOW&#45;&gt;Metamodel::Versioning</title>
<path fill="none" stroke="#6666ff" d="M624.34,-738.55C661.8,-808.85 798.77,-1065.98 843.93,-1150.76"/>
<polygon fill="#6666ff" stroke="#6666ff" points="840.95,-1152.59 848.74,-1159.77 847.12,-1149.3 840.95,-1152.59"/>
</g>
<!-- Metamodel::ModuleHOW&#45;&gt;Metamodel::MethodDelegation -->
<g id="edge63" class="edge">
<title>Metamodel::ModuleHOW&#45;&gt;Metamodel::MethodDelegation</title>
<path fill="none" stroke="#6666ff" d="M568.87,-704.19C479.99,-672.41 284.7,-602.58 187.94,-567.97"/>
<polygon fill="#6666ff" stroke="#6666ff" points="188.92,-564.61 178.32,-564.54 186.56,-571.2 188.92,-564.61"/>
</g>
<!-- Metamodel::ParametricRoleHOW -->
<g id="node32" class="node">
<title>Metamodel::ParametricRoleHOW</title>
<g id="a_node32"><a xlink:href="/type/Metamodel::ParametricRoleHOW" xlink:title="Metamodel::ParametricRoleHOW">
<ellipse fill="none" stroke="#000000" cx="1345.38" cy="-791.77" rx="141.88" ry="18"/>
<text text-anchor="middle" x="1345.38" y="-788.07" font-family="FreeSans" font-size="14.00" fill="#000000">Metamodel::ParametricRoleHOW</text>
</a>
</g>
</g>
<!-- Metamodel::ParametricRoleHOW&#45;&gt;Metamodel::Stashing -->
<g id="edge73" class="edge">
<title>Metamodel::ParametricRoleHOW&#45;&gt;Metamodel::Stashing</title>
<path fill="none" stroke="#6666ff" d="M1271.48,-776.4C1249.5,-771.82 1225.41,-766.81 1203.44,-762.24"/>
<polygon fill="#6666ff" stroke="#6666ff" points="1204.01,-758.78 1193.51,-760.17 1202.59,-765.63 1204.01,-758.78"/>
</g>
<!-- Metamodel::ParametricRoleHOW&#45;&gt;Any -->
<g id="edge8" class="edge">
<title>Metamodel::ParametricRoleHOW&#45;&gt;Any</title>
<path fill="none" stroke="#000000" d="M1337.33,-773.61C1322.75,-740.74 1291.93,-671.23 1274.89,-632.82"/>
<polygon fill="#000000" stroke="#000000" points="1277.93,-631.03 1270.68,-623.31 1271.53,-633.87 1277.93,-631.03"/>
</g>
<!-- Metamodel::ParametricRoleHOW&#45;&gt;Metamodel::Naming -->
<g id="edge64" class="edge">
<title>Metamodel::ParametricRoleHOW&#45;&gt;Metamodel::Naming</title>
<path fill="none" stroke="#6666ff" d="M1273.3,-807.29C1238.73,-814.73 1197.45,-823.61 1162.96,-831.03"/>
<polygon fill="#6666ff" stroke="#6666ff" points="1162,-827.66 1152.96,-833.19 1163.47,-834.5 1162,-827.66"/>
</g>
<!-- Metamodel::ParametricRoleHOW&#45;&gt;Metamodel::AttributeContainer -->
<g id="edge70" class="edge">
<title>Metamodel::ParametricRoleHOW&#45;&gt;Metamodel::AttributeContainer</title>
<path fill="none" stroke="#6666ff" d="M1419.22,-807.14C1537.26,-831.72 1767.64,-879.68 1890.77,-905.31"/>
<polygon fill="#6666ff" stroke="#6666ff" points="1890.39,-908.81 1900.9,-907.42 1891.82,-901.95 1890.39,-908.81"/>
</g>
<!-- Metamodel::ParametricRoleHOW&#45;&gt;Metamodel::MethodContainer -->
<g id="edge67" class="edge">
<title>Metamodel::ParametricRoleHOW&#45;&gt;Metamodel::MethodContainer</title>
<path fill="none" stroke="#6666ff" d="M1348.29,-810C1360.1,-884.17 1403.93,-1159.36 1403.93,-1159.36 1403.93,-1159.36 1449.65,-1260.6 1472.27,-1310.7"/>
<polygon fill="#6666ff" stroke="#6666ff" points="1469.16,-1312.32 1476.47,-1319.99 1475.54,-1309.44 1469.16,-1312.32"/>
</g>
<!-- Metamodel::ParametricRoleHOW&#45;&gt;Metamodel::MultiMethodContainer -->
<g id="edge69" class="edge">
<title>Metamodel::ParametricRoleHOW&#45;&gt;Metamodel::MultiMethodContainer</title>
<path fill="none" stroke="#6666ff" d="M1394.56,-774.74C1480.65,-744.93 1658.26,-683.42 1750.5,-651.47"/>
<polygon fill="#6666ff" stroke="#6666ff" points="1751.66,-654.77 1759.96,-648.2 1749.37,-648.16 1751.66,-654.77"/>
</g>
<!-- Metamodel::ParametricRoleHOW&#45;&gt;Metamodel::RoleContainer -->
<g id="edge71" class="edge">
<title>Metamodel::ParametricRoleHOW&#45;&gt;Metamodel::RoleContainer</title>
<path fill="none" stroke="#6666ff" d="M1461.73,-781.48C1564.1,-772.43 1712.11,-759.33 1812.83,-750.42"/>
<polygon fill="#6666ff" stroke="#6666ff" points="1813.38,-753.89 1823.04,-749.52 1812.77,-746.92 1813.38,-753.89"/>
</g>
<!-- Metamodel::ParametricRoleHOW&#45;&gt;Metamodel::TypePretense -->
<g id="edge74" class="edge">
<title>Metamodel::ParametricRoleHOW&#45;&gt;Metamodel::TypePretense</title>
<path fill="none" stroke="#6666ff" d="M1326.7,-773.7C1244.45,-694.12 914.46,-374.89 819.21,-282.74"/>
<polygon fill="#6666ff" stroke="#6666ff" points="821.37,-279.96 811.74,-275.52 816.5,-284.99 821.37,-279.96"/>
</g>
<!-- Metamodel::ParametricRoleHOW&#45;&gt;Metamodel::RolePunning -->
<g id="edge75" class="edge">
<title>Metamodel::ParametricRoleHOW&#45;&gt;Metamodel::RolePunning</title>
<path fill="none" stroke="#6666ff" d="M1345.25,-773.7C1344.54,-673.15 1341.04,-182.65 1340.16,-58.84"/>
<polygon fill="#6666ff" stroke="#6666ff" points="1343.66,-58.63 1340.09,-48.65 1336.66,-58.68 1343.66,-58.63"/>
</g>
<!-- Metamodel::ParametricRoleHOW&#45;&gt;Metamodel::Documenting -->
<g id="edge65" class="edge">
<title>Metamodel::ParametricRoleHOW&#45;&gt;Metamodel::Documenting</title>
<path fill="none" stroke="#6666ff" d="M1309,-809.2C1225.89,-849.02 1022.32,-946.55 931.55,-990.03"/>
<polygon fill="#6666ff" stroke="#6666ff" points="929.85,-986.96 922.34,-994.44 932.87,-993.28 929.85,-986.96"/>
</g>
<!-- Metamodel::ParametricRoleHOW&#45;&gt;Metamodel::Versioning -->
<g id="edge66" class="edge">
<title>Metamodel::ParametricRoleHOW&#45;&gt;Metamodel::Versioning</title>
<path fill="none" stroke="#6666ff" d="M1322.87,-809.63C1243.8,-872.37 978.65,-1082.74 888.66,-1154.14"/>
<polygon fill="#6666ff" stroke="#6666ff" points="886.42,-1151.45 880.76,-1160.41 890.77,-1156.94 886.42,-1151.45"/>
</g>
<!-- Metamodel::ParametricRoleHOW&#45;&gt;Metamodel::MultipleInheritance -->
<g id="edge72" class="edge">
<title>Metamodel::ParametricRoleHOW&#45;&gt;Metamodel::MultipleInheritance</title>
<path fill="none" stroke="#6666ff" d="M1333.03,-810.03C1273.99,-897.3 1020.54,-1271.91 950.59,-1375.3"/>
<polygon fill="#6666ff" stroke="#6666ff" points="947.65,-1373.4 944.95,-1383.64 953.45,-1377.32 947.65,-1373.4"/>
</g>
<!-- Metamodel::ParametricRoleHOW&#45;&gt;Metamodel::PrivateMethodContainer -->
<g id="edge68" class="edge">
<title>Metamodel::ParametricRoleHOW&#45;&gt;Metamodel::PrivateMethodContainer</title>
<path fill="none" stroke="#6666ff" d="M1343.04,-809.97C1332.2,-894.14 1287.43,-1241.69 1287.43,-1241.69 1287.43,-1241.69 1224.91,-1363.28 1196.38,-1418.78"/>
<polygon fill="#6666ff" stroke="#6666ff" points="1193.24,-1417.22 1191.78,-1427.72 1199.47,-1420.42 1193.24,-1417.22"/>
</g>
</g>
</svg>
