<?xml version="1.0" encoding="UTF-8" standalone="no"?>
<!DOCTYPE svg PUBLIC "-//W3C//DTD SVG 1.1//EN"
 "http://www.w3.org/Graphics/SVG/1.1/DTD/svg11.dtd">
<!-- Generated by graphviz version 2.43.0 (0)
 -->
<!-- Title: perl6&#45;type&#45;graph Pages: 1 -->
<svg width="172pt" height="332pt"
 viewBox="0.00 0.00 171.90 332.00" xmlns="http://www.w3.org/2000/svg" xmlns:xlink="http://www.w3.org/1999/xlink">
<g id="graph0" class="graph" transform="scale(1 1) rotate(0) translate(4 328)">
<title>perl6&#45;type&#45;graph</title>
<polygon fill="white" stroke="transparent" points="-4,4 -4,-328 167.9,-328 167.9,4 -4,4"/>
<!-- MixHash -->
<g id="node1" class="node">
<title>MixHash</title>
<g id="a_node1"><a xlink:href="/type/MixHash" xlink:title="MixHash">
<ellipse fill="none" stroke="#000000" cx="67" cy="-18" rx="45.49" ry="18"/>
<text text-anchor="middle" x="67" y="-14.3" font-family="FreeSans" font-size="14.00" fill="#000000">MixHash</text>
</a>
</g>
</g>
<!-- Any -->
<g id="node3" class="node">
<title>Any</title>
<g id="a_node3"><a xlink:href="/type/Any" xlink:title="Any">
<ellipse fill="none" stroke="#000000" cx="30" cy="-90" rx="27" ry="18"/>
<text text-anchor="middle" x="30" y="-86.3" font-family="FreeSans" font-size="14.00" fill="#000000">Any</text>
</a>
</g>
</g>
<!-- MixHash&#45;&gt;Any -->
<g id="edge1" class="edge">
<title>MixHash&#45;&gt;Any</title>
<path fill="none" stroke="#000000" d="M58.04,-35.95C53.66,-44.23 48.3,-54.38 43.44,-63.58"/>
<polygon fill="#000000" stroke="#000000" points="40.2,-62.22 38.62,-72.69 46.39,-65.49 40.2,-62.22"/>
</g>
<!-- Mixy -->
<g id="node7" class="node">
<title>Mixy</title>
<g id="a_node7"><a xlink:href="/type/Mixy" xlink:title="Mixy">
<ellipse fill="none" stroke="#6666ff" cx="106" cy="-90" rx="29.5" ry="18"/>
<text text-anchor="middle" x="106" y="-86.3" font-family="FreeSans" font-size="14.00" fill="#6666ff">Mixy</text>
</a>
</g>
</g>
<!-- MixHash&#45;&gt;Mixy -->
<g id="edge3" class="edge">
<title>MixHash&#45;&gt;Mixy</title>
<path fill="none" stroke="#6666ff" d="M76.44,-35.95C81.11,-44.32 86.83,-54.6 92,-63.87"/>
<polygon fill="#6666ff" stroke="#6666ff" points="88.99,-65.66 96.91,-72.69 95.11,-62.25 88.99,-65.66"/>
</g>
<!-- Mu -->
<g id="node2" class="node">
<title>Mu</title>
<g id="a_node2"><a xlink:href="/type/Mu" xlink:title="Mu">
<ellipse fill="none" stroke="#000000" cx="27" cy="-162" rx="27" ry="18"/>
<text text-anchor="middle" x="27" y="-158.3" font-family="FreeSans" font-size="14.00" fill="#000000">Mu</text>
</a>
</g>
</g>
<!-- Any&#45;&gt;Mu -->
<g id="edge2" class="edge">
<title>Any&#45;&gt;Mu</title>
<path fill="none" stroke="#000000" d="M29.26,-108.3C28.93,-116.02 28.53,-125.29 28.16,-133.89"/>
<polygon fill="#000000" stroke="#000000" points="24.66,-133.75 27.73,-143.9 31.66,-134.05 24.66,-133.75"/>
</g>
<!-- Associative -->
<g id="node4" class="node">
<title>Associative</title>
<g id="a_node4"><a xlink:href="/type/Associative" xlink:title="Associative">
<ellipse fill="none" stroke="#6666ff" cx="108" cy="-306" rx="55.49" ry="18"/>
<text text-anchor="middle" x="108" y="-302.3" font-family="FreeSans" font-size="14.00" fill="#6666ff">Associative</text>
</a>
</g>
</g>
<!-- QuantHash -->
<g id="node5" class="node">
<title>QuantHash</title>
<g id="a_node5"><a xlink:href="/type/QuantHash" xlink:title="QuantHash">
<ellipse fill="none" stroke="#6666ff" cx="108" cy="-234" rx="55.79" ry="18"/>
<text text-anchor="middle" x="108" y="-230.3" font-family="FreeSans" font-size="14.00" fill="#6666ff">QuantHash</text>
</a>
</g>
</g>
<!-- QuantHash&#45;&gt;Associative -->
<g id="edge4" class="edge">
<title>QuantHash&#45;&gt;Associative</title>
<path fill="none" stroke="#6666ff" d="M108,-252.3C108,-260.02 108,-269.29 108,-277.89"/>
<polygon fill="#6666ff" stroke="#6666ff" points="104.5,-277.9 108,-287.9 111.5,-277.9 104.5,-277.9"/>
</g>
<!-- Baggy -->
<g id="node6" class="node">
<title>Baggy</title>
<g id="a_node6"><a xlink:href="/type/Baggy" xlink:title="Baggy">
<ellipse fill="none" stroke="#6666ff" cx="108" cy="-162" rx="36" ry="18"/>
<text text-anchor="middle" x="108" y="-158.3" font-family="FreeSans" font-size="14.00" fill="#6666ff">Baggy</text>
</a>
</g>
</g>
<!-- Baggy&#45;&gt;QuantHash -->
<g id="edge5" class="edge">
<title>Baggy&#45;&gt;QuantHash</title>
<path fill="none" stroke="#6666ff" d="M108,-180.3C108,-188.02 108,-197.29 108,-205.89"/>
<polygon fill="#6666ff" stroke="#6666ff" points="104.5,-205.9 108,-215.9 111.5,-205.9 104.5,-205.9"/>
</g>
<!-- Mixy&#45;&gt;Baggy -->
<g id="edge6" class="edge">
<title>Mixy&#45;&gt;Baggy</title>
<path fill="none" stroke="#6666ff" d="M106.49,-108.3C106.71,-116.02 106.98,-125.29 107.23,-133.89"/>
<polygon fill="#6666ff" stroke="#6666ff" points="103.73,-134 107.51,-143.9 110.72,-133.8 103.73,-134"/>
</g>
</g>
</svg>
