<?xml version="1.0" encoding="UTF-8" standalone="no"?>
<!DOCTYPE svg PUBLIC "-//W3C//DTD SVG 1.1//EN"
 "http://www.w3.org/Graphics/SVG/1.1/DTD/svg11.dtd">
<!-- Generated by graphviz version 2.43.0 (0)
 -->
<!-- Title: perl6&#45;type&#45;graph Pages: 1 -->
<svg width="197pt" height="332pt"
 viewBox="0.00 0.00 197.39 332.00" xmlns="http://www.w3.org/2000/svg" xmlns:xlink="http://www.w3.org/1999/xlink">
<g id="graph0" class="graph" transform="scale(1 1) rotate(0) translate(4 328)">
<title>perl6&#45;type&#45;graph</title>
<polygon fill="white" stroke="transparent" points="-4,4 -4,-328 193.39,-328 193.39,4 -4,4"/>
<!-- Mixy -->
<g id="node1" class="node">
<title>Mixy</title>
<g id="a_node1"><a xlink:href="/type/Mixy" xlink:title="Mixy">
<ellipse fill="none" stroke="#6666ff" cx="55.9" cy="-90" rx="29.5" ry="18"/>
<text text-anchor="middle" x="55.9" y="-86.3" font-family="FreeSans" font-size="14.00" fill="#6666ff">Mixy</text>
</a>
</g>
</g>
<!-- Baggy -->
<g id="node4" class="node">
<title>Baggy</title>
<g id="a_node4"><a xlink:href="/type/Baggy" xlink:title="Baggy">
<ellipse fill="none" stroke="#6666ff" cx="55.9" cy="-162" rx="36" ry="18"/>
<text text-anchor="middle" x="55.9" y="-158.3" font-family="FreeSans" font-size="14.00" fill="#6666ff">Baggy</text>
</a>
</g>
</g>
<!-- Mixy&#45;&gt;Baggy -->
<g id="edge4" class="edge">
<title>Mixy&#45;&gt;Baggy</title>
<path fill="none" stroke="#6666ff" d="M55.9,-108.3C55.9,-116.02 55.9,-125.29 55.9,-133.89"/>
<polygon fill="#6666ff" stroke="#6666ff" points="52.4,-133.9 55.9,-143.9 59.4,-133.9 52.4,-133.9"/>
</g>
<!-- Associative -->
<g id="node2" class="node">
<title>Associative</title>
<g id="a_node2"><a xlink:href="/type/Associative" xlink:title="Associative">
<ellipse fill="none" stroke="#6666ff" cx="55.9" cy="-306" rx="55.49" ry="18"/>
<text text-anchor="middle" x="55.9" y="-302.3" font-family="FreeSans" font-size="14.00" fill="#6666ff">Associative</text>
</a>
</g>
</g>
<!-- QuantHash -->
<g id="node3" class="node">
<title>QuantHash</title>
<g id="a_node3"><a xlink:href="/type/QuantHash" xlink:title="QuantHash">
<ellipse fill="none" stroke="#6666ff" cx="55.9" cy="-234" rx="55.79" ry="18"/>
<text text-anchor="middle" x="55.9" y="-230.3" font-family="FreeSans" font-size="14.00" fill="#6666ff">QuantHash</text>
</a>
</g>
</g>
<!-- QuantHash&#45;&gt;Associative -->
<g id="edge5" class="edge">
<title>QuantHash&#45;&gt;Associative</title>
<path fill="none" stroke="#6666ff" d="M55.9,-252.3C55.9,-260.02 55.9,-269.29 55.9,-277.89"/>
<polygon fill="#6666ff" stroke="#6666ff" points="52.4,-277.9 55.9,-287.9 59.4,-277.9 52.4,-277.9"/>
</g>
<!-- Baggy&#45;&gt;QuantHash -->
<g id="edge6" class="edge">
<title>Baggy&#45;&gt;QuantHash</title>
<path fill="none" stroke="#6666ff" d="M55.9,-180.3C55.9,-188.02 55.9,-197.29 55.9,-205.89"/>
<polygon fill="#6666ff" stroke="#6666ff" points="52.4,-205.9 55.9,-215.9 59.4,-205.9 52.4,-205.9"/>
</g>
<!-- Mu -->
<g id="node5" class="node">
<title>Mu</title>
<g id="a_node5"><a xlink:href="/type/Mu" xlink:title="Mu">
<ellipse fill="none" stroke="#000000" cx="140.9" cy="-162" rx="27" ry="18"/>
<text text-anchor="middle" x="140.9" y="-158.3" font-family="FreeSans" font-size="14.00" fill="#000000">Mu</text>
</a>
</g>
</g>
<!-- Any -->
<g id="node6" class="node">
<title>Any</title>
<g id="a_node6"><a xlink:href="/type/Any" xlink:title="Any">
<ellipse fill="none" stroke="#000000" cx="140.9" cy="-90" rx="27" ry="18"/>
<text text-anchor="middle" x="140.9" y="-86.3" font-family="FreeSans" font-size="14.00" fill="#000000">Any</text>
</a>
</g>
</g>
<!-- Any&#45;&gt;Mu -->
<g id="edge1" class="edge">
<title>Any&#45;&gt;Mu</title>
<path fill="none" stroke="#000000" d="M140.9,-108.3C140.9,-116.02 140.9,-125.29 140.9,-133.89"/>
<polygon fill="#000000" stroke="#000000" points="137.4,-133.9 140.9,-143.9 144.4,-133.9 137.4,-133.9"/>
</g>
<!-- Mix -->
<g id="node7" class="node">
<title>Mix</title>
<g id="a_node7"><a xlink:href="/type/Mix" xlink:title="Mix">
<ellipse fill="none" stroke="#000000" cx="53.9" cy="-18" rx="27" ry="18"/>
<text text-anchor="middle" x="53.9" y="-14.3" font-family="FreeSans" font-size="14.00" fill="#000000">Mix</text>
</a>
</g>
</g>
<!-- Mix&#45;&gt;Mixy -->
<g id="edge7" class="edge">
<title>Mix&#45;&gt;Mixy</title>
<path fill="none" stroke="#6666ff" d="M54.39,-36.3C54.61,-44.02 54.87,-53.29 55.12,-61.89"/>
<polygon fill="#6666ff" stroke="#6666ff" points="51.62,-62 55.41,-71.9 58.62,-61.8 51.62,-62"/>
</g>
<!-- Mix&#45;&gt;Any -->
<g id="edge2" class="edge">
<title>Mix&#45;&gt;Any</title>
<path fill="none" stroke="#000000" d="M70.67,-32.5C83.55,-42.86 101.53,-57.33 116.07,-69.03"/>
<polygon fill="#000000" stroke="#000000" points="114.19,-72 124.17,-75.54 118.57,-66.55 114.19,-72"/>
</g>
<!-- MixHash -->
<g id="node8" class="node">
<title>MixHash</title>
<g id="a_node8"><a xlink:href="/type/MixHash" xlink:title="MixHash">
<ellipse fill="none" stroke="#000000" cx="143.9" cy="-18" rx="45.49" ry="18"/>
<text text-anchor="middle" x="143.9" y="-14.3" font-family="FreeSans" font-size="14.00" fill="#000000">MixHash</text>
</a>
</g>
</g>
<!-- MixHash&#45;&gt;Mixy -->
<g id="edge8" class="edge">
<title>MixHash&#45;&gt;Mixy</title>
<path fill="none" stroke="#6666ff" d="M124.36,-34.54C111.7,-44.61 95.07,-57.84 81.37,-68.73"/>
<polygon fill="#6666ff" stroke="#6666ff" points="78.93,-66.2 73.28,-75.17 83.29,-71.68 78.93,-66.2"/>
</g>
<!-- MixHash&#45;&gt;Any -->
<g id="edge3" class="edge">
<title>MixHash&#45;&gt;Any</title>
<path fill="none" stroke="#000000" d="M143.15,-36.3C142.82,-44.02 142.43,-53.29 142.06,-61.89"/>
<polygon fill="#000000" stroke="#000000" points="138.56,-61.75 141.63,-71.9 145.55,-62.05 138.56,-61.75"/>
</g>
</g>
</svg>
