<?xml version="1.0" encoding="UTF-8" standalone="no"?>
<!DOCTYPE svg PUBLIC "-//W3C//DTD SVG 1.1//EN"
 "http://www.w3.org/Graphics/SVG/1.1/DTD/svg11.dtd">
<!-- Generated by graphviz version 2.43.0 (0)
 -->
<!-- Title: perl6&#45;type&#45;graph Pages: 1 -->
<svg width="202pt" height="260pt"
 viewBox="0.00 0.00 202.29 260.00" xmlns="http://www.w3.org/2000/svg" xmlns:xlink="http://www.w3.org/1999/xlink">
<g id="graph0" class="graph" transform="scale(1 1) rotate(0) translate(4 256)">
<title>perl6&#45;type&#45;graph</title>
<polygon fill="white" stroke="transparent" points="-4,4 -4,-256 198.29,-256 198.29,4 -4,4"/>
<!-- MOP -->
<g id="node1" class="node">
<title>MOP</title>
<g id="a_node1"><a xlink:href="/type/MOP" xlink:title="MOP">
<ellipse fill="none" stroke="#000000" cx="45.89" cy="-90" rx="31.7" ry="18"/>
<text text-anchor="middle" x="45.89" y="-86.3" font-family="FreeSans" font-size="14.00" fill="#000000">MOP</text>
</a>
</g>
</g>
<!-- Any -->
<g id="node3" class="node">
<title>Any</title>
<g id="a_node3"><a xlink:href="/type/Any" xlink:title="Any">
<ellipse fill="none" stroke="#000000" cx="94.89" cy="-162" rx="27" ry="18"/>
<text text-anchor="middle" x="94.89" y="-158.3" font-family="FreeSans" font-size="14.00" fill="#000000">Any</text>
</a>
</g>
</g>
<!-- MOP&#45;&gt;Any -->
<g id="edge1" class="edge">
<title>MOP&#45;&gt;Any</title>
<path fill="none" stroke="#000000" d="M57.01,-106.88C63.21,-115.74 71.07,-126.96 78.01,-136.88"/>
<polygon fill="#000000" stroke="#000000" points="75.21,-138.99 83.82,-145.18 80.95,-134.98 75.21,-138.99"/>
</g>
<!-- Mu -->
<g id="node2" class="node">
<title>Mu</title>
<g id="a_node2"><a xlink:href="/type/Mu" xlink:title="Mu">
<ellipse fill="none" stroke="#000000" cx="94.89" cy="-234" rx="27" ry="18"/>
<text text-anchor="middle" x="94.89" y="-230.3" font-family="FreeSans" font-size="14.00" fill="#000000">Mu</text>
</a>
</g>
</g>
<!-- Any&#45;&gt;Mu -->
<g id="edge2" class="edge">
<title>Any&#45;&gt;Mu</title>
<path fill="none" stroke="#000000" d="M94.89,-180.3C94.89,-188.02 94.89,-197.29 94.89,-205.89"/>
<polygon fill="#000000" stroke="#000000" points="91.39,-205.9 94.89,-215.9 98.39,-205.9 91.39,-205.9"/>
</g>
<!-- Exception -->
<g id="node4" class="node">
<title>Exception</title>
<g id="a_node4"><a xlink:href="/type/Exception" xlink:title="Exception">
<ellipse fill="none" stroke="#000000" cx="144.89" cy="-90" rx="49.29" ry="18"/>
<text text-anchor="middle" x="144.89" y="-86.3" font-family="FreeSans" font-size="14.00" fill="#000000">Exception</text>
</a>
</g>
</g>
<!-- Exception&#45;&gt;Any -->
<g id="edge3" class="edge">
<title>Exception&#45;&gt;Any</title>
<path fill="none" stroke="#000000" d="M133.04,-107.59C126.7,-116.47 118.78,-127.56 111.8,-137.33"/>
<polygon fill="#000000" stroke="#000000" points="108.94,-135.32 105.97,-145.49 114.63,-139.39 108.94,-135.32"/>
</g>
<!-- X::Attribute::Required -->
<g id="node5" class="node">
<title>X::Attribute::Required</title>
<g id="a_node5"><a xlink:href="/type/X::Attribute::Required" xlink:title="X::Attribute::Required">
<ellipse fill="none" stroke="#000000" cx="94.89" cy="-18" rx="94.78" ry="18"/>
<text text-anchor="middle" x="94.89" y="-14.3" font-family="FreeSans" font-size="14.00" fill="#000000">X::Attribute::Required</text>
</a>
</g>
</g>
<!-- X::Attribute::Required&#45;&gt;MOP -->
<g id="edge5" class="edge">
<title>X::Attribute::Required&#45;&gt;MOP</title>
<path fill="none" stroke="#6666ff" d="M83.03,-35.95C77.04,-44.5 69.67,-55.03 63.08,-64.44"/>
<polygon fill="#6666ff" stroke="#6666ff" points="60.17,-62.49 57.31,-72.69 65.91,-66.51 60.17,-62.49"/>
</g>
<!-- X::Attribute::Required&#45;&gt;Exception -->
<g id="edge4" class="edge">
<title>X::Attribute::Required&#45;&gt;Exception</title>
<path fill="none" stroke="#000000" d="M107,-35.95C113.01,-44.37 120.41,-54.72 127.06,-64.03"/>
<polygon fill="#000000" stroke="#000000" points="124.24,-66.11 132.9,-72.21 129.94,-62.04 124.24,-66.11"/>
</g>
</g>
</svg>
