<?xml version="1.0" encoding="UTF-8" standalone="no"?>
<!DOCTYPE svg PUBLIC "-//W3C//DTD SVG 1.1//EN"
 "http://www.w3.org/Graphics/SVG/1.1/DTD/svg11.dtd">
<!-- Generated by graphviz version 2.43.0 (0)
 -->
<!-- Title: perl6&#45;type&#45;graph Pages: 1 -->
<svg width="168pt" height="116pt"
 viewBox="0.00 0.00 168.20 116.00" xmlns="http://www.w3.org/2000/svg" xmlns:xlink="http://www.w3.org/1999/xlink">
<g id="graph0" class="graph" transform="scale(1 1) rotate(0) translate(4 112)">
<title>perl6&#45;type&#45;graph</title>
<polygon fill="white" stroke="transparent" points="-4,4 -4,-112 164.2,-112 164.2,4 -4,4"/>
<!-- Mu -->
<g id="node1" class="node">
<title>Mu</title>
<g id="a_node1"><a xlink:href="/type/Mu" xlink:title="Mu">
<ellipse fill="none" stroke="#000000" cx="71" cy="-90" rx="27" ry="18"/>
<text text-anchor="middle" x="71" y="-86.3" font-family="FreeSans" font-size="14.00" fill="#000000">Mu</text>
</a>
</g>
</g>
<!-- Any -->
<g id="node2" class="node">
<title>Any</title>
<g id="a_node2"><a xlink:href="/type/Any" xlink:title="Any">
<ellipse fill="none" stroke="#000000" cx="27" cy="-18" rx="27" ry="18"/>
<text text-anchor="middle" x="27" y="-14.3" font-family="FreeSans" font-size="14.00" fill="#000000">Any</text>
</a>
</g>
</g>
<!-- Any&#45;&gt;Mu -->
<g id="edge1" class="edge">
<title>Any&#45;&gt;Mu</title>
<path fill="none" stroke="#000000" d="M36.98,-34.88C42.5,-43.66 49.46,-54.74 55.65,-64.58"/>
<polygon fill="#000000" stroke="#000000" points="52.77,-66.58 61.06,-73.18 58.7,-62.85 52.77,-66.58"/>
</g>
<!-- Junction -->
<g id="node3" class="node">
<title>Junction</title>
<g id="a_node3"><a xlink:href="/type/Junction" xlink:title="Junction">
<ellipse fill="none" stroke="#000000" cx="116" cy="-18" rx="44.39" ry="18"/>
<text text-anchor="middle" x="116" y="-14.3" font-family="FreeSans" font-size="14.00" fill="#000000">Junction</text>
</a>
</g>
</g>
<!-- Junction&#45;&gt;Mu -->
<g id="edge2" class="edge">
<title>Junction&#45;&gt;Mu</title>
<path fill="none" stroke="#000000" d="M105.34,-35.59C99.82,-44.17 92.98,-54.81 86.86,-64.33"/>
<polygon fill="#000000" stroke="#000000" points="83.74,-62.71 81.28,-73.01 89.63,-66.49 83.74,-62.71"/>
</g>
</g>
</svg>
