<?xml version="1.0" encoding="UTF-8" standalone="no"?>
<!DOCTYPE svg PUBLIC "-//W3C//DTD SVG 1.1//EN"
 "http://www.w3.org/Graphics/SVG/1.1/DTD/svg11.dtd">
<!-- Generated by graphviz version 2.43.0 (0)
 -->
<!-- Title: perl6&#45;type&#45;graph Pages: 1 -->
<svg width="272pt" height="260pt"
 viewBox="0.00 0.00 272.35 260.00" xmlns="http://www.w3.org/2000/svg" xmlns:xlink="http://www.w3.org/1999/xlink">
<g id="graph0" class="graph" transform="scale(1 1) rotate(0) translate(4 256)">
<title>perl6&#45;type&#45;graph</title>
<polygon fill="white" stroke="transparent" points="-4,4 -4,-256 268.35,-256 268.35,4 -4,4"/>
<!-- NFKD -->
<g id="node1" class="node">
<title>NFKD</title>
<g id="a_node1"><a xlink:href="/type/NFKD" xlink:title="NFKD">
<ellipse fill="none" stroke="#000000" cx="121" cy="-18" rx="36" ry="18"/>
<text text-anchor="middle" x="121" y="-14.3" font-family="FreeSans" font-size="14.00" fill="#000000">NFKD</text>
</a>
</g>
</g>
<!-- Uni -->
<g id="node6" class="node">
<title>Uni</title>
<g id="a_node6"><a xlink:href="/type/Uni" xlink:title="Uni">
<ellipse fill="none" stroke="#000000" cx="121" cy="-90" rx="27" ry="18"/>
<text text-anchor="middle" x="121" y="-86.3" font-family="FreeSans" font-size="14.00" fill="#000000">Uni</text>
</a>
</g>
</g>
<!-- NFKD&#45;&gt;Uni -->
<g id="edge1" class="edge">
<title>NFKD&#45;&gt;Uni</title>
<path fill="none" stroke="#000000" d="M121,-36.3C121,-44.02 121,-53.29 121,-61.89"/>
<polygon fill="#000000" stroke="#000000" points="117.5,-61.9 121,-71.9 124.5,-61.9 117.5,-61.9"/>
</g>
<!-- Mu -->
<g id="node2" class="node">
<title>Mu</title>
<g id="a_node2"><a xlink:href="/type/Mu" xlink:title="Mu">
<ellipse fill="none" stroke="#000000" cx="27" cy="-234" rx="27" ry="18"/>
<text text-anchor="middle" x="27" y="-230.3" font-family="FreeSans" font-size="14.00" fill="#000000">Mu</text>
</a>
</g>
</g>
<!-- Any -->
<g id="node3" class="node">
<title>Any</title>
<g id="a_node3"><a xlink:href="/type/Any" xlink:title="Any">
<ellipse fill="none" stroke="#000000" cx="27" cy="-162" rx="27" ry="18"/>
<text text-anchor="middle" x="27" y="-158.3" font-family="FreeSans" font-size="14.00" fill="#000000">Any</text>
</a>
</g>
</g>
<!-- Any&#45;&gt;Mu -->
<g id="edge2" class="edge">
<title>Any&#45;&gt;Mu</title>
<path fill="none" stroke="#000000" d="M27,-180.3C27,-188.02 27,-197.29 27,-205.89"/>
<polygon fill="#000000" stroke="#000000" points="23.5,-205.9 27,-215.9 30.5,-205.9 23.5,-205.9"/>
</g>
<!-- Positional -->
<g id="node4" class="node">
<title>Positional</title>
<g id="a_node4"><a xlink:href="/type/Positional" xlink:title="Positional">
<ellipse fill="none" stroke="#6666ff" cx="121" cy="-162" rx="48.99" ry="18"/>
<text text-anchor="middle" x="121" y="-158.3" font-family="FreeSans" font-size="14.00" fill="#6666ff">Positional</text>
</a>
</g>
</g>
<!-- Stringy -->
<g id="node5" class="node">
<title>Stringy</title>
<g id="a_node5"><a xlink:href="/type/Stringy" xlink:title="Stringy">
<ellipse fill="none" stroke="#6666ff" cx="226" cy="-162" rx="38.19" ry="18"/>
<text text-anchor="middle" x="226" y="-158.3" font-family="FreeSans" font-size="14.00" fill="#6666ff">Stringy</text>
</a>
</g>
</g>
<!-- Uni&#45;&gt;Any -->
<g id="edge3" class="edge">
<title>Uni&#45;&gt;Any</title>
<path fill="none" stroke="#000000" d="M103.32,-104.17C89.05,-114.79 68.78,-129.89 52.71,-141.85"/>
<polygon fill="#000000" stroke="#000000" points="50.21,-139.35 44.28,-148.13 54.39,-144.96 50.21,-139.35"/>
</g>
<!-- Uni&#45;&gt;Positional -->
<g id="edge4" class="edge">
<title>Uni&#45;&gt;Positional</title>
<path fill="none" stroke="#6666ff" d="M121,-108.3C121,-116.02 121,-125.29 121,-133.89"/>
<polygon fill="#6666ff" stroke="#6666ff" points="117.5,-133.9 121,-143.9 124.5,-133.9 117.5,-133.9"/>
</g>
<!-- Uni&#45;&gt;Stringy -->
<g id="edge5" class="edge">
<title>Uni&#45;&gt;Stringy</title>
<path fill="none" stroke="#6666ff" d="M139.77,-103.51C155.49,-113.99 178.19,-129.13 196.36,-141.24"/>
<polygon fill="#6666ff" stroke="#6666ff" points="194.6,-144.27 204.86,-146.91 198.49,-138.45 194.6,-144.27"/>
</g>
</g>
</svg>
