<?xml version="1.0" encoding="UTF-8" standalone="no"?>
<!DOCTYPE svg PUBLIC "-//W3C//DTD SVG 1.1//EN"
 "http://www.w3.org/Graphics/SVG/1.1/DTD/svg11.dtd">
<!-- Generated by graphviz version 2.43.0 (0)
 -->
<!-- Title: perl6&#45;type&#45;graph Pages: 1 -->
<svg width="267pt" height="404pt"
 viewBox="0.00 0.00 266.54 404.00" xmlns="http://www.w3.org/2000/svg" xmlns:xlink="http://www.w3.org/1999/xlink">
<g id="graph0" class="graph" transform="scale(1 1) rotate(0) translate(4 400)">
<title>perl6&#45;type&#45;graph</title>
<polygon fill="white" stroke="transparent" points="-4,4 -4,-400 262.54,-400 262.54,4 -4,4"/>
<!-- Num -->
<g id="node1" class="node">
<title>Num</title>
<g id="a_node1"><a xlink:href="/type/Num" xlink:title="Num">
<ellipse fill="none" stroke="#000000" cx="102.2" cy="-90" rx="29.8" ry="18"/>
<text text-anchor="middle" x="102.2" y="-86.3" font-family="FreeSans" font-size="14.00" fill="#000000">Num</text>
</a>
</g>
</g>
<!-- Cool -->
<g id="node4" class="node">
<title>Cool</title>
<g id="a_node4"><a xlink:href="/type/Cool" xlink:title="Cool">
<ellipse fill="none" stroke="#000000" cx="135.2" cy="-234" rx="28.7" ry="18"/>
<text text-anchor="middle" x="135.2" y="-230.3" font-family="FreeSans" font-size="14.00" fill="#000000">Cool</text>
</a>
</g>
</g>
<!-- Num&#45;&gt;Cool -->
<g id="edge1" class="edge">
<title>Num&#45;&gt;Cool</title>
<path fill="none" stroke="#000000" d="M106.11,-107.85C111.74,-132.06 122.17,-176.95 128.89,-205.87"/>
<polygon fill="#000000" stroke="#000000" points="125.51,-206.78 131.18,-215.73 132.33,-205.2 125.51,-206.78"/>
</g>
<!-- Real -->
<g id="node6" class="node">
<title>Real</title>
<g id="a_node6"><a xlink:href="/type/Real" xlink:title="Real">
<ellipse fill="none" stroke="#6666ff" cx="61.2" cy="-162" rx="28.7" ry="18"/>
<text text-anchor="middle" x="61.2" y="-158.3" font-family="FreeSans" font-size="14.00" fill="#6666ff">Real</text>
</a>
</g>
</g>
<!-- Num&#45;&gt;Real -->
<g id="edge8" class="edge">
<title>Num&#45;&gt;Real</title>
<path fill="none" stroke="#6666ff" d="M92.69,-107.24C87.67,-115.81 81.4,-126.51 75.78,-136.1"/>
<polygon fill="#6666ff" stroke="#6666ff" points="72.69,-134.45 70.65,-144.85 78.73,-137.99 72.69,-134.45"/>
</g>
<!-- Mu -->
<g id="node2" class="node">
<title>Mu</title>
<g id="a_node2"><a xlink:href="/type/Mu" xlink:title="Mu">
<ellipse fill="none" stroke="#000000" cx="135.2" cy="-378" rx="27" ry="18"/>
<text text-anchor="middle" x="135.2" y="-374.3" font-family="FreeSans" font-size="14.00" fill="#000000">Mu</text>
</a>
</g>
</g>
<!-- Any -->
<g id="node3" class="node">
<title>Any</title>
<g id="a_node3"><a xlink:href="/type/Any" xlink:title="Any">
<ellipse fill="none" stroke="#000000" cx="135.2" cy="-306" rx="27" ry="18"/>
<text text-anchor="middle" x="135.2" y="-302.3" font-family="FreeSans" font-size="14.00" fill="#000000">Any</text>
</a>
</g>
</g>
<!-- Any&#45;&gt;Mu -->
<g id="edge2" class="edge">
<title>Any&#45;&gt;Mu</title>
<path fill="none" stroke="#000000" d="M135.2,-324.3C135.2,-332.02 135.2,-341.29 135.2,-349.89"/>
<polygon fill="#000000" stroke="#000000" points="131.7,-349.9 135.2,-359.9 138.7,-349.9 131.7,-349.9"/>
</g>
<!-- Cool&#45;&gt;Any -->
<g id="edge3" class="edge">
<title>Cool&#45;&gt;Any</title>
<path fill="none" stroke="#000000" d="M135.2,-252.3C135.2,-260.02 135.2,-269.29 135.2,-277.89"/>
<polygon fill="#000000" stroke="#000000" points="131.7,-277.9 135.2,-287.9 138.7,-277.9 131.7,-277.9"/>
</g>
<!-- Numeric -->
<g id="node5" class="node">
<title>Numeric</title>
<g id="a_node5"><a xlink:href="/type/Numeric" xlink:title="Numeric">
<ellipse fill="none" stroke="#6666ff" cx="44.2" cy="-234" rx="44.39" ry="18"/>
<text text-anchor="middle" x="44.2" y="-230.3" font-family="FreeSans" font-size="14.00" fill="#6666ff">Numeric</text>
</a>
</g>
</g>
<!-- Real&#45;&gt;Numeric -->
<g id="edge9" class="edge">
<title>Real&#45;&gt;Numeric</title>
<path fill="none" stroke="#6666ff" d="M57.08,-179.95C55.19,-187.74 52.9,-197.18 50.77,-205.92"/>
<polygon fill="#6666ff" stroke="#6666ff" points="47.35,-205.18 48.39,-215.72 54.15,-206.83 47.35,-205.18"/>
</g>
<!-- Stringy -->
<g id="node7" class="node">
<title>Stringy</title>
<g id="a_node7"><a xlink:href="/type/Stringy" xlink:title="Stringy">
<ellipse fill="none" stroke="#6666ff" cx="220.2" cy="-234" rx="38.19" ry="18"/>
<text text-anchor="middle" x="220.2" y="-230.3" font-family="FreeSans" font-size="14.00" fill="#6666ff">Stringy</text>
</a>
</g>
</g>
<!-- Str -->
<g id="node8" class="node">
<title>Str</title>
<g id="a_node8"><a xlink:href="/type/Str" xlink:title="Str">
<ellipse fill="none" stroke="#000000" cx="200.2" cy="-162" rx="27" ry="18"/>
<text text-anchor="middle" x="200.2" y="-158.3" font-family="FreeSans" font-size="14.00" fill="#000000">Str</text>
</a>
</g>
</g>
<!-- Str&#45;&gt;Cool -->
<g id="edge4" class="edge">
<title>Str&#45;&gt;Cool</title>
<path fill="none" stroke="#000000" d="M186.41,-177.85C177.53,-187.4 165.83,-200.01 155.86,-210.75"/>
<polygon fill="#000000" stroke="#000000" points="153.2,-208.47 148.96,-218.18 158.33,-213.23 153.2,-208.47"/>
</g>
<!-- Str&#45;&gt;Stringy -->
<g id="edge10" class="edge">
<title>Str&#45;&gt;Stringy</title>
<path fill="none" stroke="#6666ff" d="M205.04,-179.95C207.26,-187.74 209.96,-197.18 212.46,-205.92"/>
<polygon fill="#6666ff" stroke="#6666ff" points="209.15,-207.07 215.26,-215.72 215.88,-205.15 209.15,-207.07"/>
</g>
<!-- Allomorph -->
<g id="node9" class="node">
<title>Allomorph</title>
<g id="a_node9"><a xlink:href="/type/Allomorph" xlink:title="Allomorph">
<ellipse fill="none" stroke="#000000" cx="200.2" cy="-90" rx="50.09" ry="18"/>
<text text-anchor="middle" x="200.2" y="-86.3" font-family="FreeSans" font-size="14.00" fill="#000000">Allomorph</text>
</a>
</g>
</g>
<!-- Allomorph&#45;&gt;Str -->
<g id="edge5" class="edge">
<title>Allomorph&#45;&gt;Str</title>
<path fill="none" stroke="#000000" d="M200.2,-108.3C200.2,-116.02 200.2,-125.29 200.2,-133.89"/>
<polygon fill="#000000" stroke="#000000" points="196.7,-133.9 200.2,-143.9 203.7,-133.9 196.7,-133.9"/>
</g>
<!-- NumStr -->
<g id="node10" class="node">
<title>NumStr</title>
<g id="a_node10"><a xlink:href="/type/NumStr" xlink:title="NumStr">
<ellipse fill="none" stroke="#000000" cx="151.2" cy="-18" rx="40.89" ry="18"/>
<text text-anchor="middle" x="151.2" y="-14.3" font-family="FreeSans" font-size="14.00" fill="#000000">NumStr</text>
</a>
</g>
</g>
<!-- NumStr&#45;&gt;Num -->
<g id="edge7" class="edge">
<title>NumStr&#45;&gt;Num</title>
<path fill="none" stroke="#000000" d="M139.58,-35.59C133.52,-44.26 125.98,-55.03 119.26,-64.62"/>
<polygon fill="#000000" stroke="#000000" points="116.26,-62.81 113.39,-73.01 121.99,-66.83 116.26,-62.81"/>
</g>
<!-- NumStr&#45;&gt;Allomorph -->
<g id="edge6" class="edge">
<title>NumStr&#45;&gt;Allomorph</title>
<path fill="none" stroke="#000000" d="M162.81,-35.59C168.7,-44.01 175.99,-54.42 182.56,-63.8"/>
<polygon fill="#000000" stroke="#000000" points="179.72,-65.86 188.33,-72.04 185.46,-61.84 179.72,-65.86"/>
</g>
</g>
</svg>
