<?xml version="1.0" encoding="UTF-8" standalone="no"?>
<!DOCTYPE svg PUBLIC "-//W3C//DTD SVG 1.1//EN"
 "http://www.w3.org/Graphics/SVG/1.1/DTD/svg11.dtd">
<!-- Generated by graphviz version 2.43.0 (0)
 -->
<!-- Title: perl6&#45;type&#45;graph Pages: 1 -->
<svg width="1101pt" height="404pt"
 viewBox="0.00 0.00 1101.50 404.00" xmlns="http://www.w3.org/2000/svg" xmlns:xlink="http://www.w3.org/1999/xlink">
<g id="graph0" class="graph" transform="scale(1 1) rotate(0) translate(4 400)">
<title>perl6&#45;type&#45;graph</title>
<polygon fill="white" stroke="transparent" points="-4,4 -4,-400 1097.5,-400 1097.5,4 -4,4"/>
<!-- Numeric -->
<g id="node1" class="node">
<title>Numeric</title>
<g id="a_node1"><a xlink:href="/type/Numeric" xlink:title="Numeric">
<ellipse fill="none" stroke="#6666ff" cx="696" cy="-306" rx="44.39" ry="18"/>
<text text-anchor="middle" x="696" y="-302.3" font-family="FreeSans" font-size="14.00" fill="#6666ff">Numeric</text>
</a>
</g>
</g>
<!-- Mu -->
<g id="node2" class="node">
<title>Mu</title>
<g id="a_node2"><a xlink:href="/type/Mu" xlink:title="Mu">
<ellipse fill="none" stroke="#000000" cx="829" cy="-378" rx="27" ry="18"/>
<text text-anchor="middle" x="829" y="-374.3" font-family="FreeSans" font-size="14.00" fill="#000000">Mu</text>
</a>
</g>
</g>
<!-- Any -->
<g id="node3" class="node">
<title>Any</title>
<g id="a_node3"><a xlink:href="/type/Any" xlink:title="Any">
<ellipse fill="none" stroke="#000000" cx="829" cy="-306" rx="27" ry="18"/>
<text text-anchor="middle" x="829" y="-302.3" font-family="FreeSans" font-size="14.00" fill="#000000">Any</text>
</a>
</g>
</g>
<!-- Any&#45;&gt;Mu -->
<g id="edge1" class="edge">
<title>Any&#45;&gt;Mu</title>
<path fill="none" stroke="#000000" d="M829,-324.3C829,-332.02 829,-341.29 829,-349.89"/>
<polygon fill="#000000" stroke="#000000" points="825.5,-349.9 829,-359.9 832.5,-349.9 825.5,-349.9"/>
</g>
<!-- Cool -->
<g id="node4" class="node">
<title>Cool</title>
<g id="a_node4"><a xlink:href="/type/Cool" xlink:title="Cool">
<ellipse fill="none" stroke="#000000" cx="829" cy="-234" rx="28.7" ry="18"/>
<text text-anchor="middle" x="829" y="-230.3" font-family="FreeSans" font-size="14.00" fill="#000000">Cool</text>
</a>
</g>
</g>
<!-- Cool&#45;&gt;Any -->
<g id="edge2" class="edge">
<title>Cool&#45;&gt;Any</title>
<path fill="none" stroke="#000000" d="M829,-252.3C829,-260.02 829,-269.29 829,-277.89"/>
<polygon fill="#000000" stroke="#000000" points="825.5,-277.9 829,-287.9 832.5,-277.9 825.5,-277.9"/>
</g>
<!-- Complex -->
<g id="node5" class="node">
<title>Complex</title>
<g id="a_node5"><a xlink:href="/type/Complex" xlink:title="Complex">
<ellipse fill="none" stroke="#000000" cx="1048" cy="-162" rx="45.49" ry="18"/>
<text text-anchor="middle" x="1048" y="-158.3" font-family="FreeSans" font-size="14.00" fill="#000000">Complex</text>
</a>
</g>
</g>
<!-- Complex&#45;&gt;Numeric -->
<g id="edge25" class="edge">
<title>Complex&#45;&gt;Numeric</title>
<path fill="none" stroke="#6666ff" d="M1039.91,-179.74C1027.46,-205.52 1005,-252 1005,-252 1005,-252 793,-288 793,-288 793,-288 769.66,-292.09 745.89,-296.26"/>
<polygon fill="#6666ff" stroke="#6666ff" points="744.98,-292.86 735.73,-298.04 746.19,-299.76 744.98,-292.86"/>
</g>
<!-- Complex&#45;&gt;Cool -->
<g id="edge3" class="edge">
<title>Complex&#45;&gt;Cool</title>
<path fill="none" stroke="#000000" d="M1013.78,-173.94C972.88,-187.01 904.83,-208.76 863.71,-221.9"/>
<polygon fill="#000000" stroke="#000000" points="862.58,-218.59 854.12,-224.97 864.71,-225.26 862.58,-218.59"/>
</g>
<!-- Real -->
<g id="node6" class="node">
<title>Real</title>
<g id="a_node6"><a xlink:href="/type/Real" xlink:title="Real">
<ellipse fill="none" stroke="#6666ff" cx="638" cy="-234" rx="28.7" ry="18"/>
<text text-anchor="middle" x="638" y="-230.3" font-family="FreeSans" font-size="14.00" fill="#6666ff">Real</text>
</a>
</g>
</g>
<!-- Real&#45;&gt;Numeric -->
<g id="edge26" class="edge">
<title>Real&#45;&gt;Numeric</title>
<path fill="none" stroke="#6666ff" d="M650.59,-250.19C657.95,-259.07 667.41,-270.5 675.79,-280.61"/>
<polygon fill="#6666ff" stroke="#6666ff" points="673.15,-282.9 682.22,-288.37 678.54,-278.44 673.15,-282.9"/>
</g>
<!-- Stringy -->
<g id="node7" class="node">
<title>Stringy</title>
<g id="a_node7"><a xlink:href="/type/Stringy" xlink:title="Stringy">
<ellipse fill="none" stroke="#6666ff" cx="958" cy="-234" rx="38.19" ry="18"/>
<text text-anchor="middle" x="958" y="-230.3" font-family="FreeSans" font-size="14.00" fill="#6666ff">Stringy</text>
</a>
</g>
</g>
<!-- Str -->
<g id="node8" class="node">
<title>Str</title>
<g id="a_node8"><a xlink:href="/type/Str" xlink:title="Str">
<ellipse fill="none" stroke="#000000" cx="958" cy="-162" rx="27" ry="18"/>
<text text-anchor="middle" x="958" y="-158.3" font-family="FreeSans" font-size="14.00" fill="#000000">Str</text>
</a>
</g>
</g>
<!-- Str&#45;&gt;Cool -->
<g id="edge4" class="edge">
<title>Str&#45;&gt;Cool</title>
<path fill="none" stroke="#000000" d="M937.56,-174.09C916.49,-185.53 883.39,-203.48 859.28,-216.57"/>
<polygon fill="#000000" stroke="#000000" points="857.32,-213.65 850.2,-221.49 860.66,-219.8 857.32,-213.65"/>
</g>
<!-- Str&#45;&gt;Stringy -->
<g id="edge27" class="edge">
<title>Str&#45;&gt;Stringy</title>
<path fill="none" stroke="#6666ff" d="M958,-180.3C958,-188.02 958,-197.29 958,-205.89"/>
<polygon fill="#6666ff" stroke="#6666ff" points="954.5,-205.9 958,-215.9 961.5,-205.9 954.5,-205.9"/>
</g>
<!-- Allomorph -->
<g id="node9" class="node">
<title>Allomorph</title>
<g id="a_node9"><a xlink:href="/type/Allomorph" xlink:title="Allomorph">
<ellipse fill="none" stroke="#000000" cx="970" cy="-90" rx="50.09" ry="18"/>
<text text-anchor="middle" x="970" y="-86.3" font-family="FreeSans" font-size="14.00" fill="#000000">Allomorph</text>
</a>
</g>
</g>
<!-- Allomorph&#45;&gt;Str -->
<g id="edge5" class="edge">
<title>Allomorph&#45;&gt;Str</title>
<path fill="none" stroke="#000000" d="M967.03,-108.3C965.71,-116.02 964.12,-125.29 962.65,-133.89"/>
<polygon fill="#000000" stroke="#000000" points="959.17,-133.45 960.93,-143.9 966.07,-134.63 959.17,-133.45"/>
</g>
<!-- ComplexStr -->
<g id="node10" class="node">
<title>ComplexStr</title>
<g id="a_node10"><a xlink:href="/type/ComplexStr" xlink:title="ComplexStr">
<ellipse fill="none" stroke="#000000" cx="1009" cy="-18" rx="56.59" ry="18"/>
<text text-anchor="middle" x="1009" y="-14.3" font-family="FreeSans" font-size="14.00" fill="#000000">ComplexStr</text>
</a>
</g>
</g>
<!-- ComplexStr&#45;&gt;Complex -->
<g id="edge7" class="edge">
<title>ComplexStr&#45;&gt;Complex</title>
<path fill="none" stroke="#000000" d="M1015.44,-36.06C1021.28,-51.55 1029,-72 1029,-72 1029,-72 1036.65,-107.83 1042.24,-134.03"/>
<polygon fill="#000000" stroke="#000000" points="1038.83,-134.79 1044.34,-143.84 1045.67,-133.33 1038.83,-134.79"/>
</g>
<!-- ComplexStr&#45;&gt;Allomorph -->
<g id="edge6" class="edge">
<title>ComplexStr&#45;&gt;Allomorph</title>
<path fill="none" stroke="#000000" d="M999.56,-35.95C994.96,-44.2 989.33,-54.3 984.23,-63.46"/>
<polygon fill="#000000" stroke="#000000" points="981.16,-61.77 979.35,-72.21 987.28,-65.18 981.16,-61.77"/>
</g>
<!-- Int -->
<g id="node11" class="node">
<title>Int</title>
<g id="a_node11"><a xlink:href="/type/Int" xlink:title="Int">
<ellipse fill="none" stroke="#000000" cx="408" cy="-162" rx="27" ry="18"/>
<text text-anchor="middle" x="408" y="-158.3" font-family="FreeSans" font-size="14.00" fill="#000000">Int</text>
</a>
</g>
</g>
<!-- Int&#45;&gt;Cool -->
<g id="edge8" class="edge">
<title>Int&#45;&gt;Cool</title>
<path fill="none" stroke="#000000" d="M432.26,-170.11C448.15,-174.77 466,-180 466,-180 466,-180 698.44,-213.94 791.32,-227.5"/>
<polygon fill="#000000" stroke="#000000" points="791.02,-230.99 801.42,-228.97 792.03,-224.06 791.02,-230.99"/>
</g>
<!-- Int&#45;&gt;Real -->
<g id="edge28" class="edge">
<title>Int&#45;&gt;Real</title>
<path fill="none" stroke="#6666ff" d="M432.18,-170.36C473.01,-182.79 555.78,-207.98 602.97,-222.34"/>
<polygon fill="#6666ff" stroke="#6666ff" points="602.17,-225.75 612.75,-225.32 604.2,-219.06 602.17,-225.75"/>
</g>
<!-- Rational -->
<g id="node12" class="node">
<title>Rational</title>
<g id="a_node12"><a xlink:href="/type/Rational" xlink:title="Rational">
<ellipse fill="none" stroke="#6666ff" cx="518" cy="-162" rx="42.79" ry="18"/>
<text text-anchor="middle" x="518" y="-158.3" font-family="FreeSans" font-size="14.00" fill="#6666ff">Rational</text>
</a>
</g>
</g>
<!-- Rational&#45;&gt;Real -->
<g id="edge29" class="edge">
<title>Rational&#45;&gt;Real</title>
<path fill="none" stroke="#6666ff" d="M542,-177C561.21,-188.21 588.25,-203.98 608.74,-215.93"/>
<polygon fill="#6666ff" stroke="#6666ff" points="607.24,-219.11 617.64,-221.12 610.76,-213.06 607.24,-219.11"/>
</g>
<!-- Num -->
<g id="node13" class="node">
<title>Num</title>
<g id="a_node13"><a xlink:href="/type/Num" xlink:title="Num">
<ellipse fill="none" stroke="#000000" cx="701" cy="-162" rx="29.8" ry="18"/>
<text text-anchor="middle" x="701" y="-158.3" font-family="FreeSans" font-size="14.00" fill="#000000">Num</text>
</a>
</g>
</g>
<!-- Num&#45;&gt;Cool -->
<g id="edge9" class="edge">
<title>Num&#45;&gt;Cool</title>
<path fill="none" stroke="#000000" d="M722.42,-174.72C743.41,-186.19 775.57,-203.78 799.08,-216.63"/>
<polygon fill="#000000" stroke="#000000" points="797.48,-219.75 807.93,-221.48 800.84,-213.61 797.48,-219.75"/>
</g>
<!-- Num&#45;&gt;Real -->
<g id="edge30" class="edge">
<title>Num&#45;&gt;Real</title>
<path fill="none" stroke="#6666ff" d="M687.33,-178.19C678.91,-187.55 667.95,-199.72 658.51,-210.21"/>
<polygon fill="#6666ff" stroke="#6666ff" points="655.73,-208.07 651.64,-217.84 660.93,-212.75 655.73,-208.07"/>
</g>
<!-- Instant -->
<g id="node14" class="node">
<title>Instant</title>
<g id="a_node14"><a xlink:href="/type/Instant" xlink:title="Instant">
<ellipse fill="none" stroke="#000000" cx="616" cy="-162" rx="37.09" ry="18"/>
<text text-anchor="middle" x="616" y="-158.3" font-family="FreeSans" font-size="14.00" fill="#000000">Instant</text>
</a>
</g>
</g>
<!-- Instant&#45;&gt;Cool -->
<g id="edge10" class="edge">
<title>Instant&#45;&gt;Cool</title>
<path fill="none" stroke="#000000" d="M644.61,-173.57C653.96,-177.03 662,-180 662,-180 662,-180 745.51,-206.5 794.42,-222.03"/>
<polygon fill="#000000" stroke="#000000" points="793.41,-225.38 804,-225.07 795.53,-218.7 793.41,-225.38"/>
</g>
<!-- Instant&#45;&gt;Real -->
<g id="edge31" class="edge">
<title>Instant&#45;&gt;Real</title>
<path fill="none" stroke="#6666ff" d="M621.33,-179.95C623.84,-187.94 626.9,-197.67 629.7,-206.6"/>
<polygon fill="#6666ff" stroke="#6666ff" points="626.39,-207.72 632.72,-216.21 633.06,-205.62 626.39,-207.72"/>
</g>
<!-- Duration -->
<g id="node15" class="node">
<title>Duration</title>
<g id="a_node15"><a xlink:href="/type/Duration" xlink:title="Duration">
<ellipse fill="none" stroke="#000000" cx="793" cy="-162" rx="44.39" ry="18"/>
<text text-anchor="middle" x="793" y="-158.3" font-family="FreeSans" font-size="14.00" fill="#000000">Duration</text>
</a>
</g>
</g>
<!-- Duration&#45;&gt;Cool -->
<g id="edge11" class="edge">
<title>Duration&#45;&gt;Cool</title>
<path fill="none" stroke="#000000" d="M801.71,-179.95C805.98,-188.23 811.2,-198.38 815.92,-207.58"/>
<polygon fill="#000000" stroke="#000000" points="812.93,-209.4 820.61,-216.69 819.15,-206.2 812.93,-209.4"/>
</g>
<!-- Duration&#45;&gt;Real -->
<g id="edge32" class="edge">
<title>Duration&#45;&gt;Real</title>
<path fill="none" stroke="#6666ff" d="M764.57,-175.84C737.83,-187.91 697.86,-205.97 670.01,-218.54"/>
<polygon fill="#6666ff" stroke="#6666ff" points="668.38,-215.44 660.71,-222.74 671.26,-221.82 668.38,-215.44"/>
</g>
<!-- PromiseStatus -->
<g id="node16" class="node">
<title>PromiseStatus</title>
<g id="a_node16"><a xlink:href="/type/PromiseStatus" xlink:title="PromiseStatus">
<ellipse fill="none" stroke="#33bb33" cx="632" cy="-90" rx="67.69" ry="18"/>
<text text-anchor="middle" x="632" y="-86.3" font-family="FreeSans" font-size="14.00" fill="#33bb33">PromiseStatus</text>
</a>
</g>
</g>
<!-- PromiseStatus&#45;&gt;Int -->
<g id="edge12" class="edge">
<title>PromiseStatus&#45;&gt;Int</title>
<path fill="none" stroke="#000000" d="M589.87,-104.17C546.96,-117.57 481.29,-138.1 441.71,-150.47"/>
<polygon fill="#000000" stroke="#000000" points="440.5,-147.18 432,-153.5 442.59,-153.86 440.5,-147.18"/>
</g>
<!-- int -->
<g id="node17" class="node">
<title>int</title>
<g id="a_node17"><a xlink:href="/type/int" xlink:title="int">
<ellipse fill="none" stroke="#000000" cx="27" cy="-90" rx="27" ry="18"/>
<text text-anchor="middle" x="27" y="-86.3" font-family="FreeSans" font-size="14.00" fill="#000000">int</text>
</a>
</g>
</g>
<!-- int&#45;&gt;Int -->
<g id="edge13" class="edge">
<title>int&#45;&gt;Int</title>
<path fill="none" stroke="#000000" d="M48.36,-101.09C56.11,-104.75 63,-108 63,-108 63,-108 283.02,-141.8 371.65,-155.42"/>
<polygon fill="#000000" stroke="#000000" points="371.37,-158.91 381.79,-156.97 372.43,-151.99 371.37,-158.91"/>
</g>
<!-- Endian -->
<g id="node18" class="node">
<title>Endian</title>
<g id="a_node18"><a xlink:href="/type/Endian" xlink:title="Endian">
<ellipse fill="none" stroke="#33bb33" cx="110" cy="-90" rx="38.19" ry="18"/>
<text text-anchor="middle" x="110" y="-86.3" font-family="FreeSans" font-size="14.00" fill="#33bb33">Endian</text>
</a>
</g>
</g>
<!-- Endian&#45;&gt;Int -->
<g id="edge14" class="edge">
<title>Endian&#45;&gt;Int</title>
<path fill="none" stroke="#000000" d="M139.5,-101.67C148.94,-105.09 157,-108 157,-108 157,-108 303.33,-138.9 372.53,-153.51"/>
<polygon fill="#000000" stroke="#000000" points="372.04,-156.98 382.55,-155.63 373.49,-150.14 372.04,-156.98"/>
</g>
<!-- Signal -->
<g id="node19" class="node">
<title>Signal</title>
<g id="a_node19"><a xlink:href="/type/Signal" xlink:title="Signal">
<ellipse fill="none" stroke="#33bb33" cx="201" cy="-90" rx="35.19" ry="18"/>
<text text-anchor="middle" x="201" y="-86.3" font-family="FreeSans" font-size="14.00" fill="#33bb33">Signal</text>
</a>
</g>
</g>
<!-- Signal&#45;&gt;Int -->
<g id="edge15" class="edge">
<title>Signal&#45;&gt;Int</title>
<path fill="none" stroke="#000000" d="M228.11,-101.48C237.17,-104.97 245,-108 245,-108 245,-108 327.01,-134.67 374.69,-150.17"/>
<polygon fill="#000000" stroke="#000000" points="373.71,-153.53 384.3,-153.29 375.87,-146.87 373.71,-153.53"/>
</g>
<!-- Order -->
<g id="node20" class="node">
<title>Order</title>
<g id="a_node20"><a xlink:href="/type/Order" xlink:title="Order">
<ellipse fill="none" stroke="#33bb33" cx="288" cy="-90" rx="33.6" ry="18"/>
<text text-anchor="middle" x="288" y="-86.3" font-family="FreeSans" font-size="14.00" fill="#33bb33">Order</text>
</a>
</g>
</g>
<!-- Order&#45;&gt;Int -->
<g id="edge16" class="edge">
<title>Order&#45;&gt;Int</title>
<path fill="none" stroke="#000000" d="M310.01,-103.84C329.46,-115.19 357.96,-131.81 379.21,-144.21"/>
<polygon fill="#000000" stroke="#000000" points="377.72,-147.39 388.12,-149.4 381.25,-141.34 377.72,-147.39"/>
</g>
<!-- atomicint -->
<g id="node21" class="node">
<title>atomicint</title>
<g id="a_node21"><a xlink:href="/type/atomicint" xlink:title="atomicint">
<ellipse fill="none" stroke="#000000" cx="386" cy="-90" rx="46.29" ry="18"/>
<text text-anchor="middle" x="386" y="-86.3" font-family="FreeSans" font-size="14.00" fill="#000000">atomicint</text>
</a>
</g>
</g>
<!-- atomicint&#45;&gt;Int -->
<g id="edge17" class="edge">
<title>atomicint&#45;&gt;Int</title>
<path fill="none" stroke="#000000" d="M391.33,-107.95C393.84,-115.94 396.9,-125.67 399.7,-134.6"/>
<polygon fill="#000000" stroke="#000000" points="396.39,-135.72 402.72,-144.21 403.06,-133.62 396.39,-135.72"/>
</g>
<!-- Bool -->
<g id="node22" class="node">
<title>Bool</title>
<g id="a_node22"><a xlink:href="/type/Bool" xlink:title="Bool">
<ellipse fill="none" stroke="#33bb33" cx="479" cy="-90" rx="28.7" ry="18"/>
<text text-anchor="middle" x="479" y="-86.3" font-family="FreeSans" font-size="14.00" fill="#33bb33">Bool</text>
</a>
</g>
</g>
<!-- Bool&#45;&gt;Int -->
<g id="edge18" class="edge">
<title>Bool&#45;&gt;Int</title>
<path fill="none" stroke="#000000" d="M464.29,-105.5C454.39,-115.27 441.16,-128.31 430.01,-139.3"/>
<polygon fill="#000000" stroke="#000000" points="427.36,-137 422.69,-146.51 432.27,-141.99 427.36,-137"/>
</g>
<!-- IntStr -->
<g id="node23" class="node">
<title>IntStr</title>
<g id="a_node23"><a xlink:href="/type/IntStr" xlink:title="IntStr">
<ellipse fill="none" stroke="#000000" cx="670" cy="-18" rx="31.7" ry="18"/>
<text text-anchor="middle" x="670" y="-14.3" font-family="FreeSans" font-size="14.00" fill="#000000">IntStr</text>
</a>
</g>
</g>
<!-- IntStr&#45;&gt;Allomorph -->
<g id="edge19" class="edge">
<title>IntStr&#45;&gt;Allomorph</title>
<path fill="none" stroke="#000000" d="M699.07,-25.39C763.17,-39.49 911,-72 911,-72 911,-72 915.6,-73.33 922.24,-75.24"/>
<polygon fill="#000000" stroke="#000000" points="921.72,-78.73 932.3,-78.14 923.66,-72.01 921.72,-78.73"/>
</g>
<!-- IntStr&#45;&gt;Int -->
<g id="edge20" class="edge">
<title>IntStr&#45;&gt;Int</title>
<path fill="none" stroke="#000000" d="M646.17,-29.98C612.49,-45.51 555,-72 555,-72 555,-72 517,-108 517,-108 517,-108 470.61,-130.56 438.35,-146.24"/>
<polygon fill="#000000" stroke="#000000" points="436.74,-143.13 429.28,-150.66 439.8,-149.43 436.74,-143.13"/>
</g>
<!-- NumStr -->
<g id="node24" class="node">
<title>NumStr</title>
<g id="a_node24"><a xlink:href="/type/NumStr" xlink:title="NumStr">
<ellipse fill="none" stroke="#000000" cx="811" cy="-18" rx="40.89" ry="18"/>
<text text-anchor="middle" x="811" y="-14.3" font-family="FreeSans" font-size="14.00" fill="#000000">NumStr</text>
</a>
</g>
</g>
<!-- NumStr&#45;&gt;Allomorph -->
<g id="edge21" class="edge">
<title>NumStr&#45;&gt;Allomorph</title>
<path fill="none" stroke="#000000" d="M839.06,-31.35C864.37,-42.5 901.87,-59.01 930.26,-71.51"/>
<polygon fill="#000000" stroke="#000000" points="928.95,-74.75 939.51,-75.58 931.77,-68.34 928.95,-74.75"/>
</g>
<!-- NumStr&#45;&gt;Num -->
<g id="edge22" class="edge">
<title>NumStr&#45;&gt;Num</title>
<path fill="none" stroke="#000000" d="M792.49,-34.33C773.59,-49.98 747,-72 747,-72 747,-72 727.74,-109.27 714.14,-135.57"/>
<polygon fill="#000000" stroke="#000000" points="710.92,-134.19 709.44,-144.68 717.14,-137.4 710.92,-134.19"/>
</g>
<!-- FatRat -->
<g id="node25" class="node">
<title>FatRat</title>
<g id="a_node25"><a xlink:href="/type/FatRat" xlink:title="FatRat">
<ellipse fill="none" stroke="#000000" cx="793" cy="-90" rx="37.09" ry="18"/>
<text text-anchor="middle" x="793" y="-86.3" font-family="FreeSans" font-size="14.00" fill="#000000">FatRat</text>
</a>
</g>
</g>
<!-- FatRat&#45;&gt;Cool -->
<g id="edge23" class="edge">
<title>FatRat&#45;&gt;Cool</title>
<path fill="none" stroke="#000000" d="M808.62,-106.62C824.25,-122.25 846,-144 846,-144 846,-144 846,-180 846,-180 846,-180 841.78,-193.15 837.55,-206.34"/>
<polygon fill="#000000" stroke="#000000" points="834.1,-205.64 834.38,-216.23 840.77,-207.78 834.1,-205.64"/>
</g>
<!-- FatRat&#45;&gt;Rational -->
<g id="edge33" class="edge">
<title>FatRat&#45;&gt;Rational</title>
<path fill="none" stroke="#6666ff" d="M760.57,-98.71C698.73,-113.41 570,-144 570,-144 570,-144 566.23,-145.23 560.73,-147.03"/>
<polygon fill="#6666ff" stroke="#6666ff" points="559.35,-143.8 550.93,-150.23 561.52,-150.45 559.35,-143.8"/>
</g>
<!-- Rat -->
<g id="node26" class="node">
<title>Rat</title>
<g id="a_node26"><a xlink:href="/type/Rat" xlink:title="Rat">
<ellipse fill="none" stroke="#000000" cx="875" cy="-90" rx="27" ry="18"/>
<text text-anchor="middle" x="875" y="-86.3" font-family="FreeSans" font-size="14.00" fill="#000000">Rat</text>
</a>
</g>
</g>
<!-- Rat&#45;&gt;Cool -->
<g id="edge24" class="edge">
<title>Rat&#45;&gt;Cool</title>
<path fill="none" stroke="#000000" d="M872.11,-108.16C867.75,-134.02 860,-180 860,-180 860,-180 851.65,-194.28 843.61,-208.02"/>
<polygon fill="#000000" stroke="#000000" points="840.5,-206.41 838.47,-216.81 846.54,-209.95 840.5,-206.41"/>
</g>
<!-- Rat&#45;&gt;Rational -->
<g id="edge34" class="edge">
<title>Rat&#45;&gt;Rational</title>
<path fill="none" stroke="#6666ff" d="M853.64,-101.09C845.89,-104.75 839,-108 839,-108 839,-108 570,-144 570,-144 570,-144 566.23,-145.23 560.73,-147.03"/>
<polygon fill="#6666ff" stroke="#6666ff" points="559.35,-143.8 550.93,-150.23 561.52,-150.45 559.35,-143.8"/>
</g>
</g>
</svg>
