<?xml version="1.0" encoding="UTF-8" standalone="no"?>
<!DOCTYPE svg PUBLIC "-//W3C//DTD SVG 1.1//EN"
 "http://www.w3.org/Graphics/SVG/1.1/DTD/svg11.dtd">
<!-- Generated by graphviz version 2.43.0 (0)
 -->
<!-- Title: perl6&#45;type&#45;graph Pages: 1 -->
<svg width="267pt" height="404pt"
 viewBox="0.00 0.00 266.54 404.00" xmlns="http://www.w3.org/2000/svg" xmlns:xlink="http://www.w3.org/1999/xlink">
<g id="graph0" class="graph" transform="scale(1 1) rotate(0) translate(4 400)">
<title>perl6&#45;type&#45;graph</title>
<polygon fill="white" stroke="transparent" points="-4,4 -4,-400 262.54,-400 262.54,4 -4,4"/>
<!-- NumStr -->
<g id="node1" class="node">
<title>NumStr</title>
<g id="a_node1"><a xlink:href="/type/NumStr" xlink:title="NumStr">
<ellipse fill="none" stroke="#000000" cx="110.35" cy="-18" rx="40.89" ry="18"/>
<text text-anchor="middle" x="110.35" y="-14.3" font-family="FreeSans" font-size="14.00" fill="#000000">NumStr</text>
</a>
</g>
</g>
<!-- Allomorph -->
<g id="node7" class="node">
<title>Allomorph</title>
<g id="a_node7"><a xlink:href="/type/Allomorph" xlink:title="Allomorph">
<ellipse fill="none" stroke="#000000" cx="61.35" cy="-90" rx="50.09" ry="18"/>
<text text-anchor="middle" x="61.35" y="-86.3" font-family="FreeSans" font-size="14.00" fill="#000000">Allomorph</text>
</a>
</g>
</g>
<!-- NumStr&#45;&gt;Allomorph -->
<g id="edge1" class="edge">
<title>NumStr&#45;&gt;Allomorph</title>
<path fill="none" stroke="#000000" d="M98.73,-35.59C92.84,-44.01 85.56,-54.42 78.99,-63.8"/>
<polygon fill="#000000" stroke="#000000" points="76.08,-61.84 73.22,-72.04 81.82,-65.86 76.08,-61.84"/>
</g>
<!-- Num -->
<g id="node10" class="node">
<title>Num</title>
<g id="a_node10"><a xlink:href="/type/Num" xlink:title="Num">
<ellipse fill="none" stroke="#000000" cx="159.35" cy="-90" rx="29.8" ry="18"/>
<text text-anchor="middle" x="159.35" y="-86.3" font-family="FreeSans" font-size="14.00" fill="#000000">Num</text>
</a>
</g>
</g>
<!-- NumStr&#45;&gt;Num -->
<g id="edge2" class="edge">
<title>NumStr&#45;&gt;Num</title>
<path fill="none" stroke="#000000" d="M121.96,-35.59C128.03,-44.26 135.57,-55.03 142.28,-64.62"/>
<polygon fill="#000000" stroke="#000000" points="139.55,-66.83 148.15,-73.01 145.29,-62.81 139.55,-66.83"/>
</g>
<!-- Mu -->
<g id="node2" class="node">
<title>Mu</title>
<g id="a_node2"><a xlink:href="/type/Mu" xlink:title="Mu">
<ellipse fill="none" stroke="#000000" cx="123.35" cy="-378" rx="27" ry="18"/>
<text text-anchor="middle" x="123.35" y="-374.3" font-family="FreeSans" font-size="14.00" fill="#000000">Mu</text>
</a>
</g>
</g>
<!-- Any -->
<g id="node3" class="node">
<title>Any</title>
<g id="a_node3"><a xlink:href="/type/Any" xlink:title="Any">
<ellipse fill="none" stroke="#000000" cx="123.35" cy="-306" rx="27" ry="18"/>
<text text-anchor="middle" x="123.35" y="-302.3" font-family="FreeSans" font-size="14.00" fill="#000000">Any</text>
</a>
</g>
</g>
<!-- Any&#45;&gt;Mu -->
<g id="edge3" class="edge">
<title>Any&#45;&gt;Mu</title>
<path fill="none" stroke="#000000" d="M123.35,-324.3C123.35,-332.02 123.35,-341.29 123.35,-349.89"/>
<polygon fill="#000000" stroke="#000000" points="119.85,-349.9 123.35,-359.9 126.85,-349.9 119.85,-349.9"/>
</g>
<!-- Cool -->
<g id="node4" class="node">
<title>Cool</title>
<g id="a_node4"><a xlink:href="/type/Cool" xlink:title="Cool">
<ellipse fill="none" stroke="#000000" cx="123.35" cy="-234" rx="28.7" ry="18"/>
<text text-anchor="middle" x="123.35" y="-230.3" font-family="FreeSans" font-size="14.00" fill="#000000">Cool</text>
</a>
</g>
</g>
<!-- Cool&#45;&gt;Any -->
<g id="edge4" class="edge">
<title>Cool&#45;&gt;Any</title>
<path fill="none" stroke="#000000" d="M123.35,-252.3C123.35,-260.02 123.35,-269.29 123.35,-277.89"/>
<polygon fill="#000000" stroke="#000000" points="119.85,-277.9 123.35,-287.9 126.85,-277.9 119.85,-277.9"/>
</g>
<!-- Stringy -->
<g id="node5" class="node">
<title>Stringy</title>
<g id="a_node5"><a xlink:href="/type/Stringy" xlink:title="Stringy">
<ellipse fill="none" stroke="#6666ff" cx="38.35" cy="-234" rx="38.19" ry="18"/>
<text text-anchor="middle" x="38.35" y="-230.3" font-family="FreeSans" font-size="14.00" fill="#6666ff">Stringy</text>
</a>
</g>
</g>
<!-- Str -->
<g id="node6" class="node">
<title>Str</title>
<g id="a_node6"><a xlink:href="/type/Str" xlink:title="Str">
<ellipse fill="none" stroke="#000000" cx="61.35" cy="-162" rx="27" ry="18"/>
<text text-anchor="middle" x="61.35" y="-158.3" font-family="FreeSans" font-size="14.00" fill="#000000">Str</text>
</a>
</g>
</g>
<!-- Str&#45;&gt;Cool -->
<g id="edge5" class="edge">
<title>Str&#45;&gt;Cool</title>
<path fill="none" stroke="#000000" d="M74.5,-177.85C82.77,-187.18 93.61,-199.43 102.98,-210"/>
<polygon fill="#000000" stroke="#000000" points="100.54,-212.53 109.79,-217.69 105.78,-207.89 100.54,-212.53"/>
</g>
<!-- Str&#45;&gt;Stringy -->
<g id="edge8" class="edge">
<title>Str&#45;&gt;Stringy</title>
<path fill="none" stroke="#6666ff" d="M55.78,-179.95C53.19,-187.82 50.05,-197.38 47.15,-206.21"/>
<polygon fill="#6666ff" stroke="#6666ff" points="43.82,-205.13 44.02,-215.72 50.47,-207.32 43.82,-205.13"/>
</g>
<!-- Allomorph&#45;&gt;Str -->
<g id="edge6" class="edge">
<title>Allomorph&#45;&gt;Str</title>
<path fill="none" stroke="#000000" d="M61.35,-108.3C61.35,-116.02 61.35,-125.29 61.35,-133.89"/>
<polygon fill="#000000" stroke="#000000" points="57.85,-133.9 61.35,-143.9 64.85,-133.9 57.85,-133.9"/>
</g>
<!-- Numeric -->
<g id="node8" class="node">
<title>Numeric</title>
<g id="a_node8"><a xlink:href="/type/Numeric" xlink:title="Numeric">
<ellipse fill="none" stroke="#6666ff" cx="214.35" cy="-234" rx="44.39" ry="18"/>
<text text-anchor="middle" x="214.35" y="-230.3" font-family="FreeSans" font-size="14.00" fill="#6666ff">Numeric</text>
</a>
</g>
</g>
<!-- Real -->
<g id="node9" class="node">
<title>Real</title>
<g id="a_node9"><a xlink:href="/type/Real" xlink:title="Real">
<ellipse fill="none" stroke="#6666ff" cx="205.35" cy="-162" rx="28.7" ry="18"/>
<text text-anchor="middle" x="205.35" y="-158.3" font-family="FreeSans" font-size="14.00" fill="#6666ff">Real</text>
</a>
</g>
</g>
<!-- Real&#45;&gt;Numeric -->
<g id="edge9" class="edge">
<title>Real&#45;&gt;Numeric</title>
<path fill="none" stroke="#6666ff" d="M207.57,-180.3C208.56,-188.02 209.75,-197.29 210.86,-205.89"/>
<polygon fill="#6666ff" stroke="#6666ff" points="207.4,-206.42 212.15,-215.9 214.34,-205.53 207.4,-206.42"/>
</g>
<!-- Num&#45;&gt;Cool -->
<g id="edge7" class="edge">
<title>Num&#45;&gt;Cool</title>
<path fill="none" stroke="#000000" d="M155.08,-107.85C148.9,-132.19 137.43,-177.43 130.11,-206.33"/>
<polygon fill="#000000" stroke="#000000" points="126.68,-205.62 127.61,-216.18 133.46,-207.34 126.68,-205.62"/>
</g>
<!-- Num&#45;&gt;Real -->
<g id="edge10" class="edge">
<title>Num&#45;&gt;Real</title>
<path fill="none" stroke="#6666ff" d="M169.78,-106.88C175.55,-115.66 182.83,-126.74 189.3,-136.58"/>
<polygon fill="#6666ff" stroke="#6666ff" points="186.53,-138.74 194.95,-145.18 192.38,-134.9 186.53,-138.74"/>
</g>
</g>
</svg>
