<?xml version="1.0" encoding="UTF-8" standalone="no"?>
<!DOCTYPE svg PUBLIC "-//W3C//DTD SVG 1.1//EN"
 "http://www.w3.org/Graphics/SVG/1.1/DTD/svg11.dtd">
<!-- Generated by graphviz version 2.43.0 (0)
 -->
<!-- Title: perl6&#45;type&#45;graph Pages: 1 -->
<svg width="190pt" height="188pt"
 viewBox="0.00 0.00 190.25 188.00" xmlns="http://www.w3.org/2000/svg" xmlns:xlink="http://www.w3.org/1999/xlink">
<g id="graph0" class="graph" transform="scale(1 1) rotate(0) translate(4 184)">
<title>perl6&#45;type&#45;graph</title>
<polygon fill="white" stroke="transparent" points="-4,4 -4,-184 186.25,-184 186.25,4 -4,4"/>
<!-- Pair -->
<g id="node1" class="node">
<title>Pair</title>
<g id="a_node1"><a xlink:href="/type/Pair" xlink:title="Pair">
<ellipse fill="none" stroke="#000000" cx="77" cy="-18" rx="27" ry="18"/>
<text text-anchor="middle" x="77" y="-14.3" font-family="FreeSans" font-size="14.00" fill="#000000">Pair</text>
</a>
</g>
</g>
<!-- Any -->
<g id="node3" class="node">
<title>Any</title>
<g id="a_node3"><a xlink:href="/type/Any" xlink:title="Any">
<ellipse fill="none" stroke="#000000" cx="27" cy="-90" rx="27" ry="18"/>
<text text-anchor="middle" x="27" y="-86.3" font-family="FreeSans" font-size="14.00" fill="#000000">Any</text>
</a>
</g>
</g>
<!-- Pair&#45;&gt;Any -->
<g id="edge1" class="edge">
<title>Pair&#45;&gt;Any</title>
<path fill="none" stroke="#000000" d="M65.9,-34.54C59.49,-43.51 51.3,-54.98 44.08,-65.08"/>
<polygon fill="#000000" stroke="#000000" points="41.03,-63.34 38.07,-73.51 46.73,-67.41 41.03,-63.34"/>
</g>
<!-- Associative -->
<g id="node4" class="node">
<title>Associative</title>
<g id="a_node4"><a xlink:href="/type/Associative" xlink:title="Associative">
<ellipse fill="none" stroke="#6666ff" cx="127" cy="-90" rx="55.49" ry="18"/>
<text text-anchor="middle" x="127" y="-86.3" font-family="FreeSans" font-size="14.00" fill="#6666ff">Associative</text>
</a>
</g>
</g>
<!-- Pair&#45;&gt;Associative -->
<g id="edge3" class="edge">
<title>Pair&#45;&gt;Associative</title>
<path fill="none" stroke="#6666ff" d="M88.1,-34.54C94.24,-43.13 102.02,-54.03 109.01,-63.81"/>
<polygon fill="#6666ff" stroke="#6666ff" points="106.22,-65.94 114.88,-72.04 111.92,-61.87 106.22,-65.94"/>
</g>
<!-- Mu -->
<g id="node2" class="node">
<title>Mu</title>
<g id="a_node2"><a xlink:href="/type/Mu" xlink:title="Mu">
<ellipse fill="none" stroke="#000000" cx="27" cy="-162" rx="27" ry="18"/>
<text text-anchor="middle" x="27" y="-158.3" font-family="FreeSans" font-size="14.00" fill="#000000">Mu</text>
</a>
</g>
</g>
<!-- Any&#45;&gt;Mu -->
<g id="edge2" class="edge">
<title>Any&#45;&gt;Mu</title>
<path fill="none" stroke="#000000" d="M27,-108.3C27,-116.02 27,-125.29 27,-133.89"/>
<polygon fill="#000000" stroke="#000000" points="23.5,-133.9 27,-143.9 30.5,-133.9 23.5,-133.9"/>
</g>
</g>
</svg>
