<?xml version="1.0" encoding="UTF-8" standalone="no"?>
<!DOCTYPE svg PUBLIC "-//W3C//DTD SVG 1.1//EN"
 "http://www.w3.org/Graphics/SVG/1.1/DTD/svg11.dtd">
<!-- Generated by graphviz version 2.43.0 (0)
 -->
<!-- Title: perl6&#45;type&#45;graph Pages: 1 -->
<svg width="112pt" height="188pt"
 viewBox="0.00 0.00 111.99 188.00" xmlns="http://www.w3.org/2000/svg" xmlns:xlink="http://www.w3.org/1999/xlink">
<g id="graph0" class="graph" transform="scale(1 1) rotate(0) translate(4 184)">
<title>perl6&#45;type&#45;graph</title>
<polygon fill="white" stroke="transparent" points="-4,4 -4,-184 107.99,-184 107.99,4 -4,4"/>
<!-- Parameter -->
<g id="node1" class="node">
<title>Parameter</title>
<g id="a_node1"><a xlink:href="/type/Parameter" xlink:title="Parameter">
<ellipse fill="none" stroke="#000000" cx="52" cy="-18" rx="51.99" ry="18"/>
<text text-anchor="middle" x="52" y="-14.3" font-family="FreeSans" font-size="14.00" fill="#000000">Parameter</text>
</a>
</g>
</g>
<!-- Any -->
<g id="node3" class="node">
<title>Any</title>
<g id="a_node3"><a xlink:href="/type/Any" xlink:title="Any">
<ellipse fill="none" stroke="#000000" cx="52" cy="-90" rx="27" ry="18"/>
<text text-anchor="middle" x="52" y="-86.3" font-family="FreeSans" font-size="14.00" fill="#000000">Any</text>
</a>
</g>
</g>
<!-- Parameter&#45;&gt;Any -->
<g id="edge1" class="edge">
<title>Parameter&#45;&gt;Any</title>
<path fill="none" stroke="#000000" d="M52,-36.3C52,-44.02 52,-53.29 52,-61.89"/>
<polygon fill="#000000" stroke="#000000" points="48.5,-61.9 52,-71.9 55.5,-61.9 48.5,-61.9"/>
</g>
<!-- Mu -->
<g id="node2" class="node">
<title>Mu</title>
<g id="a_node2"><a xlink:href="/type/Mu" xlink:title="Mu">
<ellipse fill="none" stroke="#000000" cx="52" cy="-162" rx="27" ry="18"/>
<text text-anchor="middle" x="52" y="-158.3" font-family="FreeSans" font-size="14.00" fill="#000000">Mu</text>
</a>
</g>
</g>
<!-- Any&#45;&gt;Mu -->
<g id="edge2" class="edge">
<title>Any&#45;&gt;Mu</title>
<path fill="none" stroke="#000000" d="M52,-108.3C52,-116.02 52,-125.29 52,-133.89"/>
<polygon fill="#000000" stroke="#000000" points="48.5,-133.9 52,-143.9 55.5,-133.9 48.5,-133.9"/>
</g>
</g>
</svg>
