<?xml version="1.0" encoding="UTF-8" standalone="no"?>
<!DOCTYPE svg PUBLIC "-//W3C//DTD SVG 1.1//EN"
 "http://www.w3.org/Graphics/SVG/1.1/DTD/svg11.dtd">
<!-- Generated by graphviz version 2.43.0 (0)
 -->
<!-- Title: perl6&#45;type&#45;graph Pages: 1 -->
<svg width="1720pt" height="260pt"
 viewBox="0.00 0.00 1719.93 260.00" xmlns="http://www.w3.org/2000/svg" xmlns:xlink="http://www.w3.org/1999/xlink">
<g id="graph0" class="graph" transform="scale(1 1) rotate(0) translate(4 256)">
<title>perl6&#45;type&#45;graph</title>
<polygon fill="white" stroke="transparent" points="-4,4 -4,-256 1715.93,-256 1715.93,4 -4,4"/>
<!-- Pod::Block -->
<g id="node1" class="node">
<title>Pod::Block</title>
<g id="a_node1"><a xlink:href="/type/Pod::Block" xlink:title="Pod::Block">
<ellipse fill="none" stroke="#000000" cx="774.69" cy="-90" rx="53.09" ry="18"/>
<text text-anchor="middle" x="774.69" y="-86.3" font-family="FreeSans" font-size="14.00" fill="#000000">Pod::Block</text>
</a>
</g>
</g>
<!-- Any -->
<g id="node3" class="node">
<title>Any</title>
<g id="a_node3"><a xlink:href="/type/Any" xlink:title="Any">
<ellipse fill="none" stroke="#000000" cx="774.69" cy="-162" rx="27" ry="18"/>
<text text-anchor="middle" x="774.69" y="-158.3" font-family="FreeSans" font-size="14.00" fill="#000000">Any</text>
</a>
</g>
</g>
<!-- Pod::Block&#45;&gt;Any -->
<g id="edge1" class="edge">
<title>Pod::Block&#45;&gt;Any</title>
<path fill="none" stroke="#000000" d="M774.69,-108.3C774.69,-116.02 774.69,-125.29 774.69,-133.89"/>
<polygon fill="#000000" stroke="#000000" points="771.19,-133.9 774.69,-143.9 778.19,-133.9 771.19,-133.9"/>
</g>
<!-- Mu -->
<g id="node2" class="node">
<title>Mu</title>
<g id="a_node2"><a xlink:href="/type/Mu" xlink:title="Mu">
<ellipse fill="none" stroke="#000000" cx="774.69" cy="-234" rx="27" ry="18"/>
<text text-anchor="middle" x="774.69" y="-230.3" font-family="FreeSans" font-size="14.00" fill="#000000">Mu</text>
</a>
</g>
</g>
<!-- Any&#45;&gt;Mu -->
<g id="edge2" class="edge">
<title>Any&#45;&gt;Mu</title>
<path fill="none" stroke="#000000" d="M774.69,-180.3C774.69,-188.02 774.69,-197.29 774.69,-205.89"/>
<polygon fill="#000000" stroke="#000000" points="771.19,-205.9 774.69,-215.9 778.19,-205.9 771.19,-205.9"/>
</g>
<!-- Pod::Block::Para -->
<g id="node4" class="node">
<title>Pod::Block::Para</title>
<g id="a_node4"><a xlink:href="/type/Pod::Block::Para" xlink:title="Pod::Block::Para">
<ellipse fill="none" stroke="#000000" cx="76.69" cy="-18" rx="76.89" ry="18"/>
<text text-anchor="middle" x="76.69" y="-14.3" font-family="FreeSans" font-size="14.00" fill="#000000">Pod::Block::Para</text>
</a>
</g>
</g>
<!-- Pod::Block::Para&#45;&gt;Pod::Block -->
<g id="edge3" class="edge">
<title>Pod::Block::Para&#45;&gt;Pod::Block</title>
<path fill="none" stroke="#000000" d="M133.58,-30.24C149.57,-33.41 162.69,-36 162.69,-36 162.69,-36 558.57,-70.28 713.54,-83.7"/>
<polygon fill="#000000" stroke="#000000" points="713.56,-87.22 723.83,-84.6 714.17,-80.25 713.56,-87.22"/>
</g>
<!-- Pod::Defn -->
<g id="node5" class="node">
<title>Pod::Defn</title>
<g id="a_node5"><a xlink:href="/type/Pod::Defn" xlink:title="Pod::Defn">
<ellipse fill="none" stroke="#000000" cx="221.69" cy="-18" rx="50.09" ry="18"/>
<text text-anchor="middle" x="221.69" y="-14.3" font-family="FreeSans" font-size="14.00" fill="#000000">Pod::Defn</text>
</a>
</g>
</g>
<!-- Pod::Defn&#45;&gt;Pod::Block -->
<g id="edge4" class="edge">
<title>Pod::Defn&#45;&gt;Pod::Block</title>
<path fill="none" stroke="#000000" d="M259.39,-29.86C270.96,-33.19 280.69,-36 280.69,-36 280.69,-36 582.45,-68.38 714.28,-82.52"/>
<polygon fill="#000000" stroke="#000000" points="714.29,-86.04 724.61,-83.63 715.04,-79.08 714.29,-86.04"/>
</g>
<!-- Pod::Block::Named -->
<g id="node6" class="node">
<title>Pod::Block::Named</title>
<g id="a_node6"><a xlink:href="/type/Pod::Block::Named" xlink:title="Pod::Block::Named">
<ellipse fill="none" stroke="#000000" cx="376.69" cy="-18" rx="87.18" ry="18"/>
<text text-anchor="middle" x="376.69" y="-14.3" font-family="FreeSans" font-size="14.00" fill="#000000">Pod::Block::Named</text>
</a>
</g>
</g>
<!-- Pod::Block::Named&#45;&gt;Pod::Block -->
<g id="edge5" class="edge">
<title>Pod::Block::Named&#45;&gt;Pod::Block</title>
<path fill="none" stroke="#000000" d="M440.46,-30.29C458.19,-33.43 472.69,-36 472.69,-36 472.69,-36 631.11,-63.8 718.47,-79.13"/>
<polygon fill="#000000" stroke="#000000" points="718.04,-82.61 728.5,-80.89 719.25,-75.72 718.04,-82.61"/>
</g>
<!-- Pod::Block::Table -->
<g id="node7" class="node">
<title>Pod::Block::Table</title>
<g id="a_node7"><a xlink:href="/type/Pod::Block::Table" xlink:title="Pod::Block::Table">
<ellipse fill="none" stroke="#000000" cx="562.69" cy="-18" rx="80.69" ry="18"/>
<text text-anchor="middle" x="562.69" y="-14.3" font-family="FreeSans" font-size="14.00" fill="#000000">Pod::Block::Table</text>
</a>
</g>
</g>
<!-- Pod::Block::Table&#45;&gt;Pod::Block -->
<g id="edge6" class="edge">
<title>Pod::Block::Table&#45;&gt;Pod::Block</title>
<path fill="none" stroke="#000000" d="M605.85,-33.25C641.37,-44.98 691.63,-61.57 728.07,-73.61"/>
<polygon fill="#000000" stroke="#000000" points="727.36,-77.06 737.96,-76.87 729.56,-70.41 727.36,-77.06"/>
</g>
<!-- Pod::Item -->
<g id="node8" class="node">
<title>Pod::Item</title>
<g id="a_node8"><a xlink:href="/type/Pod::Item" xlink:title="Pod::Item">
<ellipse fill="none" stroke="#000000" cx="709.69" cy="-18" rx="48.19" ry="18"/>
<text text-anchor="middle" x="709.69" y="-14.3" font-family="FreeSans" font-size="14.00" fill="#000000">Pod::Item</text>
</a>
</g>
</g>
<!-- Pod::Item&#45;&gt;Pod::Block -->
<g id="edge7" class="edge">
<title>Pod::Item&#45;&gt;Pod::Block</title>
<path fill="none" stroke="#000000" d="M724.77,-35.24C732.94,-44.03 743.19,-55.07 752.27,-64.86"/>
<polygon fill="#000000" stroke="#000000" points="749.88,-67.42 759.25,-72.37 755.01,-62.66 749.88,-67.42"/>
</g>
<!-- Pod::Heading -->
<g id="node9" class="node">
<title>Pod::Heading</title>
<g id="a_node9"><a xlink:href="/type/Pod::Heading" xlink:title="Pod::Heading">
<ellipse fill="none" stroke="#000000" cx="839.69" cy="-18" rx="63.89" ry="18"/>
<text text-anchor="middle" x="839.69" y="-14.3" font-family="FreeSans" font-size="14.00" fill="#000000">Pod::Heading</text>
</a>
</g>
</g>
<!-- Pod::Heading&#45;&gt;Pod::Block -->
<g id="edge8" class="edge">
<title>Pod::Heading&#45;&gt;Pod::Block</title>
<path fill="none" stroke="#000000" d="M824.29,-35.59C816.11,-44.39 805.92,-55.37 796.9,-65.08"/>
<polygon fill="#000000" stroke="#000000" points="794.23,-62.82 789.99,-72.53 799.36,-67.58 794.23,-62.82"/>
</g>
<!-- Pod::Block::Comment -->
<g id="node10" class="node">
<title>Pod::Block::Comment</title>
<g id="a_node10"><a xlink:href="/type/Pod::Block::Comment" xlink:title="Pod::Block::Comment">
<ellipse fill="none" stroke="#000000" cx="1017.69" cy="-18" rx="96.38" ry="18"/>
<text text-anchor="middle" x="1017.69" y="-14.3" font-family="FreeSans" font-size="14.00" fill="#000000">Pod::Block::Comment</text>
</a>
</g>
</g>
<!-- Pod::Block::Comment&#45;&gt;Pod::Block -->
<g id="edge9" class="edge">
<title>Pod::Block::Comment&#45;&gt;Pod::Block</title>
<path fill="none" stroke="#000000" d="M967.64,-33.42C925.45,-45.57 865.44,-62.86 823.58,-74.92"/>
<polygon fill="#000000" stroke="#000000" points="822.52,-71.58 813.88,-77.71 824.46,-78.31 822.52,-71.58"/>
</g>
<!-- Pod::Block::Code -->
<g id="node11" class="node">
<title>Pod::Block::Code</title>
<g id="a_node11"><a xlink:href="/type/Pod::Block::Code" xlink:title="Pod::Block::Code">
<ellipse fill="none" stroke="#000000" cx="1210.69" cy="-18" rx="79.09" ry="18"/>
<text text-anchor="middle" x="1210.69" y="-14.3" font-family="FreeSans" font-size="14.00" fill="#000000">Pod::Block::Code</text>
</a>
</g>
</g>
<!-- Pod::Block::Code&#45;&gt;Pod::Block -->
<g id="edge10" class="edge">
<title>Pod::Block::Code&#45;&gt;Pod::Block</title>
<path fill="none" stroke="#000000" d="M1152.49,-30.24C1136.12,-33.41 1122.69,-36 1122.69,-36 1122.69,-36 931.44,-65.13 832.5,-80.2"/>
<polygon fill="#000000" stroke="#000000" points="831.71,-76.78 822.35,-81.74 832.76,-83.7 831.71,-76.78"/>
</g>
<!-- Pod::Block::Declarator -->
<g id="node12" class="node">
<title>Pod::Block::Declarator</title>
<g id="a_node12"><a xlink:href="/type/Pod::Block::Declarator" xlink:title="Pod::Block::Declarator">
<ellipse fill="none" stroke="#000000" cx="1406.69" cy="-18" rx="98.58" ry="18"/>
<text text-anchor="middle" x="1406.69" y="-14.3" font-family="FreeSans" font-size="14.00" fill="#000000">Pod::Block::Declarator</text>
</a>
</g>
</g>
<!-- Pod::Block::Declarator&#45;&gt;Pod::Block -->
<g id="edge11" class="edge">
<title>Pod::Block::Declarator&#45;&gt;Pod::Block</title>
<path fill="none" stroke="#000000" d="M1334.66,-30.34C1314.84,-33.46 1298.69,-36 1298.69,-36 1298.69,-36 972.61,-68.98 834.91,-82.91"/>
<polygon fill="#000000" stroke="#000000" points="834.53,-79.43 824.94,-83.92 835.24,-86.39 834.53,-79.43"/>
</g>
<!-- Pod::FormattingCode -->
<g id="node13" class="node">
<title>Pod::FormattingCode</title>
<g id="a_node13"><a xlink:href="/type/Pod::FormattingCode" xlink:title="Pod::FormattingCode">
<ellipse fill="none" stroke="#000000" cx="1617.69" cy="-18" rx="94.48" ry="18"/>
<text text-anchor="middle" x="1617.69" y="-14.3" font-family="FreeSans" font-size="14.00" fill="#000000">Pod::FormattingCode</text>
</a>
</g>
</g>
<!-- Pod::FormattingCode&#45;&gt;Pod::Block -->
<g id="edge12" class="edge">
<title>Pod::FormattingCode&#45;&gt;Pod::Block</title>
<path fill="none" stroke="#000000" d="M1548.99,-30.34C1530.1,-33.46 1514.69,-36 1514.69,-36 1514.69,-36 1014.18,-71.85 836.42,-84.58"/>
<polygon fill="#000000" stroke="#000000" points="836.16,-81.09 826.43,-85.29 836.66,-88.07 836.16,-81.09"/>
</g>
</g>
</svg>
