<?xml version="1.0" encoding="UTF-8" standalone="no"?>
<!DOCTYPE svg PUBLIC "-//W3C//DTD SVG 1.1//EN"
 "http://www.w3.org/Graphics/SVG/1.1/DTD/svg11.dtd">
<!-- Generated by graphviz version 2.43.0 (0)
 -->
<!-- Title: perl6&#45;type&#45;graph Pages: 1 -->
<svg width="135pt" height="260pt"
 viewBox="0.00 0.00 135.39 260.00" xmlns="http://www.w3.org/2000/svg" xmlns:xlink="http://www.w3.org/1999/xlink">
<g id="graph0" class="graph" transform="scale(1 1) rotate(0) translate(4 256)">
<title>perl6&#45;type&#45;graph</title>
<polygon fill="white" stroke="transparent" points="-4,4 -4,-256 131.39,-256 131.39,4 -4,4"/>
<!-- Pod::Heading -->
<g id="node1" class="node">
<title>Pod::Heading</title>
<g id="a_node1"><a xlink:href="/type/Pod::Heading" xlink:title="Pod::Heading">
<ellipse fill="none" stroke="#000000" cx="63.69" cy="-18" rx="63.89" ry="18"/>
<text text-anchor="middle" x="63.69" y="-14.3" font-family="FreeSans" font-size="14.00" fill="#000000">Pod::Heading</text>
</a>
</g>
</g>
<!-- Pod::Block -->
<g id="node4" class="node">
<title>Pod::Block</title>
<g id="a_node4"><a xlink:href="/type/Pod::Block" xlink:title="Pod::Block">
<ellipse fill="none" stroke="#000000" cx="63.69" cy="-90" rx="53.09" ry="18"/>
<text text-anchor="middle" x="63.69" y="-86.3" font-family="FreeSans" font-size="14.00" fill="#000000">Pod::Block</text>
</a>
</g>
</g>
<!-- Pod::Heading&#45;&gt;Pod::Block -->
<g id="edge1" class="edge">
<title>Pod::Heading&#45;&gt;Pod::Block</title>
<path fill="none" stroke="#000000" d="M63.69,-36.3C63.69,-44.02 63.69,-53.29 63.69,-61.89"/>
<polygon fill="#000000" stroke="#000000" points="60.19,-61.9 63.69,-71.9 67.19,-61.9 60.19,-61.9"/>
</g>
<!-- Mu -->
<g id="node2" class="node">
<title>Mu</title>
<g id="a_node2"><a xlink:href="/type/Mu" xlink:title="Mu">
<ellipse fill="none" stroke="#000000" cx="63.69" cy="-234" rx="27" ry="18"/>
<text text-anchor="middle" x="63.69" y="-230.3" font-family="FreeSans" font-size="14.00" fill="#000000">Mu</text>
</a>
</g>
</g>
<!-- Any -->
<g id="node3" class="node">
<title>Any</title>
<g id="a_node3"><a xlink:href="/type/Any" xlink:title="Any">
<ellipse fill="none" stroke="#000000" cx="63.69" cy="-162" rx="27" ry="18"/>
<text text-anchor="middle" x="63.69" y="-158.3" font-family="FreeSans" font-size="14.00" fill="#000000">Any</text>
</a>
</g>
</g>
<!-- Any&#45;&gt;Mu -->
<g id="edge2" class="edge">
<title>Any&#45;&gt;Mu</title>
<path fill="none" stroke="#000000" d="M63.69,-180.3C63.69,-188.02 63.69,-197.29 63.69,-205.89"/>
<polygon fill="#000000" stroke="#000000" points="60.19,-205.9 63.69,-215.9 67.19,-205.9 60.19,-205.9"/>
</g>
<!-- Pod::Block&#45;&gt;Any -->
<g id="edge3" class="edge">
<title>Pod::Block&#45;&gt;Any</title>
<path fill="none" stroke="#000000" d="M63.69,-108.3C63.69,-116.02 63.69,-125.29 63.69,-133.89"/>
<polygon fill="#000000" stroke="#000000" points="60.19,-133.9 63.69,-143.9 67.19,-133.9 60.19,-133.9"/>
</g>
</g>
</svg>
