<?xml version="1.0" encoding="UTF-8" standalone="no"?>
<!DOCTYPE svg PUBLIC "-//W3C//DTD SVG 1.1//EN"
 "http://www.w3.org/Graphics/SVG/1.1/DTD/svg11.dtd">
<!-- Generated by graphviz version 2.43.0 (0)
 -->
<!-- Title: perl6&#45;type&#45;graph Pages: 1 -->
<svg width="860pt" height="332pt"
 viewBox="0.00 0.00 860.25 332.00" xmlns="http://www.w3.org/2000/svg" xmlns:xlink="http://www.w3.org/1999/xlink">
<g id="graph0" class="graph" transform="scale(1 1) rotate(0) translate(4 328)">
<title>perl6&#45;type&#45;graph</title>
<polygon fill="white" stroke="transparent" points="-4,4 -4,-328 856.25,-328 856.25,4 -4,4"/>
<!-- Positional -->
<g id="node1" class="node">
<title>Positional</title>
<g id="a_node1"><a xlink:href="/type/Positional" xlink:title="Positional">
<ellipse fill="none" stroke="#6666ff" cx="360" cy="-162" rx="48.99" ry="18"/>
<text text-anchor="middle" x="360" y="-158.3" font-family="FreeSans" font-size="14.00" fill="#6666ff">Positional</text>
</a>
</g>
</g>
<!-- Mu -->
<g id="node2" class="node">
<title>Mu</title>
<g id="a_node2"><a xlink:href="/type/Mu" xlink:title="Mu">
<ellipse fill="none" stroke="#000000" cx="351" cy="-306" rx="27" ry="18"/>
<text text-anchor="middle" x="351" y="-302.3" font-family="FreeSans" font-size="14.00" fill="#000000">Mu</text>
</a>
</g>
</g>
<!-- Any -->
<g id="node3" class="node">
<title>Any</title>
<g id="a_node3"><a xlink:href="/type/Any" xlink:title="Any">
<ellipse fill="none" stroke="#000000" cx="351" cy="-234" rx="27" ry="18"/>
<text text-anchor="middle" x="351" y="-230.3" font-family="FreeSans" font-size="14.00" fill="#000000">Any</text>
</a>
</g>
</g>
<!-- Any&#45;&gt;Mu -->
<g id="edge1" class="edge">
<title>Any&#45;&gt;Mu</title>
<path fill="none" stroke="#000000" d="M351,-252.3C351,-260.02 351,-269.29 351,-277.89"/>
<polygon fill="#000000" stroke="#000000" points="347.5,-277.9 351,-287.9 354.5,-277.9 347.5,-277.9"/>
</g>
<!-- Cool -->
<g id="node4" class="node">
<title>Cool</title>
<g id="a_node4"><a xlink:href="/type/Cool" xlink:title="Cool">
<ellipse fill="none" stroke="#000000" cx="265" cy="-162" rx="28.7" ry="18"/>
<text text-anchor="middle" x="265" y="-158.3" font-family="FreeSans" font-size="14.00" fill="#000000">Cool</text>
</a>
</g>
</g>
<!-- Cool&#45;&gt;Any -->
<g id="edge2" class="edge">
<title>Cool&#45;&gt;Any</title>
<path fill="none" stroke="#000000" d="M281.99,-176.83C294.76,-187.22 312.42,-201.6 326.69,-213.21"/>
<polygon fill="#000000" stroke="#000000" points="324.66,-216.08 334.63,-219.67 329.08,-210.65 324.66,-216.08"/>
</g>
<!-- Iterable -->
<g id="node5" class="node">
<title>Iterable</title>
<g id="a_node5"><a xlink:href="/type/Iterable" xlink:title="Iterable">
<ellipse fill="none" stroke="#6666ff" cx="178" cy="-162" rx="40.09" ry="18"/>
<text text-anchor="middle" x="178" y="-158.3" font-family="FreeSans" font-size="14.00" fill="#6666ff">Iterable</text>
</a>
</g>
</g>
<!-- List -->
<g id="node6" class="node">
<title>List</title>
<g id="a_node6"><a xlink:href="/type/List" xlink:title="List">
<ellipse fill="none" stroke="#000000" cx="224" cy="-90" rx="27" ry="18"/>
<text text-anchor="middle" x="224" y="-86.3" font-family="FreeSans" font-size="14.00" fill="#000000">List</text>
</a>
</g>
</g>
<!-- List&#45;&gt;Positional -->
<g id="edge14" class="edge">
<title>List&#45;&gt;Positional</title>
<path fill="none" stroke="#6666ff" d="M244.66,-101.63C265.57,-112.4 298.34,-129.26 323.62,-142.27"/>
<polygon fill="#6666ff" stroke="#6666ff" points="322.06,-145.41 332.56,-146.87 325.27,-139.19 322.06,-145.41"/>
</g>
<!-- List&#45;&gt;Cool -->
<g id="edge3" class="edge">
<title>List&#45;&gt;Cool</title>
<path fill="none" stroke="#000000" d="M233.51,-107.24C238.53,-115.81 244.8,-126.51 250.42,-136.1"/>
<polygon fill="#000000" stroke="#000000" points="247.47,-137.99 255.54,-144.85 253.51,-134.45 247.47,-137.99"/>
</g>
<!-- List&#45;&gt;Iterable -->
<g id="edge15" class="edge">
<title>List&#45;&gt;Iterable</title>
<path fill="none" stroke="#6666ff" d="M213.56,-106.88C207.96,-115.41 200.93,-126.11 194.59,-135.75"/>
<polygon fill="#6666ff" stroke="#6666ff" points="191.61,-133.92 189.04,-144.2 197.46,-137.77 191.61,-133.92"/>
</g>
<!-- Associative -->
<g id="node7" class="node">
<title>Associative</title>
<g id="a_node7"><a xlink:href="/type/Associative" xlink:title="Associative">
<ellipse fill="none" stroke="#6666ff" cx="64" cy="-162" rx="55.49" ry="18"/>
<text text-anchor="middle" x="64" y="-158.3" font-family="FreeSans" font-size="14.00" fill="#6666ff">Associative</text>
</a>
</g>
</g>
<!-- IO::Path::Parts -->
<g id="node8" class="node">
<title>IO::Path::Parts</title>
<g id="a_node8"><a xlink:href="/type/IO::Path::Parts" xlink:title="IO::Path::Parts">
<ellipse fill="none" stroke="#000000" cx="107" cy="-90" rx="68.79" ry="18"/>
<text text-anchor="middle" x="107" y="-86.3" font-family="FreeSans" font-size="14.00" fill="#000000">IO::Path::Parts</text>
</a>
</g>
</g>
<!-- IO::Path::Parts&#45;&gt;Positional -->
<g id="edge16" class="edge">
<title>IO::Path::Parts&#45;&gt;Positional</title>
<path fill="none" stroke="#6666ff" d="M152.95,-103.43C210.88,-119.09 303,-144 303,-144 303,-144 307.36,-145.3 313.67,-147.18"/>
<polygon fill="#6666ff" stroke="#6666ff" points="312.67,-150.54 323.26,-150.04 314.67,-143.83 312.67,-150.54"/>
</g>
<!-- IO::Path::Parts&#45;&gt;Any -->
<g id="edge4" class="edge">
<title>IO::Path::Parts&#45;&gt;Any</title>
<path fill="none" stroke="#000000" d="M76.34,-106.19C44.72,-121.85 0,-144 0,-144 0,-144 0,-180 0,-180 0,-180 225.36,-214.03 314.93,-227.55"/>
<polygon fill="#000000" stroke="#000000" points="314.49,-231.03 324.9,-229.06 315.54,-224.11 314.49,-231.03"/>
</g>
<!-- IO::Path::Parts&#45;&gt;Iterable -->
<g id="edge18" class="edge">
<title>IO::Path::Parts&#45;&gt;Iterable</title>
<path fill="none" stroke="#6666ff" d="M123.83,-107.59C132.98,-116.61 144.44,-127.91 154.46,-137.79"/>
<polygon fill="#6666ff" stroke="#6666ff" points="152.21,-140.48 161.78,-145.01 157.12,-135.5 152.21,-140.48"/>
</g>
<!-- IO::Path::Parts&#45;&gt;Associative -->
<g id="edge17" class="edge">
<title>IO::Path::Parts&#45;&gt;Associative</title>
<path fill="none" stroke="#6666ff" d="M96.59,-107.95C91.52,-116.2 85.32,-126.3 79.69,-135.46"/>
<polygon fill="#6666ff" stroke="#6666ff" points="76.57,-133.86 74.31,-144.21 82.53,-137.52 76.57,-133.86"/>
</g>
<!-- Range -->
<g id="node9" class="node">
<title>Range</title>
<g id="a_node9"><a xlink:href="/type/Range" xlink:title="Range">
<ellipse fill="none" stroke="#000000" cx="305" cy="-90" rx="36.29" ry="18"/>
<text text-anchor="middle" x="305" y="-86.3" font-family="FreeSans" font-size="14.00" fill="#000000">Range</text>
</a>
</g>
</g>
<!-- Range&#45;&gt;Positional -->
<g id="edge19" class="edge">
<title>Range&#45;&gt;Positional</title>
<path fill="none" stroke="#6666ff" d="M317.76,-107.24C324.53,-115.86 333,-126.64 340.57,-136.27"/>
<polygon fill="#6666ff" stroke="#6666ff" points="338,-138.67 346.93,-144.37 343.5,-134.34 338,-138.67"/>
</g>
<!-- Range&#45;&gt;Cool -->
<g id="edge5" class="edge">
<title>Range&#45;&gt;Cool</title>
<path fill="none" stroke="#000000" d="M295.52,-107.59C290.74,-115.96 284.83,-126.29 279.5,-135.63"/>
<polygon fill="#000000" stroke="#000000" points="276.33,-134.11 274.41,-144.53 282.41,-137.58 276.33,-134.11"/>
</g>
<!-- Range&#45;&gt;Iterable -->
<g id="edge20" class="edge">
<title>Range&#45;&gt;Iterable</title>
<path fill="none" stroke="#6666ff" d="M281.71,-103.84C262.03,-114.68 233.61,-130.35 211.49,-142.54"/>
<polygon fill="#6666ff" stroke="#6666ff" points="209.51,-139.63 202.44,-147.53 212.89,-145.76 209.51,-139.63"/>
</g>
<!-- Stringy -->
<g id="node10" class="node">
<title>Stringy</title>
<g id="a_node10"><a xlink:href="/type/Stringy" xlink:title="Stringy">
<ellipse fill="none" stroke="#6666ff" cx="503" cy="-162" rx="38.19" ry="18"/>
<text text-anchor="middle" x="503" y="-158.3" font-family="FreeSans" font-size="14.00" fill="#6666ff">Stringy</text>
</a>
</g>
</g>
<!-- Blob -->
<g id="node11" class="node">
<title>Blob</title>
<g id="a_node11"><a xlink:href="/type/Blob" xlink:title="Blob">
<ellipse fill="none" stroke="#6666ff" cx="494" cy="-90" rx="28.7" ry="18"/>
<text text-anchor="middle" x="494" y="-86.3" font-family="FreeSans" font-size="14.00" fill="#6666ff">Blob</text>
</a>
</g>
</g>
<!-- Blob&#45;&gt;Positional -->
<g id="edge21" class="edge">
<title>Blob&#45;&gt;Positional</title>
<path fill="none" stroke="#6666ff" d="M472.77,-102.09C452.22,-112.83 420.67,-129.31 396.16,-142.11"/>
<polygon fill="#6666ff" stroke="#6666ff" points="394.4,-139.08 387.15,-146.82 397.64,-145.29 394.4,-139.08"/>
</g>
<!-- Blob&#45;&gt;Stringy -->
<g id="edge22" class="edge">
<title>Blob&#45;&gt;Stringy</title>
<path fill="none" stroke="#6666ff" d="M496.22,-108.3C497.22,-116.02 498.41,-125.29 499.51,-133.89"/>
<polygon fill="#6666ff" stroke="#6666ff" points="496.05,-134.42 500.8,-143.9 503,-133.53 496.05,-134.42"/>
</g>
<!-- Uni -->
<g id="node12" class="node">
<title>Uni</title>
<g id="a_node12"><a xlink:href="/type/Uni" xlink:title="Uni">
<ellipse fill="none" stroke="#000000" cx="569" cy="-90" rx="27" ry="18"/>
<text text-anchor="middle" x="569" y="-86.3" font-family="FreeSans" font-size="14.00" fill="#000000">Uni</text>
</a>
</g>
</g>
<!-- Uni&#45;&gt;Positional -->
<g id="edge23" class="edge">
<title>Uni&#45;&gt;Positional</title>
<path fill="none" stroke="#6666ff" d="M547.48,-100.89C539.34,-104.63 532,-108 532,-108 532,-108 457.26,-131.03 406.32,-146.73"/>
<polygon fill="#6666ff" stroke="#6666ff" points="405,-143.47 396.48,-149.76 407.06,-150.16 405,-143.47"/>
</g>
<!-- Uni&#45;&gt;Any -->
<g id="edge6" class="edge">
<title>Uni&#45;&gt;Any</title>
<path fill="none" stroke="#000000" d="M565.34,-108.16C559.82,-134.02 550,-180 550,-180 550,-180 442.45,-208.64 385.48,-223.82"/>
<polygon fill="#000000" stroke="#000000" points="384.56,-220.44 375.8,-226.39 386.37,-227.2 384.56,-220.44"/>
</g>
<!-- Uni&#45;&gt;Stringy -->
<g id="edge24" class="edge">
<title>Uni&#45;&gt;Stringy</title>
<path fill="none" stroke="#6666ff" d="M555,-105.85C546.23,-115.15 534.75,-127.33 524.8,-137.88"/>
<polygon fill="#6666ff" stroke="#6666ff" points="522.21,-135.53 517.89,-145.2 527.3,-140.33 522.21,-135.53"/>
</g>
<!-- Array -->
<g id="node13" class="node">
<title>Array</title>
<g id="a_node13"><a xlink:href="/type/Array" xlink:title="Array">
<ellipse fill="none" stroke="#000000" cx="262" cy="-18" rx="31.7" ry="18"/>
<text text-anchor="middle" x="262" y="-14.3" font-family="FreeSans" font-size="14.00" fill="#000000">Array</text>
</a>
</g>
</g>
<!-- Array&#45;&gt;List -->
<g id="edge7" class="edge">
<title>Array&#45;&gt;List</title>
<path fill="none" stroke="#000000" d="M252.99,-35.59C248.45,-43.96 242.84,-54.29 237.77,-63.63"/>
<polygon fill="#000000" stroke="#000000" points="234.64,-62.07 232.94,-72.53 240.79,-65.41 234.64,-62.07"/>
</g>
<!-- Slip -->
<g id="node14" class="node">
<title>Slip</title>
<g id="a_node14"><a xlink:href="/type/Slip" xlink:title="Slip">
<ellipse fill="none" stroke="#000000" cx="185" cy="-18" rx="27" ry="18"/>
<text text-anchor="middle" x="185" y="-14.3" font-family="FreeSans" font-size="14.00" fill="#000000">Slip</text>
</a>
</g>
</g>
<!-- Slip&#45;&gt;List -->
<g id="edge8" class="edge">
<title>Slip&#45;&gt;List</title>
<path fill="none" stroke="#000000" d="M194.05,-35.24C198.82,-43.81 204.78,-54.51 210.13,-64.1"/>
<polygon fill="#000000" stroke="#000000" points="207.08,-65.82 215,-72.85 213.19,-62.41 207.08,-65.82"/>
</g>
<!-- NFD -->
<g id="node15" class="node">
<title>NFD</title>
<g id="a_node15"><a xlink:href="/type/NFD" xlink:title="NFD">
<ellipse fill="none" stroke="#000000" cx="568" cy="-18" rx="29.5" ry="18"/>
<text text-anchor="middle" x="568" y="-14.3" font-family="FreeSans" font-size="14.00" fill="#000000">NFD</text>
</a>
</g>
</g>
<!-- NFD&#45;&gt;Uni -->
<g id="edge9" class="edge">
<title>NFD&#45;&gt;Uni</title>
<path fill="none" stroke="#000000" d="M568.25,-36.3C568.36,-44.02 568.49,-53.29 568.61,-61.89"/>
<polygon fill="#000000" stroke="#000000" points="565.11,-61.95 568.76,-71.9 572.11,-61.85 565.11,-61.95"/>
</g>
<!-- NFKC -->
<g id="node16" class="node">
<title>NFKC</title>
<g id="a_node16"><a xlink:href="/type/NFKC" xlink:title="NFKC">
<ellipse fill="none" stroke="#000000" cx="651" cy="-18" rx="36" ry="18"/>
<text text-anchor="middle" x="651" y="-14.3" font-family="FreeSans" font-size="14.00" fill="#000000">NFKC</text>
</a>
</g>
</g>
<!-- NFKC&#45;&gt;Uni -->
<g id="edge10" class="edge">
<title>NFKC&#45;&gt;Uni</title>
<path fill="none" stroke="#000000" d="M633.61,-33.85C621.7,-44.02 605.75,-57.63 592.68,-68.79"/>
<polygon fill="#000000" stroke="#000000" points="590.31,-66.21 584.97,-75.36 594.85,-71.53 590.31,-66.21"/>
</g>
<!-- NFKD -->
<g id="node17" class="node">
<title>NFKD</title>
<g id="a_node17"><a xlink:href="/type/NFKD" xlink:title="NFKD">
<ellipse fill="none" stroke="#000000" cx="740" cy="-18" rx="36" ry="18"/>
<text text-anchor="middle" x="740" y="-14.3" font-family="FreeSans" font-size="14.00" fill="#000000">NFKD</text>
</a>
</g>
</g>
<!-- NFKD&#45;&gt;Uni -->
<g id="edge11" class="edge">
<title>NFKD&#45;&gt;Uni</title>
<path fill="none" stroke="#000000" d="M712.9,-30.09C682.44,-42.56 633.01,-62.8 600.76,-76"/>
<polygon fill="#000000" stroke="#000000" points="599.27,-72.83 591.34,-79.86 601.92,-79.31 599.27,-72.83"/>
</g>
<!-- NFC -->
<g id="node18" class="node">
<title>NFC</title>
<g id="a_node18"><a xlink:href="/type/NFC" xlink:title="NFC">
<ellipse fill="none" stroke="#000000" cx="823" cy="-18" rx="29.5" ry="18"/>
<text text-anchor="middle" x="823" y="-14.3" font-family="FreeSans" font-size="14.00" fill="#000000">NFC</text>
</a>
</g>
</g>
<!-- NFC&#45;&gt;Uni -->
<g id="edge12" class="edge">
<title>NFC&#45;&gt;Uni</title>
<path fill="none" stroke="#000000" d="M800.02,-29.28C792.02,-32.86 785,-36 785,-36 785,-36 665.42,-65.34 604.2,-80.36"/>
<polygon fill="#000000" stroke="#000000" points="603.08,-77.03 594.2,-82.82 604.75,-83.83 603.08,-77.03"/>
</g>
<!-- utf8 -->
<g id="node19" class="node">
<title>utf8</title>
<g id="a_node19"><a xlink:href="/type/utf8" xlink:title="utf8">
<ellipse fill="none" stroke="#000000" cx="422" cy="-18" rx="27" ry="18"/>
<text text-anchor="middle" x="422" y="-14.3" font-family="FreeSans" font-size="14.00" fill="#000000">utf8</text>
</a>
</g>
</g>
<!-- utf8&#45;&gt;Any -->
<g id="edge13" class="edge">
<title>utf8&#45;&gt;Any</title>
<path fill="none" stroke="#000000" d="M421.57,-36.23C420.54,-77.76 418,-180 418,-180 418,-180 394.84,-198.32 375.76,-213.42"/>
<polygon fill="#000000" stroke="#000000" points="373.58,-210.68 367.91,-219.63 377.92,-216.17 373.58,-210.68"/>
</g>
<!-- utf8&#45;&gt;Blob -->
<g id="edge25" class="edge">
<title>utf8&#45;&gt;Blob</title>
<path fill="none" stroke="#6666ff" d="M436.57,-33.17C446.59,-42.9 460.08,-56.02 471.47,-67.1"/>
<polygon fill="#6666ff" stroke="#6666ff" points="469.35,-69.91 478.96,-74.37 474.23,-64.89 469.35,-69.91"/>
</g>
<!-- Buf -->
<g id="node20" class="node">
<title>Buf</title>
<g id="a_node20"><a xlink:href="/type/Buf" xlink:title="Buf">
<ellipse fill="none" stroke="#6666ff" cx="494" cy="-18" rx="27" ry="18"/>
<text text-anchor="middle" x="494" y="-14.3" font-family="FreeSans" font-size="14.00" fill="#6666ff">Buf</text>
</a>
</g>
</g>
<!-- Buf&#45;&gt;Blob -->
<g id="edge26" class="edge">
<title>Buf&#45;&gt;Blob</title>
<path fill="none" stroke="#6666ff" d="M494,-36.3C494,-44.02 494,-53.29 494,-61.89"/>
<polygon fill="#6666ff" stroke="#6666ff" points="490.5,-61.9 494,-71.9 497.5,-61.9 490.5,-61.9"/>
</g>
</g>
</svg>
