<?xml version="1.0" encoding="UTF-8" standalone="no"?>
<!DOCTYPE svg PUBLIC "-//W3C//DTD SVG 1.1//EN"
 "http://www.w3.org/Graphics/SVG/1.1/DTD/svg11.dtd">
<!-- Generated by graphviz version 2.43.0 (0)
 -->
<!-- Title: perl6&#45;type&#45;graph Pages: 1 -->
<svg width="74pt" height="188pt"
 viewBox="0.00 0.00 74.29 188.00" xmlns="http://www.w3.org/2000/svg" xmlns:xlink="http://www.w3.org/1999/xlink">
<g id="graph0" class="graph" transform="scale(1 1) rotate(0) translate(4 184)">
<title>perl6&#45;type&#45;graph</title>
<polygon fill="white" stroke="transparent" points="-4,4 -4,-184 70.29,-184 70.29,4 -4,4"/>
<!-- Proxy -->
<g id="node1" class="node">
<title>Proxy</title>
<g id="a_node1"><a xlink:href="/type/Proxy" xlink:title="Proxy">
<ellipse fill="none" stroke="#000000" cx="33.15" cy="-18" rx="33.29" ry="18"/>
<text text-anchor="middle" x="33.15" y="-14.3" font-family="FreeSans" font-size="14.00" fill="#000000">Proxy</text>
</a>
</g>
</g>
<!-- Any -->
<g id="node3" class="node">
<title>Any</title>
<g id="a_node3"><a xlink:href="/type/Any" xlink:title="Any">
<ellipse fill="none" stroke="#000000" cx="33.15" cy="-90" rx="27" ry="18"/>
<text text-anchor="middle" x="33.15" y="-86.3" font-family="FreeSans" font-size="14.00" fill="#000000">Any</text>
</a>
</g>
</g>
<!-- Proxy&#45;&gt;Any -->
<g id="edge1" class="edge">
<title>Proxy&#45;&gt;Any</title>
<path fill="none" stroke="#000000" d="M33.15,-36.3C33.15,-44.02 33.15,-53.29 33.15,-61.89"/>
<polygon fill="#000000" stroke="#000000" points="29.65,-61.9 33.15,-71.9 36.65,-61.9 29.65,-61.9"/>
</g>
<!-- Mu -->
<g id="node2" class="node">
<title>Mu</title>
<g id="a_node2"><a xlink:href="/type/Mu" xlink:title="Mu">
<ellipse fill="none" stroke="#000000" cx="33.15" cy="-162" rx="27" ry="18"/>
<text text-anchor="middle" x="33.15" y="-158.3" font-family="FreeSans" font-size="14.00" fill="#000000">Mu</text>
</a>
</g>
</g>
<!-- Any&#45;&gt;Mu -->
<g id="edge2" class="edge">
<title>Any&#45;&gt;Mu</title>
<path fill="none" stroke="#000000" d="M33.15,-108.3C33.15,-116.02 33.15,-125.29 33.15,-133.89"/>
<polygon fill="#000000" stroke="#000000" points="29.65,-133.9 33.15,-143.9 36.65,-133.9 29.65,-133.9"/>
</g>
</g>
</svg>
