<?xml version="1.0" encoding="UTF-8" standalone="no"?>
<!DOCTYPE svg PUBLIC "-//W3C//DTD SVG 1.1//EN"
 "http://www.w3.org/Graphics/SVG/1.1/DTD/svg11.dtd">
<!-- Generated by graphviz version 2.43.0 (0)
 -->
<!-- Title: perl6&#45;type&#45;graph Pages: 1 -->
<svg width="325pt" height="188pt"
 viewBox="0.00 0.00 325.49 188.00" xmlns="http://www.w3.org/2000/svg" xmlns:xlink="http://www.w3.org/1999/xlink">
<g id="graph0" class="graph" transform="scale(1 1) rotate(0) translate(4 184)">
<title>perl6&#45;type&#45;graph</title>
<polygon fill="white" stroke="transparent" points="-4,4 -4,-184 321.49,-184 321.49,4 -4,4"/>
<!-- RaceSeq -->
<g id="node1" class="node">
<title>RaceSeq</title>
<g id="a_node1"><a xlink:href="/type/RaceSeq" xlink:title="RaceSeq">
<ellipse fill="none" stroke="#000000" cx="112" cy="-18" rx="46.59" ry="18"/>
<text text-anchor="middle" x="112" y="-14.3" font-family="FreeSans" font-size="14.00" fill="#000000">RaceSeq</text>
</a>
</g>
</g>
<!-- Any -->
<g id="node3" class="node">
<title>Any</title>
<g id="a_node3"><a xlink:href="/type/Any" xlink:title="Any">
<ellipse fill="none" stroke="#000000" cx="27" cy="-90" rx="27" ry="18"/>
<text text-anchor="middle" x="27" y="-86.3" font-family="FreeSans" font-size="14.00" fill="#000000">Any</text>
</a>
</g>
</g>
<!-- RaceSeq&#45;&gt;Any -->
<g id="edge1" class="edge">
<title>RaceSeq&#45;&gt;Any</title>
<path fill="none" stroke="#000000" d="M93.14,-34.54C80.82,-44.68 64.63,-58.01 51.35,-68.95"/>
<polygon fill="#000000" stroke="#000000" points="49.01,-66.34 43.51,-75.4 53.46,-71.74 49.01,-66.34"/>
</g>
<!-- Iterable -->
<g id="node4" class="node">
<title>Iterable</title>
<g id="a_node4"><a xlink:href="/type/Iterable" xlink:title="Iterable">
<ellipse fill="none" stroke="#6666ff" cx="112" cy="-90" rx="40.09" ry="18"/>
<text text-anchor="middle" x="112" y="-86.3" font-family="FreeSans" font-size="14.00" fill="#6666ff">Iterable</text>
</a>
</g>
</g>
<!-- RaceSeq&#45;&gt;Iterable -->
<g id="edge3" class="edge">
<title>RaceSeq&#45;&gt;Iterable</title>
<path fill="none" stroke="#6666ff" d="M112,-36.3C112,-44.02 112,-53.29 112,-61.89"/>
<polygon fill="#6666ff" stroke="#6666ff" points="108.5,-61.9 112,-71.9 115.5,-61.9 108.5,-61.9"/>
</g>
<!-- Sequence -->
<g id="node6" class="node">
<title>Sequence</title>
<g id="a_node6"><a xlink:href="/type/Sequence" xlink:title="Sequence">
<ellipse fill="none" stroke="#6666ff" cx="220" cy="-90" rx="50.09" ry="18"/>
<text text-anchor="middle" x="220" y="-86.3" font-family="FreeSans" font-size="14.00" fill="#6666ff">Sequence</text>
</a>
</g>
</g>
<!-- RaceSeq&#45;&gt;Sequence -->
<g id="edge4" class="edge">
<title>RaceSeq&#45;&gt;Sequence</title>
<path fill="none" stroke="#6666ff" d="M134.9,-33.85C150.41,-43.89 171.09,-57.3 188.19,-68.38"/>
<polygon fill="#6666ff" stroke="#6666ff" points="186.46,-71.43 196.76,-73.93 190.27,-65.56 186.46,-71.43"/>
</g>
<!-- Mu -->
<g id="node2" class="node">
<title>Mu</title>
<g id="a_node2"><a xlink:href="/type/Mu" xlink:title="Mu">
<ellipse fill="none" stroke="#000000" cx="27" cy="-162" rx="27" ry="18"/>
<text text-anchor="middle" x="27" y="-158.3" font-family="FreeSans" font-size="14.00" fill="#000000">Mu</text>
</a>
</g>
</g>
<!-- Any&#45;&gt;Mu -->
<g id="edge2" class="edge">
<title>Any&#45;&gt;Mu</title>
<path fill="none" stroke="#000000" d="M27,-108.3C27,-116.02 27,-125.29 27,-133.89"/>
<polygon fill="#000000" stroke="#000000" points="23.5,-133.9 27,-143.9 30.5,-133.9 23.5,-133.9"/>
</g>
<!-- PositionalBindFailover -->
<g id="node5" class="node">
<title>PositionalBindFailover</title>
<g id="a_node5"><a xlink:href="/type/PositionalBindFailover" xlink:title="PositionalBindFailover">
<ellipse fill="none" stroke="#6666ff" cx="220" cy="-162" rx="97.48" ry="18"/>
<text text-anchor="middle" x="220" y="-158.3" font-family="FreeSans" font-size="14.00" fill="#6666ff">PositionalBindFailover</text>
</a>
</g>
</g>
<!-- Sequence&#45;&gt;PositionalBindFailover -->
<g id="edge5" class="edge">
<title>Sequence&#45;&gt;PositionalBindFailover</title>
<path fill="none" stroke="#6666ff" d="M220,-108.3C220,-116.02 220,-125.29 220,-133.89"/>
<polygon fill="#6666ff" stroke="#6666ff" points="216.5,-133.9 220,-143.9 223.5,-133.9 216.5,-133.9"/>
</g>
</g>
</svg>
