<?xml version="1.0" encoding="UTF-8" standalone="no"?>
<!DOCTYPE svg PUBLIC "-//W3C//DTD SVG 1.1//EN"
 "http://www.w3.org/Graphics/SVG/1.1/DTD/svg11.dtd">
<!-- Generated by graphviz version 2.43.0 (0)
 -->
<!-- Title: perl6&#45;type&#45;graph Pages: 1 -->
<svg width="172pt" height="260pt"
 viewBox="0.00 0.00 172.15 260.00" xmlns="http://www.w3.org/2000/svg" xmlns:xlink="http://www.w3.org/1999/xlink">
<g id="graph0" class="graph" transform="scale(1 1) rotate(0) translate(4 256)">
<title>perl6&#45;type&#45;graph</title>
<polygon fill="white" stroke="transparent" points="-4,4 -4,-256 168.15,-256 168.15,4 -4,4"/>
<!-- Raku -->
<g id="node1" class="node">
<title>Raku</title>
<g id="a_node1"><a xlink:href="/type/Raku" xlink:title="Raku">
<ellipse fill="none" stroke="#000000" cx="72" cy="-90" rx="31.7" ry="18"/>
<text text-anchor="middle" x="72" y="-86.3" font-family="FreeSans" font-size="14.00" fill="#000000">Raku</text>
</a>
</g>
</g>
<!-- Any -->
<g id="node3" class="node">
<title>Any</title>
<g id="a_node3"><a xlink:href="/type/Any" xlink:title="Any">
<ellipse fill="none" stroke="#000000" cx="27" cy="-162" rx="27" ry="18"/>
<text text-anchor="middle" x="27" y="-158.3" font-family="FreeSans" font-size="14.00" fill="#000000">Any</text>
</a>
</g>
</g>
<!-- Raku&#45;&gt;Any -->
<g id="edge1" class="edge">
<title>Raku&#45;&gt;Any</title>
<path fill="none" stroke="#000000" d="M61.56,-107.24C56,-115.89 49.03,-126.73 42.82,-136.4"/>
<polygon fill="#000000" stroke="#000000" points="39.84,-134.55 37.38,-144.85 45.73,-138.33 39.84,-134.55"/>
</g>
<!-- Systemic -->
<g id="node4" class="node">
<title>Systemic</title>
<g id="a_node4"><a xlink:href="/type/Systemic" xlink:title="Systemic">
<ellipse fill="none" stroke="#6666ff" cx="118" cy="-162" rx="46.29" ry="18"/>
<text text-anchor="middle" x="118" y="-158.3" font-family="FreeSans" font-size="14.00" fill="#6666ff">Systemic</text>
</a>
</g>
</g>
<!-- Raku&#45;&gt;Systemic -->
<g id="edge4" class="edge">
<title>Raku&#45;&gt;Systemic</title>
<path fill="none" stroke="#6666ff" d="M82.67,-107.24C88.28,-115.77 95.27,-126.42 101.56,-135.98"/>
<polygon fill="#6666ff" stroke="#6666ff" points="98.65,-137.93 107.07,-144.37 104.5,-134.09 98.65,-137.93"/>
</g>
<!-- Mu -->
<g id="node2" class="node">
<title>Mu</title>
<g id="a_node2"><a xlink:href="/type/Mu" xlink:title="Mu">
<ellipse fill="none" stroke="#000000" cx="27" cy="-234" rx="27" ry="18"/>
<text text-anchor="middle" x="27" y="-230.3" font-family="FreeSans" font-size="14.00" fill="#000000">Mu</text>
</a>
</g>
</g>
<!-- Any&#45;&gt;Mu -->
<g id="edge2" class="edge">
<title>Any&#45;&gt;Mu</title>
<path fill="none" stroke="#000000" d="M27,-180.3C27,-188.02 27,-197.29 27,-205.89"/>
<polygon fill="#000000" stroke="#000000" points="23.5,-205.9 27,-215.9 30.5,-205.9 23.5,-205.9"/>
</g>
<!-- Perl -->
<g id="node5" class="node">
<title>Perl</title>
<g id="a_node5"><a xlink:href="/type/Perl" xlink:title="Perl">
<ellipse fill="none" stroke="#000000" cx="72" cy="-18" rx="27" ry="18"/>
<text text-anchor="middle" x="72" y="-14.3" font-family="FreeSans" font-size="14.00" fill="#000000">Perl</text>
</a>
</g>
</g>
<!-- Perl&#45;&gt;Raku -->
<g id="edge3" class="edge">
<title>Perl&#45;&gt;Raku</title>
<path fill="none" stroke="#000000" d="M72,-36.3C72,-44.02 72,-53.29 72,-61.89"/>
<polygon fill="#000000" stroke="#000000" points="68.5,-61.9 72,-71.9 75.5,-61.9 68.5,-61.9"/>
</g>
</g>
</svg>
