<?xml version="1.0" encoding="UTF-8" standalone="no"?>
<!DOCTYPE svg PUBLIC "-//W3C//DTD SVG 1.1//EN"
 "http://www.w3.org/Graphics/SVG/1.1/DTD/svg11.dtd">
<!-- Generated by graphviz version 2.43.0 (0)
 -->
<!-- Title: perl6&#45;type&#45;graph Pages: 1 -->
<svg width="261pt" height="404pt"
 viewBox="0.00 0.00 260.54 404.00" xmlns="http://www.w3.org/2000/svg" xmlns:xlink="http://www.w3.org/1999/xlink">
<g id="graph0" class="graph" transform="scale(1 1) rotate(0) translate(4 400)">
<title>perl6&#45;type&#45;graph</title>
<polygon fill="white" stroke="transparent" points="-4,4 -4,-400 256.54,-400 256.54,4 -4,4"/>
<!-- Rat -->
<g id="node1" class="node">
<title>Rat</title>
<g id="a_node1"><a xlink:href="/type/Rat" xlink:title="Rat">
<ellipse fill="none" stroke="#000000" cx="100.2" cy="-90" rx="27" ry="18"/>
<text text-anchor="middle" x="100.2" y="-86.3" font-family="FreeSans" font-size="14.00" fill="#000000">Rat</text>
</a>
</g>
</g>
<!-- Cool -->
<g id="node4" class="node">
<title>Cool</title>
<g id="a_node4"><a xlink:href="/type/Cool" xlink:title="Cool">
<ellipse fill="none" stroke="#000000" cx="129.2" cy="-234" rx="28.7" ry="18"/>
<text text-anchor="middle" x="129.2" y="-230.3" font-family="FreeSans" font-size="14.00" fill="#000000">Cool</text>
</a>
</g>
</g>
<!-- Rat&#45;&gt;Cool -->
<g id="edge1" class="edge">
<title>Rat&#45;&gt;Cool</title>
<path fill="none" stroke="#000000" d="M103.69,-108.13C108.66,-132.44 117.8,-177.18 123.68,-205.99"/>
<polygon fill="#000000" stroke="#000000" points="120.26,-206.71 125.69,-215.81 127.11,-205.31 120.26,-206.71"/>
</g>
<!-- Rational -->
<g id="node7" class="node">
<title>Rational</title>
<g id="a_node7"><a xlink:href="/type/Rational" xlink:title="Rational">
<ellipse fill="none" stroke="#6666ff" cx="53.2" cy="-162" rx="42.79" ry="18"/>
<text text-anchor="middle" x="53.2" y="-158.3" font-family="FreeSans" font-size="14.00" fill="#6666ff">Rational</text>
</a>
</g>
</g>
<!-- Rat&#45;&gt;Rational -->
<g id="edge8" class="edge">
<title>Rat&#45;&gt;Rational</title>
<path fill="none" stroke="#6666ff" d="M89.53,-106.88C83.81,-115.41 76.62,-126.11 70.15,-135.75"/>
<polygon fill="#6666ff" stroke="#6666ff" points="67.14,-133.95 64.47,-144.2 72.95,-137.85 67.14,-133.95"/>
</g>
<!-- Mu -->
<g id="node2" class="node">
<title>Mu</title>
<g id="a_node2"><a xlink:href="/type/Mu" xlink:title="Mu">
<ellipse fill="none" stroke="#000000" cx="133.2" cy="-378" rx="27" ry="18"/>
<text text-anchor="middle" x="133.2" y="-374.3" font-family="FreeSans" font-size="14.00" fill="#000000">Mu</text>
</a>
</g>
</g>
<!-- Any -->
<g id="node3" class="node">
<title>Any</title>
<g id="a_node3"><a xlink:href="/type/Any" xlink:title="Any">
<ellipse fill="none" stroke="#000000" cx="133.2" cy="-306" rx="27" ry="18"/>
<text text-anchor="middle" x="133.2" y="-302.3" font-family="FreeSans" font-size="14.00" fill="#000000">Any</text>
</a>
</g>
</g>
<!-- Any&#45;&gt;Mu -->
<g id="edge2" class="edge">
<title>Any&#45;&gt;Mu</title>
<path fill="none" stroke="#000000" d="M133.2,-324.3C133.2,-332.02 133.2,-341.29 133.2,-349.89"/>
<polygon fill="#000000" stroke="#000000" points="129.7,-349.9 133.2,-359.9 136.7,-349.9 129.7,-349.9"/>
</g>
<!-- Cool&#45;&gt;Any -->
<g id="edge3" class="edge">
<title>Cool&#45;&gt;Any</title>
<path fill="none" stroke="#000000" d="M130.18,-252.3C130.63,-260.02 131.16,-269.29 131.65,-277.89"/>
<polygon fill="#000000" stroke="#000000" points="128.15,-278.11 132.22,-287.9 135.14,-277.71 128.15,-278.11"/>
</g>
<!-- Numeric -->
<g id="node5" class="node">
<title>Numeric</title>
<g id="a_node5"><a xlink:href="/type/Numeric" xlink:title="Numeric">
<ellipse fill="none" stroke="#6666ff" cx="44.2" cy="-306" rx="44.39" ry="18"/>
<text text-anchor="middle" x="44.2" y="-302.3" font-family="FreeSans" font-size="14.00" fill="#6666ff">Numeric</text>
</a>
</g>
</g>
<!-- Real -->
<g id="node6" class="node">
<title>Real</title>
<g id="a_node6"><a xlink:href="/type/Real" xlink:title="Real">
<ellipse fill="none" stroke="#6666ff" cx="51.2" cy="-234" rx="28.7" ry="18"/>
<text text-anchor="middle" x="51.2" y="-230.3" font-family="FreeSans" font-size="14.00" fill="#6666ff">Real</text>
</a>
</g>
</g>
<!-- Real&#45;&gt;Numeric -->
<g id="edge9" class="edge">
<title>Real&#45;&gt;Numeric</title>
<path fill="none" stroke="#6666ff" d="M49.47,-252.3C48.69,-260.02 47.77,-269.29 46.91,-277.89"/>
<polygon fill="#6666ff" stroke="#6666ff" points="43.42,-277.6 45.91,-287.9 50.38,-278.29 43.42,-277.6"/>
</g>
<!-- Rational&#45;&gt;Real -->
<g id="edge10" class="edge">
<title>Rational&#45;&gt;Real</title>
<path fill="none" stroke="#6666ff" d="M52.7,-180.3C52.48,-188.02 52.22,-197.29 51.97,-205.89"/>
<polygon fill="#6666ff" stroke="#6666ff" points="48.47,-205.8 51.68,-215.9 55.47,-206 48.47,-205.8"/>
</g>
<!-- Stringy -->
<g id="node8" class="node">
<title>Stringy</title>
<g id="a_node8"><a xlink:href="/type/Stringy" xlink:title="Stringy">
<ellipse fill="none" stroke="#6666ff" cx="214.2" cy="-234" rx="38.19" ry="18"/>
<text text-anchor="middle" x="214.2" y="-230.3" font-family="FreeSans" font-size="14.00" fill="#6666ff">Stringy</text>
</a>
</g>
</g>
<!-- Str -->
<g id="node9" class="node">
<title>Str</title>
<g id="a_node9"><a xlink:href="/type/Str" xlink:title="Str">
<ellipse fill="none" stroke="#000000" cx="195.2" cy="-162" rx="27" ry="18"/>
<text text-anchor="middle" x="195.2" y="-158.3" font-family="FreeSans" font-size="14.00" fill="#000000">Str</text>
</a>
</g>
</g>
<!-- Str&#45;&gt;Cool -->
<g id="edge4" class="edge">
<title>Str&#45;&gt;Cool</title>
<path fill="none" stroke="#000000" d="M181.2,-177.85C172.19,-187.4 160.3,-200.01 150.17,-210.75"/>
<polygon fill="#000000" stroke="#000000" points="147.49,-208.5 143.17,-218.18 152.58,-213.3 147.49,-208.5"/>
</g>
<!-- Str&#45;&gt;Stringy -->
<g id="edge11" class="edge">
<title>Str&#45;&gt;Stringy</title>
<path fill="none" stroke="#6666ff" d="M199.8,-179.95C201.91,-187.74 204.47,-197.18 206.85,-205.92"/>
<polygon fill="#6666ff" stroke="#6666ff" points="203.51,-206.99 209.51,-215.72 210.27,-205.16 203.51,-206.99"/>
</g>
<!-- Allomorph -->
<g id="node10" class="node">
<title>Allomorph</title>
<g id="a_node10"><a xlink:href="/type/Allomorph" xlink:title="Allomorph">
<ellipse fill="none" stroke="#000000" cx="195.2" cy="-90" rx="50.09" ry="18"/>
<text text-anchor="middle" x="195.2" y="-86.3" font-family="FreeSans" font-size="14.00" fill="#000000">Allomorph</text>
</a>
</g>
</g>
<!-- Allomorph&#45;&gt;Str -->
<g id="edge5" class="edge">
<title>Allomorph&#45;&gt;Str</title>
<path fill="none" stroke="#000000" d="M195.2,-108.3C195.2,-116.02 195.2,-125.29 195.2,-133.89"/>
<polygon fill="#000000" stroke="#000000" points="191.7,-133.9 195.2,-143.9 198.7,-133.9 191.7,-133.9"/>
</g>
<!-- RatStr -->
<g id="node11" class="node">
<title>RatStr</title>
<g id="a_node11"><a xlink:href="/type/RatStr" xlink:title="RatStr">
<ellipse fill="none" stroke="#000000" cx="147.2" cy="-18" rx="36" ry="18"/>
<text text-anchor="middle" x="147.2" y="-14.3" font-family="FreeSans" font-size="14.00" fill="#000000">RatStr</text>
</a>
</g>
</g>
<!-- RatStr&#45;&gt;Rat -->
<g id="edge7" class="edge">
<title>RatStr&#45;&gt;Rat</title>
<path fill="none" stroke="#000000" d="M136.3,-35.24C130.4,-44.02 123,-55.04 116.44,-64.81"/>
<polygon fill="#000000" stroke="#000000" points="113.38,-63.08 110.71,-73.33 119.19,-66.98 113.38,-63.08"/>
</g>
<!-- RatStr&#45;&gt;Allomorph -->
<g id="edge6" class="edge">
<title>RatStr&#45;&gt;Allomorph</title>
<path fill="none" stroke="#000000" d="M158.33,-35.24C164.18,-43.77 171.48,-54.42 178.04,-63.98"/>
<polygon fill="#000000" stroke="#000000" points="175.25,-66.1 183.79,-72.37 181.02,-62.14 175.25,-66.1"/>
</g>
</g>
</svg>
