<?xml version="1.0" encoding="UTF-8" standalone="no"?>
<!DOCTYPE svg PUBLIC "-//W3C//DTD SVG 1.1//EN"
 "http://www.w3.org/Graphics/SVG/1.1/DTD/svg11.dtd">
<!-- Generated by graphviz version 2.43.0 (0)
 -->
<!-- Title: perl6&#45;type&#45;graph Pages: 1 -->
<svg width="261pt" height="404pt"
 viewBox="0.00 0.00 260.54 404.00" xmlns="http://www.w3.org/2000/svg" xmlns:xlink="http://www.w3.org/1999/xlink">
<g id="graph0" class="graph" transform="scale(1 1) rotate(0) translate(4 400)">
<title>perl6&#45;type&#45;graph</title>
<polygon fill="white" stroke="transparent" points="-4,4 -4,-400 256.54,-400 256.54,4 -4,4"/>
<!-- RatStr -->
<g id="node1" class="node">
<title>RatStr</title>
<g id="a_node1"><a xlink:href="/type/RatStr" xlink:title="RatStr">
<ellipse fill="none" stroke="#000000" cx="104.35" cy="-18" rx="36" ry="18"/>
<text text-anchor="middle" x="104.35" y="-14.3" font-family="FreeSans" font-size="14.00" fill="#000000">RatStr</text>
</a>
</g>
</g>
<!-- Allomorph -->
<g id="node7" class="node">
<title>Allomorph</title>
<g id="a_node7"><a xlink:href="/type/Allomorph" xlink:title="Allomorph">
<ellipse fill="none" stroke="#000000" cx="57.35" cy="-90" rx="50.09" ry="18"/>
<text text-anchor="middle" x="57.35" y="-86.3" font-family="FreeSans" font-size="14.00" fill="#000000">Allomorph</text>
</a>
</g>
</g>
<!-- RatStr&#45;&gt;Allomorph -->
<g id="edge1" class="edge">
<title>RatStr&#45;&gt;Allomorph</title>
<path fill="none" stroke="#000000" d="M93.45,-35.24C87.72,-43.77 80.57,-54.42 74.15,-63.98"/>
<polygon fill="#000000" stroke="#000000" points="71.18,-62.11 68.51,-72.37 76.99,-66.02 71.18,-62.11"/>
</g>
<!-- Rat -->
<g id="node11" class="node">
<title>Rat</title>
<g id="a_node11"><a xlink:href="/type/Rat" xlink:title="Rat">
<ellipse fill="none" stroke="#000000" cx="152.35" cy="-90" rx="27" ry="18"/>
<text text-anchor="middle" x="152.35" y="-86.3" font-family="FreeSans" font-size="14.00" fill="#000000">Rat</text>
</a>
</g>
</g>
<!-- RatStr&#45;&gt;Rat -->
<g id="edge2" class="edge">
<title>RatStr&#45;&gt;Rat</title>
<path fill="none" stroke="#000000" d="M115.48,-35.24C121.5,-44.02 129.06,-55.04 135.76,-64.81"/>
<polygon fill="#000000" stroke="#000000" points="133.06,-67.07 141.6,-73.33 138.84,-63.11 133.06,-67.07"/>
</g>
<!-- Mu -->
<g id="node2" class="node">
<title>Mu</title>
<g id="a_node2"><a xlink:href="/type/Mu" xlink:title="Mu">
<ellipse fill="none" stroke="#000000" cx="119.35" cy="-378" rx="27" ry="18"/>
<text text-anchor="middle" x="119.35" y="-374.3" font-family="FreeSans" font-size="14.00" fill="#000000">Mu</text>
</a>
</g>
</g>
<!-- Any -->
<g id="node3" class="node">
<title>Any</title>
<g id="a_node3"><a xlink:href="/type/Any" xlink:title="Any">
<ellipse fill="none" stroke="#000000" cx="119.35" cy="-306" rx="27" ry="18"/>
<text text-anchor="middle" x="119.35" y="-302.3" font-family="FreeSans" font-size="14.00" fill="#000000">Any</text>
</a>
</g>
</g>
<!-- Any&#45;&gt;Mu -->
<g id="edge3" class="edge">
<title>Any&#45;&gt;Mu</title>
<path fill="none" stroke="#000000" d="M119.35,-324.3C119.35,-332.02 119.35,-341.29 119.35,-349.89"/>
<polygon fill="#000000" stroke="#000000" points="115.85,-349.9 119.35,-359.9 122.85,-349.9 115.85,-349.9"/>
</g>
<!-- Cool -->
<g id="node4" class="node">
<title>Cool</title>
<g id="a_node4"><a xlink:href="/type/Cool" xlink:title="Cool">
<ellipse fill="none" stroke="#000000" cx="123.35" cy="-234" rx="28.7" ry="18"/>
<text text-anchor="middle" x="123.35" y="-230.3" font-family="FreeSans" font-size="14.00" fill="#000000">Cool</text>
</a>
</g>
</g>
<!-- Cool&#45;&gt;Any -->
<g id="edge4" class="edge">
<title>Cool&#45;&gt;Any</title>
<path fill="none" stroke="#000000" d="M122.36,-252.3C121.92,-260.02 121.39,-269.29 120.9,-277.89"/>
<polygon fill="#000000" stroke="#000000" points="117.4,-277.71 120.32,-287.9 124.39,-278.11 117.4,-277.71"/>
</g>
<!-- Stringy -->
<g id="node5" class="node">
<title>Stringy</title>
<g id="a_node5"><a xlink:href="/type/Stringy" xlink:title="Stringy">
<ellipse fill="none" stroke="#6666ff" cx="38.35" cy="-234" rx="38.19" ry="18"/>
<text text-anchor="middle" x="38.35" y="-230.3" font-family="FreeSans" font-size="14.00" fill="#6666ff">Stringy</text>
</a>
</g>
</g>
<!-- Str -->
<g id="node6" class="node">
<title>Str</title>
<g id="a_node6"><a xlink:href="/type/Str" xlink:title="Str">
<ellipse fill="none" stroke="#000000" cx="57.35" cy="-162" rx="27" ry="18"/>
<text text-anchor="middle" x="57.35" y="-158.3" font-family="FreeSans" font-size="14.00" fill="#000000">Str</text>
</a>
</g>
</g>
<!-- Str&#45;&gt;Cool -->
<g id="edge5" class="edge">
<title>Str&#45;&gt;Cool</title>
<path fill="none" stroke="#000000" d="M71.34,-177.85C80.36,-187.4 92.24,-200.01 102.37,-210.75"/>
<polygon fill="#000000" stroke="#000000" points="99.96,-213.3 109.37,-218.18 105.06,-208.5 99.96,-213.3"/>
</g>
<!-- Str&#45;&gt;Stringy -->
<g id="edge8" class="edge">
<title>Str&#45;&gt;Stringy</title>
<path fill="none" stroke="#6666ff" d="M52.75,-179.95C50.63,-187.74 48.07,-197.18 45.7,-205.92"/>
<polygon fill="#6666ff" stroke="#6666ff" points="42.28,-205.16 43.04,-215.72 49.03,-206.99 42.28,-205.16"/>
</g>
<!-- Allomorph&#45;&gt;Str -->
<g id="edge6" class="edge">
<title>Allomorph&#45;&gt;Str</title>
<path fill="none" stroke="#000000" d="M57.35,-108.3C57.35,-116.02 57.35,-125.29 57.35,-133.89"/>
<polygon fill="#000000" stroke="#000000" points="53.85,-133.9 57.35,-143.9 60.85,-133.9 53.85,-133.9"/>
</g>
<!-- Numeric -->
<g id="node8" class="node">
<title>Numeric</title>
<g id="a_node8"><a xlink:href="/type/Numeric" xlink:title="Numeric">
<ellipse fill="none" stroke="#6666ff" cx="208.35" cy="-306" rx="44.39" ry="18"/>
<text text-anchor="middle" x="208.35" y="-302.3" font-family="FreeSans" font-size="14.00" fill="#6666ff">Numeric</text>
</a>
</g>
</g>
<!-- Real -->
<g id="node9" class="node">
<title>Real</title>
<g id="a_node9"><a xlink:href="/type/Real" xlink:title="Real">
<ellipse fill="none" stroke="#6666ff" cx="205.35" cy="-234" rx="28.7" ry="18"/>
<text text-anchor="middle" x="205.35" y="-230.3" font-family="FreeSans" font-size="14.00" fill="#6666ff">Real</text>
</a>
</g>
</g>
<!-- Real&#45;&gt;Numeric -->
<g id="edge9" class="edge">
<title>Real&#45;&gt;Numeric</title>
<path fill="none" stroke="#6666ff" d="M206.09,-252.3C206.42,-260.02 206.82,-269.29 207.18,-277.89"/>
<polygon fill="#6666ff" stroke="#6666ff" points="203.69,-278.05 207.61,-287.9 210.68,-277.75 203.69,-278.05"/>
</g>
<!-- Rational -->
<g id="node10" class="node">
<title>Rational</title>
<g id="a_node10"><a xlink:href="/type/Rational" xlink:title="Rational">
<ellipse fill="none" stroke="#6666ff" cx="200.35" cy="-162" rx="42.79" ry="18"/>
<text text-anchor="middle" x="200.35" y="-158.3" font-family="FreeSans" font-size="14.00" fill="#6666ff">Rational</text>
</a>
</g>
</g>
<!-- Rational&#45;&gt;Real -->
<g id="edge10" class="edge">
<title>Rational&#45;&gt;Real</title>
<path fill="none" stroke="#6666ff" d="M201.58,-180.3C202.13,-188.02 202.8,-197.29 203.41,-205.89"/>
<polygon fill="#6666ff" stroke="#6666ff" points="199.92,-206.17 204.12,-215.9 206.9,-205.67 199.92,-206.17"/>
</g>
<!-- Rat&#45;&gt;Cool -->
<g id="edge7" class="edge">
<title>Rat&#45;&gt;Cool</title>
<path fill="none" stroke="#000000" d="M148.85,-108.13C143.88,-132.44 134.75,-177.18 128.86,-205.99"/>
<polygon fill="#000000" stroke="#000000" points="125.43,-205.31 126.86,-215.81 132.29,-206.71 125.43,-205.31"/>
</g>
<!-- Rat&#45;&gt;Rational -->
<g id="edge11" class="edge">
<title>Rat&#45;&gt;Rational</title>
<path fill="none" stroke="#6666ff" d="M163.24,-106.88C169.08,-115.41 176.42,-126.11 183.03,-135.75"/>
<polygon fill="#6666ff" stroke="#6666ff" points="180.29,-137.93 188.83,-144.2 186.06,-133.98 180.29,-137.93"/>
</g>
</g>
</svg>
