<?xml version="1.0" encoding="UTF-8" standalone="no"?>
<!DOCTYPE svg PUBLIC "-//W3C//DTD SVG 1.1//EN"
 "http://www.w3.org/Graphics/SVG/1.1/DTD/svg11.dtd">
<!-- Generated by graphviz version 2.43.0 (0)
 -->
<!-- Title: perl6&#45;type&#45;graph Pages: 1 -->
<svg width="1028pt" height="404pt"
 viewBox="0.00 0.00 1027.84 404.00" xmlns="http://www.w3.org/2000/svg" xmlns:xlink="http://www.w3.org/1999/xlink">
<g id="graph0" class="graph" transform="scale(1 1) rotate(0) translate(4 400)">
<title>perl6&#45;type&#45;graph</title>
<polygon fill="white" stroke="transparent" points="-4,4 -4,-400 1023.84,-400 1023.84,4 -4,4"/>
<!-- Real -->
<g id="node1" class="node">
<title>Real</title>
<g id="a_node1"><a xlink:href="/type/Real" xlink:title="Real">
<ellipse fill="none" stroke="#6666ff" cx="577.8" cy="-234" rx="28.7" ry="18"/>
<text text-anchor="middle" x="577.8" y="-230.3" font-family="FreeSans" font-size="14.00" fill="#6666ff">Real</text>
</a>
</g>
</g>
<!-- Numeric -->
<g id="node2" class="node">
<title>Numeric</title>
<g id="a_node2"><a xlink:href="/type/Numeric" xlink:title="Numeric">
<ellipse fill="none" stroke="#6666ff" cx="577.8" cy="-306" rx="44.39" ry="18"/>
<text text-anchor="middle" x="577.8" y="-302.3" font-family="FreeSans" font-size="14.00" fill="#6666ff">Numeric</text>
</a>
</g>
</g>
<!-- Real&#45;&gt;Numeric -->
<g id="edge22" class="edge">
<title>Real&#45;&gt;Numeric</title>
<path fill="none" stroke="#6666ff" d="M577.8,-252.3C577.8,-260.02 577.8,-269.29 577.8,-277.89"/>
<polygon fill="#6666ff" stroke="#6666ff" points="574.3,-277.9 577.8,-287.9 581.3,-277.9 574.3,-277.9"/>
</g>
<!-- Mu -->
<g id="node3" class="node">
<title>Mu</title>
<g id="a_node3"><a xlink:href="/type/Mu" xlink:title="Mu">
<ellipse fill="none" stroke="#000000" cx="774.8" cy="-378" rx="27" ry="18"/>
<text text-anchor="middle" x="774.8" y="-374.3" font-family="FreeSans" font-size="14.00" fill="#000000">Mu</text>
</a>
</g>
</g>
<!-- Any -->
<g id="node4" class="node">
<title>Any</title>
<g id="a_node4"><a xlink:href="/type/Any" xlink:title="Any">
<ellipse fill="none" stroke="#000000" cx="774.8" cy="-306" rx="27" ry="18"/>
<text text-anchor="middle" x="774.8" y="-302.3" font-family="FreeSans" font-size="14.00" fill="#000000">Any</text>
</a>
</g>
</g>
<!-- Any&#45;&gt;Mu -->
<g id="edge1" class="edge">
<title>Any&#45;&gt;Mu</title>
<path fill="none" stroke="#000000" d="M774.8,-324.3C774.8,-332.02 774.8,-341.29 774.8,-349.89"/>
<polygon fill="#000000" stroke="#000000" points="771.3,-349.9 774.8,-359.9 778.3,-349.9 771.3,-349.9"/>
</g>
<!-- Cool -->
<g id="node5" class="node">
<title>Cool</title>
<g id="a_node5"><a xlink:href="/type/Cool" xlink:title="Cool">
<ellipse fill="none" stroke="#000000" cx="774.8" cy="-234" rx="28.7" ry="18"/>
<text text-anchor="middle" x="774.8" y="-230.3" font-family="FreeSans" font-size="14.00" fill="#000000">Cool</text>
</a>
</g>
</g>
<!-- Cool&#45;&gt;Any -->
<g id="edge2" class="edge">
<title>Cool&#45;&gt;Any</title>
<path fill="none" stroke="#000000" d="M774.8,-252.3C774.8,-260.02 774.8,-269.29 774.8,-277.89"/>
<polygon fill="#000000" stroke="#000000" points="771.3,-277.9 774.8,-287.9 778.3,-277.9 771.3,-277.9"/>
</g>
<!-- Int -->
<g id="node6" class="node">
<title>Int</title>
<g id="a_node6"><a xlink:href="/type/Int" xlink:title="Int">
<ellipse fill="none" stroke="#000000" cx="399.8" cy="-162" rx="27" ry="18"/>
<text text-anchor="middle" x="399.8" y="-158.3" font-family="FreeSans" font-size="14.00" fill="#000000">Int</text>
</a>
</g>
</g>
<!-- Int&#45;&gt;Real -->
<g id="edge23" class="edge">
<title>Int&#45;&gt;Real</title>
<path fill="none" stroke="#6666ff" d="M422.7,-172.01C453.69,-184.19 509.15,-206.01 544.68,-219.97"/>
<polygon fill="#6666ff" stroke="#6666ff" points="543.54,-223.29 554.13,-223.69 546.1,-216.78 543.54,-223.29"/>
</g>
<!-- Int&#45;&gt;Cool -->
<g id="edge3" class="edge">
<title>Int&#45;&gt;Cool</title>
<path fill="none" stroke="#000000" d="M423.23,-171.3C435.42,-175.62 447.8,-180 447.8,-180 447.8,-180 651.54,-213.02 737.38,-226.94"/>
<polygon fill="#000000" stroke="#000000" points="737.05,-230.43 747.48,-228.57 738.17,-223.52 737.05,-230.43"/>
</g>
<!-- Rational -->
<g id="node7" class="node">
<title>Rational</title>
<g id="a_node7"><a xlink:href="/type/Rational" xlink:title="Rational">
<ellipse fill="none" stroke="#6666ff" cx="577.8" cy="-162" rx="42.79" ry="18"/>
<text text-anchor="middle" x="577.8" y="-158.3" font-family="FreeSans" font-size="14.00" fill="#6666ff">Rational</text>
</a>
</g>
</g>
<!-- Rational&#45;&gt;Real -->
<g id="edge24" class="edge">
<title>Rational&#45;&gt;Real</title>
<path fill="none" stroke="#6666ff" d="M577.8,-180.3C577.8,-188.02 577.8,-197.29 577.8,-205.89"/>
<polygon fill="#6666ff" stroke="#6666ff" points="574.3,-205.9 577.8,-215.9 581.3,-205.9 574.3,-205.9"/>
</g>
<!-- Num -->
<g id="node8" class="node">
<title>Num</title>
<g id="a_node8"><a xlink:href="/type/Num" xlink:title="Num">
<ellipse fill="none" stroke="#000000" cx="486.8" cy="-162" rx="29.8" ry="18"/>
<text text-anchor="middle" x="486.8" y="-158.3" font-family="FreeSans" font-size="14.00" fill="#000000">Num</text>
</a>
</g>
</g>
<!-- Num&#45;&gt;Real -->
<g id="edge25" class="edge">
<title>Num&#45;&gt;Real</title>
<path fill="none" stroke="#6666ff" d="M504.78,-176.83C518.41,-187.32 537.33,-201.87 552.49,-213.54"/>
<polygon fill="#6666ff" stroke="#6666ff" points="550.41,-216.35 560.47,-219.67 554.68,-210.8 550.41,-216.35"/>
</g>
<!-- Num&#45;&gt;Cool -->
<g id="edge4" class="edge">
<title>Num&#45;&gt;Cool</title>
<path fill="none" stroke="#000000" d="M510.38,-173.28C518.6,-176.86 525.8,-180 525.8,-180 525.8,-180 668.85,-210.45 738.1,-225.19"/>
<polygon fill="#000000" stroke="#000000" points="737.64,-228.67 748.15,-227.33 739.1,-221.82 737.64,-228.67"/>
</g>
<!-- Instant -->
<g id="node9" class="node">
<title>Instant</title>
<g id="a_node9"><a xlink:href="/type/Instant" xlink:title="Instant">
<ellipse fill="none" stroke="#000000" cx="675.8" cy="-162" rx="37.09" ry="18"/>
<text text-anchor="middle" x="675.8" y="-158.3" font-family="FreeSans" font-size="14.00" fill="#000000">Instant</text>
</a>
</g>
</g>
<!-- Instant&#45;&gt;Real -->
<g id="edge26" class="edge">
<title>Instant&#45;&gt;Real</title>
<path fill="none" stroke="#6666ff" d="M655.49,-177.5C640.73,-188.05 620.61,-202.42 604.54,-213.9"/>
<polygon fill="#6666ff" stroke="#6666ff" points="602.2,-211.27 596.09,-219.93 606.27,-216.97 602.2,-211.27"/>
</g>
<!-- Instant&#45;&gt;Cool -->
<g id="edge5" class="edge">
<title>Instant&#45;&gt;Cool</title>
<path fill="none" stroke="#000000" d="M695.83,-177.17C710.94,-187.85 731.8,-202.6 748.29,-214.26"/>
<polygon fill="#000000" stroke="#000000" points="746.28,-217.12 756.46,-220.04 750.32,-211.4 746.28,-217.12"/>
</g>
<!-- Duration -->
<g id="node10" class="node">
<title>Duration</title>
<g id="a_node10"><a xlink:href="/type/Duration" xlink:title="Duration">
<ellipse fill="none" stroke="#000000" cx="774.8" cy="-162" rx="44.39" ry="18"/>
<text text-anchor="middle" x="774.8" y="-158.3" font-family="FreeSans" font-size="14.00" fill="#000000">Duration</text>
</a>
</g>
</g>
<!-- Duration&#45;&gt;Real -->
<g id="edge27" class="edge">
<title>Duration&#45;&gt;Real</title>
<path fill="none" stroke="#6666ff" d="M742.71,-174.4C706.73,-187.19 648.63,-207.83 611.86,-220.89"/>
<polygon fill="#6666ff" stroke="#6666ff" points="610.35,-217.72 602.1,-224.37 612.69,-224.32 610.35,-217.72"/>
</g>
<!-- Duration&#45;&gt;Cool -->
<g id="edge6" class="edge">
<title>Duration&#45;&gt;Cool</title>
<path fill="none" stroke="#000000" d="M774.8,-180.3C774.8,-188.02 774.8,-197.29 774.8,-205.89"/>
<polygon fill="#000000" stroke="#000000" points="771.3,-205.9 774.8,-215.9 778.3,-205.9 771.3,-205.9"/>
</g>
<!-- PromiseStatus -->
<g id="node11" class="node">
<title>PromiseStatus</title>
<g id="a_node11"><a xlink:href="/type/PromiseStatus" xlink:title="PromiseStatus">
<ellipse fill="none" stroke="#33bb33" cx="377.8" cy="-90" rx="67.69" ry="18"/>
<text text-anchor="middle" x="377.8" y="-86.3" font-family="FreeSans" font-size="14.00" fill="#33bb33">PromiseStatus</text>
</a>
</g>
</g>
<!-- PromiseStatus&#45;&gt;Int -->
<g id="edge7" class="edge">
<title>PromiseStatus&#45;&gt;Int</title>
<path fill="none" stroke="#000000" d="M383.12,-107.95C385.64,-115.94 388.69,-125.67 391.5,-134.6"/>
<polygon fill="#000000" stroke="#000000" points="388.18,-135.72 394.52,-144.21 394.86,-133.62 388.18,-135.72"/>
</g>
<!-- int -->
<g id="node12" class="node">
<title>int</title>
<g id="a_node12"><a xlink:href="/type/int" xlink:title="int">
<ellipse fill="none" stroke="#000000" cx="490.8" cy="-90" rx="27" ry="18"/>
<text text-anchor="middle" x="490.8" y="-86.3" font-family="FreeSans" font-size="14.00" fill="#000000">int</text>
</a>
</g>
</g>
<!-- int&#45;&gt;Int -->
<g id="edge8" class="edge">
<title>int&#45;&gt;Int</title>
<path fill="none" stroke="#000000" d="M473.68,-104.17C459.95,-114.73 440.49,-129.7 424.98,-141.63"/>
<polygon fill="#000000" stroke="#000000" points="422.63,-139.02 416.84,-147.89 426.9,-144.57 422.63,-139.02"/>
</g>
<!-- Endian -->
<g id="node13" class="node">
<title>Endian</title>
<g id="a_node13"><a xlink:href="/type/Endian" xlink:title="Endian">
<ellipse fill="none" stroke="#33bb33" cx="573.8" cy="-90" rx="38.19" ry="18"/>
<text text-anchor="middle" x="573.8" y="-86.3" font-family="FreeSans" font-size="14.00" fill="#33bb33">Endian</text>
</a>
</g>
</g>
<!-- Endian&#45;&gt;Int -->
<g id="edge9" class="edge">
<title>Endian&#45;&gt;Int</title>
<path fill="none" stroke="#000000" d="M545.45,-102.4C514.3,-114.94 464.36,-135.03 431.81,-148.12"/>
<polygon fill="#000000" stroke="#000000" points="430.28,-144.96 422.31,-151.94 432.89,-151.46 430.28,-144.96"/>
</g>
<!-- Signal -->
<g id="node14" class="node">
<title>Signal</title>
<g id="a_node14"><a xlink:href="/type/Signal" xlink:title="Signal">
<ellipse fill="none" stroke="#33bb33" cx="664.8" cy="-90" rx="35.19" ry="18"/>
<text text-anchor="middle" x="664.8" y="-86.3" font-family="FreeSans" font-size="14.00" fill="#33bb33">Signal</text>
</a>
</g>
</g>
<!-- Signal&#45;&gt;Int -->
<g id="edge10" class="edge">
<title>Signal&#45;&gt;Int</title>
<path fill="none" stroke="#000000" d="M637.68,-101.48C628.63,-104.97 620.8,-108 620.8,-108 620.8,-108 447.8,-144 447.8,-144 447.8,-144 441.12,-146.36 432.75,-149.33"/>
<polygon fill="#000000" stroke="#000000" points="431.49,-146.06 423.23,-152.7 433.83,-152.66 431.49,-146.06"/>
</g>
<!-- Order -->
<g id="node15" class="node">
<title>Order</title>
<g id="a_node15"><a xlink:href="/type/Order" xlink:title="Order">
<ellipse fill="none" stroke="#33bb33" cx="33.8" cy="-90" rx="33.6" ry="18"/>
<text text-anchor="middle" x="33.8" y="-86.3" font-family="FreeSans" font-size="14.00" fill="#33bb33">Order</text>
</a>
</g>
</g>
<!-- Order&#45;&gt;Int -->
<g id="edge11" class="edge">
<title>Order&#45;&gt;Int</title>
<path fill="none" stroke="#000000" d="M60.3,-101.48C69.14,-104.97 76.8,-108 76.8,-108 76.8,-108 279.96,-141.34 364.04,-155.13"/>
<polygon fill="#000000" stroke="#000000" points="363.48,-158.59 373.91,-156.75 364.61,-151.68 363.48,-158.59"/>
</g>
<!-- atomicint -->
<g id="node16" class="node">
<title>atomicint</title>
<g id="a_node16"><a xlink:href="/type/atomicint" xlink:title="atomicint">
<ellipse fill="none" stroke="#000000" cx="131.8" cy="-90" rx="46.29" ry="18"/>
<text text-anchor="middle" x="131.8" y="-86.3" font-family="FreeSans" font-size="14.00" fill="#000000">atomicint</text>
</a>
</g>
</g>
<!-- atomicint&#45;&gt;Int -->
<g id="edge12" class="edge">
<title>atomicint&#45;&gt;Int</title>
<path fill="none" stroke="#000000" d="M166.94,-101.86C177.72,-105.19 186.8,-108 186.8,-108 186.8,-108 304.72,-137.34 365.08,-152.36"/>
<polygon fill="#000000" stroke="#000000" points="364.4,-155.8 374.95,-154.82 366.09,-149.01 364.4,-155.8"/>
</g>
<!-- Bool -->
<g id="node17" class="node">
<title>Bool</title>
<g id="a_node17"><a xlink:href="/type/Bool" xlink:title="Bool">
<ellipse fill="none" stroke="#33bb33" cx="224.8" cy="-90" rx="28.7" ry="18"/>
<text text-anchor="middle" x="224.8" y="-86.3" font-family="FreeSans" font-size="14.00" fill="#33bb33">Bool</text>
</a>
</g>
</g>
<!-- Bool&#45;&gt;Int -->
<g id="edge13" class="edge">
<title>Bool&#45;&gt;Int</title>
<path fill="none" stroke="#000000" d="M248.4,-100.44C279.14,-112.74 333.01,-134.28 367.51,-148.09"/>
<polygon fill="#000000" stroke="#000000" points="366.54,-151.47 377.12,-151.93 369.14,-144.97 366.54,-151.47"/>
</g>
<!-- Stringy -->
<g id="node18" class="node">
<title>Stringy</title>
<g id="a_node18"><a xlink:href="/type/Stringy" xlink:title="Stringy">
<ellipse fill="none" stroke="#6666ff" cx="959.8" cy="-234" rx="38.19" ry="18"/>
<text text-anchor="middle" x="959.8" y="-230.3" font-family="FreeSans" font-size="14.00" fill="#6666ff">Stringy</text>
</a>
</g>
</g>
<!-- Str -->
<g id="node19" class="node">
<title>Str</title>
<g id="a_node19"><a xlink:href="/type/Str" xlink:title="Str">
<ellipse fill="none" stroke="#000000" cx="959.8" cy="-162" rx="27" ry="18"/>
<text text-anchor="middle" x="959.8" y="-158.3" font-family="FreeSans" font-size="14.00" fill="#000000">Str</text>
</a>
</g>
</g>
<!-- Str&#45;&gt;Cool -->
<g id="edge14" class="edge">
<title>Str&#45;&gt;Cool</title>
<path fill="none" stroke="#000000" d="M936.74,-171.72C904.38,-183.97 845.28,-206.33 808.13,-220.39"/>
<polygon fill="#000000" stroke="#000000" points="806.84,-217.13 798.73,-223.94 809.32,-223.68 806.84,-217.13"/>
</g>
<!-- Str&#45;&gt;Stringy -->
<g id="edge28" class="edge">
<title>Str&#45;&gt;Stringy</title>
<path fill="none" stroke="#6666ff" d="M959.8,-180.3C959.8,-188.02 959.8,-197.29 959.8,-205.89"/>
<polygon fill="#6666ff" stroke="#6666ff" points="956.3,-205.9 959.8,-215.9 963.3,-205.9 956.3,-205.9"/>
</g>
<!-- Allomorph -->
<g id="node20" class="node">
<title>Allomorph</title>
<g id="a_node20"><a xlink:href="/type/Allomorph" xlink:title="Allomorph">
<ellipse fill="none" stroke="#000000" cx="969.8" cy="-90" rx="50.09" ry="18"/>
<text text-anchor="middle" x="969.8" y="-86.3" font-family="FreeSans" font-size="14.00" fill="#000000">Allomorph</text>
</a>
</g>
</g>
<!-- Allomorph&#45;&gt;Str -->
<g id="edge15" class="edge">
<title>Allomorph&#45;&gt;Str</title>
<path fill="none" stroke="#000000" d="M967.33,-108.3C966.22,-116.02 964.9,-125.29 963.67,-133.89"/>
<polygon fill="#000000" stroke="#000000" points="960.19,-133.5 962.24,-143.9 967.12,-134.49 960.19,-133.5"/>
</g>
<!-- IntStr -->
<g id="node21" class="node">
<title>IntStr</title>
<g id="a_node21"><a xlink:href="/type/IntStr" xlink:title="IntStr">
<ellipse fill="none" stroke="#000000" cx="580.8" cy="-18" rx="31.7" ry="18"/>
<text text-anchor="middle" x="580.8" y="-14.3" font-family="FreeSans" font-size="14.00" fill="#000000">IntStr</text>
</a>
</g>
</g>
<!-- IntStr&#45;&gt;Int -->
<g id="edge17" class="edge">
<title>IntStr&#45;&gt;Int</title>
<path fill="none" stroke="#000000" d="M551.1,-24.62C479.04,-38.26 300.8,-72 300.8,-72 300.8,-72 300.8,-108 300.8,-108 300.8,-108 341.09,-129.57 370.27,-145.19"/>
<polygon fill="#000000" stroke="#000000" points="368.82,-148.38 379.28,-150.02 372.12,-142.21 368.82,-148.38"/>
</g>
<!-- IntStr&#45;&gt;Allomorph -->
<g id="edge16" class="edge">
<title>IntStr&#45;&gt;Allomorph</title>
<path fill="none" stroke="#000000" d="M610.96,-23.84C692.42,-36.93 910.8,-72 910.8,-72 910.8,-72 915.4,-73.33 922.03,-75.24"/>
<polygon fill="#000000" stroke="#000000" points="921.52,-78.73 932.1,-78.14 923.46,-72.01 921.52,-78.73"/>
</g>
<!-- NumStr -->
<g id="node22" class="node">
<title>NumStr</title>
<g id="a_node22"><a xlink:href="/type/NumStr" xlink:title="NumStr">
<ellipse fill="none" stroke="#000000" cx="848.8" cy="-18" rx="40.89" ry="18"/>
<text text-anchor="middle" x="848.8" y="-14.3" font-family="FreeSans" font-size="14.00" fill="#000000">NumStr</text>
</a>
</g>
</g>
<!-- NumStr&#45;&gt;Num -->
<g id="edge19" class="edge">
<title>NumStr&#45;&gt;Num</title>
<path fill="none" stroke="#000000" d="M823.32,-32.24C793.11,-47.94 746.8,-72 746.8,-72 746.8,-72 708.8,-108 708.8,-108 708.8,-108 525.8,-144 525.8,-144 525.8,-144 523.39,-145.05 519.77,-146.63"/>
<polygon fill="#000000" stroke="#000000" points="518.15,-143.51 510.38,-150.72 520.95,-149.93 518.15,-143.51"/>
</g>
<!-- NumStr&#45;&gt;Allomorph -->
<g id="edge18" class="edge">
<title>NumStr&#45;&gt;Allomorph</title>
<path fill="none" stroke="#000000" d="M872.7,-32.83C890.62,-43.2 915.4,-57.53 935.44,-69.12"/>
<polygon fill="#000000" stroke="#000000" points="933.86,-72.25 944.27,-74.23 937.37,-66.2 933.86,-72.25"/>
</g>
<!-- FatRat -->
<g id="node23" class="node">
<title>FatRat</title>
<g id="a_node23"><a xlink:href="/type/FatRat" xlink:title="FatRat">
<ellipse fill="none" stroke="#000000" cx="792.8" cy="-90" rx="37.09" ry="18"/>
<text text-anchor="middle" x="792.8" y="-86.3" font-family="FreeSans" font-size="14.00" fill="#000000">FatRat</text>
</a>
</g>
</g>
<!-- FatRat&#45;&gt;Cool -->
<g id="edge20" class="edge">
<title>FatRat&#45;&gt;Cool</title>
<path fill="none" stroke="#000000" d="M803.68,-107.48C813.95,-123.04 827.8,-144 827.8,-144 827.8,-144 827.8,-180 827.8,-180 827.8,-180 811.44,-196.36 796.9,-210.9"/>
<polygon fill="#000000" stroke="#000000" points="794.16,-208.69 789.56,-218.24 799.11,-213.64 794.16,-208.69"/>
</g>
<!-- FatRat&#45;&gt;Rational -->
<g id="edge29" class="edge">
<title>FatRat&#45;&gt;Rational</title>
<path fill="none" stroke="#6666ff" d="M763.13,-100.89C751.91,-104.63 741.8,-108 741.8,-108 741.8,-108 629.8,-144 629.8,-144 629.8,-144 626.03,-145.23 620.52,-147.03"/>
<polygon fill="#6666ff" stroke="#6666ff" points="619.15,-143.8 610.73,-150.23 621.32,-150.45 619.15,-143.8"/>
</g>
<!-- Rat -->
<g id="node24" class="node">
<title>Rat</title>
<g id="a_node24"><a xlink:href="/type/Rat" xlink:title="Rat">
<ellipse fill="none" stroke="#000000" cx="874.8" cy="-90" rx="27" ry="18"/>
<text text-anchor="middle" x="874.8" y="-86.3" font-family="FreeSans" font-size="14.00" fill="#000000">Rat</text>
</a>
</g>
</g>
<!-- Rat&#45;&gt;Cool -->
<g id="edge21" class="edge">
<title>Rat&#45;&gt;Cool</title>
<path fill="none" stroke="#000000" d="M868.59,-107.74C859.03,-133.52 841.8,-180 841.8,-180 841.8,-180 819.11,-197.94 800.14,-212.95"/>
<polygon fill="#000000" stroke="#000000" points="797.72,-210.4 792.05,-219.35 802.07,-215.89 797.72,-210.4"/>
</g>
<!-- Rat&#45;&gt;Rational -->
<g id="edge30" class="edge">
<title>Rat&#45;&gt;Rational</title>
<path fill="none" stroke="#6666ff" d="M853.44,-101.09C845.69,-104.75 838.8,-108 838.8,-108 838.8,-108 629.8,-144 629.8,-144 629.8,-144 626.03,-145.23 620.52,-147.03"/>
<polygon fill="#6666ff" stroke="#6666ff" points="619.15,-143.8 610.73,-150.23 621.32,-150.45 619.15,-143.8"/>
</g>
</g>
</svg>
