<?xml version="1.0" encoding="UTF-8" standalone="no"?>
<!DOCTYPE svg PUBLIC "-//W3C//DTD SVG 1.1//EN"
 "http://www.w3.org/Graphics/SVG/1.1/DTD/svg11.dtd">
<!-- Generated by graphviz version 2.43.0 (0)
 -->
<!-- Title: perl6&#45;type&#45;graph Pages: 1 -->
<svg width="79pt" height="188pt"
 viewBox="0.00 0.00 79.49 188.00" xmlns="http://www.w3.org/2000/svg" xmlns:xlink="http://www.w3.org/1999/xlink">
<g id="graph0" class="graph" transform="scale(1 1) rotate(0) translate(4 184)">
<title>perl6&#45;type&#45;graph</title>
<polygon fill="white" stroke="transparent" points="-4,4 -4,-184 75.49,-184 75.49,4 -4,4"/>
<!-- Scalar -->
<g id="node1" class="node">
<title>Scalar</title>
<g id="a_node1"><a xlink:href="/type/Scalar" xlink:title="Scalar">
<ellipse fill="none" stroke="#000000" cx="35.75" cy="-18" rx="36" ry="18"/>
<text text-anchor="middle" x="35.75" y="-14.3" font-family="FreeSans" font-size="14.00" fill="#000000">Scalar</text>
</a>
</g>
</g>
<!-- Any -->
<g id="node3" class="node">
<title>Any</title>
<g id="a_node3"><a xlink:href="/type/Any" xlink:title="Any">
<ellipse fill="none" stroke="#000000" cx="35.75" cy="-90" rx="27" ry="18"/>
<text text-anchor="middle" x="35.75" y="-86.3" font-family="FreeSans" font-size="14.00" fill="#000000">Any</text>
</a>
</g>
</g>
<!-- Scalar&#45;&gt;Any -->
<g id="edge1" class="edge">
<title>Scalar&#45;&gt;Any</title>
<path fill="none" stroke="#000000" d="M35.75,-36.3C35.75,-44.02 35.75,-53.29 35.75,-61.89"/>
<polygon fill="#000000" stroke="#000000" points="32.25,-61.9 35.75,-71.9 39.25,-61.9 32.25,-61.9"/>
</g>
<!-- Mu -->
<g id="node2" class="node">
<title>Mu</title>
<g id="a_node2"><a xlink:href="/type/Mu" xlink:title="Mu">
<ellipse fill="none" stroke="#000000" cx="35.75" cy="-162" rx="27" ry="18"/>
<text text-anchor="middle" x="35.75" y="-158.3" font-family="FreeSans" font-size="14.00" fill="#000000">Mu</text>
</a>
</g>
</g>
<!-- Any&#45;&gt;Mu -->
<g id="edge2" class="edge">
<title>Any&#45;&gt;Mu</title>
<path fill="none" stroke="#000000" d="M35.75,-108.3C35.75,-116.02 35.75,-125.29 35.75,-133.89"/>
<polygon fill="#000000" stroke="#000000" points="32.25,-133.9 35.75,-143.9 39.25,-133.9 32.25,-133.9"/>
</g>
</g>
</svg>
