<?xml version="1.0" encoding="UTF-8" standalone="no"?>
<!DOCTYPE svg PUBLIC "-//W3C//DTD SVG 1.1//EN"
 "http://www.w3.org/Graphics/SVG/1.1/DTD/svg11.dtd">
<!-- Generated by graphviz version 2.43.0 (0)
 -->
<!-- Title: perl6&#45;type&#45;graph Pages: 1 -->
<svg width="434pt" height="188pt"
 viewBox="0.00 0.00 434.08 188.00" xmlns="http://www.w3.org/2000/svg" xmlns:xlink="http://www.w3.org/1999/xlink">
<g id="graph0" class="graph" transform="scale(1 1) rotate(0) translate(4 184)">
<title>perl6&#45;type&#45;graph</title>
<polygon fill="white" stroke="transparent" points="-4,4 -4,-184 430.08,-184 430.08,4 -4,4"/>
<!-- Scheduler -->
<g id="node1" class="node">
<title>Scheduler</title>
<g id="a_node1"><a xlink:href="/type/Scheduler" xlink:title="Scheduler">
<ellipse fill="none" stroke="#6666ff" cx="128.19" cy="-90" rx="50.09" ry="18"/>
<text text-anchor="middle" x="128.19" y="-86.3" font-family="FreeSans" font-size="14.00" fill="#6666ff">Scheduler</text>
</a>
</g>
</g>
<!-- Mu -->
<g id="node2" class="node">
<title>Mu</title>
<g id="a_node2"><a xlink:href="/type/Mu" xlink:title="Mu">
<ellipse fill="none" stroke="#000000" cx="286.19" cy="-162" rx="27" ry="18"/>
<text text-anchor="middle" x="286.19" y="-158.3" font-family="FreeSans" font-size="14.00" fill="#000000">Mu</text>
</a>
</g>
</g>
<!-- Any -->
<g id="node3" class="node">
<title>Any</title>
<g id="a_node3"><a xlink:href="/type/Any" xlink:title="Any">
<ellipse fill="none" stroke="#000000" cx="286.19" cy="-90" rx="27" ry="18"/>
<text text-anchor="middle" x="286.19" y="-86.3" font-family="FreeSans" font-size="14.00" fill="#000000">Any</text>
</a>
</g>
</g>
<!-- Any&#45;&gt;Mu -->
<g id="edge1" class="edge">
<title>Any&#45;&gt;Mu</title>
<path fill="none" stroke="#000000" d="M286.19,-108.3C286.19,-116.02 286.19,-125.29 286.19,-133.89"/>
<polygon fill="#000000" stroke="#000000" points="282.69,-133.9 286.19,-143.9 289.69,-133.9 282.69,-133.9"/>
</g>
<!-- ThreadPoolScheduler -->
<g id="node4" class="node">
<title>ThreadPoolScheduler</title>
<g id="a_node4"><a xlink:href="/type/ThreadPoolScheduler" xlink:title="ThreadPoolScheduler">
<ellipse fill="none" stroke="#000000" cx="96.19" cy="-18" rx="96.38" ry="18"/>
<text text-anchor="middle" x="96.19" y="-14.3" font-family="FreeSans" font-size="14.00" fill="#000000">ThreadPoolScheduler</text>
</a>
</g>
</g>
<!-- ThreadPoolScheduler&#45;&gt;Scheduler -->
<g id="edge4" class="edge">
<title>ThreadPoolScheduler&#45;&gt;Scheduler</title>
<path fill="none" stroke="#6666ff" d="M103.94,-35.95C107.63,-44.03 112.14,-53.88 116.25,-62.89"/>
<polygon fill="#6666ff" stroke="#6666ff" points="113.18,-64.57 120.52,-72.21 119.54,-61.66 113.18,-64.57"/>
</g>
<!-- ThreadPoolScheduler&#45;&gt;Any -->
<g id="edge2" class="edge">
<title>ThreadPoolScheduler&#45;&gt;Any</title>
<path fill="none" stroke="#000000" d="M137.89,-34.36C172.58,-47.14 221.31,-65.1 253.3,-76.88"/>
<polygon fill="#000000" stroke="#000000" points="252.47,-80.3 263.06,-80.48 254.89,-73.74 252.47,-80.3"/>
</g>
<!-- CurrentThreadScheduler -->
<g id="node5" class="node">
<title>CurrentThreadScheduler</title>
<g id="a_node5"><a xlink:href="/type/CurrentThreadScheduler" xlink:title="CurrentThreadScheduler">
<ellipse fill="none" stroke="#000000" cx="318.19" cy="-18" rx="107.78" ry="18"/>
<text text-anchor="middle" x="318.19" y="-14.3" font-family="FreeSans" font-size="14.00" fill="#000000">CurrentThreadScheduler</text>
</a>
</g>
</g>
<!-- CurrentThreadScheduler&#45;&gt;Scheduler -->
<g id="edge5" class="edge">
<title>CurrentThreadScheduler&#45;&gt;Scheduler</title>
<path fill="none" stroke="#6666ff" d="M275.55,-34.71C244.55,-46.13 202.73,-61.54 171.57,-73.02"/>
<polygon fill="#6666ff" stroke="#6666ff" points="170.02,-69.86 161.85,-76.6 172.44,-76.43 170.02,-69.86"/>
</g>
<!-- CurrentThreadScheduler&#45;&gt;Any -->
<g id="edge3" class="edge">
<title>CurrentThreadScheduler&#45;&gt;Any</title>
<path fill="none" stroke="#000000" d="M310.28,-36.3C306.58,-44.39 302.11,-54.19 298.02,-63.13"/>
<polygon fill="#000000" stroke="#000000" points="294.76,-61.83 293.79,-72.38 301.13,-64.74 294.76,-61.83"/>
</g>
</g>
</svg>
