<?xml version="1.0" encoding="UTF-8" standalone="no"?>
<!DOCTYPE svg PUBLIC "-//W3C//DTD SVG 1.1//EN"
 "http://www.w3.org/Graphics/SVG/1.1/DTD/svg11.dtd">
<!-- Generated by graphviz version 2.43.0 (0)
 -->
<!-- Title: perl6&#45;type&#45;graph Pages: 1 -->
<svg width="329pt" height="260pt"
 viewBox="0.00 0.00 329.09 260.00" xmlns="http://www.w3.org/2000/svg" xmlns:xlink="http://www.w3.org/1999/xlink">
<g id="graph0" class="graph" transform="scale(1 1) rotate(0) translate(4 256)">
<title>perl6&#45;type&#45;graph</title>
<polygon fill="white" stroke="transparent" points="-4,4 -4,-256 325.09,-256 325.09,4 -4,4"/>
<!-- Seq -->
<g id="node1" class="node">
<title>Seq</title>
<g id="a_node1"><a xlink:href="/type/Seq" xlink:title="Seq">
<ellipse fill="none" stroke="#000000" cx="115.6" cy="-18" rx="27" ry="18"/>
<text text-anchor="middle" x="115.6" y="-14.3" font-family="FreeSans" font-size="14.00" fill="#000000">Seq</text>
</a>
</g>
</g>
<!-- Cool -->
<g id="node4" class="node">
<title>Cool</title>
<g id="a_node4"><a xlink:href="/type/Cool" xlink:title="Cool">
<ellipse fill="none" stroke="#000000" cx="28.6" cy="-90" rx="28.7" ry="18"/>
<text text-anchor="middle" x="28.6" y="-86.3" font-family="FreeSans" font-size="14.00" fill="#000000">Cool</text>
</a>
</g>
</g>
<!-- Seq&#45;&gt;Cool -->
<g id="edge1" class="edge">
<title>Seq&#45;&gt;Cool</title>
<path fill="none" stroke="#000000" d="M98.82,-32.5C86.03,-42.79 68.19,-57.14 53.7,-68.8"/>
<polygon fill="#000000" stroke="#000000" points="51.21,-66.31 45.62,-75.31 55.6,-71.76 51.21,-66.31"/>
</g>
<!-- Iterable -->
<g id="node5" class="node">
<title>Iterable</title>
<g id="a_node5"><a xlink:href="/type/Iterable" xlink:title="Iterable">
<ellipse fill="none" stroke="#6666ff" cx="115.6" cy="-90" rx="40.09" ry="18"/>
<text text-anchor="middle" x="115.6" y="-86.3" font-family="FreeSans" font-size="14.00" fill="#6666ff">Iterable</text>
</a>
</g>
</g>
<!-- Seq&#45;&gt;Iterable -->
<g id="edge4" class="edge">
<title>Seq&#45;&gt;Iterable</title>
<path fill="none" stroke="#6666ff" d="M115.6,-36.3C115.6,-44.02 115.6,-53.29 115.6,-61.89"/>
<polygon fill="#6666ff" stroke="#6666ff" points="112.1,-61.9 115.6,-71.9 119.1,-61.9 112.1,-61.9"/>
</g>
<!-- Sequence -->
<g id="node7" class="node">
<title>Sequence</title>
<g id="a_node7"><a xlink:href="/type/Sequence" xlink:title="Sequence">
<ellipse fill="none" stroke="#6666ff" cx="223.6" cy="-90" rx="50.09" ry="18"/>
<text text-anchor="middle" x="223.6" y="-86.3" font-family="FreeSans" font-size="14.00" fill="#6666ff">Sequence</text>
</a>
</g>
</g>
<!-- Seq&#45;&gt;Sequence -->
<g id="edge5" class="edge">
<title>Seq&#45;&gt;Sequence</title>
<path fill="none" stroke="#6666ff" d="M134.41,-31.19C150.27,-41.47 173.3,-56.4 191.99,-68.51"/>
<polygon fill="#6666ff" stroke="#6666ff" points="190.2,-71.52 200.5,-74.03 194.01,-65.65 190.2,-71.52"/>
</g>
<!-- Mu -->
<g id="node2" class="node">
<title>Mu</title>
<g id="a_node2"><a xlink:href="/type/Mu" xlink:title="Mu">
<ellipse fill="none" stroke="#000000" cx="28.6" cy="-234" rx="27" ry="18"/>
<text text-anchor="middle" x="28.6" y="-230.3" font-family="FreeSans" font-size="14.00" fill="#000000">Mu</text>
</a>
</g>
</g>
<!-- Any -->
<g id="node3" class="node">
<title>Any</title>
<g id="a_node3"><a xlink:href="/type/Any" xlink:title="Any">
<ellipse fill="none" stroke="#000000" cx="28.6" cy="-162" rx="27" ry="18"/>
<text text-anchor="middle" x="28.6" y="-158.3" font-family="FreeSans" font-size="14.00" fill="#000000">Any</text>
</a>
</g>
</g>
<!-- Any&#45;&gt;Mu -->
<g id="edge2" class="edge">
<title>Any&#45;&gt;Mu</title>
<path fill="none" stroke="#000000" d="M28.6,-180.3C28.6,-188.02 28.6,-197.29 28.6,-205.89"/>
<polygon fill="#000000" stroke="#000000" points="25.1,-205.9 28.6,-215.9 32.1,-205.9 25.1,-205.9"/>
</g>
<!-- Cool&#45;&gt;Any -->
<g id="edge3" class="edge">
<title>Cool&#45;&gt;Any</title>
<path fill="none" stroke="#000000" d="M28.6,-108.3C28.6,-116.02 28.6,-125.29 28.6,-133.89"/>
<polygon fill="#000000" stroke="#000000" points="25.1,-133.9 28.6,-143.9 32.1,-133.9 25.1,-133.9"/>
</g>
<!-- PositionalBindFailover -->
<g id="node6" class="node">
<title>PositionalBindFailover</title>
<g id="a_node6"><a xlink:href="/type/PositionalBindFailover" xlink:title="PositionalBindFailover">
<ellipse fill="none" stroke="#6666ff" cx="223.6" cy="-162" rx="97.48" ry="18"/>
<text text-anchor="middle" x="223.6" y="-158.3" font-family="FreeSans" font-size="14.00" fill="#6666ff">PositionalBindFailover</text>
</a>
</g>
</g>
<!-- Sequence&#45;&gt;PositionalBindFailover -->
<g id="edge6" class="edge">
<title>Sequence&#45;&gt;PositionalBindFailover</title>
<path fill="none" stroke="#6666ff" d="M223.6,-108.3C223.6,-116.02 223.6,-125.29 223.6,-133.89"/>
<polygon fill="#6666ff" stroke="#6666ff" points="220.1,-133.9 223.6,-143.9 227.1,-133.9 220.1,-133.9"/>
</g>
</g>
</svg>
