<?xml version="1.0" encoding="UTF-8" standalone="no"?>
<!DOCTYPE svg PUBLIC "-//W3C//DTD SVG 1.1//EN"
 "http://www.w3.org/Graphics/SVG/1.1/DTD/svg11.dtd">
<!-- Generated by graphviz version 2.43.0 (0)
 -->
<!-- Title: perl6&#45;type&#45;graph Pages: 1 -->
<svg width="192pt" height="260pt"
 viewBox="0.00 0.00 191.90 260.00" xmlns="http://www.w3.org/2000/svg" xmlns:xlink="http://www.w3.org/1999/xlink">
<g id="graph0" class="graph" transform="scale(1 1) rotate(0) translate(4 256)">
<title>perl6&#45;type&#45;graph</title>
<polygon fill="white" stroke="transparent" points="-4,4 -4,-256 187.9,-256 187.9,4 -4,4"/>
<!-- SetHash -->
<g id="node1" class="node">
<title>SetHash</title>
<g id="a_node1"><a xlink:href="/type/SetHash" xlink:title="SetHash">
<ellipse fill="none" stroke="#000000" cx="77" cy="-18" rx="44.39" ry="18"/>
<text text-anchor="middle" x="77" y="-14.3" font-family="FreeSans" font-size="14.00" fill="#000000">SetHash</text>
</a>
</g>
</g>
<!-- Any -->
<g id="node3" class="node">
<title>Any</title>
<g id="a_node3"><a xlink:href="/type/Any" xlink:title="Any">
<ellipse fill="none" stroke="#000000" cx="39" cy="-90" rx="27" ry="18"/>
<text text-anchor="middle" x="39" y="-86.3" font-family="FreeSans" font-size="14.00" fill="#000000">Any</text>
</a>
</g>
</g>
<!-- SetHash&#45;&gt;Any -->
<g id="edge1" class="edge">
<title>SetHash&#45;&gt;Any</title>
<path fill="none" stroke="#000000" d="M67.8,-35.95C63.25,-44.32 57.68,-54.6 52.64,-63.87"/>
<polygon fill="#000000" stroke="#000000" points="49.55,-62.23 47.85,-72.69 55.7,-65.57 49.55,-62.23"/>
</g>
<!-- Setty -->
<g id="node6" class="node">
<title>Setty</title>
<g id="a_node6"><a xlink:href="/type/Setty" xlink:title="Setty">
<ellipse fill="none" stroke="#6666ff" cx="121" cy="-90" rx="30.59" ry="18"/>
<text text-anchor="middle" x="121" y="-86.3" font-family="FreeSans" font-size="14.00" fill="#6666ff">Setty</text>
</a>
</g>
</g>
<!-- SetHash&#45;&gt;Setty -->
<g id="edge3" class="edge">
<title>SetHash&#45;&gt;Setty</title>
<path fill="none" stroke="#6666ff" d="M87.43,-35.59C92.74,-44.05 99.32,-54.51 105.24,-63.92"/>
<polygon fill="#6666ff" stroke="#6666ff" points="102.36,-65.93 110.65,-72.53 108.29,-62.2 102.36,-65.93"/>
</g>
<!-- Mu -->
<g id="node2" class="node">
<title>Mu</title>
<g id="a_node2"><a xlink:href="/type/Mu" xlink:title="Mu">
<ellipse fill="none" stroke="#000000" cx="27" cy="-162" rx="27" ry="18"/>
<text text-anchor="middle" x="27" y="-158.3" font-family="FreeSans" font-size="14.00" fill="#000000">Mu</text>
</a>
</g>
</g>
<!-- Any&#45;&gt;Mu -->
<g id="edge2" class="edge">
<title>Any&#45;&gt;Mu</title>
<path fill="none" stroke="#000000" d="M36.1,-107.95C34.77,-115.65 33.18,-124.97 31.69,-133.64"/>
<polygon fill="#000000" stroke="#000000" points="28.2,-133.28 29.96,-143.72 35.1,-134.46 28.2,-133.28"/>
</g>
<!-- Associative -->
<g id="node4" class="node">
<title>Associative</title>
<g id="a_node4"><a xlink:href="/type/Associative" xlink:title="Associative">
<ellipse fill="none" stroke="#6666ff" cx="128" cy="-234" rx="55.49" ry="18"/>
<text text-anchor="middle" x="128" y="-230.3" font-family="FreeSans" font-size="14.00" fill="#6666ff">Associative</text>
</a>
</g>
</g>
<!-- QuantHash -->
<g id="node5" class="node">
<title>QuantHash</title>
<g id="a_node5"><a xlink:href="/type/QuantHash" xlink:title="QuantHash">
<ellipse fill="none" stroke="#6666ff" cx="128" cy="-162" rx="55.79" ry="18"/>
<text text-anchor="middle" x="128" y="-158.3" font-family="FreeSans" font-size="14.00" fill="#6666ff">QuantHash</text>
</a>
</g>
</g>
<!-- QuantHash&#45;&gt;Associative -->
<g id="edge4" class="edge">
<title>QuantHash&#45;&gt;Associative</title>
<path fill="none" stroke="#6666ff" d="M128,-180.3C128,-188.02 128,-197.29 128,-205.89"/>
<polygon fill="#6666ff" stroke="#6666ff" points="124.5,-205.9 128,-215.9 131.5,-205.9 124.5,-205.9"/>
</g>
<!-- Setty&#45;&gt;QuantHash -->
<g id="edge5" class="edge">
<title>Setty&#45;&gt;QuantHash</title>
<path fill="none" stroke="#6666ff" d="M122.73,-108.3C123.5,-116.02 124.43,-125.29 125.29,-133.89"/>
<polygon fill="#6666ff" stroke="#6666ff" points="121.81,-134.29 126.29,-143.9 128.78,-133.6 121.81,-134.29"/>
</g>
</g>
</svg>
