<?xml version="1.0" encoding="UTF-8" standalone="no"?>
<!DOCTYPE svg PUBLIC "-//W3C//DTD SVG 1.1//EN"
 "http://www.w3.org/Graphics/SVG/1.1/DTD/svg11.dtd">
<!-- Generated by graphviz version 2.43.0 (0)
 -->
<!-- Title: perl6&#45;type&#45;graph Pages: 1 -->
<svg width="192pt" height="260pt"
 viewBox="0.00 0.00 191.90 260.00" xmlns="http://www.w3.org/2000/svg" xmlns:xlink="http://www.w3.org/1999/xlink">
<g id="graph0" class="graph" transform="scale(1 1) rotate(0) translate(4 256)">
<title>perl6&#45;type&#45;graph</title>
<polygon fill="white" stroke="transparent" points="-4,4 -4,-256 187.9,-256 187.9,4 -4,4"/>
<!-- Setty -->
<g id="node1" class="node">
<title>Setty</title>
<g id="a_node1"><a xlink:href="/type/Setty" xlink:title="Setty">
<ellipse fill="none" stroke="#6666ff" cx="61.9" cy="-90" rx="30.59" ry="18"/>
<text text-anchor="middle" x="61.9" y="-86.3" font-family="FreeSans" font-size="14.00" fill="#6666ff">Setty</text>
</a>
</g>
</g>
<!-- QuantHash -->
<g id="node3" class="node">
<title>QuantHash</title>
<g id="a_node3"><a xlink:href="/type/QuantHash" xlink:title="QuantHash">
<ellipse fill="none" stroke="#6666ff" cx="55.9" cy="-162" rx="55.79" ry="18"/>
<text text-anchor="middle" x="55.9" y="-158.3" font-family="FreeSans" font-size="14.00" fill="#6666ff">QuantHash</text>
</a>
</g>
</g>
<!-- Setty&#45;&gt;QuantHash -->
<g id="edge4" class="edge">
<title>Setty&#45;&gt;QuantHash</title>
<path fill="none" stroke="#6666ff" d="M60.41,-108.3C59.75,-116.02 58.96,-125.29 58.22,-133.89"/>
<polygon fill="#6666ff" stroke="#6666ff" points="54.73,-133.63 57.36,-143.9 61.7,-134.23 54.73,-133.63"/>
</g>
<!-- Associative -->
<g id="node2" class="node">
<title>Associative</title>
<g id="a_node2"><a xlink:href="/type/Associative" xlink:title="Associative">
<ellipse fill="none" stroke="#6666ff" cx="55.9" cy="-234" rx="55.49" ry="18"/>
<text text-anchor="middle" x="55.9" y="-230.3" font-family="FreeSans" font-size="14.00" fill="#6666ff">Associative</text>
</a>
</g>
</g>
<!-- QuantHash&#45;&gt;Associative -->
<g id="edge5" class="edge">
<title>QuantHash&#45;&gt;Associative</title>
<path fill="none" stroke="#6666ff" d="M55.9,-180.3C55.9,-188.02 55.9,-197.29 55.9,-205.89"/>
<polygon fill="#6666ff" stroke="#6666ff" points="52.4,-205.9 55.9,-215.9 59.4,-205.9 52.4,-205.9"/>
</g>
<!-- Mu -->
<g id="node4" class="node">
<title>Mu</title>
<g id="a_node4"><a xlink:href="/type/Mu" xlink:title="Mu">
<ellipse fill="none" stroke="#000000" cx="156.9" cy="-162" rx="27" ry="18"/>
<text text-anchor="middle" x="156.9" y="-158.3" font-family="FreeSans" font-size="14.00" fill="#000000">Mu</text>
</a>
</g>
</g>
<!-- Any -->
<g id="node5" class="node">
<title>Any</title>
<g id="a_node5"><a xlink:href="/type/Any" xlink:title="Any">
<ellipse fill="none" stroke="#000000" cx="150.9" cy="-90" rx="27" ry="18"/>
<text text-anchor="middle" x="150.9" y="-86.3" font-family="FreeSans" font-size="14.00" fill="#000000">Any</text>
</a>
</g>
</g>
<!-- Any&#45;&gt;Mu -->
<g id="edge1" class="edge">
<title>Any&#45;&gt;Mu</title>
<path fill="none" stroke="#000000" d="M152.38,-108.3C153.04,-116.02 153.83,-125.29 154.57,-133.89"/>
<polygon fill="#000000" stroke="#000000" points="151.09,-134.23 155.43,-143.9 158.06,-133.63 151.09,-134.23"/>
</g>
<!-- SetHash -->
<g id="node6" class="node">
<title>SetHash</title>
<g id="a_node6"><a xlink:href="/type/SetHash" xlink:title="SetHash">
<ellipse fill="none" stroke="#000000" cx="61.9" cy="-18" rx="44.39" ry="18"/>
<text text-anchor="middle" x="61.9" y="-14.3" font-family="FreeSans" font-size="14.00" fill="#000000">SetHash</text>
</a>
</g>
</g>
<!-- SetHash&#45;&gt;Setty -->
<g id="edge6" class="edge">
<title>SetHash&#45;&gt;Setty</title>
<path fill="none" stroke="#6666ff" d="M61.9,-36.3C61.9,-44.02 61.9,-53.29 61.9,-61.89"/>
<polygon fill="#6666ff" stroke="#6666ff" points="58.4,-61.9 61.9,-71.9 65.4,-61.9 58.4,-61.9"/>
</g>
<!-- SetHash&#45;&gt;Any -->
<g id="edge2" class="edge">
<title>SetHash&#45;&gt;Any</title>
<path fill="none" stroke="#000000" d="M81.65,-34.54C94.71,-44.81 111.94,-58.36 125.95,-69.38"/>
<polygon fill="#000000" stroke="#000000" points="124.16,-72.43 134.19,-75.86 128.49,-66.93 124.16,-72.43"/>
</g>
<!-- Set -->
<g id="node7" class="node">
<title>Set</title>
<g id="a_node7"><a xlink:href="/type/Set" xlink:title="Set">
<ellipse fill="none" stroke="#000000" cx="150.9" cy="-18" rx="27" ry="18"/>
<text text-anchor="middle" x="150.9" y="-14.3" font-family="FreeSans" font-size="14.00" fill="#000000">Set</text>
</a>
</g>
</g>
<!-- Set&#45;&gt;Setty -->
<g id="edge7" class="edge">
<title>Set&#45;&gt;Setty</title>
<path fill="none" stroke="#6666ff" d="M134.15,-32.17C120.98,-42.53 102.41,-57.13 87.39,-68.94"/>
<polygon fill="#6666ff" stroke="#6666ff" points="85.17,-66.24 79.47,-75.17 89.5,-71.74 85.17,-66.24"/>
</g>
<!-- Set&#45;&gt;Any -->
<g id="edge3" class="edge">
<title>Set&#45;&gt;Any</title>
<path fill="none" stroke="#000000" d="M150.9,-36.3C150.9,-44.02 150.9,-53.29 150.9,-61.89"/>
<polygon fill="#000000" stroke="#000000" points="147.4,-61.9 150.9,-71.9 154.4,-61.9 147.4,-61.9"/>
</g>
</g>
</svg>
