<?xml version="1.0" encoding="UTF-8" standalone="no"?>
<!DOCTYPE svg PUBLIC "-//W3C//DTD SVG 1.1//EN"
 "http://www.w3.org/Graphics/SVG/1.1/DTD/svg11.dtd">
<!-- Generated by graphviz version 2.43.0 (0)
 -->
<!-- Title: perl6&#45;type&#45;graph Pages: 1 -->
<svg width="168pt" height="332pt"
 viewBox="0.00 0.00 168.20 332.00" xmlns="http://www.w3.org/2000/svg" xmlns:xlink="http://www.w3.org/1999/xlink">
<g id="graph0" class="graph" transform="scale(1 1) rotate(0) translate(4 328)">
<title>perl6&#45;type&#45;graph</title>
<polygon fill="white" stroke="transparent" points="-4,4 -4,-328 164.2,-328 164.2,4 -4,4"/>
<!-- Signal -->
<g id="node1" class="node">
<title>Signal</title>
<g id="a_node1"><a xlink:href="/type/Signal" xlink:title="Signal">
<ellipse fill="none" stroke="#33bb33" cx="71" cy="-18" rx="35.19" ry="18"/>
<text text-anchor="middle" x="71" y="-14.3" font-family="FreeSans" font-size="14.00" fill="#33bb33">Signal</text>
</a>
</g>
</g>
<!-- Int -->
<g id="node7" class="node">
<title>Int</title>
<g id="a_node7"><a xlink:href="/type/Int" xlink:title="Int">
<ellipse fill="none" stroke="#000000" cx="71" cy="-90" rx="27" ry="18"/>
<text text-anchor="middle" x="71" y="-86.3" font-family="FreeSans" font-size="14.00" fill="#000000">Int</text>
</a>
</g>
</g>
<!-- Signal&#45;&gt;Int -->
<g id="edge1" class="edge">
<title>Signal&#45;&gt;Int</title>
<path fill="none" stroke="#000000" d="M71,-36.3C71,-44.02 71,-53.29 71,-61.89"/>
<polygon fill="#000000" stroke="#000000" points="67.5,-61.9 71,-71.9 74.5,-61.9 67.5,-61.9"/>
</g>
<!-- Mu -->
<g id="node2" class="node">
<title>Mu</title>
<g id="a_node2"><a xlink:href="/type/Mu" xlink:title="Mu">
<ellipse fill="none" stroke="#000000" cx="27" cy="-306" rx="27" ry="18"/>
<text text-anchor="middle" x="27" y="-302.3" font-family="FreeSans" font-size="14.00" fill="#000000">Mu</text>
</a>
</g>
</g>
<!-- Any -->
<g id="node3" class="node">
<title>Any</title>
<g id="a_node3"><a xlink:href="/type/Any" xlink:title="Any">
<ellipse fill="none" stroke="#000000" cx="27" cy="-234" rx="27" ry="18"/>
<text text-anchor="middle" x="27" y="-230.3" font-family="FreeSans" font-size="14.00" fill="#000000">Any</text>
</a>
</g>
</g>
<!-- Any&#45;&gt;Mu -->
<g id="edge2" class="edge">
<title>Any&#45;&gt;Mu</title>
<path fill="none" stroke="#000000" d="M27,-252.3C27,-260.02 27,-269.29 27,-277.89"/>
<polygon fill="#000000" stroke="#000000" points="23.5,-277.9 27,-287.9 30.5,-277.9 23.5,-277.9"/>
</g>
<!-- Cool -->
<g id="node4" class="node">
<title>Cool</title>
<g id="a_node4"><a xlink:href="/type/Cool" xlink:title="Cool">
<ellipse fill="none" stroke="#000000" cx="30" cy="-162" rx="28.7" ry="18"/>
<text text-anchor="middle" x="30" y="-158.3" font-family="FreeSans" font-size="14.00" fill="#000000">Cool</text>
</a>
</g>
</g>
<!-- Cool&#45;&gt;Any -->
<g id="edge3" class="edge">
<title>Cool&#45;&gt;Any</title>
<path fill="none" stroke="#000000" d="M29.26,-180.3C28.93,-188.02 28.53,-197.29 28.16,-205.89"/>
<polygon fill="#000000" stroke="#000000" points="24.66,-205.75 27.73,-215.9 31.66,-206.05 24.66,-205.75"/>
</g>
<!-- Numeric -->
<g id="node5" class="node">
<title>Numeric</title>
<g id="a_node5"><a xlink:href="/type/Numeric" xlink:title="Numeric">
<ellipse fill="none" stroke="#6666ff" cx="116" cy="-234" rx="44.39" ry="18"/>
<text text-anchor="middle" x="116" y="-230.3" font-family="FreeSans" font-size="14.00" fill="#6666ff">Numeric</text>
</a>
</g>
</g>
<!-- Real -->
<g id="node6" class="node">
<title>Real</title>
<g id="a_node6"><a xlink:href="/type/Real" xlink:title="Real">
<ellipse fill="none" stroke="#6666ff" cx="112" cy="-162" rx="28.7" ry="18"/>
<text text-anchor="middle" x="112" y="-158.3" font-family="FreeSans" font-size="14.00" fill="#6666ff">Real</text>
</a>
</g>
</g>
<!-- Real&#45;&gt;Numeric -->
<g id="edge5" class="edge">
<title>Real&#45;&gt;Numeric</title>
<path fill="none" stroke="#6666ff" d="M112.99,-180.3C113.43,-188.02 113.96,-197.29 114.45,-205.89"/>
<polygon fill="#6666ff" stroke="#6666ff" points="110.96,-206.11 115.02,-215.9 117.95,-205.71 110.96,-206.11"/>
</g>
<!-- Int&#45;&gt;Cool -->
<g id="edge4" class="edge">
<title>Int&#45;&gt;Cool</title>
<path fill="none" stroke="#000000" d="M61.49,-107.24C56.47,-115.81 50.2,-126.51 44.58,-136.1"/>
<polygon fill="#000000" stroke="#000000" points="41.49,-134.45 39.46,-144.85 47.53,-137.99 41.49,-134.45"/>
</g>
<!-- Int&#45;&gt;Real -->
<g id="edge6" class="edge">
<title>Int&#45;&gt;Real</title>
<path fill="none" stroke="#6666ff" d="M80.51,-107.24C85.53,-115.81 91.8,-126.51 97.42,-136.1"/>
<polygon fill="#6666ff" stroke="#6666ff" points="94.47,-137.99 102.54,-144.85 100.51,-134.45 94.47,-137.99"/>
</g>
</g>
</svg>
