<?xml version="1.0" encoding="UTF-8" standalone="no"?>
<!DOCTYPE svg PUBLIC "-//W3C//DTD SVG 1.1//EN"
 "http://www.w3.org/Graphics/SVG/1.1/DTD/svg11.dtd">
<!-- Generated by graphviz version 2.43.0 (0)
 -->
<!-- Title: perl6&#45;type&#45;graph Pages: 1 -->
<svg width="476pt" height="404pt"
 viewBox="0.00 0.00 476.44 404.00" xmlns="http://www.w3.org/2000/svg" xmlns:xlink="http://www.w3.org/1999/xlink">
<g id="graph0" class="graph" transform="scale(1 1) rotate(0) translate(4 400)">
<title>perl6&#45;type&#45;graph</title>
<polygon fill="white" stroke="transparent" points="-4,4 -4,-400 472.44,-400 472.44,4 -4,4"/>
<!-- Str -->
<g id="node1" class="node">
<title>Str</title>
<g id="a_node1"><a xlink:href="/type/Str" xlink:title="Str">
<ellipse fill="none" stroke="#000000" cx="318.9" cy="-162" rx="27" ry="18"/>
<text text-anchor="middle" x="318.9" y="-158.3" font-family="FreeSans" font-size="14.00" fill="#000000">Str</text>
</a>
</g>
</g>
<!-- Cool -->
<g id="node4" class="node">
<title>Cool</title>
<g id="a_node4"><a xlink:href="/type/Cool" xlink:title="Cool">
<ellipse fill="none" stroke="#000000" cx="239.9" cy="-234" rx="28.7" ry="18"/>
<text text-anchor="middle" x="239.9" y="-230.3" font-family="FreeSans" font-size="14.00" fill="#000000">Cool</text>
</a>
</g>
</g>
<!-- Str&#45;&gt;Cool -->
<g id="edge1" class="edge">
<title>Str&#45;&gt;Cool</title>
<path fill="none" stroke="#000000" d="M303.29,-176.83C291.89,-186.93 276.25,-200.79 263.35,-212.21"/>
<polygon fill="#000000" stroke="#000000" points="260.91,-209.71 255.74,-218.96 265.55,-214.95 260.91,-209.71"/>
</g>
<!-- Stringy -->
<g id="node5" class="node">
<title>Stringy</title>
<g id="a_node5"><a xlink:href="/type/Stringy" xlink:title="Stringy">
<ellipse fill="none" stroke="#6666ff" cx="324.9" cy="-234" rx="38.19" ry="18"/>
<text text-anchor="middle" x="324.9" y="-230.3" font-family="FreeSans" font-size="14.00" fill="#6666ff">Stringy</text>
</a>
</g>
</g>
<!-- Str&#45;&gt;Stringy -->
<g id="edge17" class="edge">
<title>Str&#45;&gt;Stringy</title>
<path fill="none" stroke="#6666ff" d="M320.38,-180.3C321.04,-188.02 321.84,-197.29 322.57,-205.89"/>
<polygon fill="#6666ff" stroke="#6666ff" points="319.09,-206.23 323.43,-215.9 326.06,-205.63 319.09,-206.23"/>
</g>
<!-- Mu -->
<g id="node2" class="node">
<title>Mu</title>
<g id="a_node2"><a xlink:href="/type/Mu" xlink:title="Mu">
<ellipse fill="none" stroke="#000000" cx="239.9" cy="-378" rx="27" ry="18"/>
<text text-anchor="middle" x="239.9" y="-374.3" font-family="FreeSans" font-size="14.00" fill="#000000">Mu</text>
</a>
</g>
</g>
<!-- Any -->
<g id="node3" class="node">
<title>Any</title>
<g id="a_node3"><a xlink:href="/type/Any" xlink:title="Any">
<ellipse fill="none" stroke="#000000" cx="239.9" cy="-306" rx="27" ry="18"/>
<text text-anchor="middle" x="239.9" y="-302.3" font-family="FreeSans" font-size="14.00" fill="#000000">Any</text>
</a>
</g>
</g>
<!-- Any&#45;&gt;Mu -->
<g id="edge2" class="edge">
<title>Any&#45;&gt;Mu</title>
<path fill="none" stroke="#000000" d="M239.9,-324.3C239.9,-332.02 239.9,-341.29 239.9,-349.89"/>
<polygon fill="#000000" stroke="#000000" points="236.4,-349.9 239.9,-359.9 243.4,-349.9 236.4,-349.9"/>
</g>
<!-- Cool&#45;&gt;Any -->
<g id="edge3" class="edge">
<title>Cool&#45;&gt;Any</title>
<path fill="none" stroke="#000000" d="M239.9,-252.3C239.9,-260.02 239.9,-269.29 239.9,-277.89"/>
<polygon fill="#000000" stroke="#000000" points="236.4,-277.9 239.9,-287.9 243.4,-277.9 236.4,-277.9"/>
</g>
<!-- Allomorph -->
<g id="node6" class="node">
<title>Allomorph</title>
<g id="a_node6"><a xlink:href="/type/Allomorph" xlink:title="Allomorph">
<ellipse fill="none" stroke="#000000" cx="316.9" cy="-90" rx="50.09" ry="18"/>
<text text-anchor="middle" x="316.9" y="-86.3" font-family="FreeSans" font-size="14.00" fill="#000000">Allomorph</text>
</a>
</g>
</g>
<!-- Allomorph&#45;&gt;Str -->
<g id="edge4" class="edge">
<title>Allomorph&#45;&gt;Str</title>
<path fill="none" stroke="#000000" d="M317.39,-108.3C317.61,-116.02 317.88,-125.29 318.12,-133.89"/>
<polygon fill="#000000" stroke="#000000" points="314.62,-134 318.41,-143.9 321.62,-133.8 314.62,-134"/>
</g>
<!-- Numeric -->
<g id="node7" class="node">
<title>Numeric</title>
<g id="a_node7"><a xlink:href="/type/Numeric" xlink:title="Numeric">
<ellipse fill="none" stroke="#6666ff" cx="365.9" cy="-306" rx="44.39" ry="18"/>
<text text-anchor="middle" x="365.9" y="-302.3" font-family="FreeSans" font-size="14.00" fill="#6666ff">Numeric</text>
</a>
</g>
</g>
<!-- Real -->
<g id="node8" class="node">
<title>Real</title>
<g id="a_node8"><a xlink:href="/type/Real" xlink:title="Real">
<ellipse fill="none" stroke="#6666ff" cx="150.9" cy="-234" rx="28.7" ry="18"/>
<text text-anchor="middle" x="150.9" y="-230.3" font-family="FreeSans" font-size="14.00" fill="#6666ff">Real</text>
</a>
</g>
</g>
<!-- Real&#45;&gt;Numeric -->
<g id="edge18" class="edge">
<title>Real&#45;&gt;Numeric</title>
<path fill="none" stroke="#6666ff" d="M175.5,-243.2C188.54,-247.55 201.9,-252 201.9,-252 201.9,-252 274.05,-275.32 322.64,-291.02"/>
<polygon fill="#6666ff" stroke="#6666ff" points="321.72,-294.4 332.31,-294.15 323.87,-287.74 321.72,-294.4"/>
</g>
<!-- Rational -->
<g id="node9" class="node">
<title>Rational</title>
<g id="a_node9"><a xlink:href="/type/Rational" xlink:title="Rational">
<ellipse fill="none" stroke="#6666ff" cx="42.9" cy="-162" rx="42.79" ry="18"/>
<text text-anchor="middle" x="42.9" y="-158.3" font-family="FreeSans" font-size="14.00" fill="#6666ff">Rational</text>
</a>
</g>
</g>
<!-- Rational&#45;&gt;Real -->
<g id="edge19" class="edge">
<title>Rational&#45;&gt;Real</title>
<path fill="none" stroke="#6666ff" d="M65.27,-177.5C81.9,-188.28 104.7,-203.06 122.59,-214.66"/>
<polygon fill="#6666ff" stroke="#6666ff" points="121.15,-217.89 131.44,-220.39 124.96,-212.02 121.15,-217.89"/>
</g>
<!-- Rat -->
<g id="node10" class="node">
<title>Rat</title>
<g id="a_node10"><a xlink:href="/type/Rat" xlink:title="Rat">
<ellipse fill="none" stroke="#000000" cx="183.9" cy="-90" rx="27" ry="18"/>
<text text-anchor="middle" x="183.9" y="-86.3" font-family="FreeSans" font-size="14.00" fill="#000000">Rat</text>
</a>
</g>
</g>
<!-- Rat&#45;&gt;Cool -->
<g id="edge5" class="edge">
<title>Rat&#45;&gt;Cool</title>
<path fill="none" stroke="#000000" d="M199.61,-104.65C217.68,-120.35 244.9,-144 244.9,-144 244.9,-144 244.9,-180 244.9,-180 244.9,-180 243.7,-192.73 242.47,-205.71"/>
<polygon fill="#000000" stroke="#000000" points="238.96,-205.65 241.51,-215.94 245.93,-206.31 238.96,-205.65"/>
</g>
<!-- Rat&#45;&gt;Rational -->
<g id="edge20" class="edge">
<title>Rat&#45;&gt;Rational</title>
<path fill="none" stroke="#6666ff" d="M162.79,-101.48C140.52,-112.53 105.05,-130.15 78.45,-143.35"/>
<polygon fill="#6666ff" stroke="#6666ff" points="76.85,-140.24 69.45,-147.82 79.96,-146.51 76.85,-140.24"/>
</g>
<!-- RatStr -->
<g id="node11" class="node">
<title>RatStr</title>
<g id="a_node11"><a xlink:href="/type/RatStr" xlink:title="RatStr">
<ellipse fill="none" stroke="#000000" cx="201.9" cy="-18" rx="36" ry="18"/>
<text text-anchor="middle" x="201.9" y="-14.3" font-family="FreeSans" font-size="14.00" fill="#000000">RatStr</text>
</a>
</g>
</g>
<!-- RatStr&#45;&gt;Allomorph -->
<g id="edge6" class="edge">
<title>RatStr&#45;&gt;Allomorph</title>
<path fill="none" stroke="#000000" d="M223.8,-32.33C240.68,-42.6 264.3,-56.98 283.53,-68.69"/>
<polygon fill="#000000" stroke="#000000" points="281.92,-71.81 292.29,-74.02 285.56,-65.83 281.92,-71.81"/>
</g>
<!-- RatStr&#45;&gt;Rat -->
<g id="edge7" class="edge">
<title>RatStr&#45;&gt;Rat</title>
<path fill="none" stroke="#000000" d="M197.54,-35.95C195.5,-43.86 193.03,-53.46 190.76,-62.31"/>
<polygon fill="#000000" stroke="#000000" points="187.31,-61.65 188.21,-72.21 194.09,-63.4 187.31,-61.65"/>
</g>
<!-- Complex -->
<g id="node12" class="node">
<title>Complex</title>
<g id="a_node12"><a xlink:href="/type/Complex" xlink:title="Complex">
<ellipse fill="none" stroke="#000000" cx="408.9" cy="-162" rx="45.49" ry="18"/>
<text text-anchor="middle" x="408.9" y="-158.3" font-family="FreeSans" font-size="14.00" fill="#000000">Complex</text>
</a>
</g>
</g>
<!-- Complex&#45;&gt;Cool -->
<g id="edge8" class="edge">
<title>Complex&#45;&gt;Cool</title>
<path fill="none" stroke="#000000" d="M378.18,-175.43C339.46,-191.09 277.9,-216 277.9,-216 277.9,-216 275.47,-217.09 271.83,-218.71"/>
<polygon fill="#000000" stroke="#000000" points="270.14,-215.64 262.44,-222.91 273,-222.03 270.14,-215.64"/>
</g>
<!-- Complex&#45;&gt;Numeric -->
<g id="edge21" class="edge">
<title>Complex&#45;&gt;Numeric</title>
<path fill="none" stroke="#6666ff" d="M403.71,-180.13C396.35,-204.44 382.8,-249.18 374.08,-277.99"/>
<polygon fill="#6666ff" stroke="#6666ff" points="370.65,-277.23 371.1,-287.81 377.35,-279.25 370.65,-277.23"/>
</g>
<!-- ComplexStr -->
<g id="node13" class="node">
<title>ComplexStr</title>
<g id="a_node13"><a xlink:href="/type/ComplexStr" xlink:title="ComplexStr">
<ellipse fill="none" stroke="#000000" cx="411.9" cy="-18" rx="56.59" ry="18"/>
<text text-anchor="middle" x="411.9" y="-14.3" font-family="FreeSans" font-size="14.00" fill="#000000">ComplexStr</text>
</a>
</g>
</g>
<!-- ComplexStr&#45;&gt;Allomorph -->
<g id="edge9" class="edge">
<title>ComplexStr&#45;&gt;Allomorph</title>
<path fill="none" stroke="#000000" d="M390.34,-34.88C377.25,-44.53 360.37,-56.96 346.1,-67.48"/>
<polygon fill="#000000" stroke="#000000" points="344.01,-64.67 338.04,-73.42 348.17,-70.31 344.01,-64.67"/>
</g>
<!-- ComplexStr&#45;&gt;Complex -->
<g id="edge10" class="edge">
<title>ComplexStr&#45;&gt;Complex</title>
<path fill="none" stroke="#000000" d="M411.53,-36.13C411.02,-60.33 410.08,-104.79 409.47,-133.61"/>
<polygon fill="#000000" stroke="#000000" points="405.97,-133.74 409.26,-143.81 412.97,-133.89 405.97,-133.74"/>
</g>
<!-- Num -->
<g id="node14" class="node">
<title>Num</title>
<g id="a_node14"><a xlink:href="/type/Num" xlink:title="Num">
<ellipse fill="none" stroke="#000000" cx="205.9" cy="-162" rx="29.8" ry="18"/>
<text text-anchor="middle" x="205.9" y="-158.3" font-family="FreeSans" font-size="14.00" fill="#000000">Num</text>
</a>
</g>
</g>
<!-- Num&#45;&gt;Cool -->
<g id="edge11" class="edge">
<title>Num&#45;&gt;Cool</title>
<path fill="none" stroke="#000000" d="M213.95,-179.59C217.98,-187.87 222.93,-198.08 227.43,-207.34"/>
<polygon fill="#000000" stroke="#000000" points="224.38,-209.06 231.9,-216.53 230.68,-206.01 224.38,-209.06"/>
</g>
<!-- Num&#45;&gt;Real -->
<g id="edge22" class="edge">
<title>Num&#45;&gt;Real</title>
<path fill="none" stroke="#6666ff" d="M193.69,-178.54C186.57,-187.6 177.44,-199.21 169.45,-209.39"/>
<polygon fill="#6666ff" stroke="#6666ff" points="166.49,-207.48 163.07,-217.51 172,-211.81 166.49,-207.48"/>
</g>
<!-- NumStr -->
<g id="node15" class="node">
<title>NumStr</title>
<g id="a_node15"><a xlink:href="/type/NumStr" xlink:title="NumStr">
<ellipse fill="none" stroke="#000000" cx="296.9" cy="-18" rx="40.89" ry="18"/>
<text text-anchor="middle" x="296.9" y="-14.3" font-family="FreeSans" font-size="14.00" fill="#000000">NumStr</text>
</a>
</g>
</g>
<!-- NumStr&#45;&gt;Allomorph -->
<g id="edge12" class="edge">
<title>NumStr&#45;&gt;Allomorph</title>
<path fill="none" stroke="#000000" d="M301.74,-35.95C303.96,-43.74 306.66,-53.18 309.16,-61.92"/>
<polygon fill="#000000" stroke="#000000" points="305.85,-63.07 311.96,-71.72 312.58,-61.15 305.85,-63.07"/>
</g>
<!-- NumStr&#45;&gt;Num -->
<g id="edge13" class="edge">
<title>NumStr&#45;&gt;Num</title>
<path fill="none" stroke="#000000" d="M284.77,-35.48C273.32,-51.04 257.9,-72 257.9,-72 257.9,-72 235.93,-109.59 220.55,-135.92"/>
<polygon fill="#000000" stroke="#000000" points="217.46,-134.28 215.43,-144.68 223.5,-137.81 217.46,-134.28"/>
</g>
<!-- Int -->
<g id="node16" class="node">
<title>Int</title>
<g id="a_node16"><a xlink:href="/type/Int" xlink:title="Int">
<ellipse fill="none" stroke="#000000" cx="130.9" cy="-162" rx="27" ry="18"/>
<text text-anchor="middle" x="130.9" y="-158.3" font-family="FreeSans" font-size="14.00" fill="#000000">Int</text>
</a>
</g>
</g>
<!-- Int&#45;&gt;Cool -->
<g id="edge14" class="edge">
<title>Int&#45;&gt;Cool</title>
<path fill="none" stroke="#000000" d="M149.88,-175.19C167.02,-186.2 192.46,-202.53 211.92,-215.03"/>
<polygon fill="#000000" stroke="#000000" points="210.09,-218.02 220.39,-220.48 213.87,-212.13 210.09,-218.02"/>
</g>
<!-- Int&#45;&gt;Real -->
<g id="edge23" class="edge">
<title>Int&#45;&gt;Real</title>
<path fill="none" stroke="#6666ff" d="M135.74,-179.95C138,-187.86 140.74,-197.46 143.27,-206.31"/>
<polygon fill="#6666ff" stroke="#6666ff" points="139.99,-207.56 146.1,-216.21 146.72,-205.63 139.99,-207.56"/>
</g>
<!-- IntStr -->
<g id="node17" class="node">
<title>IntStr</title>
<g id="a_node17"><a xlink:href="/type/IntStr" xlink:title="IntStr">
<ellipse fill="none" stroke="#000000" cx="115.9" cy="-18" rx="31.7" ry="18"/>
<text text-anchor="middle" x="115.9" y="-14.3" font-family="FreeSans" font-size="14.00" fill="#000000">IntStr</text>
</a>
</g>
</g>
<!-- IntStr&#45;&gt;Allomorph -->
<g id="edge15" class="edge">
<title>IntStr&#45;&gt;Allomorph</title>
<path fill="none" stroke="#000000" d="M141.16,-29.48C149.6,-32.97 156.9,-36 156.9,-36 156.9,-36 224.32,-58.33 271.63,-74"/>
<polygon fill="#000000" stroke="#000000" points="270.79,-77.42 281.39,-77.24 272.99,-70.77 270.79,-77.42"/>
</g>
<!-- IntStr&#45;&gt;Int -->
<g id="edge16" class="edge">
<title>IntStr&#45;&gt;Int</title>
<path fill="none" stroke="#000000" d="M117.71,-36.13C120.26,-60.33 124.96,-104.79 128,-133.61"/>
<polygon fill="#000000" stroke="#000000" points="124.55,-134.23 129.08,-143.81 131.51,-133.5 124.55,-134.23"/>
</g>
</g>
</svg>
