<?xml version="1.0" encoding="UTF-8" standalone="no"?>
<!DOCTYPE svg PUBLIC "-//W3C//DTD SVG 1.1//EN"
 "http://www.w3.org/Graphics/SVG/1.1/DTD/svg11.dtd">
<!-- Generated by graphviz version 2.43.0 (0)
 -->
<!-- Title: perl6&#45;type&#45;graph Pages: 1 -->
<svg width="938pt" height="404pt"
 viewBox="0.00 0.00 937.90 404.00" xmlns="http://www.w3.org/2000/svg" xmlns:xlink="http://www.w3.org/1999/xlink">
<g id="graph0" class="graph" transform="scale(1 1) rotate(0) translate(4 400)">
<title>perl6&#45;type&#45;graph</title>
<polygon fill="white" stroke="transparent" points="-4,4 -4,-400 933.9,-400 933.9,4 -4,4"/>
<!-- Stringy -->
<g id="node1" class="node">
<title>Stringy</title>
<g id="a_node1"><a xlink:href="/type/Stringy" xlink:title="Stringy">
<ellipse fill="none" stroke="#6666ff" cx="683.9" cy="-306" rx="38.19" ry="18"/>
<text text-anchor="middle" x="683.9" y="-302.3" font-family="FreeSans" font-size="14.00" fill="#6666ff">Stringy</text>
</a>
</g>
</g>
<!-- Positional -->
<g id="node2" class="node">
<title>Positional</title>
<g id="a_node2"><a xlink:href="/type/Positional" xlink:title="Positional">
<ellipse fill="none" stroke="#6666ff" cx="791.9" cy="-306" rx="48.99" ry="18"/>
<text text-anchor="middle" x="791.9" y="-302.3" font-family="FreeSans" font-size="14.00" fill="#6666ff">Positional</text>
</a>
</g>
</g>
<!-- Blob -->
<g id="node3" class="node">
<title>Blob</title>
<g id="a_node3"><a xlink:href="/type/Blob" xlink:title="Blob">
<ellipse fill="none" stroke="#6666ff" cx="815.9" cy="-234" rx="28.7" ry="18"/>
<text text-anchor="middle" x="815.9" y="-230.3" font-family="FreeSans" font-size="14.00" fill="#6666ff">Blob</text>
</a>
</g>
</g>
<!-- Blob&#45;&gt;Stringy -->
<g id="edge24" class="edge">
<title>Blob&#45;&gt;Stringy</title>
<path fill="none" stroke="#6666ff" d="M794.69,-246.25C773.88,-257.28 741.82,-274.28 717.54,-287.16"/>
<polygon fill="#6666ff" stroke="#6666ff" points="715.84,-284.1 708.65,-291.87 719.12,-290.28 715.84,-284.1"/>
</g>
<!-- Blob&#45;&gt;Positional -->
<g id="edge23" class="edge">
<title>Blob&#45;&gt;Positional</title>
<path fill="none" stroke="#6666ff" d="M810.09,-251.95C807.39,-259.82 804.11,-269.38 801.08,-278.21"/>
<polygon fill="#6666ff" stroke="#6666ff" points="797.75,-277.13 797.82,-287.72 804.37,-279.4 797.75,-277.13"/>
</g>
<!-- Mu -->
<g id="node4" class="node">
<title>Mu</title>
<g id="a_node4"><a xlink:href="/type/Mu" xlink:title="Mu">
<ellipse fill="none" stroke="#000000" cx="600.9" cy="-378" rx="27" ry="18"/>
<text text-anchor="middle" x="600.9" y="-374.3" font-family="FreeSans" font-size="14.00" fill="#000000">Mu</text>
</a>
</g>
</g>
<!-- Any -->
<g id="node5" class="node">
<title>Any</title>
<g id="a_node5"><a xlink:href="/type/Any" xlink:title="Any">
<ellipse fill="none" stroke="#000000" cx="600.9" cy="-306" rx="27" ry="18"/>
<text text-anchor="middle" x="600.9" y="-302.3" font-family="FreeSans" font-size="14.00" fill="#000000">Any</text>
</a>
</g>
</g>
<!-- Any&#45;&gt;Mu -->
<g id="edge1" class="edge">
<title>Any&#45;&gt;Mu</title>
<path fill="none" stroke="#000000" d="M600.9,-324.3C600.9,-332.02 600.9,-341.29 600.9,-349.89"/>
<polygon fill="#000000" stroke="#000000" points="597.4,-349.9 600.9,-359.9 604.4,-349.9 597.4,-349.9"/>
</g>
<!-- Cool -->
<g id="node6" class="node">
<title>Cool</title>
<g id="a_node6"><a xlink:href="/type/Cool" xlink:title="Cool">
<ellipse fill="none" stroke="#000000" cx="267.9" cy="-234" rx="28.7" ry="18"/>
<text text-anchor="middle" x="267.9" y="-230.3" font-family="FreeSans" font-size="14.00" fill="#000000">Cool</text>
</a>
</g>
</g>
<!-- Cool&#45;&gt;Any -->
<g id="edge2" class="edge">
<title>Cool&#45;&gt;Any</title>
<path fill="none" stroke="#000000" d="M293.98,-241.43C313.52,-246.24 336.9,-252 336.9,-252 336.9,-252 492.95,-283.33 565.09,-297.81"/>
<polygon fill="#000000" stroke="#000000" points="564.61,-301.28 575.1,-299.82 565.99,-294.42 564.61,-301.28"/>
</g>
<!-- Str -->
<g id="node7" class="node">
<title>Str</title>
<g id="a_node7"><a xlink:href="/type/Str" xlink:title="Str">
<ellipse fill="none" stroke="#000000" cx="318.9" cy="-162" rx="27" ry="18"/>
<text text-anchor="middle" x="318.9" y="-158.3" font-family="FreeSans" font-size="14.00" fill="#000000">Str</text>
</a>
</g>
</g>
<!-- Str&#45;&gt;Stringy -->
<g id="edge25" class="edge">
<title>Str&#45;&gt;Stringy</title>
<path fill="none" stroke="#6666ff" d="M340.25,-173.09C348.01,-176.75 354.9,-180 354.9,-180 354.9,-180 558.69,-257.43 645.49,-290.41"/>
<polygon fill="#6666ff" stroke="#6666ff" points="644.4,-293.74 654.99,-294.02 646.88,-287.19 644.4,-293.74"/>
</g>
<!-- Str&#45;&gt;Cool -->
<g id="edge3" class="edge">
<title>Str&#45;&gt;Cool</title>
<path fill="none" stroke="#000000" d="M307.58,-178.54C301.13,-187.38 292.91,-198.66 285.63,-208.66"/>
<polygon fill="#000000" stroke="#000000" points="282.6,-206.88 279.54,-217.02 288.25,-211 282.6,-206.88"/>
</g>
<!-- Uni -->
<g id="node8" class="node">
<title>Uni</title>
<g id="a_node8"><a xlink:href="/type/Uni" xlink:title="Uni">
<ellipse fill="none" stroke="#000000" cx="660.9" cy="-234" rx="27" ry="18"/>
<text text-anchor="middle" x="660.9" y="-230.3" font-family="FreeSans" font-size="14.00" fill="#000000">Uni</text>
</a>
</g>
</g>
<!-- Uni&#45;&gt;Stringy -->
<g id="edge27" class="edge">
<title>Uni&#45;&gt;Stringy</title>
<path fill="none" stroke="#6666ff" d="M666.46,-251.95C669.05,-259.82 672.19,-269.38 675.09,-278.21"/>
<polygon fill="#6666ff" stroke="#6666ff" points="671.77,-279.32 678.22,-287.72 678.42,-277.13 671.77,-279.32"/>
</g>
<!-- Uni&#45;&gt;Positional -->
<g id="edge26" class="edge">
<title>Uni&#45;&gt;Positional</title>
<path fill="none" stroke="#6666ff" d="M681.36,-245.94C701.4,-256.64 732.33,-273.17 756.38,-286.02"/>
<polygon fill="#6666ff" stroke="#6666ff" points="754.76,-289.12 765.23,-290.75 758.06,-282.95 754.76,-289.12"/>
</g>
<!-- Uni&#45;&gt;Any -->
<g id="edge4" class="edge">
<title>Uni&#45;&gt;Any</title>
<path fill="none" stroke="#000000" d="M647.88,-250.19C639.86,-259.55 629.42,-271.72 620.43,-282.21"/>
<polygon fill="#000000" stroke="#000000" points="617.74,-279.97 613.89,-289.84 623.06,-284.53 617.74,-279.97"/>
</g>
<!-- Allomorph -->
<g id="node9" class="node">
<title>Allomorph</title>
<g id="a_node9"><a xlink:href="/type/Allomorph" xlink:title="Allomorph">
<ellipse fill="none" stroke="#000000" cx="284.9" cy="-90" rx="50.09" ry="18"/>
<text text-anchor="middle" x="284.9" y="-86.3" font-family="FreeSans" font-size="14.00" fill="#000000">Allomorph</text>
</a>
</g>
</g>
<!-- Allomorph&#45;&gt;Str -->
<g id="edge5" class="edge">
<title>Allomorph&#45;&gt;Str</title>
<path fill="none" stroke="#000000" d="M293.13,-107.95C297.15,-116.23 302.08,-126.38 306.55,-135.58"/>
<polygon fill="#000000" stroke="#000000" points="303.46,-137.23 310.98,-144.69 309.75,-134.17 303.46,-137.23"/>
</g>
<!-- NFD -->
<g id="node10" class="node">
<title>NFD</title>
<g id="a_node10"><a xlink:href="/type/NFD" xlink:title="NFD">
<ellipse fill="none" stroke="#000000" cx="577.9" cy="-162" rx="29.5" ry="18"/>
<text text-anchor="middle" x="577.9" y="-158.3" font-family="FreeSans" font-size="14.00" fill="#000000">NFD</text>
</a>
</g>
</g>
<!-- NFD&#45;&gt;Uni -->
<g id="edge6" class="edge">
<title>NFD&#45;&gt;Uni</title>
<path fill="none" stroke="#000000" d="M594.69,-177.17C606.77,-187.36 623.25,-201.25 636.74,-212.63"/>
<polygon fill="#000000" stroke="#000000" points="634.79,-215.56 644.69,-219.33 639.3,-210.21 634.79,-215.56"/>
</g>
<!-- NFKC -->
<g id="node11" class="node">
<title>NFKC</title>
<g id="a_node11"><a xlink:href="/type/NFKC" xlink:title="NFKC">
<ellipse fill="none" stroke="#000000" cx="660.9" cy="-162" rx="36" ry="18"/>
<text text-anchor="middle" x="660.9" y="-158.3" font-family="FreeSans" font-size="14.00" fill="#000000">NFKC</text>
</a>
</g>
</g>
<!-- NFKC&#45;&gt;Uni -->
<g id="edge7" class="edge">
<title>NFKC&#45;&gt;Uni</title>
<path fill="none" stroke="#000000" d="M660.9,-180.3C660.9,-188.02 660.9,-197.29 660.9,-205.89"/>
<polygon fill="#000000" stroke="#000000" points="657.4,-205.9 660.9,-215.9 664.4,-205.9 657.4,-205.9"/>
</g>
<!-- NFKD -->
<g id="node12" class="node">
<title>NFKD</title>
<g id="a_node12"><a xlink:href="/type/NFKD" xlink:title="NFKD">
<ellipse fill="none" stroke="#000000" cx="749.9" cy="-162" rx="36" ry="18"/>
<text text-anchor="middle" x="749.9" y="-158.3" font-family="FreeSans" font-size="14.00" fill="#000000">NFKD</text>
</a>
</g>
</g>
<!-- NFKD&#45;&gt;Uni -->
<g id="edge8" class="edge">
<title>NFKD&#45;&gt;Uni</title>
<path fill="none" stroke="#000000" d="M731.46,-177.5C718.26,-187.88 700.35,-201.97 685.87,-213.36"/>
<polygon fill="#000000" stroke="#000000" points="683.5,-210.77 677.81,-219.7 687.83,-216.27 683.5,-210.77"/>
</g>
<!-- NFC -->
<g id="node13" class="node">
<title>NFC</title>
<g id="a_node13"><a xlink:href="/type/NFC" xlink:title="NFC">
<ellipse fill="none" stroke="#000000" cx="501.9" cy="-162" rx="29.5" ry="18"/>
<text text-anchor="middle" x="501.9" y="-158.3" font-family="FreeSans" font-size="14.00" fill="#000000">NFC</text>
</a>
</g>
</g>
<!-- NFC&#45;&gt;Uni -->
<g id="edge9" class="edge">
<title>NFC&#45;&gt;Uni</title>
<path fill="none" stroke="#000000" d="M524.88,-173.28C532.88,-176.86 539.9,-180 539.9,-180 539.9,-180 593.55,-203.5 629.4,-219.21"/>
<polygon fill="#000000" stroke="#000000" points="628.42,-222.6 638.98,-223.4 631.23,-216.18 628.42,-222.6"/>
</g>
<!-- utf8 -->
<g id="node14" class="node">
<title>utf8</title>
<g id="a_node14"><a xlink:href="/type/utf8" xlink:title="utf8">
<ellipse fill="none" stroke="#000000" cx="830.9" cy="-162" rx="27" ry="18"/>
<text text-anchor="middle" x="830.9" y="-158.3" font-family="FreeSans" font-size="14.00" fill="#000000">utf8</text>
</a>
</g>
</g>
<!-- utf8&#45;&gt;Blob -->
<g id="edge28" class="edge">
<title>utf8&#45;&gt;Blob</title>
<path fill="none" stroke="#6666ff" d="M827.27,-179.95C825.59,-187.74 823.57,-197.18 821.7,-205.92"/>
<polygon fill="#6666ff" stroke="#6666ff" points="818.27,-205.21 819.6,-215.72 825.12,-206.68 818.27,-205.21"/>
</g>
<!-- utf8&#45;&gt;Any -->
<g id="edge10" class="edge">
<title>utf8&#45;&gt;Any</title>
<path fill="none" stroke="#000000" d="M812.26,-175.38C775.44,-199.83 696.9,-252 696.9,-252 696.9,-252 658.59,-273.15 630.37,-288.73"/>
<polygon fill="#000000" stroke="#000000" points="628.32,-285.86 621.26,-293.76 631.7,-291.99 628.32,-285.86"/>
</g>
<!-- Buf -->
<g id="node15" class="node">
<title>Buf</title>
<g id="a_node15"><a xlink:href="/type/Buf" xlink:title="Buf">
<ellipse fill="none" stroke="#6666ff" cx="902.9" cy="-162" rx="27" ry="18"/>
<text text-anchor="middle" x="902.9" y="-158.3" font-family="FreeSans" font-size="14.00" fill="#6666ff">Buf</text>
</a>
</g>
</g>
<!-- Buf&#45;&gt;Blob -->
<g id="edge29" class="edge">
<title>Buf&#45;&gt;Blob</title>
<path fill="none" stroke="#6666ff" d="M886.12,-176.5C873.33,-186.79 855.49,-201.14 841,-212.8"/>
<polygon fill="#6666ff" stroke="#6666ff" points="838.51,-210.31 832.92,-219.31 842.9,-215.76 838.51,-210.31"/>
</g>
<!-- Numeric -->
<g id="node16" class="node">
<title>Numeric</title>
<g id="a_node16"><a xlink:href="/type/Numeric" xlink:title="Numeric">
<ellipse fill="none" stroke="#6666ff" cx="271.9" cy="-306" rx="44.39" ry="18"/>
<text text-anchor="middle" x="271.9" y="-302.3" font-family="FreeSans" font-size="14.00" fill="#6666ff">Numeric</text>
</a>
</g>
</g>
<!-- Real -->
<g id="node17" class="node">
<title>Real</title>
<g id="a_node17"><a xlink:href="/type/Real" xlink:title="Real">
<ellipse fill="none" stroke="#6666ff" cx="140.9" cy="-234" rx="28.7" ry="18"/>
<text text-anchor="middle" x="140.9" y="-230.3" font-family="FreeSans" font-size="14.00" fill="#6666ff">Real</text>
</a>
</g>
</g>
<!-- Real&#45;&gt;Numeric -->
<g id="edge30" class="edge">
<title>Real&#45;&gt;Numeric</title>
<path fill="none" stroke="#6666ff" d="M161.94,-246.25C182.12,-257.03 212.95,-273.5 236.84,-286.27"/>
<polygon fill="#6666ff" stroke="#6666ff" points="235.47,-289.51 245.94,-291.13 238.77,-283.33 235.47,-289.51"/>
</g>
<!-- Rational -->
<g id="node18" class="node">
<title>Rational</title>
<g id="a_node18"><a xlink:href="/type/Rational" xlink:title="Rational">
<ellipse fill="none" stroke="#6666ff" cx="42.9" cy="-162" rx="42.79" ry="18"/>
<text text-anchor="middle" x="42.9" y="-158.3" font-family="FreeSans" font-size="14.00" fill="#6666ff">Rational</text>
</a>
</g>
</g>
<!-- Rational&#45;&gt;Real -->
<g id="edge31" class="edge">
<title>Rational&#45;&gt;Real</title>
<path fill="none" stroke="#6666ff" d="M63.68,-177.85C78.47,-188.41 98.46,-202.69 114.4,-214.08"/>
<polygon fill="#6666ff" stroke="#6666ff" points="112.61,-217.09 122.78,-220.06 116.68,-211.4 112.61,-217.09"/>
</g>
<!-- Rat -->
<g id="node19" class="node">
<title>Rat</title>
<g id="a_node19"><a xlink:href="/type/Rat" xlink:title="Rat">
<ellipse fill="none" stroke="#000000" cx="189.9" cy="-90" rx="27" ry="18"/>
<text text-anchor="middle" x="189.9" y="-86.3" font-family="FreeSans" font-size="14.00" fill="#000000">Rat</text>
</a>
</g>
</g>
<!-- Rat&#45;&gt;Cool -->
<g id="edge11" class="edge">
<title>Rat&#45;&gt;Cool</title>
<path fill="none" stroke="#000000" d="M193.95,-108.16C200.05,-134.02 210.9,-180 210.9,-180 210.9,-180 229.03,-196.86 244.84,-211.56"/>
<polygon fill="#000000" stroke="#000000" points="242.61,-214.27 252.32,-218.52 247.38,-209.14 242.61,-214.27"/>
</g>
<!-- Rat&#45;&gt;Rational -->
<g id="edge32" class="edge">
<title>Rat&#45;&gt;Rational</title>
<path fill="none" stroke="#6666ff" d="M168.52,-101.18C145.2,-112.28 107.45,-130.26 79.41,-143.61"/>
<polygon fill="#6666ff" stroke="#6666ff" points="77.83,-140.49 70.31,-147.95 80.84,-146.81 77.83,-140.49"/>
</g>
<!-- RatStr -->
<g id="node20" class="node">
<title>RatStr</title>
<g id="a_node20"><a xlink:href="/type/RatStr" xlink:title="RatStr">
<ellipse fill="none" stroke="#000000" cx="219.9" cy="-18" rx="36" ry="18"/>
<text text-anchor="middle" x="219.9" y="-14.3" font-family="FreeSans" font-size="14.00" fill="#000000">RatStr</text>
</a>
</g>
</g>
<!-- RatStr&#45;&gt;Allomorph -->
<g id="edge12" class="edge">
<title>RatStr&#45;&gt;Allomorph</title>
<path fill="none" stroke="#000000" d="M234.32,-34.54C242.67,-43.52 253.34,-55.02 262.73,-65.13"/>
<polygon fill="#000000" stroke="#000000" points="260.24,-67.59 269.61,-72.53 265.37,-62.82 260.24,-67.59"/>
</g>
<!-- RatStr&#45;&gt;Rat -->
<g id="edge13" class="edge">
<title>RatStr&#45;&gt;Rat</title>
<path fill="none" stroke="#000000" d="M212.63,-35.95C209.17,-44.03 204.95,-53.88 201.09,-62.89"/>
<polygon fill="#000000" stroke="#000000" points="197.81,-61.64 197.09,-72.21 204.25,-64.4 197.81,-61.64"/>
</g>
<!-- Complex -->
<g id="node21" class="node">
<title>Complex</title>
<g id="a_node21"><a xlink:href="/type/Complex" xlink:title="Complex">
<ellipse fill="none" stroke="#000000" cx="408.9" cy="-162" rx="45.49" ry="18"/>
<text text-anchor="middle" x="408.9" y="-158.3" font-family="FreeSans" font-size="14.00" fill="#000000">Complex</text>
</a>
</g>
</g>
<!-- Complex&#45;&gt;Cool -->
<g id="edge14" class="edge">
<title>Complex&#45;&gt;Cool</title>
<path fill="none" stroke="#000000" d="M381.71,-176.5C358.01,-188.26 323.65,-205.32 298.89,-217.62"/>
<polygon fill="#000000" stroke="#000000" points="297.31,-214.49 289.91,-222.07 300.42,-220.76 297.31,-214.49"/>
</g>
<!-- Complex&#45;&gt;Numeric -->
<g id="edge33" class="edge">
<title>Complex&#45;&gt;Numeric</title>
<path fill="none" stroke="#6666ff" d="M393.45,-179.01C369.29,-204.05 322.47,-252.58 294.51,-281.56"/>
<polygon fill="#6666ff" stroke="#6666ff" points="291.92,-279.2 287.5,-288.83 296.96,-284.06 291.92,-279.2"/>
</g>
<!-- ComplexStr -->
<g id="node22" class="node">
<title>ComplexStr</title>
<g id="a_node22"><a xlink:href="/type/ComplexStr" xlink:title="ComplexStr">
<ellipse fill="none" stroke="#000000" cx="411.9" cy="-18" rx="56.59" ry="18"/>
<text text-anchor="middle" x="411.9" y="-14.3" font-family="FreeSans" font-size="14.00" fill="#000000">ComplexStr</text>
</a>
</g>
</g>
<!-- ComplexStr&#45;&gt;Allomorph -->
<g id="edge15" class="edge">
<title>ComplexStr&#45;&gt;Allomorph</title>
<path fill="none" stroke="#000000" d="M384.96,-33.85C366.15,-44.22 340.83,-58.17 320.37,-69.45"/>
<polygon fill="#000000" stroke="#000000" points="318.42,-66.52 311.36,-74.42 321.8,-72.65 318.42,-66.52"/>
</g>
<!-- ComplexStr&#45;&gt;Complex -->
<g id="edge16" class="edge">
<title>ComplexStr&#45;&gt;Complex</title>
<path fill="none" stroke="#000000" d="M411.53,-36.13C411.02,-60.33 410.08,-104.79 409.47,-133.61"/>
<polygon fill="#000000" stroke="#000000" points="405.97,-133.74 409.26,-143.81 412.97,-133.89 405.97,-133.74"/>
</g>
<!-- Num -->
<g id="node23" class="node">
<title>Num</title>
<g id="a_node23"><a xlink:href="/type/Num" xlink:title="Num">
<ellipse fill="none" stroke="#000000" cx="133.9" cy="-162" rx="29.8" ry="18"/>
<text text-anchor="middle" x="133.9" y="-158.3" font-family="FreeSans" font-size="14.00" fill="#000000">Num</text>
</a>
</g>
</g>
<!-- Num&#45;&gt;Cool -->
<g id="edge17" class="edge">
<title>Num&#45;&gt;Cool</title>
<path fill="none" stroke="#000000" d="M155.72,-174.4C177.95,-186.01 212.59,-204.11 237.5,-217.12"/>
<polygon fill="#000000" stroke="#000000" points="236.04,-220.31 246.52,-221.83 239.28,-214.1 236.04,-220.31"/>
</g>
<!-- Num&#45;&gt;Real -->
<g id="edge34" class="edge">
<title>Num&#45;&gt;Real</title>
<path fill="none" stroke="#6666ff" d="M135.63,-180.3C136.4,-188.02 137.32,-197.29 138.18,-205.89"/>
<polygon fill="#6666ff" stroke="#6666ff" points="134.71,-206.29 139.19,-215.9 141.67,-205.6 134.71,-206.29"/>
</g>
<!-- NumStr -->
<g id="node24" class="node">
<title>NumStr</title>
<g id="a_node24"><a xlink:href="/type/NumStr" xlink:title="NumStr">
<ellipse fill="none" stroke="#000000" cx="124.9" cy="-18" rx="40.89" ry="18"/>
<text text-anchor="middle" x="124.9" y="-14.3" font-family="FreeSans" font-size="14.00" fill="#000000">NumStr</text>
</a>
</g>
</g>
<!-- NumStr&#45;&gt;Allomorph -->
<g id="edge18" class="edge">
<title>NumStr&#45;&gt;Allomorph</title>
<path fill="none" stroke="#000000" d="M152.77,-31.19C178.27,-42.35 216.28,-58.98 245,-71.54"/>
<polygon fill="#000000" stroke="#000000" points="243.78,-74.83 254.35,-75.64 246.59,-68.42 243.78,-74.83"/>
</g>
<!-- NumStr&#45;&gt;Num -->
<g id="edge19" class="edge">
<title>NumStr&#45;&gt;Num</title>
<path fill="none" stroke="#000000" d="M125.98,-36.13C127.52,-60.33 130.33,-104.79 132.16,-133.61"/>
<polygon fill="#000000" stroke="#000000" points="128.68,-134.05 132.81,-143.81 135.67,-133.61 128.68,-134.05"/>
</g>
<!-- Int -->
<g id="node25" class="node">
<title>Int</title>
<g id="a_node25"><a xlink:href="/type/Int" xlink:title="Int">
<ellipse fill="none" stroke="#000000" cx="246.9" cy="-162" rx="27" ry="18"/>
<text text-anchor="middle" x="246.9" y="-158.3" font-family="FreeSans" font-size="14.00" fill="#000000">Int</text>
</a>
</g>
</g>
<!-- Int&#45;&gt;Cool -->
<g id="edge20" class="edge">
<title>Int&#45;&gt;Cool</title>
<path fill="none" stroke="#000000" d="M251.98,-179.95C254.38,-187.94 257.3,-197.67 259.98,-206.6"/>
<polygon fill="#000000" stroke="#000000" points="256.63,-207.64 262.86,-216.21 263.34,-205.63 256.63,-207.64"/>
</g>
<!-- Int&#45;&gt;Real -->
<g id="edge35" class="edge">
<title>Int&#45;&gt;Real</title>
<path fill="none" stroke="#6666ff" d="M228.43,-175.19C211.84,-186.15 187.25,-202.39 168.36,-214.87"/>
<polygon fill="#6666ff" stroke="#6666ff" points="166.28,-212.04 159.86,-220.48 170.14,-217.89 166.28,-212.04"/>
</g>
<!-- IntStr -->
<g id="node26" class="node">
<title>IntStr</title>
<g id="a_node26"><a xlink:href="/type/IntStr" xlink:title="IntStr">
<ellipse fill="none" stroke="#000000" cx="305.9" cy="-18" rx="31.7" ry="18"/>
<text text-anchor="middle" x="305.9" y="-14.3" font-family="FreeSans" font-size="14.00" fill="#000000">IntStr</text>
</a>
</g>
</g>
<!-- IntStr&#45;&gt;Allomorph -->
<g id="edge21" class="edge">
<title>IntStr&#45;&gt;Allomorph</title>
<path fill="none" stroke="#000000" d="M300.81,-35.95C298.47,-43.74 295.64,-53.18 293.02,-61.92"/>
<polygon fill="#000000" stroke="#000000" points="289.6,-61.14 290.08,-71.72 296.3,-63.15 289.6,-61.14"/>
</g>
<!-- IntStr&#45;&gt;Int -->
<g id="edge22" class="edge">
<title>IntStr&#45;&gt;Int</title>
<path fill="none" stroke="#000000" d="M317.3,-34.9C328.49,-50.51 343.9,-72 343.9,-72 343.9,-72 343.9,-108 343.9,-108 343.9,-108 304.85,-129.33 276.3,-144.93"/>
<polygon fill="#000000" stroke="#000000" points="274.56,-141.89 267.47,-149.76 277.92,-148.04 274.56,-141.89"/>
</g>
</g>
</svg>
