<?xml version="1.0" encoding="UTF-8" standalone="no"?>
<!DOCTYPE svg PUBLIC "-//W3C//DTD SVG 1.1//EN"
 "http://www.w3.org/Graphics/SVG/1.1/DTD/svg11.dtd">
<!-- Generated by graphviz version 2.43.0 (0)
 -->
<!-- Title: perl6&#45;type&#45;graph Pages: 1 -->
<svg width="254pt" height="260pt"
 viewBox="0.00 0.00 253.85 260.00" xmlns="http://www.w3.org/2000/svg" xmlns:xlink="http://www.w3.org/1999/xlink">
<g id="graph0" class="graph" transform="scale(1 1) rotate(0) translate(4 256)">
<title>perl6&#45;type&#45;graph</title>
<polygon fill="white" stroke="transparent" points="-4,4 -4,-256 249.85,-256 249.85,4 -4,4"/>
<!-- Systemic -->
<g id="node1" class="node">
<title>Systemic</title>
<g id="a_node1"><a xlink:href="/type/Systemic" xlink:title="Systemic">
<ellipse fill="none" stroke="#6666ff" cx="72" cy="-162" rx="46.29" ry="18"/>
<text text-anchor="middle" x="72" y="-158.3" font-family="FreeSans" font-size="14.00" fill="#6666ff">Systemic</text>
</a>
</g>
</g>
<!-- Mu -->
<g id="node2" class="node">
<title>Mu</title>
<g id="a_node2"><a xlink:href="/type/Mu" xlink:title="Mu">
<ellipse fill="none" stroke="#000000" cx="163" cy="-234" rx="27" ry="18"/>
<text text-anchor="middle" x="163" y="-230.3" font-family="FreeSans" font-size="14.00" fill="#000000">Mu</text>
</a>
</g>
</g>
<!-- Any -->
<g id="node3" class="node">
<title>Any</title>
<g id="a_node3"><a xlink:href="/type/Any" xlink:title="Any">
<ellipse fill="none" stroke="#000000" cx="163" cy="-162" rx="27" ry="18"/>
<text text-anchor="middle" x="163" y="-158.3" font-family="FreeSans" font-size="14.00" fill="#000000">Any</text>
</a>
</g>
</g>
<!-- Any&#45;&gt;Mu -->
<g id="edge1" class="edge">
<title>Any&#45;&gt;Mu</title>
<path fill="none" stroke="#000000" d="M163,-180.3C163,-188.02 163,-197.29 163,-205.89"/>
<polygon fill="#000000" stroke="#000000" points="159.5,-205.9 163,-215.9 166.5,-205.9 159.5,-205.9"/>
</g>
<!-- VM -->
<g id="node4" class="node">
<title>VM</title>
<g id="a_node4"><a xlink:href="/type/VM" xlink:title="VM">
<ellipse fill="none" stroke="#000000" cx="27" cy="-90" rx="27" ry="18"/>
<text text-anchor="middle" x="27" y="-86.3" font-family="FreeSans" font-size="14.00" fill="#000000">VM</text>
</a>
</g>
</g>
<!-- VM&#45;&gt;Systemic -->
<g id="edge6" class="edge">
<title>VM&#45;&gt;Systemic</title>
<path fill="none" stroke="#6666ff" d="M37.21,-106.88C42.69,-115.41 49.57,-126.11 55.77,-135.75"/>
<polygon fill="#6666ff" stroke="#6666ff" points="52.85,-137.68 61.2,-144.2 58.74,-133.9 52.85,-137.68"/>
</g>
<!-- VM&#45;&gt;Any -->
<g id="edge2" class="edge">
<title>VM&#45;&gt;Any</title>
<path fill="none" stroke="#000000" d="M47.66,-101.63C70.42,-113.35 107.24,-132.3 133.15,-145.63"/>
<polygon fill="#000000" stroke="#000000" points="131.66,-148.8 142.15,-150.27 134.86,-142.58 131.66,-148.8"/>
</g>
<!-- Compiler -->
<g id="node5" class="node">
<title>Compiler</title>
<g id="a_node5"><a xlink:href="/type/Compiler" xlink:title="Compiler">
<ellipse fill="none" stroke="#000000" cx="118" cy="-90" rx="46.29" ry="18"/>
<text text-anchor="middle" x="118" y="-86.3" font-family="FreeSans" font-size="14.00" fill="#000000">Compiler</text>
</a>
</g>
</g>
<!-- Compiler&#45;&gt;Systemic -->
<g id="edge7" class="edge">
<title>Compiler&#45;&gt;Systemic</title>
<path fill="none" stroke="#6666ff" d="M107.1,-107.59C101.62,-115.92 94.87,-126.2 88.75,-135.51"/>
<polygon fill="#6666ff" stroke="#6666ff" points="85.71,-133.76 83.14,-144.04 91.56,-137.61 85.71,-133.76"/>
</g>
<!-- Compiler&#45;&gt;Any -->
<g id="edge3" class="edge">
<title>Compiler&#45;&gt;Any</title>
<path fill="none" stroke="#000000" d="M128.66,-107.59C134.18,-116.17 141.02,-126.81 147.14,-136.33"/>
<polygon fill="#000000" stroke="#000000" points="144.37,-138.49 152.72,-145.01 150.26,-134.71 144.37,-138.49"/>
</g>
<!-- Raku -->
<g id="node6" class="node">
<title>Raku</title>
<g id="a_node6"><a xlink:href="/type/Raku" xlink:title="Raku">
<ellipse fill="none" stroke="#000000" cx="214" cy="-90" rx="31.7" ry="18"/>
<text text-anchor="middle" x="214" y="-86.3" font-family="FreeSans" font-size="14.00" fill="#000000">Raku</text>
</a>
</g>
</g>
<!-- Raku&#45;&gt;Systemic -->
<g id="edge8" class="edge">
<title>Raku&#45;&gt;Systemic</title>
<path fill="none" stroke="#6666ff" d="M190.87,-102.4C168.61,-113.37 134.61,-130.14 108.66,-142.93"/>
<polygon fill="#6666ff" stroke="#6666ff" points="106.92,-139.88 99.5,-147.44 110.02,-146.16 106.92,-139.88"/>
</g>
<!-- Raku&#45;&gt;Any -->
<g id="edge4" class="edge">
<title>Raku&#45;&gt;Any</title>
<path fill="none" stroke="#000000" d="M202.43,-106.88C195.97,-115.74 187.8,-126.96 180.57,-136.88"/>
<polygon fill="#000000" stroke="#000000" points="177.59,-135.04 174.53,-145.18 183.24,-139.16 177.59,-135.04"/>
</g>
<!-- Perl -->
<g id="node7" class="node">
<title>Perl</title>
<g id="a_node7"><a xlink:href="/type/Perl" xlink:title="Perl">
<ellipse fill="none" stroke="#000000" cx="214" cy="-18" rx="27" ry="18"/>
<text text-anchor="middle" x="214" y="-14.3" font-family="FreeSans" font-size="14.00" fill="#000000">Perl</text>
</a>
</g>
</g>
<!-- Perl&#45;&gt;Raku -->
<g id="edge5" class="edge">
<title>Perl&#45;&gt;Raku</title>
<path fill="none" stroke="#000000" d="M214,-36.3C214,-44.02 214,-53.29 214,-61.89"/>
<polygon fill="#000000" stroke="#000000" points="210.5,-61.9 214,-71.9 217.5,-61.9 210.5,-61.9"/>
</g>
</g>
</svg>
