<?xml version="1.0" encoding="UTF-8" standalone="no"?>
<!DOCTYPE svg PUBLIC "-//W3C//DTD SVG 1.1//EN"
 "http://www.w3.org/Graphics/SVG/1.1/DTD/svg11.dtd">
<!-- Generated by graphviz version 2.43.0 (0)
 -->
<!-- Title: perl6&#45;type&#45;graph Pages: 1 -->
<svg width="261pt" height="188pt"
 viewBox="0.00 0.00 261.48 188.00" xmlns="http://www.w3.org/2000/svg" xmlns:xlink="http://www.w3.org/1999/xlink">
<g id="graph0" class="graph" transform="scale(1 1) rotate(0) translate(4 184)">
<title>perl6&#45;type&#45;graph</title>
<polygon fill="white" stroke="transparent" points="-4,4 -4,-184 257.48,-184 257.48,4 -4,4"/>
<!-- Telemetry::Instrument::Usage -->
<g id="node1" class="node">
<title>Telemetry::Instrument::Usage</title>
<g id="a_node1"><a xlink:href="/type/Telemetry::Instrument::Usage" xlink:title="Telemetry::Instrument::Usage">
<ellipse fill="none" stroke="#000000" cx="126.74" cy="-18" rx="126.98" ry="18"/>
<text text-anchor="middle" x="126.74" y="-14.3" font-family="FreeSans" font-size="14.00" fill="#000000">Telemetry::Instrument::Usage</text>
</a>
</g>
</g>
<!-- Any -->
<g id="node3" class="node">
<title>Any</title>
<g id="a_node3"><a xlink:href="/type/Any" xlink:title="Any">
<ellipse fill="none" stroke="#000000" cx="126.74" cy="-90" rx="27" ry="18"/>
<text text-anchor="middle" x="126.74" y="-86.3" font-family="FreeSans" font-size="14.00" fill="#000000">Any</text>
</a>
</g>
</g>
<!-- Telemetry::Instrument::Usage&#45;&gt;Any -->
<g id="edge1" class="edge">
<title>Telemetry::Instrument::Usage&#45;&gt;Any</title>
<path fill="none" stroke="#000000" d="M126.74,-36.3C126.74,-44.02 126.74,-53.29 126.74,-61.89"/>
<polygon fill="#000000" stroke="#000000" points="123.24,-61.9 126.74,-71.9 130.24,-61.9 123.24,-61.9"/>
</g>
<!-- Mu -->
<g id="node2" class="node">
<title>Mu</title>
<g id="a_node2"><a xlink:href="/type/Mu" xlink:title="Mu">
<ellipse fill="none" stroke="#000000" cx="126.74" cy="-162" rx="27" ry="18"/>
<text text-anchor="middle" x="126.74" y="-158.3" font-family="FreeSans" font-size="14.00" fill="#000000">Mu</text>
</a>
</g>
</g>
<!-- Any&#45;&gt;Mu -->
<g id="edge2" class="edge">
<title>Any&#45;&gt;Mu</title>
<path fill="none" stroke="#000000" d="M126.74,-108.3C126.74,-116.02 126.74,-125.29 126.74,-133.89"/>
<polygon fill="#000000" stroke="#000000" points="123.24,-133.9 126.74,-143.9 130.24,-133.9 123.24,-133.9"/>
</g>
</g>
</svg>
