<?xml version="1.0" encoding="UTF-8" standalone="no"?>
<!DOCTYPE svg PUBLIC "-//W3C//DTD SVG 1.1//EN"
 "http://www.w3.org/Graphics/SVG/1.1/DTD/svg11.dtd">
<!-- Generated by graphviz version 2.43.0 (0)
 -->
<!-- Title: perl6&#45;type&#45;graph Pages: 1 -->
<svg width="268pt" height="188pt"
 viewBox="0.00 0.00 267.98 188.00" xmlns="http://www.w3.org/2000/svg" xmlns:xlink="http://www.w3.org/1999/xlink">
<g id="graph0" class="graph" transform="scale(1 1) rotate(0) translate(4 184)">
<title>perl6&#45;type&#45;graph</title>
<polygon fill="white" stroke="transparent" points="-4,4 -4,-184 263.98,-184 263.98,4 -4,4"/>
<!-- Telemetry::Instrument::Thread -->
<g id="node1" class="node">
<title>Telemetry::Instrument::Thread</title>
<g id="a_node1"><a xlink:href="/type/Telemetry::Instrument::Thread" xlink:title="Telemetry::Instrument::Thread">
<ellipse fill="none" stroke="#000000" cx="129.99" cy="-18" rx="129.98" ry="18"/>
<text text-anchor="middle" x="129.99" y="-14.3" font-family="FreeSans" font-size="14.00" fill="#000000">Telemetry::Instrument::Thread</text>
</a>
</g>
</g>
<!-- Any -->
<g id="node3" class="node">
<title>Any</title>
<g id="a_node3"><a xlink:href="/type/Any" xlink:title="Any">
<ellipse fill="none" stroke="#000000" cx="129.99" cy="-90" rx="27" ry="18"/>
<text text-anchor="middle" x="129.99" y="-86.3" font-family="FreeSans" font-size="14.00" fill="#000000">Any</text>
</a>
</g>
</g>
<!-- Telemetry::Instrument::Thread&#45;&gt;Any -->
<g id="edge1" class="edge">
<title>Telemetry::Instrument::Thread&#45;&gt;Any</title>
<path fill="none" stroke="#000000" d="M129.99,-36.3C129.99,-44.02 129.99,-53.29 129.99,-61.89"/>
<polygon fill="#000000" stroke="#000000" points="126.49,-61.9 129.99,-71.9 133.49,-61.9 126.49,-61.9"/>
</g>
<!-- Mu -->
<g id="node2" class="node">
<title>Mu</title>
<g id="a_node2"><a xlink:href="/type/Mu" xlink:title="Mu">
<ellipse fill="none" stroke="#000000" cx="129.99" cy="-162" rx="27" ry="18"/>
<text text-anchor="middle" x="129.99" y="-158.3" font-family="FreeSans" font-size="14.00" fill="#000000">Mu</text>
</a>
</g>
</g>
<!-- Any&#45;&gt;Mu -->
<g id="edge2" class="edge">
<title>Any&#45;&gt;Mu</title>
<path fill="none" stroke="#000000" d="M129.99,-108.3C129.99,-116.02 129.99,-125.29 129.99,-133.89"/>
<polygon fill="#000000" stroke="#000000" points="126.49,-133.9 129.99,-143.9 133.49,-133.9 126.49,-133.9"/>
</g>
</g>
</svg>
