<?xml version="1.0" encoding="UTF-8" standalone="no"?>
<!DOCTYPE svg PUBLIC "-//W3C//DTD SVG 1.1//EN"
 "http://www.w3.org/Graphics/SVG/1.1/DTD/svg11.dtd">
<!-- Generated by graphviz version 2.43.0 (0)
 -->
<!-- Title: perl6&#45;type&#45;graph Pages: 1 -->
<svg width="202pt" height="188pt"
 viewBox="0.00 0.00 202.24 188.00" xmlns="http://www.w3.org/2000/svg" xmlns:xlink="http://www.w3.org/1999/xlink">
<g id="graph0" class="graph" transform="scale(1 1) rotate(0) translate(4 184)">
<title>perl6&#45;type&#45;graph</title>
<polygon fill="white" stroke="transparent" points="-4,4 -4,-184 198.24,-184 198.24,4 -4,4"/>
<!-- ThreadPoolScheduler -->
<g id="node1" class="node">
<title>ThreadPoolScheduler</title>
<g id="a_node1"><a xlink:href="/type/ThreadPoolScheduler" xlink:title="ThreadPoolScheduler">
<ellipse fill="none" stroke="#000000" cx="96.19" cy="-18" rx="96.38" ry="18"/>
<text text-anchor="middle" x="96.19" y="-14.3" font-family="FreeSans" font-size="14.00" fill="#000000">ThreadPoolScheduler</text>
</a>
</g>
</g>
<!-- Any -->
<g id="node3" class="node">
<title>Any</title>
<g id="a_node3"><a xlink:href="/type/Any" xlink:title="Any">
<ellipse fill="none" stroke="#000000" cx="49.19" cy="-90" rx="27" ry="18"/>
<text text-anchor="middle" x="49.19" y="-86.3" font-family="FreeSans" font-size="14.00" fill="#000000">Any</text>
</a>
</g>
</g>
<!-- ThreadPoolScheduler&#45;&gt;Any -->
<g id="edge1" class="edge">
<title>ThreadPoolScheduler&#45;&gt;Any</title>
<path fill="none" stroke="#000000" d="M84.81,-35.95C78.99,-44.62 71.8,-55.33 65.4,-64.85"/>
<polygon fill="#000000" stroke="#000000" points="62.49,-62.92 59.82,-73.17 68.3,-66.82 62.49,-62.92"/>
</g>
<!-- Scheduler -->
<g id="node4" class="node">
<title>Scheduler</title>
<g id="a_node4"><a xlink:href="/type/Scheduler" xlink:title="Scheduler">
<ellipse fill="none" stroke="#6666ff" cx="144.19" cy="-90" rx="50.09" ry="18"/>
<text text-anchor="middle" x="144.19" y="-86.3" font-family="FreeSans" font-size="14.00" fill="#6666ff">Scheduler</text>
</a>
</g>
</g>
<!-- ThreadPoolScheduler&#45;&gt;Scheduler -->
<g id="edge3" class="edge">
<title>ThreadPoolScheduler&#45;&gt;Scheduler</title>
<path fill="none" stroke="#6666ff" d="M107.81,-35.95C113.53,-44.29 120.54,-54.51 126.88,-63.75"/>
<polygon fill="#6666ff" stroke="#6666ff" points="124.14,-65.94 132.68,-72.21 129.91,-61.98 124.14,-65.94"/>
</g>
<!-- Mu -->
<g id="node2" class="node">
<title>Mu</title>
<g id="a_node2"><a xlink:href="/type/Mu" xlink:title="Mu">
<ellipse fill="none" stroke="#000000" cx="49.19" cy="-162" rx="27" ry="18"/>
<text text-anchor="middle" x="49.19" y="-158.3" font-family="FreeSans" font-size="14.00" fill="#000000">Mu</text>
</a>
</g>
</g>
<!-- Any&#45;&gt;Mu -->
<g id="edge2" class="edge">
<title>Any&#45;&gt;Mu</title>
<path fill="none" stroke="#000000" d="M49.19,-108.3C49.19,-116.02 49.19,-125.29 49.19,-133.89"/>
<polygon fill="#000000" stroke="#000000" points="45.69,-133.9 49.19,-143.9 52.69,-133.9 45.69,-133.9"/>
</g>
</g>
</svg>
