<?xml version="1.0" encoding="UTF-8" standalone="no"?>
<!DOCTYPE svg PUBLIC "-//W3C//DTD SVG 1.1//EN"
 "http://www.w3.org/Graphics/SVG/1.1/DTD/svg11.dtd">
<!-- Generated by graphviz version 2.43.0 (0)
 -->
<!-- Title: perl6&#45;type&#45;graph Pages: 1 -->
<svg width="321pt" height="260pt"
 viewBox="0.00 0.00 321.49 260.00" xmlns="http://www.w3.org/2000/svg" xmlns:xlink="http://www.w3.org/1999/xlink">
<g id="graph0" class="graph" transform="scale(1 1) rotate(0) translate(4 256)">
<title>perl6&#45;type&#45;graph</title>
<polygon fill="white" stroke="transparent" points="-4,4 -4,-256 317.49,-256 317.49,4 -4,4"/>
<!-- Uni -->
<g id="node1" class="node">
<title>Uni</title>
<g id="a_node1"><a xlink:href="/type/Uni" xlink:title="Uni">
<ellipse fill="none" stroke="#000000" cx="156.25" cy="-90" rx="27" ry="18"/>
<text text-anchor="middle" x="156.25" y="-86.3" font-family="FreeSans" font-size="14.00" fill="#000000">Uni</text>
</a>
</g>
</g>
<!-- Any -->
<g id="node3" class="node">
<title>Any</title>
<g id="a_node3"><a xlink:href="/type/Any" xlink:title="Any">
<ellipse fill="none" stroke="#000000" cx="62.25" cy="-162" rx="27" ry="18"/>
<text text-anchor="middle" x="62.25" y="-158.3" font-family="FreeSans" font-size="14.00" fill="#000000">Any</text>
</a>
</g>
</g>
<!-- Uni&#45;&gt;Any -->
<g id="edge1" class="edge">
<title>Uni&#45;&gt;Any</title>
<path fill="none" stroke="#000000" d="M138.57,-104.17C124.3,-114.79 104.02,-129.89 87.96,-141.85"/>
<polygon fill="#000000" stroke="#000000" points="85.46,-139.35 79.53,-148.13 89.64,-144.96 85.46,-139.35"/>
</g>
<!-- Positional -->
<g id="node4" class="node">
<title>Positional</title>
<g id="a_node4"><a xlink:href="/type/Positional" xlink:title="Positional">
<ellipse fill="none" stroke="#6666ff" cx="156.25" cy="-162" rx="48.99" ry="18"/>
<text text-anchor="middle" x="156.25" y="-158.3" font-family="FreeSans" font-size="14.00" fill="#6666ff">Positional</text>
</a>
</g>
</g>
<!-- Uni&#45;&gt;Positional -->
<g id="edge7" class="edge">
<title>Uni&#45;&gt;Positional</title>
<path fill="none" stroke="#6666ff" d="M156.25,-108.3C156.25,-116.02 156.25,-125.29 156.25,-133.89"/>
<polygon fill="#6666ff" stroke="#6666ff" points="152.75,-133.9 156.25,-143.9 159.75,-133.9 152.75,-133.9"/>
</g>
<!-- Stringy -->
<g id="node5" class="node">
<title>Stringy</title>
<g id="a_node5"><a xlink:href="/type/Stringy" xlink:title="Stringy">
<ellipse fill="none" stroke="#6666ff" cx="261.25" cy="-162" rx="38.19" ry="18"/>
<text text-anchor="middle" x="261.25" y="-158.3" font-family="FreeSans" font-size="14.00" fill="#6666ff">Stringy</text>
</a>
</g>
</g>
<!-- Uni&#45;&gt;Stringy -->
<g id="edge8" class="edge">
<title>Uni&#45;&gt;Stringy</title>
<path fill="none" stroke="#6666ff" d="M175.02,-103.51C190.73,-113.99 213.44,-129.13 231.61,-141.24"/>
<polygon fill="#6666ff" stroke="#6666ff" points="229.85,-144.27 240.11,-146.91 233.73,-138.45 229.85,-144.27"/>
</g>
<!-- Mu -->
<g id="node2" class="node">
<title>Mu</title>
<g id="a_node2"><a xlink:href="/type/Mu" xlink:title="Mu">
<ellipse fill="none" stroke="#000000" cx="62.25" cy="-234" rx="27" ry="18"/>
<text text-anchor="middle" x="62.25" y="-230.3" font-family="FreeSans" font-size="14.00" fill="#000000">Mu</text>
</a>
</g>
</g>
<!-- Any&#45;&gt;Mu -->
<g id="edge2" class="edge">
<title>Any&#45;&gt;Mu</title>
<path fill="none" stroke="#000000" d="M62.25,-180.3C62.25,-188.02 62.25,-197.29 62.25,-205.89"/>
<polygon fill="#000000" stroke="#000000" points="58.75,-205.9 62.25,-215.9 65.75,-205.9 58.75,-205.9"/>
</g>
<!-- NFD -->
<g id="node6" class="node">
<title>NFD</title>
<g id="a_node6"><a xlink:href="/type/NFD" xlink:title="NFD">
<ellipse fill="none" stroke="#000000" cx="29.25" cy="-18" rx="29.5" ry="18"/>
<text text-anchor="middle" x="29.25" y="-14.3" font-family="FreeSans" font-size="14.00" fill="#000000">NFD</text>
</a>
</g>
</g>
<!-- NFD&#45;&gt;Uni -->
<g id="edge3" class="edge">
<title>NFD&#45;&gt;Uni</title>
<path fill="none" stroke="#000000" d="M50.22,-30.56C71.24,-42.15 103.77,-60.08 127.26,-73.02"/>
<polygon fill="#000000" stroke="#000000" points="125.64,-76.12 136.08,-77.89 129.02,-69.99 125.64,-76.12"/>
</g>
<!-- NFKC -->
<g id="node7" class="node">
<title>NFKC</title>
<g id="a_node7"><a xlink:href="/type/NFKC" xlink:title="NFKC">
<ellipse fill="none" stroke="#000000" cx="112.25" cy="-18" rx="36" ry="18"/>
<text text-anchor="middle" x="112.25" y="-14.3" font-family="FreeSans" font-size="14.00" fill="#000000">NFKC</text>
</a>
</g>
</g>
<!-- NFKC&#45;&gt;Uni -->
<g id="edge4" class="edge">
<title>NFKC&#45;&gt;Uni</title>
<path fill="none" stroke="#000000" d="M122.67,-35.59C128.07,-44.17 134.76,-54.81 140.74,-64.33"/>
<polygon fill="#000000" stroke="#000000" points="137.91,-66.41 146.2,-73.01 143.84,-62.68 137.91,-66.41"/>
</g>
<!-- NFKD -->
<g id="node8" class="node">
<title>NFKD</title>
<g id="a_node8"><a xlink:href="/type/NFKD" xlink:title="NFKD">
<ellipse fill="none" stroke="#000000" cx="201.25" cy="-18" rx="36" ry="18"/>
<text text-anchor="middle" x="201.25" y="-14.3" font-family="FreeSans" font-size="14.00" fill="#000000">NFKD</text>
</a>
</g>
</g>
<!-- NFKD&#45;&gt;Uni -->
<g id="edge5" class="edge">
<title>NFKD&#45;&gt;Uni</title>
<path fill="none" stroke="#000000" d="M190.81,-35.24C185.24,-43.89 178.28,-54.73 172.06,-64.4"/>
<polygon fill="#000000" stroke="#000000" points="169.09,-62.55 166.63,-72.85 174.98,-66.33 169.09,-62.55"/>
</g>
<!-- NFC -->
<g id="node9" class="node">
<title>NFC</title>
<g id="a_node9"><a xlink:href="/type/NFC" xlink:title="NFC">
<ellipse fill="none" stroke="#000000" cx="284.25" cy="-18" rx="29.5" ry="18"/>
<text text-anchor="middle" x="284.25" y="-14.3" font-family="FreeSans" font-size="14.00" fill="#000000">NFC</text>
</a>
</g>
</g>
<!-- NFC&#45;&gt;Uni -->
<g id="edge6" class="edge">
<title>NFC&#45;&gt;Uni</title>
<path fill="none" stroke="#000000" d="M263.11,-30.56C241.92,-42.15 209.14,-60.08 185.46,-73.02"/>
<polygon fill="#000000" stroke="#000000" points="183.66,-70.02 176.57,-77.89 187.02,-76.16 183.66,-70.02"/>
</g>
</g>
</svg>
