<?xml version="1.0" encoding="UTF-8" standalone="no"?>
<!DOCTYPE svg PUBLIC "-//W3C//DTD SVG 1.1//EN"
 "http://www.w3.org/Graphics/SVG/1.1/DTD/svg11.dtd">
<!-- Generated by graphviz version 2.43.0 (0)
 -->
<!-- Title: perl6&#45;type&#45;graph Pages: 1 -->
<svg width="272pt" height="188pt"
 viewBox="0.00 0.00 272.35 188.00" xmlns="http://www.w3.org/2000/svg" xmlns:xlink="http://www.w3.org/1999/xlink">
<g id="graph0" class="graph" transform="scale(1 1) rotate(0) translate(4 184)">
<title>perl6&#45;type&#45;graph</title>
<polygon fill="white" stroke="transparent" points="-4,4 -4,-184 268.35,-184 268.35,4 -4,4"/>
<!-- utf8 -->
<g id="node1" class="node">
<title>utf8</title>
<g id="a_node1"><a xlink:href="/type/utf8" xlink:title="utf8">
<ellipse fill="none" stroke="#000000" cx="74" cy="-18" rx="27" ry="18"/>
<text text-anchor="middle" x="74" y="-14.3" font-family="FreeSans" font-size="14.00" fill="#000000">utf8</text>
</a>
</g>
</g>
<!-- Any -->
<g id="node3" class="node">
<title>Any</title>
<g id="a_node3"><a xlink:href="/type/Any" xlink:title="Any">
<ellipse fill="none" stroke="#000000" cx="37" cy="-90" rx="27" ry="18"/>
<text text-anchor="middle" x="37" y="-86.3" font-family="FreeSans" font-size="14.00" fill="#000000">Any</text>
</a>
</g>
</g>
<!-- utf8&#45;&gt;Any -->
<g id="edge1" class="edge">
<title>utf8&#45;&gt;Any</title>
<path fill="none" stroke="#000000" d="M65.42,-35.24C60.94,-43.72 55.35,-54.29 50.32,-63.8"/>
<polygon fill="#000000" stroke="#000000" points="47.11,-62.38 45.54,-72.85 53.3,-65.65 47.11,-62.38"/>
</g>
<!-- Blob -->
<g id="node6" class="node">
<title>Blob</title>
<g id="a_node6"><a xlink:href="/type/Blob" xlink:title="Blob">
<ellipse fill="none" stroke="#6666ff" cx="121" cy="-90" rx="28.7" ry="18"/>
<text text-anchor="middle" x="121" y="-86.3" font-family="FreeSans" font-size="14.00" fill="#6666ff">Blob</text>
</a>
</g>
</g>
<!-- utf8&#45;&gt;Blob -->
<g id="edge3" class="edge">
<title>utf8&#45;&gt;Blob</title>
<path fill="none" stroke="#6666ff" d="M84.67,-34.88C90.55,-43.66 97.99,-54.74 104.61,-64.58"/>
<polygon fill="#6666ff" stroke="#6666ff" points="101.9,-66.83 110.38,-73.18 107.71,-62.93 101.9,-66.83"/>
</g>
<!-- Mu -->
<g id="node2" class="node">
<title>Mu</title>
<g id="a_node2"><a xlink:href="/type/Mu" xlink:title="Mu">
<ellipse fill="none" stroke="#000000" cx="27" cy="-162" rx="27" ry="18"/>
<text text-anchor="middle" x="27" y="-158.3" font-family="FreeSans" font-size="14.00" fill="#000000">Mu</text>
</a>
</g>
</g>
<!-- Any&#45;&gt;Mu -->
<g id="edge2" class="edge">
<title>Any&#45;&gt;Mu</title>
<path fill="none" stroke="#000000" d="M34.58,-107.95C33.48,-115.65 32.15,-124.97 30.91,-133.64"/>
<polygon fill="#000000" stroke="#000000" points="27.42,-133.33 29.47,-143.72 34.35,-134.32 27.42,-133.33"/>
</g>
<!-- Positional -->
<g id="node4" class="node">
<title>Positional</title>
<g id="a_node4"><a xlink:href="/type/Positional" xlink:title="Positional">
<ellipse fill="none" stroke="#6666ff" cx="121" cy="-162" rx="48.99" ry="18"/>
<text text-anchor="middle" x="121" y="-158.3" font-family="FreeSans" font-size="14.00" fill="#6666ff">Positional</text>
</a>
</g>
</g>
<!-- Stringy -->
<g id="node5" class="node">
<title>Stringy</title>
<g id="a_node5"><a xlink:href="/type/Stringy" xlink:title="Stringy">
<ellipse fill="none" stroke="#6666ff" cx="226" cy="-162" rx="38.19" ry="18"/>
<text text-anchor="middle" x="226" y="-158.3" font-family="FreeSans" font-size="14.00" fill="#6666ff">Stringy</text>
</a>
</g>
</g>
<!-- Blob&#45;&gt;Positional -->
<g id="edge4" class="edge">
<title>Blob&#45;&gt;Positional</title>
<path fill="none" stroke="#6666ff" d="M121,-108.3C121,-116.02 121,-125.29 121,-133.89"/>
<polygon fill="#6666ff" stroke="#6666ff" points="117.5,-133.9 121,-143.9 124.5,-133.9 117.5,-133.9"/>
</g>
<!-- Blob&#45;&gt;Stringy -->
<g id="edge5" class="edge">
<title>Blob&#45;&gt;Stringy</title>
<path fill="none" stroke="#6666ff" d="M140.26,-103.84C155.93,-114.29 178.31,-129.21 196.28,-141.19"/>
<polygon fill="#6666ff" stroke="#6666ff" points="194.43,-144.16 204.7,-146.8 198.32,-138.34 194.43,-144.16"/>
</g>
</g>
</svg>
