<?xml version="1.0" encoding="UTF-8" standalone="no"?>
<!DOCTYPE svg PUBLIC "-//W3C//DTD SVG 1.1//EN"
 "http://www.w3.org/Graphics/SVG/1.1/DTD/svg11.dtd">
<!-- Generated by graphviz version 2.43.0 (0)
 -->
<!-- Title: perl6&#45;type&#45;graph Pages: 1 -->
<svg width="120pt" height="260pt"
 viewBox="0.00 0.00 119.79 260.00" xmlns="http://www.w3.org/2000/svg" xmlns:xlink="http://www.w3.org/1999/xlink">
<g id="graph0" class="graph" transform="scale(1 1) rotate(0) translate(4 256)">
<title>perl6&#45;type&#45;graph</title>
<polygon fill="white" stroke="transparent" points="-4,4 -4,-256 115.79,-256 115.79,4 -4,4"/>
<!-- ValueObjAt -->
<g id="node1" class="node">
<title>ValueObjAt</title>
<g id="a_node1"><a xlink:href="/type/ValueObjAt" xlink:title="ValueObjAt">
<ellipse fill="none" stroke="#000000" cx="55.9" cy="-18" rx="55.79" ry="18"/>
<text text-anchor="middle" x="55.9" y="-14.3" font-family="FreeSans" font-size="14.00" fill="#000000">ValueObjAt</text>
</a>
</g>
</g>
<!-- ObjAt -->
<g id="node4" class="node">
<title>ObjAt</title>
<g id="a_node4"><a xlink:href="/type/ObjAt" xlink:title="ObjAt">
<ellipse fill="none" stroke="#000000" cx="55.9" cy="-90" rx="33.6" ry="18"/>
<text text-anchor="middle" x="55.9" y="-86.3" font-family="FreeSans" font-size="14.00" fill="#000000">ObjAt</text>
</a>
</g>
</g>
<!-- ValueObjAt&#45;&gt;ObjAt -->
<g id="edge1" class="edge">
<title>ValueObjAt&#45;&gt;ObjAt</title>
<path fill="none" stroke="#000000" d="M55.9,-36.3C55.9,-44.02 55.9,-53.29 55.9,-61.89"/>
<polygon fill="#000000" stroke="#000000" points="52.4,-61.9 55.9,-71.9 59.4,-61.9 52.4,-61.9"/>
</g>
<!-- Mu -->
<g id="node2" class="node">
<title>Mu</title>
<g id="a_node2"><a xlink:href="/type/Mu" xlink:title="Mu">
<ellipse fill="none" stroke="#000000" cx="55.9" cy="-234" rx="27" ry="18"/>
<text text-anchor="middle" x="55.9" y="-230.3" font-family="FreeSans" font-size="14.00" fill="#000000">Mu</text>
</a>
</g>
</g>
<!-- Any -->
<g id="node3" class="node">
<title>Any</title>
<g id="a_node3"><a xlink:href="/type/Any" xlink:title="Any">
<ellipse fill="none" stroke="#000000" cx="55.9" cy="-162" rx="27" ry="18"/>
<text text-anchor="middle" x="55.9" y="-158.3" font-family="FreeSans" font-size="14.00" fill="#000000">Any</text>
</a>
</g>
</g>
<!-- Any&#45;&gt;Mu -->
<g id="edge2" class="edge">
<title>Any&#45;&gt;Mu</title>
<path fill="none" stroke="#000000" d="M55.9,-180.3C55.9,-188.02 55.9,-197.29 55.9,-205.89"/>
<polygon fill="#000000" stroke="#000000" points="52.4,-205.9 55.9,-215.9 59.4,-205.9 52.4,-205.9"/>
</g>
<!-- ObjAt&#45;&gt;Any -->
<g id="edge3" class="edge">
<title>ObjAt&#45;&gt;Any</title>
<path fill="none" stroke="#000000" d="M55.9,-108.3C55.9,-116.02 55.9,-125.29 55.9,-133.89"/>
<polygon fill="#000000" stroke="#000000" points="52.4,-133.9 55.9,-143.9 59.4,-133.9 52.4,-133.9"/>
</g>
</g>
</svg>
