<?xml version="1.0" encoding="UTF-8" standalone="no"?>
<!DOCTYPE svg PUBLIC "-//W3C//DTD SVG 1.1//EN"
 "http://www.w3.org/Graphics/SVG/1.1/DTD/svg11.dtd">
<!-- Generated by graphviz version 2.43.0 (0)
 -->
<!-- Title: perl6&#45;type&#45;graph Pages: 1 -->
<svg width="172pt" height="188pt"
 viewBox="0.00 0.00 172.15 188.00" xmlns="http://www.w3.org/2000/svg" xmlns:xlink="http://www.w3.org/1999/xlink">
<g id="graph0" class="graph" transform="scale(1 1) rotate(0) translate(4 184)">
<title>perl6&#45;type&#45;graph</title>
<polygon fill="white" stroke="transparent" points="-4,4 -4,-184 168.15,-184 168.15,4 -4,4"/>
<!-- VM -->
<g id="node1" class="node">
<title>VM</title>
<g id="a_node1"><a xlink:href="/type/VM" xlink:title="VM">
<ellipse fill="none" stroke="#000000" cx="72" cy="-18" rx="27" ry="18"/>
<text text-anchor="middle" x="72" y="-14.3" font-family="FreeSans" font-size="14.00" fill="#000000">VM</text>
</a>
</g>
</g>
<!-- Any -->
<g id="node3" class="node">
<title>Any</title>
<g id="a_node3"><a xlink:href="/type/Any" xlink:title="Any">
<ellipse fill="none" stroke="#000000" cx="27" cy="-90" rx="27" ry="18"/>
<text text-anchor="middle" x="27" y="-86.3" font-family="FreeSans" font-size="14.00" fill="#000000">Any</text>
</a>
</g>
</g>
<!-- VM&#45;&gt;Any -->
<g id="edge1" class="edge">
<title>VM&#45;&gt;Any</title>
<path fill="none" stroke="#000000" d="M61.79,-34.88C56.15,-43.66 49.03,-54.74 42.7,-64.58"/>
<polygon fill="#000000" stroke="#000000" points="39.63,-62.87 37.17,-73.18 45.52,-66.66 39.63,-62.87"/>
</g>
<!-- Systemic -->
<g id="node4" class="node">
<title>Systemic</title>
<g id="a_node4"><a xlink:href="/type/Systemic" xlink:title="Systemic">
<ellipse fill="none" stroke="#6666ff" cx="118" cy="-90" rx="46.29" ry="18"/>
<text text-anchor="middle" x="118" y="-86.3" font-family="FreeSans" font-size="14.00" fill="#6666ff">Systemic</text>
</a>
</g>
</g>
<!-- VM&#45;&gt;Systemic -->
<g id="edge3" class="edge">
<title>VM&#45;&gt;Systemic</title>
<path fill="none" stroke="#6666ff" d="M82.44,-34.88C88.04,-43.41 95.07,-54.11 101.41,-63.75"/>
<polygon fill="#6666ff" stroke="#6666ff" points="98.54,-65.77 106.96,-72.2 104.39,-61.92 98.54,-65.77"/>
</g>
<!-- Mu -->
<g id="node2" class="node">
<title>Mu</title>
<g id="a_node2"><a xlink:href="/type/Mu" xlink:title="Mu">
<ellipse fill="none" stroke="#000000" cx="27" cy="-162" rx="27" ry="18"/>
<text text-anchor="middle" x="27" y="-158.3" font-family="FreeSans" font-size="14.00" fill="#000000">Mu</text>
</a>
</g>
</g>
<!-- Any&#45;&gt;Mu -->
<g id="edge2" class="edge">
<title>Any&#45;&gt;Mu</title>
<path fill="none" stroke="#000000" d="M27,-108.3C27,-116.02 27,-125.29 27,-133.89"/>
<polygon fill="#000000" stroke="#000000" points="23.5,-133.9 27,-143.9 30.5,-133.9 23.5,-133.9"/>
</g>
</g>
</svg>
