<?xml version="1.0" encoding="UTF-8" standalone="no"?>
<!DOCTYPE svg PUBLIC "-//W3C//DTD SVG 1.1//EN"
 "http://www.w3.org/Graphics/SVG/1.1/DTD/svg11.dtd">
<!-- Generated by graphviz version 2.43.0 (0)
 -->
<!-- Title: perl6&#45;type&#45;graph Pages: 1 -->
<svg width="164pt" height="260pt"
 viewBox="0.00 0.00 164.25 260.00" xmlns="http://www.w3.org/2000/svg" xmlns:xlink="http://www.w3.org/1999/xlink">
<g id="graph0" class="graph" transform="scale(1 1) rotate(0) translate(4 256)">
<title>perl6&#45;type&#45;graph</title>
<polygon fill="white" stroke="transparent" points="-4,4 -4,-256 160.25,-256 160.25,4 -4,4"/>
<!-- WhateverCode -->
<g id="node1" class="node">
<title>WhateverCode</title>
<g id="a_node1"><a xlink:href="/type/WhateverCode" xlink:title="WhateverCode">
<ellipse fill="none" stroke="#000000" cx="70" cy="-18" rx="69.59" ry="18"/>
<text text-anchor="middle" x="70" y="-14.3" font-family="FreeSans" font-size="14.00" fill="#000000">WhateverCode</text>
</a>
</g>
</g>
<!-- Code -->
<g id="node5" class="node">
<title>Code</title>
<g id="a_node5"><a xlink:href="/type/Code" xlink:title="Code">
<ellipse fill="none" stroke="#000000" cx="70" cy="-90" rx="31.7" ry="18"/>
<text text-anchor="middle" x="70" y="-86.3" font-family="FreeSans" font-size="14.00" fill="#000000">Code</text>
</a>
</g>
</g>
<!-- WhateverCode&#45;&gt;Code -->
<g id="edge1" class="edge">
<title>WhateverCode&#45;&gt;Code</title>
<path fill="none" stroke="#000000" d="M70,-36.3C70,-44.02 70,-53.29 70,-61.89"/>
<polygon fill="#000000" stroke="#000000" points="66.5,-61.9 70,-71.9 73.5,-61.9 66.5,-61.9"/>
</g>
<!-- Mu -->
<g id="node2" class="node">
<title>Mu</title>
<g id="a_node2"><a xlink:href="/type/Mu" xlink:title="Mu">
<ellipse fill="none" stroke="#000000" cx="27" cy="-234" rx="27" ry="18"/>
<text text-anchor="middle" x="27" y="-230.3" font-family="FreeSans" font-size="14.00" fill="#000000">Mu</text>
</a>
</g>
</g>
<!-- Any -->
<g id="node3" class="node">
<title>Any</title>
<g id="a_node3"><a xlink:href="/type/Any" xlink:title="Any">
<ellipse fill="none" stroke="#000000" cx="27" cy="-162" rx="27" ry="18"/>
<text text-anchor="middle" x="27" y="-158.3" font-family="FreeSans" font-size="14.00" fill="#000000">Any</text>
</a>
</g>
</g>
<!-- Any&#45;&gt;Mu -->
<g id="edge2" class="edge">
<title>Any&#45;&gt;Mu</title>
<path fill="none" stroke="#000000" d="M27,-180.3C27,-188.02 27,-197.29 27,-205.89"/>
<polygon fill="#000000" stroke="#000000" points="23.5,-205.9 27,-215.9 30.5,-205.9 23.5,-205.9"/>
</g>
<!-- Callable -->
<g id="node4" class="node">
<title>Callable</title>
<g id="a_node4"><a xlink:href="/type/Callable" xlink:title="Callable">
<ellipse fill="none" stroke="#6666ff" cx="114" cy="-162" rx="42.49" ry="18"/>
<text text-anchor="middle" x="114" y="-158.3" font-family="FreeSans" font-size="14.00" fill="#6666ff">Callable</text>
</a>
</g>
</g>
<!-- Code&#45;&gt;Any -->
<g id="edge3" class="edge">
<title>Code&#45;&gt;Any</title>
<path fill="none" stroke="#000000" d="M60.03,-107.24C54.76,-115.81 48.19,-126.51 42.3,-136.1"/>
<polygon fill="#000000" stroke="#000000" points="39.17,-134.5 36.92,-144.85 45.14,-138.16 39.17,-134.5"/>
</g>
<!-- Code&#45;&gt;Callable -->
<g id="edge4" class="edge">
<title>Code&#45;&gt;Callable</title>
<path fill="none" stroke="#6666ff" d="M80.21,-107.24C85.51,-115.68 92.13,-126.2 98.09,-135.69"/>
<polygon fill="#6666ff" stroke="#6666ff" points="95.26,-137.76 103.54,-144.37 101.19,-134.04 95.26,-137.76"/>
</g>
</g>
</svg>
