<?xml version="1.0" encoding="UTF-8" standalone="no"?>
<!DOCTYPE svg PUBLIC "-//W3C//DTD SVG 1.1//EN"
 "http://www.w3.org/Graphics/SVG/1.1/DTD/svg11.dtd">
<!-- Generated by graphviz version 2.43.0 (0)
 -->
<!-- Title: perl6&#45;type&#45;graph Pages: 1 -->
<svg width="250pt" height="332pt"
 viewBox="0.00 0.00 249.94 332.00" xmlns="http://www.w3.org/2000/svg" xmlns:xlink="http://www.w3.org/1999/xlink">
<g id="graph0" class="graph" transform="scale(1 1) rotate(0) translate(4 328)">
<title>perl6&#45;type&#45;graph</title>
<polygon fill="white" stroke="transparent" points="-4,4 -4,-328 245.94,-328 245.94,4 -4,4"/>
<!-- X::AdHoc -->
<g id="node1" class="node">
<title>X::AdHoc</title>
<g id="a_node1"><a xlink:href="/type/X::AdHoc" xlink:title="X::AdHoc">
<ellipse fill="none" stroke="#000000" cx="48.1" cy="-90" rx="48.19" ry="18"/>
<text text-anchor="middle" x="48.1" y="-86.3" font-family="FreeSans" font-size="14.00" fill="#000000">X::AdHoc</text>
</a>
</g>
</g>
<!-- Exception -->
<g id="node4" class="node">
<title>Exception</title>
<g id="a_node4"><a xlink:href="/type/Exception" xlink:title="Exception">
<ellipse fill="none" stroke="#000000" cx="124.1" cy="-162" rx="49.29" ry="18"/>
<text text-anchor="middle" x="124.1" y="-158.3" font-family="FreeSans" font-size="14.00" fill="#000000">Exception</text>
</a>
</g>
</g>
<!-- X::AdHoc&#45;&gt;Exception -->
<g id="edge1" class="edge">
<title>X::AdHoc&#45;&gt;Exception</title>
<path fill="none" stroke="#000000" d="M65.34,-106.88C75.38,-116.13 88.2,-127.93 99.3,-138.16"/>
<polygon fill="#000000" stroke="#000000" points="96.93,-140.74 106.66,-144.94 101.67,-135.59 96.93,-140.74"/>
</g>
<!-- Mu -->
<g id="node2" class="node">
<title>Mu</title>
<g id="a_node2"><a xlink:href="/type/Mu" xlink:title="Mu">
<ellipse fill="none" stroke="#000000" cx="124.1" cy="-306" rx="27" ry="18"/>
<text text-anchor="middle" x="124.1" y="-302.3" font-family="FreeSans" font-size="14.00" fill="#000000">Mu</text>
</a>
</g>
</g>
<!-- Any -->
<g id="node3" class="node">
<title>Any</title>
<g id="a_node3"><a xlink:href="/type/Any" xlink:title="Any">
<ellipse fill="none" stroke="#000000" cx="124.1" cy="-234" rx="27" ry="18"/>
<text text-anchor="middle" x="124.1" y="-230.3" font-family="FreeSans" font-size="14.00" fill="#000000">Any</text>
</a>
</g>
</g>
<!-- Any&#45;&gt;Mu -->
<g id="edge2" class="edge">
<title>Any&#45;&gt;Mu</title>
<path fill="none" stroke="#000000" d="M124.1,-252.3C124.1,-260.02 124.1,-269.29 124.1,-277.89"/>
<polygon fill="#000000" stroke="#000000" points="120.6,-277.9 124.1,-287.9 127.6,-277.9 120.6,-277.9"/>
</g>
<!-- Exception&#45;&gt;Any -->
<g id="edge3" class="edge">
<title>Exception&#45;&gt;Any</title>
<path fill="none" stroke="#000000" d="M124.1,-180.3C124.1,-188.02 124.1,-197.29 124.1,-205.89"/>
<polygon fill="#000000" stroke="#000000" points="120.6,-205.9 124.1,-215.9 127.6,-205.9 120.6,-205.9"/>
</g>
<!-- X::Comp -->
<g id="node5" class="node">
<title>X::Comp</title>
<g id="a_node5"><a xlink:href="/type/X::Comp" xlink:title="X::Comp">
<ellipse fill="none" stroke="#6666ff" cx="197.1" cy="-90" rx="44.69" ry="18"/>
<text text-anchor="middle" x="197.1" y="-86.3" font-family="FreeSans" font-size="14.00" fill="#6666ff">X::Comp</text>
</a>
</g>
</g>
<!-- X::Comp&#45;&gt;Exception -->
<g id="edge4" class="edge">
<title>X::Comp&#45;&gt;Exception</title>
<path fill="none" stroke="#000000" d="M180.53,-106.88C170.99,-116.04 158.82,-127.71 148.22,-137.87"/>
<polygon fill="#000000" stroke="#000000" points="145.64,-135.49 140.85,-144.94 150.49,-140.54 145.64,-135.49"/>
</g>
<!-- X::Comp::AdHoc -->
<g id="node6" class="node">
<title>X::Comp::AdHoc</title>
<g id="a_node6"><a xlink:href="/type/X::Comp::AdHoc" xlink:title="X::Comp::AdHoc">
<ellipse fill="none" stroke="#000000" cx="124.1" cy="-18" rx="76.09" ry="18"/>
<text text-anchor="middle" x="124.1" y="-14.3" font-family="FreeSans" font-size="14.00" fill="#000000">X::Comp::AdHoc</text>
</a>
</g>
</g>
<!-- X::Comp::AdHoc&#45;&gt;X::AdHoc -->
<g id="edge5" class="edge">
<title>X::Comp::AdHoc&#45;&gt;X::AdHoc</title>
<path fill="none" stroke="#000000" d="M106.08,-35.59C96.19,-44.7 83.78,-56.13 72.98,-66.08"/>
<polygon fill="#000000" stroke="#000000" points="70.44,-63.66 65.45,-73.01 75.18,-68.81 70.44,-63.66"/>
</g>
<!-- X::Comp::AdHoc&#45;&gt;Exception -->
<g id="edge6" class="edge">
<title>X::Comp::AdHoc&#45;&gt;Exception</title>
<path fill="none" stroke="#000000" d="M124.1,-36.13C124.1,-60.33 124.1,-104.79 124.1,-133.61"/>
<polygon fill="#000000" stroke="#000000" points="120.6,-133.81 124.1,-143.81 127.6,-133.81 120.6,-133.81"/>
</g>
<!-- X::Comp::AdHoc&#45;&gt;X::Comp -->
<g id="edge7" class="edge">
<title>X::Comp::AdHoc&#45;&gt;X::Comp</title>
<path fill="none" stroke="#6666ff" d="M141.4,-35.59C150.9,-44.7 162.82,-56.13 173.2,-66.08"/>
<polygon fill="#6666ff" stroke="#6666ff" points="170.78,-68.62 180.42,-73.01 175.63,-63.56 170.78,-68.62"/>
</g>
</g>
</svg>
