<?xml version="1.0" encoding="UTF-8" standalone="no"?>
<!DOCTYPE svg PUBLIC "-//W3C//DTD SVG 1.1//EN"
 "http://www.w3.org/Graphics/SVG/1.1/DTD/svg11.dtd">
<!-- Generated by graphviz version 2.43.0 (0)
 -->
<!-- Title: perl6&#45;type&#45;graph Pages: 1 -->
<svg width="172pt" height="332pt"
 viewBox="0.00 0.00 171.79 332.00" xmlns="http://www.w3.org/2000/svg" xmlns:xlink="http://www.w3.org/1999/xlink">
<g id="graph0" class="graph" transform="scale(1 1) rotate(0) translate(4 328)">
<title>perl6&#45;type&#45;graph</title>
<polygon fill="white" stroke="transparent" points="-4,4 -4,-328 167.79,-328 167.79,4 -4,4"/>
<!-- X::Anon::Augment -->
<g id="node1" class="node">
<title>X::Anon::Augment</title>
<g id="a_node1"><a xlink:href="/type/X::Anon::Augment" xlink:title="X::Anon::Augment">
<ellipse fill="none" stroke="#000000" cx="81.89" cy="-18" rx="81.79" ry="18"/>
<text text-anchor="middle" x="81.89" y="-14.3" font-family="FreeSans" font-size="14.00" fill="#000000">X::Anon::Augment</text>
</a>
</g>
</g>
<!-- Exception -->
<g id="node4" class="node">
<title>Exception</title>
<g id="a_node4"><a xlink:href="/type/Exception" xlink:title="Exception">
<ellipse fill="none" stroke="#000000" cx="81.89" cy="-162" rx="49.29" ry="18"/>
<text text-anchor="middle" x="81.89" y="-158.3" font-family="FreeSans" font-size="14.00" fill="#000000">Exception</text>
</a>
</g>
</g>
<!-- X::Anon::Augment&#45;&gt;Exception -->
<g id="edge1" class="edge">
<title>X::Anon::Augment&#45;&gt;Exception</title>
<path fill="none" stroke="#000000" d="M76.42,-36.06C71.45,-51.55 64.89,-72 64.89,-72 64.89,-72 64.89,-108 64.89,-108 64.89,-108 69.06,-120.98 73.26,-134.1"/>
<polygon fill="#000000" stroke="#000000" points="70.03,-135.49 76.42,-143.94 76.7,-133.35 70.03,-135.49"/>
</g>
<!-- X::Comp -->
<g id="node5" class="node">
<title>X::Comp</title>
<g id="a_node5"><a xlink:href="/type/X::Comp" xlink:title="X::Comp">
<ellipse fill="none" stroke="#6666ff" cx="118.89" cy="-90" rx="44.69" ry="18"/>
<text text-anchor="middle" x="118.89" y="-86.3" font-family="FreeSans" font-size="14.00" fill="#6666ff">X::Comp</text>
</a>
</g>
</g>
<!-- X::Anon::Augment&#45;&gt;X::Comp -->
<g id="edge5" class="edge">
<title>X::Anon::Augment&#45;&gt;X::Comp</title>
<path fill="none" stroke="#6666ff" d="M90.85,-35.95C95.17,-44.11 100.44,-54.09 105.24,-63.18"/>
<polygon fill="#6666ff" stroke="#6666ff" points="102.25,-65.01 110.02,-72.21 108.44,-61.73 102.25,-65.01"/>
</g>
<!-- Mu -->
<g id="node2" class="node">
<title>Mu</title>
<g id="a_node2"><a xlink:href="/type/Mu" xlink:title="Mu">
<ellipse fill="none" stroke="#000000" cx="81.89" cy="-306" rx="27" ry="18"/>
<text text-anchor="middle" x="81.89" y="-302.3" font-family="FreeSans" font-size="14.00" fill="#000000">Mu</text>
</a>
</g>
</g>
<!-- Any -->
<g id="node3" class="node">
<title>Any</title>
<g id="a_node3"><a xlink:href="/type/Any" xlink:title="Any">
<ellipse fill="none" stroke="#000000" cx="81.89" cy="-234" rx="27" ry="18"/>
<text text-anchor="middle" x="81.89" y="-230.3" font-family="FreeSans" font-size="14.00" fill="#000000">Any</text>
</a>
</g>
</g>
<!-- Any&#45;&gt;Mu -->
<g id="edge2" class="edge">
<title>Any&#45;&gt;Mu</title>
<path fill="none" stroke="#000000" d="M81.89,-252.3C81.89,-260.02 81.89,-269.29 81.89,-277.89"/>
<polygon fill="#000000" stroke="#000000" points="78.39,-277.9 81.89,-287.9 85.39,-277.9 78.39,-277.9"/>
</g>
<!-- Exception&#45;&gt;Any -->
<g id="edge3" class="edge">
<title>Exception&#45;&gt;Any</title>
<path fill="none" stroke="#000000" d="M81.89,-180.3C81.89,-188.02 81.89,-197.29 81.89,-205.89"/>
<polygon fill="#000000" stroke="#000000" points="78.39,-205.9 81.89,-215.9 85.39,-205.9 78.39,-205.9"/>
</g>
<!-- X::Comp&#45;&gt;Exception -->
<g id="edge4" class="edge">
<title>X::Comp&#45;&gt;Exception</title>
<path fill="none" stroke="#000000" d="M109.94,-107.95C105.62,-116.11 100.35,-126.09 95.54,-135.18"/>
<polygon fill="#000000" stroke="#000000" points="92.35,-133.73 90.77,-144.21 98.53,-137.01 92.35,-133.73"/>
</g>
</g>
</svg>
