<?xml version="1.0" encoding="UTF-8" standalone="no"?>
<!DOCTYPE svg PUBLIC "-//W3C//DTD SVG 1.1//EN"
 "http://www.w3.org/Graphics/SVG/1.1/DTD/svg11.dtd">
<!-- Generated by graphviz version 2.43.0 (0)
 -->
<!-- Title: perl6&#45;type&#45;graph Pages: 1 -->
<svg width="155pt" height="332pt"
 viewBox="0.00 0.00 155.49 332.00" xmlns="http://www.w3.org/2000/svg" xmlns:xlink="http://www.w3.org/1999/xlink">
<g id="graph0" class="graph" transform="scale(1 1) rotate(0) translate(4 328)">
<title>perl6&#45;type&#45;graph</title>
<polygon fill="white" stroke="transparent" points="-4,4 -4,-328 151.49,-328 151.49,4 -4,4"/>
<!-- X::Anon::Multi -->
<g id="node1" class="node">
<title>X::Anon::Multi</title>
<g id="a_node1"><a xlink:href="/type/X::Anon::Multi" xlink:title="X::Anon::Multi">
<ellipse fill="none" stroke="#000000" cx="65.64" cy="-18" rx="65.79" ry="18"/>
<text text-anchor="middle" x="65.64" y="-14.3" font-family="FreeSans" font-size="14.00" fill="#000000">X::Anon::Multi</text>
</a>
</g>
</g>
<!-- Exception -->
<g id="node4" class="node">
<title>Exception</title>
<g id="a_node4"><a xlink:href="/type/Exception" xlink:title="Exception">
<ellipse fill="none" stroke="#000000" cx="65.64" cy="-162" rx="49.29" ry="18"/>
<text text-anchor="middle" x="65.64" y="-158.3" font-family="FreeSans" font-size="14.00" fill="#000000">Exception</text>
</a>
</g>
</g>
<!-- X::Anon::Multi&#45;&gt;Exception -->
<g id="edge1" class="edge">
<title>X::Anon::Multi&#45;&gt;Exception</title>
<path fill="none" stroke="#000000" d="M60.17,-36.06C55.2,-51.55 48.64,-72 48.64,-72 48.64,-72 48.64,-108 48.64,-108 48.64,-108 52.81,-120.98 57.01,-134.1"/>
<polygon fill="#000000" stroke="#000000" points="53.78,-135.49 60.17,-143.94 60.45,-133.35 53.78,-135.49"/>
</g>
<!-- X::Comp -->
<g id="node5" class="node">
<title>X::Comp</title>
<g id="a_node5"><a xlink:href="/type/X::Comp" xlink:title="X::Comp">
<ellipse fill="none" stroke="#6666ff" cx="102.64" cy="-90" rx="44.69" ry="18"/>
<text text-anchor="middle" x="102.64" y="-86.3" font-family="FreeSans" font-size="14.00" fill="#6666ff">X::Comp</text>
</a>
</g>
</g>
<!-- X::Anon::Multi&#45;&gt;X::Comp -->
<g id="edge5" class="edge">
<title>X::Anon::Multi&#45;&gt;X::Comp</title>
<path fill="none" stroke="#6666ff" d="M74.6,-35.95C78.92,-44.11 84.19,-54.09 88.99,-63.18"/>
<polygon fill="#6666ff" stroke="#6666ff" points="86,-65.01 93.77,-72.21 92.19,-61.73 86,-65.01"/>
</g>
<!-- Mu -->
<g id="node2" class="node">
<title>Mu</title>
<g id="a_node2"><a xlink:href="/type/Mu" xlink:title="Mu">
<ellipse fill="none" stroke="#000000" cx="65.64" cy="-306" rx="27" ry="18"/>
<text text-anchor="middle" x="65.64" y="-302.3" font-family="FreeSans" font-size="14.00" fill="#000000">Mu</text>
</a>
</g>
</g>
<!-- Any -->
<g id="node3" class="node">
<title>Any</title>
<g id="a_node3"><a xlink:href="/type/Any" xlink:title="Any">
<ellipse fill="none" stroke="#000000" cx="65.64" cy="-234" rx="27" ry="18"/>
<text text-anchor="middle" x="65.64" y="-230.3" font-family="FreeSans" font-size="14.00" fill="#000000">Any</text>
</a>
</g>
</g>
<!-- Any&#45;&gt;Mu -->
<g id="edge2" class="edge">
<title>Any&#45;&gt;Mu</title>
<path fill="none" stroke="#000000" d="M65.64,-252.3C65.64,-260.02 65.64,-269.29 65.64,-277.89"/>
<polygon fill="#000000" stroke="#000000" points="62.14,-277.9 65.64,-287.9 69.14,-277.9 62.14,-277.9"/>
</g>
<!-- Exception&#45;&gt;Any -->
<g id="edge3" class="edge">
<title>Exception&#45;&gt;Any</title>
<path fill="none" stroke="#000000" d="M65.64,-180.3C65.64,-188.02 65.64,-197.29 65.64,-205.89"/>
<polygon fill="#000000" stroke="#000000" points="62.14,-205.9 65.64,-215.9 69.14,-205.9 62.14,-205.9"/>
</g>
<!-- X::Comp&#45;&gt;Exception -->
<g id="edge4" class="edge">
<title>X::Comp&#45;&gt;Exception</title>
<path fill="none" stroke="#000000" d="M93.69,-107.95C89.37,-116.11 84.1,-126.09 79.29,-135.18"/>
<polygon fill="#000000" stroke="#000000" points="76.1,-133.73 74.52,-144.21 82.29,-137.01 76.1,-133.73"/>
</g>
</g>
</svg>
