<?xml version="1.0" encoding="UTF-8" standalone="no"?>
<!DOCTYPE svg PUBLIC "-//W3C//DTD SVG 1.1//EN"
 "http://www.w3.org/Graphics/SVG/1.1/DTD/svg11.dtd">
<!-- Generated by graphviz version 2.43.0 (0)
 -->
<!-- Title: perl6&#45;type&#45;graph Pages: 1 -->
<svg width="201pt" height="260pt"
 viewBox="0.00 0.00 201.29 260.00" xmlns="http://www.w3.org/2000/svg" xmlns:xlink="http://www.w3.org/1999/xlink">
<g id="graph0" class="graph" transform="scale(1 1) rotate(0) translate(4 256)">
<title>perl6&#45;type&#45;graph</title>
<polygon fill="white" stroke="transparent" points="-4,4 -4,-256 197.29,-256 197.29,4 -4,4"/>
<!-- X::Attribute::Required -->
<g id="node1" class="node">
<title>X::Attribute::Required</title>
<g id="a_node1"><a xlink:href="/type/X::Attribute::Required" xlink:title="X::Attribute::Required">
<ellipse fill="none" stroke="#000000" cx="98.4" cy="-18" rx="94.78" ry="18"/>
<text text-anchor="middle" x="98.4" y="-14.3" font-family="FreeSans" font-size="14.00" fill="#000000">X::Attribute::Required</text>
</a>
</g>
</g>
<!-- Exception -->
<g id="node4" class="node">
<title>Exception</title>
<g id="a_node4"><a xlink:href="/type/Exception" xlink:title="Exception">
<ellipse fill="none" stroke="#000000" cx="49.4" cy="-90" rx="49.29" ry="18"/>
<text text-anchor="middle" x="49.4" y="-86.3" font-family="FreeSans" font-size="14.00" fill="#000000">Exception</text>
</a>
</g>
</g>
<!-- X::Attribute::Required&#45;&gt;Exception -->
<g id="edge1" class="edge">
<title>X::Attribute::Required&#45;&gt;Exception</title>
<path fill="none" stroke="#000000" d="M86.53,-35.95C80.7,-44.29 73.54,-54.51 67.07,-63.75"/>
<polygon fill="#000000" stroke="#000000" points="64.02,-62.01 61.15,-72.21 69.75,-66.03 64.02,-62.01"/>
</g>
<!-- MOP -->
<g id="node5" class="node">
<title>MOP</title>
<g id="a_node5"><a xlink:href="/type/MOP" xlink:title="MOP">
<ellipse fill="none" stroke="#000000" cx="148.4" cy="-90" rx="31.7" ry="18"/>
<text text-anchor="middle" x="148.4" y="-86.3" font-family="FreeSans" font-size="14.00" fill="#000000">MOP</text>
</a>
</g>
</g>
<!-- X::Attribute::Required&#45;&gt;MOP -->
<g id="edge5" class="edge">
<title>X::Attribute::Required&#45;&gt;MOP</title>
<path fill="none" stroke="#6666ff" d="M110.5,-35.95C116.7,-44.62 124.35,-55.33 131.15,-64.85"/>
<polygon fill="#6666ff" stroke="#6666ff" points="128.43,-67.07 137.09,-73.17 134.12,-63 128.43,-67.07"/>
</g>
<!-- Mu -->
<g id="node2" class="node">
<title>Mu</title>
<g id="a_node2"><a xlink:href="/type/Mu" xlink:title="Mu">
<ellipse fill="none" stroke="#000000" cx="98.4" cy="-234" rx="27" ry="18"/>
<text text-anchor="middle" x="98.4" y="-230.3" font-family="FreeSans" font-size="14.00" fill="#000000">Mu</text>
</a>
</g>
</g>
<!-- Any -->
<g id="node3" class="node">
<title>Any</title>
<g id="a_node3"><a xlink:href="/type/Any" xlink:title="Any">
<ellipse fill="none" stroke="#000000" cx="98.4" cy="-162" rx="27" ry="18"/>
<text text-anchor="middle" x="98.4" y="-158.3" font-family="FreeSans" font-size="14.00" fill="#000000">Any</text>
</a>
</g>
</g>
<!-- Any&#45;&gt;Mu -->
<g id="edge2" class="edge">
<title>Any&#45;&gt;Mu</title>
<path fill="none" stroke="#000000" d="M98.4,-180.3C98.4,-188.02 98.4,-197.29 98.4,-205.89"/>
<polygon fill="#000000" stroke="#000000" points="94.9,-205.9 98.4,-215.9 101.9,-205.9 94.9,-205.9"/>
</g>
<!-- Exception&#45;&gt;Any -->
<g id="edge3" class="edge">
<title>Exception&#45;&gt;Any</title>
<path fill="none" stroke="#000000" d="M61.01,-107.59C67.16,-116.38 74.83,-127.34 81.62,-137.04"/>
<polygon fill="#000000" stroke="#000000" points="78.94,-139.3 87.54,-145.49 84.67,-135.29 78.94,-139.3"/>
</g>
<!-- MOP&#45;&gt;Any -->
<g id="edge4" class="edge">
<title>MOP&#45;&gt;Any</title>
<path fill="none" stroke="#000000" d="M137.05,-106.88C130.72,-115.74 122.71,-126.96 115.62,-136.88"/>
<polygon fill="#000000" stroke="#000000" points="112.66,-135.01 109.7,-145.18 118.36,-139.08 112.66,-135.01"/>
</g>
</g>
</svg>
