<?xml version="1.0" encoding="UTF-8" standalone="no"?>
<!DOCTYPE svg PUBLIC "-//W3C//DTD SVG 1.1//EN"
 "http://www.w3.org/Graphics/SVG/1.1/DTD/svg11.dtd">
<!-- Generated by graphviz version 2.43.0 (0)
 -->
<!-- Title: perl6&#45;type&#45;graph Pages: 1 -->
<svg width="333pt" height="404pt"
 viewBox="0.00 0.00 333.38 404.00" xmlns="http://www.w3.org/2000/svg" xmlns:xlink="http://www.w3.org/1999/xlink">
<g id="graph0" class="graph" transform="scale(1 1) rotate(0) translate(4 400)">
<title>perl6&#45;type&#45;graph</title>
<polygon fill="white" stroke="transparent" points="-4,4 -4,-400 329.38,-400 329.38,4 -4,4"/>
<!-- X::Backslash::UnrecognizedSequence -->
<g id="node1" class="node">
<title>X::Backslash::UnrecognizedSequence</title>
<g id="a_node1"><a xlink:href="/type/X::Backslash::UnrecognizedSequence" xlink:title="X::Backslash::UnrecognizedSequence">
<ellipse fill="none" stroke="#000000" cx="160.54" cy="-18" rx="160.57" ry="18"/>
<text text-anchor="middle" x="160.54" y="-14.3" font-family="FreeSans" font-size="14.00" fill="#000000">X::Backslash::UnrecognizedSequence</text>
</a>
</g>
</g>
<!-- Exception -->
<g id="node4" class="node">
<title>Exception</title>
<g id="a_node4"><a xlink:href="/type/Exception" xlink:title="Exception">
<ellipse fill="none" stroke="#000000" cx="183.54" cy="-234" rx="49.29" ry="18"/>
<text text-anchor="middle" x="183.54" y="-230.3" font-family="FreeSans" font-size="14.00" fill="#000000">Exception</text>
</a>
</g>
</g>
<!-- X::Backslash::UnrecognizedSequence&#45;&gt;Exception -->
<g id="edge1" class="edge">
<title>X::Backslash::UnrecognizedSequence&#45;&gt;Exception</title>
<path fill="none" stroke="#000000" d="M158.5,-36.15C158.95,-73.34 168.18,-161.63 176.01,-206.23"/>
<polygon fill="#000000" stroke="#000000" points="172.57,-206.88 177.86,-216.06 179.45,-205.59 172.57,-206.88"/>
</g>
<!-- X::Backslash::UnrecognizedSequence&#45;&gt;Exception -->
<g id="edge2" class="edge">
<title>X::Backslash::UnrecognizedSequence&#45;&gt;Exception</title>
<path fill="none" stroke="#000000" d="M166.26,-36.15C173.77,-73.17 183.46,-160.82 185.28,-205.61"/>
<polygon fill="#000000" stroke="#000000" points="181.79,-205.87 185.57,-215.77 188.79,-205.67 181.79,-205.87"/>
</g>
<!-- X::Syntax -->
<g id="node6" class="node">
<title>X::Syntax</title>
<g id="a_node6"><a xlink:href="/type/X::Syntax" xlink:title="X::Syntax">
<ellipse fill="none" stroke="#6666ff" cx="245.54" cy="-90" rx="48.19" ry="18"/>
<text text-anchor="middle" x="245.54" y="-86.3" font-family="FreeSans" font-size="14.00" fill="#6666ff">X::Syntax</text>
</a>
</g>
</g>
<!-- X::Backslash::UnrecognizedSequence&#45;&gt;X::Syntax -->
<g id="edge7" class="edge">
<title>X::Backslash::UnrecognizedSequence&#45;&gt;X::Syntax</title>
<path fill="none" stroke="#6666ff" d="M181.11,-35.95C192.37,-45.22 206.45,-56.81 218.58,-66.8"/>
<polygon fill="#6666ff" stroke="#6666ff" points="216.66,-69.75 226.6,-73.41 221.11,-64.35 216.66,-69.75"/>
</g>
<!-- Mu -->
<g id="node2" class="node">
<title>Mu</title>
<g id="a_node2"><a xlink:href="/type/Mu" xlink:title="Mu">
<ellipse fill="none" stroke="#000000" cx="183.54" cy="-378" rx="27" ry="18"/>
<text text-anchor="middle" x="183.54" y="-374.3" font-family="FreeSans" font-size="14.00" fill="#000000">Mu</text>
</a>
</g>
</g>
<!-- Any -->
<g id="node3" class="node">
<title>Any</title>
<g id="a_node3"><a xlink:href="/type/Any" xlink:title="Any">
<ellipse fill="none" stroke="#000000" cx="183.54" cy="-306" rx="27" ry="18"/>
<text text-anchor="middle" x="183.54" y="-302.3" font-family="FreeSans" font-size="14.00" fill="#000000">Any</text>
</a>
</g>
</g>
<!-- Any&#45;&gt;Mu -->
<g id="edge3" class="edge">
<title>Any&#45;&gt;Mu</title>
<path fill="none" stroke="#000000" d="M183.54,-324.3C183.54,-332.02 183.54,-341.29 183.54,-349.89"/>
<polygon fill="#000000" stroke="#000000" points="180.04,-349.9 183.54,-359.9 187.04,-349.9 180.04,-349.9"/>
</g>
<!-- Exception&#45;&gt;Any -->
<g id="edge4" class="edge">
<title>Exception&#45;&gt;Any</title>
<path fill="none" stroke="#000000" d="M183.54,-252.3C183.54,-260.02 183.54,-269.29 183.54,-277.89"/>
<polygon fill="#000000" stroke="#000000" points="180.04,-277.9 183.54,-287.9 187.04,-277.9 180.04,-277.9"/>
</g>
<!-- X::Comp -->
<g id="node5" class="node">
<title>X::Comp</title>
<g id="a_node5"><a xlink:href="/type/X::Comp" xlink:title="X::Comp">
<ellipse fill="none" stroke="#6666ff" cx="280.54" cy="-162" rx="44.69" ry="18"/>
<text text-anchor="middle" x="280.54" y="-158.3" font-family="FreeSans" font-size="14.00" fill="#6666ff">X::Comp</text>
</a>
</g>
</g>
<!-- X::Comp&#45;&gt;Exception -->
<g id="edge5" class="edge">
<title>X::Comp&#45;&gt;Exception</title>
<path fill="none" stroke="#000000" d="M259.49,-178.19C245.98,-187.94 228.24,-200.74 213.3,-211.52"/>
<polygon fill="#000000" stroke="#000000" points="210.94,-208.91 204.88,-217.6 215.03,-214.59 210.94,-208.91"/>
</g>
<!-- X::Syntax&#45;&gt;Exception -->
<g id="edge6" class="edge">
<title>X::Syntax&#45;&gt;Exception</title>
<path fill="none" stroke="#000000" d="M238.18,-107.85C227.51,-132.29 207.62,-177.83 195.01,-206.71"/>
<polygon fill="#000000" stroke="#000000" points="191.68,-205.61 190.88,-216.18 198.09,-208.41 191.68,-205.61"/>
</g>
<!-- X::Syntax&#45;&gt;X::Comp -->
<g id="edge8" class="edge">
<title>X::Syntax&#45;&gt;X::Comp</title>
<path fill="none" stroke="#6666ff" d="M254.01,-107.95C258.09,-116.11 263.08,-126.09 267.62,-135.18"/>
<polygon fill="#6666ff" stroke="#6666ff" points="264.54,-136.83 272.14,-144.21 270.8,-133.7 264.54,-136.83"/>
</g>
</g>
</svg>
