<?xml version="1.0" encoding="UTF-8" standalone="no"?>
<!DOCTYPE svg PUBLIC "-//W3C//DTD SVG 1.1//EN"
 "http://www.w3.org/Graphics/SVG/1.1/DTD/svg11.dtd">
<!-- Generated by graphviz version 2.43.0 (0)
 -->
<!-- Title: perl6&#45;type&#45;graph Pages: 1 -->
<svg width="164pt" height="332pt"
 viewBox="0.00 0.00 163.99 332.00" xmlns="http://www.w3.org/2000/svg" xmlns:xlink="http://www.w3.org/1999/xlink">
<g id="graph0" class="graph" transform="scale(1 1) rotate(0) translate(4 328)">
<title>perl6&#45;type&#45;graph</title>
<polygon fill="white" stroke="transparent" points="-4,4 -4,-328 159.99,-328 159.99,4 -4,4"/>
<!-- X::Bind::Slice -->
<g id="node1" class="node">
<title>X::Bind::Slice</title>
<g id="a_node1"><a xlink:href="/type/X::Bind::Slice" xlink:title="X::Bind::Slice">
<ellipse fill="none" stroke="#000000" cx="77.99" cy="-90" rx="63.09" ry="18"/>
<text text-anchor="middle" x="77.99" y="-86.3" font-family="FreeSans" font-size="14.00" fill="#000000">X::Bind::Slice</text>
</a>
</g>
</g>
<!-- Exception -->
<g id="node4" class="node">
<title>Exception</title>
<g id="a_node4"><a xlink:href="/type/Exception" xlink:title="Exception">
<ellipse fill="none" stroke="#000000" cx="77.99" cy="-162" rx="49.29" ry="18"/>
<text text-anchor="middle" x="77.99" y="-158.3" font-family="FreeSans" font-size="14.00" fill="#000000">Exception</text>
</a>
</g>
</g>
<!-- X::Bind::Slice&#45;&gt;Exception -->
<g id="edge1" class="edge">
<title>X::Bind::Slice&#45;&gt;Exception</title>
<path fill="none" stroke="#000000" d="M77.99,-108.3C77.99,-116.02 77.99,-125.29 77.99,-133.89"/>
<polygon fill="#000000" stroke="#000000" points="74.49,-133.9 77.99,-143.9 81.49,-133.9 74.49,-133.9"/>
</g>
<!-- Mu -->
<g id="node2" class="node">
<title>Mu</title>
<g id="a_node2"><a xlink:href="/type/Mu" xlink:title="Mu">
<ellipse fill="none" stroke="#000000" cx="77.99" cy="-306" rx="27" ry="18"/>
<text text-anchor="middle" x="77.99" y="-302.3" font-family="FreeSans" font-size="14.00" fill="#000000">Mu</text>
</a>
</g>
</g>
<!-- Any -->
<g id="node3" class="node">
<title>Any</title>
<g id="a_node3"><a xlink:href="/type/Any" xlink:title="Any">
<ellipse fill="none" stroke="#000000" cx="77.99" cy="-234" rx="27" ry="18"/>
<text text-anchor="middle" x="77.99" y="-230.3" font-family="FreeSans" font-size="14.00" fill="#000000">Any</text>
</a>
</g>
</g>
<!-- Any&#45;&gt;Mu -->
<g id="edge2" class="edge">
<title>Any&#45;&gt;Mu</title>
<path fill="none" stroke="#000000" d="M77.99,-252.3C77.99,-260.02 77.99,-269.29 77.99,-277.89"/>
<polygon fill="#000000" stroke="#000000" points="74.49,-277.9 77.99,-287.9 81.49,-277.9 74.49,-277.9"/>
</g>
<!-- Exception&#45;&gt;Any -->
<g id="edge3" class="edge">
<title>Exception&#45;&gt;Any</title>
<path fill="none" stroke="#000000" d="M77.99,-180.3C77.99,-188.02 77.99,-197.29 77.99,-205.89"/>
<polygon fill="#000000" stroke="#000000" points="74.49,-205.9 77.99,-215.9 81.49,-205.9 74.49,-205.9"/>
</g>
<!-- X::Bind::ZenSlice -->
<g id="node5" class="node">
<title>X::Bind::ZenSlice</title>
<g id="a_node5"><a xlink:href="/type/X::Bind::ZenSlice" xlink:title="X::Bind::ZenSlice">
<ellipse fill="none" stroke="#000000" cx="77.99" cy="-18" rx="77.99" ry="18"/>
<text text-anchor="middle" x="77.99" y="-14.3" font-family="FreeSans" font-size="14.00" fill="#000000">X::Bind::ZenSlice</text>
</a>
</g>
</g>
<!-- X::Bind::ZenSlice&#45;&gt;X::Bind::Slice -->
<g id="edge4" class="edge">
<title>X::Bind::ZenSlice&#45;&gt;X::Bind::Slice</title>
<path fill="none" stroke="#000000" d="M77.99,-36.3C77.99,-44.02 77.99,-53.29 77.99,-61.89"/>
<polygon fill="#000000" stroke="#000000" points="74.49,-61.9 77.99,-71.9 81.49,-61.9 74.49,-61.9"/>
</g>
</g>
</svg>
