<?xml version="1.0" encoding="UTF-8" standalone="no"?>
<!DOCTYPE svg PUBLIC "-//W3C//DTD SVG 1.1//EN"
 "http://www.w3.org/Graphics/SVG/1.1/DTD/svg11.dtd">
<!-- Generated by graphviz version 2.43.0 (0)
 -->
<!-- Title: perl6&#45;type&#45;graph Pages: 1 -->
<svg width="526pt" height="291pt"
 viewBox="0.00 0.00 525.69 290.70" xmlns="http://www.w3.org/2000/svg" xmlns:xlink="http://www.w3.org/1999/xlink">
<g id="graph0" class="graph" transform="scale(1 1) rotate(0) translate(4 286.7)">
<title>perl6&#45;type&#45;graph</title>
<polygon fill="white" stroke="transparent" points="-4,4 -4,-286.7 521.69,-286.7 521.69,4 -4,4"/>
<!-- X::Comp::AdHoc -->
<g id="node1" class="node">
<title>X::Comp::AdHoc</title>
<g id="a_node1"><a xlink:href="/type/X::Comp::AdHoc" xlink:title="X::Comp::AdHoc">
<ellipse fill="none" stroke="#000000" cx="76.04" cy="-135.27" rx="76.09" ry="18"/>
<text text-anchor="middle" x="76.04" y="-131.57" font-family="FreeSans" font-size="14.00" fill="#000000">X::Comp::AdHoc</text>
</a>
</g>
</g>
<!-- Exception -->
<g id="node4" class="node">
<title>Exception</title>
<g id="a_node4"><a xlink:href="/type/Exception" xlink:title="Exception">
<ellipse fill="none" stroke="#000000" cx="209.5" cy="-150.21" rx="49.29" ry="18"/>
<text text-anchor="middle" x="209.5" y="-146.51" font-family="FreeSans" font-size="14.00" fill="#000000">Exception</text>
</a>
</g>
</g>
<!-- X::Comp::AdHoc&#45;&gt;Exception -->
<g id="edge2" class="edge">
<title>X::Comp::AdHoc&#45;&gt;Exception</title>
<path fill="none" stroke="#000000" d="M145.11,-143C147.44,-143.26 149.76,-143.52 152.07,-143.78"/>
<polygon fill="#000000" stroke="#000000" points="151.72,-147.26 162.05,-144.9 152.5,-140.31 151.72,-147.26"/>
</g>
<!-- X::AdHoc -->
<g id="node5" class="node">
<title>X::AdHoc</title>
<g id="a_node5"><a xlink:href="/type/X::AdHoc" xlink:title="X::AdHoc">
<ellipse fill="none" stroke="#000000" cx="144.08" cy="-18" rx="48.19" ry="18"/>
<text text-anchor="middle" x="144.08" y="-14.3" font-family="FreeSans" font-size="14.00" fill="#000000">X::AdHoc</text>
</a>
</g>
</g>
<!-- X::Comp::AdHoc&#45;&gt;X::AdHoc -->
<g id="edge1" class="edge">
<title>X::Comp::AdHoc&#45;&gt;X::AdHoc</title>
<path fill="none" stroke="#000000" d="M86.52,-117.2C97.74,-97.86 115.66,-66.98 128.53,-44.8"/>
<polygon fill="#000000" stroke="#000000" points="131.7,-46.3 133.7,-35.89 125.65,-42.79 131.7,-46.3"/>
</g>
<!-- X::Comp -->
<g id="node6" class="node">
<title>X::Comp</title>
<g id="a_node6"><a xlink:href="/type/X::Comp" xlink:title="X::Comp">
<ellipse fill="none" stroke="#6666ff" cx="116.54" cy="-264.7" rx="44.69" ry="18"/>
<text text-anchor="middle" x="116.54" y="-261" font-family="FreeSans" font-size="14.00" fill="#6666ff">X::Comp</text>
</a>
</g>
</g>
<!-- X::Comp::AdHoc&#45;&gt;X::Comp -->
<g id="edge7" class="edge">
<title>X::Comp::AdHoc&#45;&gt;X::Comp</title>
<path fill="none" stroke="#6666ff" d="M81.67,-153.27C88.44,-174.88 99.86,-211.38 107.77,-236.69"/>
<polygon fill="#6666ff" stroke="#6666ff" points="104.5,-237.94 110.83,-246.44 111.18,-235.85 104.5,-237.94"/>
</g>
<!-- Mu -->
<g id="node2" class="node">
<title>Mu</title>
<g id="a_node2"><a xlink:href="/type/Mu" xlink:title="Mu">
<ellipse fill="none" stroke="#000000" cx="490.69" cy="-174.04" rx="27" ry="18"/>
<text text-anchor="middle" x="490.69" y="-170.34" font-family="FreeSans" font-size="14.00" fill="#000000">Mu</text>
</a>
</g>
</g>
<!-- Any -->
<g id="node3" class="node">
<title>Any</title>
<g id="a_node3"><a xlink:href="/type/Any" xlink:title="Any">
<ellipse fill="none" stroke="#000000" cx="352.54" cy="-167.1" rx="27" ry="18"/>
<text text-anchor="middle" x="352.54" y="-163.4" font-family="FreeSans" font-size="14.00" fill="#000000">Any</text>
</a>
</g>
</g>
<!-- Any&#45;&gt;Mu -->
<g id="edge3" class="edge">
<title>Any&#45;&gt;Mu</title>
<path fill="none" stroke="#000000" d="M379.5,-168.45C400.48,-169.51 429.83,-170.98 453.1,-172.15"/>
<polygon fill="#000000" stroke="#000000" points="453.16,-175.66 463.32,-172.66 453.51,-168.67 453.16,-175.66"/>
</g>
<!-- Exception&#45;&gt;Any -->
<g id="edge4" class="edge">
<title>Exception&#45;&gt;Any</title>
<path fill="none" stroke="#000000" d="M256.73,-155.79C275.91,-158.05 297.74,-160.63 315.71,-162.75"/>
<polygon fill="#000000" stroke="#000000" points="315.46,-166.25 325.8,-163.94 316.28,-159.3 315.46,-166.25"/>
</g>
<!-- X::AdHoc&#45;&gt;Exception -->
<g id="edge5" class="edge">
<title>X::AdHoc&#45;&gt;Exception</title>
<path fill="none" stroke="#000000" d="M152.9,-35.83C164.02,-58.3 183.24,-97.14 196.16,-123.25"/>
<polygon fill="#000000" stroke="#000000" points="193.03,-124.83 200.6,-132.24 199.31,-121.72 193.03,-124.83"/>
</g>
<!-- X::Comp&#45;&gt;Exception -->
<g id="edge6" class="edge">
<title>X::Comp&#45;&gt;Exception</title>
<path fill="none" stroke="#000000" d="M130.66,-247.32C146.15,-228.23 171.17,-197.42 188.86,-175.63"/>
<polygon fill="#000000" stroke="#000000" points="191.66,-177.73 195.24,-167.76 186.22,-173.32 191.66,-177.73"/>
</g>
</g>
</svg>
