<?xml version="1.0" encoding="UTF-8" standalone="no"?>
<!DOCTYPE svg PUBLIC "-//W3C//DTD SVG 1.1//EN"
 "http://www.w3.org/Graphics/SVG/1.1/DTD/svg11.dtd">
<!-- Generated by graphviz version 2.43.0 (0)
 -->
<!-- Title: perl6&#45;type&#45;graph Pages: 1 -->
<svg width="483pt" height="271pt"
 viewBox="0.00 0.00 482.97 271.48" xmlns="http://www.w3.org/2000/svg" xmlns:xlink="http://www.w3.org/1999/xlink">
<g id="graph0" class="graph" transform="scale(1 1) rotate(0) translate(4 267.48)">
<title>perl6&#45;type&#45;graph</title>
<polygon fill="white" stroke="transparent" points="-4,4 -4,-267.48 478.97,-267.48 478.97,4 -4,4"/>
<!-- X::Comp::NYI -->
<g id="node1" class="node">
<title>X::Comp::NYI</title>
<g id="a_node1"><a xlink:href="/type/X::Comp::NYI" xlink:title="X::Comp::NYI">
<ellipse fill="none" stroke="#000000" cx="65.64" cy="-126.13" rx="65.79" ry="18"/>
<text text-anchor="middle" x="65.64" y="-122.43" font-family="FreeSans" font-size="14.00" fill="#000000">X::Comp::NYI</text>
</a>
</g>
</g>
<!-- Exception -->
<g id="node4" class="node">
<title>Exception</title>
<g id="a_node4"><a xlink:href="/type/Exception" xlink:title="Exception">
<ellipse fill="none" stroke="#000000" cx="188.7" cy="-139.91" rx="49.29" ry="18"/>
<text text-anchor="middle" x="188.7" y="-136.21" font-family="FreeSans" font-size="14.00" fill="#000000">Exception</text>
</a>
</g>
</g>
<!-- X::Comp::NYI&#45;&gt;Exception -->
<g id="edge2" class="edge">
<title>X::Comp::NYI&#45;&gt;Exception</title>
<path fill="none" stroke="#000000" d="M126.45,-132.94C128,-133.11 129.55,-133.28 131.1,-133.46"/>
<polygon fill="#000000" stroke="#000000" points="130.91,-136.96 141.23,-134.59 131.69,-130 130.91,-136.96"/>
</g>
<!-- X::NYI -->
<g id="node5" class="node">
<title>X::NYI</title>
<g id="a_node5"><a xlink:href="/type/X::NYI" xlink:title="X::NYI">
<ellipse fill="none" stroke="#000000" cx="128.38" cy="-18" rx="37.09" ry="18"/>
<text text-anchor="middle" x="128.38" y="-14.3" font-family="FreeSans" font-size="14.00" fill="#000000">X::NYI</text>
</a>
</g>
</g>
<!-- X::Comp::NYI&#45;&gt;X::NYI -->
<g id="edge1" class="edge">
<title>X::Comp::NYI&#45;&gt;X::NYI</title>
<path fill="none" stroke="#000000" d="M76,-108.27C86.1,-90.87 101.56,-64.22 113.07,-44.37"/>
<polygon fill="#000000" stroke="#000000" points="116.22,-45.93 118.21,-35.52 110.16,-42.42 116.22,-45.93"/>
</g>
<!-- X::Comp -->
<g id="node6" class="node">
<title>X::Comp</title>
<g id="a_node6"><a xlink:href="/type/X::Comp" xlink:title="X::Comp">
<ellipse fill="none" stroke="#6666ff" cx="102.99" cy="-245.48" rx="44.69" ry="18"/>
<text text-anchor="middle" x="102.99" y="-241.78" font-family="FreeSans" font-size="14.00" fill="#6666ff">X::Comp</text>
</a>
</g>
</g>
<!-- X::Comp::NYI&#45;&gt;X::Comp -->
<g id="edge7" class="edge">
<title>X::Comp::NYI&#45;&gt;X::Comp</title>
<path fill="none" stroke="#6666ff" d="M71.32,-144.26C77.44,-163.82 87.26,-195.22 94.34,-217.86"/>
<polygon fill="#6666ff" stroke="#6666ff" points="91.06,-219.07 97.38,-227.57 97.74,-216.98 91.06,-219.07"/>
</g>
<!-- Mu -->
<g id="node2" class="node">
<title>Mu</title>
<g id="a_node2"><a xlink:href="/type/Mu" xlink:title="Mu">
<ellipse fill="none" stroke="#000000" cx="447.97" cy="-161.88" rx="27" ry="18"/>
<text text-anchor="middle" x="447.97" y="-158.18" font-family="FreeSans" font-size="14.00" fill="#000000">Mu</text>
</a>
</g>
</g>
<!-- Any -->
<g id="node3" class="node">
<title>Any</title>
<g id="a_node3"><a xlink:href="/type/Any" xlink:title="Any">
<ellipse fill="none" stroke="#000000" cx="320.59" cy="-155.48" rx="27" ry="18"/>
<text text-anchor="middle" x="320.59" y="-151.78" font-family="FreeSans" font-size="14.00" fill="#000000">Any</text>
</a>
</g>
</g>
<!-- Any&#45;&gt;Mu -->
<g id="edge3" class="edge">
<title>Any&#45;&gt;Mu</title>
<path fill="none" stroke="#000000" d="M347.61,-156.84C366.02,-157.76 390.62,-159 410.87,-160.01"/>
<polygon fill="#000000" stroke="#000000" points="410.84,-163.52 421,-160.52 411.19,-156.53 410.84,-163.52"/>
</g>
<!-- Exception&#45;&gt;Any -->
<g id="edge4" class="edge">
<title>Exception&#45;&gt;Any</title>
<path fill="none" stroke="#000000" d="M235.94,-145.49C251.64,-147.34 268.89,-149.38 283.7,-151.12"/>
<polygon fill="#000000" stroke="#000000" points="283.65,-154.64 293.99,-152.34 284.47,-147.69 283.65,-154.64"/>
</g>
<!-- X::NYI&#45;&gt;Exception -->
<g id="edge5" class="edge">
<title>X::NYI&#45;&gt;Exception</title>
<path fill="none" stroke="#000000" d="M137.15,-35.73C147.2,-56.04 163.78,-89.55 175.42,-113.07"/>
<polygon fill="#000000" stroke="#000000" points="172.34,-114.75 179.91,-122.16 178.62,-111.64 172.34,-114.75"/>
</g>
<!-- X::Comp&#45;&gt;Exception -->
<g id="edge6" class="edge">
<title>X::Comp&#45;&gt;Exception</title>
<path fill="none" stroke="#000000" d="M117.14,-228.05C131.03,-210.93 152.38,-184.64 168.15,-165.22"/>
<polygon fill="#000000" stroke="#000000" points="170.94,-167.33 174.52,-157.37 165.5,-162.92 170.94,-167.33"/>
</g>
</g>
</svg>
