<?xml version="1.0" encoding="UTF-8" standalone="no"?>
<!DOCTYPE svg PUBLIC "-//W3C//DTD SVG 1.1//EN"
 "http://www.w3.org/Graphics/SVG/1.1/DTD/svg11.dtd">
<!-- Generated by graphviz version 2.43.0 (0)
 -->
<!-- Title: perl6&#45;type&#45;graph Pages: 1 -->
<svg width="756pt" height="90pt"
 viewBox="0.00 0.00 756.06 89.99" xmlns="http://www.w3.org/2000/svg" xmlns:xlink="http://www.w3.org/1999/xlink">
<g id="graph0" class="graph" transform="scale(1 1) rotate(0) translate(4 85.99)">
<title>perl6&#45;type&#45;graph</title>
<polygon fill="white" stroke="transparent" points="-4,4 -4,-85.99 752.06,-85.99 752.06,4 -4,4"/>
<!-- X::Composition::NotComposable -->
<g id="node1" class="node">
<title>X::Composition::NotComposable</title>
<g id="a_node1"><a xlink:href="/type/X::Composition::NotComposable" xlink:title="X::Composition::NotComposable">
<ellipse fill="none" stroke="#000000" cx="138.44" cy="-55.45" rx="138.38" ry="18"/>
<text text-anchor="middle" x="138.44" y="-51.75" font-family="FreeSans" font-size="14.00" fill="#000000">X::Composition::NotComposable</text>
</a>
</g>
</g>
<!-- Exception -->
<g id="node4" class="node">
<title>Exception</title>
<g id="a_node4"><a xlink:href="/type/Exception" xlink:title="Exception">
<ellipse fill="none" stroke="#000000" cx="334.29" cy="-63.99" rx="49.29" ry="18"/>
<text text-anchor="middle" x="334.29" y="-60.29" font-family="FreeSans" font-size="14.00" fill="#000000">Exception</text>
</a>
</g>
</g>
<!-- X::Composition::NotComposable&#45;&gt;Exception -->
<g id="edge1" class="edge">
<title>X::Composition::NotComposable&#45;&gt;Exception</title>
<path fill="none" stroke="#000000" d="M269.89,-61.18C271.54,-61.25 273.17,-61.33 274.79,-61.4"/>
<polygon fill="#000000" stroke="#000000" points="275.06,-64.91 285.21,-61.85 275.37,-57.92 275.06,-64.91"/>
</g>
<!-- Mu -->
<g id="node2" class="node">
<title>Mu</title>
<g id="a_node2"><a xlink:href="/type/Mu" xlink:title="Mu">
<ellipse fill="none" stroke="#000000" cx="721.06" cy="-18" rx="27" ry="18"/>
<text text-anchor="middle" x="721.06" y="-14.3" font-family="FreeSans" font-size="14.00" fill="#000000">Mu</text>
</a>
</g>
</g>
<!-- Any -->
<g id="node3" class="node">
<title>Any</title>
<g id="a_node3"><a xlink:href="/type/Any" xlink:title="Any">
<ellipse fill="none" stroke="#000000" cx="525.24" cy="-18.28" rx="27" ry="18"/>
<text text-anchor="middle" x="525.24" y="-14.58" font-family="FreeSans" font-size="14.00" fill="#000000">Any</text>
</a>
</g>
</g>
<!-- Any&#45;&gt;Mu -->
<g id="edge2" class="edge">
<title>Any&#45;&gt;Mu</title>
<path fill="none" stroke="#000000" d="M552.47,-18.24C586.57,-18.19 645.16,-18.11 683.51,-18.05"/>
<polygon fill="#000000" stroke="#000000" points="683.75,-21.55 693.75,-18.04 683.74,-14.55 683.75,-21.55"/>
</g>
<!-- Exception&#45;&gt;Any -->
<g id="edge3" class="edge">
<title>Exception&#45;&gt;Any</title>
<path fill="none" stroke="#000000" d="M375.72,-54.07C409.77,-45.92 457.49,-34.5 489.79,-26.77"/>
<polygon fill="#000000" stroke="#000000" points="490.79,-30.13 499.7,-24.4 489.16,-23.32 490.79,-30.13"/>
</g>
</g>
</svg>
