<?xml version="1.0" encoding="UTF-8" standalone="no"?>
<!DOCTYPE svg PUBLIC "-//W3C//DTD SVG 1.1//EN"
 "http://www.w3.org/Graphics/SVG/1.1/DTD/svg11.dtd">
<!-- Generated by graphviz version 2.43.0 (0)
 -->
<!-- Title: perl6&#45;type&#45;graph Pages: 1 -->
<svg width="665pt" height="353pt"
 viewBox="0.00 0.00 664.50 353.19" xmlns="http://www.w3.org/2000/svg" xmlns:xlink="http://www.w3.org/1999/xlink">
<g id="graph0" class="graph" transform="scale(1 1) rotate(0) translate(4 349.19)">
<title>perl6&#45;type&#45;graph</title>
<polygon fill="white" stroke="transparent" points="-4,4 -4,-349.19 660.5,-349.19 660.5,4 -4,4"/>
<!-- X::Comp::Trait::Unknown -->
<g id="node1" class="node">
<title>X::Comp::Trait::Unknown</title>
<g id="a_node1"><a xlink:href="/type/X::Comp::Trait::Unknown" xlink:title="X::Comp::Trait::Unknown">
<ellipse fill="none" stroke="#000000" cx="109.84" cy="-164.97" rx="109.68" ry="18"/>
<text text-anchor="middle" x="109.84" y="-161.27" font-family="FreeSans" font-size="14.00" fill="#000000">X::Comp::Trait::Unknown</text>
</a>
</g>
</g>
<!-- Exception -->
<g id="node4" class="node">
<title>Exception</title>
<g id="a_node4"><a xlink:href="/type/Exception" xlink:title="Exception">
<ellipse fill="none" stroke="#000000" cx="277.09" cy="-183.7" rx="49.29" ry="18"/>
<text text-anchor="middle" x="277.09" y="-180" font-family="FreeSans" font-size="14.00" fill="#000000">Exception</text>
</a>
</g>
</g>
<!-- X::Comp::Trait::Unknown&#45;&gt;Exception -->
<g id="edge2" class="edge">
<title>X::Comp::Trait::Unknown&#45;&gt;Exception</title>
<path fill="none" stroke="#000000" d="M200.81,-175.15C207.19,-175.87 213.51,-176.58 219.63,-177.26"/>
<polygon fill="#000000" stroke="#000000" points="219.37,-180.75 229.7,-178.39 220.15,-173.8 219.37,-180.75"/>
</g>
<!-- X::Trait::Unknown -->
<g id="node5" class="node">
<title>X::Trait::Unknown</title>
<g id="a_node5"><a xlink:href="/type/X::Trait::Unknown" xlink:title="X::Trait::Unknown">
<ellipse fill="none" stroke="#000000" cx="195.11" cy="-18" rx="81.49" ry="18"/>
<text text-anchor="middle" x="195.11" y="-14.3" font-family="FreeSans" font-size="14.00" fill="#000000">X::Trait::Unknown</text>
</a>
</g>
</g>
<!-- X::Comp::Trait::Unknown&#45;&gt;X::Trait::Unknown -->
<g id="edge1" class="edge">
<title>X::Comp::Trait::Unknown&#45;&gt;X::Trait::Unknown</title>
<path fill="none" stroke="#000000" d="M120.3,-146.95C135.06,-121.5 162.14,-74.82 179.35,-45.15"/>
<polygon fill="#000000" stroke="#000000" points="182.57,-46.57 184.56,-36.17 176.52,-43.06 182.57,-46.57"/>
</g>
<!-- X::Comp -->
<g id="node6" class="node">
<title>X::Comp</title>
<g id="a_node6"><a xlink:href="/type/X::Comp" xlink:title="X::Comp">
<ellipse fill="none" stroke="#6666ff" cx="160.59" cy="-327.19" rx="44.69" ry="18"/>
<text text-anchor="middle" x="160.59" y="-323.49" font-family="FreeSans" font-size="14.00" fill="#6666ff">X::Comp</text>
</a>
</g>
</g>
<!-- X::Comp::Trait::Unknown&#45;&gt;X::Comp -->
<g id="edge7" class="edge">
<title>X::Comp::Trait::Unknown&#45;&gt;X::Comp</title>
<path fill="none" stroke="#6666ff" d="M115.47,-182.95C124.31,-211.21 141.52,-266.22 151.94,-299.54"/>
<polygon fill="#6666ff" stroke="#6666ff" points="148.62,-300.63 154.94,-309.13 155.3,-298.54 148.62,-300.63"/>
</g>
<!-- Mu -->
<g id="node2" class="node">
<title>Mu</title>
<g id="a_node2"><a xlink:href="/type/Mu" xlink:title="Mu">
<ellipse fill="none" stroke="#000000" cx="629.5" cy="-213.56" rx="27" ry="18"/>
<text text-anchor="middle" x="629.5" y="-209.86" font-family="FreeSans" font-size="14.00" fill="#000000">Mu</text>
</a>
</g>
</g>
<!-- Any -->
<g id="node3" class="node">
<title>Any</title>
<g id="a_node3"><a xlink:href="/type/Any" xlink:title="Any">
<ellipse fill="none" stroke="#000000" cx="456.37" cy="-204.87" rx="27" ry="18"/>
<text text-anchor="middle" x="456.37" y="-201.17" font-family="FreeSans" font-size="14.00" fill="#000000">Any</text>
</a>
</g>
</g>
<!-- Any&#45;&gt;Mu -->
<g id="edge3" class="edge">
<title>Any&#45;&gt;Mu</title>
<path fill="none" stroke="#000000" d="M483.42,-206.22C512.68,-207.69 559.54,-210.04 592.27,-211.69"/>
<polygon fill="#000000" stroke="#000000" points="592.19,-215.19 602.36,-212.19 592.54,-208.2 592.19,-215.19"/>
</g>
<!-- Exception&#45;&gt;Any -->
<g id="edge4" class="edge">
<title>Exception&#45;&gt;Any</title>
<path fill="none" stroke="#000000" d="M324.2,-189.26C354,-192.78 391.97,-197.26 419.56,-200.52"/>
<polygon fill="#000000" stroke="#000000" points="419.25,-204.01 429.59,-201.7 420.07,-197.05 419.25,-204.01"/>
</g>
<!-- X::Trait::Unknown&#45;&gt;Exception -->
<g id="edge5" class="edge">
<title>X::Trait::Unknown&#45;&gt;Exception</title>
<path fill="none" stroke="#000000" d="M204.04,-36.05C218.43,-65.13 246.84,-122.55 263.67,-156.58"/>
<polygon fill="#000000" stroke="#000000" points="260.73,-158.51 268.3,-165.92 267,-155.41 260.73,-158.51"/>
</g>
<!-- X::Comp&#45;&gt;Exception -->
<g id="edge6" class="edge">
<title>X::Comp&#45;&gt;Exception</title>
<path fill="none" stroke="#000000" d="M174.65,-309.88C195.03,-284.78 232.92,-238.11 256.47,-209.1"/>
<polygon fill="#000000" stroke="#000000" points="259.4,-211.04 262.99,-201.07 253.97,-206.62 259.4,-211.04"/>
</g>
</g>
</svg>
