<?xml version="1.0" encoding="UTF-8" standalone="no"?>
<!DOCTYPE svg PUBLIC "-//W3C//DTD SVG 1.1//EN"
 "http://www.w3.org/Graphics/SVG/1.1/DTD/svg11.dtd">
<!-- Generated by graphviz version 2.43.0 (0)
 -->
<!-- Title: perl6&#45;type&#45;graph Pages: 1 -->
<svg width="614pt" height="330pt"
 viewBox="0.00 0.00 613.78 330.36" xmlns="http://www.w3.org/2000/svg" xmlns:xlink="http://www.w3.org/1999/xlink">
<g id="graph0" class="graph" transform="scale(1 1) rotate(0) translate(4 326.36)">
<title>perl6&#45;type&#45;graph</title>
<polygon fill="white" stroke="transparent" points="-4,4 -4,-326.36 609.78,-326.36 609.78,4 -4,4"/>
<!-- X::Comp::Trait::Scope -->
<g id="node1" class="node">
<title>X::Comp::Trait::Scope</title>
<g id="a_node1"><a xlink:href="/type/X::Comp::Trait::Scope" xlink:title="X::Comp::Trait::Scope">
<ellipse fill="none" stroke="#000000" cx="97.49" cy="-154.12" rx="97.48" ry="18"/>
<text text-anchor="middle" x="97.49" y="-150.42" font-family="FreeSans" font-size="14.00" fill="#000000">X::Comp::Trait::Scope</text>
</a>
</g>
</g>
<!-- Exception -->
<g id="node4" class="node">
<title>Exception</title>
<g id="a_node4"><a xlink:href="/type/Exception" xlink:title="Exception">
<ellipse fill="none" stroke="#000000" cx="252.39" cy="-171.46" rx="49.29" ry="18"/>
<text text-anchor="middle" x="252.39" y="-167.76" font-family="FreeSans" font-size="14.00" fill="#000000">Exception</text>
</a>
</g>
</g>
<!-- X::Comp::Trait::Scope&#45;&gt;Exception -->
<g id="edge2" class="edge">
<title>X::Comp::Trait::Scope&#45;&gt;Exception</title>
<path fill="none" stroke="#000000" d="M181.29,-163.5C185.86,-164.01 190.4,-164.52 194.85,-165.02"/>
<polygon fill="#000000" stroke="#000000" points="194.7,-168.52 205.03,-166.16 195.48,-161.57 194.7,-168.52"/>
</g>
<!-- X::Trait::Scope -->
<g id="node5" class="node">
<title>X::Trait::Scope</title>
<g id="a_node5"><a xlink:href="/type/X::Trait::Scope" xlink:title="X::Trait::Scope">
<ellipse fill="none" stroke="#000000" cx="176.46" cy="-18" rx="69.59" ry="18"/>
<text text-anchor="middle" x="176.46" y="-14.3" font-family="FreeSans" font-size="14.00" fill="#000000">X::Trait::Scope</text>
</a>
</g>
</g>
<!-- X::Comp::Trait::Scope&#45;&gt;X::Trait::Scope -->
<g id="edge1" class="edge">
<title>X::Comp::Trait::Scope&#45;&gt;X::Trait::Scope</title>
<path fill="none" stroke="#000000" d="M107.98,-136.04C121.49,-112.75 145.1,-72.06 160.75,-45.07"/>
<polygon fill="#000000" stroke="#000000" points="163.94,-46.56 165.93,-36.15 157.88,-43.04 163.94,-46.56"/>
</g>
<!-- X::Comp -->
<g id="node6" class="node">
<title>X::Comp</title>
<g id="a_node6"><a xlink:href="/type/X::Comp" xlink:title="X::Comp">
<ellipse fill="none" stroke="#6666ff" cx="144.5" cy="-304.36" rx="44.69" ry="18"/>
<text text-anchor="middle" x="144.5" y="-300.66" font-family="FreeSans" font-size="14.00" fill="#6666ff">X::Comp</text>
</a>
</g>
</g>
<!-- X::Comp::Trait::Scope&#45;&gt;X::Comp -->
<g id="edge7" class="edge">
<title>X::Comp::Trait::Scope&#45;&gt;X::Comp</title>
<path fill="none" stroke="#6666ff" d="M103.16,-172.24C111.28,-198.18 126.28,-246.13 135.81,-276.58"/>
<polygon fill="#6666ff" stroke="#6666ff" points="132.48,-277.67 138.81,-286.17 139.16,-275.58 132.48,-277.67"/>
</g>
<!-- Mu -->
<g id="node2" class="node">
<title>Mu</title>
<g id="a_node2"><a xlink:href="/type/Mu" xlink:title="Mu">
<ellipse fill="none" stroke="#000000" cx="578.78" cy="-199.12" rx="27" ry="18"/>
<text text-anchor="middle" x="578.78" y="-195.42" font-family="FreeSans" font-size="14.00" fill="#000000">Mu</text>
</a>
</g>
</g>
<!-- Any -->
<g id="node3" class="node">
<title>Any</title>
<g id="a_node3"><a xlink:href="/type/Any" xlink:title="Any">
<ellipse fill="none" stroke="#000000" cx="418.43" cy="-191.07" rx="27" ry="18"/>
<text text-anchor="middle" x="418.43" y="-187.37" font-family="FreeSans" font-size="14.00" fill="#000000">Any</text>
</a>
</g>
</g>
<!-- Any&#45;&gt;Mu -->
<g id="edge3" class="edge">
<title>Any&#45;&gt;Mu</title>
<path fill="none" stroke="#000000" d="M445.63,-192.43C471.97,-193.75 512.12,-195.77 541.45,-197.24"/>
<polygon fill="#000000" stroke="#000000" points="541.55,-200.75 551.72,-197.76 541.9,-193.76 541.55,-200.75"/>
</g>
<!-- Exception&#45;&gt;Any -->
<g id="edge4" class="edge">
<title>Exception&#45;&gt;Any</title>
<path fill="none" stroke="#000000" d="M299.53,-177.03C325.42,-180.08 357.07,-183.82 381.21,-186.67"/>
<polygon fill="#000000" stroke="#000000" points="381.05,-190.18 391.39,-187.87 381.87,-183.23 381.05,-190.18"/>
</g>
<!-- X::Trait::Scope&#45;&gt;Exception -->
<g id="edge5" class="edge">
<title>X::Trait::Scope&#45;&gt;Exception</title>
<path fill="none" stroke="#000000" d="M185.32,-35.9C198.58,-62.7 223.68,-113.42 239.13,-144.65"/>
<polygon fill="#000000" stroke="#000000" points="236.02,-146.26 243.59,-153.67 242.29,-143.16 236.02,-146.26"/>
</g>
<!-- X::Comp&#45;&gt;Exception -->
<g id="edge6" class="edge">
<title>X::Comp&#45;&gt;Exception</title>
<path fill="none" stroke="#000000" d="M158.6,-286.98C177.26,-264 210.29,-223.32 231.75,-196.88"/>
<polygon fill="#000000" stroke="#000000" points="234.7,-198.81 238.28,-188.84 229.26,-194.4 234.7,-198.81"/>
</g>
</g>
</svg>
