<?xml version="1.0" encoding="UTF-8" standalone="no"?>
<!DOCTYPE svg PUBLIC "-//W3C//DTD SVG 1.1//EN"
 "http://www.w3.org/Graphics/SVG/1.1/DTD/svg11.dtd">
<!-- Generated by graphviz version 2.43.0 (0)
 -->
<!-- Title: perl6&#45;type&#45;graph Pages: 1 -->
<svg width="723pt" height="380pt"
 viewBox="0.00 0.00 723.23 379.62" xmlns="http://www.w3.org/2000/svg" xmlns:xlink="http://www.w3.org/1999/xlink">
<g id="graph0" class="graph" transform="scale(1 1) rotate(0) translate(4 375.62)">
<title>perl6&#45;type&#45;graph</title>
<polygon fill="white" stroke="transparent" points="-4,4 -4,-375.62 719.23,-375.62 719.23,4 -4,4"/>
<!-- X::Comp::Trait::NotOnNative -->
<g id="node1" class="node">
<title>X::Comp::Trait::NotOnNative</title>
<g id="a_node1"><a xlink:href="/type/X::Comp::Trait::NotOnNative" xlink:title="X::Comp::Trait::NotOnNative">
<ellipse fill="none" stroke="#000000" cx="124.14" cy="-177.54" rx="124.28" ry="18"/>
<text text-anchor="middle" x="124.14" y="-173.84" font-family="FreeSans" font-size="14.00" fill="#000000">X::Comp::Trait::NotOnNative</text>
</a>
</g>
</g>
<!-- Exception -->
<g id="node4" class="node">
<title>Exception</title>
<g id="a_node4"><a xlink:href="/type/Exception" xlink:title="Exception">
<ellipse fill="none" stroke="#000000" cx="305.69" cy="-197.86" rx="49.29" ry="18"/>
<text text-anchor="middle" x="305.69" y="-194.16" font-family="FreeSans" font-size="14.00" fill="#000000">Exception</text>
</a>
</g>
</g>
<!-- X::Comp::Trait::NotOnNative&#45;&gt;Exception -->
<g id="edge2" class="edge">
<title>X::Comp::Trait::NotOnNative&#45;&gt;Exception</title>
<path fill="none" stroke="#000000" d="M222.62,-188.56C231.29,-189.53 239.87,-190.49 248.04,-191.41"/>
<polygon fill="#000000" stroke="#000000" points="247.81,-194.9 258.14,-192.54 248.59,-187.95 247.81,-194.9"/>
</g>
<!-- X::Trait::NotOnNative -->
<g id="node5" class="node">
<title>X::Trait::NotOnNative</title>
<g id="a_node5"><a xlink:href="/type/X::Trait::NotOnNative" xlink:title="X::Trait::NotOnNative">
<ellipse fill="none" stroke="#000000" cx="216.69" cy="-18" rx="96.38" ry="18"/>
<text text-anchor="middle" x="216.69" y="-14.3" font-family="FreeSans" font-size="14.00" fill="#000000">X::Trait::NotOnNative</text>
</a>
</g>
</g>
<!-- X::Comp::Trait::NotOnNative&#45;&gt;X::Trait::NotOnNative -->
<g id="edge1" class="edge">
<title>X::Comp::Trait::NotOnNative&#45;&gt;X::Trait::NotOnNative</title>
<path fill="none" stroke="#000000" d="M134.58,-159.54C150.76,-131.66 181.99,-77.81 200.93,-45.17"/>
<polygon fill="#000000" stroke="#000000" points="204.16,-46.58 206.15,-36.17 198.11,-43.06 204.16,-46.58"/>
</g>
<!-- X::Comp -->
<g id="node6" class="node">
<title>X::Comp</title>
<g id="a_node6"><a xlink:href="/type/X::Comp" xlink:title="X::Comp">
<ellipse fill="none" stroke="#6666ff" cx="179.23" cy="-353.62" rx="44.69" ry="18"/>
<text text-anchor="middle" x="179.23" y="-349.92" font-family="FreeSans" font-size="14.00" fill="#6666ff">X::Comp</text>
</a>
</g>
</g>
<!-- X::Comp::Trait::NotOnNative&#45;&gt;X::Comp -->
<g id="edge7" class="edge">
<title>X::Comp::Trait::NotOnNative&#45;&gt;X::Comp</title>
<path fill="none" stroke="#6666ff" d="M129.83,-195.72C139.46,-226.51 159.05,-289.12 170.45,-325.57"/>
<polygon fill="#6666ff" stroke="#6666ff" points="167.25,-327.04 173.58,-335.54 173.93,-324.95 167.25,-327.04"/>
</g>
<!-- Mu -->
<g id="node2" class="node">
<title>Mu</title>
<g id="a_node2"><a xlink:href="/type/Mu" xlink:title="Mu">
<ellipse fill="none" stroke="#000000" cx="688.23" cy="-230.28" rx="27" ry="18"/>
<text text-anchor="middle" x="688.23" y="-226.58" font-family="FreeSans" font-size="14.00" fill="#000000">Mu</text>
</a>
</g>
</g>
<!-- Any -->
<g id="node3" class="node">
<title>Any</title>
<g id="a_node3"><a xlink:href="/type/Any" xlink:title="Any">
<ellipse fill="none" stroke="#000000" cx="500.3" cy="-220.84" rx="27" ry="18"/>
<text text-anchor="middle" x="500.3" y="-217.14" font-family="FreeSans" font-size="14.00" fill="#000000">Any</text>
</a>
</g>
</g>
<!-- Any&#45;&gt;Mu -->
<g id="edge3" class="edge">
<title>Any&#45;&gt;Mu</title>
<path fill="none" stroke="#000000" d="M527.22,-222.19C559.65,-223.82 614.29,-226.57 650.81,-228.4"/>
<polygon fill="#000000" stroke="#000000" points="650.89,-231.91 661.05,-228.91 651.24,-224.92 650.89,-231.91"/>
</g>
<!-- Exception&#45;&gt;Any -->
<g id="edge4" class="edge">
<title>Exception&#45;&gt;Any</title>
<path fill="none" stroke="#000000" d="M352.8,-203.43C386.86,-207.45 432.21,-212.8 463.6,-216.51"/>
<polygon fill="#000000" stroke="#000000" points="463.33,-220 473.67,-217.7 464.15,-213.05 463.33,-220"/>
</g>
<!-- X::Trait::NotOnNative&#45;&gt;Exception -->
<g id="edge5" class="edge">
<title>X::Trait::NotOnNative&#45;&gt;Exception</title>
<path fill="none" stroke="#000000" d="M225.72,-36.24C241.46,-68.05 274,-133.81 292.35,-170.9"/>
<polygon fill="#000000" stroke="#000000" points="289.34,-172.7 296.91,-180.11 295.61,-169.6 289.34,-172.7"/>
</g>
<!-- X::Comp&#45;&gt;Exception -->
<g id="edge6" class="edge">
<title>X::Comp&#45;&gt;Exception</title>
<path fill="none" stroke="#000000" d="M193.25,-336.36C215.56,-308.88 259.28,-255.03 285.14,-223.18"/>
<polygon fill="#000000" stroke="#000000" points="288.03,-225.17 291.61,-215.2 282.59,-220.76 288.03,-225.17"/>
</g>
</g>
</svg>
