<?xml version="1.0" encoding="UTF-8" standalone="no"?>
<!DOCTYPE svg PUBLIC "-//W3C//DTD SVG 1.1//EN"
 "http://www.w3.org/Graphics/SVG/1.1/DTD/svg11.dtd">
<!-- Generated by graphviz version 2.43.0 (0)
 -->
<!-- Title: perl6&#45;type&#45;graph Pages: 1 -->
<svg width="500pt" height="75pt"
 viewBox="0.00 0.00 500.28 74.88" xmlns="http://www.w3.org/2000/svg" xmlns:xlink="http://www.w3.org/1999/xlink">
<g id="graph0" class="graph" transform="scale(1 1) rotate(0) translate(4 70.88)">
<title>perl6&#45;type&#45;graph</title>
<polygon fill="white" stroke="transparent" points="-4,4 -4,-70.88 496.28,-70.88 496.28,4 -4,4"/>
<!-- X::Comp::Group -->
<g id="node1" class="node">
<title>X::Comp::Group</title>
<g id="a_node1"><a xlink:href="/type/X::Comp::Group" xlink:title="X::Comp::Group">
<ellipse fill="none" stroke="#000000" cx="74.09" cy="-43.15" rx="74.19" ry="18"/>
<text text-anchor="middle" x="74.09" y="-39.45" font-family="FreeSans" font-size="14.00" fill="#000000">X::Comp::Group</text>
</a>
</g>
</g>
<!-- Exception -->
<g id="node4" class="node">
<title>Exception</title>
<g id="a_node4"><a xlink:href="/type/Exception" xlink:title="Exception">
<ellipse fill="none" stroke="#000000" cx="205.6" cy="-48.88" rx="49.29" ry="18"/>
<text text-anchor="middle" x="205.6" y="-45.18" font-family="FreeSans" font-size="14.00" fill="#000000">Exception</text>
</a>
</g>
</g>
<!-- X::Comp::Group&#45;&gt;Exception -->
<g id="edge1" class="edge">
<title>X::Comp::Group&#45;&gt;Exception</title>
<path fill="none" stroke="#000000" d="M147.15,-46.33C147.25,-46.34 147.34,-46.34 147.44,-46.34"/>
<polygon fill="#000000" stroke="#000000" points="146.14,-49.79 156.28,-46.73 146.44,-42.8 146.14,-49.79"/>
</g>
<!-- Mu -->
<g id="node2" class="node">
<title>Mu</title>
<g id="a_node2"><a xlink:href="/type/Mu" xlink:title="Mu">
<ellipse fill="none" stroke="#000000" cx="465.28" cy="-18" rx="27" ry="18"/>
<text text-anchor="middle" x="465.28" y="-14.3" font-family="FreeSans" font-size="14.00" fill="#000000">Mu</text>
</a>
</g>
</g>
<!-- Any -->
<g id="node3" class="node">
<title>Any</title>
<g id="a_node3"><a xlink:href="/type/Any" xlink:title="Any">
<ellipse fill="none" stroke="#000000" cx="333.81" cy="-18.19" rx="27" ry="18"/>
<text text-anchor="middle" x="333.81" y="-14.49" font-family="FreeSans" font-size="14.00" fill="#000000">Any</text>
</a>
</g>
</g>
<!-- Any&#45;&gt;Mu -->
<g id="edge2" class="edge">
<title>Any&#45;&gt;Mu</title>
<path fill="none" stroke="#000000" d="M361.05,-18.15C380.44,-18.12 406.73,-18.08 428.06,-18.05"/>
<polygon fill="#000000" stroke="#000000" points="428.08,-21.55 438.08,-18.04 428.07,-14.55 428.08,-21.55"/>
</g>
<!-- Exception&#45;&gt;Any -->
<g id="edge3" class="edge">
<title>Exception&#45;&gt;Any</title>
<path fill="none" stroke="#000000" d="M247.22,-38.92C263.66,-34.98 282.35,-30.51 298.15,-26.73"/>
<polygon fill="#000000" stroke="#000000" points="299.15,-30.08 308.06,-24.35 297.52,-23.28 299.15,-30.08"/>
</g>
</g>
</svg>
