<?xml version="1.0" encoding="UTF-8" standalone="no"?>
<!DOCTYPE svg PUBLIC "-//W3C//DTD SVG 1.1//EN"
 "http://www.w3.org/Graphics/SVG/1.1/DTD/svg11.dtd">
<!-- Generated by graphviz version 2.43.0 (0)
 -->
<!-- Title: perl6&#45;type&#45;graph Pages: 1 -->
<svg width="1184pt" height="332pt"
 viewBox="0.00 0.00 1184.19 332.00" xmlns="http://www.w3.org/2000/svg" xmlns:xlink="http://www.w3.org/1999/xlink">
<g id="graph0" class="graph" transform="scale(1 1) rotate(0) translate(4 328)">
<title>perl6&#45;type&#45;graph</title>
<polygon fill="white" stroke="transparent" points="-4,4 -4,-328 1180.19,-328 1180.19,4 -4,4"/>
<!-- X::Control -->
<g id="node1" class="node">
<title>X::Control</title>
<g id="a_node1"><a xlink:href="/type/X::Control" xlink:title="X::Control">
<ellipse fill="none" stroke="#6666ff" cx="543.75" cy="-90" rx="50.09" ry="18"/>
<text text-anchor="middle" x="543.75" y="-86.3" font-family="FreeSans" font-size="14.00" fill="#6666ff">X::Control</text>
</a>
</g>
</g>
<!-- Exception -->
<g id="node4" class="node">
<title>Exception</title>
<g id="a_node4"><a xlink:href="/type/Exception" xlink:title="Exception">
<ellipse fill="none" stroke="#000000" cx="504.75" cy="-162" rx="49.29" ry="18"/>
<text text-anchor="middle" x="504.75" y="-158.3" font-family="FreeSans" font-size="14.00" fill="#000000">Exception</text>
</a>
</g>
</g>
<!-- X::Control&#45;&gt;Exception -->
<g id="edge1" class="edge">
<title>X::Control&#45;&gt;Exception</title>
<path fill="none" stroke="#000000" d="M534.3,-107.95C529.71,-116.2 524.08,-126.3 518.97,-135.46"/>
<polygon fill="#000000" stroke="#000000" points="515.91,-133.77 514.1,-144.21 522.02,-137.18 515.91,-133.77"/>
</g>
<!-- Mu -->
<g id="node2" class="node">
<title>Mu</title>
<g id="a_node2"><a xlink:href="/type/Mu" xlink:title="Mu">
<ellipse fill="none" stroke="#000000" cx="504.75" cy="-306" rx="27" ry="18"/>
<text text-anchor="middle" x="504.75" y="-302.3" font-family="FreeSans" font-size="14.00" fill="#000000">Mu</text>
</a>
</g>
</g>
<!-- Any -->
<g id="node3" class="node">
<title>Any</title>
<g id="a_node3"><a xlink:href="/type/Any" xlink:title="Any">
<ellipse fill="none" stroke="#000000" cx="504.75" cy="-234" rx="27" ry="18"/>
<text text-anchor="middle" x="504.75" y="-230.3" font-family="FreeSans" font-size="14.00" fill="#000000">Any</text>
</a>
</g>
</g>
<!-- Any&#45;&gt;Mu -->
<g id="edge2" class="edge">
<title>Any&#45;&gt;Mu</title>
<path fill="none" stroke="#000000" d="M504.75,-252.3C504.75,-260.02 504.75,-269.29 504.75,-277.89"/>
<polygon fill="#000000" stroke="#000000" points="501.25,-277.9 504.75,-287.9 508.25,-277.9 501.25,-277.9"/>
</g>
<!-- Exception&#45;&gt;Any -->
<g id="edge3" class="edge">
<title>Exception&#45;&gt;Any</title>
<path fill="none" stroke="#000000" d="M504.75,-180.3C504.75,-188.02 504.75,-197.29 504.75,-205.89"/>
<polygon fill="#000000" stroke="#000000" points="501.25,-205.9 504.75,-215.9 508.25,-205.9 501.25,-205.9"/>
</g>
<!-- CX::Redo -->
<g id="node5" class="node">
<title>CX::Redo</title>
<g id="a_node5"><a xlink:href="/type/CX::Redo" xlink:title="CX::Redo">
<ellipse fill="none" stroke="#000000" cx="48.75" cy="-18" rx="48.99" ry="18"/>
<text text-anchor="middle" x="48.75" y="-14.3" font-family="FreeSans" font-size="14.00" fill="#000000">CX::Redo</text>
</a>
</g>
</g>
<!-- CX::Redo&#45;&gt;X::Control -->
<g id="edge15" class="edge">
<title>CX::Redo&#45;&gt;X::Control</title>
<path fill="none" stroke="#6666ff" d="M81.54,-31.35C90.01,-33.99 96.75,-36 96.75,-36 96.75,-36 365.83,-68.56 486.51,-82.64"/>
<polygon fill="#6666ff" stroke="#6666ff" points="486.34,-86.14 496.67,-83.82 487.15,-79.19 486.34,-86.14"/>
</g>
<!-- CX::Redo&#45;&gt;X::Control -->
<g id="edge16" class="edge">
<title>CX::Redo&#45;&gt;X::Control</title>
<path fill="none" stroke="#6666ff" d="M88.7,-28.49C102.64,-32.39 114.75,-36 114.75,-36 114.75,-36 371.07,-67.02 487.52,-81.59"/>
<polygon fill="#6666ff" stroke="#6666ff" points="487.31,-85.1 497.67,-82.87 488.18,-78.15 487.31,-85.1"/>
</g>
<!-- CX::Redo&#45;&gt;Exception -->
<g id="edge4" class="edge">
<title>CX::Redo&#45;&gt;Exception</title>
<path fill="none" stroke="#000000" d="M78.96,-32.32C140.91,-57.15 275.75,-108 275.75,-108 275.75,-108 385.39,-134.41 453.03,-149.95"/>
<polygon fill="#000000" stroke="#000000" points="452.57,-153.43 463.1,-152.25 454.13,-146.61 452.57,-153.43"/>
</g>
<!-- CX::Redo&#45;&gt;Exception -->
<g id="edge5" class="edge">
<title>CX::Redo&#45;&gt;Exception</title>
<path fill="none" stroke="#000000" d="M84.18,-30.54C152.21,-54.63 293.75,-108 293.75,-108 293.75,-108 394.07,-132.17 456.45,-147.87"/>
<polygon fill="#000000" stroke="#000000" points="455.94,-151.35 466.49,-150.4 457.66,-144.56 455.94,-151.35"/>
</g>
<!-- CX::Done -->
<g id="node6" class="node">
<title>CX::Done</title>
<g id="a_node6"><a xlink:href="/type/CX::Done" xlink:title="CX::Done">
<ellipse fill="none" stroke="#000000" cx="163.75" cy="-18" rx="48.99" ry="18"/>
<text text-anchor="middle" x="163.75" y="-14.3" font-family="FreeSans" font-size="14.00" fill="#000000">CX::Done</text>
</a>
</g>
</g>
<!-- CX::Done&#45;&gt;X::Control -->
<g id="edge17" class="edge">
<title>CX::Done&#45;&gt;X::Control</title>
<path fill="none" stroke="#6666ff" d="M200.81,-29.86C212.17,-33.19 221.75,-36 221.75,-36 221.75,-36 397.55,-64.94 489.35,-80.05"/>
<polygon fill="#6666ff" stroke="#6666ff" points="488.88,-83.52 499.31,-81.69 490.01,-76.61 488.88,-83.52"/>
</g>
<!-- CX::Done&#45;&gt;Exception -->
<g id="edge6" class="edge">
<title>CX::Done&#45;&gt;Exception</title>
<path fill="none" stroke="#000000" d="M193.84,-32.32C249.91,-57.15 364.75,-108 364.75,-108 364.75,-108 420.82,-129.23 461.99,-144.81"/>
<polygon fill="#000000" stroke="#000000" points="460.98,-148.17 471.57,-148.44 463.45,-141.63 460.98,-148.17"/>
</g>
<!-- CX::Return -->
<g id="node7" class="node">
<title>CX::Return</title>
<g id="a_node7"><a xlink:href="/type/CX::Return" xlink:title="CX::Return">
<ellipse fill="none" stroke="#000000" cx="284.75" cy="-18" rx="53.89" ry="18"/>
<text text-anchor="middle" x="284.75" y="-14.3" font-family="FreeSans" font-size="14.00" fill="#000000">CX::Return</text>
</a>
</g>
</g>
<!-- CX::Return&#45;&gt;X::Control -->
<g id="edge18" class="edge">
<title>CX::Return&#45;&gt;X::Control</title>
<path fill="none" stroke="#6666ff" d="M325.21,-29.94C371.13,-42.35 446,-62.58 495.07,-75.85"/>
<polygon fill="#6666ff" stroke="#6666ff" points="494.26,-79.25 504.83,-78.48 496.09,-72.49 494.26,-79.25"/>
</g>
<!-- CX::Return&#45;&gt;Exception -->
<g id="edge7" class="edge">
<title>CX::Return&#45;&gt;Exception</title>
<path fill="none" stroke="#000000" d="M308.29,-34.2C347.99,-59.82 428.27,-111.64 472.93,-140.47"/>
<polygon fill="#000000" stroke="#000000" points="471.07,-143.43 481.37,-145.91 474.87,-137.55 471.07,-143.43"/>
</g>
<!-- CX::Next -->
<g id="node8" class="node">
<title>CX::Next</title>
<g id="a_node8"><a xlink:href="/type/CX::Next" xlink:title="CX::Next">
<ellipse fill="none" stroke="#000000" cx="402.75" cy="-18" rx="46.29" ry="18"/>
<text text-anchor="middle" x="402.75" y="-14.3" font-family="FreeSans" font-size="14.00" fill="#000000">CX::Next</text>
</a>
</g>
</g>
<!-- CX::Next&#45;&gt;X::Control -->
<g id="edge19" class="edge">
<title>CX::Next&#45;&gt;X::Control</title>
<path fill="none" stroke="#6666ff" d="M430.27,-32.66C451.92,-43.41 482.31,-58.5 506.2,-70.36"/>
<polygon fill="#6666ff" stroke="#6666ff" points="504.81,-73.58 515.33,-74.89 507.93,-67.31 504.81,-73.58"/>
</g>
<!-- CX::Next&#45;&gt;Exception -->
<g id="edge8" class="edge">
<title>CX::Next&#45;&gt;Exception</title>
<path fill="none" stroke="#000000" d="M414.65,-35.57C432.36,-60.23 465.81,-106.8 486.59,-135.73"/>
<polygon fill="#000000" stroke="#000000" points="483.93,-138.02 492.6,-144.1 489.61,-133.93 483.93,-138.02"/>
</g>
<!-- CX::Last -->
<g id="node9" class="node">
<title>CX::Last</title>
<g id="a_node9"><a xlink:href="/type/CX::Last" xlink:title="CX::Last">
<ellipse fill="none" stroke="#000000" cx="511.75" cy="-18" rx="44.69" ry="18"/>
<text text-anchor="middle" x="511.75" y="-14.3" font-family="FreeSans" font-size="14.00" fill="#000000">CX::Last</text>
</a>
</g>
</g>
<!-- CX::Last&#45;&gt;X::Control -->
<g id="edge20" class="edge">
<title>CX::Last&#45;&gt;X::Control</title>
<path fill="none" stroke="#6666ff" d="M519.49,-35.95C523.19,-44.03 527.69,-53.88 531.81,-62.89"/>
<polygon fill="#6666ff" stroke="#6666ff" points="528.73,-64.57 536.07,-72.21 535.1,-61.66 528.73,-64.57"/>
</g>
<!-- CX::Last&#45;&gt;Exception -->
<g id="edge9" class="edge">
<title>CX::Last&#45;&gt;Exception</title>
<path fill="none" stroke="#000000" d="M503.2,-35.77C495.29,-51.3 484.75,-72 484.75,-72 484.75,-72 484.75,-108 484.75,-108 484.75,-108 489.74,-121.24 494.74,-134.48"/>
<polygon fill="#000000" stroke="#000000" points="491.5,-135.82 498.31,-143.94 498.05,-133.35 491.5,-135.82"/>
</g>
<!-- CX::Succeed -->
<g id="node10" class="node">
<title>CX::Succeed</title>
<g id="a_node10"><a xlink:href="/type/CX::Succeed" xlink:title="CX::Succeed">
<ellipse fill="none" stroke="#000000" cx="636.75" cy="-18" rx="61.99" ry="18"/>
<text text-anchor="middle" x="636.75" y="-14.3" font-family="FreeSans" font-size="14.00" fill="#000000">CX::Succeed</text>
</a>
</g>
</g>
<!-- CX::Succeed&#45;&gt;X::Control -->
<g id="edge21" class="edge">
<title>CX::Succeed&#45;&gt;X::Control</title>
<path fill="none" stroke="#6666ff" d="M615.18,-35.24C602.47,-44.8 586.23,-57.02 572.45,-67.39"/>
<polygon fill="#6666ff" stroke="#6666ff" points="570.13,-64.76 564.24,-73.57 574.34,-70.36 570.13,-64.76"/>
</g>
<!-- CX::Succeed&#45;&gt;Exception -->
<g id="edge10" class="edge">
<title>CX::Succeed&#45;&gt;Exception</title>
<path fill="none" stroke="#000000" d="M630.19,-36.16C620.31,-62.02 602.75,-108 602.75,-108 602.75,-108 568.18,-126.7 540.1,-141.88"/>
<polygon fill="#000000" stroke="#000000" points="538.4,-138.82 531.27,-146.66 541.73,-144.98 538.4,-138.82"/>
</g>
<!-- CX::Emit -->
<g id="node11" class="node">
<title>CX::Emit</title>
<g id="a_node11"><a xlink:href="/type/CX::Emit" xlink:title="CX::Emit">
<ellipse fill="none" stroke="#000000" cx="761.75" cy="-18" rx="45.49" ry="18"/>
<text text-anchor="middle" x="761.75" y="-14.3" font-family="FreeSans" font-size="14.00" fill="#000000">CX::Emit</text>
</a>
</g>
</g>
<!-- CX::Emit&#45;&gt;X::Control -->
<g id="edge22" class="edge">
<title>CX::Emit&#45;&gt;X::Control</title>
<path fill="none" stroke="#6666ff" d="M727.68,-29.94C690.43,-41.9 630.55,-61.13 589.29,-74.38"/>
<polygon fill="#6666ff" stroke="#6666ff" points="588.2,-71.05 579.74,-77.44 590.34,-77.72 588.2,-71.05"/>
</g>
<!-- CX::Emit&#45;&gt;Exception -->
<g id="edge11" class="edge">
<title>CX::Emit&#45;&gt;Exception</title>
<path fill="none" stroke="#000000" d="M738.96,-33.7C699.76,-58.98 623.75,-108 623.75,-108 623.75,-108 578.86,-127.99 544.23,-143.42"/>
<polygon fill="#000000" stroke="#000000" points="542.49,-140.36 534.77,-147.63 545.33,-146.75 542.49,-140.36"/>
</g>
<!-- CX::Warn -->
<g id="node12" class="node">
<title>CX::Warn</title>
<g id="a_node12"><a xlink:href="/type/CX::Warn" xlink:title="CX::Warn">
<ellipse fill="none" stroke="#000000" cx="873.75" cy="-18" rx="48.99" ry="18"/>
<text text-anchor="middle" x="873.75" y="-14.3" font-family="FreeSans" font-size="14.00" fill="#000000">CX::Warn</text>
</a>
</g>
</g>
<!-- CX::Warn&#45;&gt;X::Control -->
<g id="edge23" class="edge">
<title>CX::Warn&#45;&gt;X::Control</title>
<path fill="none" stroke="#6666ff" d="M836.69,-29.86C825.32,-33.19 815.75,-36 815.75,-36 815.75,-36 675.98,-63.23 596.82,-78.66"/>
<polygon fill="#6666ff" stroke="#6666ff" points="595.69,-75.31 586.54,-80.66 597.03,-82.18 595.69,-75.31"/>
</g>
<!-- CX::Warn&#45;&gt;Exception -->
<g id="edge12" class="edge">
<title>CX::Warn&#45;&gt;Exception</title>
<path fill="none" stroke="#000000" d="M842.91,-32.13C784.77,-56.89 664.75,-108 664.75,-108 664.75,-108 597.32,-130.33 550.01,-146"/>
<polygon fill="#000000" stroke="#000000" points="548.65,-142.77 540.25,-149.24 550.85,-149.42 548.65,-142.77"/>
</g>
<!-- CX::Take -->
<g id="node13" class="node">
<title>CX::Take</title>
<g id="a_node13"><a xlink:href="/type/CX::Take" xlink:title="CX::Take">
<ellipse fill="none" stroke="#000000" cx="988.75" cy="-18" rx="48.19" ry="18"/>
<text text-anchor="middle" x="988.75" y="-14.3" font-family="FreeSans" font-size="14.00" fill="#000000">CX::Take</text>
</a>
</g>
</g>
<!-- CX::Take&#45;&gt;X::Control -->
<g id="edge24" class="edge">
<title>CX::Take&#45;&gt;X::Control</title>
<path fill="none" stroke="#6666ff" d="M952.32,-29.86C941.15,-33.19 931.75,-36 931.75,-36 931.75,-36 707.27,-66.66 599.8,-81.34"/>
<polygon fill="#6666ff" stroke="#6666ff" points="599.21,-77.89 589.78,-82.71 600.16,-84.83 599.21,-77.89"/>
</g>
<!-- CX::Take&#45;&gt;Exception -->
<g id="edge13" class="edge">
<title>CX::Take&#45;&gt;Exception</title>
<path fill="none" stroke="#000000" d="M954,-30.45C881.08,-54.49 718.75,-108 718.75,-108 718.75,-108 617.51,-133.07 554.29,-148.73"/>
<polygon fill="#000000" stroke="#000000" points="553.36,-145.35 544.5,-151.16 555.04,-152.15 553.36,-145.35"/>
</g>
<!-- CX::Proceed -->
<g id="node14" class="node">
<title>CX::Proceed</title>
<g id="a_node14"><a xlink:href="/type/CX::Proceed" xlink:title="CX::Proceed">
<ellipse fill="none" stroke="#000000" cx="1115.75" cy="-18" rx="60.39" ry="18"/>
<text text-anchor="middle" x="1115.75" y="-14.3" font-family="FreeSans" font-size="14.00" fill="#000000">CX::Proceed</text>
</a>
</g>
</g>
<!-- CX::Proceed&#45;&gt;X::Control -->
<g id="edge25" class="edge">
<title>CX::Proceed&#45;&gt;X::Control</title>
<path fill="none" stroke="#6666ff" d="M1070.23,-30.05C1056.86,-33.3 1045.75,-36 1045.75,-36 1045.75,-36 733.1,-69.01 601.28,-82.93"/>
<polygon fill="#6666ff" stroke="#6666ff" points="600.55,-79.48 590.97,-84.01 601.28,-86.44 600.55,-79.48"/>
</g>
<!-- CX::Proceed&#45;&gt;Exception -->
<g id="edge14" class="edge">
<title>CX::Proceed&#45;&gt;Exception</title>
<path fill="none" stroke="#000000" d="M1072.47,-30.64C982.75,-54.76 784.75,-108 784.75,-108 784.75,-108 638.77,-135.63 557.62,-150.99"/>
<polygon fill="#000000" stroke="#000000" points="556.75,-147.59 547.58,-152.89 558.05,-154.47 556.75,-147.59"/>
</g>
</g>
</svg>
