<?xml version="1.0" encoding="UTF-8" standalone="no"?>
<!DOCTYPE svg PUBLIC "-//W3C//DTD SVG 1.1//EN"
 "http://www.w3.org/Graphics/SVG/1.1/DTD/svg11.dtd">
<!-- Generated by graphviz version 2.43.0 (0)
 -->
<!-- Title: perl6&#45;type&#45;graph Pages: 1 -->
<svg width="207pt" height="332pt"
 viewBox="0.00 0.00 206.88 332.00" xmlns="http://www.w3.org/2000/svg" xmlns:xlink="http://www.w3.org/1999/xlink">
<g id="graph0" class="graph" transform="scale(1 1) rotate(0) translate(4 328)">
<title>perl6&#45;type&#45;graph</title>
<polygon fill="white" stroke="transparent" points="-4,4 -4,-328 202.88,-328 202.88,4 -4,4"/>
<!-- X::ControlFlow::Return -->
<g id="node1" class="node">
<title>X::ControlFlow::Return</title>
<g id="a_node1"><a xlink:href="/type/X::ControlFlow::Return" xlink:title="X::ControlFlow::Return">
<ellipse fill="none" stroke="#000000" cx="99.44" cy="-18" rx="99.38" ry="18"/>
<text text-anchor="middle" x="99.44" y="-14.3" font-family="FreeSans" font-size="14.00" fill="#000000">X::ControlFlow::Return</text>
</a>
</g>
</g>
<!-- X::ControlFlow -->
<g id="node5" class="node">
<title>X::ControlFlow</title>
<g id="a_node5"><a xlink:href="/type/X::ControlFlow" xlink:title="X::ControlFlow">
<ellipse fill="none" stroke="#000000" cx="99.44" cy="-90" rx="68.49" ry="18"/>
<text text-anchor="middle" x="99.44" y="-86.3" font-family="FreeSans" font-size="14.00" fill="#000000">X::ControlFlow</text>
</a>
</g>
</g>
<!-- X::ControlFlow::Return&#45;&gt;X::ControlFlow -->
<g id="edge1" class="edge">
<title>X::ControlFlow::Return&#45;&gt;X::ControlFlow</title>
<path fill="none" stroke="#000000" d="M99.44,-36.3C99.44,-44.02 99.44,-53.29 99.44,-61.89"/>
<polygon fill="#000000" stroke="#000000" points="95.94,-61.9 99.44,-71.9 102.94,-61.9 95.94,-61.9"/>
</g>
<!-- Mu -->
<g id="node2" class="node">
<title>Mu</title>
<g id="a_node2"><a xlink:href="/type/Mu" xlink:title="Mu">
<ellipse fill="none" stroke="#000000" cx="99.44" cy="-306" rx="27" ry="18"/>
<text text-anchor="middle" x="99.44" y="-302.3" font-family="FreeSans" font-size="14.00" fill="#000000">Mu</text>
</a>
</g>
</g>
<!-- Any -->
<g id="node3" class="node">
<title>Any</title>
<g id="a_node3"><a xlink:href="/type/Any" xlink:title="Any">
<ellipse fill="none" stroke="#000000" cx="99.44" cy="-234" rx="27" ry="18"/>
<text text-anchor="middle" x="99.44" y="-230.3" font-family="FreeSans" font-size="14.00" fill="#000000">Any</text>
</a>
</g>
</g>
<!-- Any&#45;&gt;Mu -->
<g id="edge2" class="edge">
<title>Any&#45;&gt;Mu</title>
<path fill="none" stroke="#000000" d="M99.44,-252.3C99.44,-260.02 99.44,-269.29 99.44,-277.89"/>
<polygon fill="#000000" stroke="#000000" points="95.94,-277.9 99.44,-287.9 102.94,-277.9 95.94,-277.9"/>
</g>
<!-- Exception -->
<g id="node4" class="node">
<title>Exception</title>
<g id="a_node4"><a xlink:href="/type/Exception" xlink:title="Exception">
<ellipse fill="none" stroke="#000000" cx="99.44" cy="-162" rx="49.29" ry="18"/>
<text text-anchor="middle" x="99.44" y="-158.3" font-family="FreeSans" font-size="14.00" fill="#000000">Exception</text>
</a>
</g>
</g>
<!-- Exception&#45;&gt;Any -->
<g id="edge3" class="edge">
<title>Exception&#45;&gt;Any</title>
<path fill="none" stroke="#000000" d="M99.44,-180.3C99.44,-188.02 99.44,-197.29 99.44,-205.89"/>
<polygon fill="#000000" stroke="#000000" points="95.94,-205.9 99.44,-215.9 102.94,-205.9 95.94,-205.9"/>
</g>
<!-- X::ControlFlow&#45;&gt;Exception -->
<g id="edge4" class="edge">
<title>X::ControlFlow&#45;&gt;Exception</title>
<path fill="none" stroke="#000000" d="M99.44,-108.3C99.44,-116.02 99.44,-125.29 99.44,-133.89"/>
<polygon fill="#000000" stroke="#000000" points="95.94,-133.9 99.44,-143.9 102.94,-133.9 95.94,-133.9"/>
</g>
</g>
</svg>
