<?xml version="1.0" encoding="UTF-8" standalone="no"?>
<!DOCTYPE svg PUBLIC "-//W3C//DTD SVG 1.1//EN"
 "http://www.w3.org/Graphics/SVG/1.1/DTD/svg11.dtd">
<!-- Generated by graphviz version 2.43.0 (0)
 -->
<!-- Title: perl6&#45;type&#45;graph Pages: 1 -->
<svg width="260pt" height="332pt"
 viewBox="0.00 0.00 260.18 332.00" xmlns="http://www.w3.org/2000/svg" xmlns:xlink="http://www.w3.org/1999/xlink">
<g id="graph0" class="graph" transform="scale(1 1) rotate(0) translate(4 328)">
<title>perl6&#45;type&#45;graph</title>
<polygon fill="white" stroke="transparent" points="-4,4 -4,-328 256.18,-328 256.18,4 -4,4"/>
<!-- X::DateTime::TimezoneClash -->
<g id="node1" class="node">
<title>X::DateTime::TimezoneClash</title>
<g id="a_node1"><a xlink:href="/type/X::DateTime::TimezoneClash" xlink:title="X::DateTime::TimezoneClash">
<ellipse fill="none" stroke="#000000" cx="126.09" cy="-18" rx="126.18" ry="18"/>
<text text-anchor="middle" x="126.09" y="-14.3" font-family="FreeSans" font-size="14.00" fill="#000000">X::DateTime::TimezoneClash</text>
</a>
</g>
</g>
<!-- Exception -->
<g id="node4" class="node">
<title>Exception</title>
<g id="a_node4"><a xlink:href="/type/Exception" xlink:title="Exception">
<ellipse fill="none" stroke="#000000" cx="126.09" cy="-162" rx="49.29" ry="18"/>
<text text-anchor="middle" x="126.09" y="-158.3" font-family="FreeSans" font-size="14.00" fill="#000000">Exception</text>
</a>
</g>
</g>
<!-- X::DateTime::TimezoneClash&#45;&gt;Exception -->
<g id="edge1" class="edge">
<title>X::DateTime::TimezoneClash&#45;&gt;Exception</title>
<path fill="none" stroke="#000000" d="M118.36,-36.06C111.35,-51.55 102.09,-72 102.09,-72 102.09,-72 102.09,-108 102.09,-108 102.09,-108 108.08,-121.24 114.08,-134.48"/>
<polygon fill="#000000" stroke="#000000" points="111.05,-136.27 118.36,-143.94 117.43,-133.39 111.05,-136.27"/>
</g>
<!-- X::Temporal -->
<g id="node5" class="node">
<title>X::Temporal</title>
<g id="a_node5"><a xlink:href="/type/X::Temporal" xlink:title="X::Temporal">
<ellipse fill="none" stroke="#6666ff" cx="170.09" cy="-90" rx="59.29" ry="18"/>
<text text-anchor="middle" x="170.09" y="-86.3" font-family="FreeSans" font-size="14.00" fill="#6666ff">X::Temporal</text>
</a>
</g>
</g>
<!-- X::DateTime::TimezoneClash&#45;&gt;X::Temporal -->
<g id="edge5" class="edge">
<title>X::DateTime::TimezoneClash&#45;&gt;X::Temporal</title>
<path fill="none" stroke="#6666ff" d="M136.74,-35.95C141.93,-44.2 148.28,-54.3 154.04,-63.46"/>
<polygon fill="#6666ff" stroke="#6666ff" points="151.25,-65.61 159.54,-72.21 157.18,-61.88 151.25,-65.61"/>
</g>
<!-- Mu -->
<g id="node2" class="node">
<title>Mu</title>
<g id="a_node2"><a xlink:href="/type/Mu" xlink:title="Mu">
<ellipse fill="none" stroke="#000000" cx="126.09" cy="-306" rx="27" ry="18"/>
<text text-anchor="middle" x="126.09" y="-302.3" font-family="FreeSans" font-size="14.00" fill="#000000">Mu</text>
</a>
</g>
</g>
<!-- Any -->
<g id="node3" class="node">
<title>Any</title>
<g id="a_node3"><a xlink:href="/type/Any" xlink:title="Any">
<ellipse fill="none" stroke="#000000" cx="126.09" cy="-234" rx="27" ry="18"/>
<text text-anchor="middle" x="126.09" y="-230.3" font-family="FreeSans" font-size="14.00" fill="#000000">Any</text>
</a>
</g>
</g>
<!-- Any&#45;&gt;Mu -->
<g id="edge2" class="edge">
<title>Any&#45;&gt;Mu</title>
<path fill="none" stroke="#000000" d="M126.09,-252.3C126.09,-260.02 126.09,-269.29 126.09,-277.89"/>
<polygon fill="#000000" stroke="#000000" points="122.59,-277.9 126.09,-287.9 129.59,-277.9 122.59,-277.9"/>
</g>
<!-- Exception&#45;&gt;Any -->
<g id="edge3" class="edge">
<title>Exception&#45;&gt;Any</title>
<path fill="none" stroke="#000000" d="M126.09,-180.3C126.09,-188.02 126.09,-197.29 126.09,-205.89"/>
<polygon fill="#000000" stroke="#000000" points="122.59,-205.9 126.09,-215.9 129.59,-205.9 122.59,-205.9"/>
</g>
<!-- X::Temporal&#45;&gt;Exception -->
<g id="edge4" class="edge">
<title>X::Temporal&#45;&gt;Exception</title>
<path fill="none" stroke="#000000" d="M159.44,-107.95C154.25,-116.2 147.9,-126.3 142.14,-135.46"/>
<polygon fill="#000000" stroke="#000000" points="139,-133.88 136.64,-144.21 144.93,-137.61 139,-133.88"/>
</g>
</g>
</svg>
