<?xml version="1.0" encoding="UTF-8" standalone="no"?>
<!DOCTYPE svg PUBLIC "-//W3C//DTD SVG 1.1//EN"
 "http://www.w3.org/Graphics/SVG/1.1/DTD/svg11.dtd">
<!-- Generated by graphviz version 2.43.0 (0)
 -->
<!-- Title: perl6&#45;type&#45;graph Pages: 1 -->
<svg width="247pt" height="404pt"
 viewBox="0.00 0.00 247.18 404.00" xmlns="http://www.w3.org/2000/svg" xmlns:xlink="http://www.w3.org/1999/xlink">
<g id="graph0" class="graph" transform="scale(1 1) rotate(0) translate(4 400)">
<title>perl6&#45;type&#45;graph</title>
<polygon fill="white" stroke="transparent" points="-4,4 -4,-400 243.18,-400 243.18,4 -4,4"/>
<!-- X::Declaration::Scope::Multi -->
<g id="node1" class="node">
<title>X::Declaration::Scope::Multi</title>
<g id="a_node1"><a xlink:href="/type/X::Declaration::Scope::Multi" xlink:title="X::Declaration::Scope::Multi">
<ellipse fill="none" stroke="#000000" cx="119.59" cy="-18" rx="119.68" ry="18"/>
<text text-anchor="middle" x="119.59" y="-14.3" font-family="FreeSans" font-size="14.00" fill="#000000">X::Declaration::Scope::Multi</text>
</a>
</g>
</g>
<!-- X::Declaration::Scope -->
<g id="node6" class="node">
<title>X::Declaration::Scope</title>
<g id="a_node6"><a xlink:href="/type/X::Declaration::Scope" xlink:title="X::Declaration::Scope">
<ellipse fill="none" stroke="#000000" cx="119.59" cy="-90" rx="95.58" ry="18"/>
<text text-anchor="middle" x="119.59" y="-86.3" font-family="FreeSans" font-size="14.00" fill="#000000">X::Declaration::Scope</text>
</a>
</g>
</g>
<!-- X::Declaration::Scope::Multi&#45;&gt;X::Declaration::Scope -->
<g id="edge1" class="edge">
<title>X::Declaration::Scope::Multi&#45;&gt;X::Declaration::Scope</title>
<path fill="none" stroke="#000000" d="M119.59,-36.3C119.59,-44.02 119.59,-53.29 119.59,-61.89"/>
<polygon fill="#000000" stroke="#000000" points="116.09,-61.9 119.59,-71.9 123.09,-61.9 116.09,-61.9"/>
</g>
<!-- Mu -->
<g id="node2" class="node">
<title>Mu</title>
<g id="a_node2"><a xlink:href="/type/Mu" xlink:title="Mu">
<ellipse fill="none" stroke="#000000" cx="119.59" cy="-378" rx="27" ry="18"/>
<text text-anchor="middle" x="119.59" y="-374.3" font-family="FreeSans" font-size="14.00" fill="#000000">Mu</text>
</a>
</g>
</g>
<!-- Any -->
<g id="node3" class="node">
<title>Any</title>
<g id="a_node3"><a xlink:href="/type/Any" xlink:title="Any">
<ellipse fill="none" stroke="#000000" cx="119.59" cy="-306" rx="27" ry="18"/>
<text text-anchor="middle" x="119.59" y="-302.3" font-family="FreeSans" font-size="14.00" fill="#000000">Any</text>
</a>
</g>
</g>
<!-- Any&#45;&gt;Mu -->
<g id="edge2" class="edge">
<title>Any&#45;&gt;Mu</title>
<path fill="none" stroke="#000000" d="M119.59,-324.3C119.59,-332.02 119.59,-341.29 119.59,-349.89"/>
<polygon fill="#000000" stroke="#000000" points="116.09,-349.9 119.59,-359.9 123.09,-349.9 116.09,-349.9"/>
</g>
<!-- Exception -->
<g id="node4" class="node">
<title>Exception</title>
<g id="a_node4"><a xlink:href="/type/Exception" xlink:title="Exception">
<ellipse fill="none" stroke="#000000" cx="119.59" cy="-234" rx="49.29" ry="18"/>
<text text-anchor="middle" x="119.59" y="-230.3" font-family="FreeSans" font-size="14.00" fill="#000000">Exception</text>
</a>
</g>
</g>
<!-- Exception&#45;&gt;Any -->
<g id="edge3" class="edge">
<title>Exception&#45;&gt;Any</title>
<path fill="none" stroke="#000000" d="M119.59,-252.3C119.59,-260.02 119.59,-269.29 119.59,-277.89"/>
<polygon fill="#000000" stroke="#000000" points="116.09,-277.9 119.59,-287.9 123.09,-277.9 116.09,-277.9"/>
</g>
<!-- X::Comp -->
<g id="node5" class="node">
<title>X::Comp</title>
<g id="a_node5"><a xlink:href="/type/X::Comp" xlink:title="X::Comp">
<ellipse fill="none" stroke="#6666ff" cx="156.59" cy="-162" rx="44.69" ry="18"/>
<text text-anchor="middle" x="156.59" y="-158.3" font-family="FreeSans" font-size="14.00" fill="#6666ff">X::Comp</text>
</a>
</g>
</g>
<!-- X::Comp&#45;&gt;Exception -->
<g id="edge4" class="edge">
<title>X::Comp&#45;&gt;Exception</title>
<path fill="none" stroke="#000000" d="M147.63,-179.95C143.32,-188.11 138.04,-198.09 133.24,-207.18"/>
<polygon fill="#000000" stroke="#000000" points="130.04,-205.73 128.46,-216.21 136.23,-209.01 130.04,-205.73"/>
</g>
<!-- X::Declaration::Scope&#45;&gt;Exception -->
<g id="edge5" class="edge">
<title>X::Declaration::Scope&#45;&gt;Exception</title>
<path fill="none" stroke="#000000" d="M114.12,-108.06C109.15,-123.55 102.59,-144 102.59,-144 102.59,-144 102.59,-180 102.59,-180 102.59,-180 106.75,-192.98 110.96,-206.1"/>
<polygon fill="#000000" stroke="#000000" points="107.73,-207.49 114.12,-215.94 114.4,-205.35 107.73,-207.49"/>
</g>
<!-- X::Declaration::Scope&#45;&gt;X::Comp -->
<g id="edge6" class="edge">
<title>X::Declaration::Scope&#45;&gt;X::Comp</title>
<path fill="none" stroke="#6666ff" d="M128.55,-107.95C132.86,-116.11 138.14,-126.09 142.94,-135.18"/>
<polygon fill="#6666ff" stroke="#6666ff" points="139.95,-137.01 147.72,-144.21 146.14,-133.73 139.95,-137.01"/>
</g>
</g>
</svg>
