<?xml version="1.0" encoding="UTF-8" standalone="no"?>
<!DOCTYPE svg PUBLIC "-//W3C//DTD SVG 1.1//EN"
 "http://www.w3.org/Graphics/SVG/1.1/DTD/svg11.dtd">
<!-- Generated by graphviz version 2.43.0 (0)
 -->
<!-- Title: perl6&#45;type&#45;graph Pages: 1 -->
<svg width="194pt" height="260pt"
 viewBox="0.00 0.00 193.88 260.00" xmlns="http://www.w3.org/2000/svg" xmlns:xlink="http://www.w3.org/1999/xlink">
<g id="graph0" class="graph" transform="scale(1 1) rotate(0) translate(4 256)">
<title>perl6&#45;type&#45;graph</title>
<polygon fill="white" stroke="transparent" points="-4,4 -4,-256 189.88,-256 189.88,4 -4,4"/>
<!-- X::Does::TypeObject -->
<g id="node1" class="node">
<title>X::Does::TypeObject</title>
<g id="a_node1"><a xlink:href="/type/X::Does::TypeObject" xlink:title="X::Does::TypeObject">
<ellipse fill="none" stroke="#000000" cx="92.94" cy="-18" rx="92.88" ry="18"/>
<text text-anchor="middle" x="92.94" y="-14.3" font-family="FreeSans" font-size="14.00" fill="#000000">X::Does::TypeObject</text>
</a>
</g>
</g>
<!-- Exception -->
<g id="node4" class="node">
<title>Exception</title>
<g id="a_node4"><a xlink:href="/type/Exception" xlink:title="Exception">
<ellipse fill="none" stroke="#000000" cx="92.94" cy="-90" rx="49.29" ry="18"/>
<text text-anchor="middle" x="92.94" y="-86.3" font-family="FreeSans" font-size="14.00" fill="#000000">Exception</text>
</a>
</g>
</g>
<!-- X::Does::TypeObject&#45;&gt;Exception -->
<g id="edge1" class="edge">
<title>X::Does::TypeObject&#45;&gt;Exception</title>
<path fill="none" stroke="#000000" d="M92.94,-36.3C92.94,-44.02 92.94,-53.29 92.94,-61.89"/>
<polygon fill="#000000" stroke="#000000" points="89.44,-61.9 92.94,-71.9 96.44,-61.9 89.44,-61.9"/>
</g>
<!-- Mu -->
<g id="node2" class="node">
<title>Mu</title>
<g id="a_node2"><a xlink:href="/type/Mu" xlink:title="Mu">
<ellipse fill="none" stroke="#000000" cx="92.94" cy="-234" rx="27" ry="18"/>
<text text-anchor="middle" x="92.94" y="-230.3" font-family="FreeSans" font-size="14.00" fill="#000000">Mu</text>
</a>
</g>
</g>
<!-- Any -->
<g id="node3" class="node">
<title>Any</title>
<g id="a_node3"><a xlink:href="/type/Any" xlink:title="Any">
<ellipse fill="none" stroke="#000000" cx="92.94" cy="-162" rx="27" ry="18"/>
<text text-anchor="middle" x="92.94" y="-158.3" font-family="FreeSans" font-size="14.00" fill="#000000">Any</text>
</a>
</g>
</g>
<!-- Any&#45;&gt;Mu -->
<g id="edge2" class="edge">
<title>Any&#45;&gt;Mu</title>
<path fill="none" stroke="#000000" d="M92.94,-180.3C92.94,-188.02 92.94,-197.29 92.94,-205.89"/>
<polygon fill="#000000" stroke="#000000" points="89.44,-205.9 92.94,-215.9 96.44,-205.9 89.44,-205.9"/>
</g>
<!-- Exception&#45;&gt;Any -->
<g id="edge3" class="edge">
<title>Exception&#45;&gt;Any</title>
<path fill="none" stroke="#000000" d="M92.94,-108.3C92.94,-116.02 92.94,-125.29 92.94,-133.89"/>
<polygon fill="#000000" stroke="#000000" points="89.44,-133.9 92.94,-143.9 96.44,-133.9 89.44,-133.9"/>
</g>
</g>
</svg>
