<?xml version="1.0" encoding="UTF-8" standalone="no"?>
<!DOCTYPE svg PUBLIC "-//W3C//DTD SVG 1.1//EN"
 "http://www.w3.org/Graphics/SVG/1.1/DTD/svg11.dtd">
<!-- Generated by graphviz version 2.43.0 (0)
 -->
<!-- Title: perl6&#45;type&#45;graph Pages: 1 -->
<svg width="298pt" height="332pt"
 viewBox="0.00 0.00 297.87 332.00" xmlns="http://www.w3.org/2000/svg" xmlns:xlink="http://www.w3.org/1999/xlink">
<g id="graph0" class="graph" transform="scale(1 1) rotate(0) translate(4 328)">
<title>perl6&#45;type&#45;graph</title>
<polygon fill="white" stroke="transparent" points="-4,4 -4,-328 293.87,-328 293.87,4 -4,4"/>
<!-- X::EXPORTHOW::InvalidDirective -->
<g id="node1" class="node">
<title>X::EXPORTHOW::InvalidDirective</title>
<g id="a_node1"><a xlink:href="/type/X::EXPORTHOW::InvalidDirective" xlink:title="X::EXPORTHOW::InvalidDirective">
<ellipse fill="none" stroke="#000000" cx="144.94" cy="-18" rx="144.87" ry="18"/>
<text text-anchor="middle" x="144.94" y="-14.3" font-family="FreeSans" font-size="14.00" fill="#000000">X::EXPORTHOW::InvalidDirective</text>
</a>
</g>
</g>
<!-- Exception -->
<g id="node4" class="node">
<title>Exception</title>
<g id="a_node4"><a xlink:href="/type/Exception" xlink:title="Exception">
<ellipse fill="none" stroke="#000000" cx="144.94" cy="-162" rx="49.29" ry="18"/>
<text text-anchor="middle" x="144.94" y="-158.3" font-family="FreeSans" font-size="14.00" fill="#000000">Exception</text>
</a>
</g>
</g>
<!-- X::EXPORTHOW::InvalidDirective&#45;&gt;Exception -->
<g id="edge1" class="edge">
<title>X::EXPORTHOW::InvalidDirective&#45;&gt;Exception</title>
<path fill="none" stroke="#000000" d="M139.46,-36.06C134.5,-51.55 127.94,-72 127.94,-72 127.94,-72 127.94,-108 127.94,-108 127.94,-108 132.1,-120.98 136.31,-134.1"/>
<polygon fill="#000000" stroke="#000000" points="133.08,-135.49 139.46,-143.94 139.74,-133.35 133.08,-135.49"/>
</g>
<!-- X::Comp -->
<g id="node5" class="node">
<title>X::Comp</title>
<g id="a_node5"><a xlink:href="/type/X::Comp" xlink:title="X::Comp">
<ellipse fill="none" stroke="#6666ff" cx="181.94" cy="-90" rx="44.69" ry="18"/>
<text text-anchor="middle" x="181.94" y="-86.3" font-family="FreeSans" font-size="14.00" fill="#6666ff">X::Comp</text>
</a>
</g>
</g>
<!-- X::EXPORTHOW::InvalidDirective&#45;&gt;X::Comp -->
<g id="edge5" class="edge">
<title>X::EXPORTHOW::InvalidDirective&#45;&gt;X::Comp</title>
<path fill="none" stroke="#6666ff" d="M154.08,-36.3C158.34,-44.36 163.49,-54.11 168.2,-63.02"/>
<polygon fill="#6666ff" stroke="#6666ff" points="165.13,-64.69 172.9,-71.9 171.32,-61.42 165.13,-64.69"/>
</g>
<!-- Mu -->
<g id="node2" class="node">
<title>Mu</title>
<g id="a_node2"><a xlink:href="/type/Mu" xlink:title="Mu">
<ellipse fill="none" stroke="#000000" cx="144.94" cy="-306" rx="27" ry="18"/>
<text text-anchor="middle" x="144.94" y="-302.3" font-family="FreeSans" font-size="14.00" fill="#000000">Mu</text>
</a>
</g>
</g>
<!-- Any -->
<g id="node3" class="node">
<title>Any</title>
<g id="a_node3"><a xlink:href="/type/Any" xlink:title="Any">
<ellipse fill="none" stroke="#000000" cx="144.94" cy="-234" rx="27" ry="18"/>
<text text-anchor="middle" x="144.94" y="-230.3" font-family="FreeSans" font-size="14.00" fill="#000000">Any</text>
</a>
</g>
</g>
<!-- Any&#45;&gt;Mu -->
<g id="edge2" class="edge">
<title>Any&#45;&gt;Mu</title>
<path fill="none" stroke="#000000" d="M144.94,-252.3C144.94,-260.02 144.94,-269.29 144.94,-277.89"/>
<polygon fill="#000000" stroke="#000000" points="141.44,-277.9 144.94,-287.9 148.44,-277.9 141.44,-277.9"/>
</g>
<!-- Exception&#45;&gt;Any -->
<g id="edge3" class="edge">
<title>Exception&#45;&gt;Any</title>
<path fill="none" stroke="#000000" d="M144.94,-180.3C144.94,-188.02 144.94,-197.29 144.94,-205.89"/>
<polygon fill="#000000" stroke="#000000" points="141.44,-205.9 144.94,-215.9 148.44,-205.9 141.44,-205.9"/>
</g>
<!-- X::Comp&#45;&gt;Exception -->
<g id="edge4" class="edge">
<title>X::Comp&#45;&gt;Exception</title>
<path fill="none" stroke="#000000" d="M172.98,-107.95C168.66,-116.11 163.39,-126.09 158.59,-135.18"/>
<polygon fill="#000000" stroke="#000000" points="155.39,-133.73 153.81,-144.21 161.58,-137.01 155.39,-133.73"/>
</g>
</g>
</svg>
