<?xml version="1.0" encoding="UTF-8" standalone="no"?>
<!DOCTYPE svg PUBLIC "-//W3C//DTD SVG 1.1//EN"
 "http://www.w3.org/Graphics/SVG/1.1/DTD/svg11.dtd">
<!-- Generated by graphviz version 2.43.0 (0)
 -->
<!-- Title: perl6&#45;type&#45;graph Pages: 1 -->
<svg width="346pt" height="332pt"
 viewBox="0.00 0.00 345.97 332.00" xmlns="http://www.w3.org/2000/svg" xmlns:xlink="http://www.w3.org/1999/xlink">
<g id="graph0" class="graph" transform="scale(1 1) rotate(0) translate(4 328)">
<title>perl6&#45;type&#45;graph</title>
<polygon fill="white" stroke="transparent" points="-4,4 -4,-328 341.97,-328 341.97,4 -4,4"/>
<!-- X::EXPORTHOW::NothingToSupersede -->
<g id="node1" class="node">
<title>X::EXPORTHOW::NothingToSupersede</title>
<g id="a_node1"><a xlink:href="/type/X::EXPORTHOW::NothingToSupersede" xlink:title="X::EXPORTHOW::NothingToSupersede">
<ellipse fill="none" stroke="#000000" cx="168.99" cy="-18" rx="168.97" ry="18"/>
<text text-anchor="middle" x="168.99" y="-14.3" font-family="FreeSans" font-size="14.00" fill="#000000">X::EXPORTHOW::NothingToSupersede</text>
</a>
</g>
</g>
<!-- Exception -->
<g id="node4" class="node">
<title>Exception</title>
<g id="a_node4"><a xlink:href="/type/Exception" xlink:title="Exception">
<ellipse fill="none" stroke="#000000" cx="168.99" cy="-162" rx="49.29" ry="18"/>
<text text-anchor="middle" x="168.99" y="-158.3" font-family="FreeSans" font-size="14.00" fill="#000000">Exception</text>
</a>
</g>
</g>
<!-- X::EXPORTHOW::NothingToSupersede&#45;&gt;Exception -->
<g id="edge1" class="edge">
<title>X::EXPORTHOW::NothingToSupersede&#45;&gt;Exception</title>
<path fill="none" stroke="#000000" d="M163.51,-36.06C158.54,-51.55 151.99,-72 151.99,-72 151.99,-72 151.99,-108 151.99,-108 151.99,-108 156.15,-120.98 160.36,-134.1"/>
<polygon fill="#000000" stroke="#000000" points="157.13,-135.49 163.51,-143.94 163.79,-133.35 157.13,-135.49"/>
</g>
<!-- X::Comp -->
<g id="node5" class="node">
<title>X::Comp</title>
<g id="a_node5"><a xlink:href="/type/X::Comp" xlink:title="X::Comp">
<ellipse fill="none" stroke="#6666ff" cx="205.99" cy="-90" rx="44.69" ry="18"/>
<text text-anchor="middle" x="205.99" y="-86.3" font-family="FreeSans" font-size="14.00" fill="#6666ff">X::Comp</text>
</a>
</g>
</g>
<!-- X::EXPORTHOW::NothingToSupersede&#45;&gt;X::Comp -->
<g id="edge5" class="edge">
<title>X::EXPORTHOW::NothingToSupersede&#45;&gt;X::Comp</title>
<path fill="none" stroke="#6666ff" d="M178.13,-36.3C182.39,-44.36 187.54,-54.11 192.25,-63.02"/>
<polygon fill="#6666ff" stroke="#6666ff" points="189.18,-64.69 196.94,-71.9 195.37,-61.42 189.18,-64.69"/>
</g>
<!-- Mu -->
<g id="node2" class="node">
<title>Mu</title>
<g id="a_node2"><a xlink:href="/type/Mu" xlink:title="Mu">
<ellipse fill="none" stroke="#000000" cx="168.99" cy="-306" rx="27" ry="18"/>
<text text-anchor="middle" x="168.99" y="-302.3" font-family="FreeSans" font-size="14.00" fill="#000000">Mu</text>
</a>
</g>
</g>
<!-- Any -->
<g id="node3" class="node">
<title>Any</title>
<g id="a_node3"><a xlink:href="/type/Any" xlink:title="Any">
<ellipse fill="none" stroke="#000000" cx="168.99" cy="-234" rx="27" ry="18"/>
<text text-anchor="middle" x="168.99" y="-230.3" font-family="FreeSans" font-size="14.00" fill="#000000">Any</text>
</a>
</g>
</g>
<!-- Any&#45;&gt;Mu -->
<g id="edge2" class="edge">
<title>Any&#45;&gt;Mu</title>
<path fill="none" stroke="#000000" d="M168.99,-252.3C168.99,-260.02 168.99,-269.29 168.99,-277.89"/>
<polygon fill="#000000" stroke="#000000" points="165.49,-277.9 168.99,-287.9 172.49,-277.9 165.49,-277.9"/>
</g>
<!-- Exception&#45;&gt;Any -->
<g id="edge3" class="edge">
<title>Exception&#45;&gt;Any</title>
<path fill="none" stroke="#000000" d="M168.99,-180.3C168.99,-188.02 168.99,-197.29 168.99,-205.89"/>
<polygon fill="#000000" stroke="#000000" points="165.49,-205.9 168.99,-215.9 172.49,-205.9 165.49,-205.9"/>
</g>
<!-- X::Comp&#45;&gt;Exception -->
<g id="edge4" class="edge">
<title>X::Comp&#45;&gt;Exception</title>
<path fill="none" stroke="#000000" d="M197.03,-107.95C192.71,-116.11 187.44,-126.09 182.64,-135.18"/>
<polygon fill="#000000" stroke="#000000" points="179.44,-133.73 177.86,-144.21 185.63,-137.01 179.44,-133.73"/>
</g>
</g>
</svg>
