<?xml version="1.0" encoding="UTF-8" standalone="no"?>
<!DOCTYPE svg PUBLIC "-//W3C//DTD SVG 1.1//EN"
 "http://www.w3.org/Graphics/SVG/1.1/DTD/svg11.dtd">
<!-- Generated by graphviz version 2.43.0 (0)
 -->
<!-- Title: perl6&#45;type&#45;graph Pages: 1 -->
<svg width="219pt" height="332pt"
 viewBox="0.00 0.00 218.58 332.00" xmlns="http://www.w3.org/2000/svg" xmlns:xlink="http://www.w3.org/1999/xlink">
<g id="graph0" class="graph" transform="scale(1 1) rotate(0) translate(4 328)">
<title>perl6&#45;type&#45;graph</title>
<polygon fill="white" stroke="transparent" points="-4,4 -4,-328 214.58,-328 214.58,4 -4,4"/>
<!-- X::Import::OnlystarProto -->
<g id="node1" class="node">
<title>X::Import::OnlystarProto</title>
<g id="a_node1"><a xlink:href="/type/X::Import::OnlystarProto" xlink:title="X::Import::OnlystarProto">
<ellipse fill="none" stroke="#000000" cx="105.29" cy="-18" rx="105.08" ry="18"/>
<text text-anchor="middle" x="105.29" y="-14.3" font-family="FreeSans" font-size="14.00" fill="#000000">X::Import::OnlystarProto</text>
</a>
</g>
</g>
<!-- Exception -->
<g id="node4" class="node">
<title>Exception</title>
<g id="a_node4"><a xlink:href="/type/Exception" xlink:title="Exception">
<ellipse fill="none" stroke="#000000" cx="105.29" cy="-162" rx="49.29" ry="18"/>
<text text-anchor="middle" x="105.29" y="-158.3" font-family="FreeSans" font-size="14.00" fill="#000000">Exception</text>
</a>
</g>
</g>
<!-- X::Import::OnlystarProto&#45;&gt;Exception -->
<g id="edge1" class="edge">
<title>X::Import::OnlystarProto&#45;&gt;Exception</title>
<path fill="none" stroke="#000000" d="M99.82,-36.06C94.85,-51.55 88.29,-72 88.29,-72 88.29,-72 88.29,-108 88.29,-108 88.29,-108 92.45,-120.98 96.66,-134.1"/>
<polygon fill="#000000" stroke="#000000" points="93.43,-135.49 99.82,-143.94 100.1,-133.35 93.43,-135.49"/>
</g>
<!-- X::Comp -->
<g id="node5" class="node">
<title>X::Comp</title>
<g id="a_node5"><a xlink:href="/type/X::Comp" xlink:title="X::Comp">
<ellipse fill="none" stroke="#6666ff" cx="142.29" cy="-90" rx="44.69" ry="18"/>
<text text-anchor="middle" x="142.29" y="-86.3" font-family="FreeSans" font-size="14.00" fill="#6666ff">X::Comp</text>
</a>
</g>
</g>
<!-- X::Import::OnlystarProto&#45;&gt;X::Comp -->
<g id="edge5" class="edge">
<title>X::Import::OnlystarProto&#45;&gt;X::Comp</title>
<path fill="none" stroke="#6666ff" d="M114.25,-35.95C118.56,-44.11 123.84,-54.09 128.64,-63.18"/>
<polygon fill="#6666ff" stroke="#6666ff" points="125.65,-65.01 133.42,-72.21 131.84,-61.73 125.65,-65.01"/>
</g>
<!-- Mu -->
<g id="node2" class="node">
<title>Mu</title>
<g id="a_node2"><a xlink:href="/type/Mu" xlink:title="Mu">
<ellipse fill="none" stroke="#000000" cx="105.29" cy="-306" rx="27" ry="18"/>
<text text-anchor="middle" x="105.29" y="-302.3" font-family="FreeSans" font-size="14.00" fill="#000000">Mu</text>
</a>
</g>
</g>
<!-- Any -->
<g id="node3" class="node">
<title>Any</title>
<g id="a_node3"><a xlink:href="/type/Any" xlink:title="Any">
<ellipse fill="none" stroke="#000000" cx="105.29" cy="-234" rx="27" ry="18"/>
<text text-anchor="middle" x="105.29" y="-230.3" font-family="FreeSans" font-size="14.00" fill="#000000">Any</text>
</a>
</g>
</g>
<!-- Any&#45;&gt;Mu -->
<g id="edge2" class="edge">
<title>Any&#45;&gt;Mu</title>
<path fill="none" stroke="#000000" d="M105.29,-252.3C105.29,-260.02 105.29,-269.29 105.29,-277.89"/>
<polygon fill="#000000" stroke="#000000" points="101.79,-277.9 105.29,-287.9 108.79,-277.9 101.79,-277.9"/>
</g>
<!-- Exception&#45;&gt;Any -->
<g id="edge3" class="edge">
<title>Exception&#45;&gt;Any</title>
<path fill="none" stroke="#000000" d="M105.29,-180.3C105.29,-188.02 105.29,-197.29 105.29,-205.89"/>
<polygon fill="#000000" stroke="#000000" points="101.79,-205.9 105.29,-215.9 108.79,-205.9 101.79,-205.9"/>
</g>
<!-- X::Comp&#45;&gt;Exception -->
<g id="edge4" class="edge">
<title>X::Comp&#45;&gt;Exception</title>
<path fill="none" stroke="#000000" d="M133.33,-107.95C129.02,-116.11 123.74,-126.09 118.94,-135.18"/>
<polygon fill="#000000" stroke="#000000" points="115.74,-133.73 114.16,-144.21 121.93,-137.01 115.74,-133.73"/>
</g>
</g>
</svg>
