<?xml version="1.0" encoding="UTF-8" standalone="no"?>
<!DOCTYPE svg PUBLIC "-//W3C//DTD SVG 1.1//EN"
 "http://www.w3.org/Graphics/SVG/1.1/DTD/svg11.dtd">
<!-- Generated by graphviz version 2.43.0 (0)
 -->
<!-- Title: perl6&#45;type&#45;graph Pages: 1 -->
<svg width="205pt" height="404pt"
 viewBox="0.00 0.00 205.39 404.00" xmlns="http://www.w3.org/2000/svg" xmlns:xlink="http://www.w3.org/1999/xlink">
<g id="graph0" class="graph" transform="scale(1 1) rotate(0) translate(4 400)">
<title>perl6&#45;type&#45;graph</title>
<polygon fill="white" stroke="transparent" points="-4,4 -4,-400 201.39,-400 201.39,4 -4,4"/>
<!-- X::IO::Cwd -->
<g id="node1" class="node">
<title>X::IO::Cwd</title>
<g id="a_node1"><a xlink:href="/type/X::IO::Cwd" xlink:title="X::IO::Cwd">
<ellipse fill="none" stroke="#000000" cx="53.95" cy="-18" rx="53.89" ry="18"/>
<text text-anchor="middle" x="53.95" y="-14.3" font-family="FreeSans" font-size="14.00" fill="#000000">X::IO::Cwd</text>
</a>
</g>
</g>
<!-- Exception -->
<g id="node4" class="node">
<title>Exception</title>
<g id="a_node4"><a xlink:href="/type/Exception" xlink:title="Exception">
<ellipse fill="none" stroke="#000000" cx="76.95" cy="-234" rx="49.29" ry="18"/>
<text text-anchor="middle" x="76.95" y="-230.3" font-family="FreeSans" font-size="14.00" fill="#000000">Exception</text>
</a>
</g>
</g>
<!-- X::IO::Cwd&#45;&gt;Exception -->
<g id="edge1" class="edge">
<title>X::IO::Cwd&#45;&gt;Exception</title>
<path fill="none" stroke="#000000" d="M51.91,-36.15C52.36,-73.34 61.59,-161.63 69.42,-206.23"/>
<polygon fill="#000000" stroke="#000000" points="65.98,-206.88 71.27,-216.06 72.86,-205.59 65.98,-206.88"/>
</g>
<!-- X::IO::Cwd&#45;&gt;Exception -->
<g id="edge2" class="edge">
<title>X::IO::Cwd&#45;&gt;Exception</title>
<path fill="none" stroke="#000000" d="M59.67,-36.15C67.18,-73.17 76.87,-160.82 78.69,-205.61"/>
<polygon fill="#000000" stroke="#000000" points="75.2,-205.87 78.98,-215.77 82.2,-205.67 75.2,-205.87"/>
</g>
<!-- X::IO -->
<g id="node6" class="node">
<title>X::IO</title>
<g id="a_node6"><a xlink:href="/type/X::IO" xlink:title="X::IO">
<ellipse fill="none" stroke="#6666ff" cx="121.95" cy="-90" rx="31.4" ry="18"/>
<text text-anchor="middle" x="121.95" y="-86.3" font-family="FreeSans" font-size="14.00" fill="#6666ff">X::IO</text>
</a>
</g>
</g>
<!-- X::IO::Cwd&#45;&gt;X::IO -->
<g id="edge7" class="edge">
<title>X::IO::Cwd&#45;&gt;X::IO</title>
<path fill="none" stroke="#6666ff" d="M69.72,-35.24C78.72,-44.5 90.15,-56.27 100.01,-66.42"/>
<polygon fill="#6666ff" stroke="#6666ff" points="97.71,-69.08 107.19,-73.81 102.73,-64.2 97.71,-69.08"/>
</g>
<!-- Mu -->
<g id="node2" class="node">
<title>Mu</title>
<g id="a_node2"><a xlink:href="/type/Mu" xlink:title="Mu">
<ellipse fill="none" stroke="#000000" cx="76.95" cy="-378" rx="27" ry="18"/>
<text text-anchor="middle" x="76.95" y="-374.3" font-family="FreeSans" font-size="14.00" fill="#000000">Mu</text>
</a>
</g>
</g>
<!-- Any -->
<g id="node3" class="node">
<title>Any</title>
<g id="a_node3"><a xlink:href="/type/Any" xlink:title="Any">
<ellipse fill="none" stroke="#000000" cx="76.95" cy="-306" rx="27" ry="18"/>
<text text-anchor="middle" x="76.95" y="-302.3" font-family="FreeSans" font-size="14.00" fill="#000000">Any</text>
</a>
</g>
</g>
<!-- Any&#45;&gt;Mu -->
<g id="edge3" class="edge">
<title>Any&#45;&gt;Mu</title>
<path fill="none" stroke="#000000" d="M76.95,-324.3C76.95,-332.02 76.95,-341.29 76.95,-349.89"/>
<polygon fill="#000000" stroke="#000000" points="73.45,-349.9 76.95,-359.9 80.45,-349.9 73.45,-349.9"/>
</g>
<!-- Exception&#45;&gt;Any -->
<g id="edge4" class="edge">
<title>Exception&#45;&gt;Any</title>
<path fill="none" stroke="#000000" d="M76.95,-252.3C76.95,-260.02 76.95,-269.29 76.95,-277.89"/>
<polygon fill="#000000" stroke="#000000" points="73.45,-277.9 76.95,-287.9 80.45,-277.9 73.45,-277.9"/>
</g>
<!-- X::OS -->
<g id="node5" class="node">
<title>X::OS</title>
<g id="a_node5"><a xlink:href="/type/X::OS" xlink:title="X::OS">
<ellipse fill="none" stroke="#6666ff" cx="162.95" cy="-162" rx="34.39" ry="18"/>
<text text-anchor="middle" x="162.95" y="-158.3" font-family="FreeSans" font-size="14.00" fill="#6666ff">X::OS</text>
</a>
</g>
</g>
<!-- X::OS&#45;&gt;Exception -->
<g id="edge5" class="edge">
<title>X::OS&#45;&gt;Exception</title>
<path fill="none" stroke="#000000" d="M145.13,-177.5C133.31,-187.12 117.58,-199.93 104.2,-210.81"/>
<polygon fill="#000000" stroke="#000000" points="101.78,-208.27 96.24,-217.3 106.2,-213.7 101.78,-208.27"/>
</g>
<!-- X::IO&#45;&gt;Exception -->
<g id="edge6" class="edge">
<title>X::IO&#45;&gt;Exception</title>
<path fill="none" stroke="#000000" d="M116.61,-107.85C108.93,-132.06 94.71,-176.95 85.54,-205.87"/>
<polygon fill="#000000" stroke="#000000" points="82.1,-205.14 82.42,-215.73 88.77,-207.26 82.1,-205.14"/>
</g>
<!-- X::IO&#45;&gt;X::OS -->
<g id="edge8" class="edge">
<title>X::IO&#45;&gt;X::OS</title>
<path fill="none" stroke="#6666ff" d="M131.45,-107.24C136.4,-115.68 142.56,-126.2 148.12,-135.69"/>
<polygon fill="#6666ff" stroke="#6666ff" points="145.13,-137.51 153.2,-144.37 151.17,-133.97 145.13,-137.51"/>
</g>
</g>
</svg>
