<?xml version="1.0" encoding="UTF-8" standalone="no"?>
<!DOCTYPE svg PUBLIC "-//W3C//DTD SVG 1.1//EN"
 "http://www.w3.org/Graphics/SVG/1.1/DTD/svg11.dtd">
<!-- Generated by graphviz version 2.43.0 (0)
 -->
<!-- Title: perl6&#45;type&#45;graph Pages: 1 -->
<svg width="209pt" height="404pt"
 viewBox="0.00 0.00 208.64 404.00" xmlns="http://www.w3.org/2000/svg" xmlns:xlink="http://www.w3.org/1999/xlink">
<g id="graph0" class="graph" transform="scale(1 1) rotate(0) translate(4 400)">
<title>perl6&#45;type&#45;graph</title>
<polygon fill="white" stroke="transparent" points="-4,4 -4,-400 204.64,-400 204.64,4 -4,4"/>
<!-- X::IO::Chdir -->
<g id="node1" class="node">
<title>X::IO::Chdir</title>
<g id="a_node1"><a xlink:href="/type/X::IO::Chdir" xlink:title="X::IO::Chdir">
<ellipse fill="none" stroke="#000000" cx="57.19" cy="-18" rx="57.39" ry="18"/>
<text text-anchor="middle" x="57.19" y="-14.3" font-family="FreeSans" font-size="14.00" fill="#000000">X::IO::Chdir</text>
</a>
</g>
</g>
<!-- Exception -->
<g id="node4" class="node">
<title>Exception</title>
<g id="a_node4"><a xlink:href="/type/Exception" xlink:title="Exception">
<ellipse fill="none" stroke="#000000" cx="80.19" cy="-234" rx="49.29" ry="18"/>
<text text-anchor="middle" x="80.19" y="-230.3" font-family="FreeSans" font-size="14.00" fill="#000000">Exception</text>
</a>
</g>
</g>
<!-- X::IO::Chdir&#45;&gt;Exception -->
<g id="edge1" class="edge">
<title>X::IO::Chdir&#45;&gt;Exception</title>
<path fill="none" stroke="#000000" d="M55.16,-36.15C55.61,-73.34 64.84,-161.63 72.67,-206.23"/>
<polygon fill="#000000" stroke="#000000" points="69.23,-206.88 74.52,-216.06 76.11,-205.59 69.23,-206.88"/>
</g>
<!-- X::IO::Chdir&#45;&gt;Exception -->
<g id="edge2" class="edge">
<title>X::IO::Chdir&#45;&gt;Exception</title>
<path fill="none" stroke="#000000" d="M62.92,-36.15C70.43,-73.17 80.12,-160.82 81.94,-205.61"/>
<polygon fill="#000000" stroke="#000000" points="78.45,-205.87 82.23,-215.77 85.45,-205.67 78.45,-205.87"/>
</g>
<!-- X::IO -->
<g id="node6" class="node">
<title>X::IO</title>
<g id="a_node6"><a xlink:href="/type/X::IO" xlink:title="X::IO">
<ellipse fill="none" stroke="#6666ff" cx="125.19" cy="-90" rx="31.4" ry="18"/>
<text text-anchor="middle" x="125.19" y="-86.3" font-family="FreeSans" font-size="14.00" fill="#6666ff">X::IO</text>
</a>
</g>
</g>
<!-- X::IO::Chdir&#45;&gt;X::IO -->
<g id="edge7" class="edge">
<title>X::IO::Chdir&#45;&gt;X::IO</title>
<path fill="none" stroke="#6666ff" d="M73.31,-35.59C82.32,-44.87 93.68,-56.56 103.47,-66.64"/>
<polygon fill="#6666ff" stroke="#6666ff" points="101.11,-69.23 110.59,-73.96 106.13,-64.35 101.11,-69.23"/>
</g>
<!-- Mu -->
<g id="node2" class="node">
<title>Mu</title>
<g id="a_node2"><a xlink:href="/type/Mu" xlink:title="Mu">
<ellipse fill="none" stroke="#000000" cx="80.19" cy="-378" rx="27" ry="18"/>
<text text-anchor="middle" x="80.19" y="-374.3" font-family="FreeSans" font-size="14.00" fill="#000000">Mu</text>
</a>
</g>
</g>
<!-- Any -->
<g id="node3" class="node">
<title>Any</title>
<g id="a_node3"><a xlink:href="/type/Any" xlink:title="Any">
<ellipse fill="none" stroke="#000000" cx="80.19" cy="-306" rx="27" ry="18"/>
<text text-anchor="middle" x="80.19" y="-302.3" font-family="FreeSans" font-size="14.00" fill="#000000">Any</text>
</a>
</g>
</g>
<!-- Any&#45;&gt;Mu -->
<g id="edge3" class="edge">
<title>Any&#45;&gt;Mu</title>
<path fill="none" stroke="#000000" d="M80.19,-324.3C80.19,-332.02 80.19,-341.29 80.19,-349.89"/>
<polygon fill="#000000" stroke="#000000" points="76.7,-349.9 80.19,-359.9 83.7,-349.9 76.7,-349.9"/>
</g>
<!-- Exception&#45;&gt;Any -->
<g id="edge4" class="edge">
<title>Exception&#45;&gt;Any</title>
<path fill="none" stroke="#000000" d="M80.19,-252.3C80.19,-260.02 80.19,-269.29 80.19,-277.89"/>
<polygon fill="#000000" stroke="#000000" points="76.7,-277.9 80.19,-287.9 83.7,-277.9 76.7,-277.9"/>
</g>
<!-- X::OS -->
<g id="node5" class="node">
<title>X::OS</title>
<g id="a_node5"><a xlink:href="/type/X::OS" xlink:title="X::OS">
<ellipse fill="none" stroke="#6666ff" cx="166.19" cy="-162" rx="34.39" ry="18"/>
<text text-anchor="middle" x="166.19" y="-158.3" font-family="FreeSans" font-size="14.00" fill="#6666ff">X::OS</text>
</a>
</g>
</g>
<!-- X::OS&#45;&gt;Exception -->
<g id="edge5" class="edge">
<title>X::OS&#45;&gt;Exception</title>
<path fill="none" stroke="#000000" d="M148.38,-177.5C136.56,-187.12 120.83,-199.93 107.45,-210.81"/>
<polygon fill="#000000" stroke="#000000" points="105.03,-208.27 99.49,-217.3 109.45,-213.7 105.03,-208.27"/>
</g>
<!-- X::IO&#45;&gt;Exception -->
<g id="edge6" class="edge">
<title>X::IO&#45;&gt;Exception</title>
<path fill="none" stroke="#000000" d="M119.86,-107.85C112.18,-132.06 97.96,-176.95 88.79,-205.87"/>
<polygon fill="#000000" stroke="#000000" points="85.35,-205.14 85.67,-215.73 92.02,-207.26 85.35,-205.14"/>
</g>
<!-- X::IO&#45;&gt;X::OS -->
<g id="edge8" class="edge">
<title>X::IO&#45;&gt;X::OS</title>
<path fill="none" stroke="#6666ff" d="M134.7,-107.24C139.65,-115.68 145.81,-126.2 151.37,-135.69"/>
<polygon fill="#6666ff" stroke="#6666ff" points="148.38,-137.51 156.45,-144.37 154.42,-133.97 148.38,-137.51"/>
</g>
</g>
</svg>
