<?xml version="1.0" encoding="UTF-8" standalone="no"?>
<!DOCTYPE svg PUBLIC "-//W3C//DTD SVG 1.1//EN"
 "http://www.w3.org/Graphics/SVG/1.1/DTD/svg11.dtd">
<!-- Generated by graphviz version 2.43.0 (0)
 -->
<!-- Title: perl6&#45;type&#45;graph Pages: 1 -->
<svg width="216pt" height="404pt"
 viewBox="0.00 0.00 215.79 404.00" xmlns="http://www.w3.org/2000/svg" xmlns:xlink="http://www.w3.org/1999/xlink">
<g id="graph0" class="graph" transform="scale(1 1) rotate(0) translate(4 400)">
<title>perl6&#45;type&#45;graph</title>
<polygon fill="white" stroke="transparent" points="-4,4 -4,-400 211.79,-400 211.79,4 -4,4"/>
<!-- X::IO::Chmod -->
<g id="node1" class="node">
<title>X::IO::Chmod</title>
<g id="a_node1"><a xlink:href="/type/X::IO::Chmod" xlink:title="X::IO::Chmod">
<ellipse fill="none" stroke="#000000" cx="64.34" cy="-18" rx="64.19" ry="18"/>
<text text-anchor="middle" x="64.34" y="-14.3" font-family="FreeSans" font-size="14.00" fill="#000000">X::IO::Chmod</text>
</a>
</g>
</g>
<!-- Exception -->
<g id="node4" class="node">
<title>Exception</title>
<g id="a_node4"><a xlink:href="/type/Exception" xlink:title="Exception">
<ellipse fill="none" stroke="#000000" cx="87.34" cy="-234" rx="49.29" ry="18"/>
<text text-anchor="middle" x="87.34" y="-230.3" font-family="FreeSans" font-size="14.00" fill="#000000">Exception</text>
</a>
</g>
</g>
<!-- X::IO::Chmod&#45;&gt;Exception -->
<g id="edge1" class="edge">
<title>X::IO::Chmod&#45;&gt;Exception</title>
<path fill="none" stroke="#000000" d="M62.31,-36.15C62.75,-73.34 71.99,-161.63 79.82,-206.23"/>
<polygon fill="#000000" stroke="#000000" points="76.38,-206.88 81.67,-216.06 83.26,-205.59 76.38,-206.88"/>
</g>
<!-- X::IO::Chmod&#45;&gt;Exception -->
<g id="edge2" class="edge">
<title>X::IO::Chmod&#45;&gt;Exception</title>
<path fill="none" stroke="#000000" d="M70.07,-36.15C77.58,-73.17 87.27,-160.82 89.09,-205.61"/>
<polygon fill="#000000" stroke="#000000" points="85.6,-205.87 89.38,-215.77 92.6,-205.67 85.6,-205.87"/>
</g>
<!-- X::IO -->
<g id="node6" class="node">
<title>X::IO</title>
<g id="a_node6"><a xlink:href="/type/X::IO" xlink:title="X::IO">
<ellipse fill="none" stroke="#6666ff" cx="132.34" cy="-90" rx="31.4" ry="18"/>
<text text-anchor="middle" x="132.34" y="-86.3" font-family="FreeSans" font-size="14.00" fill="#6666ff">X::IO</text>
</a>
</g>
</g>
<!-- X::IO::Chmod&#45;&gt;X::IO -->
<g id="edge7" class="edge">
<title>X::IO::Chmod&#45;&gt;X::IO</title>
<path fill="none" stroke="#6666ff" d="M80.46,-35.59C89.47,-44.87 100.83,-56.56 110.62,-66.64"/>
<polygon fill="#6666ff" stroke="#6666ff" points="108.26,-69.23 117.74,-73.96 113.28,-64.35 108.26,-69.23"/>
</g>
<!-- Mu -->
<g id="node2" class="node">
<title>Mu</title>
<g id="a_node2"><a xlink:href="/type/Mu" xlink:title="Mu">
<ellipse fill="none" stroke="#000000" cx="87.34" cy="-378" rx="27" ry="18"/>
<text text-anchor="middle" x="87.34" y="-374.3" font-family="FreeSans" font-size="14.00" fill="#000000">Mu</text>
</a>
</g>
</g>
<!-- Any -->
<g id="node3" class="node">
<title>Any</title>
<g id="a_node3"><a xlink:href="/type/Any" xlink:title="Any">
<ellipse fill="none" stroke="#000000" cx="87.34" cy="-306" rx="27" ry="18"/>
<text text-anchor="middle" x="87.34" y="-302.3" font-family="FreeSans" font-size="14.00" fill="#000000">Any</text>
</a>
</g>
</g>
<!-- Any&#45;&gt;Mu -->
<g id="edge3" class="edge">
<title>Any&#45;&gt;Mu</title>
<path fill="none" stroke="#000000" d="M87.34,-324.3C87.34,-332.02 87.34,-341.29 87.34,-349.89"/>
<polygon fill="#000000" stroke="#000000" points="83.84,-349.9 87.34,-359.9 90.84,-349.9 83.84,-349.9"/>
</g>
<!-- Exception&#45;&gt;Any -->
<g id="edge4" class="edge">
<title>Exception&#45;&gt;Any</title>
<path fill="none" stroke="#000000" d="M87.34,-252.3C87.34,-260.02 87.34,-269.29 87.34,-277.89"/>
<polygon fill="#000000" stroke="#000000" points="83.84,-277.9 87.34,-287.9 90.84,-277.9 83.84,-277.9"/>
</g>
<!-- X::OS -->
<g id="node5" class="node">
<title>X::OS</title>
<g id="a_node5"><a xlink:href="/type/X::OS" xlink:title="X::OS">
<ellipse fill="none" stroke="#6666ff" cx="173.34" cy="-162" rx="34.39" ry="18"/>
<text text-anchor="middle" x="173.34" y="-158.3" font-family="FreeSans" font-size="14.00" fill="#6666ff">X::OS</text>
</a>
</g>
</g>
<!-- X::OS&#45;&gt;Exception -->
<g id="edge5" class="edge">
<title>X::OS&#45;&gt;Exception</title>
<path fill="none" stroke="#000000" d="M155.53,-177.5C143.71,-187.12 127.98,-199.93 114.6,-210.81"/>
<polygon fill="#000000" stroke="#000000" points="112.18,-208.27 106.64,-217.3 116.6,-213.7 112.18,-208.27"/>
</g>
<!-- X::IO&#45;&gt;Exception -->
<g id="edge6" class="edge">
<title>X::IO&#45;&gt;Exception</title>
<path fill="none" stroke="#000000" d="M127.01,-107.85C119.33,-132.06 105.11,-176.95 95.94,-205.87"/>
<polygon fill="#000000" stroke="#000000" points="92.5,-205.14 92.82,-215.73 99.17,-207.26 92.5,-205.14"/>
</g>
<!-- X::IO&#45;&gt;X::OS -->
<g id="edge8" class="edge">
<title>X::IO&#45;&gt;X::OS</title>
<path fill="none" stroke="#6666ff" d="M141.85,-107.24C146.8,-115.68 152.96,-126.2 158.52,-135.69"/>
<polygon fill="#6666ff" stroke="#6666ff" points="155.53,-137.51 163.6,-144.37 161.57,-133.97 155.53,-137.51"/>
</g>
</g>
</svg>
