<?xml version="1.0" encoding="UTF-8" standalone="no"?>
<!DOCTYPE svg PUBLIC "-//W3C//DTD SVG 1.1//EN"
 "http://www.w3.org/Graphics/SVG/1.1/DTD/svg11.dtd">
<!-- Generated by graphviz version 2.43.0 (0)
 -->
<!-- Title: perl6&#45;type&#45;graph Pages: 1 -->
<svg width="241pt" height="404pt"
 viewBox="0.00 0.00 241.14 404.00" xmlns="http://www.w3.org/2000/svg" xmlns:xlink="http://www.w3.org/1999/xlink">
<g id="graph0" class="graph" transform="scale(1 1) rotate(0) translate(4 400)">
<title>perl6&#45;type&#45;graph</title>
<polygon fill="white" stroke="transparent" points="-4,4 -4,-400 237.14,-400 237.14,4 -4,4"/>
<!-- X::IO::DoesNotExist -->
<g id="node1" class="node">
<title>X::IO::DoesNotExist</title>
<g id="a_node1"><a xlink:href="/type/X::IO::DoesNotExist" xlink:title="X::IO::DoesNotExist">
<ellipse fill="none" stroke="#000000" cx="89.69" cy="-18" rx="89.88" ry="18"/>
<text text-anchor="middle" x="89.69" y="-14.3" font-family="FreeSans" font-size="14.00" fill="#000000">X::IO::DoesNotExist</text>
</a>
</g>
</g>
<!-- Exception -->
<g id="node4" class="node">
<title>Exception</title>
<g id="a_node4"><a xlink:href="/type/Exception" xlink:title="Exception">
<ellipse fill="none" stroke="#000000" cx="112.69" cy="-234" rx="49.29" ry="18"/>
<text text-anchor="middle" x="112.69" y="-230.3" font-family="FreeSans" font-size="14.00" fill="#000000">Exception</text>
</a>
</g>
</g>
<!-- X::IO::DoesNotExist&#45;&gt;Exception -->
<g id="edge1" class="edge">
<title>X::IO::DoesNotExist&#45;&gt;Exception</title>
<path fill="none" stroke="#000000" d="M87.66,-36.15C88.1,-73.34 97.33,-161.63 105.16,-206.23"/>
<polygon fill="#000000" stroke="#000000" points="101.73,-206.88 107.02,-216.06 108.61,-205.59 101.73,-206.88"/>
</g>
<!-- X::IO::DoesNotExist&#45;&gt;Exception -->
<g id="edge2" class="edge">
<title>X::IO::DoesNotExist&#45;&gt;Exception</title>
<path fill="none" stroke="#000000" d="M95.41,-36.15C102.93,-73.17 112.62,-160.82 114.44,-205.61"/>
<polygon fill="#000000" stroke="#000000" points="110.95,-205.87 114.73,-215.77 117.94,-205.67 110.95,-205.87"/>
</g>
<!-- X::IO -->
<g id="node6" class="node">
<title>X::IO</title>
<g id="a_node6"><a xlink:href="/type/X::IO" xlink:title="X::IO">
<ellipse fill="none" stroke="#6666ff" cx="157.69" cy="-90" rx="31.4" ry="18"/>
<text text-anchor="middle" x="157.69" y="-86.3" font-family="FreeSans" font-size="14.00" fill="#6666ff">X::IO</text>
</a>
</g>
</g>
<!-- X::IO::DoesNotExist&#45;&gt;X::IO -->
<g id="edge7" class="edge">
<title>X::IO::DoesNotExist&#45;&gt;X::IO</title>
<path fill="none" stroke="#6666ff" d="M106.15,-35.95C115.05,-45.1 126.15,-56.53 135.77,-66.43"/>
<polygon fill="#6666ff" stroke="#6666ff" points="133.3,-68.91 142.77,-73.64 138.32,-64.03 133.3,-68.91"/>
</g>
<!-- Mu -->
<g id="node2" class="node">
<title>Mu</title>
<g id="a_node2"><a xlink:href="/type/Mu" xlink:title="Mu">
<ellipse fill="none" stroke="#000000" cx="112.69" cy="-378" rx="27" ry="18"/>
<text text-anchor="middle" x="112.69" y="-374.3" font-family="FreeSans" font-size="14.00" fill="#000000">Mu</text>
</a>
</g>
</g>
<!-- Any -->
<g id="node3" class="node">
<title>Any</title>
<g id="a_node3"><a xlink:href="/type/Any" xlink:title="Any">
<ellipse fill="none" stroke="#000000" cx="112.69" cy="-306" rx="27" ry="18"/>
<text text-anchor="middle" x="112.69" y="-302.3" font-family="FreeSans" font-size="14.00" fill="#000000">Any</text>
</a>
</g>
</g>
<!-- Any&#45;&gt;Mu -->
<g id="edge3" class="edge">
<title>Any&#45;&gt;Mu</title>
<path fill="none" stroke="#000000" d="M112.69,-324.3C112.69,-332.02 112.69,-341.29 112.69,-349.89"/>
<polygon fill="#000000" stroke="#000000" points="109.19,-349.9 112.69,-359.9 116.19,-349.9 109.19,-349.9"/>
</g>
<!-- Exception&#45;&gt;Any -->
<g id="edge4" class="edge">
<title>Exception&#45;&gt;Any</title>
<path fill="none" stroke="#000000" d="M112.69,-252.3C112.69,-260.02 112.69,-269.29 112.69,-277.89"/>
<polygon fill="#000000" stroke="#000000" points="109.19,-277.9 112.69,-287.9 116.19,-277.9 109.19,-277.9"/>
</g>
<!-- X::OS -->
<g id="node5" class="node">
<title>X::OS</title>
<g id="a_node5"><a xlink:href="/type/X::OS" xlink:title="X::OS">
<ellipse fill="none" stroke="#6666ff" cx="198.69" cy="-162" rx="34.39" ry="18"/>
<text text-anchor="middle" x="198.69" y="-158.3" font-family="FreeSans" font-size="14.00" fill="#6666ff">X::OS</text>
</a>
</g>
</g>
<!-- X::OS&#45;&gt;Exception -->
<g id="edge5" class="edge">
<title>X::OS&#45;&gt;Exception</title>
<path fill="none" stroke="#000000" d="M180.87,-177.5C169.06,-187.12 153.33,-199.93 139.95,-210.81"/>
<polygon fill="#000000" stroke="#000000" points="137.53,-208.27 131.98,-217.3 141.95,-213.7 137.53,-208.27"/>
</g>
<!-- X::IO&#45;&gt;Exception -->
<g id="edge6" class="edge">
<title>X::IO&#45;&gt;Exception</title>
<path fill="none" stroke="#000000" d="M152.35,-107.85C144.68,-132.06 130.46,-176.95 121.29,-205.87"/>
<polygon fill="#000000" stroke="#000000" points="117.85,-205.14 118.16,-215.73 124.52,-207.26 117.85,-205.14"/>
</g>
<!-- X::IO&#45;&gt;X::OS -->
<g id="edge8" class="edge">
<title>X::IO&#45;&gt;X::OS</title>
<path fill="none" stroke="#6666ff" d="M167.2,-107.24C172.15,-115.68 178.31,-126.2 183.87,-135.69"/>
<polygon fill="#6666ff" stroke="#6666ff" points="180.88,-137.51 188.95,-144.37 186.92,-133.97 180.88,-137.51"/>
</g>
</g>
</svg>
