<?xml version="1.0" encoding="UTF-8" standalone="no"?>
<!DOCTYPE svg PUBLIC "-//W3C//DTD SVG 1.1//EN"
 "http://www.w3.org/Graphics/SVG/1.1/DTD/svg11.dtd">
<!-- Generated by graphviz version 2.43.0 (0)
 -->
<!-- Title: perl6&#45;type&#45;graph Pages: 1 -->
<svg width="199pt" height="404pt"
 viewBox="0.00 0.00 198.89 404.00" xmlns="http://www.w3.org/2000/svg" xmlns:xlink="http://www.w3.org/1999/xlink">
<g id="graph0" class="graph" transform="scale(1 1) rotate(0) translate(4 400)">
<title>perl6&#45;type&#45;graph</title>
<polygon fill="white" stroke="transparent" points="-4,4 -4,-400 194.89,-400 194.89,4 -4,4"/>
<!-- X::IO::Dir -->
<g id="node1" class="node">
<title>X::IO::Dir</title>
<g id="a_node1"><a xlink:href="/type/X::IO::Dir" xlink:title="X::IO::Dir">
<ellipse fill="none" stroke="#000000" cx="47.45" cy="-18" rx="47.39" ry="18"/>
<text text-anchor="middle" x="47.45" y="-14.3" font-family="FreeSans" font-size="14.00" fill="#000000">X::IO::Dir</text>
</a>
</g>
</g>
<!-- Exception -->
<g id="node4" class="node">
<title>Exception</title>
<g id="a_node4"><a xlink:href="/type/Exception" xlink:title="Exception">
<ellipse fill="none" stroke="#000000" cx="70.45" cy="-234" rx="49.29" ry="18"/>
<text text-anchor="middle" x="70.45" y="-230.3" font-family="FreeSans" font-size="14.00" fill="#000000">Exception</text>
</a>
</g>
</g>
<!-- X::IO::Dir&#45;&gt;Exception -->
<g id="edge1" class="edge">
<title>X::IO::Dir&#45;&gt;Exception</title>
<path fill="none" stroke="#000000" d="M45.41,-36.15C45.86,-73.34 55.09,-161.63 62.92,-206.23"/>
<polygon fill="#000000" stroke="#000000" points="59.48,-206.88 64.77,-216.06 66.36,-205.59 59.48,-206.88"/>
</g>
<!-- X::IO::Dir&#45;&gt;Exception -->
<g id="edge2" class="edge">
<title>X::IO::Dir&#45;&gt;Exception</title>
<path fill="none" stroke="#000000" d="M53.17,-36.15C60.68,-73.17 70.37,-160.82 72.19,-205.61"/>
<polygon fill="#000000" stroke="#000000" points="68.7,-205.87 72.48,-215.77 75.7,-205.67 68.7,-205.87"/>
</g>
<!-- X::IO -->
<g id="node6" class="node">
<title>X::IO</title>
<g id="a_node6"><a xlink:href="/type/X::IO" xlink:title="X::IO">
<ellipse fill="none" stroke="#6666ff" cx="115.45" cy="-90" rx="31.4" ry="18"/>
<text text-anchor="middle" x="115.45" y="-86.3" font-family="FreeSans" font-size="14.00" fill="#6666ff">X::IO</text>
</a>
</g>
</g>
<!-- X::IO::Dir&#45;&gt;X::IO -->
<g id="edge7" class="edge">
<title>X::IO::Dir&#45;&gt;X::IO</title>
<path fill="none" stroke="#6666ff" d="M63.22,-35.24C72.22,-44.5 83.65,-56.27 93.51,-66.42"/>
<polygon fill="#6666ff" stroke="#6666ff" points="91.21,-69.08 100.69,-73.81 96.23,-64.2 91.21,-69.08"/>
</g>
<!-- Mu -->
<g id="node2" class="node">
<title>Mu</title>
<g id="a_node2"><a xlink:href="/type/Mu" xlink:title="Mu">
<ellipse fill="none" stroke="#000000" cx="70.45" cy="-378" rx="27" ry="18"/>
<text text-anchor="middle" x="70.45" y="-374.3" font-family="FreeSans" font-size="14.00" fill="#000000">Mu</text>
</a>
</g>
</g>
<!-- Any -->
<g id="node3" class="node">
<title>Any</title>
<g id="a_node3"><a xlink:href="/type/Any" xlink:title="Any">
<ellipse fill="none" stroke="#000000" cx="70.45" cy="-306" rx="27" ry="18"/>
<text text-anchor="middle" x="70.45" y="-302.3" font-family="FreeSans" font-size="14.00" fill="#000000">Any</text>
</a>
</g>
</g>
<!-- Any&#45;&gt;Mu -->
<g id="edge3" class="edge">
<title>Any&#45;&gt;Mu</title>
<path fill="none" stroke="#000000" d="M70.45,-324.3C70.45,-332.02 70.45,-341.29 70.45,-349.89"/>
<polygon fill="#000000" stroke="#000000" points="66.95,-349.9 70.45,-359.9 73.95,-349.9 66.95,-349.9"/>
</g>
<!-- Exception&#45;&gt;Any -->
<g id="edge4" class="edge">
<title>Exception&#45;&gt;Any</title>
<path fill="none" stroke="#000000" d="M70.45,-252.3C70.45,-260.02 70.45,-269.29 70.45,-277.89"/>
<polygon fill="#000000" stroke="#000000" points="66.95,-277.9 70.45,-287.9 73.95,-277.9 66.95,-277.9"/>
</g>
<!-- X::OS -->
<g id="node5" class="node">
<title>X::OS</title>
<g id="a_node5"><a xlink:href="/type/X::OS" xlink:title="X::OS">
<ellipse fill="none" stroke="#6666ff" cx="156.45" cy="-162" rx="34.39" ry="18"/>
<text text-anchor="middle" x="156.45" y="-158.3" font-family="FreeSans" font-size="14.00" fill="#6666ff">X::OS</text>
</a>
</g>
</g>
<!-- X::OS&#45;&gt;Exception -->
<g id="edge5" class="edge">
<title>X::OS&#45;&gt;Exception</title>
<path fill="none" stroke="#000000" d="M138.63,-177.5C126.81,-187.12 111.08,-199.93 97.7,-210.81"/>
<polygon fill="#000000" stroke="#000000" points="95.28,-208.27 89.74,-217.3 99.7,-213.7 95.28,-208.27"/>
</g>
<!-- X::IO&#45;&gt;Exception -->
<g id="edge6" class="edge">
<title>X::IO&#45;&gt;Exception</title>
<path fill="none" stroke="#000000" d="M110.11,-107.85C102.44,-132.06 88.21,-176.95 79.04,-205.87"/>
<polygon fill="#000000" stroke="#000000" points="75.6,-205.14 75.92,-215.73 82.28,-207.26 75.6,-205.14"/>
</g>
<!-- X::IO&#45;&gt;X::OS -->
<g id="edge8" class="edge">
<title>X::IO&#45;&gt;X::OS</title>
<path fill="none" stroke="#6666ff" d="M124.96,-107.24C129.9,-115.68 136.06,-126.2 141.62,-135.69"/>
<polygon fill="#6666ff" stroke="#6666ff" points="138.63,-137.51 146.7,-144.37 144.67,-133.97 138.63,-137.51"/>
</g>
</g>
</svg>
