<?xml version="1.0" encoding="UTF-8" standalone="no"?>
<!DOCTYPE svg PUBLIC "-//W3C//DTD SVG 1.1//EN"
 "http://www.w3.org/Graphics/SVG/1.1/DTD/svg11.dtd">
<!-- Generated by graphviz version 2.43.0 (0)
 -->
<!-- Title: perl6&#45;type&#45;graph Pages: 1 -->
<svg width="214pt" height="404pt"
 viewBox="0.00 0.00 213.74 404.00" xmlns="http://www.w3.org/2000/svg" xmlns:xlink="http://www.w3.org/1999/xlink">
<g id="graph0" class="graph" transform="scale(1 1) rotate(0) translate(4 400)">
<title>perl6&#45;type&#45;graph</title>
<polygon fill="white" stroke="transparent" points="-4,4 -4,-400 209.74,-400 209.74,4 -4,4"/>
<!-- X::IO::Link -->
<g id="node1" class="node">
<title>X::IO::Link</title>
<g id="a_node1"><a xlink:href="/type/X::IO::Link" xlink:title="X::IO::Link">
<ellipse fill="none" stroke="#000000" cx="53.3" cy="-18" rx="53.09" ry="18"/>
<text text-anchor="middle" x="53.3" y="-14.3" font-family="FreeSans" font-size="14.00" fill="#000000">X::IO::Link</text>
</a>
</g>
</g>
<!-- Exception -->
<g id="node4" class="node">
<title>Exception</title>
<g id="a_node4"><a xlink:href="/type/Exception" xlink:title="Exception">
<ellipse fill="none" stroke="#000000" cx="53.3" cy="-234" rx="49.29" ry="18"/>
<text text-anchor="middle" x="53.3" y="-230.3" font-family="FreeSans" font-size="14.00" fill="#000000">Exception</text>
</a>
</g>
</g>
<!-- X::IO::Link&#45;&gt;Exception -->
<g id="edge1" class="edge">
<title>X::IO::Link&#45;&gt;Exception</title>
<path fill="none" stroke="#000000" d="M45.54,-36.15C38.45,-73.26 37.92,-161.25 43.96,-205.95"/>
<polygon fill="#000000" stroke="#000000" points="40.54,-206.75 45.58,-216.06 47.45,-205.64 40.54,-206.75"/>
</g>
<!-- X::IO::Link&#45;&gt;Exception -->
<g id="edge2" class="edge">
<title>X::IO::Link&#45;&gt;Exception</title>
<path fill="none" stroke="#000000" d="M53.3,-36.15C53.3,-73.17 53.3,-160.82 53.3,-205.61"/>
<polygon fill="#000000" stroke="#000000" points="49.8,-205.77 53.3,-215.77 56.8,-205.77 49.8,-205.77"/>
</g>
<!-- X::IO::Link&#45;&gt;Exception -->
<g id="edge3" class="edge">
<title>X::IO::Link&#45;&gt;Exception</title>
<path fill="none" stroke="#000000" d="M61.05,-36.15C68.14,-73.26 68.67,-161.25 62.64,-205.95"/>
<polygon fill="#000000" stroke="#000000" points="59.14,-205.64 61.01,-216.06 66.05,-206.75 59.14,-205.64"/>
</g>
<!-- X::IO -->
<g id="node6" class="node">
<title>X::IO</title>
<g id="a_node6"><a xlink:href="/type/X::IO" xlink:title="X::IO">
<ellipse fill="none" stroke="#6666ff" cx="130.3" cy="-90" rx="31.4" ry="18"/>
<text text-anchor="middle" x="130.3" y="-86.3" font-family="FreeSans" font-size="14.00" fill="#6666ff">X::IO</text>
</a>
</g>
</g>
<!-- X::IO::Link&#45;&gt;X::IO -->
<g id="edge8" class="edge">
<title>X::IO::Link&#45;&gt;X::IO</title>
<path fill="none" stroke="#6666ff" d="M71.15,-35.24C81.77,-44.88 95.35,-57.23 106.82,-67.66"/>
<polygon fill="#6666ff" stroke="#6666ff" points="104.61,-70.38 114.36,-74.52 109.32,-65.2 104.61,-70.38"/>
</g>
<!-- Mu -->
<g id="node2" class="node">
<title>Mu</title>
<g id="a_node2"><a xlink:href="/type/Mu" xlink:title="Mu">
<ellipse fill="none" stroke="#000000" cx="53.3" cy="-378" rx="27" ry="18"/>
<text text-anchor="middle" x="53.3" y="-374.3" font-family="FreeSans" font-size="14.00" fill="#000000">Mu</text>
</a>
</g>
</g>
<!-- Any -->
<g id="node3" class="node">
<title>Any</title>
<g id="a_node3"><a xlink:href="/type/Any" xlink:title="Any">
<ellipse fill="none" stroke="#000000" cx="53.3" cy="-306" rx="27" ry="18"/>
<text text-anchor="middle" x="53.3" y="-302.3" font-family="FreeSans" font-size="14.00" fill="#000000">Any</text>
</a>
</g>
</g>
<!-- Any&#45;&gt;Mu -->
<g id="edge4" class="edge">
<title>Any&#45;&gt;Mu</title>
<path fill="none" stroke="#000000" d="M53.3,-324.3C53.3,-332.02 53.3,-341.29 53.3,-349.89"/>
<polygon fill="#000000" stroke="#000000" points="49.8,-349.9 53.3,-359.9 56.8,-349.9 49.8,-349.9"/>
</g>
<!-- Exception&#45;&gt;Any -->
<g id="edge5" class="edge">
<title>Exception&#45;&gt;Any</title>
<path fill="none" stroke="#000000" d="M53.3,-252.3C53.3,-260.02 53.3,-269.29 53.3,-277.89"/>
<polygon fill="#000000" stroke="#000000" points="49.8,-277.9 53.3,-287.9 56.8,-277.9 49.8,-277.9"/>
</g>
<!-- X::OS -->
<g id="node5" class="node">
<title>X::OS</title>
<g id="a_node5"><a xlink:href="/type/X::OS" xlink:title="X::OS">
<ellipse fill="none" stroke="#6666ff" cx="171.3" cy="-162" rx="34.39" ry="18"/>
<text text-anchor="middle" x="171.3" y="-158.3" font-family="FreeSans" font-size="14.00" fill="#6666ff">X::OS</text>
</a>
</g>
</g>
<!-- X::OS&#45;&gt;Exception -->
<g id="edge6" class="edge">
<title>X::OS&#45;&gt;Exception</title>
<path fill="none" stroke="#000000" d="M149.38,-176C131.81,-186.43 106.86,-201.23 86.79,-213.13"/>
<polygon fill="#000000" stroke="#000000" points="84.77,-210.26 77.95,-218.37 88.34,-216.28 84.77,-210.26"/>
</g>
<!-- X::IO&#45;&gt;Exception -->
<g id="edge7" class="edge">
<title>X::IO&#45;&gt;Exception</title>
<path fill="none" stroke="#000000" d="M121.83,-107.74C108.8,-133.52 85.3,-180 85.3,-180 85.3,-180 76.88,-193.93 68.69,-207.51"/>
<polygon fill="#000000" stroke="#000000" points="65.59,-205.86 63.42,-216.23 71.59,-209.48 65.59,-205.86"/>
</g>
<!-- X::IO&#45;&gt;X::OS -->
<g id="edge9" class="edge">
<title>X::IO&#45;&gt;X::OS</title>
<path fill="none" stroke="#6666ff" d="M139.8,-107.24C144.75,-115.68 150.91,-126.2 156.47,-135.69"/>
<polygon fill="#6666ff" stroke="#6666ff" points="153.48,-137.51 161.55,-144.37 159.52,-133.97 153.48,-137.51"/>
</g>
</g>
</svg>
