<?xml version="1.0" encoding="UTF-8" standalone="no"?>
<!DOCTYPE svg PUBLIC "-//W3C//DTD SVG 1.1//EN"
 "http://www.w3.org/Graphics/SVG/1.1/DTD/svg11.dtd">
<!-- Generated by graphviz version 2.43.0 (0)
 -->
<!-- Title: perl6&#45;type&#45;graph Pages: 1 -->
<svg width="219pt" height="404pt"
 viewBox="0.00 0.00 218.94 404.00" xmlns="http://www.w3.org/2000/svg" xmlns:xlink="http://www.w3.org/1999/xlink">
<g id="graph0" class="graph" transform="scale(1 1) rotate(0) translate(4 400)">
<title>perl6&#45;type&#45;graph</title>
<polygon fill="white" stroke="transparent" points="-4,4 -4,-400 214.94,-400 214.94,4 -4,4"/>
<!-- X::IO::Mkdir -->
<g id="node1" class="node">
<title>X::IO::Mkdir</title>
<g id="a_node1"><a xlink:href="/type/X::IO::Mkdir" xlink:title="X::IO::Mkdir">
<ellipse fill="none" stroke="#000000" cx="58.49" cy="-18" rx="58.49" ry="18"/>
<text text-anchor="middle" x="58.49" y="-14.3" font-family="FreeSans" font-size="14.00" fill="#000000">X::IO::Mkdir</text>
</a>
</g>
</g>
<!-- Exception -->
<g id="node4" class="node">
<title>Exception</title>
<g id="a_node4"><a xlink:href="/type/Exception" xlink:title="Exception">
<ellipse fill="none" stroke="#000000" cx="58.49" cy="-234" rx="49.29" ry="18"/>
<text text-anchor="middle" x="58.49" y="-230.3" font-family="FreeSans" font-size="14.00" fill="#000000">Exception</text>
</a>
</g>
</g>
<!-- X::IO::Mkdir&#45;&gt;Exception -->
<g id="edge1" class="edge">
<title>X::IO::Mkdir&#45;&gt;Exception</title>
<path fill="none" stroke="#000000" d="M50.74,-36.15C43.65,-73.26 43.12,-161.25 49.16,-205.95"/>
<polygon fill="#000000" stroke="#000000" points="45.74,-206.75 50.78,-216.06 52.65,-205.64 45.74,-206.75"/>
</g>
<!-- X::IO::Mkdir&#45;&gt;Exception -->
<g id="edge2" class="edge">
<title>X::IO::Mkdir&#45;&gt;Exception</title>
<path fill="none" stroke="#000000" d="M58.49,-36.15C58.49,-73.17 58.49,-160.82 58.49,-205.61"/>
<polygon fill="#000000" stroke="#000000" points="54.99,-205.77 58.49,-215.77 61.99,-205.77 54.99,-205.77"/>
</g>
<!-- X::IO::Mkdir&#45;&gt;Exception -->
<g id="edge3" class="edge">
<title>X::IO::Mkdir&#45;&gt;Exception</title>
<path fill="none" stroke="#000000" d="M66.25,-36.15C73.34,-73.26 73.87,-161.25 67.83,-205.95"/>
<polygon fill="#000000" stroke="#000000" points="64.34,-205.64 66.21,-216.06 71.25,-206.75 64.34,-205.64"/>
</g>
<!-- X::IO -->
<g id="node6" class="node">
<title>X::IO</title>
<g id="a_node6"><a xlink:href="/type/X::IO" xlink:title="X::IO">
<ellipse fill="none" stroke="#6666ff" cx="135.49" cy="-90" rx="31.4" ry="18"/>
<text text-anchor="middle" x="135.49" y="-86.3" font-family="FreeSans" font-size="14.00" fill="#6666ff">X::IO</text>
</a>
</g>
</g>
<!-- X::IO::Mkdir&#45;&gt;X::IO -->
<g id="edge8" class="edge">
<title>X::IO::Mkdir&#45;&gt;X::IO</title>
<path fill="none" stroke="#6666ff" d="M76.35,-35.24C86.97,-44.88 100.55,-57.23 112.02,-67.66"/>
<polygon fill="#6666ff" stroke="#6666ff" points="109.81,-70.38 119.56,-74.52 114.52,-65.2 109.81,-70.38"/>
</g>
<!-- Mu -->
<g id="node2" class="node">
<title>Mu</title>
<g id="a_node2"><a xlink:href="/type/Mu" xlink:title="Mu">
<ellipse fill="none" stroke="#000000" cx="58.49" cy="-378" rx="27" ry="18"/>
<text text-anchor="middle" x="58.49" y="-374.3" font-family="FreeSans" font-size="14.00" fill="#000000">Mu</text>
</a>
</g>
</g>
<!-- Any -->
<g id="node3" class="node">
<title>Any</title>
<g id="a_node3"><a xlink:href="/type/Any" xlink:title="Any">
<ellipse fill="none" stroke="#000000" cx="58.49" cy="-306" rx="27" ry="18"/>
<text text-anchor="middle" x="58.49" y="-302.3" font-family="FreeSans" font-size="14.00" fill="#000000">Any</text>
</a>
</g>
</g>
<!-- Any&#45;&gt;Mu -->
<g id="edge4" class="edge">
<title>Any&#45;&gt;Mu</title>
<path fill="none" stroke="#000000" d="M58.49,-324.3C58.49,-332.02 58.49,-341.29 58.49,-349.89"/>
<polygon fill="#000000" stroke="#000000" points="54.99,-349.9 58.49,-359.9 61.99,-349.9 54.99,-349.9"/>
</g>
<!-- Exception&#45;&gt;Any -->
<g id="edge5" class="edge">
<title>Exception&#45;&gt;Any</title>
<path fill="none" stroke="#000000" d="M58.49,-252.3C58.49,-260.02 58.49,-269.29 58.49,-277.89"/>
<polygon fill="#000000" stroke="#000000" points="54.99,-277.9 58.49,-287.9 61.99,-277.9 54.99,-277.9"/>
</g>
<!-- X::OS -->
<g id="node5" class="node">
<title>X::OS</title>
<g id="a_node5"><a xlink:href="/type/X::OS" xlink:title="X::OS">
<ellipse fill="none" stroke="#6666ff" cx="176.49" cy="-162" rx="34.39" ry="18"/>
<text text-anchor="middle" x="176.49" y="-158.3" font-family="FreeSans" font-size="14.00" fill="#6666ff">X::OS</text>
</a>
</g>
</g>
<!-- X::OS&#45;&gt;Exception -->
<g id="edge6" class="edge">
<title>X::OS&#45;&gt;Exception</title>
<path fill="none" stroke="#000000" d="M154.58,-176C137.01,-186.43 112.06,-201.23 91.99,-213.13"/>
<polygon fill="#000000" stroke="#000000" points="89.97,-210.26 83.15,-218.37 93.54,-216.28 89.97,-210.26"/>
</g>
<!-- X::IO&#45;&gt;Exception -->
<g id="edge7" class="edge">
<title>X::IO&#45;&gt;Exception</title>
<path fill="none" stroke="#000000" d="M127.03,-107.74C114,-133.52 90.49,-180 90.49,-180 90.49,-180 82.08,-193.93 73.89,-207.51"/>
<polygon fill="#000000" stroke="#000000" points="70.79,-205.86 68.62,-216.23 76.78,-209.48 70.79,-205.86"/>
</g>
<!-- X::IO&#45;&gt;X::OS -->
<g id="edge9" class="edge">
<title>X::IO&#45;&gt;X::OS</title>
<path fill="none" stroke="#6666ff" d="M145,-107.24C149.95,-115.68 156.11,-126.2 161.67,-135.69"/>
<polygon fill="#6666ff" stroke="#6666ff" points="158.68,-137.51 166.75,-144.37 164.72,-133.97 158.68,-137.51"/>
</g>
</g>
</svg>
