<?xml version="1.0" encoding="UTF-8" standalone="no"?>
<!DOCTYPE svg PUBLIC "-//W3C//DTD SVG 1.1//EN"
 "http://www.w3.org/Graphics/SVG/1.1/DTD/svg11.dtd">
<!-- Generated by graphviz version 2.43.0 (0)
 -->
<!-- Title: perl6&#45;type&#45;graph Pages: 1 -->
<svg width="220pt" height="404pt"
 viewBox="0.00 0.00 220.24 404.00" xmlns="http://www.w3.org/2000/svg" xmlns:xlink="http://www.w3.org/1999/xlink">
<g id="graph0" class="graph" transform="scale(1 1) rotate(0) translate(4 400)">
<title>perl6&#45;type&#45;graph</title>
<polygon fill="white" stroke="transparent" points="-4,4 -4,-400 216.24,-400 216.24,4 -4,4"/>
<!-- X::IO::Rmdir -->
<g id="node1" class="node">
<title>X::IO::Rmdir</title>
<g id="a_node1"><a xlink:href="/type/X::IO::Rmdir" xlink:title="X::IO::Rmdir">
<ellipse fill="none" stroke="#000000" cx="59.79" cy="-18" rx="59.59" ry="18"/>
<text text-anchor="middle" x="59.79" y="-14.3" font-family="FreeSans" font-size="14.00" fill="#000000">X::IO::Rmdir</text>
</a>
</g>
</g>
<!-- Exception -->
<g id="node4" class="node">
<title>Exception</title>
<g id="a_node4"><a xlink:href="/type/Exception" xlink:title="Exception">
<ellipse fill="none" stroke="#000000" cx="59.79" cy="-234" rx="49.29" ry="18"/>
<text text-anchor="middle" x="59.79" y="-230.3" font-family="FreeSans" font-size="14.00" fill="#000000">Exception</text>
</a>
</g>
</g>
<!-- X::IO::Rmdir&#45;&gt;Exception -->
<g id="edge1" class="edge">
<title>X::IO::Rmdir&#45;&gt;Exception</title>
<path fill="none" stroke="#000000" d="M52.04,-36.15C44.95,-73.26 44.42,-161.25 50.45,-205.95"/>
<polygon fill="#000000" stroke="#000000" points="47.04,-206.75 52.08,-216.06 53.95,-205.64 47.04,-206.75"/>
</g>
<!-- X::IO::Rmdir&#45;&gt;Exception -->
<g id="edge2" class="edge">
<title>X::IO::Rmdir&#45;&gt;Exception</title>
<path fill="none" stroke="#000000" d="M59.79,-36.15C59.79,-73.17 59.79,-160.82 59.79,-205.61"/>
<polygon fill="#000000" stroke="#000000" points="56.29,-205.77 59.79,-215.77 63.29,-205.77 56.29,-205.77"/>
</g>
<!-- X::IO::Rmdir&#45;&gt;Exception -->
<g id="edge3" class="edge">
<title>X::IO::Rmdir&#45;&gt;Exception</title>
<path fill="none" stroke="#000000" d="M67.55,-36.15C74.64,-73.26 75.17,-161.25 69.13,-205.95"/>
<polygon fill="#000000" stroke="#000000" points="65.64,-205.64 67.51,-216.06 72.55,-206.75 65.64,-205.64"/>
</g>
<!-- X::IO -->
<g id="node6" class="node">
<title>X::IO</title>
<g id="a_node6"><a xlink:href="/type/X::IO" xlink:title="X::IO">
<ellipse fill="none" stroke="#6666ff" cx="136.79" cy="-90" rx="31.4" ry="18"/>
<text text-anchor="middle" x="136.79" y="-86.3" font-family="FreeSans" font-size="14.00" fill="#6666ff">X::IO</text>
</a>
</g>
</g>
<!-- X::IO::Rmdir&#45;&gt;X::IO -->
<g id="edge8" class="edge">
<title>X::IO::Rmdir&#45;&gt;X::IO</title>
<path fill="none" stroke="#6666ff" d="M77.65,-35.24C88.27,-44.88 101.85,-57.23 113.32,-67.66"/>
<polygon fill="#6666ff" stroke="#6666ff" points="111.11,-70.38 120.86,-74.52 115.82,-65.2 111.11,-70.38"/>
</g>
<!-- Mu -->
<g id="node2" class="node">
<title>Mu</title>
<g id="a_node2"><a xlink:href="/type/Mu" xlink:title="Mu">
<ellipse fill="none" stroke="#000000" cx="59.79" cy="-378" rx="27" ry="18"/>
<text text-anchor="middle" x="59.79" y="-374.3" font-family="FreeSans" font-size="14.00" fill="#000000">Mu</text>
</a>
</g>
</g>
<!-- Any -->
<g id="node3" class="node">
<title>Any</title>
<g id="a_node3"><a xlink:href="/type/Any" xlink:title="Any">
<ellipse fill="none" stroke="#000000" cx="59.79" cy="-306" rx="27" ry="18"/>
<text text-anchor="middle" x="59.79" y="-302.3" font-family="FreeSans" font-size="14.00" fill="#000000">Any</text>
</a>
</g>
</g>
<!-- Any&#45;&gt;Mu -->
<g id="edge4" class="edge">
<title>Any&#45;&gt;Mu</title>
<path fill="none" stroke="#000000" d="M59.79,-324.3C59.79,-332.02 59.79,-341.29 59.79,-349.89"/>
<polygon fill="#000000" stroke="#000000" points="56.29,-349.9 59.79,-359.9 63.29,-349.9 56.29,-349.9"/>
</g>
<!-- Exception&#45;&gt;Any -->
<g id="edge5" class="edge">
<title>Exception&#45;&gt;Any</title>
<path fill="none" stroke="#000000" d="M59.79,-252.3C59.79,-260.02 59.79,-269.29 59.79,-277.89"/>
<polygon fill="#000000" stroke="#000000" points="56.29,-277.9 59.79,-287.9 63.29,-277.9 56.29,-277.9"/>
</g>
<!-- X::OS -->
<g id="node5" class="node">
<title>X::OS</title>
<g id="a_node5"><a xlink:href="/type/X::OS" xlink:title="X::OS">
<ellipse fill="none" stroke="#6666ff" cx="177.79" cy="-162" rx="34.39" ry="18"/>
<text text-anchor="middle" x="177.79" y="-158.3" font-family="FreeSans" font-size="14.00" fill="#6666ff">X::OS</text>
</a>
</g>
</g>
<!-- X::OS&#45;&gt;Exception -->
<g id="edge6" class="edge">
<title>X::OS&#45;&gt;Exception</title>
<path fill="none" stroke="#000000" d="M155.88,-176C138.31,-186.43 113.36,-201.23 93.29,-213.13"/>
<polygon fill="#000000" stroke="#000000" points="91.27,-210.26 84.45,-218.37 94.84,-216.28 91.27,-210.26"/>
</g>
<!-- X::IO&#45;&gt;Exception -->
<g id="edge7" class="edge">
<title>X::IO&#45;&gt;Exception</title>
<path fill="none" stroke="#000000" d="M128.33,-107.74C115.3,-133.52 91.79,-180 91.79,-180 91.79,-180 83.38,-193.93 75.19,-207.51"/>
<polygon fill="#000000" stroke="#000000" points="72.09,-205.86 69.92,-216.23 78.08,-209.48 72.09,-205.86"/>
</g>
<!-- X::IO&#45;&gt;X::OS -->
<g id="edge9" class="edge">
<title>X::IO&#45;&gt;X::OS</title>
<path fill="none" stroke="#6666ff" d="M146.3,-107.24C151.25,-115.68 157.41,-126.2 162.97,-135.69"/>
<polygon fill="#6666ff" stroke="#6666ff" points="159.98,-137.51 168.05,-144.37 166.02,-133.97 159.98,-137.51"/>
</g>
</g>
</svg>
