<?xml version="1.0" encoding="UTF-8" standalone="no"?>
<!DOCTYPE svg PUBLIC "-//W3C//DTD SVG 1.1//EN"
 "http://www.w3.org/Graphics/SVG/1.1/DTD/svg11.dtd">
<!-- Generated by graphviz version 2.43.0 (0)
 -->
<!-- Title: perl6&#45;type&#45;graph Pages: 1 -->
<svg width="221pt" height="404pt"
 viewBox="0.00 0.00 220.99 404.00" xmlns="http://www.w3.org/2000/svg" xmlns:xlink="http://www.w3.org/1999/xlink">
<g id="graph0" class="graph" transform="scale(1 1) rotate(0) translate(4 400)">
<title>perl6&#45;type&#45;graph</title>
<polygon fill="white" stroke="transparent" points="-4,4 -4,-400 216.99,-400 216.99,4 -4,4"/>
<!-- X::IO::Rename -->
<g id="node1" class="node">
<title>X::IO::Rename</title>
<g id="a_node1"><a xlink:href="/type/X::IO::Rename" xlink:title="X::IO::Rename">
<ellipse fill="none" stroke="#000000" cx="69.54" cy="-18" rx="69.59" ry="18"/>
<text text-anchor="middle" x="69.54" y="-14.3" font-family="FreeSans" font-size="14.00" fill="#000000">X::IO::Rename</text>
</a>
</g>
</g>
<!-- Exception -->
<g id="node4" class="node">
<title>Exception</title>
<g id="a_node4"><a xlink:href="/type/Exception" xlink:title="Exception">
<ellipse fill="none" stroke="#000000" cx="92.54" cy="-234" rx="49.29" ry="18"/>
<text text-anchor="middle" x="92.54" y="-230.3" font-family="FreeSans" font-size="14.00" fill="#000000">Exception</text>
</a>
</g>
</g>
<!-- X::IO::Rename&#45;&gt;Exception -->
<g id="edge1" class="edge">
<title>X::IO::Rename&#45;&gt;Exception</title>
<path fill="none" stroke="#000000" d="M67.51,-36.15C67.95,-73.34 77.19,-161.63 85.02,-206.23"/>
<polygon fill="#000000" stroke="#000000" points="81.58,-206.88 86.87,-216.06 88.46,-205.59 81.58,-206.88"/>
</g>
<!-- X::IO::Rename&#45;&gt;Exception -->
<g id="edge2" class="edge">
<title>X::IO::Rename&#45;&gt;Exception</title>
<path fill="none" stroke="#000000" d="M75.26,-36.15C82.78,-73.17 92.47,-160.82 94.29,-205.61"/>
<polygon fill="#000000" stroke="#000000" points="90.8,-205.87 94.58,-215.77 97.8,-205.67 90.8,-205.87"/>
</g>
<!-- X::IO -->
<g id="node6" class="node">
<title>X::IO</title>
<g id="a_node6"><a xlink:href="/type/X::IO" xlink:title="X::IO">
<ellipse fill="none" stroke="#6666ff" cx="137.54" cy="-90" rx="31.4" ry="18"/>
<text text-anchor="middle" x="137.54" y="-86.3" font-family="FreeSans" font-size="14.00" fill="#6666ff">X::IO</text>
</a>
</g>
</g>
<!-- X::IO::Rename&#45;&gt;X::IO -->
<g id="edge7" class="edge">
<title>X::IO::Rename&#45;&gt;X::IO</title>
<path fill="none" stroke="#6666ff" d="M85.66,-35.59C94.67,-44.87 106.03,-56.56 115.82,-66.64"/>
<polygon fill="#6666ff" stroke="#6666ff" points="113.46,-69.23 122.94,-73.96 118.48,-64.35 113.46,-69.23"/>
</g>
<!-- Mu -->
<g id="node2" class="node">
<title>Mu</title>
<g id="a_node2"><a xlink:href="/type/Mu" xlink:title="Mu">
<ellipse fill="none" stroke="#000000" cx="92.54" cy="-378" rx="27" ry="18"/>
<text text-anchor="middle" x="92.54" y="-374.3" font-family="FreeSans" font-size="14.00" fill="#000000">Mu</text>
</a>
</g>
</g>
<!-- Any -->
<g id="node3" class="node">
<title>Any</title>
<g id="a_node3"><a xlink:href="/type/Any" xlink:title="Any">
<ellipse fill="none" stroke="#000000" cx="92.54" cy="-306" rx="27" ry="18"/>
<text text-anchor="middle" x="92.54" y="-302.3" font-family="FreeSans" font-size="14.00" fill="#000000">Any</text>
</a>
</g>
</g>
<!-- Any&#45;&gt;Mu -->
<g id="edge3" class="edge">
<title>Any&#45;&gt;Mu</title>
<path fill="none" stroke="#000000" d="M92.54,-324.3C92.54,-332.02 92.54,-341.29 92.54,-349.89"/>
<polygon fill="#000000" stroke="#000000" points="89.04,-349.9 92.54,-359.9 96.04,-349.9 89.04,-349.9"/>
</g>
<!-- Exception&#45;&gt;Any -->
<g id="edge4" class="edge">
<title>Exception&#45;&gt;Any</title>
<path fill="none" stroke="#000000" d="M92.54,-252.3C92.54,-260.02 92.54,-269.29 92.54,-277.89"/>
<polygon fill="#000000" stroke="#000000" points="89.04,-277.9 92.54,-287.9 96.04,-277.9 89.04,-277.9"/>
</g>
<!-- X::OS -->
<g id="node5" class="node">
<title>X::OS</title>
<g id="a_node5"><a xlink:href="/type/X::OS" xlink:title="X::OS">
<ellipse fill="none" stroke="#6666ff" cx="178.54" cy="-162" rx="34.39" ry="18"/>
<text text-anchor="middle" x="178.54" y="-158.3" font-family="FreeSans" font-size="14.00" fill="#6666ff">X::OS</text>
</a>
</g>
</g>
<!-- X::OS&#45;&gt;Exception -->
<g id="edge5" class="edge">
<title>X::OS&#45;&gt;Exception</title>
<path fill="none" stroke="#000000" d="M160.72,-177.5C148.91,-187.12 133.18,-199.93 119.8,-210.81"/>
<polygon fill="#000000" stroke="#000000" points="117.38,-208.27 111.84,-217.3 121.8,-213.7 117.38,-208.27"/>
</g>
<!-- X::IO&#45;&gt;Exception -->
<g id="edge6" class="edge">
<title>X::IO&#45;&gt;Exception</title>
<path fill="none" stroke="#000000" d="M132.21,-107.85C124.53,-132.06 110.31,-176.95 101.14,-205.87"/>
<polygon fill="#000000" stroke="#000000" points="97.7,-205.14 98.02,-215.73 104.37,-207.26 97.7,-205.14"/>
</g>
<!-- X::IO&#45;&gt;X::OS -->
<g id="edge8" class="edge">
<title>X::IO&#45;&gt;X::OS</title>
<path fill="none" stroke="#6666ff" d="M147.05,-107.24C152,-115.68 158.16,-126.2 163.72,-135.69"/>
<polygon fill="#6666ff" stroke="#6666ff" points="160.73,-137.51 168.8,-144.37 166.77,-133.97 160.73,-137.51"/>
</g>
</g>
</svg>
