<?xml version="1.0" encoding="UTF-8" standalone="no"?>
<!DOCTYPE svg PUBLIC "-//W3C//DTD SVG 1.1//EN"
 "http://www.w3.org/Graphics/SVG/1.1/DTD/svg11.dtd">
<!-- Generated by graphviz version 2.43.0 (0)
 -->
<!-- Title: perl6&#45;type&#45;graph Pages: 1 -->
<svg width="228pt" height="404pt"
 viewBox="0.00 0.00 228.04 404.00" xmlns="http://www.w3.org/2000/svg" xmlns:xlink="http://www.w3.org/1999/xlink">
<g id="graph0" class="graph" transform="scale(1 1) rotate(0) translate(4 400)">
<title>perl6&#45;type&#45;graph</title>
<polygon fill="white" stroke="transparent" points="-4,4 -4,-400 224.04,-400 224.04,4 -4,4"/>
<!-- X::IO::Symlink -->
<g id="node1" class="node">
<title>X::IO::Symlink</title>
<g id="a_node1"><a xlink:href="/type/X::IO::Symlink" xlink:title="X::IO::Symlink">
<ellipse fill="none" stroke="#000000" cx="67.59" cy="-18" rx="67.69" ry="18"/>
<text text-anchor="middle" x="67.59" y="-14.3" font-family="FreeSans" font-size="14.00" fill="#000000">X::IO::Symlink</text>
</a>
</g>
</g>
<!-- Exception -->
<g id="node4" class="node">
<title>Exception</title>
<g id="a_node4"><a xlink:href="/type/Exception" xlink:title="Exception">
<ellipse fill="none" stroke="#000000" cx="67.59" cy="-234" rx="49.29" ry="18"/>
<text text-anchor="middle" x="67.59" y="-230.3" font-family="FreeSans" font-size="14.00" fill="#000000">Exception</text>
</a>
</g>
</g>
<!-- X::IO::Symlink&#45;&gt;Exception -->
<g id="edge1" class="edge">
<title>X::IO::Symlink&#45;&gt;Exception</title>
<path fill="none" stroke="#000000" d="M59.84,-36.15C52.75,-73.26 52.22,-161.25 58.25,-205.95"/>
<polygon fill="#000000" stroke="#000000" points="54.84,-206.75 59.88,-216.06 61.75,-205.64 54.84,-206.75"/>
</g>
<!-- X::IO::Symlink&#45;&gt;Exception -->
<g id="edge2" class="edge">
<title>X::IO::Symlink&#45;&gt;Exception</title>
<path fill="none" stroke="#000000" d="M67.59,-36.15C67.59,-73.17 67.59,-160.82 67.59,-205.61"/>
<polygon fill="#000000" stroke="#000000" points="64.09,-205.77 67.59,-215.77 71.09,-205.77 64.09,-205.77"/>
</g>
<!-- X::IO::Symlink&#45;&gt;Exception -->
<g id="edge3" class="edge">
<title>X::IO::Symlink&#45;&gt;Exception</title>
<path fill="none" stroke="#000000" d="M75.35,-36.15C82.44,-73.26 82.97,-161.25 76.93,-205.95"/>
<polygon fill="#000000" stroke="#000000" points="73.44,-205.64 75.31,-216.06 80.35,-206.75 73.44,-205.64"/>
</g>
<!-- X::IO -->
<g id="node6" class="node">
<title>X::IO</title>
<g id="a_node6"><a xlink:href="/type/X::IO" xlink:title="X::IO">
<ellipse fill="none" stroke="#6666ff" cx="144.59" cy="-90" rx="31.4" ry="18"/>
<text text-anchor="middle" x="144.59" y="-86.3" font-family="FreeSans" font-size="14.00" fill="#6666ff">X::IO</text>
</a>
</g>
</g>
<!-- X::IO::Symlink&#45;&gt;X::IO -->
<g id="edge8" class="edge">
<title>X::IO::Symlink&#45;&gt;X::IO</title>
<path fill="none" stroke="#6666ff" d="M85.84,-35.59C96.39,-45.18 109.78,-57.35 121.11,-67.65"/>
<polygon fill="#6666ff" stroke="#6666ff" points="118.81,-70.29 128.57,-74.43 123.52,-65.11 118.81,-70.29"/>
</g>
<!-- Mu -->
<g id="node2" class="node">
<title>Mu</title>
<g id="a_node2"><a xlink:href="/type/Mu" xlink:title="Mu">
<ellipse fill="none" stroke="#000000" cx="67.59" cy="-378" rx="27" ry="18"/>
<text text-anchor="middle" x="67.59" y="-374.3" font-family="FreeSans" font-size="14.00" fill="#000000">Mu</text>
</a>
</g>
</g>
<!-- Any -->
<g id="node3" class="node">
<title>Any</title>
<g id="a_node3"><a xlink:href="/type/Any" xlink:title="Any">
<ellipse fill="none" stroke="#000000" cx="67.59" cy="-306" rx="27" ry="18"/>
<text text-anchor="middle" x="67.59" y="-302.3" font-family="FreeSans" font-size="14.00" fill="#000000">Any</text>
</a>
</g>
</g>
<!-- Any&#45;&gt;Mu -->
<g id="edge4" class="edge">
<title>Any&#45;&gt;Mu</title>
<path fill="none" stroke="#000000" d="M67.59,-324.3C67.59,-332.02 67.59,-341.29 67.59,-349.89"/>
<polygon fill="#000000" stroke="#000000" points="64.09,-349.9 67.59,-359.9 71.09,-349.9 64.09,-349.9"/>
</g>
<!-- Exception&#45;&gt;Any -->
<g id="edge5" class="edge">
<title>Exception&#45;&gt;Any</title>
<path fill="none" stroke="#000000" d="M67.59,-252.3C67.59,-260.02 67.59,-269.29 67.59,-277.89"/>
<polygon fill="#000000" stroke="#000000" points="64.09,-277.9 67.59,-287.9 71.09,-277.9 64.09,-277.9"/>
</g>
<!-- X::OS -->
<g id="node5" class="node">
<title>X::OS</title>
<g id="a_node5"><a xlink:href="/type/X::OS" xlink:title="X::OS">
<ellipse fill="none" stroke="#6666ff" cx="185.59" cy="-162" rx="34.39" ry="18"/>
<text text-anchor="middle" x="185.59" y="-158.3" font-family="FreeSans" font-size="14.00" fill="#6666ff">X::OS</text>
</a>
</g>
</g>
<!-- X::OS&#45;&gt;Exception -->
<g id="edge6" class="edge">
<title>X::OS&#45;&gt;Exception</title>
<path fill="none" stroke="#000000" d="M163.68,-176C146.11,-186.43 121.16,-201.23 101.08,-213.13"/>
<polygon fill="#000000" stroke="#000000" points="99.06,-210.26 92.25,-218.37 102.64,-216.28 99.06,-210.26"/>
</g>
<!-- X::IO&#45;&gt;Exception -->
<g id="edge7" class="edge">
<title>X::IO&#45;&gt;Exception</title>
<path fill="none" stroke="#000000" d="M136.13,-107.74C123.09,-133.52 99.59,-180 99.59,-180 99.59,-180 91.18,-193.93 82.98,-207.51"/>
<polygon fill="#000000" stroke="#000000" points="79.89,-205.86 77.72,-216.23 85.88,-209.48 79.89,-205.86"/>
</g>
<!-- X::IO&#45;&gt;X::OS -->
<g id="edge9" class="edge">
<title>X::IO&#45;&gt;X::OS</title>
<path fill="none" stroke="#6666ff" d="M154.1,-107.24C159.05,-115.68 165.21,-126.2 170.77,-135.69"/>
<polygon fill="#6666ff" stroke="#6666ff" points="167.78,-137.51 175.85,-144.37 173.82,-133.97 167.78,-137.51"/>
</g>
</g>
</svg>
