<?xml version="1.0" encoding="UTF-8" standalone="no"?>
<!DOCTYPE svg PUBLIC "-//W3C//DTD SVG 1.1//EN"
 "http://www.w3.org/Graphics/SVG/1.1/DTD/svg11.dtd">
<!-- Generated by graphviz version 2.43.0 (0)
 -->
<!-- Title: perl6&#45;type&#45;graph Pages: 1 -->
<svg width="222pt" height="404pt"
 viewBox="0.00 0.00 221.54 404.00" xmlns="http://www.w3.org/2000/svg" xmlns:xlink="http://www.w3.org/1999/xlink">
<g id="graph0" class="graph" transform="scale(1 1) rotate(0) translate(4 400)">
<title>perl6&#45;type&#45;graph</title>
<polygon fill="white" stroke="transparent" points="-4,4 -4,-400 217.54,-400 217.54,4 -4,4"/>
<!-- X::IO::Unlink -->
<g id="node1" class="node">
<title>X::IO::Unlink</title>
<g id="a_node1"><a xlink:href="/type/X::IO::Unlink" xlink:title="X::IO::Unlink">
<ellipse fill="none" stroke="#000000" cx="61.09" cy="-18" rx="61.19" ry="18"/>
<text text-anchor="middle" x="61.09" y="-14.3" font-family="FreeSans" font-size="14.00" fill="#000000">X::IO::Unlink</text>
</a>
</g>
</g>
<!-- Exception -->
<g id="node4" class="node">
<title>Exception</title>
<g id="a_node4"><a xlink:href="/type/Exception" xlink:title="Exception">
<ellipse fill="none" stroke="#000000" cx="61.09" cy="-234" rx="49.29" ry="18"/>
<text text-anchor="middle" x="61.09" y="-230.3" font-family="FreeSans" font-size="14.00" fill="#000000">Exception</text>
</a>
</g>
</g>
<!-- X::IO::Unlink&#45;&gt;Exception -->
<g id="edge1" class="edge">
<title>X::IO::Unlink&#45;&gt;Exception</title>
<path fill="none" stroke="#000000" d="M53.34,-36.15C46.25,-73.26 45.72,-161.25 51.75,-205.95"/>
<polygon fill="#000000" stroke="#000000" points="48.34,-206.75 53.38,-216.06 55.25,-205.64 48.34,-206.75"/>
</g>
<!-- X::IO::Unlink&#45;&gt;Exception -->
<g id="edge2" class="edge">
<title>X::IO::Unlink&#45;&gt;Exception</title>
<path fill="none" stroke="#000000" d="M61.09,-36.15C61.09,-73.17 61.09,-160.82 61.09,-205.61"/>
<polygon fill="#000000" stroke="#000000" points="57.59,-205.77 61.09,-215.77 64.59,-205.77 57.59,-205.77"/>
</g>
<!-- X::IO::Unlink&#45;&gt;Exception -->
<g id="edge3" class="edge">
<title>X::IO::Unlink&#45;&gt;Exception</title>
<path fill="none" stroke="#000000" d="M68.85,-36.15C75.94,-73.26 76.47,-161.25 70.43,-205.95"/>
<polygon fill="#000000" stroke="#000000" points="66.94,-205.64 68.81,-216.06 73.85,-206.75 66.94,-205.64"/>
</g>
<!-- X::IO -->
<g id="node6" class="node">
<title>X::IO</title>
<g id="a_node6"><a xlink:href="/type/X::IO" xlink:title="X::IO">
<ellipse fill="none" stroke="#6666ff" cx="138.09" cy="-90" rx="31.4" ry="18"/>
<text text-anchor="middle" x="138.09" y="-86.3" font-family="FreeSans" font-size="14.00" fill="#6666ff">X::IO</text>
</a>
</g>
</g>
<!-- X::IO::Unlink&#45;&gt;X::IO -->
<g id="edge8" class="edge">
<title>X::IO::Unlink&#45;&gt;X::IO</title>
<path fill="none" stroke="#6666ff" d="M78.95,-35.24C89.57,-44.88 103.15,-57.23 114.62,-67.66"/>
<polygon fill="#6666ff" stroke="#6666ff" points="112.41,-70.38 122.16,-74.52 117.12,-65.2 112.41,-70.38"/>
</g>
<!-- Mu -->
<g id="node2" class="node">
<title>Mu</title>
<g id="a_node2"><a xlink:href="/type/Mu" xlink:title="Mu">
<ellipse fill="none" stroke="#000000" cx="61.09" cy="-378" rx="27" ry="18"/>
<text text-anchor="middle" x="61.09" y="-374.3" font-family="FreeSans" font-size="14.00" fill="#000000">Mu</text>
</a>
</g>
</g>
<!-- Any -->
<g id="node3" class="node">
<title>Any</title>
<g id="a_node3"><a xlink:href="/type/Any" xlink:title="Any">
<ellipse fill="none" stroke="#000000" cx="61.09" cy="-306" rx="27" ry="18"/>
<text text-anchor="middle" x="61.09" y="-302.3" font-family="FreeSans" font-size="14.00" fill="#000000">Any</text>
</a>
</g>
</g>
<!-- Any&#45;&gt;Mu -->
<g id="edge4" class="edge">
<title>Any&#45;&gt;Mu</title>
<path fill="none" stroke="#000000" d="M61.09,-324.3C61.09,-332.02 61.09,-341.29 61.09,-349.89"/>
<polygon fill="#000000" stroke="#000000" points="57.59,-349.9 61.09,-359.9 64.59,-349.9 57.59,-349.9"/>
</g>
<!-- Exception&#45;&gt;Any -->
<g id="edge5" class="edge">
<title>Exception&#45;&gt;Any</title>
<path fill="none" stroke="#000000" d="M61.09,-252.3C61.09,-260.02 61.09,-269.29 61.09,-277.89"/>
<polygon fill="#000000" stroke="#000000" points="57.59,-277.9 61.09,-287.9 64.59,-277.9 57.59,-277.9"/>
</g>
<!-- X::OS -->
<g id="node5" class="node">
<title>X::OS</title>
<g id="a_node5"><a xlink:href="/type/X::OS" xlink:title="X::OS">
<ellipse fill="none" stroke="#6666ff" cx="179.09" cy="-162" rx="34.39" ry="18"/>
<text text-anchor="middle" x="179.09" y="-158.3" font-family="FreeSans" font-size="14.00" fill="#6666ff">X::OS</text>
</a>
</g>
</g>
<!-- X::OS&#45;&gt;Exception -->
<g id="edge6" class="edge">
<title>X::OS&#45;&gt;Exception</title>
<path fill="none" stroke="#000000" d="M157.18,-176C139.61,-186.43 114.66,-201.23 94.59,-213.13"/>
<polygon fill="#000000" stroke="#000000" points="92.57,-210.26 85.75,-218.37 96.14,-216.28 92.57,-210.26"/>
</g>
<!-- X::IO&#45;&gt;Exception -->
<g id="edge7" class="edge">
<title>X::IO&#45;&gt;Exception</title>
<path fill="none" stroke="#000000" d="M129.63,-107.74C116.6,-133.52 93.09,-180 93.09,-180 93.09,-180 84.68,-193.93 76.49,-207.51"/>
<polygon fill="#000000" stroke="#000000" points="73.39,-205.86 71.22,-216.23 79.38,-209.48 73.39,-205.86"/>
</g>
<!-- X::IO&#45;&gt;X::OS -->
<g id="edge9" class="edge">
<title>X::IO&#45;&gt;X::OS</title>
<path fill="none" stroke="#6666ff" d="M147.6,-107.24C152.55,-115.68 158.71,-126.2 164.27,-135.69"/>
<polygon fill="#6666ff" stroke="#6666ff" points="161.28,-137.51 169.35,-144.37 167.32,-133.97 161.28,-137.51"/>
</g>
</g>
</svg>
