<?xml version="1.0" encoding="UTF-8" standalone="no"?>
<!DOCTYPE svg PUBLIC "-//W3C//DTD SVG 1.1//EN"
 "http://www.w3.org/Graphics/SVG/1.1/DTD/svg11.dtd">
<!-- Generated by graphviz version 2.43.0 (0)
 -->
<!-- Title: perl6&#45;type&#45;graph Pages: 1 -->
<svg width="245pt" height="332pt"
 viewBox="0.00 0.00 244.58 332.00" xmlns="http://www.w3.org/2000/svg" xmlns:xlink="http://www.w3.org/1999/xlink">
<g id="graph0" class="graph" transform="scale(1 1) rotate(0) translate(4 328)">
<title>perl6&#45;type&#45;graph</title>
<polygon fill="white" stroke="transparent" points="-4,4 -4,-328 240.58,-328 240.58,4 -4,4"/>
<!-- X::Numeric::Real -->
<g id="node1" class="node">
<title>X::Numeric::Real</title>
<g id="a_node1"><a xlink:href="/type/X::Numeric::Real" xlink:title="X::Numeric::Real">
<ellipse fill="none" stroke="#000000" cx="118.29" cy="-18" rx="77.19" ry="18"/>
<text text-anchor="middle" x="118.29" y="-14.3" font-family="FreeSans" font-size="14.00" fill="#000000">X::Numeric::Real</text>
</a>
</g>
</g>
<!-- X::Numeric::CannotConvert -->
<g id="node5" class="node">
<title>X::Numeric::CannotConvert</title>
<g id="a_node5"><a xlink:href="/type/X::Numeric::CannotConvert" xlink:title="X::Numeric::CannotConvert">
<ellipse fill="none" stroke="#000000" cx="118.29" cy="-90" rx="118.08" ry="18"/>
<text text-anchor="middle" x="118.29" y="-86.3" font-family="FreeSans" font-size="14.00" fill="#000000">X::Numeric::CannotConvert</text>
</a>
</g>
</g>
<!-- X::Numeric::Real&#45;&gt;X::Numeric::CannotConvert -->
<g id="edge1" class="edge">
<title>X::Numeric::Real&#45;&gt;X::Numeric::CannotConvert</title>
<path fill="none" stroke="#000000" d="M118.29,-36.3C118.29,-44.02 118.29,-53.29 118.29,-61.89"/>
<polygon fill="#000000" stroke="#000000" points="114.79,-61.9 118.29,-71.9 121.79,-61.9 114.79,-61.9"/>
</g>
<!-- Mu -->
<g id="node2" class="node">
<title>Mu</title>
<g id="a_node2"><a xlink:href="/type/Mu" xlink:title="Mu">
<ellipse fill="none" stroke="#000000" cx="118.29" cy="-306" rx="27" ry="18"/>
<text text-anchor="middle" x="118.29" y="-302.3" font-family="FreeSans" font-size="14.00" fill="#000000">Mu</text>
</a>
</g>
</g>
<!-- Any -->
<g id="node3" class="node">
<title>Any</title>
<g id="a_node3"><a xlink:href="/type/Any" xlink:title="Any">
<ellipse fill="none" stroke="#000000" cx="118.29" cy="-234" rx="27" ry="18"/>
<text text-anchor="middle" x="118.29" y="-230.3" font-family="FreeSans" font-size="14.00" fill="#000000">Any</text>
</a>
</g>
</g>
<!-- Any&#45;&gt;Mu -->
<g id="edge2" class="edge">
<title>Any&#45;&gt;Mu</title>
<path fill="none" stroke="#000000" d="M118.29,-252.3C118.29,-260.02 118.29,-269.29 118.29,-277.89"/>
<polygon fill="#000000" stroke="#000000" points="114.79,-277.9 118.29,-287.9 121.79,-277.9 114.79,-277.9"/>
</g>
<!-- Exception -->
<g id="node4" class="node">
<title>Exception</title>
<g id="a_node4"><a xlink:href="/type/Exception" xlink:title="Exception">
<ellipse fill="none" stroke="#000000" cx="118.29" cy="-162" rx="49.29" ry="18"/>
<text text-anchor="middle" x="118.29" y="-158.3" font-family="FreeSans" font-size="14.00" fill="#000000">Exception</text>
</a>
</g>
</g>
<!-- Exception&#45;&gt;Any -->
<g id="edge3" class="edge">
<title>Exception&#45;&gt;Any</title>
<path fill="none" stroke="#000000" d="M118.29,-180.3C118.29,-188.02 118.29,-197.29 118.29,-205.89"/>
<polygon fill="#000000" stroke="#000000" points="114.79,-205.9 118.29,-215.9 121.79,-205.9 114.79,-205.9"/>
</g>
<!-- X::Numeric::CannotConvert&#45;&gt;Exception -->
<g id="edge4" class="edge">
<title>X::Numeric::CannotConvert&#45;&gt;Exception</title>
<path fill="none" stroke="#000000" d="M118.29,-108.3C118.29,-116.02 118.29,-125.29 118.29,-133.89"/>
<polygon fill="#000000" stroke="#000000" points="114.79,-133.9 118.29,-143.9 121.79,-133.9 114.79,-133.9"/>
</g>
</g>
</svg>
