<?xml version="1.0" encoding="UTF-8" standalone="no"?>
<!DOCTYPE svg PUBLIC "-//W3C//DTD SVG 1.1//EN"
 "http://www.w3.org/Graphics/SVG/1.1/DTD/svg11.dtd">
<!-- Generated by graphviz version 2.43.0 (0)
 -->
<!-- Title: perl6&#45;type&#45;graph Pages: 1 -->
<svg width="228pt" height="332pt"
 viewBox="0.00 0.00 227.89 332.00" xmlns="http://www.w3.org/2000/svg" xmlns:xlink="http://www.w3.org/1999/xlink">
<g id="graph0" class="graph" transform="scale(1 1) rotate(0) translate(4 328)">
<title>perl6&#45;type&#45;graph</title>
<polygon fill="white" stroke="transparent" points="-4,4 -4,-328 223.89,-328 223.89,4 -4,4"/>
<!-- X::NYI -->
<g id="node1" class="node">
<title>X::NYI</title>
<g id="a_node1"><a xlink:href="/type/X::NYI" xlink:title="X::NYI">
<ellipse fill="none" stroke="#000000" cx="37.05" cy="-90" rx="37.09" ry="18"/>
<text text-anchor="middle" x="37.05" y="-86.3" font-family="FreeSans" font-size="14.00" fill="#000000">X::NYI</text>
</a>
</g>
</g>
<!-- Exception -->
<g id="node4" class="node">
<title>Exception</title>
<g id="a_node4"><a xlink:href="/type/Exception" xlink:title="Exception">
<ellipse fill="none" stroke="#000000" cx="102.05" cy="-162" rx="49.29" ry="18"/>
<text text-anchor="middle" x="102.05" y="-158.3" font-family="FreeSans" font-size="14.00" fill="#000000">Exception</text>
</a>
</g>
</g>
<!-- X::NYI&#45;&gt;Exception -->
<g id="edge1" class="edge">
<title>X::NYI&#45;&gt;Exception</title>
<path fill="none" stroke="#000000" d="M51.8,-106.88C60.15,-115.88 70.77,-127.32 80.09,-137.35"/>
<polygon fill="#000000" stroke="#000000" points="77.54,-139.75 86.9,-144.69 82.66,-134.98 77.54,-139.75"/>
</g>
<!-- Mu -->
<g id="node2" class="node">
<title>Mu</title>
<g id="a_node2"><a xlink:href="/type/Mu" xlink:title="Mu">
<ellipse fill="none" stroke="#000000" cx="102.05" cy="-306" rx="27" ry="18"/>
<text text-anchor="middle" x="102.05" y="-302.3" font-family="FreeSans" font-size="14.00" fill="#000000">Mu</text>
</a>
</g>
</g>
<!-- Any -->
<g id="node3" class="node">
<title>Any</title>
<g id="a_node3"><a xlink:href="/type/Any" xlink:title="Any">
<ellipse fill="none" stroke="#000000" cx="102.05" cy="-234" rx="27" ry="18"/>
<text text-anchor="middle" x="102.05" y="-230.3" font-family="FreeSans" font-size="14.00" fill="#000000">Any</text>
</a>
</g>
</g>
<!-- Any&#45;&gt;Mu -->
<g id="edge2" class="edge">
<title>Any&#45;&gt;Mu</title>
<path fill="none" stroke="#000000" d="M102.05,-252.3C102.05,-260.02 102.05,-269.29 102.05,-277.89"/>
<polygon fill="#000000" stroke="#000000" points="98.55,-277.9 102.05,-287.9 105.55,-277.9 98.55,-277.9"/>
</g>
<!-- Exception&#45;&gt;Any -->
<g id="edge3" class="edge">
<title>Exception&#45;&gt;Any</title>
<path fill="none" stroke="#000000" d="M102.05,-180.3C102.05,-188.02 102.05,-197.29 102.05,-205.89"/>
<polygon fill="#000000" stroke="#000000" points="98.55,-205.9 102.05,-215.9 105.55,-205.9 98.55,-205.9"/>
</g>
<!-- X::Comp -->
<g id="node5" class="node">
<title>X::Comp</title>
<g id="a_node5"><a xlink:href="/type/X::Comp" xlink:title="X::Comp">
<ellipse fill="none" stroke="#6666ff" cx="175.05" cy="-90" rx="44.69" ry="18"/>
<text text-anchor="middle" x="175.05" y="-86.3" font-family="FreeSans" font-size="14.00" fill="#6666ff">X::Comp</text>
</a>
</g>
</g>
<!-- X::Comp&#45;&gt;Exception -->
<g id="edge4" class="edge">
<title>X::Comp&#45;&gt;Exception</title>
<path fill="none" stroke="#000000" d="M158.48,-106.88C148.94,-116.04 136.77,-127.71 126.17,-137.87"/>
<polygon fill="#000000" stroke="#000000" points="123.59,-135.49 118.8,-144.94 128.44,-140.54 123.59,-135.49"/>
</g>
<!-- X::Comp::NYI -->
<g id="node6" class="node">
<title>X::Comp::NYI</title>
<g id="a_node6"><a xlink:href="/type/X::Comp::NYI" xlink:title="X::Comp::NYI">
<ellipse fill="none" stroke="#000000" cx="102.05" cy="-18" rx="65.79" ry="18"/>
<text text-anchor="middle" x="102.05" y="-14.3" font-family="FreeSans" font-size="14.00" fill="#000000">X::Comp::NYI</text>
</a>
</g>
</g>
<!-- X::Comp::NYI&#45;&gt;X::NYI -->
<g id="edge5" class="edge">
<title>X::Comp::NYI&#45;&gt;X::NYI</title>
<path fill="none" stroke="#000000" d="M86.64,-35.59C78.35,-44.52 67.98,-55.69 58.87,-65.5"/>
<polygon fill="#000000" stroke="#000000" points="56.13,-63.3 51.89,-73.01 61.26,-68.07 56.13,-63.3"/>
</g>
<!-- X::Comp::NYI&#45;&gt;Exception -->
<g id="edge6" class="edge">
<title>X::Comp::NYI&#45;&gt;Exception</title>
<path fill="none" stroke="#000000" d="M102.05,-36.13C102.05,-60.33 102.05,-104.79 102.05,-133.61"/>
<polygon fill="#000000" stroke="#000000" points="98.55,-133.81 102.05,-143.81 105.55,-133.81 98.55,-133.81"/>
</g>
<!-- X::Comp::NYI&#45;&gt;X::Comp -->
<g id="edge7" class="edge">
<title>X::Comp::NYI&#45;&gt;X::Comp</title>
<path fill="none" stroke="#6666ff" d="M119.35,-35.59C128.85,-44.7 140.77,-56.13 151.15,-66.08"/>
<polygon fill="#6666ff" stroke="#6666ff" points="148.73,-68.62 158.37,-73.01 153.58,-63.56 148.73,-68.62"/>
</g>
</g>
</svg>
