<?xml version="1.0" encoding="UTF-8" standalone="no"?>
<!DOCTYPE svg PUBLIC "-//W3C//DTD SVG 1.1//EN"
 "http://www.w3.org/Graphics/SVG/1.1/DTD/svg11.dtd">
<!-- Generated by graphviz version 2.43.0 (0)
 -->
<!-- Title: perl6&#45;type&#45;graph Pages: 1 -->
<svg width="1817pt" height="404pt"
 viewBox="0.00 0.00 1816.54 404.00" xmlns="http://www.w3.org/2000/svg" xmlns:xlink="http://www.w3.org/1999/xlink">
<g id="graph0" class="graph" transform="scale(1 1) rotate(0) translate(4 400)">
<title>perl6&#45;type&#45;graph</title>
<polygon fill="white" stroke="transparent" points="-4,4 -4,-400 1812.54,-400 1812.54,4 -4,4"/>
<!-- X::OS -->
<g id="node1" class="node">
<title>X::OS</title>
<g id="a_node1"><a xlink:href="/type/X::OS" xlink:title="X::OS">
<ellipse fill="none" stroke="#6666ff" cx="926.95" cy="-162" rx="34.39" ry="18"/>
<text text-anchor="middle" x="926.95" y="-158.3" font-family="FreeSans" font-size="14.00" fill="#6666ff">X::OS</text>
</a>
</g>
</g>
<!-- Exception -->
<g id="node4" class="node">
<title>Exception</title>
<g id="a_node4"><a xlink:href="/type/Exception" xlink:title="Exception">
<ellipse fill="none" stroke="#000000" cx="1053.95" cy="-234" rx="49.29" ry="18"/>
<text text-anchor="middle" x="1053.95" y="-230.3" font-family="FreeSans" font-size="14.00" fill="#000000">Exception</text>
</a>
</g>
</g>
<!-- X::OS&#45;&gt;Exception -->
<g id="edge1" class="edge">
<title>X::OS&#45;&gt;Exception</title>
<path fill="none" stroke="#000000" d="M949.94,-175.68C969.08,-186.23 996.65,-201.42 1018.59,-213.51"/>
<polygon fill="#000000" stroke="#000000" points="1017.16,-216.72 1027.61,-218.48 1020.54,-210.59 1017.16,-216.72"/>
</g>
<!-- Mu -->
<g id="node2" class="node">
<title>Mu</title>
<g id="a_node2"><a xlink:href="/type/Mu" xlink:title="Mu">
<ellipse fill="none" stroke="#000000" cx="1053.95" cy="-378" rx="27" ry="18"/>
<text text-anchor="middle" x="1053.95" y="-374.3" font-family="FreeSans" font-size="14.00" fill="#000000">Mu</text>
</a>
</g>
</g>
<!-- Any -->
<g id="node3" class="node">
<title>Any</title>
<g id="a_node3"><a xlink:href="/type/Any" xlink:title="Any">
<ellipse fill="none" stroke="#000000" cx="1053.95" cy="-306" rx="27" ry="18"/>
<text text-anchor="middle" x="1053.95" y="-302.3" font-family="FreeSans" font-size="14.00" fill="#000000">Any</text>
</a>
</g>
</g>
<!-- Any&#45;&gt;Mu -->
<g id="edge2" class="edge">
<title>Any&#45;&gt;Mu</title>
<path fill="none" stroke="#000000" d="M1053.95,-324.3C1053.95,-332.02 1053.95,-341.29 1053.95,-349.89"/>
<polygon fill="#000000" stroke="#000000" points="1050.45,-349.9 1053.95,-359.9 1057.45,-349.9 1050.45,-349.9"/>
</g>
<!-- Exception&#45;&gt;Any -->
<g id="edge3" class="edge">
<title>Exception&#45;&gt;Any</title>
<path fill="none" stroke="#000000" d="M1053.95,-252.3C1053.95,-260.02 1053.95,-269.29 1053.95,-277.89"/>
<polygon fill="#000000" stroke="#000000" points="1050.45,-277.9 1053.95,-287.9 1057.45,-277.9 1050.45,-277.9"/>
</g>
<!-- X::IO -->
<g id="node5" class="node">
<title>X::IO</title>
<g id="a_node5"><a xlink:href="/type/X::IO" xlink:title="X::IO">
<ellipse fill="none" stroke="#6666ff" cx="913.95" cy="-90" rx="31.4" ry="18"/>
<text text-anchor="middle" x="913.95" y="-86.3" font-family="FreeSans" font-size="14.00" fill="#6666ff">X::IO</text>
</a>
</g>
</g>
<!-- X::IO&#45;&gt;X::OS -->
<g id="edge36" class="edge">
<title>X::IO&#45;&gt;X::OS</title>
<path fill="none" stroke="#6666ff" d="M917.09,-107.95C918.52,-115.65 920.25,-124.97 921.86,-133.64"/>
<polygon fill="#6666ff" stroke="#6666ff" points="918.47,-134.53 923.74,-143.72 925.35,-133.25 918.47,-134.53"/>
</g>
<!-- X::IO&#45;&gt;Exception -->
<g id="edge4" class="edge">
<title>X::IO&#45;&gt;Exception</title>
<path fill="none" stroke="#000000" d="M904.62,-107.48C895.81,-123.04 883.95,-144 883.95,-144 883.95,-144 883.95,-180 883.95,-180 883.95,-180 957.4,-202.9 1007.74,-218.6"/>
<polygon fill="#000000" stroke="#000000" points="1006.89,-222 1017.48,-221.63 1008.97,-215.31 1006.89,-222"/>
</g>
<!-- X::IO::Cwd -->
<g id="node6" class="node">
<title>X::IO::Cwd</title>
<g id="a_node6"><a xlink:href="/type/X::IO::Cwd" xlink:title="X::IO::Cwd">
<ellipse fill="none" stroke="#000000" cx="53.95" cy="-18" rx="53.89" ry="18"/>
<text text-anchor="middle" x="53.95" y="-14.3" font-family="FreeSans" font-size="14.00" fill="#000000">X::IO::Cwd</text>
</a>
</g>
</g>
<!-- X::IO::Cwd&#45;&gt;Exception -->
<g id="edge5" class="edge">
<title>X::IO::Cwd&#45;&gt;Exception</title>
<path fill="none" stroke="#000000" d="M88.82,-31.77C199.38,-69.85 533.95,-180 533.95,-180 533.95,-180 861.34,-213.96 996.63,-227.51"/>
<polygon fill="#000000" stroke="#000000" points="996.51,-231.02 1006.8,-228.53 997.2,-224.05 996.51,-231.02"/>
</g>
<!-- X::IO::Cwd&#45;&gt;Exception -->
<g id="edge6" class="edge">
<title>X::IO::Cwd&#45;&gt;Exception</title>
<path fill="none" stroke="#000000" d="M92.86,-30.58C210.24,-67.49 551.95,-180 551.95,-180 551.95,-180 865.61,-212.53 997.12,-226.62"/>
<polygon fill="#000000" stroke="#000000" points="997.07,-230.14 1007.39,-227.72 997.82,-223.18 997.07,-230.14"/>
</g>
<!-- X::IO::Cwd&#45;&gt;X::IO -->
<g id="edge37" class="edge">
<title>X::IO::Cwd&#45;&gt;X::IO</title>
<path fill="none" stroke="#6666ff" d="M94.26,-30.05C106.1,-33.3 115.95,-36 115.95,-36 115.95,-36 710.12,-75.46 873.05,-86.28"/>
<polygon fill="#6666ff" stroke="#6666ff" points="872.94,-89.78 883.15,-86.95 873.41,-82.8 872.94,-89.78"/>
</g>
<!-- X::IO::Copy -->
<g id="node7" class="node">
<title>X::IO::Copy</title>
<g id="a_node7"><a xlink:href="/type/X::IO::Copy" xlink:title="X::IO::Copy">
<ellipse fill="none" stroke="#000000" cx="181.95" cy="-18" rx="56.59" ry="18"/>
<text text-anchor="middle" x="181.95" y="-14.3" font-family="FreeSans" font-size="14.00" fill="#000000">X::IO::Copy</text>
</a>
</g>
</g>
<!-- X::IO::Copy&#45;&gt;Exception -->
<g id="edge7" class="edge">
<title>X::IO::Copy&#45;&gt;Exception</title>
<path fill="none" stroke="#000000" d="M216.42,-32.31C322.8,-70.89 637.95,-180 637.95,-180 637.95,-180 883.87,-212.02 997.62,-226.29"/>
<polygon fill="#000000" stroke="#000000" points="997.19,-229.76 1007.54,-227.53 998.06,-222.81 997.19,-229.76"/>
</g>
<!-- X::IO::Copy&#45;&gt;Exception -->
<g id="edge8" class="edge">
<title>X::IO::Copy&#45;&gt;Exception</title>
<path fill="none" stroke="#000000" d="M221.11,-31.23C334.79,-68.81 655.95,-180 655.95,-180 655.95,-180 889.08,-210.36 998.55,-225.12"/>
<polygon fill="#000000" stroke="#000000" points="998.37,-228.63 1008.75,-226.5 999.31,-221.69 998.37,-228.63"/>
</g>
<!-- X::IO::Copy&#45;&gt;X::IO -->
<g id="edge38" class="edge">
<title>X::IO::Copy&#45;&gt;X::IO</title>
<path fill="none" stroke="#6666ff" d="M224.21,-30.05C236.63,-33.3 246.95,-36 246.95,-36 246.95,-36 727.58,-74.19 872.85,-85.73"/>
<polygon fill="#6666ff" stroke="#6666ff" points="872.87,-89.25 883.11,-86.55 873.42,-82.27 872.87,-89.25"/>
</g>
<!-- X::IO::DoesNotExist -->
<g id="node8" class="node">
<title>X::IO::DoesNotExist</title>
<g id="a_node8"><a xlink:href="/type/X::IO::DoesNotExist" xlink:title="X::IO::DoesNotExist">
<ellipse fill="none" stroke="#000000" cx="345.95" cy="-18" rx="89.88" ry="18"/>
<text text-anchor="middle" x="345.95" y="-14.3" font-family="FreeSans" font-size="14.00" fill="#000000">X::IO::DoesNotExist</text>
</a>
</g>
</g>
<!-- X::IO::DoesNotExist&#45;&gt;Exception -->
<g id="edge9" class="edge">
<title>X::IO::DoesNotExist&#45;&gt;Exception</title>
<path fill="none" stroke="#000000" d="M379.68,-34.73C472.83,-75.24 725.95,-180 725.95,-180 725.95,-180 905.48,-209.83 998.97,-224.73"/>
<polygon fill="#000000" stroke="#000000" points="998.68,-228.23 1009.11,-226.34 999.78,-221.32 998.68,-228.23"/>
</g>
<!-- X::IO::DoesNotExist&#45;&gt;Exception -->
<g id="edge10" class="edge">
<title>X::IO::DoesNotExist&#45;&gt;Exception</title>
<path fill="none" stroke="#000000" d="M386.75,-34.15C488.38,-74.23 743.95,-180 743.95,-180 743.95,-180 912.49,-208 1001.1,-223.3"/>
<polygon fill="#000000" stroke="#000000" points="1000.52,-226.75 1010.97,-225.01 1001.71,-219.85 1000.52,-226.75"/>
</g>
<!-- X::IO::DoesNotExist&#45;&gt;X::IO -->
<g id="edge39" class="edge">
<title>X::IO::DoesNotExist&#45;&gt;X::IO</title>
<path fill="none" stroke="#6666ff" d="M411.7,-30.29C429.99,-33.43 444.95,-36 444.95,-36 444.95,-36 759.65,-71.56 873.48,-84.43"/>
<polygon fill="#6666ff" stroke="#6666ff" points="873.2,-87.92 883.53,-85.56 873.99,-80.96 873.2,-87.92"/>
</g>
<!-- X::IO::Dir -->
<g id="node9" class="node">
<title>X::IO::Dir</title>
<g id="a_node9"><a xlink:href="/type/X::IO::Dir" xlink:title="X::IO::Dir">
<ellipse fill="none" stroke="#000000" cx="500.95" cy="-18" rx="47.39" ry="18"/>
<text text-anchor="middle" x="500.95" y="-14.3" font-family="FreeSans" font-size="14.00" fill="#000000">X::IO::Dir</text>
</a>
</g>
</g>
<!-- X::IO::Dir&#45;&gt;Exception -->
<g id="edge11" class="edge">
<title>X::IO::Dir&#45;&gt;Exception</title>
<path fill="none" stroke="#000000" d="M524.74,-33.86C594.92,-73.71 794.95,-180 794.95,-180 794.95,-180 925.43,-207.66 1001.25,-223.02"/>
<polygon fill="#000000" stroke="#000000" points="1000.62,-226.46 1011.12,-225.01 1002.01,-219.6 1000.62,-226.46"/>
</g>
<!-- X::IO::Dir&#45;&gt;Exception -->
<g id="edge12" class="edge">
<title>X::IO::Dir&#45;&gt;Exception</title>
<path fill="none" stroke="#000000" d="M529.98,-32.31C607.59,-70.89 812.95,-180 812.95,-180 812.95,-180 933.16,-205.49 1003.86,-221.11"/>
<polygon fill="#000000" stroke="#000000" points="1003.4,-224.59 1013.92,-223.34 1004.91,-217.76 1003.4,-224.59"/>
</g>
<!-- X::IO::Dir&#45;&gt;X::IO -->
<g id="edge40" class="edge">
<title>X::IO::Dir&#45;&gt;X::IO</title>
<path fill="none" stroke="#6666ff" d="M536.73,-29.86C547.7,-33.19 556.95,-36 556.95,-36 556.95,-36 780.74,-69.22 873.95,-83.06"/>
<polygon fill="#6666ff" stroke="#6666ff" points="873.72,-86.57 884.12,-84.57 874.74,-79.64 873.72,-86.57"/>
</g>
<!-- X::IO::Rename -->
<g id="node10" class="node">
<title>X::IO::Rename</title>
<g id="a_node10"><a xlink:href="/type/X::IO::Rename" xlink:title="X::IO::Rename">
<ellipse fill="none" stroke="#000000" cx="635.95" cy="-18" rx="69.59" ry="18"/>
<text text-anchor="middle" x="635.95" y="-14.3" font-family="FreeSans" font-size="14.00" fill="#000000">X::IO::Rename</text>
</a>
</g>
</g>
<!-- X::IO::Rename&#45;&gt;Exception -->
<g id="edge13" class="edge">
<title>X::IO::Rename&#45;&gt;Exception</title>
<path fill="none" stroke="#000000" d="M654.18,-35.62C705.51,-76.76 845.95,-180 845.95,-180 845.95,-180 941.74,-205.51 1003.4,-221.14"/>
<polygon fill="#000000" stroke="#000000" points="1002.81,-224.6 1013.36,-223.65 1004.52,-217.81 1002.81,-224.6"/>
</g>
<!-- X::IO::Rename&#45;&gt;Exception -->
<g id="edge14" class="edge">
<title>X::IO::Rename&#45;&gt;Exception</title>
<path fill="none" stroke="#000000" d="M661.62,-34.73C721.45,-75.24 863.95,-180 863.95,-180 863.95,-180 951.5,-203.32 1007.83,-219.02"/>
<polygon fill="#000000" stroke="#000000" points="1007.04,-222.43 1017.61,-221.76 1008.93,-215.69 1007.04,-222.43"/>
</g>
<!-- X::IO::Rename&#45;&gt;X::IO -->
<g id="edge41" class="edge">
<title>X::IO::Rename&#45;&gt;X::IO</title>
<path fill="none" stroke="#6666ff" d="M684.05,-31.11C738.57,-44.84 826.32,-66.94 876.15,-79.48"/>
<polygon fill="#6666ff" stroke="#6666ff" points="875.34,-82.89 885.89,-81.94 877.05,-76.1 875.34,-82.89"/>
</g>
<!-- X::IO::Move -->
<g id="node11" class="node">
<title>X::IO::Move</title>
<g id="a_node11"><a xlink:href="/type/X::IO::Move" xlink:title="X::IO::Move">
<ellipse fill="none" stroke="#000000" cx="780.95" cy="-18" rx="57.69" ry="18"/>
<text text-anchor="middle" x="780.95" y="-14.3" font-family="FreeSans" font-size="14.00" fill="#000000">X::IO::Move</text>
</a>
</g>
</g>
<!-- X::IO::Move&#45;&gt;Exception -->
<g id="edge15" class="edge">
<title>X::IO::Move&#45;&gt;Exception</title>
<path fill="none" stroke="#000000" d="M786.94,-35.93C807.77,-77.26 870.95,-180 870.95,-180 870.95,-180 950.61,-204.27 1004.92,-219.96"/>
<polygon fill="#000000" stroke="#000000" points="1004.16,-223.38 1014.74,-222.78 1006.09,-216.65 1004.16,-223.38"/>
</g>
<!-- X::IO::Move&#45;&gt;Exception -->
<g id="edge16" class="edge">
<title>X::IO::Move&#45;&gt;Exception</title>
<path fill="none" stroke="#000000" d="M795.55,-35.62C825.46,-76.76 888.95,-180 888.95,-180 888.95,-180 961.34,-202.05 1010.32,-217.71"/>
<polygon fill="#000000" stroke="#000000" points="1009.49,-221.11 1020.08,-220.84 1011.63,-214.45 1009.49,-221.11"/>
</g>
<!-- X::IO::Move&#45;&gt;X::IO -->
<g id="edge42" class="edge">
<title>X::IO::Move&#45;&gt;X::IO</title>
<path fill="none" stroke="#6666ff" d="M809.15,-33.85C830.64,-45.15 860.21,-60.72 882.46,-72.43"/>
<polygon fill="#6666ff" stroke="#6666ff" points="881.03,-75.63 891.51,-77.19 884.29,-69.44 881.03,-75.63"/>
</g>
<!-- X::IO::Chdir -->
<g id="node12" class="node">
<title>X::IO::Chdir</title>
<g id="a_node12"><a xlink:href="/type/X::IO::Chdir" xlink:title="X::IO::Chdir">
<ellipse fill="none" stroke="#000000" cx="913.95" cy="-18" rx="57.39" ry="18"/>
<text text-anchor="middle" x="913.95" y="-14.3" font-family="FreeSans" font-size="14.00" fill="#000000">X::IO::Chdir</text>
</a>
</g>
</g>
<!-- X::IO::Chdir&#45;&gt;Exception -->
<g id="edge17" class="edge">
<title>X::IO::Chdir&#45;&gt;Exception</title>
<path fill="none" stroke="#000000" d="M919.98,-36.06C929.51,-51.55 944.95,-72 944.95,-72 944.95,-72 1001.58,-163.18 1033.44,-208.31"/>
<polygon fill="#000000" stroke="#000000" points="1030.78,-210.6 1039.46,-216.68 1036.47,-206.51 1030.78,-210.6"/>
</g>
<!-- X::IO::Chdir&#45;&gt;Exception -->
<g id="edge18" class="edge">
<title>X::IO::Chdir&#45;&gt;Exception</title>
<path fill="none" stroke="#000000" d="M932.88,-35.19C946.93,-50.78 962.95,-72 962.95,-72 962.95,-72 1018.56,-161.55 1043.11,-207.08"/>
<polygon fill="#000000" stroke="#000000" points="1040.09,-208.85 1047.84,-216.07 1046.29,-205.59 1040.09,-208.85"/>
</g>
<!-- X::IO::Chdir&#45;&gt;X::IO -->
<g id="edge43" class="edge">
<title>X::IO::Chdir&#45;&gt;X::IO</title>
<path fill="none" stroke="#6666ff" d="M913.95,-36.3C913.95,-44.02 913.95,-53.29 913.95,-61.89"/>
<polygon fill="#6666ff" stroke="#6666ff" points="910.45,-61.9 913.95,-71.9 917.45,-61.9 910.45,-61.9"/>
</g>
<!-- X::IO::Chmod -->
<g id="node13" class="node">
<title>X::IO::Chmod</title>
<g id="a_node13"><a xlink:href="/type/X::IO::Chmod" xlink:title="X::IO::Chmod">
<ellipse fill="none" stroke="#000000" cx="1053.95" cy="-18" rx="64.19" ry="18"/>
<text text-anchor="middle" x="1053.95" y="-14.3" font-family="FreeSans" font-size="14.00" fill="#000000">X::IO::Chmod</text>
</a>
</g>
</g>
<!-- X::IO::Chmod&#45;&gt;Exception -->
<g id="edge19" class="edge">
<title>X::IO::Chmod&#45;&gt;Exception</title>
<path fill="none" stroke="#000000" d="M1050.07,-36.15C1046.53,-73.17 1046.26,-160.82 1049.25,-205.61"/>
<polygon fill="#000000" stroke="#000000" points="1045.78,-206.08 1050.06,-215.77 1052.76,-205.52 1045.78,-206.08"/>
</g>
<!-- X::IO::Chmod&#45;&gt;Exception -->
<g id="edge20" class="edge">
<title>X::IO::Chmod&#45;&gt;Exception</title>
<path fill="none" stroke="#000000" d="M1057.82,-36.15C1061.36,-73.17 1061.63,-160.82 1058.64,-205.61"/>
<polygon fill="#000000" stroke="#000000" points="1055.13,-205.52 1057.83,-215.77 1062.11,-206.08 1055.13,-205.52"/>
</g>
<!-- X::IO::Chmod&#45;&gt;X::IO -->
<g id="edge44" class="edge">
<title>X::IO::Chmod&#45;&gt;X::IO</title>
<path fill="none" stroke="#6666ff" d="M1023.91,-34.02C1001.03,-45.46 969.59,-61.18 946.18,-72.88"/>
<polygon fill="#6666ff" stroke="#6666ff" points="944.39,-69.87 937.01,-77.47 947.52,-76.13 944.39,-69.87"/>
</g>
<!-- X::IO::Mkdir -->
<g id="node14" class="node">
<title>X::IO::Mkdir</title>
<g id="a_node14"><a xlink:href="/type/X::IO::Mkdir" xlink:title="X::IO::Mkdir">
<ellipse fill="none" stroke="#000000" cx="1194.95" cy="-18" rx="58.49" ry="18"/>
<text text-anchor="middle" x="1194.95" y="-14.3" font-family="FreeSans" font-size="14.00" fill="#000000">X::IO::Mkdir</text>
</a>
</g>
</g>
<!-- X::IO::Mkdir&#45;&gt;Exception -->
<g id="edge21" class="edge">
<title>X::IO::Mkdir&#45;&gt;Exception</title>
<path fill="none" stroke="#000000" d="M1176.5,-35.44C1144.9,-72.37 1085.2,-162.16 1061.96,-206.85"/>
<polygon fill="#000000" stroke="#000000" points="1058.77,-205.4 1057.46,-215.91 1065.04,-208.51 1058.77,-205.4"/>
</g>
<!-- X::IO::Mkdir&#45;&gt;Exception -->
<g id="edge22" class="edge">
<title>X::IO::Mkdir&#45;&gt;Exception</title>
<path fill="none" stroke="#000000" d="M1183.88,-35.79C1159.22,-73.22 1099.64,-163.65 1070.52,-207.84"/>
<polygon fill="#000000" stroke="#000000" points="1067.54,-206.01 1064.96,-216.29 1073.38,-209.86 1067.54,-206.01"/>
</g>
<!-- X::IO::Mkdir&#45;&gt;Exception -->
<g id="edge23" class="edge">
<title>X::IO::Mkdir&#45;&gt;Exception</title>
<path fill="none" stroke="#000000" d="M1191.4,-36.15C1173.61,-74.17 1113.76,-165.59 1078.55,-209.14"/>
<polygon fill="#000000" stroke="#000000" points="1075.77,-207.02 1072.07,-216.94 1081.15,-211.49 1075.77,-207.02"/>
</g>
<!-- X::IO::Mkdir&#45;&gt;X::IO -->
<g id="edge45" class="edge">
<title>X::IO::Mkdir&#45;&gt;X::IO</title>
<path fill="none" stroke="#6666ff" d="M1151.11,-29.96C1137.95,-33.25 1126.95,-36 1126.95,-36 1126.95,-36 1013.19,-64.31 951.94,-79.55"/>
<polygon fill="#6666ff" stroke="#6666ff" points="951.09,-76.15 942.23,-81.96 952.78,-82.94 951.09,-76.15"/>
</g>
<!-- X::IO::Link -->
<g id="node15" class="node">
<title>X::IO::Link</title>
<g id="a_node15"><a xlink:href="/type/X::IO::Link" xlink:title="X::IO::Link">
<ellipse fill="none" stroke="#000000" cx="1324.95" cy="-18" rx="53.09" ry="18"/>
<text text-anchor="middle" x="1324.95" y="-14.3" font-family="FreeSans" font-size="14.00" fill="#000000">X::IO::Link</text>
</a>
</g>
</g>
<!-- X::IO::Link&#45;&gt;Exception -->
<g id="edge24" class="edge">
<title>X::IO::Link&#45;&gt;Exception</title>
<path fill="none" stroke="#000000" d="M1298.97,-33.86C1242.04,-73.71 1115.95,-180 1115.95,-180 1115.95,-180 1092.23,-195.71 1073.53,-210.02"/>
<polygon fill="#000000" stroke="#000000" points="1071.34,-207.29 1065.65,-216.23 1075.67,-212.79 1071.34,-207.29"/>
</g>
<!-- X::IO::Link&#45;&gt;Exception -->
<g id="edge25" class="edge">
<title>X::IO::Link&#45;&gt;Exception</title>
<path fill="none" stroke="#000000" d="M1305.93,-35.03C1257.62,-75.75 1133.95,-180 1133.95,-180 1133.95,-180 1107.5,-197.52 1085.01,-212.42"/>
<polygon fill="#000000" stroke="#000000" points="1083.06,-209.51 1076.66,-217.95 1086.93,-215.35 1083.06,-209.51"/>
</g>
<!-- X::IO::Link&#45;&gt;Exception -->
<g id="edge26" class="edge">
<title>X::IO::Link&#45;&gt;Exception</title>
<path fill="none" stroke="#000000" d="M1313.98,-35.62C1274.42,-76.76 1151.95,-180 1151.95,-180 1151.95,-180 1121.85,-199.94 1094.43,-215.35"/>
<polygon fill="#000000" stroke="#000000" points="1092.74,-212.29 1085.66,-220.17 1096.11,-218.42 1092.74,-212.29"/>
</g>
<!-- X::IO::Link&#45;&gt;X::IO -->
<g id="edge46" class="edge">
<title>X::IO::Link&#45;&gt;X::IO</title>
<path fill="none" stroke="#6666ff" d="M1284.69,-29.86C1272.34,-33.19 1261.95,-36 1261.95,-36 1261.95,-36 1045.35,-68.99 953.91,-82.91"/>
<polygon fill="#6666ff" stroke="#6666ff" points="953.28,-79.47 943.92,-84.44 954.33,-86.39 953.28,-79.47"/>
</g>
<!-- X::IO::Unlink -->
<g id="node16" class="node">
<title>X::IO::Unlink</title>
<g id="a_node16"><a xlink:href="/type/X::IO::Unlink" xlink:title="X::IO::Unlink">
<ellipse fill="none" stroke="#000000" cx="1456.95" cy="-18" rx="61.19" ry="18"/>
<text text-anchor="middle" x="1456.95" y="-14.3" font-family="FreeSans" font-size="14.00" fill="#000000">X::IO::Unlink</text>
</a>
</g>
</g>
<!-- X::IO::Unlink&#45;&gt;Exception -->
<g id="edge27" class="edge">
<title>X::IO::Unlink&#45;&gt;Exception</title>
<path fill="none" stroke="#000000" d="M1424.51,-33.43C1348.48,-72.95 1168.95,-180 1168.95,-180 1168.95,-180 1121.66,-198.84 1087.29,-214.06"/>
<polygon fill="#000000" stroke="#000000" points="1085.68,-210.95 1077.99,-218.24 1088.55,-217.33 1085.68,-210.95"/>
</g>
<!-- X::IO::Unlink&#45;&gt;Exception -->
<g id="edge28" class="edge">
<title>X::IO::Unlink&#45;&gt;Exception</title>
<path fill="none" stroke="#000000" d="M1431.06,-34.44C1363.48,-74.73 1186.95,-180 1186.95,-180 1186.95,-180 1134.73,-200.81 1095.73,-216.35"/>
<polygon fill="#000000" stroke="#000000" points="1094.13,-213.22 1086.14,-220.17 1096.73,-219.72 1094.13,-213.22"/>
</g>
<!-- X::IO::Unlink&#45;&gt;Exception -->
<g id="edge29" class="edge">
<title>X::IO::Unlink&#45;&gt;Exception</title>
<path fill="none" stroke="#000000" d="M1438.26,-35.32C1378.93,-76.25 1204.95,-180 1204.95,-180 1204.95,-180 1146.28,-203.38 1101.6,-219.08"/>
<polygon fill="#000000" stroke="#000000" points="1100.32,-215.82 1092.02,-222.4 1102.61,-222.43 1100.32,-215.82"/>
</g>
<!-- X::IO::Unlink&#45;&gt;X::IO -->
<g id="edge47" class="edge">
<title>X::IO::Unlink&#45;&gt;X::IO</title>
<path fill="none" stroke="#6666ff" d="M1411.43,-30.05C1398.06,-33.3 1386.95,-36 1386.95,-36 1386.95,-36 1068.82,-71.65 954.36,-84.47"/>
<polygon fill="#6666ff" stroke="#6666ff" points="953.8,-81.01 944.25,-85.6 954.58,-87.97 953.8,-81.01"/>
</g>
<!-- X::IO::Rmdir -->
<g id="node17" class="node">
<title>X::IO::Rmdir</title>
<g id="a_node17"><a xlink:href="/type/X::IO::Rmdir" xlink:title="X::IO::Rmdir">
<ellipse fill="none" stroke="#000000" cx="1595.95" cy="-18" rx="59.59" ry="18"/>
<text text-anchor="middle" x="1595.95" y="-14.3" font-family="FreeSans" font-size="14.00" fill="#000000">X::IO::Rmdir</text>
</a>
</g>
</g>
<!-- X::IO::Rmdir&#45;&gt;Exception -->
<g id="edge30" class="edge">
<title>X::IO::Rmdir&#45;&gt;Exception</title>
<path fill="none" stroke="#000000" d="M1559.3,-32.31C1466.12,-70.89 1230.95,-180 1230.95,-180 1230.95,-180 1150.06,-201.98 1097.29,-217.63"/>
<polygon fill="#000000" stroke="#000000" points="1096.04,-214.35 1087.46,-220.57 1098.05,-221.06 1096.04,-214.35"/>
</g>
<!-- X::IO::Rmdir&#45;&gt;Exception -->
<g id="edge31" class="edge">
<title>X::IO::Rmdir&#45;&gt;Exception</title>
<path fill="none" stroke="#000000" d="M1564.85,-33.43C1479.67,-72.95 1248.95,-180 1248.95,-180 1248.95,-180 1159.9,-204.2 1102.16,-219.9"/>
<polygon fill="#000000" stroke="#000000" points="1101.2,-216.53 1092.47,-222.53 1103.04,-223.28 1101.2,-216.53"/>
</g>
<!-- X::IO::Rmdir&#45;&gt;Exception -->
<g id="edge32" class="edge">
<title>X::IO::Rmdir&#45;&gt;Exception</title>
<path fill="none" stroke="#000000" d="M1571.16,-34.44C1493.82,-74.73 1266.95,-180 1266.95,-180 1266.95,-180 1169.65,-206.44 1106.17,-221.97"/>
<polygon fill="#000000" stroke="#000000" points="1105.19,-218.61 1096.29,-224.37 1106.84,-225.41 1105.19,-218.61"/>
</g>
<!-- X::IO::Rmdir&#45;&gt;X::IO -->
<g id="edge48" class="edge">
<title>X::IO::Rmdir&#45;&gt;X::IO</title>
<path fill="none" stroke="#6666ff" d="M1551.08,-30.05C1537.9,-33.3 1526.95,-36 1526.95,-36 1526.95,-36 1092.03,-73.6 954.86,-85.46"/>
<polygon fill="#6666ff" stroke="#6666ff" points="954.43,-81.99 944.76,-86.34 955.03,-88.96 954.43,-81.99"/>
</g>
<!-- X::IO::Symlink -->
<g id="node18" class="node">
<title>X::IO::Symlink</title>
<g id="a_node18"><a xlink:href="/type/X::IO::Symlink" xlink:title="X::IO::Symlink">
<ellipse fill="none" stroke="#000000" cx="1740.95" cy="-18" rx="67.69" ry="18"/>
<text text-anchor="middle" x="1740.95" y="-14.3" font-family="FreeSans" font-size="14.00" fill="#000000">X::IO::Symlink</text>
</a>
</g>
</g>
<!-- X::IO::Symlink&#45;&gt;Exception -->
<g id="edge33" class="edge">
<title>X::IO::Symlink&#45;&gt;Exception</title>
<path fill="none" stroke="#000000" d="M1698.49,-32.18C1587.63,-70.63 1300.95,-180 1300.95,-180 1300.95,-180 1175.39,-205.11 1103,-220.76"/>
<polygon fill="#000000" stroke="#000000" points="1102.18,-217.36 1093.15,-222.91 1103.67,-224.2 1102.18,-217.36"/>
</g>
<!-- X::IO::Symlink&#45;&gt;Exception -->
<g id="edge34" class="edge">
<title>X::IO::Symlink&#45;&gt;Exception</title>
<path fill="none" stroke="#000000" d="M1703.87,-33.15C1600.89,-72.43 1318.95,-180 1318.95,-180 1318.95,-180 1183.48,-207.09 1106.26,-222.54"/>
<polygon fill="#000000" stroke="#000000" points="1105.35,-219.15 1096.23,-224.54 1106.72,-226.01 1105.35,-219.15"/>
</g>
<!-- X::IO::Symlink&#45;&gt;Exception -->
<g id="edge35" class="edge">
<title>X::IO::Symlink&#45;&gt;Exception</title>
<path fill="none" stroke="#000000" d="M1709.66,-34.15C1614.19,-74.23 1336.95,-180 1336.95,-180 1336.95,-180 1191.23,-209.14 1108.56,-224.21"/>
<polygon fill="#000000" stroke="#000000" points="1107.78,-220.79 1098.57,-226.02 1109.03,-227.68 1107.78,-220.79"/>
</g>
<!-- X::IO::Symlink&#45;&gt;X::IO -->
<g id="edge49" class="edge">
<title>X::IO::Symlink&#45;&gt;X::IO</title>
<path fill="none" stroke="#6666ff" d="M1690.68,-30.24C1676.54,-33.41 1664.95,-36 1664.95,-36 1664.95,-36 1111.81,-75.04 954.96,-86.11"/>
<polygon fill="#6666ff" stroke="#6666ff" points="954.51,-82.63 944.79,-86.82 955.01,-89.61 954.51,-82.63"/>
</g>
</g>
</svg>
