<?xml version="1.0" encoding="UTF-8" standalone="no"?>
<!DOCTYPE svg PUBLIC "-//W3C//DTD SVG 1.1//EN"
 "http://www.w3.org/Graphics/SVG/1.1/DTD/svg11.dtd">
<!-- Generated by graphviz version 2.43.0 (0)
 -->
<!-- Title: perl6&#45;type&#45;graph Pages: 1 -->
<svg width="233pt" height="332pt"
 viewBox="0.00 0.00 232.88 332.00" xmlns="http://www.w3.org/2000/svg" xmlns:xlink="http://www.w3.org/1999/xlink">
<g id="graph0" class="graph" transform="scale(1 1) rotate(0) translate(4 328)">
<title>perl6&#45;type&#45;graph</title>
<polygon fill="white" stroke="transparent" points="-4,4 -4,-328 228.88,-328 228.88,4 -4,4"/>
<!-- X::Parameter::InvalidType -->
<g id="node1" class="node">
<title>X::Parameter::InvalidType</title>
<g id="a_node1"><a xlink:href="/type/X::Parameter::InvalidType" xlink:title="X::Parameter::InvalidType">
<ellipse fill="none" stroke="#000000" cx="112.44" cy="-18" rx="112.38" ry="18"/>
<text text-anchor="middle" x="112.44" y="-14.3" font-family="FreeSans" font-size="14.00" fill="#000000">X::Parameter::InvalidType</text>
</a>
</g>
</g>
<!-- Exception -->
<g id="node4" class="node">
<title>Exception</title>
<g id="a_node4"><a xlink:href="/type/Exception" xlink:title="Exception">
<ellipse fill="none" stroke="#000000" cx="112.44" cy="-162" rx="49.29" ry="18"/>
<text text-anchor="middle" x="112.44" y="-158.3" font-family="FreeSans" font-size="14.00" fill="#000000">Exception</text>
</a>
</g>
</g>
<!-- X::Parameter::InvalidType&#45;&gt;Exception -->
<g id="edge1" class="edge">
<title>X::Parameter::InvalidType&#45;&gt;Exception</title>
<path fill="none" stroke="#000000" d="M106.97,-36.06C102,-51.55 95.44,-72 95.44,-72 95.44,-72 95.44,-108 95.44,-108 95.44,-108 99.6,-120.98 103.81,-134.1"/>
<polygon fill="#000000" stroke="#000000" points="100.58,-135.49 106.97,-143.94 107.25,-133.35 100.58,-135.49"/>
</g>
<!-- X::Comp -->
<g id="node5" class="node">
<title>X::Comp</title>
<g id="a_node5"><a xlink:href="/type/X::Comp" xlink:title="X::Comp">
<ellipse fill="none" stroke="#6666ff" cx="149.44" cy="-90" rx="44.69" ry="18"/>
<text text-anchor="middle" x="149.44" y="-86.3" font-family="FreeSans" font-size="14.00" fill="#6666ff">X::Comp</text>
</a>
</g>
</g>
<!-- X::Parameter::InvalidType&#45;&gt;X::Comp -->
<g id="edge5" class="edge">
<title>X::Parameter::InvalidType&#45;&gt;X::Comp</title>
<path fill="none" stroke="#6666ff" d="M121.4,-35.95C125.71,-44.11 130.99,-54.09 135.79,-63.18"/>
<polygon fill="#6666ff" stroke="#6666ff" points="132.8,-65.01 140.57,-72.21 138.99,-61.73 132.8,-65.01"/>
</g>
<!-- Mu -->
<g id="node2" class="node">
<title>Mu</title>
<g id="a_node2"><a xlink:href="/type/Mu" xlink:title="Mu">
<ellipse fill="none" stroke="#000000" cx="112.44" cy="-306" rx="27" ry="18"/>
<text text-anchor="middle" x="112.44" y="-302.3" font-family="FreeSans" font-size="14.00" fill="#000000">Mu</text>
</a>
</g>
</g>
<!-- Any -->
<g id="node3" class="node">
<title>Any</title>
<g id="a_node3"><a xlink:href="/type/Any" xlink:title="Any">
<ellipse fill="none" stroke="#000000" cx="112.44" cy="-234" rx="27" ry="18"/>
<text text-anchor="middle" x="112.44" y="-230.3" font-family="FreeSans" font-size="14.00" fill="#000000">Any</text>
</a>
</g>
</g>
<!-- Any&#45;&gt;Mu -->
<g id="edge2" class="edge">
<title>Any&#45;&gt;Mu</title>
<path fill="none" stroke="#000000" d="M112.44,-252.3C112.44,-260.02 112.44,-269.29 112.44,-277.89"/>
<polygon fill="#000000" stroke="#000000" points="108.94,-277.9 112.44,-287.9 115.94,-277.9 108.94,-277.9"/>
</g>
<!-- Exception&#45;&gt;Any -->
<g id="edge3" class="edge">
<title>Exception&#45;&gt;Any</title>
<path fill="none" stroke="#000000" d="M112.44,-180.3C112.44,-188.02 112.44,-197.29 112.44,-205.89"/>
<polygon fill="#000000" stroke="#000000" points="108.94,-205.9 112.44,-215.9 115.94,-205.9 108.94,-205.9"/>
</g>
<!-- X::Comp&#45;&gt;Exception -->
<g id="edge4" class="edge">
<title>X::Comp&#45;&gt;Exception</title>
<path fill="none" stroke="#000000" d="M140.48,-107.95C136.17,-116.11 130.89,-126.09 126.09,-135.18"/>
<polygon fill="#000000" stroke="#000000" points="122.89,-133.73 121.31,-144.21 129.08,-137.01 122.89,-133.73"/>
</g>
</g>
</svg>
