<?xml version="1.0" encoding="UTF-8" standalone="no"?>
<!DOCTYPE svg PUBLIC "-//W3C//DTD SVG 1.1//EN"
 "http://www.w3.org/Graphics/SVG/1.1/DTD/svg11.dtd">
<!-- Generated by graphviz version 2.43.0 (0)
 -->
<!-- Title: perl6&#45;type&#45;graph Pages: 1 -->
<svg width="198pt" height="332pt"
 viewBox="0.00 0.00 197.78 332.00" xmlns="http://www.w3.org/2000/svg" xmlns:xlink="http://www.w3.org/1999/xlink">
<g id="graph0" class="graph" transform="scale(1 1) rotate(0) translate(4 328)">
<title>perl6&#45;type&#45;graph</title>
<polygon fill="white" stroke="transparent" points="-4,4 -4,-328 193.78,-328 193.78,4 -4,4"/>
<!-- X::Parameter::Default -->
<g id="node1" class="node">
<title>X::Parameter::Default</title>
<g id="a_node1"><a xlink:href="/type/X::Parameter::Default" xlink:title="X::Parameter::Default">
<ellipse fill="none" stroke="#000000" cx="94.89" cy="-18" rx="94.78" ry="18"/>
<text text-anchor="middle" x="94.89" y="-14.3" font-family="FreeSans" font-size="14.00" fill="#000000">X::Parameter::Default</text>
</a>
</g>
</g>
<!-- Exception -->
<g id="node4" class="node">
<title>Exception</title>
<g id="a_node4"><a xlink:href="/type/Exception" xlink:title="Exception">
<ellipse fill="none" stroke="#000000" cx="94.89" cy="-162" rx="49.29" ry="18"/>
<text text-anchor="middle" x="94.89" y="-158.3" font-family="FreeSans" font-size="14.00" fill="#000000">Exception</text>
</a>
</g>
</g>
<!-- X::Parameter::Default&#45;&gt;Exception -->
<g id="edge1" class="edge">
<title>X::Parameter::Default&#45;&gt;Exception</title>
<path fill="none" stroke="#000000" d="M89.42,-36.06C84.45,-51.55 77.89,-72 77.89,-72 77.89,-72 77.89,-108 77.89,-108 77.89,-108 82.06,-120.98 86.26,-134.1"/>
<polygon fill="#000000" stroke="#000000" points="83.03,-135.49 89.42,-143.94 89.7,-133.35 83.03,-135.49"/>
</g>
<!-- X::Comp -->
<g id="node5" class="node">
<title>X::Comp</title>
<g id="a_node5"><a xlink:href="/type/X::Comp" xlink:title="X::Comp">
<ellipse fill="none" stroke="#6666ff" cx="131.89" cy="-90" rx="44.69" ry="18"/>
<text text-anchor="middle" x="131.89" y="-86.3" font-family="FreeSans" font-size="14.00" fill="#6666ff">X::Comp</text>
</a>
</g>
</g>
<!-- X::Parameter::Default&#45;&gt;X::Comp -->
<g id="edge5" class="edge">
<title>X::Parameter::Default&#45;&gt;X::Comp</title>
<path fill="none" stroke="#6666ff" d="M103.85,-35.95C108.17,-44.11 113.44,-54.09 118.24,-63.18"/>
<polygon fill="#6666ff" stroke="#6666ff" points="115.25,-65.01 123.02,-72.21 121.44,-61.73 115.25,-65.01"/>
</g>
<!-- Mu -->
<g id="node2" class="node">
<title>Mu</title>
<g id="a_node2"><a xlink:href="/type/Mu" xlink:title="Mu">
<ellipse fill="none" stroke="#000000" cx="94.89" cy="-306" rx="27" ry="18"/>
<text text-anchor="middle" x="94.89" y="-302.3" font-family="FreeSans" font-size="14.00" fill="#000000">Mu</text>
</a>
</g>
</g>
<!-- Any -->
<g id="node3" class="node">
<title>Any</title>
<g id="a_node3"><a xlink:href="/type/Any" xlink:title="Any">
<ellipse fill="none" stroke="#000000" cx="94.89" cy="-234" rx="27" ry="18"/>
<text text-anchor="middle" x="94.89" y="-230.3" font-family="FreeSans" font-size="14.00" fill="#000000">Any</text>
</a>
</g>
</g>
<!-- Any&#45;&gt;Mu -->
<g id="edge2" class="edge">
<title>Any&#45;&gt;Mu</title>
<path fill="none" stroke="#000000" d="M94.89,-252.3C94.89,-260.02 94.89,-269.29 94.89,-277.89"/>
<polygon fill="#000000" stroke="#000000" points="91.39,-277.9 94.89,-287.9 98.39,-277.9 91.39,-277.9"/>
</g>
<!-- Exception&#45;&gt;Any -->
<g id="edge3" class="edge">
<title>Exception&#45;&gt;Any</title>
<path fill="none" stroke="#000000" d="M94.89,-180.3C94.89,-188.02 94.89,-197.29 94.89,-205.89"/>
<polygon fill="#000000" stroke="#000000" points="91.39,-205.9 94.89,-215.9 98.39,-205.9 91.39,-205.9"/>
</g>
<!-- X::Comp&#45;&gt;Exception -->
<g id="edge4" class="edge">
<title>X::Comp&#45;&gt;Exception</title>
<path fill="none" stroke="#000000" d="M122.93,-107.95C118.62,-116.11 113.34,-126.09 108.54,-135.18"/>
<polygon fill="#000000" stroke="#000000" points="105.34,-133.73 103.77,-144.21 111.53,-137.01 105.34,-133.73"/>
</g>
</g>
</svg>
