<?xml version="1.0" encoding="UTF-8" standalone="no"?>
<!DOCTYPE svg PUBLIC "-//W3C//DTD SVG 1.1//EN"
 "http://www.w3.org/Graphics/SVG/1.1/DTD/svg11.dtd">
<!-- Generated by graphviz version 2.43.0 (0)
 -->
<!-- Title: perl6&#45;type&#45;graph Pages: 1 -->
<svg width="241pt" height="332pt"
 viewBox="0.00 0.00 240.68 332.00" xmlns="http://www.w3.org/2000/svg" xmlns:xlink="http://www.w3.org/1999/xlink">
<g id="graph0" class="graph" transform="scale(1 1) rotate(0) translate(4 328)">
<title>perl6&#45;type&#45;graph</title>
<polygon fill="white" stroke="transparent" points="-4,4 -4,-328 236.68,-328 236.68,4 -4,4"/>
<!-- X::Parameter::WrongOrder -->
<g id="node1" class="node">
<title>X::Parameter::WrongOrder</title>
<g id="a_node1"><a xlink:href="/type/X::Parameter::WrongOrder" xlink:title="X::Parameter::WrongOrder">
<ellipse fill="none" stroke="#000000" cx="116.34" cy="-18" rx="116.18" ry="18"/>
<text text-anchor="middle" x="116.34" y="-14.3" font-family="FreeSans" font-size="14.00" fill="#000000">X::Parameter::WrongOrder</text>
</a>
</g>
</g>
<!-- Exception -->
<g id="node4" class="node">
<title>Exception</title>
<g id="a_node4"><a xlink:href="/type/Exception" xlink:title="Exception">
<ellipse fill="none" stroke="#000000" cx="116.34" cy="-162" rx="49.29" ry="18"/>
<text text-anchor="middle" x="116.34" y="-158.3" font-family="FreeSans" font-size="14.00" fill="#000000">Exception</text>
</a>
</g>
</g>
<!-- X::Parameter::WrongOrder&#45;&gt;Exception -->
<g id="edge1" class="edge">
<title>X::Parameter::WrongOrder&#45;&gt;Exception</title>
<path fill="none" stroke="#000000" d="M110.87,-36.06C105.9,-51.55 99.34,-72 99.34,-72 99.34,-72 99.34,-108 99.34,-108 99.34,-108 103.5,-120.98 107.71,-134.1"/>
<polygon fill="#000000" stroke="#000000" points="104.48,-135.49 110.87,-143.94 111.15,-133.35 104.48,-135.49"/>
</g>
<!-- X::Comp -->
<g id="node5" class="node">
<title>X::Comp</title>
<g id="a_node5"><a xlink:href="/type/X::Comp" xlink:title="X::Comp">
<ellipse fill="none" stroke="#6666ff" cx="153.34" cy="-90" rx="44.69" ry="18"/>
<text text-anchor="middle" x="153.34" y="-86.3" font-family="FreeSans" font-size="14.00" fill="#6666ff">X::Comp</text>
</a>
</g>
</g>
<!-- X::Parameter::WrongOrder&#45;&gt;X::Comp -->
<g id="edge5" class="edge">
<title>X::Parameter::WrongOrder&#45;&gt;X::Comp</title>
<path fill="none" stroke="#6666ff" d="M125.49,-36.3C129.74,-44.36 134.9,-54.11 139.61,-63.02"/>
<polygon fill="#6666ff" stroke="#6666ff" points="136.53,-64.69 144.3,-71.9 142.72,-61.42 136.53,-64.69"/>
</g>
<!-- Mu -->
<g id="node2" class="node">
<title>Mu</title>
<g id="a_node2"><a xlink:href="/type/Mu" xlink:title="Mu">
<ellipse fill="none" stroke="#000000" cx="116.34" cy="-306" rx="27" ry="18"/>
<text text-anchor="middle" x="116.34" y="-302.3" font-family="FreeSans" font-size="14.00" fill="#000000">Mu</text>
</a>
</g>
</g>
<!-- Any -->
<g id="node3" class="node">
<title>Any</title>
<g id="a_node3"><a xlink:href="/type/Any" xlink:title="Any">
<ellipse fill="none" stroke="#000000" cx="116.34" cy="-234" rx="27" ry="18"/>
<text text-anchor="middle" x="116.34" y="-230.3" font-family="FreeSans" font-size="14.00" fill="#000000">Any</text>
</a>
</g>
</g>
<!-- Any&#45;&gt;Mu -->
<g id="edge2" class="edge">
<title>Any&#45;&gt;Mu</title>
<path fill="none" stroke="#000000" d="M116.34,-252.3C116.34,-260.02 116.34,-269.29 116.34,-277.89"/>
<polygon fill="#000000" stroke="#000000" points="112.84,-277.9 116.34,-287.9 119.84,-277.9 112.84,-277.9"/>
</g>
<!-- Exception&#45;&gt;Any -->
<g id="edge3" class="edge">
<title>Exception&#45;&gt;Any</title>
<path fill="none" stroke="#000000" d="M116.34,-180.3C116.34,-188.02 116.34,-197.29 116.34,-205.89"/>
<polygon fill="#000000" stroke="#000000" points="112.84,-205.9 116.34,-215.9 119.84,-205.9 112.84,-205.9"/>
</g>
<!-- X::Comp&#45;&gt;Exception -->
<g id="edge4" class="edge">
<title>X::Comp&#45;&gt;Exception</title>
<path fill="none" stroke="#000000" d="M144.38,-107.95C140.07,-116.11 134.79,-126.09 129.99,-135.18"/>
<polygon fill="#000000" stroke="#000000" points="126.79,-133.73 125.21,-144.21 132.98,-137.01 126.79,-133.73"/>
</g>
</g>
</svg>
