<?xml version="1.0" encoding="UTF-8" standalone="no"?>
<!DOCTYPE svg PUBLIC "-//W3C//DTD SVG 1.1//EN"
 "http://www.w3.org/Graphics/SVG/1.1/DTD/svg11.dtd">
<!-- Generated by graphviz version 2.43.0 (0)
 -->
<!-- Title: perl6&#45;type&#45;graph Pages: 1 -->
<svg width="189pt" height="332pt"
 viewBox="0.00 0.00 188.68 332.00" xmlns="http://www.w3.org/2000/svg" xmlns:xlink="http://www.w3.org/1999/xlink">
<g id="graph0" class="graph" transform="scale(1 1) rotate(0) translate(4 328)">
<title>perl6&#45;type&#45;graph</title>
<polygon fill="white" stroke="transparent" points="-4,4 -4,-328 184.68,-328 184.68,4 -4,4"/>
<!-- X::Parameter::Twigil -->
<g id="node1" class="node">
<title>X::Parameter::Twigil</title>
<g id="a_node1"><a xlink:href="/type/X::Parameter::Twigil" xlink:title="X::Parameter::Twigil">
<ellipse fill="none" stroke="#000000" cx="90.34" cy="-18" rx="90.18" ry="18"/>
<text text-anchor="middle" x="90.34" y="-14.3" font-family="FreeSans" font-size="14.00" fill="#000000">X::Parameter::Twigil</text>
</a>
</g>
</g>
<!-- Exception -->
<g id="node4" class="node">
<title>Exception</title>
<g id="a_node4"><a xlink:href="/type/Exception" xlink:title="Exception">
<ellipse fill="none" stroke="#000000" cx="90.34" cy="-162" rx="49.29" ry="18"/>
<text text-anchor="middle" x="90.34" y="-158.3" font-family="FreeSans" font-size="14.00" fill="#000000">Exception</text>
</a>
</g>
</g>
<!-- X::Parameter::Twigil&#45;&gt;Exception -->
<g id="edge1" class="edge">
<title>X::Parameter::Twigil&#45;&gt;Exception</title>
<path fill="none" stroke="#000000" d="M84.87,-36.06C79.9,-51.55 73.34,-72 73.34,-72 73.34,-72 73.34,-108 73.34,-108 73.34,-108 77.51,-120.98 81.71,-134.1"/>
<polygon fill="#000000" stroke="#000000" points="78.48,-135.49 84.87,-143.94 85.15,-133.35 78.48,-135.49"/>
</g>
<!-- X::Comp -->
<g id="node5" class="node">
<title>X::Comp</title>
<g id="a_node5"><a xlink:href="/type/X::Comp" xlink:title="X::Comp">
<ellipse fill="none" stroke="#6666ff" cx="127.34" cy="-90" rx="44.69" ry="18"/>
<text text-anchor="middle" x="127.34" y="-86.3" font-family="FreeSans" font-size="14.00" fill="#6666ff">X::Comp</text>
</a>
</g>
</g>
<!-- X::Parameter::Twigil&#45;&gt;X::Comp -->
<g id="edge5" class="edge">
<title>X::Parameter::Twigil&#45;&gt;X::Comp</title>
<path fill="none" stroke="#6666ff" d="M99.3,-35.95C103.62,-44.11 108.89,-54.09 113.69,-63.18"/>
<polygon fill="#6666ff" stroke="#6666ff" points="110.7,-65.01 118.47,-72.21 116.89,-61.73 110.7,-65.01"/>
</g>
<!-- Mu -->
<g id="node2" class="node">
<title>Mu</title>
<g id="a_node2"><a xlink:href="/type/Mu" xlink:title="Mu">
<ellipse fill="none" stroke="#000000" cx="90.34" cy="-306" rx="27" ry="18"/>
<text text-anchor="middle" x="90.34" y="-302.3" font-family="FreeSans" font-size="14.00" fill="#000000">Mu</text>
</a>
</g>
</g>
<!-- Any -->
<g id="node3" class="node">
<title>Any</title>
<g id="a_node3"><a xlink:href="/type/Any" xlink:title="Any">
<ellipse fill="none" stroke="#000000" cx="90.34" cy="-234" rx="27" ry="18"/>
<text text-anchor="middle" x="90.34" y="-230.3" font-family="FreeSans" font-size="14.00" fill="#000000">Any</text>
</a>
</g>
</g>
<!-- Any&#45;&gt;Mu -->
<g id="edge2" class="edge">
<title>Any&#45;&gt;Mu</title>
<path fill="none" stroke="#000000" d="M90.34,-252.3C90.34,-260.02 90.34,-269.29 90.34,-277.89"/>
<polygon fill="#000000" stroke="#000000" points="86.84,-277.9 90.34,-287.9 93.84,-277.9 86.84,-277.9"/>
</g>
<!-- Exception&#45;&gt;Any -->
<g id="edge3" class="edge">
<title>Exception&#45;&gt;Any</title>
<path fill="none" stroke="#000000" d="M90.34,-180.3C90.34,-188.02 90.34,-197.29 90.34,-205.89"/>
<polygon fill="#000000" stroke="#000000" points="86.84,-205.9 90.34,-215.9 93.84,-205.9 86.84,-205.9"/>
</g>
<!-- X::Comp&#45;&gt;Exception -->
<g id="edge4" class="edge">
<title>X::Comp&#45;&gt;Exception</title>
<path fill="none" stroke="#000000" d="M118.39,-107.95C114.07,-116.11 108.8,-126.09 103.99,-135.18"/>
<polygon fill="#000000" stroke="#000000" points="100.79,-133.73 99.22,-144.21 106.98,-137.01 100.79,-133.73"/>
</g>
</g>
</svg>
