<?xml version="1.0" encoding="UTF-8" standalone="no"?>
<!DOCTYPE svg PUBLIC "-//W3C//DTD SVG 1.1//EN"
 "http://www.w3.org/Graphics/SVG/1.1/DTD/svg11.dtd">
<!-- Generated by graphviz version 2.43.0 (0)
 -->
<!-- Title: perl6&#45;type&#45;graph Pages: 1 -->
<svg width="333pt" height="332pt"
 viewBox="0.00 0.00 332.97 332.00" xmlns="http://www.w3.org/2000/svg" xmlns:xlink="http://www.w3.org/1999/xlink">
<g id="graph0" class="graph" transform="scale(1 1) rotate(0) translate(4 328)">
<title>perl6&#45;type&#45;graph</title>
<polygon fill="white" stroke="transparent" points="-4,4 -4,-328 328.97,-328 328.97,4 -4,4"/>
<!-- X::Parameter::MultipleTypeConstraints -->
<g id="node1" class="node">
<title>X::Parameter::MultipleTypeConstraints</title>
<g id="a_node1"><a xlink:href="/type/X::Parameter::MultipleTypeConstraints" xlink:title="X::Parameter::MultipleTypeConstraints">
<ellipse fill="none" stroke="#000000" cx="162.49" cy="-18" rx="162.47" ry="18"/>
<text text-anchor="middle" x="162.49" y="-14.3" font-family="FreeSans" font-size="14.00" fill="#000000">X::Parameter::MultipleTypeConstraints</text>
</a>
</g>
</g>
<!-- Exception -->
<g id="node4" class="node">
<title>Exception</title>
<g id="a_node4"><a xlink:href="/type/Exception" xlink:title="Exception">
<ellipse fill="none" stroke="#000000" cx="162.49" cy="-162" rx="49.29" ry="18"/>
<text text-anchor="middle" x="162.49" y="-158.3" font-family="FreeSans" font-size="14.00" fill="#000000">Exception</text>
</a>
</g>
</g>
<!-- X::Parameter::MultipleTypeConstraints&#45;&gt;Exception -->
<g id="edge1" class="edge">
<title>X::Parameter::MultipleTypeConstraints&#45;&gt;Exception</title>
<path fill="none" stroke="#000000" d="M157.01,-36.06C152.04,-51.55 145.49,-72 145.49,-72 145.49,-72 145.49,-108 145.49,-108 145.49,-108 149.65,-120.98 153.86,-134.1"/>
<polygon fill="#000000" stroke="#000000" points="150.63,-135.49 157.01,-143.94 157.29,-133.35 150.63,-135.49"/>
</g>
<!-- X::Comp -->
<g id="node5" class="node">
<title>X::Comp</title>
<g id="a_node5"><a xlink:href="/type/X::Comp" xlink:title="X::Comp">
<ellipse fill="none" stroke="#6666ff" cx="199.49" cy="-90" rx="44.69" ry="18"/>
<text text-anchor="middle" x="199.49" y="-86.3" font-family="FreeSans" font-size="14.00" fill="#6666ff">X::Comp</text>
</a>
</g>
</g>
<!-- X::Parameter::MultipleTypeConstraints&#45;&gt;X::Comp -->
<g id="edge5" class="edge">
<title>X::Parameter::MultipleTypeConstraints&#45;&gt;X::Comp</title>
<path fill="none" stroke="#6666ff" d="M171.63,-36.3C175.89,-44.36 181.04,-54.11 185.75,-63.02"/>
<polygon fill="#6666ff" stroke="#6666ff" points="182.68,-64.69 190.44,-71.9 188.87,-61.42 182.68,-64.69"/>
</g>
<!-- Mu -->
<g id="node2" class="node">
<title>Mu</title>
<g id="a_node2"><a xlink:href="/type/Mu" xlink:title="Mu">
<ellipse fill="none" stroke="#000000" cx="162.49" cy="-306" rx="27" ry="18"/>
<text text-anchor="middle" x="162.49" y="-302.3" font-family="FreeSans" font-size="14.00" fill="#000000">Mu</text>
</a>
</g>
</g>
<!-- Any -->
<g id="node3" class="node">
<title>Any</title>
<g id="a_node3"><a xlink:href="/type/Any" xlink:title="Any">
<ellipse fill="none" stroke="#000000" cx="162.49" cy="-234" rx="27" ry="18"/>
<text text-anchor="middle" x="162.49" y="-230.3" font-family="FreeSans" font-size="14.00" fill="#000000">Any</text>
</a>
</g>
</g>
<!-- Any&#45;&gt;Mu -->
<g id="edge2" class="edge">
<title>Any&#45;&gt;Mu</title>
<path fill="none" stroke="#000000" d="M162.49,-252.3C162.49,-260.02 162.49,-269.29 162.49,-277.89"/>
<polygon fill="#000000" stroke="#000000" points="158.99,-277.9 162.49,-287.9 165.99,-277.9 158.99,-277.9"/>
</g>
<!-- Exception&#45;&gt;Any -->
<g id="edge3" class="edge">
<title>Exception&#45;&gt;Any</title>
<path fill="none" stroke="#000000" d="M162.49,-180.3C162.49,-188.02 162.49,-197.29 162.49,-205.89"/>
<polygon fill="#000000" stroke="#000000" points="158.99,-205.9 162.49,-215.9 165.99,-205.9 158.99,-205.9"/>
</g>
<!-- X::Comp&#45;&gt;Exception -->
<g id="edge4" class="edge">
<title>X::Comp&#45;&gt;Exception</title>
<path fill="none" stroke="#000000" d="M190.53,-107.95C186.21,-116.11 180.94,-126.09 176.14,-135.18"/>
<polygon fill="#000000" stroke="#000000" points="172.94,-133.73 171.36,-144.21 179.13,-137.01 172.94,-133.73"/>
</g>
</g>
</svg>
