<?xml version="1.0" encoding="UTF-8" standalone="no"?>
<!DOCTYPE svg PUBLIC "-//W3C//DTD SVG 1.1//EN"
 "http://www.w3.org/Graphics/SVG/1.1/DTD/svg11.dtd">
<!-- Generated by graphviz version 2.43.0 (0)
 -->
<!-- Title: perl6&#45;type&#45;graph Pages: 1 -->
<svg width="235pt" height="332pt"
 viewBox="0.00 0.00 235.48 332.00" xmlns="http://www.w3.org/2000/svg" xmlns:xlink="http://www.w3.org/1999/xlink">
<g id="graph0" class="graph" transform="scale(1 1) rotate(0) translate(4 328)">
<title>perl6&#45;type&#45;graph</title>
<polygon fill="white" stroke="transparent" points="-4,4 -4,-328 231.48,-328 231.48,4 -4,4"/>
<!-- X::Parameter::Placeholder -->
<g id="node1" class="node">
<title>X::Parameter::Placeholder</title>
<g id="a_node1"><a xlink:href="/type/X::Parameter::Placeholder" xlink:title="X::Parameter::Placeholder">
<ellipse fill="none" stroke="#000000" cx="113.74" cy="-18" rx="113.98" ry="18"/>
<text text-anchor="middle" x="113.74" y="-14.3" font-family="FreeSans" font-size="14.00" fill="#000000">X::Parameter::Placeholder</text>
</a>
</g>
</g>
<!-- Exception -->
<g id="node4" class="node">
<title>Exception</title>
<g id="a_node4"><a xlink:href="/type/Exception" xlink:title="Exception">
<ellipse fill="none" stroke="#000000" cx="113.74" cy="-162" rx="49.29" ry="18"/>
<text text-anchor="middle" x="113.74" y="-158.3" font-family="FreeSans" font-size="14.00" fill="#000000">Exception</text>
</a>
</g>
</g>
<!-- X::Parameter::Placeholder&#45;&gt;Exception -->
<g id="edge1" class="edge">
<title>X::Parameter::Placeholder&#45;&gt;Exception</title>
<path fill="none" stroke="#000000" d="M108.27,-36.06C103.3,-51.55 96.74,-72 96.74,-72 96.74,-72 96.74,-108 96.74,-108 96.74,-108 100.9,-120.98 105.11,-134.1"/>
<polygon fill="#000000" stroke="#000000" points="101.88,-135.49 108.27,-143.94 108.55,-133.35 101.88,-135.49"/>
</g>
<!-- X::Comp -->
<g id="node5" class="node">
<title>X::Comp</title>
<g id="a_node5"><a xlink:href="/type/X::Comp" xlink:title="X::Comp">
<ellipse fill="none" stroke="#6666ff" cx="150.74" cy="-90" rx="44.69" ry="18"/>
<text text-anchor="middle" x="150.74" y="-86.3" font-family="FreeSans" font-size="14.00" fill="#6666ff">X::Comp</text>
</a>
</g>
</g>
<!-- X::Parameter::Placeholder&#45;&gt;X::Comp -->
<g id="edge5" class="edge">
<title>X::Parameter::Placeholder&#45;&gt;X::Comp</title>
<path fill="none" stroke="#6666ff" d="M122.7,-35.95C127.01,-44.11 132.29,-54.09 137.09,-63.18"/>
<polygon fill="#6666ff" stroke="#6666ff" points="134.1,-65.01 141.87,-72.21 140.29,-61.73 134.1,-65.01"/>
</g>
<!-- Mu -->
<g id="node2" class="node">
<title>Mu</title>
<g id="a_node2"><a xlink:href="/type/Mu" xlink:title="Mu">
<ellipse fill="none" stroke="#000000" cx="113.74" cy="-306" rx="27" ry="18"/>
<text text-anchor="middle" x="113.74" y="-302.3" font-family="FreeSans" font-size="14.00" fill="#000000">Mu</text>
</a>
</g>
</g>
<!-- Any -->
<g id="node3" class="node">
<title>Any</title>
<g id="a_node3"><a xlink:href="/type/Any" xlink:title="Any">
<ellipse fill="none" stroke="#000000" cx="113.74" cy="-234" rx="27" ry="18"/>
<text text-anchor="middle" x="113.74" y="-230.3" font-family="FreeSans" font-size="14.00" fill="#000000">Any</text>
</a>
</g>
</g>
<!-- Any&#45;&gt;Mu -->
<g id="edge2" class="edge">
<title>Any&#45;&gt;Mu</title>
<path fill="none" stroke="#000000" d="M113.74,-252.3C113.74,-260.02 113.74,-269.29 113.74,-277.89"/>
<polygon fill="#000000" stroke="#000000" points="110.24,-277.9 113.74,-287.9 117.24,-277.9 110.24,-277.9"/>
</g>
<!-- Exception&#45;&gt;Any -->
<g id="edge3" class="edge">
<title>Exception&#45;&gt;Any</title>
<path fill="none" stroke="#000000" d="M113.74,-180.3C113.74,-188.02 113.74,-197.29 113.74,-205.89"/>
<polygon fill="#000000" stroke="#000000" points="110.24,-205.9 113.74,-215.9 117.24,-205.9 110.24,-205.9"/>
</g>
<!-- X::Comp&#45;&gt;Exception -->
<g id="edge4" class="edge">
<title>X::Comp&#45;&gt;Exception</title>
<path fill="none" stroke="#000000" d="M141.78,-107.95C137.47,-116.11 132.19,-126.09 127.39,-135.18"/>
<polygon fill="#000000" stroke="#000000" points="124.19,-133.73 122.61,-144.21 130.38,-137.01 124.19,-133.73"/>
</g>
</g>
</svg>
