<?xml version="1.0" encoding="UTF-8" standalone="no"?>
<!DOCTYPE svg PUBLIC "-//W3C//DTD SVG 1.1//EN"
 "http://www.w3.org/Graphics/SVG/1.1/DTD/svg11.dtd">
<!-- Generated by graphviz version 2.43.0 (0)
 -->
<!-- Title: perl6&#45;type&#45;graph Pages: 1 -->
<svg width="178pt" height="332pt"
 viewBox="0.00 0.00 178.28 332.00" xmlns="http://www.w3.org/2000/svg" xmlns:xlink="http://www.w3.org/1999/xlink">
<g id="graph0" class="graph" transform="scale(1 1) rotate(0) translate(4 328)">
<title>perl6&#45;type&#45;graph</title>
<polygon fill="white" stroke="transparent" points="-4,4 -4,-328 174.28,-328 174.28,4 -4,4"/>
<!-- X::Phaser::Multiple -->
<g id="node1" class="node">
<title>X::Phaser::Multiple</title>
<g id="a_node1"><a xlink:href="/type/X::Phaser::Multiple" xlink:title="X::Phaser::Multiple">
<ellipse fill="none" stroke="#000000" cx="85.14" cy="-18" rx="85.29" ry="18"/>
<text text-anchor="middle" x="85.14" y="-14.3" font-family="FreeSans" font-size="14.00" fill="#000000">X::Phaser::Multiple</text>
</a>
</g>
</g>
<!-- Exception -->
<g id="node4" class="node">
<title>Exception</title>
<g id="a_node4"><a xlink:href="/type/Exception" xlink:title="Exception">
<ellipse fill="none" stroke="#000000" cx="85.14" cy="-162" rx="49.29" ry="18"/>
<text text-anchor="middle" x="85.14" y="-158.3" font-family="FreeSans" font-size="14.00" fill="#000000">Exception</text>
</a>
</g>
</g>
<!-- X::Phaser::Multiple&#45;&gt;Exception -->
<g id="edge1" class="edge">
<title>X::Phaser::Multiple&#45;&gt;Exception</title>
<path fill="none" stroke="#000000" d="M79.67,-36.06C74.7,-51.55 68.14,-72 68.14,-72 68.14,-72 68.14,-108 68.14,-108 68.14,-108 72.31,-120.98 76.51,-134.1"/>
<polygon fill="#000000" stroke="#000000" points="73.28,-135.49 79.67,-143.94 79.95,-133.35 73.28,-135.49"/>
</g>
<!-- X::Comp -->
<g id="node5" class="node">
<title>X::Comp</title>
<g id="a_node5"><a xlink:href="/type/X::Comp" xlink:title="X::Comp">
<ellipse fill="none" stroke="#6666ff" cx="122.14" cy="-90" rx="44.69" ry="18"/>
<text text-anchor="middle" x="122.14" y="-86.3" font-family="FreeSans" font-size="14.00" fill="#6666ff">X::Comp</text>
</a>
</g>
</g>
<!-- X::Phaser::Multiple&#45;&gt;X::Comp -->
<g id="edge5" class="edge">
<title>X::Phaser::Multiple&#45;&gt;X::Comp</title>
<path fill="none" stroke="#6666ff" d="M94.1,-35.95C98.42,-44.11 103.69,-54.09 108.49,-63.18"/>
<polygon fill="#6666ff" stroke="#6666ff" points="105.5,-65.01 113.27,-72.21 111.69,-61.73 105.5,-65.01"/>
</g>
<!-- Mu -->
<g id="node2" class="node">
<title>Mu</title>
<g id="a_node2"><a xlink:href="/type/Mu" xlink:title="Mu">
<ellipse fill="none" stroke="#000000" cx="85.14" cy="-306" rx="27" ry="18"/>
<text text-anchor="middle" x="85.14" y="-302.3" font-family="FreeSans" font-size="14.00" fill="#000000">Mu</text>
</a>
</g>
</g>
<!-- Any -->
<g id="node3" class="node">
<title>Any</title>
<g id="a_node3"><a xlink:href="/type/Any" xlink:title="Any">
<ellipse fill="none" stroke="#000000" cx="85.14" cy="-234" rx="27" ry="18"/>
<text text-anchor="middle" x="85.14" y="-230.3" font-family="FreeSans" font-size="14.00" fill="#000000">Any</text>
</a>
</g>
</g>
<!-- Any&#45;&gt;Mu -->
<g id="edge2" class="edge">
<title>Any&#45;&gt;Mu</title>
<path fill="none" stroke="#000000" d="M85.14,-252.3C85.14,-260.02 85.14,-269.29 85.14,-277.89"/>
<polygon fill="#000000" stroke="#000000" points="81.64,-277.9 85.14,-287.9 88.64,-277.9 81.64,-277.9"/>
</g>
<!-- Exception&#45;&gt;Any -->
<g id="edge3" class="edge">
<title>Exception&#45;&gt;Any</title>
<path fill="none" stroke="#000000" d="M85.14,-180.3C85.14,-188.02 85.14,-197.29 85.14,-205.89"/>
<polygon fill="#000000" stroke="#000000" points="81.64,-205.9 85.14,-215.9 88.64,-205.9 81.64,-205.9"/>
</g>
<!-- X::Comp&#45;&gt;Exception -->
<g id="edge4" class="edge">
<title>X::Comp&#45;&gt;Exception</title>
<path fill="none" stroke="#000000" d="M113.19,-107.95C108.87,-116.11 103.6,-126.09 98.79,-135.18"/>
<polygon fill="#000000" stroke="#000000" points="95.6,-133.73 94.02,-144.21 101.78,-137.01 95.6,-133.73"/>
</g>
</g>
</svg>
