<?xml version="1.0" encoding="UTF-8" standalone="no"?>
<!DOCTYPE svg PUBLIC "-//W3C//DTD SVG 1.1//EN"
 "http://www.w3.org/Graphics/SVG/1.1/DTD/svg11.dtd">
<!-- Generated by graphviz version 2.43.0 (0)
 -->
<!-- Title: perl6&#45;type&#45;graph Pages: 1 -->
<svg width="220pt" height="404pt"
 viewBox="0.00 0.00 219.88 404.00" xmlns="http://www.w3.org/2000/svg" xmlns:xlink="http://www.w3.org/1999/xlink">
<g id="graph0" class="graph" transform="scale(1 1) rotate(0) translate(4 400)">
<title>perl6&#45;type&#45;graph</title>
<polygon fill="white" stroke="transparent" points="-4,4 -4,-400 215.88,-400 215.88,4 -4,4"/>
<!-- X::Placeholder::Block -->
<g id="node1" class="node">
<title>X::Placeholder::Block</title>
<g id="a_node1"><a xlink:href="/type/X::Placeholder::Block" xlink:title="X::Placeholder::Block">
<ellipse fill="none" stroke="#000000" cx="105.94" cy="-90" rx="94.78" ry="18"/>
<text text-anchor="middle" x="105.94" y="-86.3" font-family="FreeSans" font-size="14.00" fill="#000000">X::Placeholder::Block</text>
</a>
</g>
</g>
<!-- Exception -->
<g id="node4" class="node">
<title>Exception</title>
<g id="a_node4"><a xlink:href="/type/Exception" xlink:title="Exception">
<ellipse fill="none" stroke="#000000" cx="105.94" cy="-234" rx="49.29" ry="18"/>
<text text-anchor="middle" x="105.94" y="-230.3" font-family="FreeSans" font-size="14.00" fill="#000000">Exception</text>
</a>
</g>
</g>
<!-- X::Placeholder::Block&#45;&gt;Exception -->
<g id="edge1" class="edge">
<title>X::Placeholder::Block&#45;&gt;Exception</title>
<path fill="none" stroke="#000000" d="M100.47,-108.06C95.5,-123.55 88.94,-144 88.94,-144 88.94,-144 88.94,-180 88.94,-180 88.94,-180 93.1,-192.98 97.31,-206.1"/>
<polygon fill="#000000" stroke="#000000" points="94.08,-207.49 100.47,-215.94 100.75,-205.35 94.08,-207.49"/>
</g>
<!-- X::Comp -->
<g id="node5" class="node">
<title>X::Comp</title>
<g id="a_node5"><a xlink:href="/type/X::Comp" xlink:title="X::Comp">
<ellipse fill="none" stroke="#6666ff" cx="142.94" cy="-162" rx="44.69" ry="18"/>
<text text-anchor="middle" x="142.94" y="-158.3" font-family="FreeSans" font-size="14.00" fill="#6666ff">X::Comp</text>
</a>
</g>
</g>
<!-- X::Placeholder::Block&#45;&gt;X::Comp -->
<g id="edge6" class="edge">
<title>X::Placeholder::Block&#45;&gt;X::Comp</title>
<path fill="none" stroke="#6666ff" d="M114.9,-107.95C119.21,-116.11 124.49,-126.09 129.29,-135.18"/>
<polygon fill="#6666ff" stroke="#6666ff" points="126.3,-137.01 134.07,-144.21 132.49,-133.73 126.3,-137.01"/>
</g>
<!-- Mu -->
<g id="node2" class="node">
<title>Mu</title>
<g id="a_node2"><a xlink:href="/type/Mu" xlink:title="Mu">
<ellipse fill="none" stroke="#000000" cx="105.94" cy="-378" rx="27" ry="18"/>
<text text-anchor="middle" x="105.94" y="-374.3" font-family="FreeSans" font-size="14.00" fill="#000000">Mu</text>
</a>
</g>
</g>
<!-- Any -->
<g id="node3" class="node">
<title>Any</title>
<g id="a_node3"><a xlink:href="/type/Any" xlink:title="Any">
<ellipse fill="none" stroke="#000000" cx="105.94" cy="-306" rx="27" ry="18"/>
<text text-anchor="middle" x="105.94" y="-302.3" font-family="FreeSans" font-size="14.00" fill="#000000">Any</text>
</a>
</g>
</g>
<!-- Any&#45;&gt;Mu -->
<g id="edge2" class="edge">
<title>Any&#45;&gt;Mu</title>
<path fill="none" stroke="#000000" d="M105.94,-324.3C105.94,-332.02 105.94,-341.29 105.94,-349.89"/>
<polygon fill="#000000" stroke="#000000" points="102.44,-349.9 105.94,-359.9 109.44,-349.9 102.44,-349.9"/>
</g>
<!-- Exception&#45;&gt;Any -->
<g id="edge3" class="edge">
<title>Exception&#45;&gt;Any</title>
<path fill="none" stroke="#000000" d="M105.94,-252.3C105.94,-260.02 105.94,-269.29 105.94,-277.89"/>
<polygon fill="#000000" stroke="#000000" points="102.44,-277.9 105.94,-287.9 109.44,-277.9 102.44,-277.9"/>
</g>
<!-- X::Comp&#45;&gt;Exception -->
<g id="edge4" class="edge">
<title>X::Comp&#45;&gt;Exception</title>
<path fill="none" stroke="#000000" d="M133.98,-179.95C129.67,-188.11 124.39,-198.09 119.59,-207.18"/>
<polygon fill="#000000" stroke="#000000" points="116.39,-205.73 114.81,-216.21 122.58,-209.01 116.39,-205.73"/>
</g>
<!-- X::Placeholder::Mainline -->
<g id="node6" class="node">
<title>X::Placeholder::Mainline</title>
<g id="a_node6"><a xlink:href="/type/X::Placeholder::Mainline" xlink:title="X::Placeholder::Mainline">
<ellipse fill="none" stroke="#000000" cx="105.94" cy="-18" rx="105.88" ry="18"/>
<text text-anchor="middle" x="105.94" y="-14.3" font-family="FreeSans" font-size="14.00" fill="#000000">X::Placeholder::Mainline</text>
</a>
</g>
</g>
<!-- X::Placeholder::Mainline&#45;&gt;X::Placeholder::Block -->
<g id="edge5" class="edge">
<title>X::Placeholder::Mainline&#45;&gt;X::Placeholder::Block</title>
<path fill="none" stroke="#000000" d="M105.94,-36.3C105.94,-44.02 105.94,-53.29 105.94,-61.89"/>
<polygon fill="#000000" stroke="#000000" points="102.44,-61.9 105.94,-71.9 109.44,-61.9 102.44,-61.9"/>
</g>
</g>
</svg>
