<?xml version="1.0" encoding="UTF-8" standalone="no"?>
<!DOCTYPE svg PUBLIC "-//W3C//DTD SVG 1.1//EN"
 "http://www.w3.org/Graphics/SVG/1.1/DTD/svg11.dtd">
<!-- Generated by graphviz version 2.43.0 (0)
 -->
<!-- Title: perl6&#45;type&#45;graph Pages: 1 -->
<svg width="628pt" height="404pt"
 viewBox="0.00 0.00 627.92 404.00" xmlns="http://www.w3.org/2000/svg" xmlns:xlink="http://www.w3.org/1999/xlink">
<g id="graph0" class="graph" transform="scale(1 1) rotate(0) translate(4 400)">
<title>perl6&#45;type&#45;graph</title>
<polygon fill="white" stroke="transparent" points="-4,4 -4,-400 623.92,-400 623.92,4 -4,4"/>
<!-- X::Pod -->
<g id="node1" class="node">
<title>X::Pod</title>
<g id="a_node1"><a xlink:href="/type/X::Pod" xlink:title="X::Pod">
<ellipse fill="none" stroke="#6666ff" cx="248.69" cy="-90" rx="37.09" ry="18"/>
<text text-anchor="middle" x="248.69" y="-86.3" font-family="FreeSans" font-size="14.00" fill="#6666ff">X::Pod</text>
</a>
</g>
</g>
<!-- Mu -->
<g id="node2" class="node">
<title>Mu</title>
<g id="a_node2"><a xlink:href="/type/Mu" xlink:title="Mu">
<ellipse fill="none" stroke="#000000" cx="413.69" cy="-378" rx="27" ry="18"/>
<text text-anchor="middle" x="413.69" y="-374.3" font-family="FreeSans" font-size="14.00" fill="#000000">Mu</text>
</a>
</g>
</g>
<!-- Any -->
<g id="node3" class="node">
<title>Any</title>
<g id="a_node3"><a xlink:href="/type/Any" xlink:title="Any">
<ellipse fill="none" stroke="#000000" cx="413.69" cy="-306" rx="27" ry="18"/>
<text text-anchor="middle" x="413.69" y="-302.3" font-family="FreeSans" font-size="14.00" fill="#000000">Any</text>
</a>
</g>
</g>
<!-- Any&#45;&gt;Mu -->
<g id="edge1" class="edge">
<title>Any&#45;&gt;Mu</title>
<path fill="none" stroke="#000000" d="M413.69,-324.3C413.69,-332.02 413.69,-341.29 413.69,-349.89"/>
<polygon fill="#000000" stroke="#000000" points="410.19,-349.9 413.69,-359.9 417.19,-349.9 410.19,-349.9"/>
</g>
<!-- Exception -->
<g id="node4" class="node">
<title>Exception</title>
<g id="a_node4"><a xlink:href="/type/Exception" xlink:title="Exception">
<ellipse fill="none" stroke="#000000" cx="413.69" cy="-234" rx="49.29" ry="18"/>
<text text-anchor="middle" x="413.69" y="-230.3" font-family="FreeSans" font-size="14.00" fill="#000000">Exception</text>
</a>
</g>
</g>
<!-- Exception&#45;&gt;Any -->
<g id="edge2" class="edge">
<title>Exception&#45;&gt;Any</title>
<path fill="none" stroke="#000000" d="M413.69,-252.3C413.69,-260.02 413.69,-269.29 413.69,-277.89"/>
<polygon fill="#000000" stroke="#000000" points="410.19,-277.9 413.69,-287.9 417.19,-277.9 410.19,-277.9"/>
</g>
<!-- X::Comp -->
<g id="node5" class="node">
<title>X::Comp</title>
<g id="a_node5"><a xlink:href="/type/X::Comp" xlink:title="X::Comp">
<ellipse fill="none" stroke="#6666ff" cx="340.69" cy="-162" rx="44.69" ry="18"/>
<text text-anchor="middle" x="340.69" y="-158.3" font-family="FreeSans" font-size="14.00" fill="#6666ff">X::Comp</text>
</a>
</g>
</g>
<!-- X::Comp&#45;&gt;Exception -->
<g id="edge3" class="edge">
<title>X::Comp&#45;&gt;Exception</title>
<path fill="none" stroke="#000000" d="M357.25,-178.88C366.8,-188.04 378.97,-199.71 389.56,-209.87"/>
<polygon fill="#000000" stroke="#000000" points="387.3,-212.54 396.94,-216.94 392.14,-207.49 387.3,-212.54"/>
</g>
<!-- X::Syntax -->
<g id="node6" class="node">
<title>X::Syntax</title>
<g id="a_node6"><a xlink:href="/type/X::Syntax" xlink:title="X::Syntax">
<ellipse fill="none" stroke="#6666ff" cx="367.69" cy="-90" rx="48.19" ry="18"/>
<text text-anchor="middle" x="367.69" y="-86.3" font-family="FreeSans" font-size="14.00" fill="#6666ff">X::Syntax</text>
</a>
</g>
</g>
<!-- X::Syntax&#45;&gt;Exception -->
<g id="edge4" class="edge">
<title>X::Syntax&#45;&gt;Exception</title>
<path fill="none" stroke="#000000" d="M376.23,-107.77C384.14,-123.3 394.69,-144 394.69,-144 394.69,-144 402.34,-179.83 407.93,-206.03"/>
<polygon fill="#000000" stroke="#000000" points="404.51,-206.79 410.02,-215.84 411.36,-205.33 404.51,-206.79"/>
</g>
<!-- X::Syntax&#45;&gt;X::Comp -->
<g id="edge8" class="edge">
<title>X::Syntax&#45;&gt;X::Comp</title>
<path fill="none" stroke="#6666ff" d="M361.15,-107.95C358.11,-115.82 354.43,-125.38 351.02,-134.21"/>
<polygon fill="#6666ff" stroke="#6666ff" points="347.68,-133.14 347.35,-143.72 354.22,-135.65 347.68,-133.14"/>
</g>
<!-- X::Syntax::Pod::BeginWithoutEnd -->
<g id="node7" class="node">
<title>X::Syntax::Pod::BeginWithoutEnd</title>
<g id="a_node7"><a xlink:href="/type/X::Syntax::Pod::BeginWithoutEnd" xlink:title="X::Syntax::Pod::BeginWithoutEnd">
<ellipse fill="none" stroke="#000000" cx="141.69" cy="-18" rx="141.88" ry="18"/>
<text text-anchor="middle" x="141.69" y="-14.3" font-family="FreeSans" font-size="14.00" fill="#000000">X::Syntax::Pod::BeginWithoutEnd</text>
</a>
</g>
</g>
<!-- X::Syntax::Pod::BeginWithoutEnd&#45;&gt;X::Pod -->
<g id="edge10" class="edge">
<title>X::Syntax::Pod::BeginWithoutEnd&#45;&gt;X::Pod</title>
<path fill="none" stroke="#6666ff" d="M167.32,-35.77C182.86,-45.94 202.76,-58.96 218.99,-69.57"/>
<polygon fill="#6666ff" stroke="#6666ff" points="217.3,-72.65 227.58,-75.19 221.13,-66.79 217.3,-72.65"/>
</g>
<!-- X::Syntax::Pod::BeginWithoutEnd&#45;&gt;Exception -->
<g id="edge5" class="edge">
<title>X::Syntax::Pod::BeginWithoutEnd&#45;&gt;Exception</title>
<path fill="none" stroke="#000000" d="M153.45,-36.16C171.17,-62.02 202.69,-108 202.69,-108 202.69,-108 286.69,-180 286.69,-180 286.69,-180 335.56,-200.4 372.67,-215.88"/>
<polygon fill="#000000" stroke="#000000" points="371.72,-219.28 382.29,-219.9 374.41,-212.82 371.72,-219.28"/>
</g>
<!-- X::Syntax::Pod::BeginWithoutEnd&#45;&gt;X::Syntax -->
<g id="edge9" class="edge">
<title>X::Syntax::Pod::BeginWithoutEnd&#45;&gt;X::Syntax</title>
<path fill="none" stroke="#6666ff" d="M192.69,-34.8C231.53,-46.83 284.52,-63.24 321.99,-74.85"/>
<polygon fill="#6666ff" stroke="#6666ff" points="321.05,-78.22 331.64,-77.83 323.12,-71.53 321.05,-78.22"/>
</g>
<!-- X::Syntax::Pod::BeginWithoutIdentifier -->
<g id="node8" class="node">
<title>X::Syntax::Pod::BeginWithoutIdentifier</title>
<g id="a_node8"><a xlink:href="/type/X::Syntax::Pod::BeginWithoutIdentifier" xlink:title="X::Syntax::Pod::BeginWithoutIdentifier">
<ellipse fill="none" stroke="#000000" cx="460.69" cy="-18" rx="159.47" ry="18"/>
<text text-anchor="middle" x="460.69" y="-14.3" font-family="FreeSans" font-size="14.00" fill="#000000">X::Syntax::Pod::BeginWithoutIdentifier</text>
</a>
</g>
</g>
<!-- X::Syntax::Pod::BeginWithoutIdentifier&#45;&gt;X::Pod -->
<g id="edge12" class="edge">
<title>X::Syntax::Pod::BeginWithoutIdentifier&#45;&gt;X::Pod</title>
<path fill="none" stroke="#6666ff" d="M411.78,-35.15C374.28,-47.53 323.18,-64.4 288.23,-75.94"/>
<polygon fill="#6666ff" stroke="#6666ff" points="286.78,-72.74 278.38,-79.2 288.97,-79.38 286.78,-72.74"/>
</g>
<!-- X::Syntax::Pod::BeginWithoutIdentifier&#45;&gt;Exception -->
<g id="edge6" class="edge">
<title>X::Syntax::Pod::BeginWithoutIdentifier&#45;&gt;Exception</title>
<path fill="none" stroke="#000000" d="M453.04,-36.15C441.38,-73.17 421.86,-160.82 415.01,-205.61"/>
<polygon fill="#000000" stroke="#000000" points="411.51,-205.38 413.59,-215.77 418.44,-206.35 411.51,-205.38"/>
</g>
<!-- X::Syntax::Pod::BeginWithoutIdentifier&#45;&gt;Exception -->
<g id="edge7" class="edge">
<title>X::Syntax::Pod::BeginWithoutIdentifier&#45;&gt;Exception</title>
<path fill="none" stroke="#000000" d="M460.8,-36.15C456.18,-73.34 437.05,-161.63 424.22,-206.23"/>
<polygon fill="#000000" stroke="#000000" points="420.79,-205.48 421.26,-216.06 427.49,-207.49 420.79,-205.48"/>
</g>
<!-- X::Syntax::Pod::BeginWithoutIdentifier&#45;&gt;X::Syntax -->
<g id="edge11" class="edge">
<title>X::Syntax::Pod::BeginWithoutIdentifier&#45;&gt;X::Syntax</title>
<path fill="none" stroke="#6666ff" d="M438.17,-35.95C425.53,-45.46 409.63,-57.43 396.13,-67.59"/>
<polygon fill="#6666ff" stroke="#6666ff" points="393.97,-64.83 388.09,-73.64 398.18,-70.43 393.97,-64.83"/>
</g>
</g>
</svg>
