<?xml version="1.0" encoding="UTF-8" standalone="no"?>
<!DOCTYPE svg PUBLIC "-//W3C//DTD SVG 1.1//EN"
 "http://www.w3.org/Graphics/SVG/1.1/DTD/svg11.dtd">
<!-- Generated by graphviz version 2.43.0 (0)
 -->
<!-- Title: perl6&#45;type&#45;graph Pages: 1 -->
<svg width="167pt" height="332pt"
 viewBox="0.00 0.00 167.19 332.00" xmlns="http://www.w3.org/2000/svg" xmlns:xlink="http://www.w3.org/1999/xlink">
<g id="graph0" class="graph" transform="scale(1 1) rotate(0) translate(4 328)">
<title>perl6&#45;type&#45;graph</title>
<polygon fill="white" stroke="transparent" points="-4,4 -4,-328 163.19,-328 163.19,4 -4,4"/>
<!-- X::PoisonedAlias -->
<g id="node1" class="node">
<title>X::PoisonedAlias</title>
<g id="a_node1"><a xlink:href="/type/X::PoisonedAlias" xlink:title="X::PoisonedAlias">
<ellipse fill="none" stroke="#000000" cx="77.34" cy="-18" rx="77.19" ry="18"/>
<text text-anchor="middle" x="77.34" y="-14.3" font-family="FreeSans" font-size="14.00" fill="#000000">X::PoisonedAlias</text>
</a>
</g>
</g>
<!-- Exception -->
<g id="node4" class="node">
<title>Exception</title>
<g id="a_node4"><a xlink:href="/type/Exception" xlink:title="Exception">
<ellipse fill="none" stroke="#000000" cx="77.34" cy="-162" rx="49.29" ry="18"/>
<text text-anchor="middle" x="77.34" y="-158.3" font-family="FreeSans" font-size="14.00" fill="#000000">Exception</text>
</a>
</g>
</g>
<!-- X::PoisonedAlias&#45;&gt;Exception -->
<g id="edge1" class="edge">
<title>X::PoisonedAlias&#45;&gt;Exception</title>
<path fill="none" stroke="#000000" d="M71.87,-36.06C66.9,-51.55 60.34,-72 60.34,-72 60.34,-72 60.34,-108 60.34,-108 60.34,-108 64.51,-120.98 68.71,-134.1"/>
<polygon fill="#000000" stroke="#000000" points="65.48,-135.49 71.87,-143.94 72.15,-133.35 65.48,-135.49"/>
</g>
<!-- X::Comp -->
<g id="node5" class="node">
<title>X::Comp</title>
<g id="a_node5"><a xlink:href="/type/X::Comp" xlink:title="X::Comp">
<ellipse fill="none" stroke="#6666ff" cx="114.34" cy="-90" rx="44.69" ry="18"/>
<text text-anchor="middle" x="114.34" y="-86.3" font-family="FreeSans" font-size="14.00" fill="#6666ff">X::Comp</text>
</a>
</g>
</g>
<!-- X::PoisonedAlias&#45;&gt;X::Comp -->
<g id="edge5" class="edge">
<title>X::PoisonedAlias&#45;&gt;X::Comp</title>
<path fill="none" stroke="#6666ff" d="M86.3,-35.95C90.62,-44.11 95.89,-54.09 100.69,-63.18"/>
<polygon fill="#6666ff" stroke="#6666ff" points="97.7,-65.01 105.47,-72.21 103.89,-61.73 97.7,-65.01"/>
</g>
<!-- Mu -->
<g id="node2" class="node">
<title>Mu</title>
<g id="a_node2"><a xlink:href="/type/Mu" xlink:title="Mu">
<ellipse fill="none" stroke="#000000" cx="77.34" cy="-306" rx="27" ry="18"/>
<text text-anchor="middle" x="77.34" y="-302.3" font-family="FreeSans" font-size="14.00" fill="#000000">Mu</text>
</a>
</g>
</g>
<!-- Any -->
<g id="node3" class="node">
<title>Any</title>
<g id="a_node3"><a xlink:href="/type/Any" xlink:title="Any">
<ellipse fill="none" stroke="#000000" cx="77.34" cy="-234" rx="27" ry="18"/>
<text text-anchor="middle" x="77.34" y="-230.3" font-family="FreeSans" font-size="14.00" fill="#000000">Any</text>
</a>
</g>
</g>
<!-- Any&#45;&gt;Mu -->
<g id="edge2" class="edge">
<title>Any&#45;&gt;Mu</title>
<path fill="none" stroke="#000000" d="M77.34,-252.3C77.34,-260.02 77.34,-269.29 77.34,-277.89"/>
<polygon fill="#000000" stroke="#000000" points="73.84,-277.9 77.34,-287.9 80.84,-277.9 73.84,-277.9"/>
</g>
<!-- Exception&#45;&gt;Any -->
<g id="edge3" class="edge">
<title>Exception&#45;&gt;Any</title>
<path fill="none" stroke="#000000" d="M77.34,-180.3C77.34,-188.02 77.34,-197.29 77.34,-205.89"/>
<polygon fill="#000000" stroke="#000000" points="73.84,-205.9 77.34,-215.9 80.84,-205.9 73.84,-205.9"/>
</g>
<!-- X::Comp&#45;&gt;Exception -->
<g id="edge4" class="edge">
<title>X::Comp&#45;&gt;Exception</title>
<path fill="none" stroke="#000000" d="M105.39,-107.95C101.07,-116.11 95.8,-126.09 90.99,-135.18"/>
<polygon fill="#000000" stroke="#000000" points="87.8,-133.73 86.22,-144.21 93.98,-137.01 87.8,-133.73"/>
</g>
</g>
</svg>
