<?xml version="1.0" encoding="UTF-8" standalone="no"?>
<!DOCTYPE svg PUBLIC "-//W3C//DTD SVG 1.1//EN"
 "http://www.w3.org/Graphics/SVG/1.1/DTD/svg11.dtd">
<!-- Generated by graphviz version 2.43.0 (0)
 -->
<!-- Title: perl6&#45;type&#45;graph Pages: 1 -->
<svg width="271pt" height="332pt"
 viewBox="0.00 0.00 270.58 332.00" xmlns="http://www.w3.org/2000/svg" xmlns:xlink="http://www.w3.org/1999/xlink">
<g id="graph0" class="graph" transform="scale(1 1) rotate(0) translate(4 328)">
<title>perl6&#45;type&#45;graph</title>
<polygon fill="white" stroke="transparent" points="-4,4 -4,-328 266.58,-328 266.58,4 -4,4"/>
<!-- X::Proc::Async::AlreadyStarted -->
<g id="node1" class="node">
<title>X::Proc::Async::AlreadyStarted</title>
<g id="a_node1"><a xlink:href="/type/X::Proc::Async::AlreadyStarted" xlink:title="X::Proc::Async::AlreadyStarted">
<ellipse fill="none" stroke="#000000" cx="131.29" cy="-18" rx="131.08" ry="18"/>
<text text-anchor="middle" x="131.29" y="-14.3" font-family="FreeSans" font-size="14.00" fill="#000000">X::Proc::Async::AlreadyStarted</text>
</a>
</g>
</g>
<!-- Exception -->
<g id="node4" class="node">
<title>Exception</title>
<g id="a_node4"><a xlink:href="/type/Exception" xlink:title="Exception">
<ellipse fill="none" stroke="#000000" cx="131.29" cy="-162" rx="49.29" ry="18"/>
<text text-anchor="middle" x="131.29" y="-158.3" font-family="FreeSans" font-size="14.00" fill="#000000">Exception</text>
</a>
</g>
</g>
<!-- X::Proc::Async::AlreadyStarted&#45;&gt;Exception -->
<g id="edge1" class="edge">
<title>X::Proc::Async::AlreadyStarted&#45;&gt;Exception</title>
<path fill="none" stroke="#000000" d="M121.95,-36.06C113.48,-51.55 102.29,-72 102.29,-72 102.29,-72 102.29,-108 102.29,-108 102.29,-108 109.77,-121.67 117.13,-135.12"/>
<polygon fill="#000000" stroke="#000000" points="114.24,-137.14 122.11,-144.23 120.38,-133.78 114.24,-137.14"/>
</g>
<!-- X::Proc::Async -->
<g id="node5" class="node">
<title>X::Proc::Async</title>
<g id="a_node5"><a xlink:href="/type/X::Proc::Async" xlink:title="X::Proc::Async">
<ellipse fill="none" stroke="#6666ff" cx="179.29" cy="-90" rx="68.49" ry="18"/>
<text text-anchor="middle" x="179.29" y="-86.3" font-family="FreeSans" font-size="14.00" fill="#6666ff">X::Proc::Async</text>
</a>
</g>
</g>
<!-- X::Proc::Async::AlreadyStarted&#45;&gt;X::Proc::Async -->
<g id="edge5" class="edge">
<title>X::Proc::Async::AlreadyStarted&#45;&gt;X::Proc::Async</title>
<path fill="none" stroke="#6666ff" d="M142.91,-35.95C148.63,-44.29 155.64,-54.51 161.97,-63.75"/>
<polygon fill="#6666ff" stroke="#6666ff" points="159.23,-65.94 167.78,-72.21 165.01,-61.98 159.23,-65.94"/>
</g>
<!-- Mu -->
<g id="node2" class="node">
<title>Mu</title>
<g id="a_node2"><a xlink:href="/type/Mu" xlink:title="Mu">
<ellipse fill="none" stroke="#000000" cx="131.29" cy="-306" rx="27" ry="18"/>
<text text-anchor="middle" x="131.29" y="-302.3" font-family="FreeSans" font-size="14.00" fill="#000000">Mu</text>
</a>
</g>
</g>
<!-- Any -->
<g id="node3" class="node">
<title>Any</title>
<g id="a_node3"><a xlink:href="/type/Any" xlink:title="Any">
<ellipse fill="none" stroke="#000000" cx="131.29" cy="-234" rx="27" ry="18"/>
<text text-anchor="middle" x="131.29" y="-230.3" font-family="FreeSans" font-size="14.00" fill="#000000">Any</text>
</a>
</g>
</g>
<!-- Any&#45;&gt;Mu -->
<g id="edge2" class="edge">
<title>Any&#45;&gt;Mu</title>
<path fill="none" stroke="#000000" d="M131.29,-252.3C131.29,-260.02 131.29,-269.29 131.29,-277.89"/>
<polygon fill="#000000" stroke="#000000" points="127.79,-277.9 131.29,-287.9 134.79,-277.9 127.79,-277.9"/>
</g>
<!-- Exception&#45;&gt;Any -->
<g id="edge3" class="edge">
<title>Exception&#45;&gt;Any</title>
<path fill="none" stroke="#000000" d="M131.29,-180.3C131.29,-188.02 131.29,-197.29 131.29,-205.89"/>
<polygon fill="#000000" stroke="#000000" points="127.79,-205.9 131.29,-215.9 134.79,-205.9 127.79,-205.9"/>
</g>
<!-- X::Proc::Async&#45;&gt;Exception -->
<g id="edge4" class="edge">
<title>X::Proc::Async&#45;&gt;Exception</title>
<path fill="none" stroke="#000000" d="M167.67,-107.95C161.95,-116.29 154.94,-126.51 148.6,-135.75"/>
<polygon fill="#000000" stroke="#000000" points="145.57,-133.98 142.8,-144.21 151.34,-137.94 145.57,-133.98"/>
</g>
</g>
</svg>
