<?xml version="1.0" encoding="UTF-8" standalone="no"?>
<!DOCTYPE svg PUBLIC "-//W3C//DTD SVG 1.1//EN"
 "http://www.w3.org/Graphics/SVG/1.1/DTD/svg11.dtd">
<!-- Generated by graphviz version 2.43.0 (0)
 -->
<!-- Title: perl6&#45;type&#45;graph Pages: 1 -->
<svg width="280pt" height="332pt"
 viewBox="0.00 0.00 279.68 332.00" xmlns="http://www.w3.org/2000/svg" xmlns:xlink="http://www.w3.org/1999/xlink">
<g id="graph0" class="graph" transform="scale(1 1) rotate(0) translate(4 328)">
<title>perl6&#45;type&#45;graph</title>
<polygon fill="white" stroke="transparent" points="-4,4 -4,-328 275.68,-328 275.68,4 -4,4"/>
<!-- X::Proc::Async::OpenForWriting -->
<g id="node1" class="node">
<title>X::Proc::Async::OpenForWriting</title>
<g id="a_node1"><a xlink:href="/type/X::Proc::Async::OpenForWriting" xlink:title="X::Proc::Async::OpenForWriting">
<ellipse fill="none" stroke="#000000" cx="135.84" cy="-18" rx="135.68" ry="18"/>
<text text-anchor="middle" x="135.84" y="-14.3" font-family="FreeSans" font-size="14.00" fill="#000000">X::Proc::Async::OpenForWriting</text>
</a>
</g>
</g>
<!-- Exception -->
<g id="node4" class="node">
<title>Exception</title>
<g id="a_node4"><a xlink:href="/type/Exception" xlink:title="Exception">
<ellipse fill="none" stroke="#000000" cx="135.84" cy="-162" rx="49.29" ry="18"/>
<text text-anchor="middle" x="135.84" y="-158.3" font-family="FreeSans" font-size="14.00" fill="#000000">Exception</text>
</a>
</g>
</g>
<!-- X::Proc::Async::OpenForWriting&#45;&gt;Exception -->
<g id="edge1" class="edge">
<title>X::Proc::Async::OpenForWriting&#45;&gt;Exception</title>
<path fill="none" stroke="#000000" d="M126.5,-36.06C118.02,-51.55 106.84,-72 106.84,-72 106.84,-72 106.84,-108 106.84,-108 106.84,-108 114.32,-121.67 121.68,-135.12"/>
<polygon fill="#000000" stroke="#000000" points="118.79,-137.14 126.66,-144.23 124.93,-133.78 118.79,-137.14"/>
</g>
<!-- X::Proc::Async -->
<g id="node5" class="node">
<title>X::Proc::Async</title>
<g id="a_node5"><a xlink:href="/type/X::Proc::Async" xlink:title="X::Proc::Async">
<ellipse fill="none" stroke="#6666ff" cx="183.84" cy="-90" rx="68.49" ry="18"/>
<text text-anchor="middle" x="183.84" y="-86.3" font-family="FreeSans" font-size="14.00" fill="#6666ff">X::Proc::Async</text>
</a>
</g>
</g>
<!-- X::Proc::Async::OpenForWriting&#45;&gt;X::Proc::Async -->
<g id="edge5" class="edge">
<title>X::Proc::Async::OpenForWriting&#45;&gt;X::Proc::Async</title>
<path fill="none" stroke="#6666ff" d="M147.46,-35.95C153.18,-44.29 160.19,-54.51 166.52,-63.75"/>
<polygon fill="#6666ff" stroke="#6666ff" points="163.78,-65.94 172.33,-72.21 169.56,-61.98 163.78,-65.94"/>
</g>
<!-- Mu -->
<g id="node2" class="node">
<title>Mu</title>
<g id="a_node2"><a xlink:href="/type/Mu" xlink:title="Mu">
<ellipse fill="none" stroke="#000000" cx="135.84" cy="-306" rx="27" ry="18"/>
<text text-anchor="middle" x="135.84" y="-302.3" font-family="FreeSans" font-size="14.00" fill="#000000">Mu</text>
</a>
</g>
</g>
<!-- Any -->
<g id="node3" class="node">
<title>Any</title>
<g id="a_node3"><a xlink:href="/type/Any" xlink:title="Any">
<ellipse fill="none" stroke="#000000" cx="135.84" cy="-234" rx="27" ry="18"/>
<text text-anchor="middle" x="135.84" y="-230.3" font-family="FreeSans" font-size="14.00" fill="#000000">Any</text>
</a>
</g>
</g>
<!-- Any&#45;&gt;Mu -->
<g id="edge2" class="edge">
<title>Any&#45;&gt;Mu</title>
<path fill="none" stroke="#000000" d="M135.84,-252.3C135.84,-260.02 135.84,-269.29 135.84,-277.89"/>
<polygon fill="#000000" stroke="#000000" points="132.34,-277.9 135.84,-287.9 139.34,-277.9 132.34,-277.9"/>
</g>
<!-- Exception&#45;&gt;Any -->
<g id="edge3" class="edge">
<title>Exception&#45;&gt;Any</title>
<path fill="none" stroke="#000000" d="M135.84,-180.3C135.84,-188.02 135.84,-197.29 135.84,-205.89"/>
<polygon fill="#000000" stroke="#000000" points="132.34,-205.9 135.84,-215.9 139.34,-205.9 132.34,-205.9"/>
</g>
<!-- X::Proc::Async&#45;&gt;Exception -->
<g id="edge4" class="edge">
<title>X::Proc::Async&#45;&gt;Exception</title>
<path fill="none" stroke="#000000" d="M172.22,-107.95C166.5,-116.29 159.49,-126.51 153.15,-135.75"/>
<polygon fill="#000000" stroke="#000000" points="150.12,-133.98 147.35,-144.21 155.89,-137.94 150.12,-133.98"/>
</g>
</g>
</svg>
