<?xml version="1.0" encoding="UTF-8" standalone="no"?>
<!DOCTYPE svg PUBLIC "-//W3C//DTD SVG 1.1//EN"
 "http://www.w3.org/Graphics/SVG/1.1/DTD/svg11.dtd">
<!-- Generated by graphviz version 2.43.0 (0)
 -->
<!-- Title: perl6&#45;type&#45;graph Pages: 1 -->
<svg width="265pt" height="332pt"
 viewBox="0.00 0.00 265.38 332.00" xmlns="http://www.w3.org/2000/svg" xmlns:xlink="http://www.w3.org/1999/xlink">
<g id="graph0" class="graph" transform="scale(1 1) rotate(0) translate(4 328)">
<title>perl6&#45;type&#45;graph</title>
<polygon fill="white" stroke="transparent" points="-4,4 -4,-328 261.38,-328 261.38,4 -4,4"/>
<!-- X::Proc::Async::CharsOrBytes -->
<g id="node1" class="node">
<title>X::Proc::Async::CharsOrBytes</title>
<g id="a_node1"><a xlink:href="/type/X::Proc::Async::CharsOrBytes" xlink:title="X::Proc::Async::CharsOrBytes">
<ellipse fill="none" stroke="#000000" cx="128.69" cy="-18" rx="128.88" ry="18"/>
<text text-anchor="middle" x="128.69" y="-14.3" font-family="FreeSans" font-size="14.00" fill="#000000">X::Proc::Async::CharsOrBytes</text>
</a>
</g>
</g>
<!-- Exception -->
<g id="node4" class="node">
<title>Exception</title>
<g id="a_node4"><a xlink:href="/type/Exception" xlink:title="Exception">
<ellipse fill="none" stroke="#000000" cx="128.69" cy="-162" rx="49.29" ry="18"/>
<text text-anchor="middle" x="128.69" y="-158.3" font-family="FreeSans" font-size="14.00" fill="#000000">Exception</text>
</a>
</g>
</g>
<!-- X::Proc::Async::CharsOrBytes&#45;&gt;Exception -->
<g id="edge1" class="edge">
<title>X::Proc::Async::CharsOrBytes&#45;&gt;Exception</title>
<path fill="none" stroke="#000000" d="M119.35,-36.06C110.88,-51.55 99.69,-72 99.69,-72 99.69,-72 99.69,-108 99.69,-108 99.69,-108 107.17,-121.67 114.53,-135.12"/>
<polygon fill="#000000" stroke="#000000" points="111.64,-137.14 119.51,-144.23 117.78,-133.78 111.64,-137.14"/>
</g>
<!-- X::Proc::Async -->
<g id="node5" class="node">
<title>X::Proc::Async</title>
<g id="a_node5"><a xlink:href="/type/X::Proc::Async" xlink:title="X::Proc::Async">
<ellipse fill="none" stroke="#6666ff" cx="176.69" cy="-90" rx="68.49" ry="18"/>
<text text-anchor="middle" x="176.69" y="-86.3" font-family="FreeSans" font-size="14.00" fill="#6666ff">X::Proc::Async</text>
</a>
</g>
</g>
<!-- X::Proc::Async::CharsOrBytes&#45;&gt;X::Proc::Async -->
<g id="edge5" class="edge">
<title>X::Proc::Async::CharsOrBytes&#45;&gt;X::Proc::Async</title>
<path fill="none" stroke="#6666ff" d="M140.31,-35.95C146.03,-44.29 153.04,-54.51 159.37,-63.75"/>
<polygon fill="#6666ff" stroke="#6666ff" points="156.63,-65.94 165.18,-72.21 162.41,-61.98 156.63,-65.94"/>
</g>
<!-- Mu -->
<g id="node2" class="node">
<title>Mu</title>
<g id="a_node2"><a xlink:href="/type/Mu" xlink:title="Mu">
<ellipse fill="none" stroke="#000000" cx="128.69" cy="-306" rx="27" ry="18"/>
<text text-anchor="middle" x="128.69" y="-302.3" font-family="FreeSans" font-size="14.00" fill="#000000">Mu</text>
</a>
</g>
</g>
<!-- Any -->
<g id="node3" class="node">
<title>Any</title>
<g id="a_node3"><a xlink:href="/type/Any" xlink:title="Any">
<ellipse fill="none" stroke="#000000" cx="128.69" cy="-234" rx="27" ry="18"/>
<text text-anchor="middle" x="128.69" y="-230.3" font-family="FreeSans" font-size="14.00" fill="#000000">Any</text>
</a>
</g>
</g>
<!-- Any&#45;&gt;Mu -->
<g id="edge2" class="edge">
<title>Any&#45;&gt;Mu</title>
<path fill="none" stroke="#000000" d="M128.69,-252.3C128.69,-260.02 128.69,-269.29 128.69,-277.89"/>
<polygon fill="#000000" stroke="#000000" points="125.19,-277.9 128.69,-287.9 132.19,-277.9 125.19,-277.9"/>
</g>
<!-- Exception&#45;&gt;Any -->
<g id="edge3" class="edge">
<title>Exception&#45;&gt;Any</title>
<path fill="none" stroke="#000000" d="M128.69,-180.3C128.69,-188.02 128.69,-197.29 128.69,-205.89"/>
<polygon fill="#000000" stroke="#000000" points="125.19,-205.9 128.69,-215.9 132.19,-205.9 125.19,-205.9"/>
</g>
<!-- X::Proc::Async&#45;&gt;Exception -->
<g id="edge4" class="edge">
<title>X::Proc::Async&#45;&gt;Exception</title>
<path fill="none" stroke="#000000" d="M165.07,-107.95C159.35,-116.29 152.34,-126.51 146,-135.75"/>
<polygon fill="#000000" stroke="#000000" points="142.97,-133.98 140.2,-144.21 148.74,-137.94 142.97,-133.98"/>
</g>
</g>
</svg>
