<?xml version="1.0" encoding="UTF-8" standalone="no"?>
<!DOCTYPE svg PUBLIC "-//W3C//DTD SVG 1.1//EN"
 "http://www.w3.org/Graphics/SVG/1.1/DTD/svg11.dtd">
<!-- Generated by graphviz version 2.43.0 (0)
 -->
<!-- Title: perl6&#45;type&#45;graph Pages: 1 -->
<svg width="241pt" height="332pt"
 viewBox="0.00 0.00 240.68 332.00" xmlns="http://www.w3.org/2000/svg" xmlns:xlink="http://www.w3.org/1999/xlink">
<g id="graph0" class="graph" transform="scale(1 1) rotate(0) translate(4 328)">
<title>perl6&#45;type&#45;graph</title>
<polygon fill="white" stroke="transparent" points="-4,4 -4,-328 236.68,-328 236.68,4 -4,4"/>
<!-- X::Proc::Async::BindOrUse -->
<g id="node1" class="node">
<title>X::Proc::Async::BindOrUse</title>
<g id="a_node1"><a xlink:href="/type/X::Proc::Async::BindOrUse" xlink:title="X::Proc::Async::BindOrUse">
<ellipse fill="none" stroke="#000000" cx="116.34" cy="-18" rx="116.18" ry="18"/>
<text text-anchor="middle" x="116.34" y="-14.3" font-family="FreeSans" font-size="14.00" fill="#000000">X::Proc::Async::BindOrUse</text>
</a>
</g>
</g>
<!-- Exception -->
<g id="node4" class="node">
<title>Exception</title>
<g id="a_node4"><a xlink:href="/type/Exception" xlink:title="Exception">
<ellipse fill="none" stroke="#000000" cx="116.34" cy="-162" rx="49.29" ry="18"/>
<text text-anchor="middle" x="116.34" y="-158.3" font-family="FreeSans" font-size="14.00" fill="#000000">Exception</text>
</a>
</g>
</g>
<!-- X::Proc::Async::BindOrUse&#45;&gt;Exception -->
<g id="edge1" class="edge">
<title>X::Proc::Async::BindOrUse&#45;&gt;Exception</title>
<path fill="none" stroke="#000000" d="M107,-36.06C98.53,-51.55 87.34,-72 87.34,-72 87.34,-72 87.34,-108 87.34,-108 87.34,-108 94.82,-121.67 102.18,-135.12"/>
<polygon fill="#000000" stroke="#000000" points="99.29,-137.14 107.16,-144.23 105.43,-133.78 99.29,-137.14"/>
</g>
<!-- X::Proc::Async -->
<g id="node5" class="node">
<title>X::Proc::Async</title>
<g id="a_node5"><a xlink:href="/type/X::Proc::Async" xlink:title="X::Proc::Async">
<ellipse fill="none" stroke="#6666ff" cx="164.34" cy="-90" rx="68.49" ry="18"/>
<text text-anchor="middle" x="164.34" y="-86.3" font-family="FreeSans" font-size="14.00" fill="#6666ff">X::Proc::Async</text>
</a>
</g>
</g>
<!-- X::Proc::Async::BindOrUse&#45;&gt;X::Proc::Async -->
<g id="edge5" class="edge">
<title>X::Proc::Async::BindOrUse&#45;&gt;X::Proc::Async</title>
<path fill="none" stroke="#6666ff" d="M127.96,-35.95C133.68,-44.29 140.69,-54.51 147.02,-63.75"/>
<polygon fill="#6666ff" stroke="#6666ff" points="144.29,-65.94 152.83,-72.21 150.06,-61.98 144.29,-65.94"/>
</g>
<!-- Mu -->
<g id="node2" class="node">
<title>Mu</title>
<g id="a_node2"><a xlink:href="/type/Mu" xlink:title="Mu">
<ellipse fill="none" stroke="#000000" cx="116.34" cy="-306" rx="27" ry="18"/>
<text text-anchor="middle" x="116.34" y="-302.3" font-family="FreeSans" font-size="14.00" fill="#000000">Mu</text>
</a>
</g>
</g>
<!-- Any -->
<g id="node3" class="node">
<title>Any</title>
<g id="a_node3"><a xlink:href="/type/Any" xlink:title="Any">
<ellipse fill="none" stroke="#000000" cx="116.34" cy="-234" rx="27" ry="18"/>
<text text-anchor="middle" x="116.34" y="-230.3" font-family="FreeSans" font-size="14.00" fill="#000000">Any</text>
</a>
</g>
</g>
<!-- Any&#45;&gt;Mu -->
<g id="edge2" class="edge">
<title>Any&#45;&gt;Mu</title>
<path fill="none" stroke="#000000" d="M116.34,-252.3C116.34,-260.02 116.34,-269.29 116.34,-277.89"/>
<polygon fill="#000000" stroke="#000000" points="112.84,-277.9 116.34,-287.9 119.84,-277.9 112.84,-277.9"/>
</g>
<!-- Exception&#45;&gt;Any -->
<g id="edge3" class="edge">
<title>Exception&#45;&gt;Any</title>
<path fill="none" stroke="#000000" d="M116.34,-180.3C116.34,-188.02 116.34,-197.29 116.34,-205.89"/>
<polygon fill="#000000" stroke="#000000" points="112.84,-205.9 116.34,-215.9 119.84,-205.9 112.84,-205.9"/>
</g>
<!-- X::Proc::Async&#45;&gt;Exception -->
<g id="edge4" class="edge">
<title>X::Proc::Async&#45;&gt;Exception</title>
<path fill="none" stroke="#000000" d="M152.72,-107.95C147,-116.29 139.99,-126.51 133.66,-135.75"/>
<polygon fill="#000000" stroke="#000000" points="130.62,-133.98 127.85,-144.21 136.39,-137.94 130.62,-133.98"/>
</g>
</g>
</svg>
