<?xml version="1.0" encoding="UTF-8" standalone="no"?>
<!DOCTYPE svg PUBLIC "-//W3C//DTD SVG 1.1//EN"
 "http://www.w3.org/Graphics/SVG/1.1/DTD/svg11.dtd">
<!-- Generated by graphviz version 2.43.0 (0)
 -->
<!-- Title: perl6&#45;type&#45;graph Pages: 1 -->
<svg width="1670pt" height="332pt"
 viewBox="0.00 0.00 1669.63 332.00" xmlns="http://www.w3.org/2000/svg" xmlns:xlink="http://www.w3.org/1999/xlink">
<g id="graph0" class="graph" transform="scale(1 1) rotate(0) translate(4 328)">
<title>perl6&#45;type&#45;graph</title>
<polygon fill="white" stroke="transparent" points="-4,4 -4,-328 1665.63,-328 1665.63,4 -4,4"/>
<!-- X::Proc::Async -->
<g id="node1" class="node">
<title>X::Proc::Async</title>
<g id="a_node1"><a xlink:href="/type/X::Proc::Async" xlink:title="X::Proc::Async">
<ellipse fill="none" stroke="#6666ff" cx="850.29" cy="-90" rx="68.49" ry="18"/>
<text text-anchor="middle" x="850.29" y="-86.3" font-family="FreeSans" font-size="14.00" fill="#6666ff">X::Proc::Async</text>
</a>
</g>
</g>
<!-- Exception -->
<g id="node4" class="node">
<title>Exception</title>
<g id="a_node4"><a xlink:href="/type/Exception" xlink:title="Exception">
<ellipse fill="none" stroke="#000000" cx="850.29" cy="-162" rx="49.29" ry="18"/>
<text text-anchor="middle" x="850.29" y="-158.3" font-family="FreeSans" font-size="14.00" fill="#000000">Exception</text>
</a>
</g>
</g>
<!-- X::Proc::Async&#45;&gt;Exception -->
<g id="edge1" class="edge">
<title>X::Proc::Async&#45;&gt;Exception</title>
<path fill="none" stroke="#000000" d="M850.29,-108.3C850.29,-116.02 850.29,-125.29 850.29,-133.89"/>
<polygon fill="#000000" stroke="#000000" points="846.79,-133.9 850.29,-143.9 853.79,-133.9 846.79,-133.9"/>
</g>
<!-- Mu -->
<g id="node2" class="node">
<title>Mu</title>
<g id="a_node2"><a xlink:href="/type/Mu" xlink:title="Mu">
<ellipse fill="none" stroke="#000000" cx="850.29" cy="-306" rx="27" ry="18"/>
<text text-anchor="middle" x="850.29" y="-302.3" font-family="FreeSans" font-size="14.00" fill="#000000">Mu</text>
</a>
</g>
</g>
<!-- Any -->
<g id="node3" class="node">
<title>Any</title>
<g id="a_node3"><a xlink:href="/type/Any" xlink:title="Any">
<ellipse fill="none" stroke="#000000" cx="850.29" cy="-234" rx="27" ry="18"/>
<text text-anchor="middle" x="850.29" y="-230.3" font-family="FreeSans" font-size="14.00" fill="#000000">Any</text>
</a>
</g>
</g>
<!-- Any&#45;&gt;Mu -->
<g id="edge2" class="edge">
<title>Any&#45;&gt;Mu</title>
<path fill="none" stroke="#000000" d="M850.29,-252.3C850.29,-260.02 850.29,-269.29 850.29,-277.89"/>
<polygon fill="#000000" stroke="#000000" points="846.79,-277.9 850.29,-287.9 853.79,-277.9 846.79,-277.9"/>
</g>
<!-- Exception&#45;&gt;Any -->
<g id="edge3" class="edge">
<title>Exception&#45;&gt;Any</title>
<path fill="none" stroke="#000000" d="M850.29,-180.3C850.29,-188.02 850.29,-197.29 850.29,-205.89"/>
<polygon fill="#000000" stroke="#000000" points="846.79,-205.9 850.29,-215.9 853.79,-205.9 846.79,-205.9"/>
</g>
<!-- X::Proc::Async::AlreadyStarted -->
<g id="node5" class="node">
<title>X::Proc::Async::AlreadyStarted</title>
<g id="a_node5"><a xlink:href="/type/X::Proc::Async::AlreadyStarted" xlink:title="X::Proc::Async::AlreadyStarted">
<ellipse fill="none" stroke="#000000" cx="131.29" cy="-18" rx="131.08" ry="18"/>
<text text-anchor="middle" x="131.29" y="-14.3" font-family="FreeSans" font-size="14.00" fill="#000000">X::Proc::Async::AlreadyStarted</text>
</a>
</g>
</g>
<!-- X::Proc::Async::AlreadyStarted&#45;&gt;X::Proc::Async -->
<g id="edge10" class="edge">
<title>X::Proc::Async::AlreadyStarted&#45;&gt;X::Proc::Async</title>
<path fill="none" stroke="#6666ff" d="M226.22,-30.53C251.19,-33.56 271.29,-36 271.29,-36 271.29,-36 621.18,-68.03 776.97,-82.29"/>
<polygon fill="#6666ff" stroke="#6666ff" points="776.67,-85.78 786.95,-83.2 777.31,-78.8 776.67,-85.78"/>
</g>
<!-- X::Proc::Async::AlreadyStarted&#45;&gt;Exception -->
<g id="edge4" class="edge">
<title>X::Proc::Async::AlreadyStarted&#45;&gt;Exception</title>
<path fill="none" stroke="#000000" d="M202.13,-33.2C327.49,-58.33 575.29,-108 575.29,-108 575.29,-108 717.92,-135.49 797.74,-150.87"/>
<polygon fill="#000000" stroke="#000000" points="797.14,-154.32 807.62,-152.78 798.46,-147.45 797.14,-154.32"/>
</g>
<!-- X::Proc::Async::MustBeStarted -->
<g id="node6" class="node">
<title>X::Proc::Async::MustBeStarted</title>
<g id="a_node6"><a xlink:href="/type/X::Proc::Async::MustBeStarted" xlink:title="X::Proc::Async::MustBeStarted">
<ellipse fill="none" stroke="#000000" cx="412.29" cy="-18" rx="131.88" ry="18"/>
<text text-anchor="middle" x="412.29" y="-14.3" font-family="FreeSans" font-size="14.00" fill="#000000">X::Proc::Async::MustBeStarted</text>
</a>
</g>
</g>
<!-- X::Proc::Async::MustBeStarted&#45;&gt;X::Proc::Async -->
<g id="edge11" class="edge">
<title>X::Proc::Async::MustBeStarted&#45;&gt;X::Proc::Async</title>
<path fill="none" stroke="#6666ff" d="M494.42,-32.13C577.98,-45.48 705.92,-65.93 783.48,-78.32"/>
<polygon fill="#6666ff" stroke="#6666ff" points="783.19,-81.82 793.62,-79.94 784.3,-74.91 783.19,-81.82"/>
</g>
<!-- X::Proc::Async::MustBeStarted&#45;&gt;Exception -->
<g id="edge5" class="edge">
<title>X::Proc::Async::MustBeStarted&#45;&gt;Exception</title>
<path fill="none" stroke="#000000" d="M460.84,-34.74C546.23,-62.43 722.13,-119.45 805.09,-146.35"/>
<polygon fill="#000000" stroke="#000000" points="804.15,-149.72 814.74,-149.47 806.3,-143.06 804.15,-149.72"/>
</g>
<!-- X::Proc::Async::OpenForWriting -->
<g id="node7" class="node">
<title>X::Proc::Async::OpenForWriting</title>
<g id="a_node7"><a xlink:href="/type/X::Proc::Async::OpenForWriting" xlink:title="X::Proc::Async::OpenForWriting">
<ellipse fill="none" stroke="#000000" cx="698.29" cy="-18" rx="135.68" ry="18"/>
<text text-anchor="middle" x="698.29" y="-14.3" font-family="FreeSans" font-size="14.00" fill="#000000">X::Proc::Async::OpenForWriting</text>
</a>
</g>
</g>
<!-- X::Proc::Async::OpenForWriting&#45;&gt;X::Proc::Async -->
<g id="edge12" class="edge">
<title>X::Proc::Async::OpenForWriting&#45;&gt;X::Proc::Async</title>
<path fill="none" stroke="#6666ff" d="M733.93,-35.41C756.29,-45.71 785.23,-59.04 808.65,-69.82"/>
<polygon fill="#6666ff" stroke="#6666ff" points="807.43,-73.12 817.98,-74.12 810.36,-66.76 807.43,-73.12"/>
</g>
<!-- X::Proc::Async::OpenForWriting&#45;&gt;Exception -->
<g id="edge6" class="edge">
<title>X::Proc::Async::OpenForWriting&#45;&gt;Exception</title>
<path fill="none" stroke="#000000" d="M712.75,-36.16C734.54,-62.02 773.29,-108 773.29,-108 773.29,-108 798.22,-125.16 819.71,-139.95"/>
<polygon fill="#000000" stroke="#000000" points="817.79,-142.88 828.02,-145.67 821.76,-137.12 817.79,-142.88"/>
</g>
<!-- X::Proc::Async::CharsOrBytes -->
<g id="node8" class="node">
<title>X::Proc::Async::CharsOrBytes</title>
<g id="a_node8"><a xlink:href="/type/X::Proc::Async::CharsOrBytes" xlink:title="X::Proc::Async::CharsOrBytes">
<ellipse fill="none" stroke="#000000" cx="981.29" cy="-18" rx="128.88" ry="18"/>
<text text-anchor="middle" x="981.29" y="-14.3" font-family="FreeSans" font-size="14.00" fill="#000000">X::Proc::Async::CharsOrBytes</text>
</a>
</g>
</g>
<!-- X::Proc::Async::CharsOrBytes&#45;&gt;X::Proc::Async -->
<g id="edge13" class="edge">
<title>X::Proc::Async::CharsOrBytes&#45;&gt;X::Proc::Async</title>
<path fill="none" stroke="#6666ff" d="M950.24,-35.59C931.69,-45.5 907.99,-58.17 888.32,-68.68"/>
<polygon fill="#6666ff" stroke="#6666ff" points="886.49,-65.69 879.32,-73.49 889.79,-71.86 886.49,-65.69"/>
</g>
<!-- X::Proc::Async::CharsOrBytes&#45;&gt;Exception -->
<g id="edge7" class="edge">
<title>X::Proc::Async::CharsOrBytes&#45;&gt;Exception</title>
<path fill="none" stroke="#000000" d="M970.88,-36.16C955.18,-62.02 927.29,-108 927.29,-108 927.29,-108 902.36,-125.16 880.87,-139.95"/>
<polygon fill="#000000" stroke="#000000" points="878.81,-137.12 872.56,-145.67 882.78,-142.88 878.81,-137.12"/>
</g>
<!-- X::Proc::Async::TapBeforeSpawn -->
<g id="node9" class="node">
<title>X::Proc::Async::TapBeforeSpawn</title>
<g id="a_node9"><a xlink:href="/type/X::Proc::Async::TapBeforeSpawn" xlink:title="X::Proc::Async::TapBeforeSpawn">
<ellipse fill="none" stroke="#000000" cx="1269.29" cy="-18" rx="141.88" ry="18"/>
<text text-anchor="middle" x="1269.29" y="-14.3" font-family="FreeSans" font-size="14.00" fill="#000000">X::Proc::Async::TapBeforeSpawn</text>
</a>
</g>
</g>
<!-- X::Proc::Async::TapBeforeSpawn&#45;&gt;X::Proc::Async -->
<g id="edge14" class="edge">
<title>X::Proc::Async::TapBeforeSpawn&#45;&gt;X::Proc::Async</title>
<path fill="none" stroke="#6666ff" d="M1187.01,-32.75C1107.79,-45.98 989.53,-65.74 916.3,-77.97"/>
<polygon fill="#6666ff" stroke="#6666ff" points="915.56,-74.55 906.27,-79.65 916.71,-81.45 915.56,-74.55"/>
</g>
<!-- X::Proc::Async::TapBeforeSpawn&#45;&gt;Exception -->
<g id="edge8" class="edge">
<title>X::Proc::Async::TapBeforeSpawn&#45;&gt;Exception</title>
<path fill="none" stroke="#000000" d="M1222.04,-35.01C1140.56,-62.63 974.7,-118.84 895.01,-145.84"/>
<polygon fill="#000000" stroke="#000000" points="893.62,-142.62 885.27,-149.15 895.86,-149.25 893.62,-142.62"/>
</g>
<!-- X::Proc::Async::BindOrUse -->
<g id="node10" class="node">
<title>X::Proc::Async::BindOrUse</title>
<g id="a_node10"><a xlink:href="/type/X::Proc::Async::BindOrUse" xlink:title="X::Proc::Async::BindOrUse">
<ellipse fill="none" stroke="#000000" cx="1545.29" cy="-18" rx="116.18" ry="18"/>
<text text-anchor="middle" x="1545.29" y="-14.3" font-family="FreeSans" font-size="14.00" fill="#000000">X::Proc::Async::BindOrUse</text>
</a>
</g>
</g>
<!-- X::Proc::Async::BindOrUse&#45;&gt;X::Proc::Async -->
<g id="edge15" class="edge">
<title>X::Proc::Async::BindOrUse&#45;&gt;X::Proc::Async</title>
<path fill="none" stroke="#6666ff" d="M1460.87,-30.48C1438.42,-33.53 1420.29,-36 1420.29,-36 1420.29,-36 1077.79,-67.85 923.78,-82.17"/>
<polygon fill="#6666ff" stroke="#6666ff" points="923.1,-78.71 913.47,-83.13 923.75,-85.68 923.1,-78.71"/>
</g>
<!-- X::Proc::Async::BindOrUse&#45;&gt;Exception -->
<g id="edge9" class="edge">
<title>X::Proc::Async::BindOrUse&#45;&gt;Exception</title>
<path fill="none" stroke="#000000" d="M1478.02,-32.74C1339.85,-60.98 1026.65,-124.97 902.45,-150.34"/>
<polygon fill="#000000" stroke="#000000" points="901.53,-146.96 892.43,-152.39 902.93,-153.82 901.53,-146.96"/>
</g>
</g>
</svg>
