<?xml version="1.0" encoding="UTF-8" standalone="no"?>
<!DOCTYPE svg PUBLIC "-//W3C//DTD SVG 1.1//EN"
 "http://www.w3.org/Graphics/SVG/1.1/DTD/svg11.dtd">
<!-- Generated by graphviz version 2.43.0 (0)
 -->
<!-- Title: perl6&#45;type&#45;graph Pages: 1 -->
<svg width="291pt" height="332pt"
 viewBox="0.00 0.00 291.37 332.00" xmlns="http://www.w3.org/2000/svg" xmlns:xlink="http://www.w3.org/1999/xlink">
<g id="graph0" class="graph" transform="scale(1 1) rotate(0) translate(4 328)">
<title>perl6&#45;type&#45;graph</title>
<polygon fill="white" stroke="transparent" points="-4,4 -4,-328 287.37,-328 287.37,4 -4,4"/>
<!-- X::Proc::Async::TapBeforeSpawn -->
<g id="node1" class="node">
<title>X::Proc::Async::TapBeforeSpawn</title>
<g id="a_node1"><a xlink:href="/type/X::Proc::Async::TapBeforeSpawn" xlink:title="X::Proc::Async::TapBeforeSpawn">
<ellipse fill="none" stroke="#000000" cx="141.69" cy="-18" rx="141.88" ry="18"/>
<text text-anchor="middle" x="141.69" y="-14.3" font-family="FreeSans" font-size="14.00" fill="#000000">X::Proc::Async::TapBeforeSpawn</text>
</a>
</g>
</g>
<!-- Exception -->
<g id="node4" class="node">
<title>Exception</title>
<g id="a_node4"><a xlink:href="/type/Exception" xlink:title="Exception">
<ellipse fill="none" stroke="#000000" cx="141.69" cy="-162" rx="49.29" ry="18"/>
<text text-anchor="middle" x="141.69" y="-158.3" font-family="FreeSans" font-size="14.00" fill="#000000">Exception</text>
</a>
</g>
</g>
<!-- X::Proc::Async::TapBeforeSpawn&#45;&gt;Exception -->
<g id="edge1" class="edge">
<title>X::Proc::Async::TapBeforeSpawn&#45;&gt;Exception</title>
<path fill="none" stroke="#000000" d="M132.35,-36.06C123.87,-51.55 112.69,-72 112.69,-72 112.69,-72 112.69,-108 112.69,-108 112.69,-108 120.17,-121.67 127.53,-135.12"/>
<polygon fill="#000000" stroke="#000000" points="124.64,-137.14 132.51,-144.23 130.78,-133.78 124.64,-137.14"/>
</g>
<!-- X::Proc::Async -->
<g id="node5" class="node">
<title>X::Proc::Async</title>
<g id="a_node5"><a xlink:href="/type/X::Proc::Async" xlink:title="X::Proc::Async">
<ellipse fill="none" stroke="#6666ff" cx="189.69" cy="-90" rx="68.49" ry="18"/>
<text text-anchor="middle" x="189.69" y="-86.3" font-family="FreeSans" font-size="14.00" fill="#6666ff">X::Proc::Async</text>
</a>
</g>
</g>
<!-- X::Proc::Async::TapBeforeSpawn&#45;&gt;X::Proc::Async -->
<g id="edge5" class="edge">
<title>X::Proc::Async::TapBeforeSpawn&#45;&gt;X::Proc::Async</title>
<path fill="none" stroke="#6666ff" d="M153.31,-35.95C159.03,-44.29 166.04,-54.51 172.37,-63.75"/>
<polygon fill="#6666ff" stroke="#6666ff" points="169.63,-65.94 178.17,-72.21 175.41,-61.98 169.63,-65.94"/>
</g>
<!-- Mu -->
<g id="node2" class="node">
<title>Mu</title>
<g id="a_node2"><a xlink:href="/type/Mu" xlink:title="Mu">
<ellipse fill="none" stroke="#000000" cx="141.69" cy="-306" rx="27" ry="18"/>
<text text-anchor="middle" x="141.69" y="-302.3" font-family="FreeSans" font-size="14.00" fill="#000000">Mu</text>
</a>
</g>
</g>
<!-- Any -->
<g id="node3" class="node">
<title>Any</title>
<g id="a_node3"><a xlink:href="/type/Any" xlink:title="Any">
<ellipse fill="none" stroke="#000000" cx="141.69" cy="-234" rx="27" ry="18"/>
<text text-anchor="middle" x="141.69" y="-230.3" font-family="FreeSans" font-size="14.00" fill="#000000">Any</text>
</a>
</g>
</g>
<!-- Any&#45;&gt;Mu -->
<g id="edge2" class="edge">
<title>Any&#45;&gt;Mu</title>
<path fill="none" stroke="#000000" d="M141.69,-252.3C141.69,-260.02 141.69,-269.29 141.69,-277.89"/>
<polygon fill="#000000" stroke="#000000" points="138.19,-277.9 141.69,-287.9 145.19,-277.9 138.19,-277.9"/>
</g>
<!-- Exception&#45;&gt;Any -->
<g id="edge3" class="edge">
<title>Exception&#45;&gt;Any</title>
<path fill="none" stroke="#000000" d="M141.69,-180.3C141.69,-188.02 141.69,-197.29 141.69,-205.89"/>
<polygon fill="#000000" stroke="#000000" points="138.19,-205.9 141.69,-215.9 145.19,-205.9 138.19,-205.9"/>
</g>
<!-- X::Proc::Async&#45;&gt;Exception -->
<g id="edge4" class="edge">
<title>X::Proc::Async&#45;&gt;Exception</title>
<path fill="none" stroke="#000000" d="M178.07,-107.95C172.35,-116.29 165.34,-126.51 159,-135.75"/>
<polygon fill="#000000" stroke="#000000" points="155.97,-133.98 153.2,-144.21 161.74,-137.94 155.97,-133.98"/>
</g>
</g>
</svg>
