<?xml version="1.0" encoding="UTF-8" standalone="no"?>
<!DOCTYPE svg PUBLIC "-//W3C//DTD SVG 1.1//EN"
 "http://www.w3.org/Graphics/SVG/1.1/DTD/svg11.dtd">
<!-- Generated by graphviz version 2.43.0 (0)
 -->
<!-- Title: perl6&#45;type&#45;graph Pages: 1 -->
<svg width="272pt" height="332pt"
 viewBox="0.00 0.00 271.88 332.00" xmlns="http://www.w3.org/2000/svg" xmlns:xlink="http://www.w3.org/1999/xlink">
<g id="graph0" class="graph" transform="scale(1 1) rotate(0) translate(4 328)">
<title>perl6&#45;type&#45;graph</title>
<polygon fill="white" stroke="transparent" points="-4,4 -4,-328 267.88,-328 267.88,4 -4,4"/>
<!-- X::Proc::Async::MustBeStarted -->
<g id="node1" class="node">
<title>X::Proc::Async::MustBeStarted</title>
<g id="a_node1"><a xlink:href="/type/X::Proc::Async::MustBeStarted" xlink:title="X::Proc::Async::MustBeStarted">
<ellipse fill="none" stroke="#000000" cx="131.94" cy="-18" rx="131.88" ry="18"/>
<text text-anchor="middle" x="131.94" y="-14.3" font-family="FreeSans" font-size="14.00" fill="#000000">X::Proc::Async::MustBeStarted</text>
</a>
</g>
</g>
<!-- Exception -->
<g id="node4" class="node">
<title>Exception</title>
<g id="a_node4"><a xlink:href="/type/Exception" xlink:title="Exception">
<ellipse fill="none" stroke="#000000" cx="131.94" cy="-162" rx="49.29" ry="18"/>
<text text-anchor="middle" x="131.94" y="-158.3" font-family="FreeSans" font-size="14.00" fill="#000000">Exception</text>
</a>
</g>
</g>
<!-- X::Proc::Async::MustBeStarted&#45;&gt;Exception -->
<g id="edge1" class="edge">
<title>X::Proc::Async::MustBeStarted&#45;&gt;Exception</title>
<path fill="none" stroke="#000000" d="M122.6,-36.06C114.13,-51.55 102.94,-72 102.94,-72 102.94,-72 102.94,-108 102.94,-108 102.94,-108 110.42,-121.67 117.78,-135.12"/>
<polygon fill="#000000" stroke="#000000" points="114.89,-137.14 122.76,-144.23 121.03,-133.78 114.89,-137.14"/>
</g>
<!-- X::Proc::Async -->
<g id="node5" class="node">
<title>X::Proc::Async</title>
<g id="a_node5"><a xlink:href="/type/X::Proc::Async" xlink:title="X::Proc::Async">
<ellipse fill="none" stroke="#6666ff" cx="179.94" cy="-90" rx="68.49" ry="18"/>
<text text-anchor="middle" x="179.94" y="-86.3" font-family="FreeSans" font-size="14.00" fill="#6666ff">X::Proc::Async</text>
</a>
</g>
</g>
<!-- X::Proc::Async::MustBeStarted&#45;&gt;X::Proc::Async -->
<g id="edge5" class="edge">
<title>X::Proc::Async::MustBeStarted&#45;&gt;X::Proc::Async</title>
<path fill="none" stroke="#6666ff" d="M143.56,-35.95C149.28,-44.29 156.29,-54.51 162.62,-63.75"/>
<polygon fill="#6666ff" stroke="#6666ff" points="159.88,-65.94 168.43,-72.21 165.66,-61.98 159.88,-65.94"/>
</g>
<!-- Mu -->
<g id="node2" class="node">
<title>Mu</title>
<g id="a_node2"><a xlink:href="/type/Mu" xlink:title="Mu">
<ellipse fill="none" stroke="#000000" cx="131.94" cy="-306" rx="27" ry="18"/>
<text text-anchor="middle" x="131.94" y="-302.3" font-family="FreeSans" font-size="14.00" fill="#000000">Mu</text>
</a>
</g>
</g>
<!-- Any -->
<g id="node3" class="node">
<title>Any</title>
<g id="a_node3"><a xlink:href="/type/Any" xlink:title="Any">
<ellipse fill="none" stroke="#000000" cx="131.94" cy="-234" rx="27" ry="18"/>
<text text-anchor="middle" x="131.94" y="-230.3" font-family="FreeSans" font-size="14.00" fill="#000000">Any</text>
</a>
</g>
</g>
<!-- Any&#45;&gt;Mu -->
<g id="edge2" class="edge">
<title>Any&#45;&gt;Mu</title>
<path fill="none" stroke="#000000" d="M131.94,-252.3C131.94,-260.02 131.94,-269.29 131.94,-277.89"/>
<polygon fill="#000000" stroke="#000000" points="128.44,-277.9 131.94,-287.9 135.44,-277.9 128.44,-277.9"/>
</g>
<!-- Exception&#45;&gt;Any -->
<g id="edge3" class="edge">
<title>Exception&#45;&gt;Any</title>
<path fill="none" stroke="#000000" d="M131.94,-180.3C131.94,-188.02 131.94,-197.29 131.94,-205.89"/>
<polygon fill="#000000" stroke="#000000" points="128.44,-205.9 131.94,-215.9 135.44,-205.9 128.44,-205.9"/>
</g>
<!-- X::Proc::Async&#45;&gt;Exception -->
<g id="edge4" class="edge">
<title>X::Proc::Async&#45;&gt;Exception</title>
<path fill="none" stroke="#000000" d="M168.32,-107.95C162.6,-116.29 155.59,-126.51 149.25,-135.75"/>
<polygon fill="#000000" stroke="#000000" points="146.22,-133.98 143.45,-144.21 151.99,-137.94 146.22,-133.98"/>
</g>
</g>
</svg>
