<?xml version="1.0" encoding="UTF-8" standalone="no"?>
<!DOCTYPE svg PUBLIC "-//W3C//DTD SVG 1.1//EN"
 "http://www.w3.org/Graphics/SVG/1.1/DTD/svg11.dtd">
<!-- Generated by graphviz version 2.43.0 (0)
 -->
<!-- Title: perl6&#45;type&#45;graph Pages: 1 -->
<svg width="293pt" height="332pt"
 viewBox="0.00 0.00 292.67 332.00" xmlns="http://www.w3.org/2000/svg" xmlns:xlink="http://www.w3.org/1999/xlink">
<g id="graph0" class="graph" transform="scale(1 1) rotate(0) translate(4 328)">
<title>perl6&#45;type&#45;graph</title>
<polygon fill="white" stroke="transparent" points="-4,4 -4,-328 288.67,-328 288.67,4 -4,4"/>
<!-- X::PseudoPackage::InDeclaration -->
<g id="node1" class="node">
<title>X::PseudoPackage::InDeclaration</title>
<g id="a_node1"><a xlink:href="/type/X::PseudoPackage::InDeclaration" xlink:title="X::PseudoPackage::InDeclaration">
<ellipse fill="none" stroke="#000000" cx="142.34" cy="-18" rx="142.17" ry="18"/>
<text text-anchor="middle" x="142.34" y="-14.3" font-family="FreeSans" font-size="14.00" fill="#000000">X::PseudoPackage::InDeclaration</text>
</a>
</g>
</g>
<!-- Exception -->
<g id="node4" class="node">
<title>Exception</title>
<g id="a_node4"><a xlink:href="/type/Exception" xlink:title="Exception">
<ellipse fill="none" stroke="#000000" cx="142.34" cy="-162" rx="49.29" ry="18"/>
<text text-anchor="middle" x="142.34" y="-158.3" font-family="FreeSans" font-size="14.00" fill="#000000">Exception</text>
</a>
</g>
</g>
<!-- X::PseudoPackage::InDeclaration&#45;&gt;Exception -->
<g id="edge1" class="edge">
<title>X::PseudoPackage::InDeclaration&#45;&gt;Exception</title>
<path fill="none" stroke="#000000" d="M136.86,-36.06C131.9,-51.55 125.34,-72 125.34,-72 125.34,-72 125.34,-108 125.34,-108 125.34,-108 129.5,-120.98 133.71,-134.1"/>
<polygon fill="#000000" stroke="#000000" points="130.48,-135.49 136.86,-143.94 137.14,-133.35 130.48,-135.49"/>
</g>
<!-- X::Comp -->
<g id="node5" class="node">
<title>X::Comp</title>
<g id="a_node5"><a xlink:href="/type/X::Comp" xlink:title="X::Comp">
<ellipse fill="none" stroke="#6666ff" cx="179.34" cy="-90" rx="44.69" ry="18"/>
<text text-anchor="middle" x="179.34" y="-86.3" font-family="FreeSans" font-size="14.00" fill="#6666ff">X::Comp</text>
</a>
</g>
</g>
<!-- X::PseudoPackage::InDeclaration&#45;&gt;X::Comp -->
<g id="edge5" class="edge">
<title>X::PseudoPackage::InDeclaration&#45;&gt;X::Comp</title>
<path fill="none" stroke="#6666ff" d="M151.48,-36.3C155.74,-44.36 160.89,-54.11 165.6,-63.02"/>
<polygon fill="#6666ff" stroke="#6666ff" points="162.53,-64.69 170.3,-71.9 168.72,-61.42 162.53,-64.69"/>
</g>
<!-- Mu -->
<g id="node2" class="node">
<title>Mu</title>
<g id="a_node2"><a xlink:href="/type/Mu" xlink:title="Mu">
<ellipse fill="none" stroke="#000000" cx="142.34" cy="-306" rx="27" ry="18"/>
<text text-anchor="middle" x="142.34" y="-302.3" font-family="FreeSans" font-size="14.00" fill="#000000">Mu</text>
</a>
</g>
</g>
<!-- Any -->
<g id="node3" class="node">
<title>Any</title>
<g id="a_node3"><a xlink:href="/type/Any" xlink:title="Any">
<ellipse fill="none" stroke="#000000" cx="142.34" cy="-234" rx="27" ry="18"/>
<text text-anchor="middle" x="142.34" y="-230.3" font-family="FreeSans" font-size="14.00" fill="#000000">Any</text>
</a>
</g>
</g>
<!-- Any&#45;&gt;Mu -->
<g id="edge2" class="edge">
<title>Any&#45;&gt;Mu</title>
<path fill="none" stroke="#000000" d="M142.34,-252.3C142.34,-260.02 142.34,-269.29 142.34,-277.89"/>
<polygon fill="#000000" stroke="#000000" points="138.84,-277.9 142.34,-287.9 145.84,-277.9 138.84,-277.9"/>
</g>
<!-- Exception&#45;&gt;Any -->
<g id="edge3" class="edge">
<title>Exception&#45;&gt;Any</title>
<path fill="none" stroke="#000000" d="M142.34,-180.3C142.34,-188.02 142.34,-197.29 142.34,-205.89"/>
<polygon fill="#000000" stroke="#000000" points="138.84,-205.9 142.34,-215.9 145.84,-205.9 138.84,-205.9"/>
</g>
<!-- X::Comp&#45;&gt;Exception -->
<g id="edge4" class="edge">
<title>X::Comp&#45;&gt;Exception</title>
<path fill="none" stroke="#000000" d="M170.38,-107.95C166.06,-116.11 160.79,-126.09 155.99,-135.18"/>
<polygon fill="#000000" stroke="#000000" points="152.79,-133.73 151.21,-144.21 158.98,-137.01 152.79,-133.73"/>
</g>
</g>
</svg>
