<?xml version="1.0" encoding="UTF-8" standalone="no"?>
<!DOCTYPE svg PUBLIC "-//W3C//DTD SVG 1.1//EN"
 "http://www.w3.org/Graphics/SVG/1.1/DTD/svg11.dtd">
<!-- Generated by graphviz version 2.43.0 (0)
 -->
<!-- Title: perl6&#45;type&#45;graph Pages: 1 -->
<svg width="213pt" height="332pt"
 viewBox="0.00 0.00 213.38 332.00" xmlns="http://www.w3.org/2000/svg" xmlns:xlink="http://www.w3.org/1999/xlink">
<g id="graph0" class="graph" transform="scale(1 1) rotate(0) translate(4 328)">
<title>perl6&#45;type&#45;graph</title>
<polygon fill="white" stroke="transparent" points="-4,4 -4,-328 209.38,-328 209.38,4 -4,4"/>
<!-- X::Redeclaration::Outer -->
<g id="node1" class="node">
<title>X::Redeclaration::Outer</title>
<g id="a_node1"><a xlink:href="/type/X::Redeclaration::Outer" xlink:title="X::Redeclaration::Outer">
<ellipse fill="none" stroke="#000000" cx="102.69" cy="-18" rx="102.88" ry="18"/>
<text text-anchor="middle" x="102.69" y="-14.3" font-family="FreeSans" font-size="14.00" fill="#000000">X::Redeclaration::Outer</text>
</a>
</g>
</g>
<!-- Exception -->
<g id="node4" class="node">
<title>Exception</title>
<g id="a_node4"><a xlink:href="/type/Exception" xlink:title="Exception">
<ellipse fill="none" stroke="#000000" cx="102.69" cy="-162" rx="49.29" ry="18"/>
<text text-anchor="middle" x="102.69" y="-158.3" font-family="FreeSans" font-size="14.00" fill="#000000">Exception</text>
</a>
</g>
</g>
<!-- X::Redeclaration::Outer&#45;&gt;Exception -->
<g id="edge1" class="edge">
<title>X::Redeclaration::Outer&#45;&gt;Exception</title>
<path fill="none" stroke="#000000" d="M97.22,-36.06C92.25,-51.55 85.69,-72 85.69,-72 85.69,-72 85.69,-108 85.69,-108 85.69,-108 89.86,-120.98 94.06,-134.1"/>
<polygon fill="#000000" stroke="#000000" points="90.83,-135.49 97.22,-143.94 97.5,-133.35 90.83,-135.49"/>
</g>
<!-- X::Comp -->
<g id="node5" class="node">
<title>X::Comp</title>
<g id="a_node5"><a xlink:href="/type/X::Comp" xlink:title="X::Comp">
<ellipse fill="none" stroke="#6666ff" cx="139.69" cy="-90" rx="44.69" ry="18"/>
<text text-anchor="middle" x="139.69" y="-86.3" font-family="FreeSans" font-size="14.00" fill="#6666ff">X::Comp</text>
</a>
</g>
</g>
<!-- X::Redeclaration::Outer&#45;&gt;X::Comp -->
<g id="edge5" class="edge">
<title>X::Redeclaration::Outer&#45;&gt;X::Comp</title>
<path fill="none" stroke="#6666ff" d="M111.65,-35.95C115.97,-44.11 121.24,-54.09 126.04,-63.18"/>
<polygon fill="#6666ff" stroke="#6666ff" points="123.05,-65.01 130.82,-72.21 129.24,-61.73 123.05,-65.01"/>
</g>
<!-- Mu -->
<g id="node2" class="node">
<title>Mu</title>
<g id="a_node2"><a xlink:href="/type/Mu" xlink:title="Mu">
<ellipse fill="none" stroke="#000000" cx="102.69" cy="-306" rx="27" ry="18"/>
<text text-anchor="middle" x="102.69" y="-302.3" font-family="FreeSans" font-size="14.00" fill="#000000">Mu</text>
</a>
</g>
</g>
<!-- Any -->
<g id="node3" class="node">
<title>Any</title>
<g id="a_node3"><a xlink:href="/type/Any" xlink:title="Any">
<ellipse fill="none" stroke="#000000" cx="102.69" cy="-234" rx="27" ry="18"/>
<text text-anchor="middle" x="102.69" y="-230.3" font-family="FreeSans" font-size="14.00" fill="#000000">Any</text>
</a>
</g>
</g>
<!-- Any&#45;&gt;Mu -->
<g id="edge2" class="edge">
<title>Any&#45;&gt;Mu</title>
<path fill="none" stroke="#000000" d="M102.69,-252.3C102.69,-260.02 102.69,-269.29 102.69,-277.89"/>
<polygon fill="#000000" stroke="#000000" points="99.19,-277.9 102.69,-287.9 106.19,-277.9 99.19,-277.9"/>
</g>
<!-- Exception&#45;&gt;Any -->
<g id="edge3" class="edge">
<title>Exception&#45;&gt;Any</title>
<path fill="none" stroke="#000000" d="M102.69,-180.3C102.69,-188.02 102.69,-197.29 102.69,-205.89"/>
<polygon fill="#000000" stroke="#000000" points="99.19,-205.9 102.69,-215.9 106.19,-205.9 99.19,-205.9"/>
</g>
<!-- X::Comp&#45;&gt;Exception -->
<g id="edge4" class="edge">
<title>X::Comp&#45;&gt;Exception</title>
<path fill="none" stroke="#000000" d="M130.73,-107.95C126.42,-116.11 121.14,-126.09 116.34,-135.18"/>
<polygon fill="#000000" stroke="#000000" points="113.14,-133.73 111.57,-144.21 119.33,-137.01 113.14,-133.73"/>
</g>
</g>
</svg>
