<?xml version="1.0" encoding="UTF-8" standalone="no"?>
<!DOCTYPE svg PUBLIC "-//W3C//DTD SVG 1.1//EN"
 "http://www.w3.org/Graphics/SVG/1.1/DTD/svg11.dtd">
<!-- Generated by graphviz version 2.43.0 (0)
 -->
<!-- Title: perl6&#45;type&#45;graph Pages: 1 -->
<svg width="165pt" height="332pt"
 viewBox="0.00 0.00 165.24 332.00" xmlns="http://www.w3.org/2000/svg" xmlns:xlink="http://www.w3.org/1999/xlink">
<g id="graph0" class="graph" transform="scale(1 1) rotate(0) translate(4 328)">
<title>perl6&#45;type&#45;graph</title>
<polygon fill="white" stroke="transparent" points="-4,4 -4,-328 161.24,-328 161.24,4 -4,4"/>
<!-- X::Redeclaration -->
<g id="node1" class="node">
<title>X::Redeclaration</title>
<g id="a_node1"><a xlink:href="/type/X::Redeclaration" xlink:title="X::Redeclaration">
<ellipse fill="none" stroke="#000000" cx="75.39" cy="-18" rx="75.29" ry="18"/>
<text text-anchor="middle" x="75.39" y="-14.3" font-family="FreeSans" font-size="14.00" fill="#000000">X::Redeclaration</text>
</a>
</g>
</g>
<!-- Exception -->
<g id="node4" class="node">
<title>Exception</title>
<g id="a_node4"><a xlink:href="/type/Exception" xlink:title="Exception">
<ellipse fill="none" stroke="#000000" cx="75.39" cy="-162" rx="49.29" ry="18"/>
<text text-anchor="middle" x="75.39" y="-158.3" font-family="FreeSans" font-size="14.00" fill="#000000">Exception</text>
</a>
</g>
</g>
<!-- X::Redeclaration&#45;&gt;Exception -->
<g id="edge1" class="edge">
<title>X::Redeclaration&#45;&gt;Exception</title>
<path fill="none" stroke="#000000" d="M69.92,-36.06C64.95,-51.55 58.39,-72 58.39,-72 58.39,-72 58.39,-108 58.39,-108 58.39,-108 62.56,-120.98 66.76,-134.1"/>
<polygon fill="#000000" stroke="#000000" points="63.53,-135.49 69.92,-143.94 70.2,-133.35 63.53,-135.49"/>
</g>
<!-- X::Comp -->
<g id="node5" class="node">
<title>X::Comp</title>
<g id="a_node5"><a xlink:href="/type/X::Comp" xlink:title="X::Comp">
<ellipse fill="none" stroke="#6666ff" cx="112.39" cy="-90" rx="44.69" ry="18"/>
<text text-anchor="middle" x="112.39" y="-86.3" font-family="FreeSans" font-size="14.00" fill="#6666ff">X::Comp</text>
</a>
</g>
</g>
<!-- X::Redeclaration&#45;&gt;X::Comp -->
<g id="edge5" class="edge">
<title>X::Redeclaration&#45;&gt;X::Comp</title>
<path fill="none" stroke="#6666ff" d="M84.35,-35.95C88.67,-44.11 93.94,-54.09 98.74,-63.18"/>
<polygon fill="#6666ff" stroke="#6666ff" points="95.75,-65.01 103.52,-72.21 101.94,-61.73 95.75,-65.01"/>
</g>
<!-- Mu -->
<g id="node2" class="node">
<title>Mu</title>
<g id="a_node2"><a xlink:href="/type/Mu" xlink:title="Mu">
<ellipse fill="none" stroke="#000000" cx="75.39" cy="-306" rx="27" ry="18"/>
<text text-anchor="middle" x="75.39" y="-302.3" font-family="FreeSans" font-size="14.00" fill="#000000">Mu</text>
</a>
</g>
</g>
<!-- Any -->
<g id="node3" class="node">
<title>Any</title>
<g id="a_node3"><a xlink:href="/type/Any" xlink:title="Any">
<ellipse fill="none" stroke="#000000" cx="75.39" cy="-234" rx="27" ry="18"/>
<text text-anchor="middle" x="75.39" y="-230.3" font-family="FreeSans" font-size="14.00" fill="#000000">Any</text>
</a>
</g>
</g>
<!-- Any&#45;&gt;Mu -->
<g id="edge2" class="edge">
<title>Any&#45;&gt;Mu</title>
<path fill="none" stroke="#000000" d="M75.39,-252.3C75.39,-260.02 75.39,-269.29 75.39,-277.89"/>
<polygon fill="#000000" stroke="#000000" points="71.89,-277.9 75.39,-287.9 78.89,-277.9 71.89,-277.9"/>
</g>
<!-- Exception&#45;&gt;Any -->
<g id="edge3" class="edge">
<title>Exception&#45;&gt;Any</title>
<path fill="none" stroke="#000000" d="M75.39,-180.3C75.39,-188.02 75.39,-197.29 75.39,-205.89"/>
<polygon fill="#000000" stroke="#000000" points="71.89,-205.9 75.39,-215.9 78.89,-205.9 71.89,-205.9"/>
</g>
<!-- X::Comp&#45;&gt;Exception -->
<g id="edge4" class="edge">
<title>X::Comp&#45;&gt;Exception</title>
<path fill="none" stroke="#000000" d="M103.44,-107.95C99.12,-116.11 93.85,-126.09 89.04,-135.18"/>
<polygon fill="#000000" stroke="#000000" points="85.85,-133.73 84.27,-144.21 92.03,-137.01 85.85,-133.73"/>
</g>
</g>
</svg>
