<?xml version="1.0" encoding="UTF-8" standalone="no"?>
<!DOCTYPE svg PUBLIC "-//W3C//DTD SVG 1.1//EN"
 "http://www.w3.org/Graphics/SVG/1.1/DTD/svg11.dtd">
<!-- Generated by graphviz version 2.43.0 (0)
 -->
<!-- Title: perl6&#45;type&#45;graph Pages: 1 -->
<svg width="291pt" height="260pt"
 viewBox="0.00 0.00 291.37 260.00" xmlns="http://www.w3.org/2000/svg" xmlns:xlink="http://www.w3.org/1999/xlink">
<g id="graph0" class="graph" transform="scale(1 1) rotate(0) translate(4 256)">
<title>perl6&#45;type&#45;graph</title>
<polygon fill="white" stroke="transparent" points="-4,4 -4,-256 287.37,-256 287.37,4 -4,4"/>
<!-- X::Scheduler::CueInNaNSeconds -->
<g id="node1" class="node">
<title>X::Scheduler::CueInNaNSeconds</title>
<g id="a_node1"><a xlink:href="/type/X::Scheduler::CueInNaNSeconds" xlink:title="X::Scheduler::CueInNaNSeconds">
<ellipse fill="none" stroke="#000000" cx="141.69" cy="-18" rx="141.88" ry="18"/>
<text text-anchor="middle" x="141.69" y="-14.3" font-family="FreeSans" font-size="14.00" fill="#000000">X::Scheduler::CueInNaNSeconds</text>
</a>
</g>
</g>
<!-- Exception -->
<g id="node4" class="node">
<title>Exception</title>
<g id="a_node4"><a xlink:href="/type/Exception" xlink:title="Exception">
<ellipse fill="none" stroke="#000000" cx="141.69" cy="-90" rx="49.29" ry="18"/>
<text text-anchor="middle" x="141.69" y="-86.3" font-family="FreeSans" font-size="14.00" fill="#000000">Exception</text>
</a>
</g>
</g>
<!-- X::Scheduler::CueInNaNSeconds&#45;&gt;Exception -->
<g id="edge1" class="edge">
<title>X::Scheduler::CueInNaNSeconds&#45;&gt;Exception</title>
<path fill="none" stroke="#000000" d="M141.69,-36.3C141.69,-44.02 141.69,-53.29 141.69,-61.89"/>
<polygon fill="#000000" stroke="#000000" points="138.19,-61.9 141.69,-71.9 145.19,-61.9 138.19,-61.9"/>
</g>
<!-- Mu -->
<g id="node2" class="node">
<title>Mu</title>
<g id="a_node2"><a xlink:href="/type/Mu" xlink:title="Mu">
<ellipse fill="none" stroke="#000000" cx="141.69" cy="-234" rx="27" ry="18"/>
<text text-anchor="middle" x="141.69" y="-230.3" font-family="FreeSans" font-size="14.00" fill="#000000">Mu</text>
</a>
</g>
</g>
<!-- Any -->
<g id="node3" class="node">
<title>Any</title>
<g id="a_node3"><a xlink:href="/type/Any" xlink:title="Any">
<ellipse fill="none" stroke="#000000" cx="141.69" cy="-162" rx="27" ry="18"/>
<text text-anchor="middle" x="141.69" y="-158.3" font-family="FreeSans" font-size="14.00" fill="#000000">Any</text>
</a>
</g>
</g>
<!-- Any&#45;&gt;Mu -->
<g id="edge2" class="edge">
<title>Any&#45;&gt;Mu</title>
<path fill="none" stroke="#000000" d="M141.69,-180.3C141.69,-188.02 141.69,-197.29 141.69,-205.89"/>
<polygon fill="#000000" stroke="#000000" points="138.19,-205.9 141.69,-215.9 145.19,-205.9 138.19,-205.9"/>
</g>
<!-- Exception&#45;&gt;Any -->
<g id="edge3" class="edge">
<title>Exception&#45;&gt;Any</title>
<path fill="none" stroke="#000000" d="M141.69,-108.3C141.69,-116.02 141.69,-125.29 141.69,-133.89"/>
<polygon fill="#000000" stroke="#000000" points="138.19,-133.9 141.69,-143.9 145.19,-133.9 138.19,-133.9"/>
</g>
</g>
</svg>
