<?xml version="1.0" encoding="UTF-8" standalone="no"?>
<!DOCTYPE svg PUBLIC "-//W3C//DTD SVG 1.1//EN"
 "http://www.w3.org/Graphics/SVG/1.1/DTD/svg11.dtd">
<!-- Generated by graphviz version 2.43.0 (0)
 -->
<!-- Title: perl6&#45;type&#45;graph Pages: 1 -->
<svg width="229pt" height="332pt"
 viewBox="0.00 0.00 228.98 332.00" xmlns="http://www.w3.org/2000/svg" xmlns:xlink="http://www.w3.org/1999/xlink">
<g id="graph0" class="graph" transform="scale(1 1) rotate(0) translate(4 328)">
<title>perl6&#45;type&#45;graph</title>
<polygon fill="white" stroke="transparent" points="-4,4 -4,-328 224.98,-328 224.98,4 -4,4"/>
<!-- X::Signature::NameClash -->
<g id="node1" class="node">
<title>X::Signature::NameClash</title>
<g id="a_node1"><a xlink:href="/type/X::Signature::NameClash" xlink:title="X::Signature::NameClash">
<ellipse fill="none" stroke="#000000" cx="110.49" cy="-18" rx="110.48" ry="18"/>
<text text-anchor="middle" x="110.49" y="-14.3" font-family="FreeSans" font-size="14.00" fill="#000000">X::Signature::NameClash</text>
</a>
</g>
</g>
<!-- Exception -->
<g id="node4" class="node">
<title>Exception</title>
<g id="a_node4"><a xlink:href="/type/Exception" xlink:title="Exception">
<ellipse fill="none" stroke="#000000" cx="110.49" cy="-162" rx="49.29" ry="18"/>
<text text-anchor="middle" x="110.49" y="-158.3" font-family="FreeSans" font-size="14.00" fill="#000000">Exception</text>
</a>
</g>
</g>
<!-- X::Signature::NameClash&#45;&gt;Exception -->
<g id="edge1" class="edge">
<title>X::Signature::NameClash&#45;&gt;Exception</title>
<path fill="none" stroke="#000000" d="M105.02,-36.06C100.05,-51.55 93.49,-72 93.49,-72 93.49,-72 93.49,-108 93.49,-108 93.49,-108 97.65,-120.98 101.86,-134.1"/>
<polygon fill="#000000" stroke="#000000" points="98.63,-135.49 105.02,-143.94 105.3,-133.35 98.63,-135.49"/>
</g>
<!-- X::Comp -->
<g id="node5" class="node">
<title>X::Comp</title>
<g id="a_node5"><a xlink:href="/type/X::Comp" xlink:title="X::Comp">
<ellipse fill="none" stroke="#6666ff" cx="147.49" cy="-90" rx="44.69" ry="18"/>
<text text-anchor="middle" x="147.49" y="-86.3" font-family="FreeSans" font-size="14.00" fill="#6666ff">X::Comp</text>
</a>
</g>
</g>
<!-- X::Signature::NameClash&#45;&gt;X::Comp -->
<g id="edge5" class="edge">
<title>X::Signature::NameClash&#45;&gt;X::Comp</title>
<path fill="none" stroke="#6666ff" d="M119.45,-35.95C123.76,-44.11 129.04,-54.09 133.84,-63.18"/>
<polygon fill="#6666ff" stroke="#6666ff" points="130.85,-65.01 138.62,-72.21 137.04,-61.73 130.85,-65.01"/>
</g>
<!-- Mu -->
<g id="node2" class="node">
<title>Mu</title>
<g id="a_node2"><a xlink:href="/type/Mu" xlink:title="Mu">
<ellipse fill="none" stroke="#000000" cx="110.49" cy="-306" rx="27" ry="18"/>
<text text-anchor="middle" x="110.49" y="-302.3" font-family="FreeSans" font-size="14.00" fill="#000000">Mu</text>
</a>
</g>
</g>
<!-- Any -->
<g id="node3" class="node">
<title>Any</title>
<g id="a_node3"><a xlink:href="/type/Any" xlink:title="Any">
<ellipse fill="none" stroke="#000000" cx="110.49" cy="-234" rx="27" ry="18"/>
<text text-anchor="middle" x="110.49" y="-230.3" font-family="FreeSans" font-size="14.00" fill="#000000">Any</text>
</a>
</g>
</g>
<!-- Any&#45;&gt;Mu -->
<g id="edge2" class="edge">
<title>Any&#45;&gt;Mu</title>
<path fill="none" stroke="#000000" d="M110.49,-252.3C110.49,-260.02 110.49,-269.29 110.49,-277.89"/>
<polygon fill="#000000" stroke="#000000" points="106.99,-277.9 110.49,-287.9 113.99,-277.9 106.99,-277.9"/>
</g>
<!-- Exception&#45;&gt;Any -->
<g id="edge3" class="edge">
<title>Exception&#45;&gt;Any</title>
<path fill="none" stroke="#000000" d="M110.49,-180.3C110.49,-188.02 110.49,-197.29 110.49,-205.89"/>
<polygon fill="#000000" stroke="#000000" points="106.99,-205.9 110.49,-215.9 113.99,-205.9 106.99,-205.9"/>
</g>
<!-- X::Comp&#45;&gt;Exception -->
<g id="edge4" class="edge">
<title>X::Comp&#45;&gt;Exception</title>
<path fill="none" stroke="#000000" d="M138.53,-107.95C134.22,-116.11 128.94,-126.09 124.14,-135.18"/>
<polygon fill="#000000" stroke="#000000" points="120.94,-133.73 119.36,-144.21 127.13,-137.01 120.94,-133.73"/>
</g>
</g>
</svg>
