<?xml version="1.0" encoding="UTF-8" standalone="no"?>
<!DOCTYPE svg PUBLIC "-//W3C//DTD SVG 1.1//EN"
 "http://www.w3.org/Graphics/SVG/1.1/DTD/svg11.dtd">
<!-- Generated by graphviz version 2.43.0 (0)
 -->
<!-- Title: perl6&#45;type&#45;graph Pages: 1 -->
<svg width="129pt" height="260pt"
 viewBox="0.00 0.00 128.89 260.00" xmlns="http://www.w3.org/2000/svg" xmlns:xlink="http://www.w3.org/1999/xlink">
<g id="graph0" class="graph" transform="scale(1 1) rotate(0) translate(4 256)">
<title>perl6&#45;type&#45;graph</title>
<polygon fill="white" stroke="transparent" points="-4,4 -4,-256 124.89,-256 124.89,4 -4,4"/>
<!-- X::StubCode -->
<g id="node1" class="node">
<title>X::StubCode</title>
<g id="a_node1"><a xlink:href="/type/X::StubCode" xlink:title="X::StubCode">
<ellipse fill="none" stroke="#000000" cx="60.44" cy="-18" rx="60.39" ry="18"/>
<text text-anchor="middle" x="60.44" y="-14.3" font-family="FreeSans" font-size="14.00" fill="#000000">X::StubCode</text>
</a>
</g>
</g>
<!-- Exception -->
<g id="node4" class="node">
<title>Exception</title>
<g id="a_node4"><a xlink:href="/type/Exception" xlink:title="Exception">
<ellipse fill="none" stroke="#000000" cx="60.44" cy="-90" rx="49.29" ry="18"/>
<text text-anchor="middle" x="60.44" y="-86.3" font-family="FreeSans" font-size="14.00" fill="#000000">Exception</text>
</a>
</g>
</g>
<!-- X::StubCode&#45;&gt;Exception -->
<g id="edge1" class="edge">
<title>X::StubCode&#45;&gt;Exception</title>
<path fill="none" stroke="#000000" d="M60.44,-36.3C60.44,-44.02 60.44,-53.29 60.44,-61.89"/>
<polygon fill="#000000" stroke="#000000" points="56.94,-61.9 60.44,-71.9 63.94,-61.9 56.94,-61.9"/>
</g>
<!-- Mu -->
<g id="node2" class="node">
<title>Mu</title>
<g id="a_node2"><a xlink:href="/type/Mu" xlink:title="Mu">
<ellipse fill="none" stroke="#000000" cx="60.44" cy="-234" rx="27" ry="18"/>
<text text-anchor="middle" x="60.44" y="-230.3" font-family="FreeSans" font-size="14.00" fill="#000000">Mu</text>
</a>
</g>
</g>
<!-- Any -->
<g id="node3" class="node">
<title>Any</title>
<g id="a_node3"><a xlink:href="/type/Any" xlink:title="Any">
<ellipse fill="none" stroke="#000000" cx="60.44" cy="-162" rx="27" ry="18"/>
<text text-anchor="middle" x="60.44" y="-158.3" font-family="FreeSans" font-size="14.00" fill="#000000">Any</text>
</a>
</g>
</g>
<!-- Any&#45;&gt;Mu -->
<g id="edge2" class="edge">
<title>Any&#45;&gt;Mu</title>
<path fill="none" stroke="#000000" d="M60.44,-180.3C60.44,-188.02 60.44,-197.29 60.44,-205.89"/>
<polygon fill="#000000" stroke="#000000" points="56.94,-205.9 60.44,-215.9 63.94,-205.9 56.94,-205.9"/>
</g>
<!-- Exception&#45;&gt;Any -->
<g id="edge3" class="edge">
<title>Exception&#45;&gt;Any</title>
<path fill="none" stroke="#000000" d="M60.44,-108.3C60.44,-116.02 60.44,-125.29 60.44,-133.89"/>
<polygon fill="#000000" stroke="#000000" points="56.94,-133.9 60.44,-143.9 63.94,-133.9 56.94,-133.9"/>
</g>
</g>
</svg>
