<?xml version="1.0" encoding="UTF-8" standalone="no"?>
<!DOCTYPE svg PUBLIC "-//W3C//DTD SVG 1.1//EN"
 "http://www.w3.org/Graphics/SVG/1.1/DTD/svg11.dtd">
<!-- Generated by graphviz version 2.43.0 (0)
 -->
<!-- Title: perl6&#45;type&#45;graph Pages: 1 -->
<svg width="281pt" height="404pt"
 viewBox="0.00 0.00 281.39 404.00" xmlns="http://www.w3.org/2000/svg" xmlns:xlink="http://www.w3.org/1999/xlink">
<g id="graph0" class="graph" transform="scale(1 1) rotate(0) translate(4 400)">
<title>perl6&#45;type&#45;graph</title>
<polygon fill="white" stroke="transparent" points="-4,4 -4,-400 277.39,-400 277.39,4 -4,4"/>
<!-- X::Syntax::BlockGobbled -->
<g id="node1" class="node">
<title>X::Syntax::BlockGobbled</title>
<g id="a_node1"><a xlink:href="/type/X::Syntax::BlockGobbled" xlink:title="X::Syntax::BlockGobbled">
<ellipse fill="none" stroke="#000000" cx="108.54" cy="-18" rx="108.58" ry="18"/>
<text text-anchor="middle" x="108.54" y="-14.3" font-family="FreeSans" font-size="14.00" fill="#000000">X::Syntax::BlockGobbled</text>
</a>
</g>
</g>
<!-- Exception -->
<g id="node4" class="node">
<title>Exception</title>
<g id="a_node4"><a xlink:href="/type/Exception" xlink:title="Exception">
<ellipse fill="none" stroke="#000000" cx="131.54" cy="-234" rx="49.29" ry="18"/>
<text text-anchor="middle" x="131.54" y="-230.3" font-family="FreeSans" font-size="14.00" fill="#000000">Exception</text>
</a>
</g>
</g>
<!-- X::Syntax::BlockGobbled&#45;&gt;Exception -->
<g id="edge1" class="edge">
<title>X::Syntax::BlockGobbled&#45;&gt;Exception</title>
<path fill="none" stroke="#000000" d="M106.51,-36.15C106.95,-73.34 116.18,-161.63 124.01,-206.23"/>
<polygon fill="#000000" stroke="#000000" points="120.57,-206.88 125.86,-216.06 127.45,-205.59 120.57,-206.88"/>
</g>
<!-- X::Syntax::BlockGobbled&#45;&gt;Exception -->
<g id="edge2" class="edge">
<title>X::Syntax::BlockGobbled&#45;&gt;Exception</title>
<path fill="none" stroke="#000000" d="M114.26,-36.15C121.78,-73.17 131.47,-160.82 133.29,-205.61"/>
<polygon fill="#000000" stroke="#000000" points="129.79,-205.87 133.57,-215.77 136.79,-205.67 129.79,-205.87"/>
</g>
<!-- X::Syntax -->
<g id="node6" class="node">
<title>X::Syntax</title>
<g id="a_node6"><a xlink:href="/type/X::Syntax" xlink:title="X::Syntax">
<ellipse fill="none" stroke="#6666ff" cx="193.54" cy="-90" rx="48.19" ry="18"/>
<text text-anchor="middle" x="193.54" y="-86.3" font-family="FreeSans" font-size="14.00" fill="#6666ff">X::Syntax</text>
</a>
</g>
</g>
<!-- X::Syntax::BlockGobbled&#45;&gt;X::Syntax -->
<g id="edge7" class="edge">
<title>X::Syntax::BlockGobbled&#45;&gt;X::Syntax</title>
<path fill="none" stroke="#6666ff" d="M129.12,-35.95C140.37,-45.22 154.46,-56.81 166.58,-66.8"/>
<polygon fill="#6666ff" stroke="#6666ff" points="164.66,-69.75 174.61,-73.41 169.11,-64.35 164.66,-69.75"/>
</g>
<!-- Mu -->
<g id="node2" class="node">
<title>Mu</title>
<g id="a_node2"><a xlink:href="/type/Mu" xlink:title="Mu">
<ellipse fill="none" stroke="#000000" cx="131.54" cy="-378" rx="27" ry="18"/>
<text text-anchor="middle" x="131.54" y="-374.3" font-family="FreeSans" font-size="14.00" fill="#000000">Mu</text>
</a>
</g>
</g>
<!-- Any -->
<g id="node3" class="node">
<title>Any</title>
<g id="a_node3"><a xlink:href="/type/Any" xlink:title="Any">
<ellipse fill="none" stroke="#000000" cx="131.54" cy="-306" rx="27" ry="18"/>
<text text-anchor="middle" x="131.54" y="-302.3" font-family="FreeSans" font-size="14.00" fill="#000000">Any</text>
</a>
</g>
</g>
<!-- Any&#45;&gt;Mu -->
<g id="edge3" class="edge">
<title>Any&#45;&gt;Mu</title>
<path fill="none" stroke="#000000" d="M131.54,-324.3C131.54,-332.02 131.54,-341.29 131.54,-349.89"/>
<polygon fill="#000000" stroke="#000000" points="128.04,-349.9 131.54,-359.9 135.04,-349.9 128.04,-349.9"/>
</g>
<!-- Exception&#45;&gt;Any -->
<g id="edge4" class="edge">
<title>Exception&#45;&gt;Any</title>
<path fill="none" stroke="#000000" d="M131.54,-252.3C131.54,-260.02 131.54,-269.29 131.54,-277.89"/>
<polygon fill="#000000" stroke="#000000" points="128.04,-277.9 131.54,-287.9 135.04,-277.9 128.04,-277.9"/>
</g>
<!-- X::Comp -->
<g id="node5" class="node">
<title>X::Comp</title>
<g id="a_node5"><a xlink:href="/type/X::Comp" xlink:title="X::Comp">
<ellipse fill="none" stroke="#6666ff" cx="228.54" cy="-162" rx="44.69" ry="18"/>
<text text-anchor="middle" x="228.54" y="-158.3" font-family="FreeSans" font-size="14.00" fill="#6666ff">X::Comp</text>
</a>
</g>
</g>
<!-- X::Comp&#45;&gt;Exception -->
<g id="edge5" class="edge">
<title>X::Comp&#45;&gt;Exception</title>
<path fill="none" stroke="#000000" d="M207.49,-178.19C193.99,-187.94 176.24,-200.74 161.3,-211.52"/>
<polygon fill="#000000" stroke="#000000" points="158.94,-208.91 152.88,-217.6 163.04,-214.59 158.94,-208.91"/>
</g>
<!-- X::Syntax&#45;&gt;Exception -->
<g id="edge6" class="edge">
<title>X::Syntax&#45;&gt;Exception</title>
<path fill="none" stroke="#000000" d="M186.18,-107.85C175.51,-132.29 155.63,-177.83 143.02,-206.71"/>
<polygon fill="#000000" stroke="#000000" points="139.68,-205.61 138.89,-216.18 146.1,-208.41 139.68,-205.61"/>
</g>
<!-- X::Syntax&#45;&gt;X::Comp -->
<g id="edge8" class="edge">
<title>X::Syntax&#45;&gt;X::Comp</title>
<path fill="none" stroke="#6666ff" d="M202.01,-107.95C206.1,-116.11 211.08,-126.09 215.63,-135.18"/>
<polygon fill="#6666ff" stroke="#6666ff" points="212.54,-136.83 220.15,-144.21 218.8,-133.7 212.54,-136.83"/>
</g>
</g>
</svg>
