<?xml version="1.0" encoding="UTF-8" standalone="no"?>
<!DOCTYPE svg PUBLIC "-//W3C//DTD SVG 1.1//EN"
 "http://www.w3.org/Graphics/SVG/1.1/DTD/svg11.dtd">
<!-- Generated by graphviz version 2.43.0 (0)
 -->
<!-- Title: perl6&#45;type&#45;graph Pages: 1 -->
<svg width="371pt" height="404pt"
 viewBox="0.00 0.00 370.67 404.00" xmlns="http://www.w3.org/2000/svg" xmlns:xlink="http://www.w3.org/1999/xlink">
<g id="graph0" class="graph" transform="scale(1 1) rotate(0) translate(4 400)">
<title>perl6&#45;type&#45;graph</title>
<polygon fill="white" stroke="transparent" points="-4,4 -4,-400 366.67,-400 366.67,4 -4,4"/>
<!-- X::Syntax::Augment::WithoutMonkeyTyping -->
<g id="node1" class="node">
<title>X::Syntax::Augment::WithoutMonkeyTyping</title>
<g id="a_node1"><a xlink:href="/type/X::Syntax::Augment::WithoutMonkeyTyping" xlink:title="X::Syntax::Augment::WithoutMonkeyTyping">
<ellipse fill="none" stroke="#000000" cx="181.33" cy="-18" rx="181.17" ry="18"/>
<text text-anchor="middle" x="181.33" y="-14.3" font-family="FreeSans" font-size="14.00" fill="#000000">X::Syntax::Augment::WithoutMonkeyTyping</text>
</a>
</g>
</g>
<!-- Exception -->
<g id="node4" class="node">
<title>Exception</title>
<g id="a_node4"><a xlink:href="/type/Exception" xlink:title="Exception">
<ellipse fill="none" stroke="#000000" cx="181.33" cy="-234" rx="49.29" ry="18"/>
<text text-anchor="middle" x="181.33" y="-230.3" font-family="FreeSans" font-size="14.00" fill="#000000">Exception</text>
</a>
</g>
</g>
<!-- X::Syntax::Augment::WithoutMonkeyTyping&#45;&gt;Exception -->
<g id="edge1" class="edge">
<title>X::Syntax::Augment::WithoutMonkeyTyping&#45;&gt;Exception</title>
<path fill="none" stroke="#000000" d="M175.22,-36.06C169.66,-51.55 162.33,-72 162.33,-72 162.33,-72 162.33,-108 162.33,-108 162.33,-108 171.61,-169.01 177.2,-205.78"/>
<polygon fill="#000000" stroke="#000000" points="173.77,-206.52 178.73,-215.88 180.69,-205.47 173.77,-206.52"/>
</g>
<!-- X::Syntax -->
<g id="node6" class="node">
<title>X::Syntax</title>
<g id="a_node6"><a xlink:href="/type/X::Syntax" xlink:title="X::Syntax">
<ellipse fill="none" stroke="#6666ff" cx="219.33" cy="-90" rx="48.19" ry="18"/>
<text text-anchor="middle" x="219.33" y="-86.3" font-family="FreeSans" font-size="14.00" fill="#6666ff">X::Syntax</text>
</a>
</g>
</g>
<!-- X::Syntax::Augment::WithoutMonkeyTyping&#45;&gt;X::Syntax -->
<g id="edge6" class="edge">
<title>X::Syntax::Augment::WithoutMonkeyTyping&#45;&gt;X::Syntax</title>
<path fill="none" stroke="#6666ff" d="M190.73,-36.3C195.1,-44.36 200.39,-54.11 205.23,-63.02"/>
<polygon fill="#6666ff" stroke="#6666ff" points="202.2,-64.78 210.05,-71.9 208.35,-61.44 202.2,-64.78"/>
</g>
<!-- Mu -->
<g id="node2" class="node">
<title>Mu</title>
<g id="a_node2"><a xlink:href="/type/Mu" xlink:title="Mu">
<ellipse fill="none" stroke="#000000" cx="181.33" cy="-378" rx="27" ry="18"/>
<text text-anchor="middle" x="181.33" y="-374.3" font-family="FreeSans" font-size="14.00" fill="#000000">Mu</text>
</a>
</g>
</g>
<!-- Any -->
<g id="node3" class="node">
<title>Any</title>
<g id="a_node3"><a xlink:href="/type/Any" xlink:title="Any">
<ellipse fill="none" stroke="#000000" cx="181.33" cy="-306" rx="27" ry="18"/>
<text text-anchor="middle" x="181.33" y="-302.3" font-family="FreeSans" font-size="14.00" fill="#000000">Any</text>
</a>
</g>
</g>
<!-- Any&#45;&gt;Mu -->
<g id="edge2" class="edge">
<title>Any&#45;&gt;Mu</title>
<path fill="none" stroke="#000000" d="M181.33,-324.3C181.33,-332.02 181.33,-341.29 181.33,-349.89"/>
<polygon fill="#000000" stroke="#000000" points="177.83,-349.9 181.33,-359.9 184.83,-349.9 177.83,-349.9"/>
</g>
<!-- Exception&#45;&gt;Any -->
<g id="edge3" class="edge">
<title>Exception&#45;&gt;Any</title>
<path fill="none" stroke="#000000" d="M181.33,-252.3C181.33,-260.02 181.33,-269.29 181.33,-277.89"/>
<polygon fill="#000000" stroke="#000000" points="177.83,-277.9 181.33,-287.9 184.83,-277.9 177.83,-277.9"/>
</g>
<!-- X::Comp -->
<g id="node5" class="node">
<title>X::Comp</title>
<g id="a_node5"><a xlink:href="/type/X::Comp" xlink:title="X::Comp">
<ellipse fill="none" stroke="#6666ff" cx="254.33" cy="-162" rx="44.69" ry="18"/>
<text text-anchor="middle" x="254.33" y="-158.3" font-family="FreeSans" font-size="14.00" fill="#6666ff">X::Comp</text>
</a>
</g>
</g>
<!-- X::Comp&#45;&gt;Exception -->
<g id="edge4" class="edge">
<title>X::Comp&#45;&gt;Exception</title>
<path fill="none" stroke="#000000" d="M237.77,-178.88C228.22,-188.04 216.05,-199.71 205.46,-209.87"/>
<polygon fill="#000000" stroke="#000000" points="202.88,-207.49 198.09,-216.94 207.73,-212.54 202.88,-207.49"/>
</g>
<!-- X::Syntax&#45;&gt;Exception -->
<g id="edge5" class="edge">
<title>X::Syntax&#45;&gt;Exception</title>
<path fill="none" stroke="#000000" d="M213.22,-108.06C207.66,-123.55 200.33,-144 200.33,-144 200.33,-144 192.68,-179.83 187.09,-206.03"/>
<polygon fill="#000000" stroke="#000000" points="183.66,-205.33 185,-215.84 190.51,-206.79 183.66,-205.33"/>
</g>
<!-- X::Syntax&#45;&gt;X::Comp -->
<g id="edge7" class="edge">
<title>X::Syntax&#45;&gt;X::Comp</title>
<path fill="none" stroke="#6666ff" d="M227.81,-107.95C231.89,-116.11 236.88,-126.09 241.42,-135.18"/>
<polygon fill="#6666ff" stroke="#6666ff" points="238.34,-136.83 245.94,-144.21 244.6,-133.7 238.34,-136.83"/>
</g>
</g>
</svg>
