<?xml version="1.0" encoding="UTF-8" standalone="no"?>
<!DOCTYPE svg PUBLIC "-//W3C//DTD SVG 1.1//EN"
 "http://www.w3.org/Graphics/SVG/1.1/DTD/svg11.dtd">
<!-- Generated by graphviz version 2.43.0 (0)
 -->
<!-- Title: perl6&#45;type&#45;graph Pages: 1 -->
<svg width="280pt" height="404pt"
 viewBox="0.00 0.00 279.68 404.00" xmlns="http://www.w3.org/2000/svg" xmlns:xlink="http://www.w3.org/1999/xlink">
<g id="graph0" class="graph" transform="scale(1 1) rotate(0) translate(4 400)">
<title>perl6&#45;type&#45;graph</title>
<polygon fill="white" stroke="transparent" points="-4,4 -4,-400 275.68,-400 275.68,4 -4,4"/>
<!-- X::Syntax::Regex::Unterminated -->
<g id="node1" class="node">
<title>X::Syntax::Regex::Unterminated</title>
<g id="a_node1"><a xlink:href="/type/X::Syntax::Regex::Unterminated" xlink:title="X::Syntax::Regex::Unterminated">
<ellipse fill="none" stroke="#000000" cx="135.84" cy="-18" rx="135.68" ry="18"/>
<text text-anchor="middle" x="135.84" y="-14.3" font-family="FreeSans" font-size="14.00" fill="#000000">X::Syntax::Regex::Unterminated</text>
</a>
</g>
</g>
<!-- Exception -->
<g id="node4" class="node">
<title>Exception</title>
<g id="a_node4"><a xlink:href="/type/Exception" xlink:title="Exception">
<ellipse fill="none" stroke="#000000" cx="135.84" cy="-234" rx="49.29" ry="18"/>
<text text-anchor="middle" x="135.84" y="-230.3" font-family="FreeSans" font-size="14.00" fill="#000000">Exception</text>
</a>
</g>
</g>
<!-- X::Syntax::Regex::Unterminated&#45;&gt;Exception -->
<g id="edge1" class="edge">
<title>X::Syntax::Regex::Unterminated&#45;&gt;Exception</title>
<path fill="none" stroke="#000000" d="M129.72,-36.06C124.17,-51.55 116.84,-72 116.84,-72 116.84,-72 116.84,-108 116.84,-108 116.84,-108 126.11,-169.01 131.7,-205.78"/>
<polygon fill="#000000" stroke="#000000" points="128.27,-206.52 133.24,-215.88 135.19,-205.47 128.27,-206.52"/>
</g>
<!-- X::Syntax -->
<g id="node6" class="node">
<title>X::Syntax</title>
<g id="a_node6"><a xlink:href="/type/X::Syntax" xlink:title="X::Syntax">
<ellipse fill="none" stroke="#6666ff" cx="173.84" cy="-90" rx="48.19" ry="18"/>
<text text-anchor="middle" x="173.84" y="-86.3" font-family="FreeSans" font-size="14.00" fill="#6666ff">X::Syntax</text>
</a>
</g>
</g>
<!-- X::Syntax::Regex::Unterminated&#45;&gt;X::Syntax -->
<g id="edge6" class="edge">
<title>X::Syntax::Regex::Unterminated&#45;&gt;X::Syntax</title>
<path fill="none" stroke="#6666ff" d="M145.23,-36.3C149.6,-44.36 154.9,-54.11 159.73,-63.02"/>
<polygon fill="#6666ff" stroke="#6666ff" points="156.71,-64.78 164.55,-71.9 162.86,-61.44 156.71,-64.78"/>
</g>
<!-- Mu -->
<g id="node2" class="node">
<title>Mu</title>
<g id="a_node2"><a xlink:href="/type/Mu" xlink:title="Mu">
<ellipse fill="none" stroke="#000000" cx="135.84" cy="-378" rx="27" ry="18"/>
<text text-anchor="middle" x="135.84" y="-374.3" font-family="FreeSans" font-size="14.00" fill="#000000">Mu</text>
</a>
</g>
</g>
<!-- Any -->
<g id="node3" class="node">
<title>Any</title>
<g id="a_node3"><a xlink:href="/type/Any" xlink:title="Any">
<ellipse fill="none" stroke="#000000" cx="135.84" cy="-306" rx="27" ry="18"/>
<text text-anchor="middle" x="135.84" y="-302.3" font-family="FreeSans" font-size="14.00" fill="#000000">Any</text>
</a>
</g>
</g>
<!-- Any&#45;&gt;Mu -->
<g id="edge2" class="edge">
<title>Any&#45;&gt;Mu</title>
<path fill="none" stroke="#000000" d="M135.84,-324.3C135.84,-332.02 135.84,-341.29 135.84,-349.89"/>
<polygon fill="#000000" stroke="#000000" points="132.34,-349.9 135.84,-359.9 139.34,-349.9 132.34,-349.9"/>
</g>
<!-- Exception&#45;&gt;Any -->
<g id="edge3" class="edge">
<title>Exception&#45;&gt;Any</title>
<path fill="none" stroke="#000000" d="M135.84,-252.3C135.84,-260.02 135.84,-269.29 135.84,-277.89"/>
<polygon fill="#000000" stroke="#000000" points="132.34,-277.9 135.84,-287.9 139.34,-277.9 132.34,-277.9"/>
</g>
<!-- X::Comp -->
<g id="node5" class="node">
<title>X::Comp</title>
<g id="a_node5"><a xlink:href="/type/X::Comp" xlink:title="X::Comp">
<ellipse fill="none" stroke="#6666ff" cx="208.84" cy="-162" rx="44.69" ry="18"/>
<text text-anchor="middle" x="208.84" y="-158.3" font-family="FreeSans" font-size="14.00" fill="#6666ff">X::Comp</text>
</a>
</g>
</g>
<!-- X::Comp&#45;&gt;Exception -->
<g id="edge4" class="edge">
<title>X::Comp&#45;&gt;Exception</title>
<path fill="none" stroke="#000000" d="M192.27,-178.88C182.73,-188.04 170.56,-199.71 159.96,-209.87"/>
<polygon fill="#000000" stroke="#000000" points="157.39,-207.49 152.59,-216.94 162.23,-212.54 157.39,-207.49"/>
</g>
<!-- X::Syntax&#45;&gt;Exception -->
<g id="edge5" class="edge">
<title>X::Syntax&#45;&gt;Exception</title>
<path fill="none" stroke="#000000" d="M167.72,-108.06C162.17,-123.55 154.84,-144 154.84,-144 154.84,-144 147.19,-179.83 141.6,-206.03"/>
<polygon fill="#000000" stroke="#000000" points="138.17,-205.33 139.5,-215.84 145.01,-206.79 138.17,-205.33"/>
</g>
<!-- X::Syntax&#45;&gt;X::Comp -->
<g id="edge7" class="edge">
<title>X::Syntax&#45;&gt;X::Comp</title>
<path fill="none" stroke="#6666ff" d="M182.31,-107.95C186.39,-116.11 191.38,-126.09 195.93,-135.18"/>
<polygon fill="#6666ff" stroke="#6666ff" points="192.84,-136.83 200.44,-144.21 199.1,-133.7 192.84,-136.83"/>
</g>
</g>
</svg>
