<?xml version="1.0" encoding="UTF-8" standalone="no"?>
<!DOCTYPE svg PUBLIC "-//W3C//DTD SVG 1.1//EN"
 "http://www.w3.org/Graphics/SVG/1.1/DTD/svg11.dtd">
<!-- Generated by graphviz version 2.43.0 (0)
 -->
<!-- Title: perl6&#45;type&#45;graph Pages: 1 -->
<svg width="295pt" height="404pt"
 viewBox="0.00 0.00 295.27 404.00" xmlns="http://www.w3.org/2000/svg" xmlns:xlink="http://www.w3.org/1999/xlink">
<g id="graph0" class="graph" transform="scale(1 1) rotate(0) translate(4 400)">
<title>perl6&#45;type&#45;graph</title>
<polygon fill="white" stroke="transparent" points="-4,4 -4,-400 291.27,-400 291.27,4 -4,4"/>
<!-- X::Syntax::Term::MissingInitializer -->
<g id="node1" class="node">
<title>X::Syntax::Term::MissingInitializer</title>
<g id="a_node1"><a xlink:href="/type/X::Syntax::Term::MissingInitializer" xlink:title="X::Syntax::Term::MissingInitializer">
<ellipse fill="none" stroke="#000000" cx="143.64" cy="-18" rx="143.77" ry="18"/>
<text text-anchor="middle" x="143.64" y="-14.3" font-family="FreeSans" font-size="14.00" fill="#000000">X::Syntax::Term::MissingInitializer</text>
</a>
</g>
</g>
<!-- Exception -->
<g id="node4" class="node">
<title>Exception</title>
<g id="a_node4"><a xlink:href="/type/Exception" xlink:title="Exception">
<ellipse fill="none" stroke="#000000" cx="143.64" cy="-234" rx="49.29" ry="18"/>
<text text-anchor="middle" x="143.64" y="-230.3" font-family="FreeSans" font-size="14.00" fill="#000000">Exception</text>
</a>
</g>
</g>
<!-- X::Syntax::Term::MissingInitializer&#45;&gt;Exception -->
<g id="edge1" class="edge">
<title>X::Syntax::Term::MissingInitializer&#45;&gt;Exception</title>
<path fill="none" stroke="#000000" d="M137.52,-36.06C131.97,-51.55 124.64,-72 124.64,-72 124.64,-72 124.64,-108 124.64,-108 124.64,-108 133.91,-169.01 139.5,-205.78"/>
<polygon fill="#000000" stroke="#000000" points="136.07,-206.52 141.04,-215.88 142.99,-205.47 136.07,-206.52"/>
</g>
<!-- X::Syntax -->
<g id="node6" class="node">
<title>X::Syntax</title>
<g id="a_node6"><a xlink:href="/type/X::Syntax" xlink:title="X::Syntax">
<ellipse fill="none" stroke="#6666ff" cx="181.64" cy="-90" rx="48.19" ry="18"/>
<text text-anchor="middle" x="181.64" y="-86.3" font-family="FreeSans" font-size="14.00" fill="#6666ff">X::Syntax</text>
</a>
</g>
</g>
<!-- X::Syntax::Term::MissingInitializer&#45;&gt;X::Syntax -->
<g id="edge6" class="edge">
<title>X::Syntax::Term::MissingInitializer&#45;&gt;X::Syntax</title>
<path fill="none" stroke="#6666ff" d="M153.03,-36.3C157.4,-44.36 162.69,-54.11 167.53,-63.02"/>
<polygon fill="#6666ff" stroke="#6666ff" points="164.51,-64.78 172.35,-71.9 170.66,-61.44 164.51,-64.78"/>
</g>
<!-- Mu -->
<g id="node2" class="node">
<title>Mu</title>
<g id="a_node2"><a xlink:href="/type/Mu" xlink:title="Mu">
<ellipse fill="none" stroke="#000000" cx="143.64" cy="-378" rx="27" ry="18"/>
<text text-anchor="middle" x="143.64" y="-374.3" font-family="FreeSans" font-size="14.00" fill="#000000">Mu</text>
</a>
</g>
</g>
<!-- Any -->
<g id="node3" class="node">
<title>Any</title>
<g id="a_node3"><a xlink:href="/type/Any" xlink:title="Any">
<ellipse fill="none" stroke="#000000" cx="143.64" cy="-306" rx="27" ry="18"/>
<text text-anchor="middle" x="143.64" y="-302.3" font-family="FreeSans" font-size="14.00" fill="#000000">Any</text>
</a>
</g>
</g>
<!-- Any&#45;&gt;Mu -->
<g id="edge2" class="edge">
<title>Any&#45;&gt;Mu</title>
<path fill="none" stroke="#000000" d="M143.64,-324.3C143.64,-332.02 143.64,-341.29 143.64,-349.89"/>
<polygon fill="#000000" stroke="#000000" points="140.14,-349.9 143.64,-359.9 147.14,-349.9 140.14,-349.9"/>
</g>
<!-- Exception&#45;&gt;Any -->
<g id="edge3" class="edge">
<title>Exception&#45;&gt;Any</title>
<path fill="none" stroke="#000000" d="M143.64,-252.3C143.64,-260.02 143.64,-269.29 143.64,-277.89"/>
<polygon fill="#000000" stroke="#000000" points="140.14,-277.9 143.64,-287.9 147.14,-277.9 140.14,-277.9"/>
</g>
<!-- X::Comp -->
<g id="node5" class="node">
<title>X::Comp</title>
<g id="a_node5"><a xlink:href="/type/X::Comp" xlink:title="X::Comp">
<ellipse fill="none" stroke="#6666ff" cx="216.64" cy="-162" rx="44.69" ry="18"/>
<text text-anchor="middle" x="216.64" y="-158.3" font-family="FreeSans" font-size="14.00" fill="#6666ff">X::Comp</text>
</a>
</g>
</g>
<!-- X::Comp&#45;&gt;Exception -->
<g id="edge4" class="edge">
<title>X::Comp&#45;&gt;Exception</title>
<path fill="none" stroke="#000000" d="M200.07,-178.88C190.53,-188.04 178.36,-199.71 167.76,-209.87"/>
<polygon fill="#000000" stroke="#000000" points="165.18,-207.49 160.39,-216.94 170.03,-212.54 165.18,-207.49"/>
</g>
<!-- X::Syntax&#45;&gt;Exception -->
<g id="edge5" class="edge">
<title>X::Syntax&#45;&gt;Exception</title>
<path fill="none" stroke="#000000" d="M175.52,-108.06C169.97,-123.55 162.64,-144 162.64,-144 162.64,-144 154.99,-179.83 149.4,-206.03"/>
<polygon fill="#000000" stroke="#000000" points="145.97,-205.33 147.3,-215.84 152.81,-206.79 145.97,-205.33"/>
</g>
<!-- X::Syntax&#45;&gt;X::Comp -->
<g id="edge7" class="edge">
<title>X::Syntax&#45;&gt;X::Comp</title>
<path fill="none" stroke="#6666ff" d="M190.11,-107.95C194.19,-116.11 199.18,-126.09 203.73,-135.18"/>
<polygon fill="#6666ff" stroke="#6666ff" points="200.64,-136.83 208.24,-144.21 206.9,-133.7 200.64,-136.83"/>
</g>
</g>
</svg>
