<?xml version="1.0" encoding="UTF-8" standalone="no"?>
<!DOCTYPE svg PUBLIC "-//W3C//DTD SVG 1.1//EN"
 "http://www.w3.org/Graphics/SVG/1.1/DTD/svg11.dtd">
<!-- Generated by graphviz version 2.43.0 (0)
 -->
<!-- Title: perl6&#45;type&#45;graph Pages: 1 -->
<svg width="229pt" height="404pt"
 viewBox="0.00 0.00 228.54 404.00" xmlns="http://www.w3.org/2000/svg" xmlns:xlink="http://www.w3.org/1999/xlink">
<g id="graph0" class="graph" transform="scale(1 1) rotate(0) translate(4 400)">
<title>perl6&#45;type&#45;graph</title>
<polygon fill="white" stroke="transparent" points="-4,4 -4,-400 224.54,-400 224.54,4 -4,4"/>
<!-- X::Syntax::NegatedPair -->
<g id="node1" class="node">
<title>X::Syntax::NegatedPair</title>
<g id="a_node1"><a xlink:href="/type/X::Syntax::NegatedPair" xlink:title="X::Syntax::NegatedPair">
<ellipse fill="none" stroke="#000000" cx="102.69" cy="-18" rx="102.88" ry="18"/>
<text text-anchor="middle" x="102.69" y="-14.3" font-family="FreeSans" font-size="14.00" fill="#000000">X::Syntax::NegatedPair</text>
</a>
</g>
</g>
<!-- Exception -->
<g id="node4" class="node">
<title>Exception</title>
<g id="a_node4"><a xlink:href="/type/Exception" xlink:title="Exception">
<ellipse fill="none" stroke="#000000" cx="102.69" cy="-234" rx="49.29" ry="18"/>
<text text-anchor="middle" x="102.69" y="-230.3" font-family="FreeSans" font-size="14.00" fill="#000000">Exception</text>
</a>
</g>
</g>
<!-- X::Syntax::NegatedPair&#45;&gt;Exception -->
<g id="edge1" class="edge">
<title>X::Syntax::NegatedPair&#45;&gt;Exception</title>
<path fill="none" stroke="#000000" d="M96.57,-36.06C91.02,-51.55 83.69,-72 83.69,-72 83.69,-72 83.69,-108 83.69,-108 83.69,-108 92.96,-169.01 98.55,-205.78"/>
<polygon fill="#000000" stroke="#000000" points="95.13,-206.52 100.09,-215.88 102.05,-205.47 95.13,-206.52"/>
</g>
<!-- X::Syntax -->
<g id="node6" class="node">
<title>X::Syntax</title>
<g id="a_node6"><a xlink:href="/type/X::Syntax" xlink:title="X::Syntax">
<ellipse fill="none" stroke="#6666ff" cx="140.69" cy="-90" rx="48.19" ry="18"/>
<text text-anchor="middle" x="140.69" y="-86.3" font-family="FreeSans" font-size="14.00" fill="#6666ff">X::Syntax</text>
</a>
</g>
</g>
<!-- X::Syntax::NegatedPair&#45;&gt;X::Syntax -->
<g id="edge6" class="edge">
<title>X::Syntax::NegatedPair&#45;&gt;X::Syntax</title>
<path fill="none" stroke="#6666ff" d="M111.89,-35.95C116.32,-44.11 121.74,-54.09 126.67,-63.18"/>
<polygon fill="#6666ff" stroke="#6666ff" points="123.73,-65.09 131.58,-72.21 129.88,-61.75 123.73,-65.09"/>
</g>
<!-- Mu -->
<g id="node2" class="node">
<title>Mu</title>
<g id="a_node2"><a xlink:href="/type/Mu" xlink:title="Mu">
<ellipse fill="none" stroke="#000000" cx="102.69" cy="-378" rx="27" ry="18"/>
<text text-anchor="middle" x="102.69" y="-374.3" font-family="FreeSans" font-size="14.00" fill="#000000">Mu</text>
</a>
</g>
</g>
<!-- Any -->
<g id="node3" class="node">
<title>Any</title>
<g id="a_node3"><a xlink:href="/type/Any" xlink:title="Any">
<ellipse fill="none" stroke="#000000" cx="102.69" cy="-306" rx="27" ry="18"/>
<text text-anchor="middle" x="102.69" y="-302.3" font-family="FreeSans" font-size="14.00" fill="#000000">Any</text>
</a>
</g>
</g>
<!-- Any&#45;&gt;Mu -->
<g id="edge2" class="edge">
<title>Any&#45;&gt;Mu</title>
<path fill="none" stroke="#000000" d="M102.69,-324.3C102.69,-332.02 102.69,-341.29 102.69,-349.89"/>
<polygon fill="#000000" stroke="#000000" points="99.19,-349.9 102.69,-359.9 106.19,-349.9 99.19,-349.9"/>
</g>
<!-- Exception&#45;&gt;Any -->
<g id="edge3" class="edge">
<title>Exception&#45;&gt;Any</title>
<path fill="none" stroke="#000000" d="M102.69,-252.3C102.69,-260.02 102.69,-269.29 102.69,-277.89"/>
<polygon fill="#000000" stroke="#000000" points="99.19,-277.9 102.69,-287.9 106.19,-277.9 99.19,-277.9"/>
</g>
<!-- X::Comp -->
<g id="node5" class="node">
<title>X::Comp</title>
<g id="a_node5"><a xlink:href="/type/X::Comp" xlink:title="X::Comp">
<ellipse fill="none" stroke="#6666ff" cx="175.69" cy="-162" rx="44.69" ry="18"/>
<text text-anchor="middle" x="175.69" y="-158.3" font-family="FreeSans" font-size="14.00" fill="#6666ff">X::Comp</text>
</a>
</g>
</g>
<!-- X::Comp&#45;&gt;Exception -->
<g id="edge4" class="edge">
<title>X::Comp&#45;&gt;Exception</title>
<path fill="none" stroke="#000000" d="M159.13,-178.88C149.58,-188.04 137.41,-199.71 126.82,-209.87"/>
<polygon fill="#000000" stroke="#000000" points="124.24,-207.49 119.44,-216.94 129.08,-212.54 124.24,-207.49"/>
</g>
<!-- X::Syntax&#45;&gt;Exception -->
<g id="edge5" class="edge">
<title>X::Syntax&#45;&gt;Exception</title>
<path fill="none" stroke="#000000" d="M134.57,-108.06C129.02,-123.55 121.69,-144 121.69,-144 121.69,-144 114.04,-179.83 108.45,-206.03"/>
<polygon fill="#000000" stroke="#000000" points="105.02,-205.33 106.35,-215.84 111.87,-206.79 105.02,-205.33"/>
</g>
<!-- X::Syntax&#45;&gt;X::Comp -->
<g id="edge7" class="edge">
<title>X::Syntax&#45;&gt;X::Comp</title>
<path fill="none" stroke="#6666ff" d="M149.16,-107.95C153.25,-116.11 158.24,-126.09 162.78,-135.18"/>
<polygon fill="#6666ff" stroke="#6666ff" points="159.69,-136.83 167.3,-144.21 165.95,-133.7 159.69,-136.83"/>
</g>
</g>
</svg>
