<?xml version="1.0" encoding="UTF-8" standalone="no"?>
<!DOCTYPE svg PUBLIC "-//W3C//DTD SVG 1.1//EN"
 "http://www.w3.org/Graphics/SVG/1.1/DTD/svg11.dtd">
<!-- Generated by graphviz version 2.43.0 (0)
 -->
<!-- Title: perl6&#45;type&#45;graph Pages: 1 -->
<svg width="311pt" height="404pt"
 viewBox="0.00 0.00 310.87 404.00" xmlns="http://www.w3.org/2000/svg" xmlns:xlink="http://www.w3.org/1999/xlink">
<g id="graph0" class="graph" transform="scale(1 1) rotate(0) translate(4 400)">
<title>perl6&#45;type&#45;graph</title>
<polygon fill="white" stroke="transparent" points="-4,4 -4,-400 306.87,-400 306.87,4 -4,4"/>
<!-- X::Syntax::Regex::SolitaryQuantifier -->
<g id="node1" class="node">
<title>X::Syntax::Regex::SolitaryQuantifier</title>
<g id="a_node1"><a xlink:href="/type/X::Syntax::Regex::SolitaryQuantifier" xlink:title="X::Syntax::Regex::SolitaryQuantifier">
<ellipse fill="none" stroke="#000000" cx="151.44" cy="-18" rx="151.37" ry="18"/>
<text text-anchor="middle" x="151.44" y="-14.3" font-family="FreeSans" font-size="14.00" fill="#000000">X::Syntax::Regex::SolitaryQuantifier</text>
</a>
</g>
</g>
<!-- Exception -->
<g id="node4" class="node">
<title>Exception</title>
<g id="a_node4"><a xlink:href="/type/Exception" xlink:title="Exception">
<ellipse fill="none" stroke="#000000" cx="151.44" cy="-234" rx="49.29" ry="18"/>
<text text-anchor="middle" x="151.44" y="-230.3" font-family="FreeSans" font-size="14.00" fill="#000000">Exception</text>
</a>
</g>
</g>
<!-- X::Syntax::Regex::SolitaryQuantifier&#45;&gt;Exception -->
<g id="edge1" class="edge">
<title>X::Syntax::Regex::SolitaryQuantifier&#45;&gt;Exception</title>
<path fill="none" stroke="#000000" d="M145.32,-36.06C139.77,-51.55 132.44,-72 132.44,-72 132.44,-72 132.44,-108 132.44,-108 132.44,-108 141.71,-169.01 147.3,-205.78"/>
<polygon fill="#000000" stroke="#000000" points="143.87,-206.52 148.83,-215.88 150.79,-205.47 143.87,-206.52"/>
</g>
<!-- X::Syntax -->
<g id="node6" class="node">
<title>X::Syntax</title>
<g id="a_node6"><a xlink:href="/type/X::Syntax" xlink:title="X::Syntax">
<ellipse fill="none" stroke="#6666ff" cx="189.44" cy="-90" rx="48.19" ry="18"/>
<text text-anchor="middle" x="189.44" y="-86.3" font-family="FreeSans" font-size="14.00" fill="#6666ff">X::Syntax</text>
</a>
</g>
</g>
<!-- X::Syntax::Regex::SolitaryQuantifier&#45;&gt;X::Syntax -->
<g id="edge6" class="edge">
<title>X::Syntax::Regex::SolitaryQuantifier&#45;&gt;X::Syntax</title>
<path fill="none" stroke="#6666ff" d="M160.83,-36.3C165.2,-44.36 170.49,-54.11 175.33,-63.02"/>
<polygon fill="#6666ff" stroke="#6666ff" points="172.3,-64.78 180.15,-71.9 178.46,-61.44 172.3,-64.78"/>
</g>
<!-- Mu -->
<g id="node2" class="node">
<title>Mu</title>
<g id="a_node2"><a xlink:href="/type/Mu" xlink:title="Mu">
<ellipse fill="none" stroke="#000000" cx="151.44" cy="-378" rx="27" ry="18"/>
<text text-anchor="middle" x="151.44" y="-374.3" font-family="FreeSans" font-size="14.00" fill="#000000">Mu</text>
</a>
</g>
</g>
<!-- Any -->
<g id="node3" class="node">
<title>Any</title>
<g id="a_node3"><a xlink:href="/type/Any" xlink:title="Any">
<ellipse fill="none" stroke="#000000" cx="151.44" cy="-306" rx="27" ry="18"/>
<text text-anchor="middle" x="151.44" y="-302.3" font-family="FreeSans" font-size="14.00" fill="#000000">Any</text>
</a>
</g>
</g>
<!-- Any&#45;&gt;Mu -->
<g id="edge2" class="edge">
<title>Any&#45;&gt;Mu</title>
<path fill="none" stroke="#000000" d="M151.44,-324.3C151.44,-332.02 151.44,-341.29 151.44,-349.89"/>
<polygon fill="#000000" stroke="#000000" points="147.94,-349.9 151.44,-359.9 154.94,-349.9 147.94,-349.9"/>
</g>
<!-- Exception&#45;&gt;Any -->
<g id="edge3" class="edge">
<title>Exception&#45;&gt;Any</title>
<path fill="none" stroke="#000000" d="M151.44,-252.3C151.44,-260.02 151.44,-269.29 151.44,-277.89"/>
<polygon fill="#000000" stroke="#000000" points="147.94,-277.9 151.44,-287.9 154.94,-277.9 147.94,-277.9"/>
</g>
<!-- X::Comp -->
<g id="node5" class="node">
<title>X::Comp</title>
<g id="a_node5"><a xlink:href="/type/X::Comp" xlink:title="X::Comp">
<ellipse fill="none" stroke="#6666ff" cx="224.44" cy="-162" rx="44.69" ry="18"/>
<text text-anchor="middle" x="224.44" y="-158.3" font-family="FreeSans" font-size="14.00" fill="#6666ff">X::Comp</text>
</a>
</g>
</g>
<!-- X::Comp&#45;&gt;Exception -->
<g id="edge4" class="edge">
<title>X::Comp&#45;&gt;Exception</title>
<path fill="none" stroke="#000000" d="M207.87,-178.88C198.33,-188.04 186.16,-199.71 175.56,-209.87"/>
<polygon fill="#000000" stroke="#000000" points="172.98,-207.49 168.19,-216.94 177.83,-212.54 172.98,-207.49"/>
</g>
<!-- X::Syntax&#45;&gt;Exception -->
<g id="edge5" class="edge">
<title>X::Syntax&#45;&gt;Exception</title>
<path fill="none" stroke="#000000" d="M183.32,-108.06C177.77,-123.55 170.44,-144 170.44,-144 170.44,-144 162.79,-179.83 157.2,-206.03"/>
<polygon fill="#000000" stroke="#000000" points="153.76,-205.33 155.1,-215.84 160.61,-206.79 153.76,-205.33"/>
</g>
<!-- X::Syntax&#45;&gt;X::Comp -->
<g id="edge7" class="edge">
<title>X::Syntax&#45;&gt;X::Comp</title>
<path fill="none" stroke="#6666ff" d="M197.91,-107.95C201.99,-116.11 206.98,-126.09 211.52,-135.18"/>
<polygon fill="#6666ff" stroke="#6666ff" points="208.44,-136.83 216.04,-144.21 214.7,-133.7 208.44,-136.83"/>
</g>
</g>
</svg>
