<?xml version="1.0" encoding="UTF-8" standalone="no"?>
<!DOCTYPE svg PUBLIC "-//W3C//DTD SVG 1.1//EN"
 "http://www.w3.org/Graphics/SVG/1.1/DTD/svg11.dtd">
<!-- Generated by graphviz version 2.43.0 (0)
 -->
<!-- Title: perl6&#45;type&#45;graph Pages: 1 -->
<svg width="242pt" height="404pt"
 viewBox="0.00 0.00 242.19 404.00" xmlns="http://www.w3.org/2000/svg" xmlns:xlink="http://www.w3.org/1999/xlink">
<g id="graph0" class="graph" transform="scale(1 1) rotate(0) translate(4 400)">
<title>perl6&#45;type&#45;graph</title>
<polygon fill="white" stroke="transparent" points="-4,4 -4,-400 238.19,-400 238.19,4 -4,4"/>
<!-- X::Syntax::Augment::Illegal -->
<g id="node1" class="node">
<title>X::Syntax::Augment::Illegal</title>
<g id="a_node1"><a xlink:href="/type/X::Syntax::Augment::Illegal" xlink:title="X::Syntax::Augment::Illegal">
<ellipse fill="none" stroke="#000000" cx="116.34" cy="-18" rx="116.18" ry="18"/>
<text text-anchor="middle" x="116.34" y="-14.3" font-family="FreeSans" font-size="14.00" fill="#000000">X::Syntax::Augment::Illegal</text>
</a>
</g>
</g>
<!-- Exception -->
<g id="node4" class="node">
<title>Exception</title>
<g id="a_node4"><a xlink:href="/type/Exception" xlink:title="Exception">
<ellipse fill="none" stroke="#000000" cx="116.34" cy="-234" rx="49.29" ry="18"/>
<text text-anchor="middle" x="116.34" y="-230.3" font-family="FreeSans" font-size="14.00" fill="#000000">Exception</text>
</a>
</g>
</g>
<!-- X::Syntax::Augment::Illegal&#45;&gt;Exception -->
<g id="edge1" class="edge">
<title>X::Syntax::Augment::Illegal&#45;&gt;Exception</title>
<path fill="none" stroke="#000000" d="M110.22,-36.06C104.67,-51.55 97.34,-72 97.34,-72 97.34,-72 97.34,-108 97.34,-108 97.34,-108 106.61,-169.01 112.2,-205.78"/>
<polygon fill="#000000" stroke="#000000" points="108.77,-206.52 113.74,-215.88 115.7,-205.47 108.77,-206.52"/>
</g>
<!-- X::Syntax -->
<g id="node6" class="node">
<title>X::Syntax</title>
<g id="a_node6"><a xlink:href="/type/X::Syntax" xlink:title="X::Syntax">
<ellipse fill="none" stroke="#6666ff" cx="154.34" cy="-90" rx="48.19" ry="18"/>
<text text-anchor="middle" x="154.34" y="-86.3" font-family="FreeSans" font-size="14.00" fill="#6666ff">X::Syntax</text>
</a>
</g>
</g>
<!-- X::Syntax::Augment::Illegal&#45;&gt;X::Syntax -->
<g id="edge6" class="edge">
<title>X::Syntax::Augment::Illegal&#45;&gt;X::Syntax</title>
<path fill="none" stroke="#6666ff" d="M125.54,-35.95C129.97,-44.11 135.39,-54.09 140.32,-63.18"/>
<polygon fill="#6666ff" stroke="#6666ff" points="137.38,-65.09 145.23,-72.21 143.53,-61.75 137.38,-65.09"/>
</g>
<!-- Mu -->
<g id="node2" class="node">
<title>Mu</title>
<g id="a_node2"><a xlink:href="/type/Mu" xlink:title="Mu">
<ellipse fill="none" stroke="#000000" cx="116.34" cy="-378" rx="27" ry="18"/>
<text text-anchor="middle" x="116.34" y="-374.3" font-family="FreeSans" font-size="14.00" fill="#000000">Mu</text>
</a>
</g>
</g>
<!-- Any -->
<g id="node3" class="node">
<title>Any</title>
<g id="a_node3"><a xlink:href="/type/Any" xlink:title="Any">
<ellipse fill="none" stroke="#000000" cx="116.34" cy="-306" rx="27" ry="18"/>
<text text-anchor="middle" x="116.34" y="-302.3" font-family="FreeSans" font-size="14.00" fill="#000000">Any</text>
</a>
</g>
</g>
<!-- Any&#45;&gt;Mu -->
<g id="edge2" class="edge">
<title>Any&#45;&gt;Mu</title>
<path fill="none" stroke="#000000" d="M116.34,-324.3C116.34,-332.02 116.34,-341.29 116.34,-349.89"/>
<polygon fill="#000000" stroke="#000000" points="112.84,-349.9 116.34,-359.9 119.84,-349.9 112.84,-349.9"/>
</g>
<!-- Exception&#45;&gt;Any -->
<g id="edge3" class="edge">
<title>Exception&#45;&gt;Any</title>
<path fill="none" stroke="#000000" d="M116.34,-252.3C116.34,-260.02 116.34,-269.29 116.34,-277.89"/>
<polygon fill="#000000" stroke="#000000" points="112.84,-277.9 116.34,-287.9 119.84,-277.9 112.84,-277.9"/>
</g>
<!-- X::Comp -->
<g id="node5" class="node">
<title>X::Comp</title>
<g id="a_node5"><a xlink:href="/type/X::Comp" xlink:title="X::Comp">
<ellipse fill="none" stroke="#6666ff" cx="189.34" cy="-162" rx="44.69" ry="18"/>
<text text-anchor="middle" x="189.34" y="-158.3" font-family="FreeSans" font-size="14.00" fill="#6666ff">X::Comp</text>
</a>
</g>
</g>
<!-- X::Comp&#45;&gt;Exception -->
<g id="edge4" class="edge">
<title>X::Comp&#45;&gt;Exception</title>
<path fill="none" stroke="#000000" d="M172.77,-178.88C163.23,-188.04 151.06,-199.71 140.47,-209.87"/>
<polygon fill="#000000" stroke="#000000" points="137.89,-207.49 133.09,-216.94 142.73,-212.54 137.89,-207.49"/>
</g>
<!-- X::Syntax&#45;&gt;Exception -->
<g id="edge5" class="edge">
<title>X::Syntax&#45;&gt;Exception</title>
<path fill="none" stroke="#000000" d="M148.22,-108.06C142.67,-123.55 135.34,-144 135.34,-144 135.34,-144 127.69,-179.83 122.1,-206.03"/>
<polygon fill="#000000" stroke="#000000" points="118.67,-205.33 120,-215.84 125.51,-206.79 118.67,-205.33"/>
</g>
<!-- X::Syntax&#45;&gt;X::Comp -->
<g id="edge7" class="edge">
<title>X::Syntax&#45;&gt;X::Comp</title>
<path fill="none" stroke="#6666ff" d="M162.81,-107.95C166.9,-116.11 171.88,-126.09 176.43,-135.18"/>
<polygon fill="#6666ff" stroke="#6666ff" points="173.34,-136.83 180.95,-144.21 179.6,-133.7 173.34,-136.83"/>
</g>
</g>
</svg>
