<?xml version="1.0" encoding="UTF-8" standalone="no"?>
<!DOCTYPE svg PUBLIC "-//W3C//DTD SVG 1.1//EN"
 "http://www.w3.org/Graphics/SVG/1.1/DTD/svg11.dtd">
<!-- Generated by graphviz version 2.43.0 (0)
 -->
<!-- Title: perl6&#45;type&#45;graph Pages: 1 -->
<svg width="272pt" height="404pt"
 viewBox="0.00 0.00 271.88 404.00" xmlns="http://www.w3.org/2000/svg" xmlns:xlink="http://www.w3.org/1999/xlink">
<g id="graph0" class="graph" transform="scale(1 1) rotate(0) translate(4 400)">
<title>perl6&#45;type&#45;graph</title>
<polygon fill="white" stroke="transparent" points="-4,4 -4,-400 267.88,-400 267.88,4 -4,4"/>
<!-- X::Syntax::Extension::Category -->
<g id="node1" class="node">
<title>X::Syntax::Extension::Category</title>
<g id="a_node1"><a xlink:href="/type/X::Syntax::Extension::Category" xlink:title="X::Syntax::Extension::Category">
<ellipse fill="none" stroke="#000000" cx="131.94" cy="-18" rx="131.88" ry="18"/>
<text text-anchor="middle" x="131.94" y="-14.3" font-family="FreeSans" font-size="14.00" fill="#000000">X::Syntax::Extension::Category</text>
</a>
</g>
</g>
<!-- Exception -->
<g id="node4" class="node">
<title>Exception</title>
<g id="a_node4"><a xlink:href="/type/Exception" xlink:title="Exception">
<ellipse fill="none" stroke="#000000" cx="131.94" cy="-234" rx="49.29" ry="18"/>
<text text-anchor="middle" x="131.94" y="-230.3" font-family="FreeSans" font-size="14.00" fill="#000000">Exception</text>
</a>
</g>
</g>
<!-- X::Syntax::Extension::Category&#45;&gt;Exception -->
<g id="edge1" class="edge">
<title>X::Syntax::Extension::Category&#45;&gt;Exception</title>
<path fill="none" stroke="#000000" d="M125.82,-36.06C120.27,-51.55 112.94,-72 112.94,-72 112.94,-72 112.94,-108 112.94,-108 112.94,-108 122.21,-169.01 127.8,-205.78"/>
<polygon fill="#000000" stroke="#000000" points="124.37,-206.52 129.34,-215.88 131.29,-205.47 124.37,-206.52"/>
</g>
<!-- X::Syntax -->
<g id="node6" class="node">
<title>X::Syntax</title>
<g id="a_node6"><a xlink:href="/type/X::Syntax" xlink:title="X::Syntax">
<ellipse fill="none" stroke="#6666ff" cx="169.94" cy="-90" rx="48.19" ry="18"/>
<text text-anchor="middle" x="169.94" y="-86.3" font-family="FreeSans" font-size="14.00" fill="#6666ff">X::Syntax</text>
</a>
</g>
</g>
<!-- X::Syntax::Extension::Category&#45;&gt;X::Syntax -->
<g id="edge6" class="edge">
<title>X::Syntax::Extension::Category&#45;&gt;X::Syntax</title>
<path fill="none" stroke="#6666ff" d="M141.33,-36.3C145.7,-44.36 151,-54.11 155.83,-63.02"/>
<polygon fill="#6666ff" stroke="#6666ff" points="152.81,-64.78 160.65,-71.9 158.96,-61.44 152.81,-64.78"/>
</g>
<!-- Mu -->
<g id="node2" class="node">
<title>Mu</title>
<g id="a_node2"><a xlink:href="/type/Mu" xlink:title="Mu">
<ellipse fill="none" stroke="#000000" cx="131.94" cy="-378" rx="27" ry="18"/>
<text text-anchor="middle" x="131.94" y="-374.3" font-family="FreeSans" font-size="14.00" fill="#000000">Mu</text>
</a>
</g>
</g>
<!-- Any -->
<g id="node3" class="node">
<title>Any</title>
<g id="a_node3"><a xlink:href="/type/Any" xlink:title="Any">
<ellipse fill="none" stroke="#000000" cx="131.94" cy="-306" rx="27" ry="18"/>
<text text-anchor="middle" x="131.94" y="-302.3" font-family="FreeSans" font-size="14.00" fill="#000000">Any</text>
</a>
</g>
</g>
<!-- Any&#45;&gt;Mu -->
<g id="edge2" class="edge">
<title>Any&#45;&gt;Mu</title>
<path fill="none" stroke="#000000" d="M131.94,-324.3C131.94,-332.02 131.94,-341.29 131.94,-349.89"/>
<polygon fill="#000000" stroke="#000000" points="128.44,-349.9 131.94,-359.9 135.44,-349.9 128.44,-349.9"/>
</g>
<!-- Exception&#45;&gt;Any -->
<g id="edge3" class="edge">
<title>Exception&#45;&gt;Any</title>
<path fill="none" stroke="#000000" d="M131.94,-252.3C131.94,-260.02 131.94,-269.29 131.94,-277.89"/>
<polygon fill="#000000" stroke="#000000" points="128.44,-277.9 131.94,-287.9 135.44,-277.9 128.44,-277.9"/>
</g>
<!-- X::Comp -->
<g id="node5" class="node">
<title>X::Comp</title>
<g id="a_node5"><a xlink:href="/type/X::Comp" xlink:title="X::Comp">
<ellipse fill="none" stroke="#6666ff" cx="204.94" cy="-162" rx="44.69" ry="18"/>
<text text-anchor="middle" x="204.94" y="-158.3" font-family="FreeSans" font-size="14.00" fill="#6666ff">X::Comp</text>
</a>
</g>
</g>
<!-- X::Comp&#45;&gt;Exception -->
<g id="edge4" class="edge">
<title>X::Comp&#45;&gt;Exception</title>
<path fill="none" stroke="#000000" d="M188.37,-178.88C178.83,-188.04 166.66,-199.71 156.06,-209.87"/>
<polygon fill="#000000" stroke="#000000" points="153.49,-207.49 148.69,-216.94 158.33,-212.54 153.49,-207.49"/>
</g>
<!-- X::Syntax&#45;&gt;Exception -->
<g id="edge5" class="edge">
<title>X::Syntax&#45;&gt;Exception</title>
<path fill="none" stroke="#000000" d="M163.82,-108.06C158.27,-123.55 150.94,-144 150.94,-144 150.94,-144 143.29,-179.83 137.7,-206.03"/>
<polygon fill="#000000" stroke="#000000" points="134.27,-205.33 135.6,-215.84 141.11,-206.79 134.27,-205.33"/>
</g>
<!-- X::Syntax&#45;&gt;X::Comp -->
<g id="edge7" class="edge">
<title>X::Syntax&#45;&gt;X::Comp</title>
<path fill="none" stroke="#6666ff" d="M178.41,-107.95C182.49,-116.11 187.48,-126.09 192.03,-135.18"/>
<polygon fill="#6666ff" stroke="#6666ff" points="188.94,-136.83 196.54,-144.21 195.2,-133.7 188.94,-136.83"/>
</g>
</g>
</svg>
