<?xml version="1.0" encoding="UTF-8" standalone="no"?>
<!DOCTYPE svg PUBLIC "-//W3C//DTD SVG 1.1//EN"
 "http://www.w3.org/Graphics/SVG/1.1/DTD/svg11.dtd">
<!-- Generated by graphviz version 2.43.0 (0)
 -->
<!-- Title: perl6&#45;type&#45;graph Pages: 1 -->
<svg width="285pt" height="404pt"
 viewBox="0.00 0.00 284.88 404.00" xmlns="http://www.w3.org/2000/svg" xmlns:xlink="http://www.w3.org/1999/xlink">
<g id="graph0" class="graph" transform="scale(1 1) rotate(0) translate(4 400)">
<title>perl6&#45;type&#45;graph</title>
<polygon fill="white" stroke="transparent" points="-4,4 -4,-400 280.88,-400 280.88,4 -4,4"/>
<!-- X::Syntax::Comment::Embedded -->
<g id="node1" class="node">
<title>X::Syntax::Comment::Embedded</title>
<g id="a_node1"><a xlink:href="/type/X::Syntax::Comment::Embedded" xlink:title="X::Syntax::Comment::Embedded">
<ellipse fill="none" stroke="#000000" cx="138.44" cy="-18" rx="138.38" ry="18"/>
<text text-anchor="middle" x="138.44" y="-14.3" font-family="FreeSans" font-size="14.00" fill="#000000">X::Syntax::Comment::Embedded</text>
</a>
</g>
</g>
<!-- Exception -->
<g id="node4" class="node">
<title>Exception</title>
<g id="a_node4"><a xlink:href="/type/Exception" xlink:title="Exception">
<ellipse fill="none" stroke="#000000" cx="138.44" cy="-234" rx="49.29" ry="18"/>
<text text-anchor="middle" x="138.44" y="-230.3" font-family="FreeSans" font-size="14.00" fill="#000000">Exception</text>
</a>
</g>
</g>
<!-- X::Syntax::Comment::Embedded&#45;&gt;Exception -->
<g id="edge1" class="edge">
<title>X::Syntax::Comment::Embedded&#45;&gt;Exception</title>
<path fill="none" stroke="#000000" d="M132.32,-36.06C126.77,-51.55 119.44,-72 119.44,-72 119.44,-72 119.44,-108 119.44,-108 119.44,-108 128.71,-169.01 134.3,-205.78"/>
<polygon fill="#000000" stroke="#000000" points="130.87,-206.52 135.84,-215.88 137.79,-205.47 130.87,-206.52"/>
</g>
<!-- X::Syntax -->
<g id="node6" class="node">
<title>X::Syntax</title>
<g id="a_node6"><a xlink:href="/type/X::Syntax" xlink:title="X::Syntax">
<ellipse fill="none" stroke="#6666ff" cx="176.44" cy="-90" rx="48.19" ry="18"/>
<text text-anchor="middle" x="176.44" y="-86.3" font-family="FreeSans" font-size="14.00" fill="#6666ff">X::Syntax</text>
</a>
</g>
</g>
<!-- X::Syntax::Comment::Embedded&#45;&gt;X::Syntax -->
<g id="edge6" class="edge">
<title>X::Syntax::Comment::Embedded&#45;&gt;X::Syntax</title>
<path fill="none" stroke="#6666ff" d="M147.83,-36.3C152.2,-44.36 157.49,-54.11 162.33,-63.02"/>
<polygon fill="#6666ff" stroke="#6666ff" points="159.31,-64.78 167.15,-71.9 165.46,-61.44 159.31,-64.78"/>
</g>
<!-- Mu -->
<g id="node2" class="node">
<title>Mu</title>
<g id="a_node2"><a xlink:href="/type/Mu" xlink:title="Mu">
<ellipse fill="none" stroke="#000000" cx="138.44" cy="-378" rx="27" ry="18"/>
<text text-anchor="middle" x="138.44" y="-374.3" font-family="FreeSans" font-size="14.00" fill="#000000">Mu</text>
</a>
</g>
</g>
<!-- Any -->
<g id="node3" class="node">
<title>Any</title>
<g id="a_node3"><a xlink:href="/type/Any" xlink:title="Any">
<ellipse fill="none" stroke="#000000" cx="138.44" cy="-306" rx="27" ry="18"/>
<text text-anchor="middle" x="138.44" y="-302.3" font-family="FreeSans" font-size="14.00" fill="#000000">Any</text>
</a>
</g>
</g>
<!-- Any&#45;&gt;Mu -->
<g id="edge2" class="edge">
<title>Any&#45;&gt;Mu</title>
<path fill="none" stroke="#000000" d="M138.44,-324.3C138.44,-332.02 138.44,-341.29 138.44,-349.89"/>
<polygon fill="#000000" stroke="#000000" points="134.94,-349.9 138.44,-359.9 141.94,-349.9 134.94,-349.9"/>
</g>
<!-- Exception&#45;&gt;Any -->
<g id="edge3" class="edge">
<title>Exception&#45;&gt;Any</title>
<path fill="none" stroke="#000000" d="M138.44,-252.3C138.44,-260.02 138.44,-269.29 138.44,-277.89"/>
<polygon fill="#000000" stroke="#000000" points="134.94,-277.9 138.44,-287.9 141.94,-277.9 134.94,-277.9"/>
</g>
<!-- X::Comp -->
<g id="node5" class="node">
<title>X::Comp</title>
<g id="a_node5"><a xlink:href="/type/X::Comp" xlink:title="X::Comp">
<ellipse fill="none" stroke="#6666ff" cx="211.44" cy="-162" rx="44.69" ry="18"/>
<text text-anchor="middle" x="211.44" y="-158.3" font-family="FreeSans" font-size="14.00" fill="#6666ff">X::Comp</text>
</a>
</g>
</g>
<!-- X::Comp&#45;&gt;Exception -->
<g id="edge4" class="edge">
<title>X::Comp&#45;&gt;Exception</title>
<path fill="none" stroke="#000000" d="M194.87,-178.88C185.33,-188.04 173.16,-199.71 162.56,-209.87"/>
<polygon fill="#000000" stroke="#000000" points="159.99,-207.49 155.19,-216.94 164.83,-212.54 159.99,-207.49"/>
</g>
<!-- X::Syntax&#45;&gt;Exception -->
<g id="edge5" class="edge">
<title>X::Syntax&#45;&gt;Exception</title>
<path fill="none" stroke="#000000" d="M170.32,-108.06C164.77,-123.55 157.44,-144 157.44,-144 157.44,-144 149.79,-179.83 144.2,-206.03"/>
<polygon fill="#000000" stroke="#000000" points="140.77,-205.33 142.1,-215.84 147.61,-206.79 140.77,-205.33"/>
</g>
<!-- X::Syntax&#45;&gt;X::Comp -->
<g id="edge7" class="edge">
<title>X::Syntax&#45;&gt;X::Comp</title>
<path fill="none" stroke="#6666ff" d="M184.91,-107.95C188.99,-116.11 193.98,-126.09 198.53,-135.18"/>
<polygon fill="#6666ff" stroke="#6666ff" points="195.44,-136.83 203.04,-144.21 201.7,-133.7 195.44,-136.83"/>
</g>
</g>
</svg>
