<?xml version="1.0" encoding="UTF-8" standalone="no"?>
<!DOCTYPE svg PUBLIC "-//W3C//DTD SVG 1.1//EN"
 "http://www.w3.org/Graphics/SVG/1.1/DTD/svg11.dtd">
<!-- Generated by graphviz version 2.43.0 (0)
 -->
<!-- Title: perl6&#45;type&#45;graph Pages: 1 -->
<svg width="337pt" height="404pt"
 viewBox="0.00 0.00 337.28 404.00" xmlns="http://www.w3.org/2000/svg" xmlns:xlink="http://www.w3.org/1999/xlink">
<g id="graph0" class="graph" transform="scale(1 1) rotate(0) translate(4 400)">
<title>perl6&#45;type&#45;graph</title>
<polygon fill="white" stroke="transparent" points="-4,4 -4,-400 333.28,-400 333.28,4 -4,4"/>
<!-- X::Syntax::Regex::SpacesInBareRange -->
<g id="node1" class="node">
<title>X::Syntax::Regex::SpacesInBareRange</title>
<g id="a_node1"><a xlink:href="/type/X::Syntax::Regex::SpacesInBareRange" xlink:title="X::Syntax::Regex::SpacesInBareRange">
<ellipse fill="none" stroke="#000000" cx="164.44" cy="-18" rx="164.37" ry="18"/>
<text text-anchor="middle" x="164.44" y="-14.3" font-family="FreeSans" font-size="14.00" fill="#000000">X::Syntax::Regex::SpacesInBareRange</text>
</a>
</g>
</g>
<!-- Exception -->
<g id="node4" class="node">
<title>Exception</title>
<g id="a_node4"><a xlink:href="/type/Exception" xlink:title="Exception">
<ellipse fill="none" stroke="#000000" cx="187.44" cy="-234" rx="49.29" ry="18"/>
<text text-anchor="middle" x="187.44" y="-230.3" font-family="FreeSans" font-size="14.00" fill="#000000">Exception</text>
</a>
</g>
</g>
<!-- X::Syntax::Regex::SpacesInBareRange&#45;&gt;Exception -->
<g id="edge1" class="edge">
<title>X::Syntax::Regex::SpacesInBareRange&#45;&gt;Exception</title>
<path fill="none" stroke="#000000" d="M162.4,-36.15C162.85,-73.34 172.08,-161.63 179.91,-206.23"/>
<polygon fill="#000000" stroke="#000000" points="176.47,-206.88 181.76,-216.06 183.35,-205.59 176.47,-206.88"/>
</g>
<!-- X::Syntax::Regex::SpacesInBareRange&#45;&gt;Exception -->
<g id="edge2" class="edge">
<title>X::Syntax::Regex::SpacesInBareRange&#45;&gt;Exception</title>
<path fill="none" stroke="#000000" d="M170.16,-36.15C177.67,-73.17 187.36,-160.82 189.18,-205.61"/>
<polygon fill="#000000" stroke="#000000" points="185.69,-205.87 189.47,-215.77 192.69,-205.67 185.69,-205.87"/>
</g>
<!-- X::Syntax -->
<g id="node6" class="node">
<title>X::Syntax</title>
<g id="a_node6"><a xlink:href="/type/X::Syntax" xlink:title="X::Syntax">
<ellipse fill="none" stroke="#6666ff" cx="249.44" cy="-90" rx="48.19" ry="18"/>
<text text-anchor="middle" x="249.44" y="-86.3" font-family="FreeSans" font-size="14.00" fill="#6666ff">X::Syntax</text>
</a>
</g>
</g>
<!-- X::Syntax::Regex::SpacesInBareRange&#45;&gt;X::Syntax -->
<g id="edge7" class="edge">
<title>X::Syntax::Regex::SpacesInBareRange&#45;&gt;X::Syntax</title>
<path fill="none" stroke="#6666ff" d="M185.01,-35.95C196.27,-45.22 210.35,-56.81 222.48,-66.8"/>
<polygon fill="#6666ff" stroke="#6666ff" points="220.56,-69.75 230.5,-73.41 225.01,-64.35 220.56,-69.75"/>
</g>
<!-- Mu -->
<g id="node2" class="node">
<title>Mu</title>
<g id="a_node2"><a xlink:href="/type/Mu" xlink:title="Mu">
<ellipse fill="none" stroke="#000000" cx="187.44" cy="-378" rx="27" ry="18"/>
<text text-anchor="middle" x="187.44" y="-374.3" font-family="FreeSans" font-size="14.00" fill="#000000">Mu</text>
</a>
</g>
</g>
<!-- Any -->
<g id="node3" class="node">
<title>Any</title>
<g id="a_node3"><a xlink:href="/type/Any" xlink:title="Any">
<ellipse fill="none" stroke="#000000" cx="187.44" cy="-306" rx="27" ry="18"/>
<text text-anchor="middle" x="187.44" y="-302.3" font-family="FreeSans" font-size="14.00" fill="#000000">Any</text>
</a>
</g>
</g>
<!-- Any&#45;&gt;Mu -->
<g id="edge3" class="edge">
<title>Any&#45;&gt;Mu</title>
<path fill="none" stroke="#000000" d="M187.44,-324.3C187.44,-332.02 187.44,-341.29 187.44,-349.89"/>
<polygon fill="#000000" stroke="#000000" points="183.94,-349.9 187.44,-359.9 190.94,-349.9 183.94,-349.9"/>
</g>
<!-- Exception&#45;&gt;Any -->
<g id="edge4" class="edge">
<title>Exception&#45;&gt;Any</title>
<path fill="none" stroke="#000000" d="M187.44,-252.3C187.44,-260.02 187.44,-269.29 187.44,-277.89"/>
<polygon fill="#000000" stroke="#000000" points="183.94,-277.9 187.44,-287.9 190.94,-277.9 183.94,-277.9"/>
</g>
<!-- X::Comp -->
<g id="node5" class="node">
<title>X::Comp</title>
<g id="a_node5"><a xlink:href="/type/X::Comp" xlink:title="X::Comp">
<ellipse fill="none" stroke="#6666ff" cx="284.44" cy="-162" rx="44.69" ry="18"/>
<text text-anchor="middle" x="284.44" y="-158.3" font-family="FreeSans" font-size="14.00" fill="#6666ff">X::Comp</text>
</a>
</g>
</g>
<!-- X::Comp&#45;&gt;Exception -->
<g id="edge5" class="edge">
<title>X::Comp&#45;&gt;Exception</title>
<path fill="none" stroke="#000000" d="M263.39,-178.19C249.88,-187.94 232.14,-200.74 217.2,-211.52"/>
<polygon fill="#000000" stroke="#000000" points="214.84,-208.91 208.78,-217.6 218.93,-214.59 214.84,-208.91"/>
</g>
<!-- X::Syntax&#45;&gt;Exception -->
<g id="edge6" class="edge">
<title>X::Syntax&#45;&gt;Exception</title>
<path fill="none" stroke="#000000" d="M242.08,-107.85C231.41,-132.29 211.52,-177.83 198.91,-206.71"/>
<polygon fill="#000000" stroke="#000000" points="195.58,-205.61 194.78,-216.18 201.99,-208.41 195.58,-205.61"/>
</g>
<!-- X::Syntax&#45;&gt;X::Comp -->
<g id="edge8" class="edge">
<title>X::Syntax&#45;&gt;X::Comp</title>
<path fill="none" stroke="#6666ff" d="M257.91,-107.95C261.99,-116.11 266.98,-126.09 271.52,-135.18"/>
<polygon fill="#6666ff" stroke="#6666ff" points="268.44,-136.83 276.04,-144.21 274.7,-133.7 268.44,-136.83"/>
</g>
</g>
</svg>
