<?xml version="1.0" encoding="UTF-8" standalone="no"?>
<!DOCTYPE svg PUBLIC "-//W3C//DTD SVG 1.1//EN"
 "http://www.w3.org/Graphics/SVG/1.1/DTD/svg11.dtd">
<!-- Generated by graphviz version 2.43.0 (0)
 -->
<!-- Title: perl6&#45;type&#45;graph Pages: 1 -->
<svg width="266pt" height="404pt"
 viewBox="0.00 0.00 265.79 404.00" xmlns="http://www.w3.org/2000/svg" xmlns:xlink="http://www.w3.org/1999/xlink">
<g id="graph0" class="graph" transform="scale(1 1) rotate(0) translate(4 400)">
<title>perl6&#45;type&#45;graph</title>
<polygon fill="white" stroke="transparent" points="-4,4 -4,-400 261.79,-400 261.79,4 -4,4"/>
<!-- X::Syntax::VirtualCall -->
<g id="node1" class="node">
<title>X::Syntax::VirtualCall</title>
<g id="a_node1"><a xlink:href="/type/X::Syntax::VirtualCall" xlink:title="X::Syntax::VirtualCall">
<ellipse fill="none" stroke="#000000" cx="92.94" cy="-18" rx="92.88" ry="18"/>
<text text-anchor="middle" x="92.94" y="-14.3" font-family="FreeSans" font-size="14.00" fill="#000000">X::Syntax::VirtualCall</text>
</a>
</g>
</g>
<!-- Exception -->
<g id="node4" class="node">
<title>Exception</title>
<g id="a_node4"><a xlink:href="/type/Exception" xlink:title="Exception">
<ellipse fill="none" stroke="#000000" cx="115.94" cy="-234" rx="49.29" ry="18"/>
<text text-anchor="middle" x="115.94" y="-230.3" font-family="FreeSans" font-size="14.00" fill="#000000">Exception</text>
</a>
</g>
</g>
<!-- X::Syntax::VirtualCall&#45;&gt;Exception -->
<g id="edge1" class="edge">
<title>X::Syntax::VirtualCall&#45;&gt;Exception</title>
<path fill="none" stroke="#000000" d="M90.91,-36.15C91.35,-73.34 100.58,-161.63 108.41,-206.23"/>
<polygon fill="#000000" stroke="#000000" points="104.98,-206.88 110.26,-216.06 111.85,-205.59 104.98,-206.88"/>
</g>
<!-- X::Syntax::VirtualCall&#45;&gt;Exception -->
<g id="edge2" class="edge">
<title>X::Syntax::VirtualCall&#45;&gt;Exception</title>
<path fill="none" stroke="#000000" d="M98.66,-36.15C106.18,-73.17 115.87,-160.82 117.69,-205.61"/>
<polygon fill="#000000" stroke="#000000" points="114.2,-205.87 117.97,-215.77 121.19,-205.67 114.2,-205.87"/>
</g>
<!-- X::Syntax -->
<g id="node6" class="node">
<title>X::Syntax</title>
<g id="a_node6"><a xlink:href="/type/X::Syntax" xlink:title="X::Syntax">
<ellipse fill="none" stroke="#6666ff" cx="177.94" cy="-90" rx="48.19" ry="18"/>
<text text-anchor="middle" x="177.94" y="-86.3" font-family="FreeSans" font-size="14.00" fill="#6666ff">X::Syntax</text>
</a>
</g>
</g>
<!-- X::Syntax::VirtualCall&#45;&gt;X::Syntax -->
<g id="edge7" class="edge">
<title>X::Syntax::VirtualCall&#45;&gt;X::Syntax</title>
<path fill="none" stroke="#6666ff" d="M113.09,-35.59C124.44,-44.94 138.78,-56.75 151.08,-66.88"/>
<polygon fill="#6666ff" stroke="#6666ff" points="148.87,-69.6 158.82,-73.25 153.32,-64.19 148.87,-69.6"/>
</g>
<!-- Mu -->
<g id="node2" class="node">
<title>Mu</title>
<g id="a_node2"><a xlink:href="/type/Mu" xlink:title="Mu">
<ellipse fill="none" stroke="#000000" cx="115.94" cy="-378" rx="27" ry="18"/>
<text text-anchor="middle" x="115.94" y="-374.3" font-family="FreeSans" font-size="14.00" fill="#000000">Mu</text>
</a>
</g>
</g>
<!-- Any -->
<g id="node3" class="node">
<title>Any</title>
<g id="a_node3"><a xlink:href="/type/Any" xlink:title="Any">
<ellipse fill="none" stroke="#000000" cx="115.94" cy="-306" rx="27" ry="18"/>
<text text-anchor="middle" x="115.94" y="-302.3" font-family="FreeSans" font-size="14.00" fill="#000000">Any</text>
</a>
</g>
</g>
<!-- Any&#45;&gt;Mu -->
<g id="edge3" class="edge">
<title>Any&#45;&gt;Mu</title>
<path fill="none" stroke="#000000" d="M115.94,-324.3C115.94,-332.02 115.94,-341.29 115.94,-349.89"/>
<polygon fill="#000000" stroke="#000000" points="112.44,-349.9 115.94,-359.9 119.44,-349.9 112.44,-349.9"/>
</g>
<!-- Exception&#45;&gt;Any -->
<g id="edge4" class="edge">
<title>Exception&#45;&gt;Any</title>
<path fill="none" stroke="#000000" d="M115.94,-252.3C115.94,-260.02 115.94,-269.29 115.94,-277.89"/>
<polygon fill="#000000" stroke="#000000" points="112.44,-277.9 115.94,-287.9 119.44,-277.9 112.44,-277.9"/>
</g>
<!-- X::Comp -->
<g id="node5" class="node">
<title>X::Comp</title>
<g id="a_node5"><a xlink:href="/type/X::Comp" xlink:title="X::Comp">
<ellipse fill="none" stroke="#6666ff" cx="212.94" cy="-162" rx="44.69" ry="18"/>
<text text-anchor="middle" x="212.94" y="-158.3" font-family="FreeSans" font-size="14.00" fill="#6666ff">X::Comp</text>
</a>
</g>
</g>
<!-- X::Comp&#45;&gt;Exception -->
<g id="edge5" class="edge">
<title>X::Comp&#45;&gt;Exception</title>
<path fill="none" stroke="#000000" d="M191.89,-178.19C178.39,-187.94 160.64,-200.74 145.7,-211.52"/>
<polygon fill="#000000" stroke="#000000" points="143.34,-208.91 137.28,-217.6 147.44,-214.59 143.34,-208.91"/>
</g>
<!-- X::Syntax&#45;&gt;Exception -->
<g id="edge6" class="edge">
<title>X::Syntax&#45;&gt;Exception</title>
<path fill="none" stroke="#000000" d="M170.59,-107.85C159.91,-132.29 140.03,-177.83 127.42,-206.71"/>
<polygon fill="#000000" stroke="#000000" points="124.08,-205.61 123.29,-216.18 130.5,-208.41 124.08,-205.61"/>
</g>
<!-- X::Syntax&#45;&gt;X::Comp -->
<g id="edge8" class="edge">
<title>X::Syntax&#45;&gt;X::Comp</title>
<path fill="none" stroke="#6666ff" d="M186.41,-107.95C190.5,-116.11 195.49,-126.09 200.03,-135.18"/>
<polygon fill="#6666ff" stroke="#6666ff" points="196.94,-136.83 204.55,-144.21 203.21,-133.7 196.94,-136.83"/>
</g>
</g>
</svg>
