<?xml version="1.0" encoding="UTF-8" standalone="no"?>
<!DOCTYPE svg PUBLIC "-//W3C//DTD SVG 1.1//EN"
 "http://www.w3.org/Graphics/SVG/1.1/DTD/svg11.dtd">
<!-- Generated by graphviz version 2.43.0 (0)
 -->
<!-- Title: perl6&#45;type&#45;graph Pages: 1 -->
<svg width="217pt" height="404pt"
 viewBox="0.00 0.00 216.84 404.00" xmlns="http://www.w3.org/2000/svg" xmlns:xlink="http://www.w3.org/1999/xlink">
<g id="graph0" class="graph" transform="scale(1 1) rotate(0) translate(4 400)">
<title>perl6&#45;type&#45;graph</title>
<polygon fill="white" stroke="transparent" points="-4,4 -4,-400 212.84,-400 212.84,4 -4,4"/>
<!-- X::Syntax::Reserved -->
<g id="node1" class="node">
<title>X::Syntax::Reserved</title>
<g id="a_node1"><a xlink:href="/type/X::Syntax::Reserved" xlink:title="X::Syntax::Reserved">
<ellipse fill="none" stroke="#000000" cx="90.99" cy="-18" rx="90.98" ry="18"/>
<text text-anchor="middle" x="90.99" y="-14.3" font-family="FreeSans" font-size="14.00" fill="#000000">X::Syntax::Reserved</text>
</a>
</g>
</g>
<!-- Exception -->
<g id="node4" class="node">
<title>Exception</title>
<g id="a_node4"><a xlink:href="/type/Exception" xlink:title="Exception">
<ellipse fill="none" stroke="#000000" cx="90.99" cy="-234" rx="49.29" ry="18"/>
<text text-anchor="middle" x="90.99" y="-230.3" font-family="FreeSans" font-size="14.00" fill="#000000">Exception</text>
</a>
</g>
</g>
<!-- X::Syntax::Reserved&#45;&gt;Exception -->
<g id="edge1" class="edge">
<title>X::Syntax::Reserved&#45;&gt;Exception</title>
<path fill="none" stroke="#000000" d="M84.88,-36.06C79.32,-51.55 71.99,-72 71.99,-72 71.99,-72 71.99,-108 71.99,-108 71.99,-108 81.27,-169.01 86.85,-205.78"/>
<polygon fill="#000000" stroke="#000000" points="83.43,-206.52 88.39,-215.88 90.35,-205.47 83.43,-206.52"/>
</g>
<!-- X::Syntax -->
<g id="node6" class="node">
<title>X::Syntax</title>
<g id="a_node6"><a xlink:href="/type/X::Syntax" xlink:title="X::Syntax">
<ellipse fill="none" stroke="#6666ff" cx="128.99" cy="-90" rx="48.19" ry="18"/>
<text text-anchor="middle" x="128.99" y="-86.3" font-family="FreeSans" font-size="14.00" fill="#6666ff">X::Syntax</text>
</a>
</g>
</g>
<!-- X::Syntax::Reserved&#45;&gt;X::Syntax -->
<g id="edge6" class="edge">
<title>X::Syntax::Reserved&#45;&gt;X::Syntax</title>
<path fill="none" stroke="#6666ff" d="M100.19,-35.95C104.62,-44.11 110.04,-54.09 114.97,-63.18"/>
<polygon fill="#6666ff" stroke="#6666ff" points="112.03,-65.09 119.88,-72.21 118.18,-61.75 112.03,-65.09"/>
</g>
<!-- Mu -->
<g id="node2" class="node">
<title>Mu</title>
<g id="a_node2"><a xlink:href="/type/Mu" xlink:title="Mu">
<ellipse fill="none" stroke="#000000" cx="90.99" cy="-378" rx="27" ry="18"/>
<text text-anchor="middle" x="90.99" y="-374.3" font-family="FreeSans" font-size="14.00" fill="#000000">Mu</text>
</a>
</g>
</g>
<!-- Any -->
<g id="node3" class="node">
<title>Any</title>
<g id="a_node3"><a xlink:href="/type/Any" xlink:title="Any">
<ellipse fill="none" stroke="#000000" cx="90.99" cy="-306" rx="27" ry="18"/>
<text text-anchor="middle" x="90.99" y="-302.3" font-family="FreeSans" font-size="14.00" fill="#000000">Any</text>
</a>
</g>
</g>
<!-- Any&#45;&gt;Mu -->
<g id="edge2" class="edge">
<title>Any&#45;&gt;Mu</title>
<path fill="none" stroke="#000000" d="M90.99,-324.3C90.99,-332.02 90.99,-341.29 90.99,-349.89"/>
<polygon fill="#000000" stroke="#000000" points="87.49,-349.9 90.99,-359.9 94.49,-349.9 87.49,-349.9"/>
</g>
<!-- Exception&#45;&gt;Any -->
<g id="edge3" class="edge">
<title>Exception&#45;&gt;Any</title>
<path fill="none" stroke="#000000" d="M90.99,-252.3C90.99,-260.02 90.99,-269.29 90.99,-277.89"/>
<polygon fill="#000000" stroke="#000000" points="87.49,-277.9 90.99,-287.9 94.49,-277.9 87.49,-277.9"/>
</g>
<!-- X::Comp -->
<g id="node5" class="node">
<title>X::Comp</title>
<g id="a_node5"><a xlink:href="/type/X::Comp" xlink:title="X::Comp">
<ellipse fill="none" stroke="#6666ff" cx="163.99" cy="-162" rx="44.69" ry="18"/>
<text text-anchor="middle" x="163.99" y="-158.3" font-family="FreeSans" font-size="14.00" fill="#6666ff">X::Comp</text>
</a>
</g>
</g>
<!-- X::Comp&#45;&gt;Exception -->
<g id="edge4" class="edge">
<title>X::Comp&#45;&gt;Exception</title>
<path fill="none" stroke="#000000" d="M147.43,-178.88C137.88,-188.04 125.71,-199.71 115.12,-209.87"/>
<polygon fill="#000000" stroke="#000000" points="112.54,-207.49 107.74,-216.94 117.38,-212.54 112.54,-207.49"/>
</g>
<!-- X::Syntax&#45;&gt;Exception -->
<g id="edge5" class="edge">
<title>X::Syntax&#45;&gt;Exception</title>
<path fill="none" stroke="#000000" d="M122.88,-108.06C117.32,-123.55 109.99,-144 109.99,-144 109.99,-144 102.34,-179.83 96.75,-206.03"/>
<polygon fill="#000000" stroke="#000000" points="93.32,-205.33 94.66,-215.84 100.17,-206.79 93.32,-205.33"/>
</g>
<!-- X::Syntax&#45;&gt;X::Comp -->
<g id="edge7" class="edge">
<title>X::Syntax&#45;&gt;X::Comp</title>
<path fill="none" stroke="#6666ff" d="M137.46,-107.95C141.55,-116.11 146.54,-126.09 151.08,-135.18"/>
<polygon fill="#6666ff" stroke="#6666ff" points="147.99,-136.83 155.6,-144.21 154.26,-133.7 147.99,-136.83"/>
</g>
</g>
</svg>
