<?xml version="1.0" encoding="UTF-8" standalone="no"?>
<!DOCTYPE svg PUBLIC "-//W3C//DTD SVG 1.1//EN"
 "http://www.w3.org/Graphics/SVG/1.1/DTD/svg11.dtd">
<!-- Generated by graphviz version 2.43.0 (0)
 -->
<!-- Title: perl6&#45;type&#45;graph Pages: 1 -->
<svg width="297pt" height="404pt"
 viewBox="0.00 0.00 296.99 404.00" xmlns="http://www.w3.org/2000/svg" xmlns:xlink="http://www.w3.org/1999/xlink">
<g id="graph0" class="graph" transform="scale(1 1) rotate(0) translate(4 400)">
<title>perl6&#45;type&#45;graph</title>
<polygon fill="white" stroke="transparent" points="-4,4 -4,-400 292.99,-400 292.99,4 -4,4"/>
<!-- X::Syntax::Regex::NullRegex -->
<g id="node1" class="node">
<title>X::Syntax::Regex::NullRegex</title>
<g id="a_node1"><a xlink:href="/type/X::Syntax::Regex::NullRegex" xlink:title="X::Syntax::Regex::NullRegex">
<ellipse fill="none" stroke="#000000" cx="124.14" cy="-18" rx="124.28" ry="18"/>
<text text-anchor="middle" x="124.14" y="-14.3" font-family="FreeSans" font-size="14.00" fill="#000000">X::Syntax::Regex::NullRegex</text>
</a>
</g>
</g>
<!-- Exception -->
<g id="node4" class="node">
<title>Exception</title>
<g id="a_node4"><a xlink:href="/type/Exception" xlink:title="Exception">
<ellipse fill="none" stroke="#000000" cx="147.14" cy="-234" rx="49.29" ry="18"/>
<text text-anchor="middle" x="147.14" y="-230.3" font-family="FreeSans" font-size="14.00" fill="#000000">Exception</text>
</a>
</g>
</g>
<!-- X::Syntax::Regex::NullRegex&#45;&gt;Exception -->
<g id="edge1" class="edge">
<title>X::Syntax::Regex::NullRegex&#45;&gt;Exception</title>
<path fill="none" stroke="#000000" d="M122.1,-36.15C122.55,-73.34 131.78,-161.63 139.61,-206.23"/>
<polygon fill="#000000" stroke="#000000" points="136.17,-206.88 141.46,-216.06 143.05,-205.59 136.17,-206.88"/>
</g>
<!-- X::Syntax::Regex::NullRegex&#45;&gt;Exception -->
<g id="edge2" class="edge">
<title>X::Syntax::Regex::NullRegex&#45;&gt;Exception</title>
<path fill="none" stroke="#000000" d="M129.86,-36.15C137.37,-73.17 147.07,-160.82 148.89,-205.61"/>
<polygon fill="#000000" stroke="#000000" points="145.39,-205.87 149.17,-215.77 152.39,-205.67 145.39,-205.87"/>
</g>
<!-- X::Syntax -->
<g id="node6" class="node">
<title>X::Syntax</title>
<g id="a_node6"><a xlink:href="/type/X::Syntax" xlink:title="X::Syntax">
<ellipse fill="none" stroke="#6666ff" cx="209.14" cy="-90" rx="48.19" ry="18"/>
<text text-anchor="middle" x="209.14" y="-86.3" font-family="FreeSans" font-size="14.00" fill="#6666ff">X::Syntax</text>
</a>
</g>
</g>
<!-- X::Syntax::Regex::NullRegex&#45;&gt;X::Syntax -->
<g id="edge7" class="edge">
<title>X::Syntax::Regex::NullRegex&#45;&gt;X::Syntax</title>
<path fill="none" stroke="#6666ff" d="M144.72,-35.95C155.97,-45.22 170.06,-56.81 182.18,-66.8"/>
<polygon fill="#6666ff" stroke="#6666ff" points="180.26,-69.75 190.21,-73.41 184.71,-64.35 180.26,-69.75"/>
</g>
<!-- Mu -->
<g id="node2" class="node">
<title>Mu</title>
<g id="a_node2"><a xlink:href="/type/Mu" xlink:title="Mu">
<ellipse fill="none" stroke="#000000" cx="147.14" cy="-378" rx="27" ry="18"/>
<text text-anchor="middle" x="147.14" y="-374.3" font-family="FreeSans" font-size="14.00" fill="#000000">Mu</text>
</a>
</g>
</g>
<!-- Any -->
<g id="node3" class="node">
<title>Any</title>
<g id="a_node3"><a xlink:href="/type/Any" xlink:title="Any">
<ellipse fill="none" stroke="#000000" cx="147.14" cy="-306" rx="27" ry="18"/>
<text text-anchor="middle" x="147.14" y="-302.3" font-family="FreeSans" font-size="14.00" fill="#000000">Any</text>
</a>
</g>
</g>
<!-- Any&#45;&gt;Mu -->
<g id="edge3" class="edge">
<title>Any&#45;&gt;Mu</title>
<path fill="none" stroke="#000000" d="M147.14,-324.3C147.14,-332.02 147.14,-341.29 147.14,-349.89"/>
<polygon fill="#000000" stroke="#000000" points="143.64,-349.9 147.14,-359.9 150.64,-349.9 143.64,-349.9"/>
</g>
<!-- Exception&#45;&gt;Any -->
<g id="edge4" class="edge">
<title>Exception&#45;&gt;Any</title>
<path fill="none" stroke="#000000" d="M147.14,-252.3C147.14,-260.02 147.14,-269.29 147.14,-277.89"/>
<polygon fill="#000000" stroke="#000000" points="143.64,-277.9 147.14,-287.9 150.64,-277.9 143.64,-277.9"/>
</g>
<!-- X::Comp -->
<g id="node5" class="node">
<title>X::Comp</title>
<g id="a_node5"><a xlink:href="/type/X::Comp" xlink:title="X::Comp">
<ellipse fill="none" stroke="#6666ff" cx="244.14" cy="-162" rx="44.69" ry="18"/>
<text text-anchor="middle" x="244.14" y="-158.3" font-family="FreeSans" font-size="14.00" fill="#6666ff">X::Comp</text>
</a>
</g>
</g>
<!-- X::Comp&#45;&gt;Exception -->
<g id="edge5" class="edge">
<title>X::Comp&#45;&gt;Exception</title>
<path fill="none" stroke="#000000" d="M223.09,-178.19C209.58,-187.94 191.84,-200.74 176.9,-211.52"/>
<polygon fill="#000000" stroke="#000000" points="174.54,-208.91 168.48,-217.6 178.64,-214.59 174.54,-208.91"/>
</g>
<!-- X::Syntax&#45;&gt;Exception -->
<g id="edge6" class="edge">
<title>X::Syntax&#45;&gt;Exception</title>
<path fill="none" stroke="#000000" d="M201.78,-107.85C191.11,-132.29 171.23,-177.83 158.62,-206.71"/>
<polygon fill="#000000" stroke="#000000" points="155.28,-205.61 154.49,-216.18 161.69,-208.41 155.28,-205.61"/>
</g>
<!-- X::Syntax&#45;&gt;X::Comp -->
<g id="edge8" class="edge">
<title>X::Syntax&#45;&gt;X::Comp</title>
<path fill="none" stroke="#6666ff" d="M217.61,-107.95C221.7,-116.11 226.68,-126.09 231.23,-135.18"/>
<polygon fill="#6666ff" stroke="#6666ff" points="228.14,-136.83 235.74,-144.21 234.4,-133.7 228.14,-136.83"/>
</g>
</g>
</svg>
