<?xml version="1.0" encoding="UTF-8" standalone="no"?>
<!DOCTYPE svg PUBLIC "-//W3C//DTD SVG 1.1//EN"
 "http://www.w3.org/Graphics/SVG/1.1/DTD/svg11.dtd">
<!-- Generated by graphviz version 2.43.0 (0)
 -->
<!-- Title: perl6&#45;type&#45;graph Pages: 1 -->
<svg width="315pt" height="404pt"
 viewBox="0.00 0.00 314.53 404.00" xmlns="http://www.w3.org/2000/svg" xmlns:xlink="http://www.w3.org/1999/xlink">
<g id="graph0" class="graph" transform="scale(1 1) rotate(0) translate(4 400)">
<title>perl6&#45;type&#45;graph</title>
<polygon fill="white" stroke="transparent" points="-4,4 -4,-400 310.53,-400 310.53,4 -4,4"/>
<!-- X::Syntax::Argument::MOPMacro -->
<g id="node1" class="node">
<title>X::Syntax::Argument::MOPMacro</title>
<g id="a_node1"><a xlink:href="/type/X::Syntax::Argument::MOPMacro" xlink:title="X::Syntax::Argument::MOPMacro">
<ellipse fill="none" stroke="#000000" cx="141.69" cy="-18" rx="141.88" ry="18"/>
<text text-anchor="middle" x="141.69" y="-14.3" font-family="FreeSans" font-size="14.00" fill="#000000">X::Syntax::Argument::MOPMacro</text>
</a>
</g>
</g>
<!-- Exception -->
<g id="node4" class="node">
<title>Exception</title>
<g id="a_node4"><a xlink:href="/type/Exception" xlink:title="Exception">
<ellipse fill="none" stroke="#000000" cx="164.69" cy="-234" rx="49.29" ry="18"/>
<text text-anchor="middle" x="164.69" y="-230.3" font-family="FreeSans" font-size="14.00" fill="#000000">Exception</text>
</a>
</g>
</g>
<!-- X::Syntax::Argument::MOPMacro&#45;&gt;Exception -->
<g id="edge1" class="edge">
<title>X::Syntax::Argument::MOPMacro&#45;&gt;Exception</title>
<path fill="none" stroke="#000000" d="M139.65,-36.15C140.1,-73.34 149.33,-161.63 157.16,-206.23"/>
<polygon fill="#000000" stroke="#000000" points="153.72,-206.88 159.01,-216.06 160.6,-205.59 153.72,-206.88"/>
</g>
<!-- X::Syntax::Argument::MOPMacro&#45;&gt;Exception -->
<g id="edge2" class="edge">
<title>X::Syntax::Argument::MOPMacro&#45;&gt;Exception</title>
<path fill="none" stroke="#000000" d="M147.41,-36.15C154.92,-73.17 164.61,-160.82 166.44,-205.61"/>
<polygon fill="#000000" stroke="#000000" points="162.94,-205.87 166.72,-215.77 169.94,-205.67 162.94,-205.87"/>
</g>
<!-- X::Syntax -->
<g id="node6" class="node">
<title>X::Syntax</title>
<g id="a_node6"><a xlink:href="/type/X::Syntax" xlink:title="X::Syntax">
<ellipse fill="none" stroke="#6666ff" cx="226.69" cy="-90" rx="48.19" ry="18"/>
<text text-anchor="middle" x="226.69" y="-86.3" font-family="FreeSans" font-size="14.00" fill="#6666ff">X::Syntax</text>
</a>
</g>
</g>
<!-- X::Syntax::Argument::MOPMacro&#45;&gt;X::Syntax -->
<g id="edge7" class="edge">
<title>X::Syntax::Argument::MOPMacro&#45;&gt;X::Syntax</title>
<path fill="none" stroke="#6666ff" d="M162.26,-35.95C173.52,-45.22 187.6,-56.81 199.73,-66.8"/>
<polygon fill="#6666ff" stroke="#6666ff" points="197.81,-69.75 207.75,-73.41 202.26,-64.35 197.81,-69.75"/>
</g>
<!-- Mu -->
<g id="node2" class="node">
<title>Mu</title>
<g id="a_node2"><a xlink:href="/type/Mu" xlink:title="Mu">
<ellipse fill="none" stroke="#000000" cx="164.69" cy="-378" rx="27" ry="18"/>
<text text-anchor="middle" x="164.69" y="-374.3" font-family="FreeSans" font-size="14.00" fill="#000000">Mu</text>
</a>
</g>
</g>
<!-- Any -->
<g id="node3" class="node">
<title>Any</title>
<g id="a_node3"><a xlink:href="/type/Any" xlink:title="Any">
<ellipse fill="none" stroke="#000000" cx="164.69" cy="-306" rx="27" ry="18"/>
<text text-anchor="middle" x="164.69" y="-302.3" font-family="FreeSans" font-size="14.00" fill="#000000">Any</text>
</a>
</g>
</g>
<!-- Any&#45;&gt;Mu -->
<g id="edge3" class="edge">
<title>Any&#45;&gt;Mu</title>
<path fill="none" stroke="#000000" d="M164.69,-324.3C164.69,-332.02 164.69,-341.29 164.69,-349.89"/>
<polygon fill="#000000" stroke="#000000" points="161.19,-349.9 164.69,-359.9 168.19,-349.9 161.19,-349.9"/>
</g>
<!-- Exception&#45;&gt;Any -->
<g id="edge4" class="edge">
<title>Exception&#45;&gt;Any</title>
<path fill="none" stroke="#000000" d="M164.69,-252.3C164.69,-260.02 164.69,-269.29 164.69,-277.89"/>
<polygon fill="#000000" stroke="#000000" points="161.19,-277.9 164.69,-287.9 168.19,-277.9 161.19,-277.9"/>
</g>
<!-- X::Comp -->
<g id="node5" class="node">
<title>X::Comp</title>
<g id="a_node5"><a xlink:href="/type/X::Comp" xlink:title="X::Comp">
<ellipse fill="none" stroke="#6666ff" cx="261.69" cy="-162" rx="44.69" ry="18"/>
<text text-anchor="middle" x="261.69" y="-158.3" font-family="FreeSans" font-size="14.00" fill="#6666ff">X::Comp</text>
</a>
</g>
</g>
<!-- X::Comp&#45;&gt;Exception -->
<g id="edge5" class="edge">
<title>X::Comp&#45;&gt;Exception</title>
<path fill="none" stroke="#000000" d="M240.64,-178.19C227.13,-187.94 209.39,-200.74 194.45,-211.52"/>
<polygon fill="#000000" stroke="#000000" points="192.09,-208.91 186.03,-217.6 196.19,-214.59 192.09,-208.91"/>
</g>
<!-- X::Syntax&#45;&gt;Exception -->
<g id="edge6" class="edge">
<title>X::Syntax&#45;&gt;Exception</title>
<path fill="none" stroke="#000000" d="M219.33,-107.85C208.66,-132.29 188.78,-177.83 176.16,-206.71"/>
<polygon fill="#000000" stroke="#000000" points="172.83,-205.61 172.03,-216.18 179.24,-208.41 172.83,-205.61"/>
</g>
<!-- X::Syntax&#45;&gt;X::Comp -->
<g id="edge8" class="edge">
<title>X::Syntax&#45;&gt;X::Comp</title>
<path fill="none" stroke="#6666ff" d="M235.16,-107.95C239.24,-116.11 244.23,-126.09 248.78,-135.18"/>
<polygon fill="#6666ff" stroke="#6666ff" points="245.69,-136.83 253.29,-144.21 251.95,-133.7 245.69,-136.83"/>
</g>
</g>
</svg>
