<?xml version="1.0" encoding="UTF-8" standalone="no"?>
<!DOCTYPE svg PUBLIC "-//W3C//DTD SVG 1.1//EN"
 "http://www.w3.org/Graphics/SVG/1.1/DTD/svg11.dtd">
<!-- Generated by graphviz version 2.43.0 (0)
 -->
<!-- Title: perl6&#45;type&#45;graph Pages: 1 -->
<svg width="291pt" height="404pt"
 viewBox="0.00 0.00 291.14 404.00" xmlns="http://www.w3.org/2000/svg" xmlns:xlink="http://www.w3.org/1999/xlink">
<g id="graph0" class="graph" transform="scale(1 1) rotate(0) translate(4 400)">
<title>perl6&#45;type&#45;graph</title>
<polygon fill="white" stroke="transparent" points="-4,4 -4,-400 287.14,-400 287.14,4 -4,4"/>
<!-- X::Syntax::Regex::Unspace -->
<g id="node1" class="node">
<title>X::Syntax::Regex::Unspace</title>
<g id="a_node1"><a xlink:href="/type/X::Syntax::Regex::Unspace" xlink:title="X::Syntax::Regex::Unspace">
<ellipse fill="none" stroke="#000000" cx="118.29" cy="-18" rx="118.08" ry="18"/>
<text text-anchor="middle" x="118.29" y="-14.3" font-family="FreeSans" font-size="14.00" fill="#000000">X::Syntax::Regex::Unspace</text>
</a>
</g>
</g>
<!-- Exception -->
<g id="node4" class="node">
<title>Exception</title>
<g id="a_node4"><a xlink:href="/type/Exception" xlink:title="Exception">
<ellipse fill="none" stroke="#000000" cx="141.29" cy="-234" rx="49.29" ry="18"/>
<text text-anchor="middle" x="141.29" y="-230.3" font-family="FreeSans" font-size="14.00" fill="#000000">Exception</text>
</a>
</g>
</g>
<!-- X::Syntax::Regex::Unspace&#45;&gt;Exception -->
<g id="edge1" class="edge">
<title>X::Syntax::Regex::Unspace&#45;&gt;Exception</title>
<path fill="none" stroke="#000000" d="M116.26,-36.15C116.7,-73.34 125.93,-161.63 133.76,-206.23"/>
<polygon fill="#000000" stroke="#000000" points="130.32,-206.88 135.61,-216.06 137.2,-205.59 130.32,-206.88"/>
</g>
<!-- X::Syntax::Regex::Unspace&#45;&gt;Exception -->
<g id="edge2" class="edge">
<title>X::Syntax::Regex::Unspace&#45;&gt;Exception</title>
<path fill="none" stroke="#000000" d="M124.01,-36.15C131.52,-73.17 141.22,-160.82 143.04,-205.61"/>
<polygon fill="#000000" stroke="#000000" points="139.54,-205.87 143.32,-215.77 146.54,-205.67 139.54,-205.87"/>
</g>
<!-- X::Syntax -->
<g id="node6" class="node">
<title>X::Syntax</title>
<g id="a_node6"><a xlink:href="/type/X::Syntax" xlink:title="X::Syntax">
<ellipse fill="none" stroke="#6666ff" cx="203.29" cy="-90" rx="48.19" ry="18"/>
<text text-anchor="middle" x="203.29" y="-86.3" font-family="FreeSans" font-size="14.00" fill="#6666ff">X::Syntax</text>
</a>
</g>
</g>
<!-- X::Syntax::Regex::Unspace&#45;&gt;X::Syntax -->
<g id="edge7" class="edge">
<title>X::Syntax::Regex::Unspace&#45;&gt;X::Syntax</title>
<path fill="none" stroke="#6666ff" d="M138.87,-35.95C150.12,-45.22 164.21,-56.81 176.33,-66.8"/>
<polygon fill="#6666ff" stroke="#6666ff" points="174.41,-69.75 184.36,-73.41 178.86,-64.35 174.41,-69.75"/>
</g>
<!-- Mu -->
<g id="node2" class="node">
<title>Mu</title>
<g id="a_node2"><a xlink:href="/type/Mu" xlink:title="Mu">
<ellipse fill="none" stroke="#000000" cx="141.29" cy="-378" rx="27" ry="18"/>
<text text-anchor="middle" x="141.29" y="-374.3" font-family="FreeSans" font-size="14.00" fill="#000000">Mu</text>
</a>
</g>
</g>
<!-- Any -->
<g id="node3" class="node">
<title>Any</title>
<g id="a_node3"><a xlink:href="/type/Any" xlink:title="Any">
<ellipse fill="none" stroke="#000000" cx="141.29" cy="-306" rx="27" ry="18"/>
<text text-anchor="middle" x="141.29" y="-302.3" font-family="FreeSans" font-size="14.00" fill="#000000">Any</text>
</a>
</g>
</g>
<!-- Any&#45;&gt;Mu -->
<g id="edge3" class="edge">
<title>Any&#45;&gt;Mu</title>
<path fill="none" stroke="#000000" d="M141.29,-324.3C141.29,-332.02 141.29,-341.29 141.29,-349.89"/>
<polygon fill="#000000" stroke="#000000" points="137.79,-349.9 141.29,-359.9 144.79,-349.9 137.79,-349.9"/>
</g>
<!-- Exception&#45;&gt;Any -->
<g id="edge4" class="edge">
<title>Exception&#45;&gt;Any</title>
<path fill="none" stroke="#000000" d="M141.29,-252.3C141.29,-260.02 141.29,-269.29 141.29,-277.89"/>
<polygon fill="#000000" stroke="#000000" points="137.79,-277.9 141.29,-287.9 144.79,-277.9 137.79,-277.9"/>
</g>
<!-- X::Comp -->
<g id="node5" class="node">
<title>X::Comp</title>
<g id="a_node5"><a xlink:href="/type/X::Comp" xlink:title="X::Comp">
<ellipse fill="none" stroke="#6666ff" cx="238.29" cy="-162" rx="44.69" ry="18"/>
<text text-anchor="middle" x="238.29" y="-158.3" font-family="FreeSans" font-size="14.00" fill="#6666ff">X::Comp</text>
</a>
</g>
</g>
<!-- X::Comp&#45;&gt;Exception -->
<g id="edge5" class="edge">
<title>X::Comp&#45;&gt;Exception</title>
<path fill="none" stroke="#000000" d="M217.24,-178.19C203.73,-187.94 185.99,-200.74 171.05,-211.52"/>
<polygon fill="#000000" stroke="#000000" points="168.69,-208.91 162.63,-217.6 172.79,-214.59 168.69,-208.91"/>
</g>
<!-- X::Syntax&#45;&gt;Exception -->
<g id="edge6" class="edge">
<title>X::Syntax&#45;&gt;Exception</title>
<path fill="none" stroke="#000000" d="M195.93,-107.85C185.26,-132.29 165.38,-177.83 152.77,-206.71"/>
<polygon fill="#000000" stroke="#000000" points="149.43,-205.61 148.64,-216.18 155.84,-208.41 149.43,-205.61"/>
</g>
<!-- X::Syntax&#45;&gt;X::Comp -->
<g id="edge8" class="edge">
<title>X::Syntax&#45;&gt;X::Comp</title>
<path fill="none" stroke="#6666ff" d="M211.76,-107.95C215.85,-116.11 220.83,-126.09 225.38,-135.18"/>
<polygon fill="#6666ff" stroke="#6666ff" points="222.29,-136.83 229.9,-144.21 228.55,-133.7 222.29,-136.83"/>
</g>
</g>
</svg>
