<?xml version="1.0" encoding="UTF-8" standalone="no"?>
<!DOCTYPE svg PUBLIC "-//W3C//DTD SVG 1.1//EN"
 "http://www.w3.org/Graphics/SVG/1.1/DTD/svg11.dtd">
<!-- Generated by graphviz version 2.43.0 (0)
 -->
<!-- Title: perl6&#45;type&#45;graph Pages: 1 -->
<svg width="350pt" height="404pt"
 viewBox="0.00 0.00 350.28 404.00" xmlns="http://www.w3.org/2000/svg" xmlns:xlink="http://www.w3.org/1999/xlink">
<g id="graph0" class="graph" transform="scale(1 1) rotate(0) translate(4 400)">
<title>perl6&#45;type&#45;graph</title>
<polygon fill="white" stroke="transparent" points="-4,4 -4,-400 346.28,-400 346.28,4 -4,4"/>
<!-- X::Syntax::Pod::BeginWithoutIdentifier -->
<g id="node1" class="node">
<title>X::Syntax::Pod::BeginWithoutIdentifier</title>
<g id="a_node1"><a xlink:href="/type/X::Syntax::Pod::BeginWithoutIdentifier" xlink:title="X::Syntax::Pod::BeginWithoutIdentifier">
<ellipse fill="none" stroke="#000000" cx="159.24" cy="-18" rx="159.47" ry="18"/>
<text text-anchor="middle" x="159.24" y="-14.3" font-family="FreeSans" font-size="14.00" fill="#000000">X::Syntax::Pod::BeginWithoutIdentifier</text>
</a>
</g>
</g>
<!-- Exception -->
<g id="node4" class="node">
<title>Exception</title>
<g id="a_node4"><a xlink:href="/type/Exception" xlink:title="Exception">
<ellipse fill="none" stroke="#000000" cx="140.24" cy="-234" rx="49.29" ry="18"/>
<text text-anchor="middle" x="140.24" y="-230.3" font-family="FreeSans" font-size="14.00" fill="#000000">Exception</text>
</a>
</g>
</g>
<!-- X::Syntax::Pod::BeginWithoutIdentifier&#45;&gt;Exception -->
<g id="edge1" class="edge">
<title>X::Syntax::Pod::BeginWithoutIdentifier&#45;&gt;Exception</title>
<path fill="none" stroke="#000000" d="M147.89,-36.06C141.64,-51.55 136.24,-72 136.24,-72 136.24,-72 133.51,-159.62 135.7,-205.59"/>
<polygon fill="#000000" stroke="#000000" points="132.22,-206 136.33,-215.77 139.21,-205.57 132.22,-206"/>
</g>
<!-- X::Syntax::Pod::BeginWithoutIdentifier&#45;&gt;Exception -->
<g id="edge2" class="edge">
<title>X::Syntax::Pod::BeginWithoutIdentifier&#45;&gt;Exception</title>
<path fill="none" stroke="#000000" d="M161.57,-36.06C159.64,-51.55 154.24,-72 154.24,-72 154.24,-72 151.5,-160.05 146.44,-205.92"/>
<polygon fill="#000000" stroke="#000000" points="142.94,-205.72 145.17,-216.07 149.88,-206.58 142.94,-205.72"/>
</g>
<!-- X::Syntax -->
<g id="node6" class="node">
<title>X::Syntax</title>
<g id="a_node6"><a xlink:href="/type/X::Syntax" xlink:title="X::Syntax">
<ellipse fill="none" stroke="#6666ff" cx="202.24" cy="-90" rx="48.19" ry="18"/>
<text text-anchor="middle" x="202.24" y="-86.3" font-family="FreeSans" font-size="14.00" fill="#6666ff">X::Syntax</text>
</a>
</g>
</g>
<!-- X::Syntax::Pod::BeginWithoutIdentifier&#45;&gt;X::Syntax -->
<g id="edge7" class="edge">
<title>X::Syntax::Pod::BeginWithoutIdentifier&#45;&gt;X::Syntax</title>
<path fill="none" stroke="#6666ff" d="M169.87,-36.3C174.94,-44.56 181.11,-54.61 186.69,-63.7"/>
<polygon fill="#6666ff" stroke="#6666ff" points="183.81,-65.69 192.03,-72.38 189.77,-62.02 183.81,-65.69"/>
</g>
<!-- X::Pod -->
<g id="node7" class="node">
<title>X::Pod</title>
<g id="a_node7"><a xlink:href="/type/X::Pod" xlink:title="X::Pod">
<ellipse fill="none" stroke="#6666ff" cx="305.24" cy="-90" rx="37.09" ry="18"/>
<text text-anchor="middle" x="305.24" y="-86.3" font-family="FreeSans" font-size="14.00" fill="#6666ff">X::Pod</text>
</a>
</g>
</g>
<!-- X::Syntax::Pod::BeginWithoutIdentifier&#45;&gt;X::Pod -->
<g id="edge8" class="edge">
<title>X::Syntax::Pod::BeginWithoutIdentifier&#45;&gt;X::Pod</title>
<path fill="none" stroke="#6666ff" d="M193.84,-35.59C216.96,-46.68 247.27,-61.21 270.43,-72.31"/>
<polygon fill="#6666ff" stroke="#6666ff" points="269.03,-75.52 279.56,-76.69 272.06,-69.21 269.03,-75.52"/>
</g>
<!-- Mu -->
<g id="node2" class="node">
<title>Mu</title>
<g id="a_node2"><a xlink:href="/type/Mu" xlink:title="Mu">
<ellipse fill="none" stroke="#000000" cx="140.24" cy="-378" rx="27" ry="18"/>
<text text-anchor="middle" x="140.24" y="-374.3" font-family="FreeSans" font-size="14.00" fill="#000000">Mu</text>
</a>
</g>
</g>
<!-- Any -->
<g id="node3" class="node">
<title>Any</title>
<g id="a_node3"><a xlink:href="/type/Any" xlink:title="Any">
<ellipse fill="none" stroke="#000000" cx="140.24" cy="-306" rx="27" ry="18"/>
<text text-anchor="middle" x="140.24" y="-302.3" font-family="FreeSans" font-size="14.00" fill="#000000">Any</text>
</a>
</g>
</g>
<!-- Any&#45;&gt;Mu -->
<g id="edge3" class="edge">
<title>Any&#45;&gt;Mu</title>
<path fill="none" stroke="#000000" d="M140.24,-324.3C140.24,-332.02 140.24,-341.29 140.24,-349.89"/>
<polygon fill="#000000" stroke="#000000" points="136.74,-349.9 140.24,-359.9 143.74,-349.9 136.74,-349.9"/>
</g>
<!-- Exception&#45;&gt;Any -->
<g id="edge4" class="edge">
<title>Exception&#45;&gt;Any</title>
<path fill="none" stroke="#000000" d="M140.24,-252.3C140.24,-260.02 140.24,-269.29 140.24,-277.89"/>
<polygon fill="#000000" stroke="#000000" points="136.74,-277.9 140.24,-287.9 143.74,-277.9 136.74,-277.9"/>
</g>
<!-- X::Comp -->
<g id="node5" class="node">
<title>X::Comp</title>
<g id="a_node5"><a xlink:href="/type/X::Comp" xlink:title="X::Comp">
<ellipse fill="none" stroke="#6666ff" cx="237.24" cy="-162" rx="44.69" ry="18"/>
<text text-anchor="middle" x="237.24" y="-158.3" font-family="FreeSans" font-size="14.00" fill="#6666ff">X::Comp</text>
</a>
</g>
</g>
<!-- X::Comp&#45;&gt;Exception -->
<g id="edge5" class="edge">
<title>X::Comp&#45;&gt;Exception</title>
<path fill="none" stroke="#000000" d="M216.19,-178.19C202.68,-187.94 184.94,-200.74 170,-211.52"/>
<polygon fill="#000000" stroke="#000000" points="167.64,-208.91 161.58,-217.6 171.73,-214.59 167.64,-208.91"/>
</g>
<!-- X::Syntax&#45;&gt;Exception -->
<g id="edge6" class="edge">
<title>X::Syntax&#45;&gt;Exception</title>
<path fill="none" stroke="#000000" d="M194.88,-107.85C184.21,-132.29 164.32,-177.83 151.71,-206.71"/>
<polygon fill="#000000" stroke="#000000" points="148.38,-205.61 147.58,-216.18 154.79,-208.41 148.38,-205.61"/>
</g>
<!-- X::Syntax&#45;&gt;X::Comp -->
<g id="edge9" class="edge">
<title>X::Syntax&#45;&gt;X::Comp</title>
<path fill="none" stroke="#6666ff" d="M210.71,-107.95C214.79,-116.11 219.78,-126.09 224.32,-135.18"/>
<polygon fill="#6666ff" stroke="#6666ff" points="221.24,-136.83 228.84,-144.21 227.5,-133.7 221.24,-136.83"/>
</g>
</g>
</svg>
