<?xml version="1.0" encoding="UTF-8" standalone="no"?>
<!DOCTYPE svg PUBLIC "-//W3C//DTD SVG 1.1//EN"
 "http://www.w3.org/Graphics/SVG/1.1/DTD/svg11.dtd">
<!-- Generated by graphviz version 2.43.0 (0)
 -->
<!-- Title: perl6&#45;type&#45;graph Pages: 1 -->
<svg width="190pt" height="404pt"
 viewBox="0.00 0.00 189.54 404.00" xmlns="http://www.w3.org/2000/svg" xmlns:xlink="http://www.w3.org/1999/xlink">
<g id="graph0" class="graph" transform="scale(1 1) rotate(0) translate(4 400)">
<title>perl6&#45;type&#45;graph</title>
<polygon fill="white" stroke="transparent" points="-4,4 -4,-400 185.54,-400 185.54,4 -4,4"/>
<!-- X::Syntax::P5 -->
<g id="node1" class="node">
<title>X::Syntax::P5</title>
<g id="a_node1"><a xlink:href="/type/X::Syntax::P5" xlink:title="X::Syntax::P5">
<ellipse fill="none" stroke="#000000" cx="63.69" cy="-18" rx="63.89" ry="18"/>
<text text-anchor="middle" x="63.69" y="-14.3" font-family="FreeSans" font-size="14.00" fill="#000000">X::Syntax::P5</text>
</a>
</g>
</g>
<!-- Exception -->
<g id="node4" class="node">
<title>Exception</title>
<g id="a_node4"><a xlink:href="/type/Exception" xlink:title="Exception">
<ellipse fill="none" stroke="#000000" cx="63.69" cy="-234" rx="49.29" ry="18"/>
<text text-anchor="middle" x="63.69" y="-230.3" font-family="FreeSans" font-size="14.00" fill="#000000">Exception</text>
</a>
</g>
</g>
<!-- X::Syntax::P5&#45;&gt;Exception -->
<g id="edge1" class="edge">
<title>X::Syntax::P5&#45;&gt;Exception</title>
<path fill="none" stroke="#000000" d="M57.58,-36.06C52.02,-51.55 44.69,-72 44.69,-72 44.69,-72 44.69,-108 44.69,-108 44.69,-108 53.97,-169.01 59.56,-205.78"/>
<polygon fill="#000000" stroke="#000000" points="56.13,-206.52 61.09,-215.88 63.05,-205.47 56.13,-206.52"/>
</g>
<!-- X::Syntax -->
<g id="node6" class="node">
<title>X::Syntax</title>
<g id="a_node6"><a xlink:href="/type/X::Syntax" xlink:title="X::Syntax">
<ellipse fill="none" stroke="#6666ff" cx="101.69" cy="-90" rx="48.19" ry="18"/>
<text text-anchor="middle" x="101.69" y="-86.3" font-family="FreeSans" font-size="14.00" fill="#6666ff">X::Syntax</text>
</a>
</g>
</g>
<!-- X::Syntax::P5&#45;&gt;X::Syntax -->
<g id="edge6" class="edge">
<title>X::Syntax::P5&#45;&gt;X::Syntax</title>
<path fill="none" stroke="#6666ff" d="M72.89,-35.95C77.33,-44.11 82.74,-54.09 87.68,-63.18"/>
<polygon fill="#6666ff" stroke="#6666ff" points="84.73,-65.09 92.58,-72.21 90.89,-61.75 84.73,-65.09"/>
</g>
<!-- Mu -->
<g id="node2" class="node">
<title>Mu</title>
<g id="a_node2"><a xlink:href="/type/Mu" xlink:title="Mu">
<ellipse fill="none" stroke="#000000" cx="63.69" cy="-378" rx="27" ry="18"/>
<text text-anchor="middle" x="63.69" y="-374.3" font-family="FreeSans" font-size="14.00" fill="#000000">Mu</text>
</a>
</g>
</g>
<!-- Any -->
<g id="node3" class="node">
<title>Any</title>
<g id="a_node3"><a xlink:href="/type/Any" xlink:title="Any">
<ellipse fill="none" stroke="#000000" cx="63.69" cy="-306" rx="27" ry="18"/>
<text text-anchor="middle" x="63.69" y="-302.3" font-family="FreeSans" font-size="14.00" fill="#000000">Any</text>
</a>
</g>
</g>
<!-- Any&#45;&gt;Mu -->
<g id="edge2" class="edge">
<title>Any&#45;&gt;Mu</title>
<path fill="none" stroke="#000000" d="M63.69,-324.3C63.69,-332.02 63.69,-341.29 63.69,-349.89"/>
<polygon fill="#000000" stroke="#000000" points="60.19,-349.9 63.69,-359.9 67.19,-349.9 60.19,-349.9"/>
</g>
<!-- Exception&#45;&gt;Any -->
<g id="edge3" class="edge">
<title>Exception&#45;&gt;Any</title>
<path fill="none" stroke="#000000" d="M63.69,-252.3C63.69,-260.02 63.69,-269.29 63.69,-277.89"/>
<polygon fill="#000000" stroke="#000000" points="60.19,-277.9 63.69,-287.9 67.19,-277.9 60.19,-277.9"/>
</g>
<!-- X::Comp -->
<g id="node5" class="node">
<title>X::Comp</title>
<g id="a_node5"><a xlink:href="/type/X::Comp" xlink:title="X::Comp">
<ellipse fill="none" stroke="#6666ff" cx="136.69" cy="-162" rx="44.69" ry="18"/>
<text text-anchor="middle" x="136.69" y="-158.3" font-family="FreeSans" font-size="14.00" fill="#6666ff">X::Comp</text>
</a>
</g>
</g>
<!-- X::Comp&#45;&gt;Exception -->
<g id="edge4" class="edge">
<title>X::Comp&#45;&gt;Exception</title>
<path fill="none" stroke="#000000" d="M120.13,-178.88C110.58,-188.04 98.41,-199.71 87.82,-209.87"/>
<polygon fill="#000000" stroke="#000000" points="85.24,-207.49 80.45,-216.94 90.09,-212.54 85.24,-207.49"/>
</g>
<!-- X::Syntax&#45;&gt;Exception -->
<g id="edge5" class="edge">
<title>X::Syntax&#45;&gt;Exception</title>
<path fill="none" stroke="#000000" d="M95.58,-108.06C90.02,-123.55 82.69,-144 82.69,-144 82.69,-144 75.04,-179.83 69.45,-206.03"/>
<polygon fill="#000000" stroke="#000000" points="66.02,-205.33 67.36,-215.84 72.87,-206.79 66.02,-205.33"/>
</g>
<!-- X::Syntax&#45;&gt;X::Comp -->
<g id="edge7" class="edge">
<title>X::Syntax&#45;&gt;X::Comp</title>
<path fill="none" stroke="#6666ff" d="M110.17,-107.95C114.25,-116.11 119.24,-126.09 123.78,-135.18"/>
<polygon fill="#6666ff" stroke="#6666ff" points="120.7,-136.83 128.3,-144.21 126.96,-133.7 120.7,-136.83"/>
</g>
</g>
</svg>
