<?xml version="1.0" encoding="UTF-8" standalone="no"?>
<!DOCTYPE svg PUBLIC "-//W3C//DTD SVG 1.1//EN"
 "http://www.w3.org/Graphics/SVG/1.1/DTD/svg11.dtd">
<!-- Generated by graphviz version 2.43.0 (0)
 -->
<!-- Title: perl6&#45;type&#45;graph Pages: 1 -->
<svg width="240pt" height="404pt"
 viewBox="0.00 0.00 240.24 404.00" xmlns="http://www.w3.org/2000/svg" xmlns:xlink="http://www.w3.org/1999/xlink">
<g id="graph0" class="graph" transform="scale(1 1) rotate(0) translate(4 400)">
<title>perl6&#45;type&#45;graph</title>
<polygon fill="white" stroke="transparent" points="-4,4 -4,-400 236.24,-400 236.24,4 -4,4"/>
<!-- X::Syntax::NonAssociative -->
<g id="node1" class="node">
<title>X::Syntax::NonAssociative</title>
<g id="a_node1"><a xlink:href="/type/X::Syntax::NonAssociative" xlink:title="X::Syntax::NonAssociative">
<ellipse fill="none" stroke="#000000" cx="114.39" cy="-18" rx="114.28" ry="18"/>
<text text-anchor="middle" x="114.39" y="-14.3" font-family="FreeSans" font-size="14.00" fill="#000000">X::Syntax::NonAssociative</text>
</a>
</g>
</g>
<!-- Exception -->
<g id="node4" class="node">
<title>Exception</title>
<g id="a_node4"><a xlink:href="/type/Exception" xlink:title="Exception">
<ellipse fill="none" stroke="#000000" cx="114.39" cy="-234" rx="49.29" ry="18"/>
<text text-anchor="middle" x="114.39" y="-230.3" font-family="FreeSans" font-size="14.00" fill="#000000">Exception</text>
</a>
</g>
</g>
<!-- X::Syntax::NonAssociative&#45;&gt;Exception -->
<g id="edge1" class="edge">
<title>X::Syntax::NonAssociative&#45;&gt;Exception</title>
<path fill="none" stroke="#000000" d="M108.27,-36.06C102.72,-51.55 95.39,-72 95.39,-72 95.39,-72 95.39,-108 95.39,-108 95.39,-108 104.66,-169.01 110.25,-205.78"/>
<polygon fill="#000000" stroke="#000000" points="106.82,-206.52 111.79,-215.88 113.75,-205.47 106.82,-206.52"/>
</g>
<!-- X::Syntax -->
<g id="node6" class="node">
<title>X::Syntax</title>
<g id="a_node6"><a xlink:href="/type/X::Syntax" xlink:title="X::Syntax">
<ellipse fill="none" stroke="#6666ff" cx="152.39" cy="-90" rx="48.19" ry="18"/>
<text text-anchor="middle" x="152.39" y="-86.3" font-family="FreeSans" font-size="14.00" fill="#6666ff">X::Syntax</text>
</a>
</g>
</g>
<!-- X::Syntax::NonAssociative&#45;&gt;X::Syntax -->
<g id="edge6" class="edge">
<title>X::Syntax::NonAssociative&#45;&gt;X::Syntax</title>
<path fill="none" stroke="#6666ff" d="M123.59,-35.95C128.02,-44.11 133.44,-54.09 138.37,-63.18"/>
<polygon fill="#6666ff" stroke="#6666ff" points="135.43,-65.09 143.28,-72.21 141.58,-61.75 135.43,-65.09"/>
</g>
<!-- Mu -->
<g id="node2" class="node">
<title>Mu</title>
<g id="a_node2"><a xlink:href="/type/Mu" xlink:title="Mu">
<ellipse fill="none" stroke="#000000" cx="114.39" cy="-378" rx="27" ry="18"/>
<text text-anchor="middle" x="114.39" y="-374.3" font-family="FreeSans" font-size="14.00" fill="#000000">Mu</text>
</a>
</g>
</g>
<!-- Any -->
<g id="node3" class="node">
<title>Any</title>
<g id="a_node3"><a xlink:href="/type/Any" xlink:title="Any">
<ellipse fill="none" stroke="#000000" cx="114.39" cy="-306" rx="27" ry="18"/>
<text text-anchor="middle" x="114.39" y="-302.3" font-family="FreeSans" font-size="14.00" fill="#000000">Any</text>
</a>
</g>
</g>
<!-- Any&#45;&gt;Mu -->
<g id="edge2" class="edge">
<title>Any&#45;&gt;Mu</title>
<path fill="none" stroke="#000000" d="M114.39,-324.3C114.39,-332.02 114.39,-341.29 114.39,-349.89"/>
<polygon fill="#000000" stroke="#000000" points="110.89,-349.9 114.39,-359.9 117.89,-349.9 110.89,-349.9"/>
</g>
<!-- Exception&#45;&gt;Any -->
<g id="edge3" class="edge">
<title>Exception&#45;&gt;Any</title>
<path fill="none" stroke="#000000" d="M114.39,-252.3C114.39,-260.02 114.39,-269.29 114.39,-277.89"/>
<polygon fill="#000000" stroke="#000000" points="110.89,-277.9 114.39,-287.9 117.89,-277.9 110.89,-277.9"/>
</g>
<!-- X::Comp -->
<g id="node5" class="node">
<title>X::Comp</title>
<g id="a_node5"><a xlink:href="/type/X::Comp" xlink:title="X::Comp">
<ellipse fill="none" stroke="#6666ff" cx="187.39" cy="-162" rx="44.69" ry="18"/>
<text text-anchor="middle" x="187.39" y="-158.3" font-family="FreeSans" font-size="14.00" fill="#6666ff">X::Comp</text>
</a>
</g>
</g>
<!-- X::Comp&#45;&gt;Exception -->
<g id="edge4" class="edge">
<title>X::Comp&#45;&gt;Exception</title>
<path fill="none" stroke="#000000" d="M170.83,-178.88C161.28,-188.04 149.11,-199.71 138.52,-209.87"/>
<polygon fill="#000000" stroke="#000000" points="135.94,-207.49 131.14,-216.94 140.78,-212.54 135.94,-207.49"/>
</g>
<!-- X::Syntax&#45;&gt;Exception -->
<g id="edge5" class="edge">
<title>X::Syntax&#45;&gt;Exception</title>
<path fill="none" stroke="#000000" d="M146.27,-108.06C140.72,-123.55 133.39,-144 133.39,-144 133.39,-144 125.74,-179.83 120.15,-206.03"/>
<polygon fill="#000000" stroke="#000000" points="116.72,-205.33 118.05,-215.84 123.56,-206.79 116.72,-205.33"/>
</g>
<!-- X::Syntax&#45;&gt;X::Comp -->
<g id="edge7" class="edge">
<title>X::Syntax&#45;&gt;X::Comp</title>
<path fill="none" stroke="#6666ff" d="M160.86,-107.95C164.95,-116.11 169.93,-126.09 174.48,-135.18"/>
<polygon fill="#6666ff" stroke="#6666ff" points="171.39,-136.83 179,-144.21 177.65,-133.7 171.39,-136.83"/>
</g>
</g>
</svg>
