<?xml version="1.0" encoding="UTF-8" standalone="no"?>
<!DOCTYPE svg PUBLIC "-//W3C//DTD SVG 1.1//EN"
 "http://www.w3.org/Graphics/SVG/1.1/DTD/svg11.dtd">
<!-- Generated by graphviz version 2.43.0 (0)
 -->
<!-- Title: perl6&#45;type&#45;graph Pages: 1 -->
<svg width="335pt" height="404pt"
 viewBox="0.00 0.00 335.33 404.00" xmlns="http://www.w3.org/2000/svg" xmlns:xlink="http://www.w3.org/1999/xlink">
<g id="graph0" class="graph" transform="scale(1 1) rotate(0) translate(4 400)">
<title>perl6&#45;type&#45;graph</title>
<polygon fill="white" stroke="transparent" points="-4,4 -4,-400 331.33,-400 331.33,4 -4,4"/>
<!-- X::Syntax::Number::RadixOutOfRange -->
<g id="node1" class="node">
<title>X::Syntax::Number::RadixOutOfRange</title>
<g id="a_node1"><a xlink:href="/type/X::Syntax::Number::RadixOutOfRange" xlink:title="X::Syntax::Number::RadixOutOfRange">
<ellipse fill="none" stroke="#000000" cx="162.49" cy="-18" rx="162.47" ry="18"/>
<text text-anchor="middle" x="162.49" y="-14.3" font-family="FreeSans" font-size="14.00" fill="#000000">X::Syntax::Number::RadixOutOfRange</text>
</a>
</g>
</g>
<!-- Exception -->
<g id="node4" class="node">
<title>Exception</title>
<g id="a_node4"><a xlink:href="/type/Exception" xlink:title="Exception">
<ellipse fill="none" stroke="#000000" cx="185.49" cy="-234" rx="49.29" ry="18"/>
<text text-anchor="middle" x="185.49" y="-230.3" font-family="FreeSans" font-size="14.00" fill="#000000">Exception</text>
</a>
</g>
</g>
<!-- X::Syntax::Number::RadixOutOfRange&#45;&gt;Exception -->
<g id="edge1" class="edge">
<title>X::Syntax::Number::RadixOutOfRange&#45;&gt;Exception</title>
<path fill="none" stroke="#000000" d="M160.45,-36.15C160.9,-73.34 170.13,-161.63 177.96,-206.23"/>
<polygon fill="#000000" stroke="#000000" points="174.52,-206.88 179.81,-216.06 181.4,-205.59 174.52,-206.88"/>
</g>
<!-- X::Syntax::Number::RadixOutOfRange&#45;&gt;Exception -->
<g id="edge2" class="edge">
<title>X::Syntax::Number::RadixOutOfRange&#45;&gt;Exception</title>
<path fill="none" stroke="#000000" d="M168.21,-36.15C175.72,-73.17 185.41,-160.82 187.23,-205.61"/>
<polygon fill="#000000" stroke="#000000" points="183.74,-205.87 187.52,-215.77 190.74,-205.67 183.74,-205.87"/>
</g>
<!-- X::Syntax -->
<g id="node6" class="node">
<title>X::Syntax</title>
<g id="a_node6"><a xlink:href="/type/X::Syntax" xlink:title="X::Syntax">
<ellipse fill="none" stroke="#6666ff" cx="247.49" cy="-90" rx="48.19" ry="18"/>
<text text-anchor="middle" x="247.49" y="-86.3" font-family="FreeSans" font-size="14.00" fill="#6666ff">X::Syntax</text>
</a>
</g>
</g>
<!-- X::Syntax::Number::RadixOutOfRange&#45;&gt;X::Syntax -->
<g id="edge7" class="edge">
<title>X::Syntax::Number::RadixOutOfRange&#45;&gt;X::Syntax</title>
<path fill="none" stroke="#6666ff" d="M183.06,-35.95C194.32,-45.22 208.4,-56.81 220.53,-66.8"/>
<polygon fill="#6666ff" stroke="#6666ff" points="218.61,-69.75 228.55,-73.41 223.06,-64.35 218.61,-69.75"/>
</g>
<!-- Mu -->
<g id="node2" class="node">
<title>Mu</title>
<g id="a_node2"><a xlink:href="/type/Mu" xlink:title="Mu">
<ellipse fill="none" stroke="#000000" cx="185.49" cy="-378" rx="27" ry="18"/>
<text text-anchor="middle" x="185.49" y="-374.3" font-family="FreeSans" font-size="14.00" fill="#000000">Mu</text>
</a>
</g>
</g>
<!-- Any -->
<g id="node3" class="node">
<title>Any</title>
<g id="a_node3"><a xlink:href="/type/Any" xlink:title="Any">
<ellipse fill="none" stroke="#000000" cx="185.49" cy="-306" rx="27" ry="18"/>
<text text-anchor="middle" x="185.49" y="-302.3" font-family="FreeSans" font-size="14.00" fill="#000000">Any</text>
</a>
</g>
</g>
<!-- Any&#45;&gt;Mu -->
<g id="edge3" class="edge">
<title>Any&#45;&gt;Mu</title>
<path fill="none" stroke="#000000" d="M185.49,-324.3C185.49,-332.02 185.49,-341.29 185.49,-349.89"/>
<polygon fill="#000000" stroke="#000000" points="181.99,-349.9 185.49,-359.9 188.99,-349.9 181.99,-349.9"/>
</g>
<!-- Exception&#45;&gt;Any -->
<g id="edge4" class="edge">
<title>Exception&#45;&gt;Any</title>
<path fill="none" stroke="#000000" d="M185.49,-252.3C185.49,-260.02 185.49,-269.29 185.49,-277.89"/>
<polygon fill="#000000" stroke="#000000" points="181.99,-277.9 185.49,-287.9 188.99,-277.9 181.99,-277.9"/>
</g>
<!-- X::Comp -->
<g id="node5" class="node">
<title>X::Comp</title>
<g id="a_node5"><a xlink:href="/type/X::Comp" xlink:title="X::Comp">
<ellipse fill="none" stroke="#6666ff" cx="282.49" cy="-162" rx="44.69" ry="18"/>
<text text-anchor="middle" x="282.49" y="-158.3" font-family="FreeSans" font-size="14.00" fill="#6666ff">X::Comp</text>
</a>
</g>
</g>
<!-- X::Comp&#45;&gt;Exception -->
<g id="edge5" class="edge">
<title>X::Comp&#45;&gt;Exception</title>
<path fill="none" stroke="#000000" d="M261.44,-178.19C247.93,-187.94 230.19,-200.74 215.25,-211.52"/>
<polygon fill="#000000" stroke="#000000" points="212.89,-208.91 206.83,-217.6 216.98,-214.59 212.89,-208.91"/>
</g>
<!-- X::Syntax&#45;&gt;Exception -->
<g id="edge6" class="edge">
<title>X::Syntax&#45;&gt;Exception</title>
<path fill="none" stroke="#000000" d="M240.13,-107.85C229.46,-132.29 209.57,-177.83 196.96,-206.71"/>
<polygon fill="#000000" stroke="#000000" points="193.63,-205.61 192.83,-216.18 200.04,-208.41 193.63,-205.61"/>
</g>
<!-- X::Syntax&#45;&gt;X::Comp -->
<g id="edge8" class="edge">
<title>X::Syntax&#45;&gt;X::Comp</title>
<path fill="none" stroke="#6666ff" d="M255.96,-107.95C260.04,-116.11 265.03,-126.09 269.57,-135.18"/>
<polygon fill="#6666ff" stroke="#6666ff" points="266.49,-136.83 274.09,-144.21 272.75,-133.7 266.49,-136.83"/>
</g>
</g>
</svg>
