<?xml version="1.0" encoding="UTF-8" standalone="no"?>
<!DOCTYPE svg PUBLIC "-//W3C//DTD SVG 1.1//EN"
 "http://www.w3.org/Graphics/SVG/1.1/DTD/svg11.dtd">
<!-- Generated by graphviz version 2.43.0 (0)
 -->
<!-- Title: perl6&#45;type&#45;graph Pages: 1 -->
<svg width="206pt" height="404pt"
 viewBox="0.00 0.00 205.79 404.00" xmlns="http://www.w3.org/2000/svg" xmlns:xlink="http://www.w3.org/1999/xlink">
<g id="graph0" class="graph" transform="scale(1 1) rotate(0) translate(4 400)">
<title>perl6&#45;type&#45;graph</title>
<polygon fill="white" stroke="transparent" points="-4,4 -4,-400 201.79,-400 201.79,4 -4,4"/>
<!-- X::Syntax::NoSelf -->
<g id="node1" class="node">
<title>X::Syntax::NoSelf</title>
<g id="a_node1"><a xlink:href="/type/X::Syntax::NoSelf" xlink:title="X::Syntax::NoSelf">
<ellipse fill="none" stroke="#000000" cx="79.94" cy="-18" rx="79.89" ry="18"/>
<text text-anchor="middle" x="79.94" y="-14.3" font-family="FreeSans" font-size="14.00" fill="#000000">X::Syntax::NoSelf</text>
</a>
</g>
</g>
<!-- Exception -->
<g id="node4" class="node">
<title>Exception</title>
<g id="a_node4"><a xlink:href="/type/Exception" xlink:title="Exception">
<ellipse fill="none" stroke="#000000" cx="79.94" cy="-234" rx="49.29" ry="18"/>
<text text-anchor="middle" x="79.94" y="-230.3" font-family="FreeSans" font-size="14.00" fill="#000000">Exception</text>
</a>
</g>
</g>
<!-- X::Syntax::NoSelf&#45;&gt;Exception -->
<g id="edge1" class="edge">
<title>X::Syntax::NoSelf&#45;&gt;Exception</title>
<path fill="none" stroke="#000000" d="M73.83,-36.06C68.27,-51.55 60.94,-72 60.94,-72 60.94,-72 60.94,-108 60.94,-108 60.94,-108 70.22,-169.01 75.81,-205.78"/>
<polygon fill="#000000" stroke="#000000" points="72.38,-206.52 77.34,-215.88 79.3,-205.47 72.38,-206.52"/>
</g>
<!-- X::Syntax -->
<g id="node6" class="node">
<title>X::Syntax</title>
<g id="a_node6"><a xlink:href="/type/X::Syntax" xlink:title="X::Syntax">
<ellipse fill="none" stroke="#6666ff" cx="117.94" cy="-90" rx="48.19" ry="18"/>
<text text-anchor="middle" x="117.94" y="-86.3" font-family="FreeSans" font-size="14.00" fill="#6666ff">X::Syntax</text>
</a>
</g>
</g>
<!-- X::Syntax::NoSelf&#45;&gt;X::Syntax -->
<g id="edge6" class="edge">
<title>X::Syntax::NoSelf&#45;&gt;X::Syntax</title>
<path fill="none" stroke="#6666ff" d="M89.14,-35.95C93.58,-44.11 98.99,-54.09 103.92,-63.18"/>
<polygon fill="#6666ff" stroke="#6666ff" points="100.98,-65.09 108.83,-72.21 107.13,-61.75 100.98,-65.09"/>
</g>
<!-- Mu -->
<g id="node2" class="node">
<title>Mu</title>
<g id="a_node2"><a xlink:href="/type/Mu" xlink:title="Mu">
<ellipse fill="none" stroke="#000000" cx="79.94" cy="-378" rx="27" ry="18"/>
<text text-anchor="middle" x="79.94" y="-374.3" font-family="FreeSans" font-size="14.00" fill="#000000">Mu</text>
</a>
</g>
</g>
<!-- Any -->
<g id="node3" class="node">
<title>Any</title>
<g id="a_node3"><a xlink:href="/type/Any" xlink:title="Any">
<ellipse fill="none" stroke="#000000" cx="79.94" cy="-306" rx="27" ry="18"/>
<text text-anchor="middle" x="79.94" y="-302.3" font-family="FreeSans" font-size="14.00" fill="#000000">Any</text>
</a>
</g>
</g>
<!-- Any&#45;&gt;Mu -->
<g id="edge2" class="edge">
<title>Any&#45;&gt;Mu</title>
<path fill="none" stroke="#000000" d="M79.94,-324.3C79.94,-332.02 79.94,-341.29 79.94,-349.89"/>
<polygon fill="#000000" stroke="#000000" points="76.44,-349.9 79.94,-359.9 83.44,-349.9 76.44,-349.9"/>
</g>
<!-- Exception&#45;&gt;Any -->
<g id="edge3" class="edge">
<title>Exception&#45;&gt;Any</title>
<path fill="none" stroke="#000000" d="M79.94,-252.3C79.94,-260.02 79.94,-269.29 79.94,-277.89"/>
<polygon fill="#000000" stroke="#000000" points="76.44,-277.9 79.94,-287.9 83.44,-277.9 76.44,-277.9"/>
</g>
<!-- X::Comp -->
<g id="node5" class="node">
<title>X::Comp</title>
<g id="a_node5"><a xlink:href="/type/X::Comp" xlink:title="X::Comp">
<ellipse fill="none" stroke="#6666ff" cx="152.94" cy="-162" rx="44.69" ry="18"/>
<text text-anchor="middle" x="152.94" y="-158.3" font-family="FreeSans" font-size="14.00" fill="#6666ff">X::Comp</text>
</a>
</g>
</g>
<!-- X::Comp&#45;&gt;Exception -->
<g id="edge4" class="edge">
<title>X::Comp&#45;&gt;Exception</title>
<path fill="none" stroke="#000000" d="M136.38,-178.88C126.83,-188.04 114.66,-199.71 104.07,-209.87"/>
<polygon fill="#000000" stroke="#000000" points="101.49,-207.49 96.69,-216.94 106.34,-212.54 101.49,-207.49"/>
</g>
<!-- X::Syntax&#45;&gt;Exception -->
<g id="edge5" class="edge">
<title>X::Syntax&#45;&gt;Exception</title>
<path fill="none" stroke="#000000" d="M111.83,-108.06C106.27,-123.55 98.94,-144 98.94,-144 98.94,-144 91.29,-179.83 85.7,-206.03"/>
<polygon fill="#000000" stroke="#000000" points="82.27,-205.33 83.61,-215.84 89.12,-206.79 82.27,-205.33"/>
</g>
<!-- X::Syntax&#45;&gt;X::Comp -->
<g id="edge7" class="edge">
<title>X::Syntax&#45;&gt;X::Comp</title>
<path fill="none" stroke="#6666ff" d="M126.42,-107.95C130.5,-116.11 135.49,-126.09 140.03,-135.18"/>
<polygon fill="#6666ff" stroke="#6666ff" points="136.95,-136.83 144.55,-144.21 143.21,-133.7 136.95,-136.83"/>
</g>
</g>
</svg>
