<?xml version="1.0" encoding="UTF-8" standalone="no"?>
<!DOCTYPE svg PUBLIC "-//W3C//DTD SVG 1.1//EN"
 "http://www.w3.org/Graphics/SVG/1.1/DTD/svg11.dtd">
<!-- Generated by graphviz version 2.43.0 (0)
 -->
<!-- Title: perl6&#45;type&#45;graph Pages: 1 -->
<svg width="302pt" height="404pt"
 viewBox="0.00 0.00 302.18 404.00" xmlns="http://www.w3.org/2000/svg" xmlns:xlink="http://www.w3.org/1999/xlink">
<g id="graph0" class="graph" transform="scale(1 1) rotate(0) translate(4 400)">
<title>perl6&#45;type&#45;graph</title>
<polygon fill="white" stroke="transparent" points="-4,4 -4,-400 298.18,-400 298.18,4 -4,4"/>
<!-- X::Syntax::Self::WithoutObject -->
<g id="node1" class="node">
<title>X::Syntax::Self::WithoutObject</title>
<g id="a_node1"><a xlink:href="/type/X::Syntax::Self::WithoutObject" xlink:title="X::Syntax::Self::WithoutObject">
<ellipse fill="none" stroke="#000000" cx="129.34" cy="-18" rx="129.18" ry="18"/>
<text text-anchor="middle" x="129.34" y="-14.3" font-family="FreeSans" font-size="14.00" fill="#000000">X::Syntax::Self::WithoutObject</text>
</a>
</g>
</g>
<!-- Exception -->
<g id="node4" class="node">
<title>Exception</title>
<g id="a_node4"><a xlink:href="/type/Exception" xlink:title="Exception">
<ellipse fill="none" stroke="#000000" cx="152.34" cy="-234" rx="49.29" ry="18"/>
<text text-anchor="middle" x="152.34" y="-230.3" font-family="FreeSans" font-size="14.00" fill="#000000">Exception</text>
</a>
</g>
</g>
<!-- X::Syntax::Self::WithoutObject&#45;&gt;Exception -->
<g id="edge1" class="edge">
<title>X::Syntax::Self::WithoutObject&#45;&gt;Exception</title>
<path fill="none" stroke="#000000" d="M127.3,-36.15C127.75,-73.34 136.98,-161.63 144.81,-206.23"/>
<polygon fill="#000000" stroke="#000000" points="141.37,-206.88 146.66,-216.06 148.25,-205.59 141.37,-206.88"/>
</g>
<!-- X::Syntax::Self::WithoutObject&#45;&gt;Exception -->
<g id="edge2" class="edge">
<title>X::Syntax::Self::WithoutObject&#45;&gt;Exception</title>
<path fill="none" stroke="#000000" d="M135.06,-36.15C142.57,-73.17 152.27,-160.82 154.09,-205.61"/>
<polygon fill="#000000" stroke="#000000" points="150.59,-205.87 154.37,-215.77 157.59,-205.67 150.59,-205.87"/>
</g>
<!-- X::Syntax -->
<g id="node6" class="node">
<title>X::Syntax</title>
<g id="a_node6"><a xlink:href="/type/X::Syntax" xlink:title="X::Syntax">
<ellipse fill="none" stroke="#6666ff" cx="214.34" cy="-90" rx="48.19" ry="18"/>
<text text-anchor="middle" x="214.34" y="-86.3" font-family="FreeSans" font-size="14.00" fill="#6666ff">X::Syntax</text>
</a>
</g>
</g>
<!-- X::Syntax::Self::WithoutObject&#45;&gt;X::Syntax -->
<g id="edge7" class="edge">
<title>X::Syntax::Self::WithoutObject&#45;&gt;X::Syntax</title>
<path fill="none" stroke="#6666ff" d="M149.91,-35.95C161.17,-45.22 175.26,-56.81 187.38,-66.8"/>
<polygon fill="#6666ff" stroke="#6666ff" points="185.46,-69.75 195.4,-73.41 189.91,-64.35 185.46,-69.75"/>
</g>
<!-- Mu -->
<g id="node2" class="node">
<title>Mu</title>
<g id="a_node2"><a xlink:href="/type/Mu" xlink:title="Mu">
<ellipse fill="none" stroke="#000000" cx="152.34" cy="-378" rx="27" ry="18"/>
<text text-anchor="middle" x="152.34" y="-374.3" font-family="FreeSans" font-size="14.00" fill="#000000">Mu</text>
</a>
</g>
</g>
<!-- Any -->
<g id="node3" class="node">
<title>Any</title>
<g id="a_node3"><a xlink:href="/type/Any" xlink:title="Any">
<ellipse fill="none" stroke="#000000" cx="152.34" cy="-306" rx="27" ry="18"/>
<text text-anchor="middle" x="152.34" y="-302.3" font-family="FreeSans" font-size="14.00" fill="#000000">Any</text>
</a>
</g>
</g>
<!-- Any&#45;&gt;Mu -->
<g id="edge3" class="edge">
<title>Any&#45;&gt;Mu</title>
<path fill="none" stroke="#000000" d="M152.34,-324.3C152.34,-332.02 152.34,-341.29 152.34,-349.89"/>
<polygon fill="#000000" stroke="#000000" points="148.84,-349.9 152.34,-359.9 155.84,-349.9 148.84,-349.9"/>
</g>
<!-- Exception&#45;&gt;Any -->
<g id="edge4" class="edge">
<title>Exception&#45;&gt;Any</title>
<path fill="none" stroke="#000000" d="M152.34,-252.3C152.34,-260.02 152.34,-269.29 152.34,-277.89"/>
<polygon fill="#000000" stroke="#000000" points="148.84,-277.9 152.34,-287.9 155.84,-277.9 148.84,-277.9"/>
</g>
<!-- X::Comp -->
<g id="node5" class="node">
<title>X::Comp</title>
<g id="a_node5"><a xlink:href="/type/X::Comp" xlink:title="X::Comp">
<ellipse fill="none" stroke="#6666ff" cx="249.34" cy="-162" rx="44.69" ry="18"/>
<text text-anchor="middle" x="249.34" y="-158.3" font-family="FreeSans" font-size="14.00" fill="#6666ff">X::Comp</text>
</a>
</g>
</g>
<!-- X::Comp&#45;&gt;Exception -->
<g id="edge5" class="edge">
<title>X::Comp&#45;&gt;Exception</title>
<path fill="none" stroke="#000000" d="M228.29,-178.19C214.78,-187.94 197.04,-200.74 182.1,-211.52"/>
<polygon fill="#000000" stroke="#000000" points="179.74,-208.91 173.68,-217.6 183.84,-214.59 179.74,-208.91"/>
</g>
<!-- X::Syntax&#45;&gt;Exception -->
<g id="edge6" class="edge">
<title>X::Syntax&#45;&gt;Exception</title>
<path fill="none" stroke="#000000" d="M206.98,-107.85C196.31,-132.29 176.43,-177.83 163.82,-206.71"/>
<polygon fill="#000000" stroke="#000000" points="160.48,-205.61 159.68,-216.18 166.89,-208.41 160.48,-205.61"/>
</g>
<!-- X::Syntax&#45;&gt;X::Comp -->
<g id="edge8" class="edge">
<title>X::Syntax&#45;&gt;X::Comp</title>
<path fill="none" stroke="#6666ff" d="M222.81,-107.95C226.9,-116.11 231.88,-126.09 236.43,-135.18"/>
<polygon fill="#6666ff" stroke="#6666ff" points="233.34,-136.83 240.94,-144.21 239.6,-133.7 233.34,-136.83"/>
</g>
</g>
</svg>
