<?xml version="1.0" encoding="UTF-8" standalone="no"?>
<!DOCTYPE svg PUBLIC "-//W3C//DTD SVG 1.1//EN"
 "http://www.w3.org/Graphics/SVG/1.1/DTD/svg11.dtd">
<!-- Generated by graphviz version 2.43.0 (0)
 -->
<!-- Title: perl6&#45;type&#45;graph Pages: 1 -->
<svg width="270pt" height="404pt"
 viewBox="0.00 0.00 270.34 404.00" xmlns="http://www.w3.org/2000/svg" xmlns:xlink="http://www.w3.org/1999/xlink">
<g id="graph0" class="graph" transform="scale(1 1) rotate(0) translate(4 400)">
<title>perl6&#45;type&#45;graph</title>
<polygon fill="white" stroke="transparent" points="-4,4 -4,-400 266.34,-400 266.34,4 -4,4"/>
<!-- X::Syntax::Name::Null -->
<g id="node1" class="node">
<title>X::Syntax::Name::Null</title>
<g id="a_node1"><a xlink:href="/type/X::Syntax::Name::Null" xlink:title="X::Syntax::Name::Null">
<ellipse fill="none" stroke="#000000" cx="97.49" cy="-18" rx="97.48" ry="18"/>
<text text-anchor="middle" x="97.49" y="-14.3" font-family="FreeSans" font-size="14.00" fill="#000000">X::Syntax::Name::Null</text>
</a>
</g>
</g>
<!-- Exception -->
<g id="node4" class="node">
<title>Exception</title>
<g id="a_node4"><a xlink:href="/type/Exception" xlink:title="Exception">
<ellipse fill="none" stroke="#000000" cx="120.49" cy="-234" rx="49.29" ry="18"/>
<text text-anchor="middle" x="120.49" y="-230.3" font-family="FreeSans" font-size="14.00" fill="#000000">Exception</text>
</a>
</g>
</g>
<!-- X::Syntax::Name::Null&#45;&gt;Exception -->
<g id="edge1" class="edge">
<title>X::Syntax::Name::Null&#45;&gt;Exception</title>
<path fill="none" stroke="#000000" d="M95.46,-36.15C95.9,-73.34 105.13,-161.63 112.96,-206.23"/>
<polygon fill="#000000" stroke="#000000" points="109.53,-206.88 114.81,-216.06 116.4,-205.59 109.53,-206.88"/>
</g>
<!-- X::Syntax::Name::Null&#45;&gt;Exception -->
<g id="edge2" class="edge">
<title>X::Syntax::Name::Null&#45;&gt;Exception</title>
<path fill="none" stroke="#000000" d="M103.21,-36.15C110.73,-73.17 120.42,-160.82 122.24,-205.61"/>
<polygon fill="#000000" stroke="#000000" points="118.75,-205.87 122.52,-215.77 125.74,-205.67 118.75,-205.87"/>
</g>
<!-- X::Syntax -->
<g id="node6" class="node">
<title>X::Syntax</title>
<g id="a_node6"><a xlink:href="/type/X::Syntax" xlink:title="X::Syntax">
<ellipse fill="none" stroke="#6666ff" cx="182.49" cy="-90" rx="48.19" ry="18"/>
<text text-anchor="middle" x="182.49" y="-86.3" font-family="FreeSans" font-size="14.00" fill="#6666ff">X::Syntax</text>
</a>
</g>
</g>
<!-- X::Syntax::Name::Null&#45;&gt;X::Syntax -->
<g id="edge7" class="edge">
<title>X::Syntax::Name::Null&#45;&gt;X::Syntax</title>
<path fill="none" stroke="#6666ff" d="M118.07,-35.95C129.33,-45.22 143.41,-56.81 155.53,-66.8"/>
<polygon fill="#6666ff" stroke="#6666ff" points="153.61,-69.75 163.56,-73.41 158.06,-64.35 153.61,-69.75"/>
</g>
<!-- Mu -->
<g id="node2" class="node">
<title>Mu</title>
<g id="a_node2"><a xlink:href="/type/Mu" xlink:title="Mu">
<ellipse fill="none" stroke="#000000" cx="120.49" cy="-378" rx="27" ry="18"/>
<text text-anchor="middle" x="120.49" y="-374.3" font-family="FreeSans" font-size="14.00" fill="#000000">Mu</text>
</a>
</g>
</g>
<!-- Any -->
<g id="node3" class="node">
<title>Any</title>
<g id="a_node3"><a xlink:href="/type/Any" xlink:title="Any">
<ellipse fill="none" stroke="#000000" cx="120.49" cy="-306" rx="27" ry="18"/>
<text text-anchor="middle" x="120.49" y="-302.3" font-family="FreeSans" font-size="14.00" fill="#000000">Any</text>
</a>
</g>
</g>
<!-- Any&#45;&gt;Mu -->
<g id="edge3" class="edge">
<title>Any&#45;&gt;Mu</title>
<path fill="none" stroke="#000000" d="M120.49,-324.3C120.49,-332.02 120.49,-341.29 120.49,-349.89"/>
<polygon fill="#000000" stroke="#000000" points="116.99,-349.9 120.49,-359.9 123.99,-349.9 116.99,-349.9"/>
</g>
<!-- Exception&#45;&gt;Any -->
<g id="edge4" class="edge">
<title>Exception&#45;&gt;Any</title>
<path fill="none" stroke="#000000" d="M120.49,-252.3C120.49,-260.02 120.49,-269.29 120.49,-277.89"/>
<polygon fill="#000000" stroke="#000000" points="116.99,-277.9 120.49,-287.9 123.99,-277.9 116.99,-277.9"/>
</g>
<!-- X::Comp -->
<g id="node5" class="node">
<title>X::Comp</title>
<g id="a_node5"><a xlink:href="/type/X::Comp" xlink:title="X::Comp">
<ellipse fill="none" stroke="#6666ff" cx="217.49" cy="-162" rx="44.69" ry="18"/>
<text text-anchor="middle" x="217.49" y="-158.3" font-family="FreeSans" font-size="14.00" fill="#6666ff">X::Comp</text>
</a>
</g>
</g>
<!-- X::Comp&#45;&gt;Exception -->
<g id="edge5" class="edge">
<title>X::Comp&#45;&gt;Exception</title>
<path fill="none" stroke="#000000" d="M196.44,-178.19C182.94,-187.94 165.19,-200.74 150.25,-211.52"/>
<polygon fill="#000000" stroke="#000000" points="147.89,-208.91 141.83,-217.6 151.99,-214.59 147.89,-208.91"/>
</g>
<!-- X::Syntax&#45;&gt;Exception -->
<g id="edge6" class="edge">
<title>X::Syntax&#45;&gt;Exception</title>
<path fill="none" stroke="#000000" d="M175.14,-107.85C164.46,-132.29 144.58,-177.83 131.97,-206.71"/>
<polygon fill="#000000" stroke="#000000" points="128.63,-205.61 127.84,-216.18 135.05,-208.41 128.63,-205.61"/>
</g>
<!-- X::Syntax&#45;&gt;X::Comp -->
<g id="edge8" class="edge">
<title>X::Syntax&#45;&gt;X::Comp</title>
<path fill="none" stroke="#6666ff" d="M190.96,-107.95C195.05,-116.11 200.04,-126.09 204.58,-135.18"/>
<polygon fill="#6666ff" stroke="#6666ff" points="201.49,-136.83 209.1,-144.21 207.76,-133.7 201.49,-136.83"/>
</g>
</g>
</svg>
