<?xml version="1.0" encoding="UTF-8" standalone="no"?>
<!DOCTYPE svg PUBLIC "-//W3C//DTD SVG 1.1//EN"
 "http://www.w3.org/Graphics/SVG/1.1/DTD/svg11.dtd">
<!-- Generated by graphviz version 2.43.0 (0)
 -->
<!-- Title: perl6&#45;type&#45;graph Pages: 1 -->
<svg width="268pt" height="404pt"
 viewBox="0.00 0.00 267.74 404.00" xmlns="http://www.w3.org/2000/svg" xmlns:xlink="http://www.w3.org/1999/xlink">
<g id="graph0" class="graph" transform="scale(1 1) rotate(0) translate(4 400)">
<title>perl6&#45;type&#45;graph</title>
<polygon fill="white" stroke="transparent" points="-4,4 -4,-400 263.74,-400 263.74,4 -4,4"/>
<!-- X::Syntax::Malformed -->
<g id="node1" class="node">
<title>X::Syntax::Malformed</title>
<g id="a_node1"><a xlink:href="/type/X::Syntax::Malformed" xlink:title="X::Syntax::Malformed">
<ellipse fill="none" stroke="#000000" cx="94.89" cy="-18" rx="94.78" ry="18"/>
<text text-anchor="middle" x="94.89" y="-14.3" font-family="FreeSans" font-size="14.00" fill="#000000">X::Syntax::Malformed</text>
</a>
</g>
</g>
<!-- Exception -->
<g id="node4" class="node">
<title>Exception</title>
<g id="a_node4"><a xlink:href="/type/Exception" xlink:title="Exception">
<ellipse fill="none" stroke="#000000" cx="117.89" cy="-234" rx="49.29" ry="18"/>
<text text-anchor="middle" x="117.89" y="-230.3" font-family="FreeSans" font-size="14.00" fill="#000000">Exception</text>
</a>
</g>
</g>
<!-- X::Syntax::Malformed&#45;&gt;Exception -->
<g id="edge1" class="edge">
<title>X::Syntax::Malformed&#45;&gt;Exception</title>
<path fill="none" stroke="#000000" d="M92.86,-36.15C93.3,-73.34 102.53,-161.63 110.36,-206.23"/>
<polygon fill="#000000" stroke="#000000" points="106.93,-206.88 112.21,-216.06 113.8,-205.59 106.93,-206.88"/>
</g>
<!-- X::Syntax::Malformed&#45;&gt;Exception -->
<g id="edge2" class="edge">
<title>X::Syntax::Malformed&#45;&gt;Exception</title>
<path fill="none" stroke="#000000" d="M100.61,-36.15C108.13,-73.17 117.82,-160.82 119.64,-205.61"/>
<polygon fill="#000000" stroke="#000000" points="116.15,-205.87 119.92,-215.77 123.14,-205.67 116.15,-205.87"/>
</g>
<!-- X::Syntax -->
<g id="node6" class="node">
<title>X::Syntax</title>
<g id="a_node6"><a xlink:href="/type/X::Syntax" xlink:title="X::Syntax">
<ellipse fill="none" stroke="#6666ff" cx="179.89" cy="-90" rx="48.19" ry="18"/>
<text text-anchor="middle" x="179.89" y="-86.3" font-family="FreeSans" font-size="14.00" fill="#6666ff">X::Syntax</text>
</a>
</g>
</g>
<!-- X::Syntax::Malformed&#45;&gt;X::Syntax -->
<g id="edge7" class="edge">
<title>X::Syntax::Malformed&#45;&gt;X::Syntax</title>
<path fill="none" stroke="#6666ff" d="M115.47,-35.95C126.73,-45.22 140.81,-56.81 152.93,-66.8"/>
<polygon fill="#6666ff" stroke="#6666ff" points="151.01,-69.75 160.96,-73.41 155.46,-64.35 151.01,-69.75"/>
</g>
<!-- Mu -->
<g id="node2" class="node">
<title>Mu</title>
<g id="a_node2"><a xlink:href="/type/Mu" xlink:title="Mu">
<ellipse fill="none" stroke="#000000" cx="117.89" cy="-378" rx="27" ry="18"/>
<text text-anchor="middle" x="117.89" y="-374.3" font-family="FreeSans" font-size="14.00" fill="#000000">Mu</text>
</a>
</g>
</g>
<!-- Any -->
<g id="node3" class="node">
<title>Any</title>
<g id="a_node3"><a xlink:href="/type/Any" xlink:title="Any">
<ellipse fill="none" stroke="#000000" cx="117.89" cy="-306" rx="27" ry="18"/>
<text text-anchor="middle" x="117.89" y="-302.3" font-family="FreeSans" font-size="14.00" fill="#000000">Any</text>
</a>
</g>
</g>
<!-- Any&#45;&gt;Mu -->
<g id="edge3" class="edge">
<title>Any&#45;&gt;Mu</title>
<path fill="none" stroke="#000000" d="M117.89,-324.3C117.89,-332.02 117.89,-341.29 117.89,-349.89"/>
<polygon fill="#000000" stroke="#000000" points="114.39,-349.9 117.89,-359.9 121.39,-349.9 114.39,-349.9"/>
</g>
<!-- Exception&#45;&gt;Any -->
<g id="edge4" class="edge">
<title>Exception&#45;&gt;Any</title>
<path fill="none" stroke="#000000" d="M117.89,-252.3C117.89,-260.02 117.89,-269.29 117.89,-277.89"/>
<polygon fill="#000000" stroke="#000000" points="114.39,-277.9 117.89,-287.9 121.39,-277.9 114.39,-277.9"/>
</g>
<!-- X::Comp -->
<g id="node5" class="node">
<title>X::Comp</title>
<g id="a_node5"><a xlink:href="/type/X::Comp" xlink:title="X::Comp">
<ellipse fill="none" stroke="#6666ff" cx="214.89" cy="-162" rx="44.69" ry="18"/>
<text text-anchor="middle" x="214.89" y="-158.3" font-family="FreeSans" font-size="14.00" fill="#6666ff">X::Comp</text>
</a>
</g>
</g>
<!-- X::Comp&#45;&gt;Exception -->
<g id="edge5" class="edge">
<title>X::Comp&#45;&gt;Exception</title>
<path fill="none" stroke="#000000" d="M193.84,-178.19C180.34,-187.94 162.59,-200.74 147.65,-211.52"/>
<polygon fill="#000000" stroke="#000000" points="145.29,-208.91 139.23,-217.6 149.39,-214.59 145.29,-208.91"/>
</g>
<!-- X::Syntax&#45;&gt;Exception -->
<g id="edge6" class="edge">
<title>X::Syntax&#45;&gt;Exception</title>
<path fill="none" stroke="#000000" d="M172.54,-107.85C161.86,-132.29 141.98,-177.83 129.37,-206.71"/>
<polygon fill="#000000" stroke="#000000" points="126.03,-205.61 125.24,-216.18 132.45,-208.41 126.03,-205.61"/>
</g>
<!-- X::Syntax&#45;&gt;X::Comp -->
<g id="edge8" class="edge">
<title>X::Syntax&#45;&gt;X::Comp</title>
<path fill="none" stroke="#6666ff" d="M188.36,-107.95C192.45,-116.11 197.44,-126.09 201.98,-135.18"/>
<polygon fill="#6666ff" stroke="#6666ff" points="198.89,-136.83 206.5,-144.21 205.16,-133.7 198.89,-136.83"/>
</g>
</g>
</svg>
