<?xml version="1.0" encoding="UTF-8" standalone="no"?>
<!DOCTYPE svg PUBLIC "-//W3C//DTD SVG 1.1//EN"
 "http://www.w3.org/Graphics/SVG/1.1/DTD/svg11.dtd">
<!-- Generated by graphviz version 2.43.0 (0)
 -->
<!-- Title: perl6&#45;type&#45;graph Pages: 1 -->
<svg width="265pt" height="404pt"
 viewBox="0.00 0.00 265.38 404.00" xmlns="http://www.w3.org/2000/svg" xmlns:xlink="http://www.w3.org/1999/xlink">
<g id="graph0" class="graph" transform="scale(1 1) rotate(0) translate(4 400)">
<title>perl6&#45;type&#45;graph</title>
<polygon fill="white" stroke="transparent" points="-4,4 -4,-400 261.38,-400 261.38,4 -4,4"/>
<!-- X::Syntax::InfixInTermPosition -->
<g id="node1" class="node">
<title>X::Syntax::InfixInTermPosition</title>
<g id="a_node1"><a xlink:href="/type/X::Syntax::InfixInTermPosition" xlink:title="X::Syntax::InfixInTermPosition">
<ellipse fill="none" stroke="#000000" cx="128.69" cy="-18" rx="128.88" ry="18"/>
<text text-anchor="middle" x="128.69" y="-14.3" font-family="FreeSans" font-size="14.00" fill="#000000">X::Syntax::InfixInTermPosition</text>
</a>
</g>
</g>
<!-- Exception -->
<g id="node4" class="node">
<title>Exception</title>
<g id="a_node4"><a xlink:href="/type/Exception" xlink:title="Exception">
<ellipse fill="none" stroke="#000000" cx="128.69" cy="-234" rx="49.29" ry="18"/>
<text text-anchor="middle" x="128.69" y="-230.3" font-family="FreeSans" font-size="14.00" fill="#000000">Exception</text>
</a>
</g>
</g>
<!-- X::Syntax::InfixInTermPosition&#45;&gt;Exception -->
<g id="edge1" class="edge">
<title>X::Syntax::InfixInTermPosition&#45;&gt;Exception</title>
<path fill="none" stroke="#000000" d="M122.57,-36.06C117.02,-51.55 109.69,-72 109.69,-72 109.69,-72 109.69,-108 109.69,-108 109.69,-108 118.96,-169.01 124.55,-205.78"/>
<polygon fill="#000000" stroke="#000000" points="121.12,-206.52 126.09,-215.88 128.04,-205.47 121.12,-206.52"/>
</g>
<!-- X::Syntax -->
<g id="node6" class="node">
<title>X::Syntax</title>
<g id="a_node6"><a xlink:href="/type/X::Syntax" xlink:title="X::Syntax">
<ellipse fill="none" stroke="#6666ff" cx="166.69" cy="-90" rx="48.19" ry="18"/>
<text text-anchor="middle" x="166.69" y="-86.3" font-family="FreeSans" font-size="14.00" fill="#6666ff">X::Syntax</text>
</a>
</g>
</g>
<!-- X::Syntax::InfixInTermPosition&#45;&gt;X::Syntax -->
<g id="edge6" class="edge">
<title>X::Syntax::InfixInTermPosition&#45;&gt;X::Syntax</title>
<path fill="none" stroke="#6666ff" d="M138.08,-36.3C142.45,-44.36 147.75,-54.11 152.58,-63.02"/>
<polygon fill="#6666ff" stroke="#6666ff" points="149.56,-64.78 157.4,-71.9 155.71,-61.44 149.56,-64.78"/>
</g>
<!-- Mu -->
<g id="node2" class="node">
<title>Mu</title>
<g id="a_node2"><a xlink:href="/type/Mu" xlink:title="Mu">
<ellipse fill="none" stroke="#000000" cx="128.69" cy="-378" rx="27" ry="18"/>
<text text-anchor="middle" x="128.69" y="-374.3" font-family="FreeSans" font-size="14.00" fill="#000000">Mu</text>
</a>
</g>
</g>
<!-- Any -->
<g id="node3" class="node">
<title>Any</title>
<g id="a_node3"><a xlink:href="/type/Any" xlink:title="Any">
<ellipse fill="none" stroke="#000000" cx="128.69" cy="-306" rx="27" ry="18"/>
<text text-anchor="middle" x="128.69" y="-302.3" font-family="FreeSans" font-size="14.00" fill="#000000">Any</text>
</a>
</g>
</g>
<!-- Any&#45;&gt;Mu -->
<g id="edge2" class="edge">
<title>Any&#45;&gt;Mu</title>
<path fill="none" stroke="#000000" d="M128.69,-324.3C128.69,-332.02 128.69,-341.29 128.69,-349.89"/>
<polygon fill="#000000" stroke="#000000" points="125.19,-349.9 128.69,-359.9 132.19,-349.9 125.19,-349.9"/>
</g>
<!-- Exception&#45;&gt;Any -->
<g id="edge3" class="edge">
<title>Exception&#45;&gt;Any</title>
<path fill="none" stroke="#000000" d="M128.69,-252.3C128.69,-260.02 128.69,-269.29 128.69,-277.89"/>
<polygon fill="#000000" stroke="#000000" points="125.19,-277.9 128.69,-287.9 132.19,-277.9 125.19,-277.9"/>
</g>
<!-- X::Comp -->
<g id="node5" class="node">
<title>X::Comp</title>
<g id="a_node5"><a xlink:href="/type/X::Comp" xlink:title="X::Comp">
<ellipse fill="none" stroke="#6666ff" cx="201.69" cy="-162" rx="44.69" ry="18"/>
<text text-anchor="middle" x="201.69" y="-158.3" font-family="FreeSans" font-size="14.00" fill="#6666ff">X::Comp</text>
</a>
</g>
</g>
<!-- X::Comp&#45;&gt;Exception -->
<g id="edge4" class="edge">
<title>X::Comp&#45;&gt;Exception</title>
<path fill="none" stroke="#000000" d="M185.12,-178.88C175.58,-188.04 163.41,-199.71 152.82,-209.87"/>
<polygon fill="#000000" stroke="#000000" points="150.24,-207.49 145.44,-216.94 155.08,-212.54 150.24,-207.49"/>
</g>
<!-- X::Syntax&#45;&gt;Exception -->
<g id="edge5" class="edge">
<title>X::Syntax&#45;&gt;Exception</title>
<path fill="none" stroke="#000000" d="M160.57,-108.06C155.02,-123.55 147.69,-144 147.69,-144 147.69,-144 140.04,-179.83 134.45,-206.03"/>
<polygon fill="#000000" stroke="#000000" points="131.02,-205.33 132.35,-215.84 137.86,-206.79 131.02,-205.33"/>
</g>
<!-- X::Syntax&#45;&gt;X::Comp -->
<g id="edge7" class="edge">
<title>X::Syntax&#45;&gt;X::Comp</title>
<path fill="none" stroke="#6666ff" d="M175.16,-107.95C179.25,-116.11 184.23,-126.09 188.78,-135.18"/>
<polygon fill="#6666ff" stroke="#6666ff" points="185.69,-136.83 193.29,-144.21 191.95,-133.7 185.69,-136.83"/>
</g>
</g>
</svg>
