<?xml version="1.0" encoding="UTF-8" standalone="no"?>
<!DOCTYPE svg PUBLIC "-//W3C//DTD SVG 1.1//EN"
 "http://www.w3.org/Graphics/SVG/1.1/DTD/svg11.dtd">
<!-- Generated by graphviz version 2.43.0 (0)
 -->
<!-- Title: perl6&#45;type&#45;graph Pages: 1 -->
<svg width="336pt" height="404pt"
 viewBox="0.00 0.00 335.98 404.00" xmlns="http://www.w3.org/2000/svg" xmlns:xlink="http://www.w3.org/1999/xlink">
<g id="graph0" class="graph" transform="scale(1 1) rotate(0) translate(4 400)">
<title>perl6&#45;type&#45;graph</title>
<polygon fill="white" stroke="transparent" points="-4,4 -4,-400 331.98,-400 331.98,4 -4,4"/>
<!-- X::Syntax::Variable::IndirectDeclaration -->
<g id="node1" class="node">
<title>X::Syntax::Variable::IndirectDeclaration</title>
<g id="a_node1"><a xlink:href="/type/X::Syntax::Variable::IndirectDeclaration" xlink:title="X::Syntax::Variable::IndirectDeclaration">
<ellipse fill="none" stroke="#000000" cx="163.14" cy="-18" rx="163.27" ry="18"/>
<text text-anchor="middle" x="163.14" y="-14.3" font-family="FreeSans" font-size="14.00" fill="#000000">X::Syntax::Variable::IndirectDeclaration</text>
</a>
</g>
</g>
<!-- Exception -->
<g id="node4" class="node">
<title>Exception</title>
<g id="a_node4"><a xlink:href="/type/Exception" xlink:title="Exception">
<ellipse fill="none" stroke="#000000" cx="186.14" cy="-234" rx="49.29" ry="18"/>
<text text-anchor="middle" x="186.14" y="-230.3" font-family="FreeSans" font-size="14.00" fill="#000000">Exception</text>
</a>
</g>
</g>
<!-- X::Syntax::Variable::IndirectDeclaration&#45;&gt;Exception -->
<g id="edge1" class="edge">
<title>X::Syntax::Variable::IndirectDeclaration&#45;&gt;Exception</title>
<path fill="none" stroke="#000000" d="M161.1,-36.15C161.55,-73.34 170.78,-161.63 178.61,-206.23"/>
<polygon fill="#000000" stroke="#000000" points="175.17,-206.88 180.46,-216.06 182.05,-205.59 175.17,-206.88"/>
</g>
<!-- X::Syntax::Variable::IndirectDeclaration&#45;&gt;Exception -->
<g id="edge2" class="edge">
<title>X::Syntax::Variable::IndirectDeclaration&#45;&gt;Exception</title>
<path fill="none" stroke="#000000" d="M168.86,-36.15C176.37,-73.17 186.06,-160.82 187.88,-205.61"/>
<polygon fill="#000000" stroke="#000000" points="184.39,-205.87 188.17,-215.77 191.39,-205.67 184.39,-205.87"/>
</g>
<!-- X::Syntax -->
<g id="node6" class="node">
<title>X::Syntax</title>
<g id="a_node6"><a xlink:href="/type/X::Syntax" xlink:title="X::Syntax">
<ellipse fill="none" stroke="#6666ff" cx="248.14" cy="-90" rx="48.19" ry="18"/>
<text text-anchor="middle" x="248.14" y="-86.3" font-family="FreeSans" font-size="14.00" fill="#6666ff">X::Syntax</text>
</a>
</g>
</g>
<!-- X::Syntax::Variable::IndirectDeclaration&#45;&gt;X::Syntax -->
<g id="edge7" class="edge">
<title>X::Syntax::Variable::IndirectDeclaration&#45;&gt;X::Syntax</title>
<path fill="none" stroke="#6666ff" d="M183.71,-35.95C194.97,-45.22 209.05,-56.81 221.18,-66.8"/>
<polygon fill="#6666ff" stroke="#6666ff" points="219.26,-69.75 229.2,-73.41 223.71,-64.35 219.26,-69.75"/>
</g>
<!-- Mu -->
<g id="node2" class="node">
<title>Mu</title>
<g id="a_node2"><a xlink:href="/type/Mu" xlink:title="Mu">
<ellipse fill="none" stroke="#000000" cx="186.14" cy="-378" rx="27" ry="18"/>
<text text-anchor="middle" x="186.14" y="-374.3" font-family="FreeSans" font-size="14.00" fill="#000000">Mu</text>
</a>
</g>
</g>
<!-- Any -->
<g id="node3" class="node">
<title>Any</title>
<g id="a_node3"><a xlink:href="/type/Any" xlink:title="Any">
<ellipse fill="none" stroke="#000000" cx="186.14" cy="-306" rx="27" ry="18"/>
<text text-anchor="middle" x="186.14" y="-302.3" font-family="FreeSans" font-size="14.00" fill="#000000">Any</text>
</a>
</g>
</g>
<!-- Any&#45;&gt;Mu -->
<g id="edge3" class="edge">
<title>Any&#45;&gt;Mu</title>
<path fill="none" stroke="#000000" d="M186.14,-324.3C186.14,-332.02 186.14,-341.29 186.14,-349.89"/>
<polygon fill="#000000" stroke="#000000" points="182.64,-349.9 186.14,-359.9 189.64,-349.9 182.64,-349.9"/>
</g>
<!-- Exception&#45;&gt;Any -->
<g id="edge4" class="edge">
<title>Exception&#45;&gt;Any</title>
<path fill="none" stroke="#000000" d="M186.14,-252.3C186.14,-260.02 186.14,-269.29 186.14,-277.89"/>
<polygon fill="#000000" stroke="#000000" points="182.64,-277.9 186.14,-287.9 189.64,-277.9 182.64,-277.9"/>
</g>
<!-- X::Comp -->
<g id="node5" class="node">
<title>X::Comp</title>
<g id="a_node5"><a xlink:href="/type/X::Comp" xlink:title="X::Comp">
<ellipse fill="none" stroke="#6666ff" cx="283.14" cy="-162" rx="44.69" ry="18"/>
<text text-anchor="middle" x="283.14" y="-158.3" font-family="FreeSans" font-size="14.00" fill="#6666ff">X::Comp</text>
</a>
</g>
</g>
<!-- X::Comp&#45;&gt;Exception -->
<g id="edge5" class="edge">
<title>X::Comp&#45;&gt;Exception</title>
<path fill="none" stroke="#000000" d="M262.09,-178.19C248.58,-187.94 230.84,-200.74 215.9,-211.52"/>
<polygon fill="#000000" stroke="#000000" points="213.54,-208.91 207.48,-217.6 217.63,-214.59 213.54,-208.91"/>
</g>
<!-- X::Syntax&#45;&gt;Exception -->
<g id="edge6" class="edge">
<title>X::Syntax&#45;&gt;Exception</title>
<path fill="none" stroke="#000000" d="M240.78,-107.85C230.11,-132.29 210.22,-177.83 197.61,-206.71"/>
<polygon fill="#000000" stroke="#000000" points="194.28,-205.61 193.48,-216.18 200.69,-208.41 194.28,-205.61"/>
</g>
<!-- X::Syntax&#45;&gt;X::Comp -->
<g id="edge8" class="edge">
<title>X::Syntax&#45;&gt;X::Comp</title>
<path fill="none" stroke="#6666ff" d="M256.61,-107.95C260.69,-116.11 265.68,-126.09 270.22,-135.18"/>
<polygon fill="#6666ff" stroke="#6666ff" points="267.14,-136.83 274.74,-144.21 273.4,-133.7 267.14,-136.83"/>
</g>
</g>
</svg>
