<?xml version="1.0" encoding="UTF-8" standalone="no"?>
<!DOCTYPE svg PUBLIC "-//W3C//DTD SVG 1.1//EN"
 "http://www.w3.org/Graphics/SVG/1.1/DTD/svg11.dtd">
<!-- Generated by graphviz version 2.43.0 (0)
 -->
<!-- Title: perl6&#45;type&#45;graph Pages: 1 -->
<svg width="255pt" height="404pt"
 viewBox="0.00 0.00 254.98 404.00" xmlns="http://www.w3.org/2000/svg" xmlns:xlink="http://www.w3.org/1999/xlink">
<g id="graph0" class="graph" transform="scale(1 1) rotate(0) translate(4 400)">
<title>perl6&#45;type&#45;graph</title>
<polygon fill="white" stroke="transparent" points="-4,4 -4,-400 250.98,-400 250.98,4 -4,4"/>
<!-- X::Syntax::Variable::Numeric -->
<g id="node1" class="node">
<title>X::Syntax::Variable::Numeric</title>
<g id="a_node1"><a xlink:href="/type/X::Syntax::Variable::Numeric" xlink:title="X::Syntax::Variable::Numeric">
<ellipse fill="none" stroke="#000000" cx="123.49" cy="-18" rx="123.48" ry="18"/>
<text text-anchor="middle" x="123.49" y="-14.3" font-family="FreeSans" font-size="14.00" fill="#000000">X::Syntax::Variable::Numeric</text>
</a>
</g>
</g>
<!-- Exception -->
<g id="node4" class="node">
<title>Exception</title>
<g id="a_node4"><a xlink:href="/type/Exception" xlink:title="Exception">
<ellipse fill="none" stroke="#000000" cx="123.49" cy="-234" rx="49.29" ry="18"/>
<text text-anchor="middle" x="123.49" y="-230.3" font-family="FreeSans" font-size="14.00" fill="#000000">Exception</text>
</a>
</g>
</g>
<!-- X::Syntax::Variable::Numeric&#45;&gt;Exception -->
<g id="edge1" class="edge">
<title>X::Syntax::Variable::Numeric&#45;&gt;Exception</title>
<path fill="none" stroke="#000000" d="M117.37,-36.06C111.82,-51.55 104.49,-72 104.49,-72 104.49,-72 104.49,-108 104.49,-108 104.49,-108 113.76,-169.01 119.35,-205.78"/>
<polygon fill="#000000" stroke="#000000" points="115.92,-206.52 120.89,-215.88 122.84,-205.47 115.92,-206.52"/>
</g>
<!-- X::Syntax -->
<g id="node6" class="node">
<title>X::Syntax</title>
<g id="a_node6"><a xlink:href="/type/X::Syntax" xlink:title="X::Syntax">
<ellipse fill="none" stroke="#6666ff" cx="161.49" cy="-90" rx="48.19" ry="18"/>
<text text-anchor="middle" x="161.49" y="-86.3" font-family="FreeSans" font-size="14.00" fill="#6666ff">X::Syntax</text>
</a>
</g>
</g>
<!-- X::Syntax::Variable::Numeric&#45;&gt;X::Syntax -->
<g id="edge6" class="edge">
<title>X::Syntax::Variable::Numeric&#45;&gt;X::Syntax</title>
<path fill="none" stroke="#6666ff" d="M132.88,-36.3C137.25,-44.36 142.55,-54.11 147.38,-63.02"/>
<polygon fill="#6666ff" stroke="#6666ff" points="144.36,-64.78 152.2,-71.9 150.51,-61.44 144.36,-64.78"/>
</g>
<!-- Mu -->
<g id="node2" class="node">
<title>Mu</title>
<g id="a_node2"><a xlink:href="/type/Mu" xlink:title="Mu">
<ellipse fill="none" stroke="#000000" cx="123.49" cy="-378" rx="27" ry="18"/>
<text text-anchor="middle" x="123.49" y="-374.3" font-family="FreeSans" font-size="14.00" fill="#000000">Mu</text>
</a>
</g>
</g>
<!-- Any -->
<g id="node3" class="node">
<title>Any</title>
<g id="a_node3"><a xlink:href="/type/Any" xlink:title="Any">
<ellipse fill="none" stroke="#000000" cx="123.49" cy="-306" rx="27" ry="18"/>
<text text-anchor="middle" x="123.49" y="-302.3" font-family="FreeSans" font-size="14.00" fill="#000000">Any</text>
</a>
</g>
</g>
<!-- Any&#45;&gt;Mu -->
<g id="edge2" class="edge">
<title>Any&#45;&gt;Mu</title>
<path fill="none" stroke="#000000" d="M123.49,-324.3C123.49,-332.02 123.49,-341.29 123.49,-349.89"/>
<polygon fill="#000000" stroke="#000000" points="119.99,-349.9 123.49,-359.9 126.99,-349.9 119.99,-349.9"/>
</g>
<!-- Exception&#45;&gt;Any -->
<g id="edge3" class="edge">
<title>Exception&#45;&gt;Any</title>
<path fill="none" stroke="#000000" d="M123.49,-252.3C123.49,-260.02 123.49,-269.29 123.49,-277.89"/>
<polygon fill="#000000" stroke="#000000" points="119.99,-277.9 123.49,-287.9 126.99,-277.9 119.99,-277.9"/>
</g>
<!-- X::Comp -->
<g id="node5" class="node">
<title>X::Comp</title>
<g id="a_node5"><a xlink:href="/type/X::Comp" xlink:title="X::Comp">
<ellipse fill="none" stroke="#6666ff" cx="196.49" cy="-162" rx="44.69" ry="18"/>
<text text-anchor="middle" x="196.49" y="-158.3" font-family="FreeSans" font-size="14.00" fill="#6666ff">X::Comp</text>
</a>
</g>
</g>
<!-- X::Comp&#45;&gt;Exception -->
<g id="edge4" class="edge">
<title>X::Comp&#45;&gt;Exception</title>
<path fill="none" stroke="#000000" d="M179.92,-178.88C170.38,-188.04 158.21,-199.71 147.62,-209.87"/>
<polygon fill="#000000" stroke="#000000" points="145.04,-207.49 140.24,-216.94 149.88,-212.54 145.04,-207.49"/>
</g>
<!-- X::Syntax&#45;&gt;Exception -->
<g id="edge5" class="edge">
<title>X::Syntax&#45;&gt;Exception</title>
<path fill="none" stroke="#000000" d="M155.37,-108.06C149.82,-123.55 142.49,-144 142.49,-144 142.49,-144 134.84,-179.83 129.25,-206.03"/>
<polygon fill="#000000" stroke="#000000" points="125.82,-205.33 127.15,-215.84 132.66,-206.79 125.82,-205.33"/>
</g>
<!-- X::Syntax&#45;&gt;X::Comp -->
<g id="edge7" class="edge">
<title>X::Syntax&#45;&gt;X::Comp</title>
<path fill="none" stroke="#6666ff" d="M169.96,-107.95C174.05,-116.11 179.03,-126.09 183.58,-135.18"/>
<polygon fill="#6666ff" stroke="#6666ff" points="180.49,-136.83 188.09,-144.21 186.75,-133.7 180.49,-136.83"/>
</g>
</g>
</svg>
