<?xml version="1.0" encoding="UTF-8" standalone="no"?>
<!DOCTYPE svg PUBLIC "-//W3C//DTD SVG 1.1//EN"
 "http://www.w3.org/Graphics/SVG/1.1/DTD/svg11.dtd">
<!-- Generated by graphviz version 2.43.0 (0)
 -->
<!-- Title: perl6&#45;type&#45;graph Pages: 1 -->
<svg width="330pt" height="404pt"
 viewBox="0.00 0.00 330.13 404.00" xmlns="http://www.w3.org/2000/svg" xmlns:xlink="http://www.w3.org/1999/xlink">
<g id="graph0" class="graph" transform="scale(1 1) rotate(0) translate(4 400)">
<title>perl6&#45;type&#45;graph</title>
<polygon fill="white" stroke="transparent" points="-4,4 -4,-400 326.13,-400 326.13,4 -4,4"/>
<!-- X::Syntax::Signature::InvocantMarker -->
<g id="node1" class="node">
<title>X::Syntax::Signature::InvocantMarker</title>
<g id="a_node1"><a xlink:href="/type/X::Syntax::Signature::InvocantMarker" xlink:title="X::Syntax::Signature::InvocantMarker">
<ellipse fill="none" stroke="#000000" cx="157.29" cy="-18" rx="157.07" ry="18"/>
<text text-anchor="middle" x="157.29" y="-14.3" font-family="FreeSans" font-size="14.00" fill="#000000">X::Syntax::Signature::InvocantMarker</text>
</a>
</g>
</g>
<!-- Exception -->
<g id="node4" class="node">
<title>Exception</title>
<g id="a_node4"><a xlink:href="/type/Exception" xlink:title="Exception">
<ellipse fill="none" stroke="#000000" cx="180.29" cy="-234" rx="49.29" ry="18"/>
<text text-anchor="middle" x="180.29" y="-230.3" font-family="FreeSans" font-size="14.00" fill="#000000">Exception</text>
</a>
</g>
</g>
<!-- X::Syntax::Signature::InvocantMarker&#45;&gt;Exception -->
<g id="edge1" class="edge">
<title>X::Syntax::Signature::InvocantMarker&#45;&gt;Exception</title>
<path fill="none" stroke="#000000" d="M155.25,-36.15C155.7,-73.34 164.93,-161.63 172.76,-206.23"/>
<polygon fill="#000000" stroke="#000000" points="169.32,-206.88 174.61,-216.06 176.2,-205.59 169.32,-206.88"/>
</g>
<!-- X::Syntax::Signature::InvocantMarker&#45;&gt;Exception -->
<g id="edge2" class="edge">
<title>X::Syntax::Signature::InvocantMarker&#45;&gt;Exception</title>
<path fill="none" stroke="#000000" d="M163.01,-36.15C170.52,-73.17 180.21,-160.82 182.03,-205.61"/>
<polygon fill="#000000" stroke="#000000" points="178.54,-205.87 182.32,-215.77 185.54,-205.67 178.54,-205.87"/>
</g>
<!-- X::Syntax -->
<g id="node6" class="node">
<title>X::Syntax</title>
<g id="a_node6"><a xlink:href="/type/X::Syntax" xlink:title="X::Syntax">
<ellipse fill="none" stroke="#6666ff" cx="242.29" cy="-90" rx="48.19" ry="18"/>
<text text-anchor="middle" x="242.29" y="-86.3" font-family="FreeSans" font-size="14.00" fill="#6666ff">X::Syntax</text>
</a>
</g>
</g>
<!-- X::Syntax::Signature::InvocantMarker&#45;&gt;X::Syntax -->
<g id="edge7" class="edge">
<title>X::Syntax::Signature::InvocantMarker&#45;&gt;X::Syntax</title>
<path fill="none" stroke="#6666ff" d="M177.86,-35.95C189.12,-45.22 203.2,-56.81 215.33,-66.8"/>
<polygon fill="#6666ff" stroke="#6666ff" points="213.41,-69.75 223.35,-73.41 217.86,-64.35 213.41,-69.75"/>
</g>
<!-- Mu -->
<g id="node2" class="node">
<title>Mu</title>
<g id="a_node2"><a xlink:href="/type/Mu" xlink:title="Mu">
<ellipse fill="none" stroke="#000000" cx="180.29" cy="-378" rx="27" ry="18"/>
<text text-anchor="middle" x="180.29" y="-374.3" font-family="FreeSans" font-size="14.00" fill="#000000">Mu</text>
</a>
</g>
</g>
<!-- Any -->
<g id="node3" class="node">
<title>Any</title>
<g id="a_node3"><a xlink:href="/type/Any" xlink:title="Any">
<ellipse fill="none" stroke="#000000" cx="180.29" cy="-306" rx="27" ry="18"/>
<text text-anchor="middle" x="180.29" y="-302.3" font-family="FreeSans" font-size="14.00" fill="#000000">Any</text>
</a>
</g>
</g>
<!-- Any&#45;&gt;Mu -->
<g id="edge3" class="edge">
<title>Any&#45;&gt;Mu</title>
<path fill="none" stroke="#000000" d="M180.29,-324.3C180.29,-332.02 180.29,-341.29 180.29,-349.89"/>
<polygon fill="#000000" stroke="#000000" points="176.79,-349.9 180.29,-359.9 183.79,-349.9 176.79,-349.9"/>
</g>
<!-- Exception&#45;&gt;Any -->
<g id="edge4" class="edge">
<title>Exception&#45;&gt;Any</title>
<path fill="none" stroke="#000000" d="M180.29,-252.3C180.29,-260.02 180.29,-269.29 180.29,-277.89"/>
<polygon fill="#000000" stroke="#000000" points="176.79,-277.9 180.29,-287.9 183.79,-277.9 176.79,-277.9"/>
</g>
<!-- X::Comp -->
<g id="node5" class="node">
<title>X::Comp</title>
<g id="a_node5"><a xlink:href="/type/X::Comp" xlink:title="X::Comp">
<ellipse fill="none" stroke="#6666ff" cx="277.29" cy="-162" rx="44.69" ry="18"/>
<text text-anchor="middle" x="277.29" y="-158.3" font-family="FreeSans" font-size="14.00" fill="#6666ff">X::Comp</text>
</a>
</g>
</g>
<!-- X::Comp&#45;&gt;Exception -->
<g id="edge5" class="edge">
<title>X::Comp&#45;&gt;Exception</title>
<path fill="none" stroke="#000000" d="M256.24,-178.19C242.73,-187.94 224.99,-200.74 210.05,-211.52"/>
<polygon fill="#000000" stroke="#000000" points="207.69,-208.91 201.63,-217.6 211.78,-214.59 207.69,-208.91"/>
</g>
<!-- X::Syntax&#45;&gt;Exception -->
<g id="edge6" class="edge">
<title>X::Syntax&#45;&gt;Exception</title>
<path fill="none" stroke="#000000" d="M234.93,-107.85C224.26,-132.29 204.37,-177.83 191.76,-206.71"/>
<polygon fill="#000000" stroke="#000000" points="188.43,-205.61 187.63,-216.18 194.84,-208.41 188.43,-205.61"/>
</g>
<!-- X::Syntax&#45;&gt;X::Comp -->
<g id="edge8" class="edge">
<title>X::Syntax&#45;&gt;X::Comp</title>
<path fill="none" stroke="#6666ff" d="M250.76,-107.95C254.84,-116.11 259.83,-126.09 264.37,-135.18"/>
<polygon fill="#6666ff" stroke="#6666ff" points="261.29,-136.83 268.89,-144.21 267.55,-133.7 261.29,-136.83"/>
</g>
</g>
</svg>
