<?xml version="1.0" encoding="UTF-8" standalone="no"?>
<!DOCTYPE svg PUBLIC "-//W3C//DTD SVG 1.1//EN"
 "http://www.w3.org/Graphics/SVG/1.1/DTD/svg11.dtd">
<!-- Generated by graphviz version 2.43.0 (0)
 -->
<!-- Title: perl6&#45;type&#45;graph Pages: 1 -->
<svg width="239pt" height="404pt"
 viewBox="0.00 0.00 238.94 404.00" xmlns="http://www.w3.org/2000/svg" xmlns:xlink="http://www.w3.org/1999/xlink">
<g id="graph0" class="graph" transform="scale(1 1) rotate(0) translate(4 400)">
<title>perl6&#45;type&#45;graph</title>
<polygon fill="white" stroke="transparent" points="-4,4 -4,-400 234.94,-400 234.94,4 -4,4"/>
<!-- X::Syntax::Variable::Twigil -->
<g id="node1" class="node">
<title>X::Syntax::Variable::Twigil</title>
<g id="a_node1"><a xlink:href="/type/X::Syntax::Variable::Twigil" xlink:title="X::Syntax::Variable::Twigil">
<ellipse fill="none" stroke="#000000" cx="113.09" cy="-18" rx="113.18" ry="18"/>
<text text-anchor="middle" x="113.09" y="-14.3" font-family="FreeSans" font-size="14.00" fill="#000000">X::Syntax::Variable::Twigil</text>
</a>
</g>
</g>
<!-- Exception -->
<g id="node4" class="node">
<title>Exception</title>
<g id="a_node4"><a xlink:href="/type/Exception" xlink:title="Exception">
<ellipse fill="none" stroke="#000000" cx="113.09" cy="-234" rx="49.29" ry="18"/>
<text text-anchor="middle" x="113.09" y="-230.3" font-family="FreeSans" font-size="14.00" fill="#000000">Exception</text>
</a>
</g>
</g>
<!-- X::Syntax::Variable::Twigil&#45;&gt;Exception -->
<g id="edge1" class="edge">
<title>X::Syntax::Variable::Twigil&#45;&gt;Exception</title>
<path fill="none" stroke="#000000" d="M106.97,-36.06C101.42,-51.55 94.09,-72 94.09,-72 94.09,-72 94.09,-108 94.09,-108 94.09,-108 103.36,-169.01 108.95,-205.78"/>
<polygon fill="#000000" stroke="#000000" points="105.52,-206.52 110.49,-215.88 112.45,-205.47 105.52,-206.52"/>
</g>
<!-- X::Syntax -->
<g id="node6" class="node">
<title>X::Syntax</title>
<g id="a_node6"><a xlink:href="/type/X::Syntax" xlink:title="X::Syntax">
<ellipse fill="none" stroke="#6666ff" cx="151.09" cy="-90" rx="48.19" ry="18"/>
<text text-anchor="middle" x="151.09" y="-86.3" font-family="FreeSans" font-size="14.00" fill="#6666ff">X::Syntax</text>
</a>
</g>
</g>
<!-- X::Syntax::Variable::Twigil&#45;&gt;X::Syntax -->
<g id="edge6" class="edge">
<title>X::Syntax::Variable::Twigil&#45;&gt;X::Syntax</title>
<path fill="none" stroke="#6666ff" d="M122.29,-35.95C126.72,-44.11 132.14,-54.09 137.07,-63.18"/>
<polygon fill="#6666ff" stroke="#6666ff" points="134.13,-65.09 141.98,-72.21 140.28,-61.75 134.13,-65.09"/>
</g>
<!-- Mu -->
<g id="node2" class="node">
<title>Mu</title>
<g id="a_node2"><a xlink:href="/type/Mu" xlink:title="Mu">
<ellipse fill="none" stroke="#000000" cx="113.09" cy="-378" rx="27" ry="18"/>
<text text-anchor="middle" x="113.09" y="-374.3" font-family="FreeSans" font-size="14.00" fill="#000000">Mu</text>
</a>
</g>
</g>
<!-- Any -->
<g id="node3" class="node">
<title>Any</title>
<g id="a_node3"><a xlink:href="/type/Any" xlink:title="Any">
<ellipse fill="none" stroke="#000000" cx="113.09" cy="-306" rx="27" ry="18"/>
<text text-anchor="middle" x="113.09" y="-302.3" font-family="FreeSans" font-size="14.00" fill="#000000">Any</text>
</a>
</g>
</g>
<!-- Any&#45;&gt;Mu -->
<g id="edge2" class="edge">
<title>Any&#45;&gt;Mu</title>
<path fill="none" stroke="#000000" d="M113.09,-324.3C113.09,-332.02 113.09,-341.29 113.09,-349.89"/>
<polygon fill="#000000" stroke="#000000" points="109.59,-349.9 113.09,-359.9 116.59,-349.9 109.59,-349.9"/>
</g>
<!-- Exception&#45;&gt;Any -->
<g id="edge3" class="edge">
<title>Exception&#45;&gt;Any</title>
<path fill="none" stroke="#000000" d="M113.09,-252.3C113.09,-260.02 113.09,-269.29 113.09,-277.89"/>
<polygon fill="#000000" stroke="#000000" points="109.59,-277.9 113.09,-287.9 116.59,-277.9 109.59,-277.9"/>
</g>
<!-- X::Comp -->
<g id="node5" class="node">
<title>X::Comp</title>
<g id="a_node5"><a xlink:href="/type/X::Comp" xlink:title="X::Comp">
<ellipse fill="none" stroke="#6666ff" cx="186.09" cy="-162" rx="44.69" ry="18"/>
<text text-anchor="middle" x="186.09" y="-158.3" font-family="FreeSans" font-size="14.00" fill="#6666ff">X::Comp</text>
</a>
</g>
</g>
<!-- X::Comp&#45;&gt;Exception -->
<g id="edge4" class="edge">
<title>X::Comp&#45;&gt;Exception</title>
<path fill="none" stroke="#000000" d="M169.53,-178.88C159.98,-188.04 147.81,-199.71 137.22,-209.87"/>
<polygon fill="#000000" stroke="#000000" points="134.64,-207.49 129.84,-216.94 139.48,-212.54 134.64,-207.49"/>
</g>
<!-- X::Syntax&#45;&gt;Exception -->
<g id="edge5" class="edge">
<title>X::Syntax&#45;&gt;Exception</title>
<path fill="none" stroke="#000000" d="M144.97,-108.06C139.42,-123.55 132.09,-144 132.09,-144 132.09,-144 124.44,-179.83 118.85,-206.03"/>
<polygon fill="#000000" stroke="#000000" points="115.42,-205.33 116.75,-215.84 122.26,-206.79 115.42,-205.33"/>
</g>
<!-- X::Syntax&#45;&gt;X::Comp -->
<g id="edge7" class="edge">
<title>X::Syntax&#45;&gt;X::Comp</title>
<path fill="none" stroke="#6666ff" d="M159.56,-107.95C163.65,-116.11 168.63,-126.09 173.18,-135.18"/>
<polygon fill="#6666ff" stroke="#6666ff" points="170.09,-136.83 177.7,-144.21 176.35,-133.7 170.09,-136.83"/>
</g>
</g>
</svg>
