<?xml version="1.0" encoding="UTF-8" standalone="no"?>
<!DOCTYPE svg PUBLIC "-//W3C//DTD SVG 1.1//EN"
 "http://www.w3.org/Graphics/SVG/1.1/DTD/svg11.dtd">
<!-- Generated by graphviz version 2.43.0 (0)
 -->
<!-- Title: perl6&#45;type&#45;graph Pages: 1 -->
<svg width="274pt" height="404pt"
 viewBox="0.00 0.00 274.24 404.00" xmlns="http://www.w3.org/2000/svg" xmlns:xlink="http://www.w3.org/1999/xlink">
<g id="graph0" class="graph" transform="scale(1 1) rotate(0) translate(4 400)">
<title>perl6&#45;type&#45;graph</title>
<polygon fill="white" stroke="transparent" points="-4,4 -4,-400 270.24,-400 270.24,4 -4,4"/>
<!-- X::Syntax::CannotMeta -->
<g id="node1" class="node">
<title>X::Syntax::CannotMeta</title>
<g id="a_node1"><a xlink:href="/type/X::Syntax::CannotMeta" xlink:title="X::Syntax::CannotMeta">
<ellipse fill="none" stroke="#000000" cx="101.39" cy="-18" rx="101.28" ry="18"/>
<text text-anchor="middle" x="101.39" y="-14.3" font-family="FreeSans" font-size="14.00" fill="#000000">X::Syntax::CannotMeta</text>
</a>
</g>
</g>
<!-- Exception -->
<g id="node4" class="node">
<title>Exception</title>
<g id="a_node4"><a xlink:href="/type/Exception" xlink:title="Exception">
<ellipse fill="none" stroke="#000000" cx="124.39" cy="-234" rx="49.29" ry="18"/>
<text text-anchor="middle" x="124.39" y="-230.3" font-family="FreeSans" font-size="14.00" fill="#000000">Exception</text>
</a>
</g>
</g>
<!-- X::Syntax::CannotMeta&#45;&gt;Exception -->
<g id="edge1" class="edge">
<title>X::Syntax::CannotMeta&#45;&gt;Exception</title>
<path fill="none" stroke="#000000" d="M99.36,-36.15C99.8,-73.34 109.03,-161.63 116.86,-206.23"/>
<polygon fill="#000000" stroke="#000000" points="113.42,-206.88 118.71,-216.06 120.3,-205.59 113.42,-206.88"/>
</g>
<!-- X::Syntax::CannotMeta&#45;&gt;Exception -->
<g id="edge2" class="edge">
<title>X::Syntax::CannotMeta&#45;&gt;Exception</title>
<path fill="none" stroke="#000000" d="M107.11,-36.15C114.63,-73.17 124.32,-160.82 126.14,-205.61"/>
<polygon fill="#000000" stroke="#000000" points="122.65,-205.87 126.42,-215.77 129.64,-205.67 122.65,-205.87"/>
</g>
<!-- X::Syntax -->
<g id="node6" class="node">
<title>X::Syntax</title>
<g id="a_node6"><a xlink:href="/type/X::Syntax" xlink:title="X::Syntax">
<ellipse fill="none" stroke="#6666ff" cx="186.39" cy="-90" rx="48.19" ry="18"/>
<text text-anchor="middle" x="186.39" y="-86.3" font-family="FreeSans" font-size="14.00" fill="#6666ff">X::Syntax</text>
</a>
</g>
</g>
<!-- X::Syntax::CannotMeta&#45;&gt;X::Syntax -->
<g id="edge7" class="edge">
<title>X::Syntax::CannotMeta&#45;&gt;X::Syntax</title>
<path fill="none" stroke="#6666ff" d="M121.97,-35.95C133.22,-45.22 147.31,-56.81 159.43,-66.8"/>
<polygon fill="#6666ff" stroke="#6666ff" points="157.51,-69.75 167.46,-73.41 161.96,-64.35 157.51,-69.75"/>
</g>
<!-- Mu -->
<g id="node2" class="node">
<title>Mu</title>
<g id="a_node2"><a xlink:href="/type/Mu" xlink:title="Mu">
<ellipse fill="none" stroke="#000000" cx="124.39" cy="-378" rx="27" ry="18"/>
<text text-anchor="middle" x="124.39" y="-374.3" font-family="FreeSans" font-size="14.00" fill="#000000">Mu</text>
</a>
</g>
</g>
<!-- Any -->
<g id="node3" class="node">
<title>Any</title>
<g id="a_node3"><a xlink:href="/type/Any" xlink:title="Any">
<ellipse fill="none" stroke="#000000" cx="124.39" cy="-306" rx="27" ry="18"/>
<text text-anchor="middle" x="124.39" y="-302.3" font-family="FreeSans" font-size="14.00" fill="#000000">Any</text>
</a>
</g>
</g>
<!-- Any&#45;&gt;Mu -->
<g id="edge3" class="edge">
<title>Any&#45;&gt;Mu</title>
<path fill="none" stroke="#000000" d="M124.39,-324.3C124.39,-332.02 124.39,-341.29 124.39,-349.89"/>
<polygon fill="#000000" stroke="#000000" points="120.89,-349.9 124.39,-359.9 127.89,-349.9 120.89,-349.9"/>
</g>
<!-- Exception&#45;&gt;Any -->
<g id="edge4" class="edge">
<title>Exception&#45;&gt;Any</title>
<path fill="none" stroke="#000000" d="M124.39,-252.3C124.39,-260.02 124.39,-269.29 124.39,-277.89"/>
<polygon fill="#000000" stroke="#000000" points="120.89,-277.9 124.39,-287.9 127.89,-277.9 120.89,-277.9"/>
</g>
<!-- X::Comp -->
<g id="node5" class="node">
<title>X::Comp</title>
<g id="a_node5"><a xlink:href="/type/X::Comp" xlink:title="X::Comp">
<ellipse fill="none" stroke="#6666ff" cx="221.39" cy="-162" rx="44.69" ry="18"/>
<text text-anchor="middle" x="221.39" y="-158.3" font-family="FreeSans" font-size="14.00" fill="#6666ff">X::Comp</text>
</a>
</g>
</g>
<!-- X::Comp&#45;&gt;Exception -->
<g id="edge5" class="edge">
<title>X::Comp&#45;&gt;Exception</title>
<path fill="none" stroke="#000000" d="M200.34,-178.19C186.84,-187.94 169.09,-200.74 154.15,-211.52"/>
<polygon fill="#000000" stroke="#000000" points="151.79,-208.91 145.73,-217.6 155.89,-214.59 151.79,-208.91"/>
</g>
<!-- X::Syntax&#45;&gt;Exception -->
<g id="edge6" class="edge">
<title>X::Syntax&#45;&gt;Exception</title>
<path fill="none" stroke="#000000" d="M179.04,-107.85C168.36,-132.29 148.48,-177.83 135.87,-206.71"/>
<polygon fill="#000000" stroke="#000000" points="132.53,-205.61 131.74,-216.18 138.95,-208.41 132.53,-205.61"/>
</g>
<!-- X::Syntax&#45;&gt;X::Comp -->
<g id="edge8" class="edge">
<title>X::Syntax&#45;&gt;X::Comp</title>
<path fill="none" stroke="#6666ff" d="M194.86,-107.95C198.95,-116.11 203.94,-126.09 208.48,-135.18"/>
<polygon fill="#6666ff" stroke="#6666ff" points="205.39,-136.83 213,-144.21 211.65,-133.7 205.39,-136.83"/>
</g>
</g>
</svg>
