<?xml version="1.0" encoding="UTF-8" standalone="no"?>
<!DOCTYPE svg PUBLIC "-//W3C//DTD SVG 1.1//EN"
 "http://www.w3.org/Graphics/SVG/1.1/DTD/svg11.dtd">
<!-- Generated by graphviz version 2.43.0 (0)
 -->
<!-- Title: perl6&#45;type&#45;graph Pages: 1 -->
<svg width="270pt" height="404pt"
 viewBox="0.00 0.00 269.69 404.00" xmlns="http://www.w3.org/2000/svg" xmlns:xlink="http://www.w3.org/1999/xlink">
<g id="graph0" class="graph" transform="scale(1 1) rotate(0) translate(4 400)">
<title>perl6&#45;type&#45;graph</title>
<polygon fill="white" stroke="transparent" points="-4,4 -4,-400 265.69,-400 265.69,4 -4,4"/>
<!-- X::Syntax::UnlessElse -->
<g id="node1" class="node">
<title>X::Syntax::UnlessElse</title>
<g id="a_node1"><a xlink:href="/type/X::Syntax::UnlessElse" xlink:title="X::Syntax::UnlessElse">
<ellipse fill="none" stroke="#000000" cx="96.84" cy="-18" rx="96.68" ry="18"/>
<text text-anchor="middle" x="96.84" y="-14.3" font-family="FreeSans" font-size="14.00" fill="#000000">X::Syntax::UnlessElse</text>
</a>
</g>
</g>
<!-- Exception -->
<g id="node4" class="node">
<title>Exception</title>
<g id="a_node4"><a xlink:href="/type/Exception" xlink:title="Exception">
<ellipse fill="none" stroke="#000000" cx="119.84" cy="-234" rx="49.29" ry="18"/>
<text text-anchor="middle" x="119.84" y="-230.3" font-family="FreeSans" font-size="14.00" fill="#000000">Exception</text>
</a>
</g>
</g>
<!-- X::Syntax::UnlessElse&#45;&gt;Exception -->
<g id="edge1" class="edge">
<title>X::Syntax::UnlessElse&#45;&gt;Exception</title>
<path fill="none" stroke="#000000" d="M94.81,-36.15C95.25,-73.34 104.48,-161.63 112.31,-206.23"/>
<polygon fill="#000000" stroke="#000000" points="108.88,-206.88 114.16,-216.06 115.75,-205.59 108.88,-206.88"/>
</g>
<!-- X::Syntax::UnlessElse&#45;&gt;Exception -->
<g id="edge2" class="edge">
<title>X::Syntax::UnlessElse&#45;&gt;Exception</title>
<path fill="none" stroke="#000000" d="M102.56,-36.15C110.08,-73.17 119.77,-160.82 121.59,-205.61"/>
<polygon fill="#000000" stroke="#000000" points="118.1,-205.87 121.87,-215.77 125.09,-205.67 118.1,-205.87"/>
</g>
<!-- X::Syntax -->
<g id="node6" class="node">
<title>X::Syntax</title>
<g id="a_node6"><a xlink:href="/type/X::Syntax" xlink:title="X::Syntax">
<ellipse fill="none" stroke="#6666ff" cx="181.84" cy="-90" rx="48.19" ry="18"/>
<text text-anchor="middle" x="181.84" y="-86.3" font-family="FreeSans" font-size="14.00" fill="#6666ff">X::Syntax</text>
</a>
</g>
</g>
<!-- X::Syntax::UnlessElse&#45;&gt;X::Syntax -->
<g id="edge7" class="edge">
<title>X::Syntax::UnlessElse&#45;&gt;X::Syntax</title>
<path fill="none" stroke="#6666ff" d="M117.42,-35.95C128.68,-45.22 142.76,-56.81 154.88,-66.8"/>
<polygon fill="#6666ff" stroke="#6666ff" points="152.96,-69.75 162.91,-73.41 157.41,-64.35 152.96,-69.75"/>
</g>
<!-- Mu -->
<g id="node2" class="node">
<title>Mu</title>
<g id="a_node2"><a xlink:href="/type/Mu" xlink:title="Mu">
<ellipse fill="none" stroke="#000000" cx="119.84" cy="-378" rx="27" ry="18"/>
<text text-anchor="middle" x="119.84" y="-374.3" font-family="FreeSans" font-size="14.00" fill="#000000">Mu</text>
</a>
</g>
</g>
<!-- Any -->
<g id="node3" class="node">
<title>Any</title>
<g id="a_node3"><a xlink:href="/type/Any" xlink:title="Any">
<ellipse fill="none" stroke="#000000" cx="119.84" cy="-306" rx="27" ry="18"/>
<text text-anchor="middle" x="119.84" y="-302.3" font-family="FreeSans" font-size="14.00" fill="#000000">Any</text>
</a>
</g>
</g>
<!-- Any&#45;&gt;Mu -->
<g id="edge3" class="edge">
<title>Any&#45;&gt;Mu</title>
<path fill="none" stroke="#000000" d="M119.84,-324.3C119.84,-332.02 119.84,-341.29 119.84,-349.89"/>
<polygon fill="#000000" stroke="#000000" points="116.34,-349.9 119.84,-359.9 123.34,-349.9 116.34,-349.9"/>
</g>
<!-- Exception&#45;&gt;Any -->
<g id="edge4" class="edge">
<title>Exception&#45;&gt;Any</title>
<path fill="none" stroke="#000000" d="M119.84,-252.3C119.84,-260.02 119.84,-269.29 119.84,-277.89"/>
<polygon fill="#000000" stroke="#000000" points="116.34,-277.9 119.84,-287.9 123.34,-277.9 116.34,-277.9"/>
</g>
<!-- X::Comp -->
<g id="node5" class="node">
<title>X::Comp</title>
<g id="a_node5"><a xlink:href="/type/X::Comp" xlink:title="X::Comp">
<ellipse fill="none" stroke="#6666ff" cx="216.84" cy="-162" rx="44.69" ry="18"/>
<text text-anchor="middle" x="216.84" y="-158.3" font-family="FreeSans" font-size="14.00" fill="#6666ff">X::Comp</text>
</a>
</g>
</g>
<!-- X::Comp&#45;&gt;Exception -->
<g id="edge5" class="edge">
<title>X::Comp&#45;&gt;Exception</title>
<path fill="none" stroke="#000000" d="M195.79,-178.19C182.29,-187.94 164.54,-200.74 149.6,-211.52"/>
<polygon fill="#000000" stroke="#000000" points="147.24,-208.91 141.18,-217.6 151.34,-214.59 147.24,-208.91"/>
</g>
<!-- X::Syntax&#45;&gt;Exception -->
<g id="edge6" class="edge">
<title>X::Syntax&#45;&gt;Exception</title>
<path fill="none" stroke="#000000" d="M174.49,-107.85C163.81,-132.29 143.93,-177.83 131.32,-206.71"/>
<polygon fill="#000000" stroke="#000000" points="127.98,-205.61 127.19,-216.18 134.4,-208.41 127.98,-205.61"/>
</g>
<!-- X::Syntax&#45;&gt;X::Comp -->
<g id="edge8" class="edge">
<title>X::Syntax&#45;&gt;X::Comp</title>
<path fill="none" stroke="#6666ff" d="M190.31,-107.95C194.4,-116.11 199.39,-126.09 203.93,-135.18"/>
<polygon fill="#6666ff" stroke="#6666ff" points="200.84,-136.83 208.45,-144.21 207.11,-133.7 200.84,-136.83"/>
</g>
</g>
</svg>
