<?xml version="1.0" encoding="UTF-8" standalone="no"?>
<!DOCTYPE svg PUBLIC "-//W3C//DTD SVG 1.1//EN"
 "http://www.w3.org/Graphics/SVG/1.1/DTD/svg11.dtd">
<!-- Generated by graphviz version 2.43.0 (0)
 -->
<!-- Title: perl6&#45;type&#45;graph Pages: 1 -->
<svg width="358pt" height="404pt"
 viewBox="0.00 0.00 357.67 404.00" xmlns="http://www.w3.org/2000/svg" xmlns:xlink="http://www.w3.org/1999/xlink">
<g id="graph0" class="graph" transform="scale(1 1) rotate(0) translate(4 400)">
<title>perl6&#45;type&#45;graph</title>
<polygon fill="white" stroke="transparent" points="-4,4 -4,-400 353.67,-400 353.67,4 -4,4"/>
<!-- X::Syntax::Regex::UnrecognizedMetachar -->
<g id="node1" class="node">
<title>X::Syntax::Regex::UnrecognizedMetachar</title>
<g id="a_node1"><a xlink:href="/type/X::Syntax::Regex::UnrecognizedMetachar" xlink:title="X::Syntax::Regex::UnrecognizedMetachar">
<ellipse fill="none" stroke="#000000" cx="174.83" cy="-18" rx="174.67" ry="18"/>
<text text-anchor="middle" x="174.83" y="-14.3" font-family="FreeSans" font-size="14.00" fill="#000000">X::Syntax::Regex::UnrecognizedMetachar</text>
</a>
</g>
</g>
<!-- Exception -->
<g id="node4" class="node">
<title>Exception</title>
<g id="a_node4"><a xlink:href="/type/Exception" xlink:title="Exception">
<ellipse fill="none" stroke="#000000" cx="174.83" cy="-234" rx="49.29" ry="18"/>
<text text-anchor="middle" x="174.83" y="-230.3" font-family="FreeSans" font-size="14.00" fill="#000000">Exception</text>
</a>
</g>
</g>
<!-- X::Syntax::Regex::UnrecognizedMetachar&#45;&gt;Exception -->
<g id="edge1" class="edge">
<title>X::Syntax::Regex::UnrecognizedMetachar&#45;&gt;Exception</title>
<path fill="none" stroke="#000000" d="M168.72,-36.06C163.16,-51.55 155.83,-72 155.83,-72 155.83,-72 155.83,-108 155.83,-108 155.83,-108 165.11,-169.01 170.7,-205.78"/>
<polygon fill="#000000" stroke="#000000" points="167.27,-206.52 172.23,-215.88 174.19,-205.47 167.27,-206.52"/>
</g>
<!-- X::Syntax -->
<g id="node6" class="node">
<title>X::Syntax</title>
<g id="a_node6"><a xlink:href="/type/X::Syntax" xlink:title="X::Syntax">
<ellipse fill="none" stroke="#6666ff" cx="212.83" cy="-90" rx="48.19" ry="18"/>
<text text-anchor="middle" x="212.83" y="-86.3" font-family="FreeSans" font-size="14.00" fill="#6666ff">X::Syntax</text>
</a>
</g>
</g>
<!-- X::Syntax::Regex::UnrecognizedMetachar&#45;&gt;X::Syntax -->
<g id="edge6" class="edge">
<title>X::Syntax::Regex::UnrecognizedMetachar&#45;&gt;X::Syntax</title>
<path fill="none" stroke="#6666ff" d="M184.23,-36.3C188.6,-44.36 193.89,-54.11 198.73,-63.02"/>
<polygon fill="#6666ff" stroke="#6666ff" points="195.7,-64.78 203.55,-71.9 201.85,-61.44 195.7,-64.78"/>
</g>
<!-- Mu -->
<g id="node2" class="node">
<title>Mu</title>
<g id="a_node2"><a xlink:href="/type/Mu" xlink:title="Mu">
<ellipse fill="none" stroke="#000000" cx="174.83" cy="-378" rx="27" ry="18"/>
<text text-anchor="middle" x="174.83" y="-374.3" font-family="FreeSans" font-size="14.00" fill="#000000">Mu</text>
</a>
</g>
</g>
<!-- Any -->
<g id="node3" class="node">
<title>Any</title>
<g id="a_node3"><a xlink:href="/type/Any" xlink:title="Any">
<ellipse fill="none" stroke="#000000" cx="174.83" cy="-306" rx="27" ry="18"/>
<text text-anchor="middle" x="174.83" y="-302.3" font-family="FreeSans" font-size="14.00" fill="#000000">Any</text>
</a>
</g>
</g>
<!-- Any&#45;&gt;Mu -->
<g id="edge2" class="edge">
<title>Any&#45;&gt;Mu</title>
<path fill="none" stroke="#000000" d="M174.83,-324.3C174.83,-332.02 174.83,-341.29 174.83,-349.89"/>
<polygon fill="#000000" stroke="#000000" points="171.33,-349.9 174.83,-359.9 178.33,-349.9 171.33,-349.9"/>
</g>
<!-- Exception&#45;&gt;Any -->
<g id="edge3" class="edge">
<title>Exception&#45;&gt;Any</title>
<path fill="none" stroke="#000000" d="M174.83,-252.3C174.83,-260.02 174.83,-269.29 174.83,-277.89"/>
<polygon fill="#000000" stroke="#000000" points="171.33,-277.9 174.83,-287.9 178.33,-277.9 171.33,-277.9"/>
</g>
<!-- X::Comp -->
<g id="node5" class="node">
<title>X::Comp</title>
<g id="a_node5"><a xlink:href="/type/X::Comp" xlink:title="X::Comp">
<ellipse fill="none" stroke="#6666ff" cx="247.83" cy="-162" rx="44.69" ry="18"/>
<text text-anchor="middle" x="247.83" y="-158.3" font-family="FreeSans" font-size="14.00" fill="#6666ff">X::Comp</text>
</a>
</g>
</g>
<!-- X::Comp&#45;&gt;Exception -->
<g id="edge4" class="edge">
<title>X::Comp&#45;&gt;Exception</title>
<path fill="none" stroke="#000000" d="M231.27,-178.88C221.72,-188.04 209.55,-199.71 198.96,-209.87"/>
<polygon fill="#000000" stroke="#000000" points="196.38,-207.49 191.59,-216.94 201.23,-212.54 196.38,-207.49"/>
</g>
<!-- X::Syntax&#45;&gt;Exception -->
<g id="edge5" class="edge">
<title>X::Syntax&#45;&gt;Exception</title>
<path fill="none" stroke="#000000" d="M206.72,-108.06C201.16,-123.55 193.83,-144 193.83,-144 193.83,-144 186.18,-179.83 180.59,-206.03"/>
<polygon fill="#000000" stroke="#000000" points="177.16,-205.33 178.5,-215.84 184.01,-206.79 177.16,-205.33"/>
</g>
<!-- X::Syntax&#45;&gt;X::Comp -->
<g id="edge7" class="edge">
<title>X::Syntax&#45;&gt;X::Comp</title>
<path fill="none" stroke="#6666ff" d="M221.31,-107.95C225.39,-116.11 230.38,-126.09 234.92,-135.18"/>
<polygon fill="#6666ff" stroke="#6666ff" points="231.84,-136.83 239.44,-144.21 238.1,-133.7 231.84,-136.83"/>
</g>
</g>
</svg>
