<?xml version="1.0" encoding="UTF-8" standalone="no"?>
<!DOCTYPE svg PUBLIC "-//W3C//DTD SVG 1.1//EN"
 "http://www.w3.org/Graphics/SVG/1.1/DTD/svg11.dtd">
<!-- Generated by graphviz version 2.43.0 (0)
 -->
<!-- Title: perl6&#45;type&#45;graph Pages: 1 -->
<svg width="237pt" height="404pt"
 viewBox="0.00 0.00 236.99 404.00" xmlns="http://www.w3.org/2000/svg" xmlns:xlink="http://www.w3.org/1999/xlink">
<g id="graph0" class="graph" transform="scale(1 1) rotate(0) translate(4 400)">
<title>perl6&#45;type&#45;graph</title>
<polygon fill="white" stroke="transparent" points="-4,4 -4,-400 232.99,-400 232.99,4 -4,4"/>
<!-- X::Syntax::Regex::Adverb -->
<g id="node1" class="node">
<title>X::Syntax::Regex::Adverb</title>
<g id="a_node1"><a xlink:href="/type/X::Syntax::Regex::Adverb" xlink:title="X::Syntax::Regex::Adverb">
<ellipse fill="none" stroke="#000000" cx="111.14" cy="-18" rx="111.28" ry="18"/>
<text text-anchor="middle" x="111.14" y="-14.3" font-family="FreeSans" font-size="14.00" fill="#000000">X::Syntax::Regex::Adverb</text>
</a>
</g>
</g>
<!-- Exception -->
<g id="node4" class="node">
<title>Exception</title>
<g id="a_node4"><a xlink:href="/type/Exception" xlink:title="Exception">
<ellipse fill="none" stroke="#000000" cx="111.14" cy="-234" rx="49.29" ry="18"/>
<text text-anchor="middle" x="111.14" y="-230.3" font-family="FreeSans" font-size="14.00" fill="#000000">Exception</text>
</a>
</g>
</g>
<!-- X::Syntax::Regex::Adverb&#45;&gt;Exception -->
<g id="edge1" class="edge">
<title>X::Syntax::Regex::Adverb&#45;&gt;Exception</title>
<path fill="none" stroke="#000000" d="M105.02,-36.06C99.47,-51.55 92.14,-72 92.14,-72 92.14,-72 92.14,-108 92.14,-108 92.14,-108 101.41,-169.01 107,-205.78"/>
<polygon fill="#000000" stroke="#000000" points="103.58,-206.52 108.54,-215.88 110.5,-205.47 103.58,-206.52"/>
</g>
<!-- X::Syntax -->
<g id="node6" class="node">
<title>X::Syntax</title>
<g id="a_node6"><a xlink:href="/type/X::Syntax" xlink:title="X::Syntax">
<ellipse fill="none" stroke="#6666ff" cx="149.14" cy="-90" rx="48.19" ry="18"/>
<text text-anchor="middle" x="149.14" y="-86.3" font-family="FreeSans" font-size="14.00" fill="#6666ff">X::Syntax</text>
</a>
</g>
</g>
<!-- X::Syntax::Regex::Adverb&#45;&gt;X::Syntax -->
<g id="edge6" class="edge">
<title>X::Syntax::Regex::Adverb&#45;&gt;X::Syntax</title>
<path fill="none" stroke="#6666ff" d="M120.34,-35.95C124.77,-44.11 130.19,-54.09 135.12,-63.18"/>
<polygon fill="#6666ff" stroke="#6666ff" points="132.18,-65.09 140.03,-72.21 138.33,-61.75 132.18,-65.09"/>
</g>
<!-- Mu -->
<g id="node2" class="node">
<title>Mu</title>
<g id="a_node2"><a xlink:href="/type/Mu" xlink:title="Mu">
<ellipse fill="none" stroke="#000000" cx="111.14" cy="-378" rx="27" ry="18"/>
<text text-anchor="middle" x="111.14" y="-374.3" font-family="FreeSans" font-size="14.00" fill="#000000">Mu</text>
</a>
</g>
</g>
<!-- Any -->
<g id="node3" class="node">
<title>Any</title>
<g id="a_node3"><a xlink:href="/type/Any" xlink:title="Any">
<ellipse fill="none" stroke="#000000" cx="111.14" cy="-306" rx="27" ry="18"/>
<text text-anchor="middle" x="111.14" y="-302.3" font-family="FreeSans" font-size="14.00" fill="#000000">Any</text>
</a>
</g>
</g>
<!-- Any&#45;&gt;Mu -->
<g id="edge2" class="edge">
<title>Any&#45;&gt;Mu</title>
<path fill="none" stroke="#000000" d="M111.14,-324.3C111.14,-332.02 111.14,-341.29 111.14,-349.89"/>
<polygon fill="#000000" stroke="#000000" points="107.64,-349.9 111.14,-359.9 114.64,-349.9 107.64,-349.9"/>
</g>
<!-- Exception&#45;&gt;Any -->
<g id="edge3" class="edge">
<title>Exception&#45;&gt;Any</title>
<path fill="none" stroke="#000000" d="M111.14,-252.3C111.14,-260.02 111.14,-269.29 111.14,-277.89"/>
<polygon fill="#000000" stroke="#000000" points="107.64,-277.9 111.14,-287.9 114.64,-277.9 107.64,-277.9"/>
</g>
<!-- X::Comp -->
<g id="node5" class="node">
<title>X::Comp</title>
<g id="a_node5"><a xlink:href="/type/X::Comp" xlink:title="X::Comp">
<ellipse fill="none" stroke="#6666ff" cx="184.14" cy="-162" rx="44.69" ry="18"/>
<text text-anchor="middle" x="184.14" y="-158.3" font-family="FreeSans" font-size="14.00" fill="#6666ff">X::Comp</text>
</a>
</g>
</g>
<!-- X::Comp&#45;&gt;Exception -->
<g id="edge4" class="edge">
<title>X::Comp&#45;&gt;Exception</title>
<path fill="none" stroke="#000000" d="M167.58,-178.88C158.03,-188.04 145.86,-199.71 135.27,-209.87"/>
<polygon fill="#000000" stroke="#000000" points="132.69,-207.49 127.89,-216.94 137.53,-212.54 132.69,-207.49"/>
</g>
<!-- X::Syntax&#45;&gt;Exception -->
<g id="edge5" class="edge">
<title>X::Syntax&#45;&gt;Exception</title>
<path fill="none" stroke="#000000" d="M143.02,-108.06C137.47,-123.55 130.14,-144 130.14,-144 130.14,-144 122.49,-179.83 116.9,-206.03"/>
<polygon fill="#000000" stroke="#000000" points="113.47,-205.33 114.8,-215.84 120.31,-206.79 113.47,-205.33"/>
</g>
<!-- X::Syntax&#45;&gt;X::Comp -->
<g id="edge7" class="edge">
<title>X::Syntax&#45;&gt;X::Comp</title>
<path fill="none" stroke="#6666ff" d="M157.61,-107.95C161.7,-116.11 166.68,-126.09 171.23,-135.18"/>
<polygon fill="#6666ff" stroke="#6666ff" points="168.14,-136.83 175.75,-144.21 174.4,-133.7 168.14,-136.83"/>
</g>
</g>
</svg>
