<?xml version="1.0" encoding="UTF-8" standalone="no"?>
<!DOCTYPE svg PUBLIC "-//W3C//DTD SVG 1.1//EN"
 "http://www.w3.org/Graphics/SVG/1.1/DTD/svg11.dtd">
<!-- Generated by graphviz version 2.43.0 (0)
 -->
<!-- Title: perl6&#45;type&#45;graph Pages: 1 -->
<svg width="360pt" height="404pt"
 viewBox="0.00 0.00 360.27 404.00" xmlns="http://www.w3.org/2000/svg" xmlns:xlink="http://www.w3.org/1999/xlink">
<g id="graph0" class="graph" transform="scale(1 1) rotate(0) translate(4 400)">
<title>perl6&#45;type&#45;graph</title>
<polygon fill="white" stroke="transparent" points="-4,4 -4,-400 356.27,-400 356.27,4 -4,4"/>
<!-- X::Syntax::AddCategorical::TooManyParts -->
<g id="node1" class="node">
<title>X::Syntax::AddCategorical::TooManyParts</title>
<g id="a_node1"><a xlink:href="/type/X::Syntax::AddCategorical::TooManyParts" xlink:title="X::Syntax::AddCategorical::TooManyParts">
<ellipse fill="none" stroke="#000000" cx="176.13" cy="-18" rx="176.27" ry="18"/>
<text text-anchor="middle" x="176.13" y="-14.3" font-family="FreeSans" font-size="14.00" fill="#000000">X::Syntax::AddCategorical::TooManyParts</text>
</a>
</g>
</g>
<!-- Exception -->
<g id="node4" class="node">
<title>Exception</title>
<g id="a_node4"><a xlink:href="/type/Exception" xlink:title="Exception">
<ellipse fill="none" stroke="#000000" cx="199.13" cy="-234" rx="49.29" ry="18"/>
<text text-anchor="middle" x="199.13" y="-230.3" font-family="FreeSans" font-size="14.00" fill="#000000">Exception</text>
</a>
</g>
</g>
<!-- X::Syntax::AddCategorical::TooManyParts&#45;&gt;Exception -->
<g id="edge1" class="edge">
<title>X::Syntax::AddCategorical::TooManyParts&#45;&gt;Exception</title>
<path fill="none" stroke="#000000" d="M174.1,-36.15C174.54,-73.34 183.78,-161.63 191.61,-206.23"/>
<polygon fill="#000000" stroke="#000000" points="188.17,-206.88 193.46,-216.06 195.05,-205.59 188.17,-206.88"/>
</g>
<!-- X::Syntax::AddCategorical::TooManyParts&#45;&gt;Exception -->
<g id="edge2" class="edge">
<title>X::Syntax::AddCategorical::TooManyParts&#45;&gt;Exception</title>
<path fill="none" stroke="#000000" d="M181.86,-36.15C189.37,-73.17 199.06,-160.82 200.88,-205.61"/>
<polygon fill="#000000" stroke="#000000" points="197.39,-205.87 201.17,-215.77 204.39,-205.67 197.39,-205.87"/>
</g>
<!-- X::Syntax -->
<g id="node6" class="node">
<title>X::Syntax</title>
<g id="a_node6"><a xlink:href="/type/X::Syntax" xlink:title="X::Syntax">
<ellipse fill="none" stroke="#6666ff" cx="261.13" cy="-90" rx="48.19" ry="18"/>
<text text-anchor="middle" x="261.13" y="-86.3" font-family="FreeSans" font-size="14.00" fill="#6666ff">X::Syntax</text>
</a>
</g>
</g>
<!-- X::Syntax::AddCategorical::TooManyParts&#45;&gt;X::Syntax -->
<g id="edge7" class="edge">
<title>X::Syntax::AddCategorical::TooManyParts&#45;&gt;X::Syntax</title>
<path fill="none" stroke="#6666ff" d="M196.71,-35.95C207.97,-45.22 222.05,-56.81 234.18,-66.8"/>
<polygon fill="#6666ff" stroke="#6666ff" points="232.26,-69.75 242.2,-73.41 236.71,-64.35 232.26,-69.75"/>
</g>
<!-- Mu -->
<g id="node2" class="node">
<title>Mu</title>
<g id="a_node2"><a xlink:href="/type/Mu" xlink:title="Mu">
<ellipse fill="none" stroke="#000000" cx="199.13" cy="-378" rx="27" ry="18"/>
<text text-anchor="middle" x="199.13" y="-374.3" font-family="FreeSans" font-size="14.00" fill="#000000">Mu</text>
</a>
</g>
</g>
<!-- Any -->
<g id="node3" class="node">
<title>Any</title>
<g id="a_node3"><a xlink:href="/type/Any" xlink:title="Any">
<ellipse fill="none" stroke="#000000" cx="199.13" cy="-306" rx="27" ry="18"/>
<text text-anchor="middle" x="199.13" y="-302.3" font-family="FreeSans" font-size="14.00" fill="#000000">Any</text>
</a>
</g>
</g>
<!-- Any&#45;&gt;Mu -->
<g id="edge3" class="edge">
<title>Any&#45;&gt;Mu</title>
<path fill="none" stroke="#000000" d="M199.13,-324.3C199.13,-332.02 199.13,-341.29 199.13,-349.89"/>
<polygon fill="#000000" stroke="#000000" points="195.63,-349.9 199.13,-359.9 202.63,-349.9 195.63,-349.9"/>
</g>
<!-- Exception&#45;&gt;Any -->
<g id="edge4" class="edge">
<title>Exception&#45;&gt;Any</title>
<path fill="none" stroke="#000000" d="M199.13,-252.3C199.13,-260.02 199.13,-269.29 199.13,-277.89"/>
<polygon fill="#000000" stroke="#000000" points="195.63,-277.9 199.13,-287.9 202.63,-277.9 195.63,-277.9"/>
</g>
<!-- X::Comp -->
<g id="node5" class="node">
<title>X::Comp</title>
<g id="a_node5"><a xlink:href="/type/X::Comp" xlink:title="X::Comp">
<ellipse fill="none" stroke="#6666ff" cx="296.13" cy="-162" rx="44.69" ry="18"/>
<text text-anchor="middle" x="296.13" y="-158.3" font-family="FreeSans" font-size="14.00" fill="#6666ff">X::Comp</text>
</a>
</g>
</g>
<!-- X::Comp&#45;&gt;Exception -->
<g id="edge5" class="edge">
<title>X::Comp&#45;&gt;Exception</title>
<path fill="none" stroke="#000000" d="M275.09,-178.19C261.58,-187.94 243.84,-200.74 228.9,-211.52"/>
<polygon fill="#000000" stroke="#000000" points="226.54,-208.91 220.48,-217.6 230.63,-214.59 226.54,-208.91"/>
</g>
<!-- X::Syntax&#45;&gt;Exception -->
<g id="edge6" class="edge">
<title>X::Syntax&#45;&gt;Exception</title>
<path fill="none" stroke="#000000" d="M253.78,-107.85C243.1,-132.29 223.22,-177.83 210.61,-206.71"/>
<polygon fill="#000000" stroke="#000000" points="207.27,-205.61 206.48,-216.18 213.69,-208.41 207.27,-205.61"/>
</g>
<!-- X::Syntax&#45;&gt;X::Comp -->
<g id="edge8" class="edge">
<title>X::Syntax&#45;&gt;X::Comp</title>
<path fill="none" stroke="#6666ff" d="M269.61,-107.95C273.69,-116.11 278.68,-126.09 283.22,-135.18"/>
<polygon fill="#6666ff" stroke="#6666ff" points="280.14,-136.83 287.74,-144.21 286.4,-133.7 280.14,-136.83"/>
</g>
</g>
</svg>
