<?xml version="1.0" encoding="UTF-8" standalone="no"?>
<!DOCTYPE svg PUBLIC "-//W3C//DTD SVG 1.1//EN"
 "http://www.w3.org/Graphics/SVG/1.1/DTD/svg11.dtd">
<!-- Generated by graphviz version 2.43.0 (0)
 -->
<!-- Title: perl6&#45;type&#45;graph Pages: 1 -->
<svg width="256pt" height="404pt"
 viewBox="0.00 0.00 256.04 404.00" xmlns="http://www.w3.org/2000/svg" xmlns:xlink="http://www.w3.org/1999/xlink">
<g id="graph0" class="graph" transform="scale(1 1) rotate(0) translate(4 400)">
<title>perl6&#45;type&#45;graph</title>
<polygon fill="white" stroke="transparent" points="-4,4 -4,-400 252.04,-400 252.04,4 -4,4"/>
<!-- X::Syntax::Missing -->
<g id="node1" class="node">
<title>X::Syntax::Missing</title>
<g id="a_node1"><a xlink:href="/type/X::Syntax::Missing" xlink:title="X::Syntax::Missing">
<ellipse fill="none" stroke="#000000" cx="83.19" cy="-18" rx="83.39" ry="18"/>
<text text-anchor="middle" x="83.19" y="-14.3" font-family="FreeSans" font-size="14.00" fill="#000000">X::Syntax::Missing</text>
</a>
</g>
</g>
<!-- Exception -->
<g id="node4" class="node">
<title>Exception</title>
<g id="a_node4"><a xlink:href="/type/Exception" xlink:title="Exception">
<ellipse fill="none" stroke="#000000" cx="106.19" cy="-234" rx="49.29" ry="18"/>
<text text-anchor="middle" x="106.19" y="-230.3" font-family="FreeSans" font-size="14.00" fill="#000000">Exception</text>
</a>
</g>
</g>
<!-- X::Syntax::Missing&#45;&gt;Exception -->
<g id="edge1" class="edge">
<title>X::Syntax::Missing&#45;&gt;Exception</title>
<path fill="none" stroke="#000000" d="M81.16,-36.15C81.6,-73.34 90.83,-161.63 98.66,-206.23"/>
<polygon fill="#000000" stroke="#000000" points="95.23,-206.88 100.52,-216.06 102.11,-205.59 95.23,-206.88"/>
</g>
<!-- X::Syntax::Missing&#45;&gt;Exception -->
<g id="edge2" class="edge">
<title>X::Syntax::Missing&#45;&gt;Exception</title>
<path fill="none" stroke="#000000" d="M88.91,-36.15C96.43,-73.17 106.12,-160.82 107.94,-205.61"/>
<polygon fill="#000000" stroke="#000000" points="104.45,-205.87 108.23,-215.77 111.44,-205.67 104.45,-205.87"/>
</g>
<!-- X::Syntax -->
<g id="node6" class="node">
<title>X::Syntax</title>
<g id="a_node6"><a xlink:href="/type/X::Syntax" xlink:title="X::Syntax">
<ellipse fill="none" stroke="#6666ff" cx="168.19" cy="-90" rx="48.19" ry="18"/>
<text text-anchor="middle" x="168.19" y="-86.3" font-family="FreeSans" font-size="14.00" fill="#6666ff">X::Syntax</text>
</a>
</g>
</g>
<!-- X::Syntax::Missing&#45;&gt;X::Syntax -->
<g id="edge7" class="edge">
<title>X::Syntax::Missing&#45;&gt;X::Syntax</title>
<path fill="none" stroke="#6666ff" d="M103.34,-35.59C114.69,-44.94 129.03,-56.75 141.33,-66.88"/>
<polygon fill="#6666ff" stroke="#6666ff" points="139.12,-69.6 149.07,-73.25 143.57,-64.19 139.12,-69.6"/>
</g>
<!-- Mu -->
<g id="node2" class="node">
<title>Mu</title>
<g id="a_node2"><a xlink:href="/type/Mu" xlink:title="Mu">
<ellipse fill="none" stroke="#000000" cx="106.19" cy="-378" rx="27" ry="18"/>
<text text-anchor="middle" x="106.19" y="-374.3" font-family="FreeSans" font-size="14.00" fill="#000000">Mu</text>
</a>
</g>
</g>
<!-- Any -->
<g id="node3" class="node">
<title>Any</title>
<g id="a_node3"><a xlink:href="/type/Any" xlink:title="Any">
<ellipse fill="none" stroke="#000000" cx="106.19" cy="-306" rx="27" ry="18"/>
<text text-anchor="middle" x="106.19" y="-302.3" font-family="FreeSans" font-size="14.00" fill="#000000">Any</text>
</a>
</g>
</g>
<!-- Any&#45;&gt;Mu -->
<g id="edge3" class="edge">
<title>Any&#45;&gt;Mu</title>
<path fill="none" stroke="#000000" d="M106.19,-324.3C106.19,-332.02 106.19,-341.29 106.19,-349.89"/>
<polygon fill="#000000" stroke="#000000" points="102.69,-349.9 106.19,-359.9 109.69,-349.9 102.69,-349.9"/>
</g>
<!-- Exception&#45;&gt;Any -->
<g id="edge4" class="edge">
<title>Exception&#45;&gt;Any</title>
<path fill="none" stroke="#000000" d="M106.19,-252.3C106.19,-260.02 106.19,-269.29 106.19,-277.89"/>
<polygon fill="#000000" stroke="#000000" points="102.69,-277.9 106.19,-287.9 109.69,-277.9 102.69,-277.9"/>
</g>
<!-- X::Comp -->
<g id="node5" class="node">
<title>X::Comp</title>
<g id="a_node5"><a xlink:href="/type/X::Comp" xlink:title="X::Comp">
<ellipse fill="none" stroke="#6666ff" cx="203.19" cy="-162" rx="44.69" ry="18"/>
<text text-anchor="middle" x="203.19" y="-158.3" font-family="FreeSans" font-size="14.00" fill="#6666ff">X::Comp</text>
</a>
</g>
</g>
<!-- X::Comp&#45;&gt;Exception -->
<g id="edge5" class="edge">
<title>X::Comp&#45;&gt;Exception</title>
<path fill="none" stroke="#000000" d="M182.15,-178.19C168.64,-187.94 150.89,-200.74 135.95,-211.52"/>
<polygon fill="#000000" stroke="#000000" points="133.59,-208.91 127.53,-217.6 137.69,-214.59 133.59,-208.91"/>
</g>
<!-- X::Syntax&#45;&gt;Exception -->
<g id="edge6" class="edge">
<title>X::Syntax&#45;&gt;Exception</title>
<path fill="none" stroke="#000000" d="M160.84,-107.85C150.16,-132.29 130.28,-177.83 117.67,-206.71"/>
<polygon fill="#000000" stroke="#000000" points="114.33,-205.61 113.54,-216.18 120.75,-208.41 114.33,-205.61"/>
</g>
<!-- X::Syntax&#45;&gt;X::Comp -->
<g id="edge8" class="edge">
<title>X::Syntax&#45;&gt;X::Comp</title>
<path fill="none" stroke="#6666ff" d="M176.67,-107.95C180.75,-116.11 185.74,-126.09 190.28,-135.18"/>
<polygon fill="#6666ff" stroke="#6666ff" points="187.2,-136.83 194.8,-144.21 193.46,-133.7 187.2,-136.83"/>
</g>
</g>
</svg>
