<?xml version="1.0" encoding="UTF-8" standalone="no"?>
<!DOCTYPE svg PUBLIC "-//W3C//DTD SVG 1.1//EN"
 "http://www.w3.org/Graphics/SVG/1.1/DTD/svg11.dtd">
<!-- Generated by graphviz version 2.43.0 (0)
 -->
<!-- Title: perl6&#45;type&#45;graph Pages: 1 -->
<svg width="238pt" height="404pt"
 viewBox="0.00 0.00 238.29 404.00" xmlns="http://www.w3.org/2000/svg" xmlns:xlink="http://www.w3.org/1999/xlink">
<g id="graph0" class="graph" transform="scale(1 1) rotate(0) translate(4 400)">
<title>perl6&#45;type&#45;graph</title>
<polygon fill="white" stroke="transparent" points="-4,4 -4,-400 234.29,-400 234.29,4 -4,4"/>
<!-- X::Syntax::Extension::Null -->
<g id="node1" class="node">
<title>X::Syntax::Extension::Null</title>
<g id="a_node1"><a xlink:href="/type/X::Syntax::Extension::Null" xlink:title="X::Syntax::Extension::Null">
<ellipse fill="none" stroke="#000000" cx="112.44" cy="-18" rx="112.38" ry="18"/>
<text text-anchor="middle" x="112.44" y="-14.3" font-family="FreeSans" font-size="14.00" fill="#000000">X::Syntax::Extension::Null</text>
</a>
</g>
</g>
<!-- Exception -->
<g id="node4" class="node">
<title>Exception</title>
<g id="a_node4"><a xlink:href="/type/Exception" xlink:title="Exception">
<ellipse fill="none" stroke="#000000" cx="112.44" cy="-234" rx="49.29" ry="18"/>
<text text-anchor="middle" x="112.44" y="-230.3" font-family="FreeSans" font-size="14.00" fill="#000000">Exception</text>
</a>
</g>
</g>
<!-- X::Syntax::Extension::Null&#45;&gt;Exception -->
<g id="edge1" class="edge">
<title>X::Syntax::Extension::Null&#45;&gt;Exception</title>
<path fill="none" stroke="#000000" d="M106.32,-36.06C100.77,-51.55 93.44,-72 93.44,-72 93.44,-72 93.44,-108 93.44,-108 93.44,-108 102.71,-169.01 108.3,-205.78"/>
<polygon fill="#000000" stroke="#000000" points="104.87,-206.52 109.84,-215.88 111.8,-205.47 104.87,-206.52"/>
</g>
<!-- X::Syntax -->
<g id="node6" class="node">
<title>X::Syntax</title>
<g id="a_node6"><a xlink:href="/type/X::Syntax" xlink:title="X::Syntax">
<ellipse fill="none" stroke="#6666ff" cx="150.44" cy="-90" rx="48.19" ry="18"/>
<text text-anchor="middle" x="150.44" y="-86.3" font-family="FreeSans" font-size="14.00" fill="#6666ff">X::Syntax</text>
</a>
</g>
</g>
<!-- X::Syntax::Extension::Null&#45;&gt;X::Syntax -->
<g id="edge6" class="edge">
<title>X::Syntax::Extension::Null&#45;&gt;X::Syntax</title>
<path fill="none" stroke="#6666ff" d="M121.64,-35.95C126.07,-44.11 131.49,-54.09 136.42,-63.18"/>
<polygon fill="#6666ff" stroke="#6666ff" points="133.48,-65.09 141.33,-72.21 139.63,-61.75 133.48,-65.09"/>
</g>
<!-- Mu -->
<g id="node2" class="node">
<title>Mu</title>
<g id="a_node2"><a xlink:href="/type/Mu" xlink:title="Mu">
<ellipse fill="none" stroke="#000000" cx="112.44" cy="-378" rx="27" ry="18"/>
<text text-anchor="middle" x="112.44" y="-374.3" font-family="FreeSans" font-size="14.00" fill="#000000">Mu</text>
</a>
</g>
</g>
<!-- Any -->
<g id="node3" class="node">
<title>Any</title>
<g id="a_node3"><a xlink:href="/type/Any" xlink:title="Any">
<ellipse fill="none" stroke="#000000" cx="112.44" cy="-306" rx="27" ry="18"/>
<text text-anchor="middle" x="112.44" y="-302.3" font-family="FreeSans" font-size="14.00" fill="#000000">Any</text>
</a>
</g>
</g>
<!-- Any&#45;&gt;Mu -->
<g id="edge2" class="edge">
<title>Any&#45;&gt;Mu</title>
<path fill="none" stroke="#000000" d="M112.44,-324.3C112.44,-332.02 112.44,-341.29 112.44,-349.89"/>
<polygon fill="#000000" stroke="#000000" points="108.94,-349.9 112.44,-359.9 115.94,-349.9 108.94,-349.9"/>
</g>
<!-- Exception&#45;&gt;Any -->
<g id="edge3" class="edge">
<title>Exception&#45;&gt;Any</title>
<path fill="none" stroke="#000000" d="M112.44,-252.3C112.44,-260.02 112.44,-269.29 112.44,-277.89"/>
<polygon fill="#000000" stroke="#000000" points="108.94,-277.9 112.44,-287.9 115.94,-277.9 108.94,-277.9"/>
</g>
<!-- X::Comp -->
<g id="node5" class="node">
<title>X::Comp</title>
<g id="a_node5"><a xlink:href="/type/X::Comp" xlink:title="X::Comp">
<ellipse fill="none" stroke="#6666ff" cx="185.44" cy="-162" rx="44.69" ry="18"/>
<text text-anchor="middle" x="185.44" y="-158.3" font-family="FreeSans" font-size="14.00" fill="#6666ff">X::Comp</text>
</a>
</g>
</g>
<!-- X::Comp&#45;&gt;Exception -->
<g id="edge4" class="edge">
<title>X::Comp&#45;&gt;Exception</title>
<path fill="none" stroke="#000000" d="M168.88,-178.88C159.33,-188.04 147.16,-199.71 136.57,-209.87"/>
<polygon fill="#000000" stroke="#000000" points="133.99,-207.49 129.19,-216.94 138.83,-212.54 133.99,-207.49"/>
</g>
<!-- X::Syntax&#45;&gt;Exception -->
<g id="edge5" class="edge">
<title>X::Syntax&#45;&gt;Exception</title>
<path fill="none" stroke="#000000" d="M144.32,-108.06C138.77,-123.55 131.44,-144 131.44,-144 131.44,-144 123.79,-179.83 118.2,-206.03"/>
<polygon fill="#000000" stroke="#000000" points="114.77,-205.33 116.1,-215.84 121.61,-206.79 114.77,-205.33"/>
</g>
<!-- X::Syntax&#45;&gt;X::Comp -->
<g id="edge7" class="edge">
<title>X::Syntax&#45;&gt;X::Comp</title>
<path fill="none" stroke="#6666ff" d="M158.91,-107.95C163,-116.11 167.98,-126.09 172.53,-135.18"/>
<polygon fill="#6666ff" stroke="#6666ff" points="169.44,-136.83 177.05,-144.21 175.7,-133.7 169.44,-136.83"/>
</g>
</g>
</svg>
