<?xml version="1.0" encoding="UTF-8" standalone="no"?>
<!DOCTYPE svg PUBLIC "-//W3C//DTD SVG 1.1//EN"
 "http://www.w3.org/Graphics/SVG/1.1/DTD/svg11.dtd">
<!-- Generated by graphviz version 2.43.0 (0)
 -->
<!-- Title: perl6&#45;type&#45;graph Pages: 1 -->
<svg width="260pt" height="404pt"
 viewBox="0.00 0.00 259.94 404.00" xmlns="http://www.w3.org/2000/svg" xmlns:xlink="http://www.w3.org/1999/xlink">
<g id="graph0" class="graph" transform="scale(1 1) rotate(0) translate(4 400)">
<title>perl6&#45;type&#45;graph</title>
<polygon fill="white" stroke="transparent" points="-4,4 -4,-400 255.94,-400 255.94,4 -4,4"/>
<!-- X::Syntax::Perl5Var -->
<g id="node1" class="node">
<title>X::Syntax::Perl5Var</title>
<g id="a_node1"><a xlink:href="/type/X::Syntax::Perl5Var" xlink:title="X::Syntax::Perl5Var">
<ellipse fill="none" stroke="#000000" cx="87.09" cy="-18" rx="87.18" ry="18"/>
<text text-anchor="middle" x="87.09" y="-14.3" font-family="FreeSans" font-size="14.00" fill="#000000">X::Syntax::Perl5Var</text>
</a>
</g>
</g>
<!-- Exception -->
<g id="node4" class="node">
<title>Exception</title>
<g id="a_node4"><a xlink:href="/type/Exception" xlink:title="Exception">
<ellipse fill="none" stroke="#000000" cx="110.09" cy="-234" rx="49.29" ry="18"/>
<text text-anchor="middle" x="110.09" y="-230.3" font-family="FreeSans" font-size="14.00" fill="#000000">Exception</text>
</a>
</g>
</g>
<!-- X::Syntax::Perl5Var&#45;&gt;Exception -->
<g id="edge1" class="edge">
<title>X::Syntax::Perl5Var&#45;&gt;Exception</title>
<path fill="none" stroke="#000000" d="M85.06,-36.15C85.5,-73.34 94.73,-161.63 102.56,-206.23"/>
<polygon fill="#000000" stroke="#000000" points="99.13,-206.88 104.42,-216.06 106.01,-205.59 99.13,-206.88"/>
</g>
<!-- X::Syntax::Perl5Var&#45;&gt;Exception -->
<g id="edge2" class="edge">
<title>X::Syntax::Perl5Var&#45;&gt;Exception</title>
<path fill="none" stroke="#000000" d="M92.81,-36.15C100.33,-73.17 110.02,-160.82 111.84,-205.61"/>
<polygon fill="#000000" stroke="#000000" points="108.35,-205.87 112.13,-215.77 115.34,-205.67 108.35,-205.87"/>
</g>
<!-- X::Syntax -->
<g id="node6" class="node">
<title>X::Syntax</title>
<g id="a_node6"><a xlink:href="/type/X::Syntax" xlink:title="X::Syntax">
<ellipse fill="none" stroke="#6666ff" cx="172.09" cy="-90" rx="48.19" ry="18"/>
<text text-anchor="middle" x="172.09" y="-86.3" font-family="FreeSans" font-size="14.00" fill="#6666ff">X::Syntax</text>
</a>
</g>
</g>
<!-- X::Syntax::Perl5Var&#45;&gt;X::Syntax -->
<g id="edge7" class="edge">
<title>X::Syntax::Perl5Var&#45;&gt;X::Syntax</title>
<path fill="none" stroke="#6666ff" d="M107.24,-35.59C118.59,-44.94 132.93,-56.75 145.23,-66.88"/>
<polygon fill="#6666ff" stroke="#6666ff" points="143.02,-69.6 152.97,-73.25 147.47,-64.19 143.02,-69.6"/>
</g>
<!-- Mu -->
<g id="node2" class="node">
<title>Mu</title>
<g id="a_node2"><a xlink:href="/type/Mu" xlink:title="Mu">
<ellipse fill="none" stroke="#000000" cx="110.09" cy="-378" rx="27" ry="18"/>
<text text-anchor="middle" x="110.09" y="-374.3" font-family="FreeSans" font-size="14.00" fill="#000000">Mu</text>
</a>
</g>
</g>
<!-- Any -->
<g id="node3" class="node">
<title>Any</title>
<g id="a_node3"><a xlink:href="/type/Any" xlink:title="Any">
<ellipse fill="none" stroke="#000000" cx="110.09" cy="-306" rx="27" ry="18"/>
<text text-anchor="middle" x="110.09" y="-302.3" font-family="FreeSans" font-size="14.00" fill="#000000">Any</text>
</a>
</g>
</g>
<!-- Any&#45;&gt;Mu -->
<g id="edge3" class="edge">
<title>Any&#45;&gt;Mu</title>
<path fill="none" stroke="#000000" d="M110.09,-324.3C110.09,-332.02 110.09,-341.29 110.09,-349.89"/>
<polygon fill="#000000" stroke="#000000" points="106.59,-349.9 110.09,-359.9 113.59,-349.9 106.59,-349.9"/>
</g>
<!-- Exception&#45;&gt;Any -->
<g id="edge4" class="edge">
<title>Exception&#45;&gt;Any</title>
<path fill="none" stroke="#000000" d="M110.09,-252.3C110.09,-260.02 110.09,-269.29 110.09,-277.89"/>
<polygon fill="#000000" stroke="#000000" points="106.59,-277.9 110.09,-287.9 113.59,-277.9 106.59,-277.9"/>
</g>
<!-- X::Comp -->
<g id="node5" class="node">
<title>X::Comp</title>
<g id="a_node5"><a xlink:href="/type/X::Comp" xlink:title="X::Comp">
<ellipse fill="none" stroke="#6666ff" cx="207.09" cy="-162" rx="44.69" ry="18"/>
<text text-anchor="middle" x="207.09" y="-158.3" font-family="FreeSans" font-size="14.00" fill="#6666ff">X::Comp</text>
</a>
</g>
</g>
<!-- X::Comp&#45;&gt;Exception -->
<g id="edge5" class="edge">
<title>X::Comp&#45;&gt;Exception</title>
<path fill="none" stroke="#000000" d="M186.04,-178.19C172.54,-187.94 154.79,-200.74 139.85,-211.52"/>
<polygon fill="#000000" stroke="#000000" points="137.49,-208.91 131.43,-217.6 141.59,-214.59 137.49,-208.91"/>
</g>
<!-- X::Syntax&#45;&gt;Exception -->
<g id="edge6" class="edge">
<title>X::Syntax&#45;&gt;Exception</title>
<path fill="none" stroke="#000000" d="M164.74,-107.85C154.06,-132.29 134.18,-177.83 121.57,-206.71"/>
<polygon fill="#000000" stroke="#000000" points="118.23,-205.61 117.44,-216.18 124.65,-208.41 118.23,-205.61"/>
</g>
<!-- X::Syntax&#45;&gt;X::Comp -->
<g id="edge8" class="edge">
<title>X::Syntax&#45;&gt;X::Comp</title>
<path fill="none" stroke="#6666ff" d="M180.56,-107.95C184.65,-116.11 189.64,-126.09 194.18,-135.18"/>
<polygon fill="#6666ff" stroke="#6666ff" points="191.1,-136.83 198.7,-144.21 197.36,-133.7 191.1,-136.83"/>
</g>
</g>
</svg>
