<?xml version="1.0" encoding="UTF-8" standalone="no"?>
<!DOCTYPE svg PUBLIC "-//W3C//DTD SVG 1.1//EN"
 "http://www.w3.org/Graphics/SVG/1.1/DTD/svg11.dtd">
<!-- Generated by graphviz version 2.43.0 (0)
 -->
<!-- Title: perl6&#45;type&#45;graph Pages: 1 -->
<svg width="242pt" height="332pt"
 viewBox="0.00 0.00 241.98 332.00" xmlns="http://www.w3.org/2000/svg" xmlns:xlink="http://www.w3.org/1999/xlink">
<g id="graph0" class="graph" transform="scale(1 1) rotate(0) translate(4 328)">
<title>perl6&#45;type&#45;graph</title>
<polygon fill="white" stroke="transparent" points="-4,4 -4,-328 237.98,-328 237.98,4 -4,4"/>
<!-- X::Temporal::InvalidFormat -->
<g id="node1" class="node">
<title>X::Temporal::InvalidFormat</title>
<g id="a_node1"><a xlink:href="/type/X::Temporal::InvalidFormat" xlink:title="X::Temporal::InvalidFormat">
<ellipse fill="none" stroke="#000000" cx="116.99" cy="-18" rx="116.98" ry="18"/>
<text text-anchor="middle" x="116.99" y="-14.3" font-family="FreeSans" font-size="14.00" fill="#000000">X::Temporal::InvalidFormat</text>
</a>
</g>
</g>
<!-- Exception -->
<g id="node4" class="node">
<title>Exception</title>
<g id="a_node4"><a xlink:href="/type/Exception" xlink:title="Exception">
<ellipse fill="none" stroke="#000000" cx="116.99" cy="-162" rx="49.29" ry="18"/>
<text text-anchor="middle" x="116.99" y="-158.3" font-family="FreeSans" font-size="14.00" fill="#000000">Exception</text>
</a>
</g>
</g>
<!-- X::Temporal::InvalidFormat&#45;&gt;Exception -->
<g id="edge1" class="edge">
<title>X::Temporal::InvalidFormat&#45;&gt;Exception</title>
<path fill="none" stroke="#000000" d="M109.26,-36.06C102.25,-51.55 92.99,-72 92.99,-72 92.99,-72 92.99,-108 92.99,-108 92.99,-108 98.98,-121.24 104.98,-134.48"/>
<polygon fill="#000000" stroke="#000000" points="101.95,-136.27 109.26,-143.94 108.33,-133.39 101.95,-136.27"/>
</g>
<!-- X::Temporal -->
<g id="node5" class="node">
<title>X::Temporal</title>
<g id="a_node5"><a xlink:href="/type/X::Temporal" xlink:title="X::Temporal">
<ellipse fill="none" stroke="#6666ff" cx="160.99" cy="-90" rx="59.29" ry="18"/>
<text text-anchor="middle" x="160.99" y="-86.3" font-family="FreeSans" font-size="14.00" fill="#6666ff">X::Temporal</text>
</a>
</g>
</g>
<!-- X::Temporal::InvalidFormat&#45;&gt;X::Temporal -->
<g id="edge5" class="edge">
<title>X::Temporal::InvalidFormat&#45;&gt;X::Temporal</title>
<path fill="none" stroke="#6666ff" d="M127.64,-35.95C132.83,-44.2 139.18,-54.3 144.94,-63.46"/>
<polygon fill="#6666ff" stroke="#6666ff" points="142.15,-65.61 150.44,-72.21 148.08,-61.88 142.15,-65.61"/>
</g>
<!-- Mu -->
<g id="node2" class="node">
<title>Mu</title>
<g id="a_node2"><a xlink:href="/type/Mu" xlink:title="Mu">
<ellipse fill="none" stroke="#000000" cx="116.99" cy="-306" rx="27" ry="18"/>
<text text-anchor="middle" x="116.99" y="-302.3" font-family="FreeSans" font-size="14.00" fill="#000000">Mu</text>
</a>
</g>
</g>
<!-- Any -->
<g id="node3" class="node">
<title>Any</title>
<g id="a_node3"><a xlink:href="/type/Any" xlink:title="Any">
<ellipse fill="none" stroke="#000000" cx="116.99" cy="-234" rx="27" ry="18"/>
<text text-anchor="middle" x="116.99" y="-230.3" font-family="FreeSans" font-size="14.00" fill="#000000">Any</text>
</a>
</g>
</g>
<!-- Any&#45;&gt;Mu -->
<g id="edge2" class="edge">
<title>Any&#45;&gt;Mu</title>
<path fill="none" stroke="#000000" d="M116.99,-252.3C116.99,-260.02 116.99,-269.29 116.99,-277.89"/>
<polygon fill="#000000" stroke="#000000" points="113.49,-277.9 116.99,-287.9 120.49,-277.9 113.49,-277.9"/>
</g>
<!-- Exception&#45;&gt;Any -->
<g id="edge3" class="edge">
<title>Exception&#45;&gt;Any</title>
<path fill="none" stroke="#000000" d="M116.99,-180.3C116.99,-188.02 116.99,-197.29 116.99,-205.89"/>
<polygon fill="#000000" stroke="#000000" points="113.49,-205.9 116.99,-215.9 120.49,-205.9 113.49,-205.9"/>
</g>
<!-- X::Temporal&#45;&gt;Exception -->
<g id="edge4" class="edge">
<title>X::Temporal&#45;&gt;Exception</title>
<path fill="none" stroke="#000000" d="M150.34,-107.95C145.15,-116.2 138.8,-126.3 133.04,-135.46"/>
<polygon fill="#000000" stroke="#000000" points="129.9,-133.88 127.54,-144.21 135.83,-137.61 129.9,-133.88"/>
</g>
</g>
</svg>
