<?xml version="1.0" encoding="UTF-8" standalone="no"?>
<!DOCTYPE svg PUBLIC "-//W3C//DTD SVG 1.1//EN"
 "http://www.w3.org/Graphics/SVG/1.1/DTD/svg11.dtd">
<!-- Generated by graphviz version 2.43.0 (0)
 -->
<!-- Title: perl6&#45;type&#45;graph Pages: 1 -->
<svg width="782pt" height="332pt"
 viewBox="0.00 0.00 782.08 332.00" xmlns="http://www.w3.org/2000/svg" xmlns:xlink="http://www.w3.org/1999/xlink">
<g id="graph0" class="graph" transform="scale(1 1) rotate(0) translate(4 328)">
<title>perl6&#45;type&#45;graph</title>
<polygon fill="white" stroke="transparent" points="-4,4 -4,-328 778.08,-328 778.08,4 -4,4"/>
<!-- X::Temporal -->
<g id="node1" class="node">
<title>X::Temporal</title>
<g id="a_node1"><a xlink:href="/type/X::Temporal" xlink:title="X::Temporal">
<ellipse fill="none" stroke="#6666ff" cx="333.99" cy="-90" rx="59.29" ry="18"/>
<text text-anchor="middle" x="333.99" y="-86.3" font-family="FreeSans" font-size="14.00" fill="#6666ff">X::Temporal</text>
</a>
</g>
</g>
<!-- Exception -->
<g id="node4" class="node">
<title>Exception</title>
<g id="a_node4"><a xlink:href="/type/Exception" xlink:title="Exception">
<ellipse fill="none" stroke="#000000" cx="376.99" cy="-162" rx="49.29" ry="18"/>
<text text-anchor="middle" x="376.99" y="-158.3" font-family="FreeSans" font-size="14.00" fill="#000000">Exception</text>
</a>
</g>
</g>
<!-- X::Temporal&#45;&gt;Exception -->
<g id="edge1" class="edge">
<title>X::Temporal&#45;&gt;Exception</title>
<path fill="none" stroke="#000000" d="M344.4,-107.95C349.47,-116.2 355.67,-126.3 361.3,-135.46"/>
<polygon fill="#000000" stroke="#000000" points="358.46,-137.52 366.68,-144.21 364.42,-133.86 358.46,-137.52"/>
</g>
<!-- Mu -->
<g id="node2" class="node">
<title>Mu</title>
<g id="a_node2"><a xlink:href="/type/Mu" xlink:title="Mu">
<ellipse fill="none" stroke="#000000" cx="376.99" cy="-306" rx="27" ry="18"/>
<text text-anchor="middle" x="376.99" y="-302.3" font-family="FreeSans" font-size="14.00" fill="#000000">Mu</text>
</a>
</g>
</g>
<!-- Any -->
<g id="node3" class="node">
<title>Any</title>
<g id="a_node3"><a xlink:href="/type/Any" xlink:title="Any">
<ellipse fill="none" stroke="#000000" cx="376.99" cy="-234" rx="27" ry="18"/>
<text text-anchor="middle" x="376.99" y="-230.3" font-family="FreeSans" font-size="14.00" fill="#000000">Any</text>
</a>
</g>
</g>
<!-- Any&#45;&gt;Mu -->
<g id="edge2" class="edge">
<title>Any&#45;&gt;Mu</title>
<path fill="none" stroke="#000000" d="M376.99,-252.3C376.99,-260.02 376.99,-269.29 376.99,-277.89"/>
<polygon fill="#000000" stroke="#000000" points="373.49,-277.9 376.99,-287.9 380.49,-277.9 373.49,-277.9"/>
</g>
<!-- Exception&#45;&gt;Any -->
<g id="edge3" class="edge">
<title>Exception&#45;&gt;Any</title>
<path fill="none" stroke="#000000" d="M376.99,-180.3C376.99,-188.02 376.99,-197.29 376.99,-205.89"/>
<polygon fill="#000000" stroke="#000000" points="373.49,-205.9 376.99,-215.9 380.49,-205.9 373.49,-205.9"/>
</g>
<!-- X::Temporal::InvalidFormat -->
<g id="node5" class="node">
<title>X::Temporal::InvalidFormat</title>
<g id="a_node5"><a xlink:href="/type/X::Temporal::InvalidFormat" xlink:title="X::Temporal::InvalidFormat">
<ellipse fill="none" stroke="#000000" cx="116.99" cy="-18" rx="116.98" ry="18"/>
<text text-anchor="middle" x="116.99" y="-14.3" font-family="FreeSans" font-size="14.00" fill="#000000">X::Temporal::InvalidFormat</text>
</a>
</g>
</g>
<!-- X::Temporal::InvalidFormat&#45;&gt;X::Temporal -->
<g id="edge7" class="edge">
<title>X::Temporal::InvalidFormat&#45;&gt;X::Temporal</title>
<path fill="none" stroke="#6666ff" d="M164.88,-34.45C200.59,-45.97 249.19,-61.65 285.13,-73.24"/>
<polygon fill="#6666ff" stroke="#6666ff" points="284.32,-76.66 294.91,-76.39 286.47,-69.99 284.32,-76.66"/>
</g>
<!-- X::Temporal::InvalidFormat&#45;&gt;Exception -->
<g id="edge4" class="edge">
<title>X::Temporal::InvalidFormat&#45;&gt;Exception</title>
<path fill="none" stroke="#000000" d="M144.67,-35.53C187.76,-61.27 265.99,-108 265.99,-108 265.99,-108 306.78,-127.47 338.9,-142.81"/>
<polygon fill="#000000" stroke="#000000" points="337.58,-146.06 348.12,-147.21 340.6,-139.75 337.58,-146.06"/>
</g>
<!-- X::DateTime::TimezoneClash -->
<g id="node6" class="node">
<title>X::DateTime::TimezoneClash</title>
<g id="a_node6"><a xlink:href="/type/X::DateTime::TimezoneClash" xlink:title="X::DateTime::TimezoneClash">
<ellipse fill="none" stroke="#000000" cx="377.99" cy="-18" rx="126.18" ry="18"/>
<text text-anchor="middle" x="377.99" y="-14.3" font-family="FreeSans" font-size="14.00" fill="#000000">X::DateTime::TimezoneClash</text>
</a>
</g>
</g>
<!-- X::DateTime::TimezoneClash&#45;&gt;X::Temporal -->
<g id="edge8" class="edge">
<title>X::DateTime::TimezoneClash&#45;&gt;X::Temporal</title>
<path fill="none" stroke="#6666ff" d="M367.34,-35.95C362.15,-44.2 355.8,-54.3 350.04,-63.46"/>
<polygon fill="#6666ff" stroke="#6666ff" points="346.9,-61.88 344.54,-72.21 352.83,-65.61 346.9,-61.88"/>
</g>
<!-- X::DateTime::TimezoneClash&#45;&gt;Exception -->
<g id="edge5" class="edge">
<title>X::DateTime::TimezoneClash&#45;&gt;Exception</title>
<path fill="none" stroke="#000000" d="M385.72,-36.06C392.73,-51.55 401.99,-72 401.99,-72 401.99,-72 401.99,-108 401.99,-108 401.99,-108 395.54,-121.67 389.2,-135.12"/>
<polygon fill="#000000" stroke="#000000" points="386,-133.69 384.9,-144.23 392.33,-136.68 386,-133.69"/>
</g>
<!-- X::DateTime::InvalidDeltaUnit -->
<g id="node7" class="node">
<title>X::DateTime::InvalidDeltaUnit</title>
<g id="a_node7"><a xlink:href="/type/X::DateTime::InvalidDeltaUnit" xlink:title="X::DateTime::InvalidDeltaUnit">
<ellipse fill="none" stroke="#000000" cx="647.99" cy="-18" rx="126.18" ry="18"/>
<text text-anchor="middle" x="647.99" y="-14.3" font-family="FreeSans" font-size="14.00" fill="#000000">X::DateTime::InvalidDeltaUnit</text>
</a>
</g>
</g>
<!-- X::DateTime::InvalidDeltaUnit&#45;&gt;X::Temporal -->
<g id="edge9" class="edge">
<title>X::DateTime::InvalidDeltaUnit&#45;&gt;X::Temporal</title>
<path fill="none" stroke="#6666ff" d="M582.93,-33.5C525.94,-46.21 444,-64.48 389.9,-76.54"/>
<polygon fill="#6666ff" stroke="#6666ff" points="389.14,-73.12 380.14,-78.71 390.66,-79.95 389.14,-73.12"/>
</g>
<!-- X::DateTime::InvalidDeltaUnit&#45;&gt;Exception -->
<g id="edge6" class="edge">
<title>X::DateTime::InvalidDeltaUnit&#45;&gt;Exception</title>
<path fill="none" stroke="#000000" d="M616.37,-35.57C565.66,-62.14 466.44,-114.13 413.05,-142.11"/>
<polygon fill="#000000" stroke="#000000" points="411.18,-139.13 403.95,-146.88 414.43,-145.33 411.18,-139.13"/>
</g>
</g>
</svg>
