<?xml version="1.0" encoding="UTF-8" standalone="no"?>
<!DOCTYPE svg PUBLIC "-//W3C//DTD SVG 1.1//EN"
 "http://www.w3.org/Graphics/SVG/1.1/DTD/svg11.dtd">
<!-- Generated by graphviz version 2.43.0 (0)
 -->
<!-- Title: perl6&#45;type&#45;graph Pages: 1 -->
<svg width="316pt" height="332pt"
 viewBox="0.00 0.00 316.09 332.00" xmlns="http://www.w3.org/2000/svg" xmlns:xlink="http://www.w3.org/1999/xlink">
<g id="graph0" class="graph" transform="scale(1 1) rotate(0) translate(4 328)">
<title>perl6&#45;type&#45;graph</title>
<polygon fill="white" stroke="transparent" points="-4,4 -4,-328 312.09,-328 312.09,4 -4,4"/>
<!-- X::Trait::Unknown -->
<g id="node1" class="node">
<title>X::Trait::Unknown</title>
<g id="a_node1"><a xlink:href="/type/X::Trait::Unknown" xlink:title="X::Trait::Unknown">
<ellipse fill="none" stroke="#000000" cx="81.24" cy="-90" rx="81.49" ry="18"/>
<text text-anchor="middle" x="81.24" y="-86.3" font-family="FreeSans" font-size="14.00" fill="#000000">X::Trait::Unknown</text>
</a>
</g>
</g>
<!-- Exception -->
<g id="node4" class="node">
<title>Exception</title>
<g id="a_node4"><a xlink:href="/type/Exception" xlink:title="Exception">
<ellipse fill="none" stroke="#000000" cx="190.24" cy="-162" rx="49.29" ry="18"/>
<text text-anchor="middle" x="190.24" y="-158.3" font-family="FreeSans" font-size="14.00" fill="#000000">Exception</text>
</a>
</g>
</g>
<!-- X::Trait::Unknown&#45;&gt;Exception -->
<g id="edge1" class="edge">
<title>X::Trait::Unknown&#45;&gt;Exception</title>
<path fill="none" stroke="#000000" d="M106.52,-107.24C121.91,-117.12 141.71,-129.83 158.19,-140.42"/>
<polygon fill="#000000" stroke="#000000" points="156.65,-143.59 166.96,-146.05 160.44,-137.7 156.65,-143.59"/>
</g>
<!-- Mu -->
<g id="node2" class="node">
<title>Mu</title>
<g id="a_node2"><a xlink:href="/type/Mu" xlink:title="Mu">
<ellipse fill="none" stroke="#000000" cx="190.24" cy="-306" rx="27" ry="18"/>
<text text-anchor="middle" x="190.24" y="-302.3" font-family="FreeSans" font-size="14.00" fill="#000000">Mu</text>
</a>
</g>
</g>
<!-- Any -->
<g id="node3" class="node">
<title>Any</title>
<g id="a_node3"><a xlink:href="/type/Any" xlink:title="Any">
<ellipse fill="none" stroke="#000000" cx="190.24" cy="-234" rx="27" ry="18"/>
<text text-anchor="middle" x="190.24" y="-230.3" font-family="FreeSans" font-size="14.00" fill="#000000">Any</text>
</a>
</g>
</g>
<!-- Any&#45;&gt;Mu -->
<g id="edge2" class="edge">
<title>Any&#45;&gt;Mu</title>
<path fill="none" stroke="#000000" d="M190.24,-252.3C190.24,-260.02 190.24,-269.29 190.24,-277.89"/>
<polygon fill="#000000" stroke="#000000" points="186.74,-277.9 190.24,-287.9 193.74,-277.9 186.74,-277.9"/>
</g>
<!-- Exception&#45;&gt;Any -->
<g id="edge3" class="edge">
<title>Exception&#45;&gt;Any</title>
<path fill="none" stroke="#000000" d="M190.24,-180.3C190.24,-188.02 190.24,-197.29 190.24,-205.89"/>
<polygon fill="#000000" stroke="#000000" points="186.74,-205.9 190.24,-215.9 193.74,-205.9 186.74,-205.9"/>
</g>
<!-- X::Comp -->
<g id="node5" class="node">
<title>X::Comp</title>
<g id="a_node5"><a xlink:href="/type/X::Comp" xlink:title="X::Comp">
<ellipse fill="none" stroke="#6666ff" cx="263.24" cy="-90" rx="44.69" ry="18"/>
<text text-anchor="middle" x="263.24" y="-86.3" font-family="FreeSans" font-size="14.00" fill="#6666ff">X::Comp</text>
</a>
</g>
</g>
<!-- X::Comp&#45;&gt;Exception -->
<g id="edge4" class="edge">
<title>X::Comp&#45;&gt;Exception</title>
<path fill="none" stroke="#000000" d="M246.68,-106.88C237.13,-116.04 224.96,-127.71 214.37,-137.87"/>
<polygon fill="#000000" stroke="#000000" points="211.79,-135.49 206.99,-144.94 216.64,-140.54 211.79,-135.49"/>
</g>
<!-- X::Comp::Trait::Unknown -->
<g id="node6" class="node">
<title>X::Comp::Trait::Unknown</title>
<g id="a_node6"><a xlink:href="/type/X::Comp::Trait::Unknown" xlink:title="X::Comp::Trait::Unknown">
<ellipse fill="none" stroke="#000000" cx="190.24" cy="-18" rx="109.68" ry="18"/>
<text text-anchor="middle" x="190.24" y="-14.3" font-family="FreeSans" font-size="14.00" fill="#000000">X::Comp::Trait::Unknown</text>
</a>
</g>
</g>
<!-- X::Comp::Trait::Unknown&#45;&gt;X::Trait::Unknown -->
<g id="edge5" class="edge">
<title>X::Comp::Trait::Unknown&#45;&gt;X::Trait::Unknown</title>
<path fill="none" stroke="#000000" d="M164.41,-35.59C149.64,-45.07 130.95,-57.08 115.03,-67.3"/>
<polygon fill="#000000" stroke="#000000" points="113.04,-64.42 106.51,-72.77 116.82,-70.31 113.04,-64.42"/>
</g>
<!-- X::Comp::Trait::Unknown&#45;&gt;Exception -->
<g id="edge6" class="edge">
<title>X::Comp::Trait::Unknown&#45;&gt;Exception</title>
<path fill="none" stroke="#000000" d="M190.24,-36.13C190.24,-60.33 190.24,-104.79 190.24,-133.61"/>
<polygon fill="#000000" stroke="#000000" points="186.74,-133.81 190.24,-143.81 193.74,-133.81 186.74,-133.81"/>
</g>
<!-- X::Comp::Trait::Unknown&#45;&gt;X::Comp -->
<g id="edge7" class="edge">
<title>X::Comp::Trait::Unknown&#45;&gt;X::Comp</title>
<path fill="none" stroke="#6666ff" d="M207.91,-35.95C217.33,-44.97 229.05,-56.21 239.27,-66.01"/>
<polygon fill="#6666ff" stroke="#6666ff" points="237.09,-68.78 246.73,-73.17 241.94,-63.72 237.09,-68.78"/>
</g>
</g>
</svg>
