<?xml version="1.0" encoding="UTF-8" standalone="no"?>
<!DOCTYPE svg PUBLIC "-//W3C//DTD SVG 1.1//EN"
 "http://www.w3.org/Graphics/SVG/1.1/DTD/svg11.dtd">
<!-- Generated by graphviz version 2.43.0 (0)
 -->
<!-- Title: perl6&#45;type&#45;graph Pages: 1 -->
<svg width="293pt" height="332pt"
 viewBox="0.00 0.00 293.39 332.00" xmlns="http://www.w3.org/2000/svg" xmlns:xlink="http://www.w3.org/1999/xlink">
<g id="graph0" class="graph" transform="scale(1 1) rotate(0) translate(4 328)">
<title>perl6&#45;type&#45;graph</title>
<polygon fill="white" stroke="transparent" points="-4,4 -4,-328 289.39,-328 289.39,4 -4,4"/>
<!-- X::Trait::Scope -->
<g id="node1" class="node">
<title>X::Trait::Scope</title>
<g id="a_node1"><a xlink:href="/type/X::Trait::Scope" xlink:title="X::Trait::Scope">
<ellipse fill="none" stroke="#000000" cx="69.54" cy="-90" rx="69.59" ry="18"/>
<text text-anchor="middle" x="69.54" y="-86.3" font-family="FreeSans" font-size="14.00" fill="#000000">X::Trait::Scope</text>
</a>
</g>
</g>
<!-- Exception -->
<g id="node4" class="node">
<title>Exception</title>
<g id="a_node4"><a xlink:href="/type/Exception" xlink:title="Exception">
<ellipse fill="none" stroke="#000000" cx="167.54" cy="-162" rx="49.29" ry="18"/>
<text text-anchor="middle" x="167.54" y="-158.3" font-family="FreeSans" font-size="14.00" fill="#000000">Exception</text>
</a>
</g>
</g>
<!-- X::Trait::Scope&#45;&gt;Exception -->
<g id="edge1" class="edge">
<title>X::Trait::Scope&#45;&gt;Exception</title>
<path fill="none" stroke="#000000" d="M92.27,-107.24C105.79,-116.89 123.1,-129.25 137.71,-139.69"/>
<polygon fill="#000000" stroke="#000000" points="135.77,-142.61 145.95,-145.57 139.84,-136.91 135.77,-142.61"/>
</g>
<!-- Mu -->
<g id="node2" class="node">
<title>Mu</title>
<g id="a_node2"><a xlink:href="/type/Mu" xlink:title="Mu">
<ellipse fill="none" stroke="#000000" cx="167.54" cy="-306" rx="27" ry="18"/>
<text text-anchor="middle" x="167.54" y="-302.3" font-family="FreeSans" font-size="14.00" fill="#000000">Mu</text>
</a>
</g>
</g>
<!-- Any -->
<g id="node3" class="node">
<title>Any</title>
<g id="a_node3"><a xlink:href="/type/Any" xlink:title="Any">
<ellipse fill="none" stroke="#000000" cx="167.54" cy="-234" rx="27" ry="18"/>
<text text-anchor="middle" x="167.54" y="-230.3" font-family="FreeSans" font-size="14.00" fill="#000000">Any</text>
</a>
</g>
</g>
<!-- Any&#45;&gt;Mu -->
<g id="edge2" class="edge">
<title>Any&#45;&gt;Mu</title>
<path fill="none" stroke="#000000" d="M167.54,-252.3C167.54,-260.02 167.54,-269.29 167.54,-277.89"/>
<polygon fill="#000000" stroke="#000000" points="164.04,-277.9 167.54,-287.9 171.04,-277.9 164.04,-277.9"/>
</g>
<!-- Exception&#45;&gt;Any -->
<g id="edge3" class="edge">
<title>Exception&#45;&gt;Any</title>
<path fill="none" stroke="#000000" d="M167.54,-180.3C167.54,-188.02 167.54,-197.29 167.54,-205.89"/>
<polygon fill="#000000" stroke="#000000" points="164.04,-205.9 167.54,-215.9 171.04,-205.9 164.04,-205.9"/>
</g>
<!-- X::Comp -->
<g id="node5" class="node">
<title>X::Comp</title>
<g id="a_node5"><a xlink:href="/type/X::Comp" xlink:title="X::Comp">
<ellipse fill="none" stroke="#6666ff" cx="240.54" cy="-90" rx="44.69" ry="18"/>
<text text-anchor="middle" x="240.54" y="-86.3" font-family="FreeSans" font-size="14.00" fill="#6666ff">X::Comp</text>
</a>
</g>
</g>
<!-- X::Comp&#45;&gt;Exception -->
<g id="edge4" class="edge">
<title>X::Comp&#45;&gt;Exception</title>
<path fill="none" stroke="#000000" d="M223.98,-106.88C214.43,-116.04 202.26,-127.71 191.67,-137.87"/>
<polygon fill="#000000" stroke="#000000" points="189.09,-135.49 184.3,-144.94 193.94,-140.54 189.09,-135.49"/>
</g>
<!-- X::Comp::Trait::Scope -->
<g id="node6" class="node">
<title>X::Comp::Trait::Scope</title>
<g id="a_node6"><a xlink:href="/type/X::Comp::Trait::Scope" xlink:title="X::Comp::Trait::Scope">
<ellipse fill="none" stroke="#000000" cx="167.54" cy="-18" rx="97.48" ry="18"/>
<text text-anchor="middle" x="167.54" y="-14.3" font-family="FreeSans" font-size="14.00" fill="#000000">X::Comp::Trait::Scope</text>
</a>
</g>
</g>
<!-- X::Comp::Trait::Scope&#45;&gt;X::Trait::Scope -->
<g id="edge5" class="edge">
<title>X::Comp::Trait::Scope&#45;&gt;X::Trait::Scope</title>
<path fill="none" stroke="#000000" d="M144.32,-35.59C131.29,-44.9 114.86,-56.63 100.72,-66.73"/>
<polygon fill="#000000" stroke="#000000" points="98.37,-64.11 92.26,-72.77 102.44,-69.81 98.37,-64.11"/>
</g>
<!-- X::Comp::Trait::Scope&#45;&gt;Exception -->
<g id="edge6" class="edge">
<title>X::Comp::Trait::Scope&#45;&gt;Exception</title>
<path fill="none" stroke="#000000" d="M167.54,-36.13C167.54,-60.33 167.54,-104.79 167.54,-133.61"/>
<polygon fill="#000000" stroke="#000000" points="164.04,-133.81 167.54,-143.81 171.04,-133.81 164.04,-133.81"/>
</g>
<!-- X::Comp::Trait::Scope&#45;&gt;X::Comp -->
<g id="edge7" class="edge">
<title>X::Comp::Trait::Scope&#45;&gt;X::Comp</title>
<path fill="none" stroke="#6666ff" d="M185.22,-35.95C194.63,-44.97 206.35,-56.21 216.57,-66.01"/>
<polygon fill="#6666ff" stroke="#6666ff" points="214.4,-68.78 224.04,-73.17 219.24,-63.72 214.4,-68.78"/>
</g>
</g>
</svg>
