<?xml version="1.0" encoding="UTF-8" standalone="no"?>
<!DOCTYPE svg PUBLIC "-//W3C//DTD SVG 1.1//EN"
 "http://www.w3.org/Graphics/SVG/1.1/DTD/svg11.dtd">
<!-- Generated by graphviz version 2.43.0 (0)
 -->
<!-- Title: perl6&#45;type&#45;graph Pages: 1 -->
<svg width="352pt" height="332pt"
 viewBox="0.00 0.00 352.33 332.00" xmlns="http://www.w3.org/2000/svg" xmlns:xlink="http://www.w3.org/1999/xlink">
<g id="graph0" class="graph" transform="scale(1 1) rotate(0) translate(4 328)">
<title>perl6&#45;type&#45;graph</title>
<polygon fill="white" stroke="transparent" points="-4,4 -4,-328 348.33,-328 348.33,4 -4,4"/>
<!-- X::Trait::NotOnNative -->
<g id="node1" class="node">
<title>X::Trait::NotOnNative</title>
<g id="a_node1"><a xlink:href="/type/X::Trait::NotOnNative" xlink:title="X::Trait::NotOnNative">
<ellipse fill="none" stroke="#000000" cx="96.19" cy="-90" rx="96.38" ry="18"/>
<text text-anchor="middle" x="96.19" y="-86.3" font-family="FreeSans" font-size="14.00" fill="#000000">X::Trait::NotOnNative</text>
</a>
</g>
</g>
<!-- Exception -->
<g id="node4" class="node">
<title>Exception</title>
<g id="a_node4"><a xlink:href="/type/Exception" xlink:title="Exception">
<ellipse fill="none" stroke="#000000" cx="220.19" cy="-162" rx="49.29" ry="18"/>
<text text-anchor="middle" x="220.19" y="-158.3" font-family="FreeSans" font-size="14.00" fill="#000000">Exception</text>
</a>
</g>
</g>
<!-- X::Trait::NotOnNative&#45;&gt;Exception -->
<g id="edge1" class="edge">
<title>X::Trait::NotOnNative&#45;&gt;Exception</title>
<path fill="none" stroke="#000000" d="M124.95,-107.24C143.11,-117.49 166.67,-130.79 185.81,-141.59"/>
<polygon fill="#000000" stroke="#000000" points="184.11,-144.65 194.54,-146.52 187.55,-138.55 184.11,-144.65"/>
</g>
<!-- Mu -->
<g id="node2" class="node">
<title>Mu</title>
<g id="a_node2"><a xlink:href="/type/Mu" xlink:title="Mu">
<ellipse fill="none" stroke="#000000" cx="220.19" cy="-306" rx="27" ry="18"/>
<text text-anchor="middle" x="220.19" y="-302.3" font-family="FreeSans" font-size="14.00" fill="#000000">Mu</text>
</a>
</g>
</g>
<!-- Any -->
<g id="node3" class="node">
<title>Any</title>
<g id="a_node3"><a xlink:href="/type/Any" xlink:title="Any">
<ellipse fill="none" stroke="#000000" cx="220.19" cy="-234" rx="27" ry="18"/>
<text text-anchor="middle" x="220.19" y="-230.3" font-family="FreeSans" font-size="14.00" fill="#000000">Any</text>
</a>
</g>
</g>
<!-- Any&#45;&gt;Mu -->
<g id="edge2" class="edge">
<title>Any&#45;&gt;Mu</title>
<path fill="none" stroke="#000000" d="M220.19,-252.3C220.19,-260.02 220.19,-269.29 220.19,-277.89"/>
<polygon fill="#000000" stroke="#000000" points="216.69,-277.9 220.19,-287.9 223.69,-277.9 216.69,-277.9"/>
</g>
<!-- Exception&#45;&gt;Any -->
<g id="edge3" class="edge">
<title>Exception&#45;&gt;Any</title>
<path fill="none" stroke="#000000" d="M220.19,-180.3C220.19,-188.02 220.19,-197.29 220.19,-205.89"/>
<polygon fill="#000000" stroke="#000000" points="216.69,-205.9 220.19,-215.9 223.69,-205.9 216.69,-205.9"/>
</g>
<!-- X::Comp -->
<g id="node5" class="node">
<title>X::Comp</title>
<g id="a_node5"><a xlink:href="/type/X::Comp" xlink:title="X::Comp">
<ellipse fill="none" stroke="#6666ff" cx="293.19" cy="-90" rx="44.69" ry="18"/>
<text text-anchor="middle" x="293.19" y="-86.3" font-family="FreeSans" font-size="14.00" fill="#6666ff">X::Comp</text>
</a>
</g>
</g>
<!-- X::Comp&#45;&gt;Exception -->
<g id="edge4" class="edge">
<title>X::Comp&#45;&gt;Exception</title>
<path fill="none" stroke="#000000" d="M276.63,-106.88C267.08,-116.04 254.91,-127.71 244.32,-137.87"/>
<polygon fill="#000000" stroke="#000000" points="241.74,-135.49 236.94,-144.94 246.58,-140.54 241.74,-135.49"/>
</g>
<!-- X::Comp::Trait::NotOnNative -->
<g id="node6" class="node">
<title>X::Comp::Trait::NotOnNative</title>
<g id="a_node6"><a xlink:href="/type/X::Comp::Trait::NotOnNative" xlink:title="X::Comp::Trait::NotOnNative">
<ellipse fill="none" stroke="#000000" cx="220.19" cy="-18" rx="124.28" ry="18"/>
<text text-anchor="middle" x="220.19" y="-14.3" font-family="FreeSans" font-size="14.00" fill="#000000">X::Comp::Trait::NotOnNative</text>
</a>
</g>
</g>
<!-- X::Comp::Trait::NotOnNative&#45;&gt;X::Trait::NotOnNative -->
<g id="edge5" class="edge">
<title>X::Comp::Trait::NotOnNative&#45;&gt;X::Trait::NotOnNative</title>
<path fill="none" stroke="#000000" d="M190.81,-35.59C173.77,-45.2 152.15,-57.41 133.88,-67.73"/>
<polygon fill="#000000" stroke="#000000" points="131.93,-64.81 124.94,-72.77 135.37,-70.9 131.93,-64.81"/>
</g>
<!-- X::Comp::Trait::NotOnNative&#45;&gt;Exception -->
<g id="edge6" class="edge">
<title>X::Comp::Trait::NotOnNative&#45;&gt;Exception</title>
<path fill="none" stroke="#000000" d="M220.19,-36.13C220.19,-60.33 220.19,-104.79 220.19,-133.61"/>
<polygon fill="#000000" stroke="#000000" points="216.69,-133.81 220.19,-143.81 223.69,-133.81 216.69,-133.81"/>
</g>
<!-- X::Comp::Trait::NotOnNative&#45;&gt;X::Comp -->
<g id="edge7" class="edge">
<title>X::Comp::Trait::NotOnNative&#45;&gt;X::Comp</title>
<path fill="none" stroke="#6666ff" d="M237.86,-35.95C247.28,-44.97 258.99,-56.21 269.22,-66.01"/>
<polygon fill="#6666ff" stroke="#6666ff" points="267.04,-68.78 276.68,-73.17 271.89,-63.72 267.04,-68.78"/>
</g>
</g>
</svg>
