<?xml version="1.0" encoding="UTF-8" standalone="no"?>
<!DOCTYPE svg PUBLIC "-//W3C//DTD SVG 1.1//EN"
 "http://www.w3.org/Graphics/SVG/1.1/DTD/svg11.dtd">
<!-- Generated by graphviz version 2.43.0 (0)
 -->
<!-- Title: perl6&#45;type&#45;graph Pages: 1 -->
<svg width="886pt" height="332pt"
 viewBox="0.00 0.00 885.88 332.00" xmlns="http://www.w3.org/2000/svg" xmlns:xlink="http://www.w3.org/1999/xlink">
<g id="graph0" class="graph" transform="scale(1 1) rotate(0) translate(4 328)">
<title>perl6&#45;type&#45;graph</title>
<polygon fill="white" stroke="transparent" points="-4,4 -4,-328 881.88,-328 881.88,4 -4,4"/>
<!-- X::TypeCheck -->
<g id="node1" class="node">
<title>X::TypeCheck</title>
<g id="a_node1"><a xlink:href="/type/X::TypeCheck" xlink:title="X::TypeCheck">
<ellipse fill="none" stroke="#000000" cx="429.74" cy="-90" rx="66.89" ry="18"/>
<text text-anchor="middle" x="429.74" y="-86.3" font-family="FreeSans" font-size="14.00" fill="#000000">X::TypeCheck</text>
</a>
</g>
</g>
<!-- Exception -->
<g id="node4" class="node">
<title>Exception</title>
<g id="a_node4"><a xlink:href="/type/Exception" xlink:title="Exception">
<ellipse fill="none" stroke="#000000" cx="429.74" cy="-162" rx="49.29" ry="18"/>
<text text-anchor="middle" x="429.74" y="-158.3" font-family="FreeSans" font-size="14.00" fill="#000000">Exception</text>
</a>
</g>
</g>
<!-- X::TypeCheck&#45;&gt;Exception -->
<g id="edge1" class="edge">
<title>X::TypeCheck&#45;&gt;Exception</title>
<path fill="none" stroke="#000000" d="M429.74,-108.3C429.74,-116.02 429.74,-125.29 429.74,-133.89"/>
<polygon fill="#000000" stroke="#000000" points="426.24,-133.9 429.74,-143.9 433.24,-133.9 426.24,-133.9"/>
</g>
<!-- Mu -->
<g id="node2" class="node">
<title>Mu</title>
<g id="a_node2"><a xlink:href="/type/Mu" xlink:title="Mu">
<ellipse fill="none" stroke="#000000" cx="429.74" cy="-306" rx="27" ry="18"/>
<text text-anchor="middle" x="429.74" y="-302.3" font-family="FreeSans" font-size="14.00" fill="#000000">Mu</text>
</a>
</g>
</g>
<!-- Any -->
<g id="node3" class="node">
<title>Any</title>
<g id="a_node3"><a xlink:href="/type/Any" xlink:title="Any">
<ellipse fill="none" stroke="#000000" cx="429.74" cy="-234" rx="27" ry="18"/>
<text text-anchor="middle" x="429.74" y="-230.3" font-family="FreeSans" font-size="14.00" fill="#000000">Any</text>
</a>
</g>
</g>
<!-- Any&#45;&gt;Mu -->
<g id="edge2" class="edge">
<title>Any&#45;&gt;Mu</title>
<path fill="none" stroke="#000000" d="M429.74,-252.3C429.74,-260.02 429.74,-269.29 429.74,-277.89"/>
<polygon fill="#000000" stroke="#000000" points="426.24,-277.9 429.74,-287.9 433.24,-277.9 426.24,-277.9"/>
</g>
<!-- Exception&#45;&gt;Any -->
<g id="edge3" class="edge">
<title>Exception&#45;&gt;Any</title>
<path fill="none" stroke="#000000" d="M429.74,-180.3C429.74,-188.02 429.74,-197.29 429.74,-205.89"/>
<polygon fill="#000000" stroke="#000000" points="426.24,-205.9 429.74,-215.9 433.24,-205.9 426.24,-205.9"/>
</g>
<!-- X::TypeCheck::Binding -->
<g id="node5" class="node">
<title>X::TypeCheck::Binding</title>
<g id="a_node5"><a xlink:href="/type/X::TypeCheck::Binding" xlink:title="X::TypeCheck::Binding">
<ellipse fill="none" stroke="#000000" cx="100.74" cy="-18" rx="100.98" ry="18"/>
<text text-anchor="middle" x="100.74" y="-14.3" font-family="FreeSans" font-size="14.00" fill="#000000">X::TypeCheck::Binding</text>
</a>
</g>
</g>
<!-- X::TypeCheck::Binding&#45;&gt;X::TypeCheck -->
<g id="edge4" class="edge">
<title>X::TypeCheck::Binding&#45;&gt;X::TypeCheck</title>
<path fill="none" stroke="#000000" d="M163.01,-32.25C222.18,-44.84 310.59,-63.65 369.19,-76.12"/>
<polygon fill="#000000" stroke="#000000" points="368.54,-79.56 379.04,-78.21 369.99,-72.71 368.54,-79.56"/>
</g>
<!-- X::TypeCheck::Splice -->
<g id="node6" class="node">
<title>X::TypeCheck::Splice</title>
<g id="a_node6"><a xlink:href="/type/X::TypeCheck::Splice" xlink:title="X::TypeCheck::Splice">
<ellipse fill="none" stroke="#000000" cx="314.74" cy="-18" rx="95.58" ry="18"/>
<text text-anchor="middle" x="314.74" y="-14.3" font-family="FreeSans" font-size="14.00" fill="#000000">X::TypeCheck::Splice</text>
</a>
</g>
</g>
<!-- X::TypeCheck::Splice&#45;&gt;X::TypeCheck -->
<g id="edge5" class="edge">
<title>X::TypeCheck::Splice&#45;&gt;X::TypeCheck</title>
<path fill="none" stroke="#000000" d="M341.7,-35.41C357.65,-45.12 378,-57.51 395.12,-67.93"/>
<polygon fill="#000000" stroke="#000000" points="393.38,-70.96 403.74,-73.17 397.02,-64.98 393.38,-70.96"/>
</g>
<!-- X::TypeCheck::Assignment -->
<g id="node7" class="node">
<title>X::TypeCheck::Assignment</title>
<g id="a_node7"><a xlink:href="/type/X::TypeCheck::Assignment" xlink:title="X::TypeCheck::Assignment">
<ellipse fill="none" stroke="#000000" cx="545.74" cy="-18" rx="117.78" ry="18"/>
<text text-anchor="middle" x="545.74" y="-14.3" font-family="FreeSans" font-size="14.00" fill="#000000">X::TypeCheck::Assignment</text>
</a>
</g>
</g>
<!-- X::TypeCheck::Assignment&#45;&gt;X::TypeCheck -->
<g id="edge6" class="edge">
<title>X::TypeCheck::Assignment&#45;&gt;X::TypeCheck</title>
<path fill="none" stroke="#000000" d="M518.25,-35.59C502.16,-45.3 481.69,-57.65 464.5,-68.03"/>
<polygon fill="#000000" stroke="#000000" points="462.59,-65.09 455.84,-73.25 466.21,-71.08 462.59,-65.09"/>
</g>
<!-- X::TypeCheck::Return -->
<g id="node8" class="node">
<title>X::TypeCheck::Return</title>
<g id="a_node8"><a xlink:href="/type/X::TypeCheck::Return" xlink:title="X::TypeCheck::Return">
<ellipse fill="none" stroke="#000000" cx="779.74" cy="-18" rx="98.28" ry="18"/>
<text text-anchor="middle" x="779.74" y="-14.3" font-family="FreeSans" font-size="14.00" fill="#000000">X::TypeCheck::Return</text>
</a>
</g>
</g>
<!-- X::TypeCheck::Return&#45;&gt;X::TypeCheck -->
<g id="edge7" class="edge">
<title>X::TypeCheck::Return&#45;&gt;X::TypeCheck</title>
<path fill="none" stroke="#000000" d="M715.95,-31.76C652.13,-44.52 554.61,-64.03 491.51,-76.65"/>
<polygon fill="#000000" stroke="#000000" points="490.81,-73.22 481.69,-78.61 492.19,-80.08 490.81,-73.22"/>
</g>
</g>
</svg>
