<?xml version="1.0" encoding="UTF-8" standalone="no"?>
<!DOCTYPE svg PUBLIC "-//W3C//DTD SVG 1.1//EN"
 "http://www.w3.org/Graphics/SVG/1.1/DTD/svg11.dtd">
<!-- Generated by graphviz version 2.43.0 (0)
 -->
<!-- Title: perl6&#45;type&#45;graph Pages: 1 -->
<svg width="217pt" height="332pt"
 viewBox="0.00 0.00 217.28 332.00" xmlns="http://www.w3.org/2000/svg" xmlns:xlink="http://www.w3.org/1999/xlink">
<g id="graph0" class="graph" transform="scale(1 1) rotate(0) translate(4 328)">
<title>perl6&#45;type&#45;graph</title>
<polygon fill="white" stroke="transparent" points="-4,4 -4,-328 213.28,-328 213.28,4 -4,4"/>
<!-- X::Undeclared::Symbols -->
<g id="node1" class="node">
<title>X::Undeclared::Symbols</title>
<g id="a_node1"><a xlink:href="/type/X::Undeclared::Symbols" xlink:title="X::Undeclared::Symbols">
<ellipse fill="none" stroke="#000000" cx="104.64" cy="-18" rx="104.78" ry="18"/>
<text text-anchor="middle" x="104.64" y="-14.3" font-family="FreeSans" font-size="14.00" fill="#000000">X::Undeclared::Symbols</text>
</a>
</g>
</g>
<!-- Exception -->
<g id="node4" class="node">
<title>Exception</title>
<g id="a_node4"><a xlink:href="/type/Exception" xlink:title="Exception">
<ellipse fill="none" stroke="#000000" cx="104.64" cy="-162" rx="49.29" ry="18"/>
<text text-anchor="middle" x="104.64" y="-158.3" font-family="FreeSans" font-size="14.00" fill="#000000">Exception</text>
</a>
</g>
</g>
<!-- X::Undeclared::Symbols&#45;&gt;Exception -->
<g id="edge1" class="edge">
<title>X::Undeclared::Symbols&#45;&gt;Exception</title>
<path fill="none" stroke="#000000" d="M99.17,-36.06C94.2,-51.55 87.64,-72 87.64,-72 87.64,-72 87.64,-108 87.64,-108 87.64,-108 91.81,-120.98 96.01,-134.1"/>
<polygon fill="#000000" stroke="#000000" points="92.78,-135.49 99.17,-143.94 99.45,-133.35 92.78,-135.49"/>
</g>
<!-- X::Comp -->
<g id="node5" class="node">
<title>X::Comp</title>
<g id="a_node5"><a xlink:href="/type/X::Comp" xlink:title="X::Comp">
<ellipse fill="none" stroke="#6666ff" cx="141.64" cy="-90" rx="44.69" ry="18"/>
<text text-anchor="middle" x="141.64" y="-86.3" font-family="FreeSans" font-size="14.00" fill="#6666ff">X::Comp</text>
</a>
</g>
</g>
<!-- X::Undeclared::Symbols&#45;&gt;X::Comp -->
<g id="edge5" class="edge">
<title>X::Undeclared::Symbols&#45;&gt;X::Comp</title>
<path fill="none" stroke="#6666ff" d="M113.6,-35.95C117.91,-44.11 123.19,-54.09 127.99,-63.18"/>
<polygon fill="#6666ff" stroke="#6666ff" points="125,-65.01 132.77,-72.21 131.19,-61.73 125,-65.01"/>
</g>
<!-- Mu -->
<g id="node2" class="node">
<title>Mu</title>
<g id="a_node2"><a xlink:href="/type/Mu" xlink:title="Mu">
<ellipse fill="none" stroke="#000000" cx="104.64" cy="-306" rx="27" ry="18"/>
<text text-anchor="middle" x="104.64" y="-302.3" font-family="FreeSans" font-size="14.00" fill="#000000">Mu</text>
</a>
</g>
</g>
<!-- Any -->
<g id="node3" class="node">
<title>Any</title>
<g id="a_node3"><a xlink:href="/type/Any" xlink:title="Any">
<ellipse fill="none" stroke="#000000" cx="104.64" cy="-234" rx="27" ry="18"/>
<text text-anchor="middle" x="104.64" y="-230.3" font-family="FreeSans" font-size="14.00" fill="#000000">Any</text>
</a>
</g>
</g>
<!-- Any&#45;&gt;Mu -->
<g id="edge2" class="edge">
<title>Any&#45;&gt;Mu</title>
<path fill="none" stroke="#000000" d="M104.64,-252.3C104.64,-260.02 104.64,-269.29 104.64,-277.89"/>
<polygon fill="#000000" stroke="#000000" points="101.14,-277.9 104.64,-287.9 108.14,-277.9 101.14,-277.9"/>
</g>
<!-- Exception&#45;&gt;Any -->
<g id="edge3" class="edge">
<title>Exception&#45;&gt;Any</title>
<path fill="none" stroke="#000000" d="M104.64,-180.3C104.64,-188.02 104.64,-197.29 104.64,-205.89"/>
<polygon fill="#000000" stroke="#000000" points="101.14,-205.9 104.64,-215.9 108.14,-205.9 101.14,-205.9"/>
</g>
<!-- X::Comp&#45;&gt;Exception -->
<g id="edge4" class="edge">
<title>X::Comp&#45;&gt;Exception</title>
<path fill="none" stroke="#000000" d="M132.68,-107.95C128.37,-116.11 123.09,-126.09 118.29,-135.18"/>
<polygon fill="#000000" stroke="#000000" points="115.09,-133.73 113.51,-144.21 121.28,-137.01 115.09,-133.73"/>
</g>
</g>
</svg>
