<?xml version="1.0" encoding="UTF-8" standalone="no"?>
<!DOCTYPE svg PUBLIC "-//W3C//DTD SVG 1.1//EN"
 "http://www.w3.org/Graphics/SVG/1.1/DTD/svg11.dtd">
<!-- Generated by graphviz version 2.43.0 (0)
 -->
<!-- Title: perl6&#45;type&#45;graph Pages: 1 -->
<svg width="216pt" height="404pt"
 viewBox="0.00 0.00 215.98 404.00" xmlns="http://www.w3.org/2000/svg" xmlns:xlink="http://www.w3.org/1999/xlink">
<g id="graph0" class="graph" transform="scale(1 1) rotate(0) translate(4 400)">
<title>perl6&#45;type&#45;graph</title>
<polygon fill="white" stroke="transparent" points="-4,4 -4,-400 211.98,-400 211.98,4 -4,4"/>
<!-- X::Undeclared -->
<g id="node1" class="node">
<title>X::Undeclared</title>
<g id="a_node1"><a xlink:href="/type/X::Undeclared" xlink:title="X::Undeclared">
<ellipse fill="none" stroke="#000000" cx="103.99" cy="-90" rx="66.09" ry="18"/>
<text text-anchor="middle" x="103.99" y="-86.3" font-family="FreeSans" font-size="14.00" fill="#000000">X::Undeclared</text>
</a>
</g>
</g>
<!-- Exception -->
<g id="node4" class="node">
<title>Exception</title>
<g id="a_node4"><a xlink:href="/type/Exception" xlink:title="Exception">
<ellipse fill="none" stroke="#000000" cx="103.99" cy="-234" rx="49.29" ry="18"/>
<text text-anchor="middle" x="103.99" y="-230.3" font-family="FreeSans" font-size="14.00" fill="#000000">Exception</text>
</a>
</g>
</g>
<!-- X::Undeclared&#45;&gt;Exception -->
<g id="edge1" class="edge">
<title>X::Undeclared&#45;&gt;Exception</title>
<path fill="none" stroke="#000000" d="M98.52,-108.06C93.55,-123.55 86.99,-144 86.99,-144 86.99,-144 86.99,-180 86.99,-180 86.99,-180 91.16,-192.98 95.36,-206.1"/>
<polygon fill="#000000" stroke="#000000" points="92.13,-207.49 98.52,-215.94 98.8,-205.35 92.13,-207.49"/>
</g>
<!-- X::Comp -->
<g id="node5" class="node">
<title>X::Comp</title>
<g id="a_node5"><a xlink:href="/type/X::Comp" xlink:title="X::Comp">
<ellipse fill="none" stroke="#6666ff" cx="140.99" cy="-162" rx="44.69" ry="18"/>
<text text-anchor="middle" x="140.99" y="-158.3" font-family="FreeSans" font-size="14.00" fill="#6666ff">X::Comp</text>
</a>
</g>
</g>
<!-- X::Undeclared&#45;&gt;X::Comp -->
<g id="edge6" class="edge">
<title>X::Undeclared&#45;&gt;X::Comp</title>
<path fill="none" stroke="#6666ff" d="M112.95,-107.95C117.26,-116.11 122.54,-126.09 127.34,-135.18"/>
<polygon fill="#6666ff" stroke="#6666ff" points="124.35,-137.01 132.12,-144.21 130.54,-133.73 124.35,-137.01"/>
</g>
<!-- Mu -->
<g id="node2" class="node">
<title>Mu</title>
<g id="a_node2"><a xlink:href="/type/Mu" xlink:title="Mu">
<ellipse fill="none" stroke="#000000" cx="103.99" cy="-378" rx="27" ry="18"/>
<text text-anchor="middle" x="103.99" y="-374.3" font-family="FreeSans" font-size="14.00" fill="#000000">Mu</text>
</a>
</g>
</g>
<!-- Any -->
<g id="node3" class="node">
<title>Any</title>
<g id="a_node3"><a xlink:href="/type/Any" xlink:title="Any">
<ellipse fill="none" stroke="#000000" cx="103.99" cy="-306" rx="27" ry="18"/>
<text text-anchor="middle" x="103.99" y="-302.3" font-family="FreeSans" font-size="14.00" fill="#000000">Any</text>
</a>
</g>
</g>
<!-- Any&#45;&gt;Mu -->
<g id="edge2" class="edge">
<title>Any&#45;&gt;Mu</title>
<path fill="none" stroke="#000000" d="M103.99,-324.3C103.99,-332.02 103.99,-341.29 103.99,-349.89"/>
<polygon fill="#000000" stroke="#000000" points="100.49,-349.9 103.99,-359.9 107.49,-349.9 100.49,-349.9"/>
</g>
<!-- Exception&#45;&gt;Any -->
<g id="edge3" class="edge">
<title>Exception&#45;&gt;Any</title>
<path fill="none" stroke="#000000" d="M103.99,-252.3C103.99,-260.02 103.99,-269.29 103.99,-277.89"/>
<polygon fill="#000000" stroke="#000000" points="100.49,-277.9 103.99,-287.9 107.49,-277.9 100.49,-277.9"/>
</g>
<!-- X::Comp&#45;&gt;Exception -->
<g id="edge4" class="edge">
<title>X::Comp&#45;&gt;Exception</title>
<path fill="none" stroke="#000000" d="M132.03,-179.95C127.72,-188.11 122.44,-198.09 117.64,-207.18"/>
<polygon fill="#000000" stroke="#000000" points="114.44,-205.73 112.86,-216.21 120.63,-209.01 114.44,-205.73"/>
</g>
<!-- X::Attribute::Undeclared -->
<g id="node6" class="node">
<title>X::Attribute::Undeclared</title>
<g id="a_node6"><a xlink:href="/type/X::Attribute::Undeclared" xlink:title="X::Attribute::Undeclared">
<ellipse fill="none" stroke="#000000" cx="103.99" cy="-18" rx="103.98" ry="18"/>
<text text-anchor="middle" x="103.99" y="-14.3" font-family="FreeSans" font-size="14.00" fill="#000000">X::Attribute::Undeclared</text>
</a>
</g>
</g>
<!-- X::Attribute::Undeclared&#45;&gt;X::Undeclared -->
<g id="edge5" class="edge">
<title>X::Attribute::Undeclared&#45;&gt;X::Undeclared</title>
<path fill="none" stroke="#000000" d="M103.99,-36.3C103.99,-44.02 103.99,-53.29 103.99,-61.89"/>
<polygon fill="#000000" stroke="#000000" points="100.49,-61.9 103.99,-71.9 107.49,-61.9 100.49,-61.9"/>
</g>
</g>
</svg>
