<?xml version="1.0" encoding="UTF-8" standalone="no"?>
<!DOCTYPE svg PUBLIC "-//W3C//DTD SVG 1.1//EN"
 "http://www.w3.org/Graphics/SVG/1.1/DTD/svg11.dtd">
<!-- Generated by graphviz version 2.43.0 (0)
 -->
<!-- Title: perl6&#45;type&#45;graph Pages: 1 -->
<svg width="174pt" height="332pt"
 viewBox="0.00 0.00 174.39 332.00" xmlns="http://www.w3.org/2000/svg" xmlns:xlink="http://www.w3.org/1999/xlink">
<g id="graph0" class="graph" transform="scale(1 1) rotate(0) translate(4 328)">
<title>perl6&#45;type&#45;graph</title>
<polygon fill="white" stroke="transparent" points="-4,4 -4,-328 170.39,-328 170.39,4 -4,4"/>
<!-- X::Value::Dynamic -->
<g id="node1" class="node">
<title>X::Value::Dynamic</title>
<g id="a_node1"><a xlink:href="/type/X::Value::Dynamic" xlink:title="X::Value::Dynamic">
<ellipse fill="none" stroke="#000000" cx="83.19" cy="-18" rx="83.39" ry="18"/>
<text text-anchor="middle" x="83.19" y="-14.3" font-family="FreeSans" font-size="14.00" fill="#000000">X::Value::Dynamic</text>
</a>
</g>
</g>
<!-- Exception -->
<g id="node4" class="node">
<title>Exception</title>
<g id="a_node4"><a xlink:href="/type/Exception" xlink:title="Exception">
<ellipse fill="none" stroke="#000000" cx="83.19" cy="-162" rx="49.29" ry="18"/>
<text text-anchor="middle" x="83.19" y="-158.3" font-family="FreeSans" font-size="14.00" fill="#000000">Exception</text>
</a>
</g>
</g>
<!-- X::Value::Dynamic&#45;&gt;Exception -->
<g id="edge1" class="edge">
<title>X::Value::Dynamic&#45;&gt;Exception</title>
<path fill="none" stroke="#000000" d="M77.72,-36.06C72.75,-51.55 66.19,-72 66.19,-72 66.19,-72 66.19,-108 66.19,-108 66.19,-108 70.36,-120.98 74.56,-134.1"/>
<polygon fill="#000000" stroke="#000000" points="71.33,-135.49 77.72,-143.94 78,-133.35 71.33,-135.49"/>
</g>
<!-- X::Comp -->
<g id="node5" class="node">
<title>X::Comp</title>
<g id="a_node5"><a xlink:href="/type/X::Comp" xlink:title="X::Comp">
<ellipse fill="none" stroke="#6666ff" cx="120.19" cy="-90" rx="44.69" ry="18"/>
<text text-anchor="middle" x="120.19" y="-86.3" font-family="FreeSans" font-size="14.00" fill="#6666ff">X::Comp</text>
</a>
</g>
</g>
<!-- X::Value::Dynamic&#45;&gt;X::Comp -->
<g id="edge5" class="edge">
<title>X::Value::Dynamic&#45;&gt;X::Comp</title>
<path fill="none" stroke="#6666ff" d="M92.15,-35.95C96.47,-44.11 101.74,-54.09 106.54,-63.18"/>
<polygon fill="#6666ff" stroke="#6666ff" points="103.55,-65.01 111.32,-72.21 109.74,-61.73 103.55,-65.01"/>
</g>
<!-- Mu -->
<g id="node2" class="node">
<title>Mu</title>
<g id="a_node2"><a xlink:href="/type/Mu" xlink:title="Mu">
<ellipse fill="none" stroke="#000000" cx="83.19" cy="-306" rx="27" ry="18"/>
<text text-anchor="middle" x="83.19" y="-302.3" font-family="FreeSans" font-size="14.00" fill="#000000">Mu</text>
</a>
</g>
</g>
<!-- Any -->
<g id="node3" class="node">
<title>Any</title>
<g id="a_node3"><a xlink:href="/type/Any" xlink:title="Any">
<ellipse fill="none" stroke="#000000" cx="83.19" cy="-234" rx="27" ry="18"/>
<text text-anchor="middle" x="83.19" y="-230.3" font-family="FreeSans" font-size="14.00" fill="#000000">Any</text>
</a>
</g>
</g>
<!-- Any&#45;&gt;Mu -->
<g id="edge2" class="edge">
<title>Any&#45;&gt;Mu</title>
<path fill="none" stroke="#000000" d="M83.19,-252.3C83.19,-260.02 83.19,-269.29 83.19,-277.89"/>
<polygon fill="#000000" stroke="#000000" points="79.69,-277.9 83.19,-287.9 86.69,-277.9 79.69,-277.9"/>
</g>
<!-- Exception&#45;&gt;Any -->
<g id="edge3" class="edge">
<title>Exception&#45;&gt;Any</title>
<path fill="none" stroke="#000000" d="M83.19,-180.3C83.19,-188.02 83.19,-197.29 83.19,-205.89"/>
<polygon fill="#000000" stroke="#000000" points="79.69,-205.9 83.19,-215.9 86.69,-205.9 79.69,-205.9"/>
</g>
<!-- X::Comp&#45;&gt;Exception -->
<g id="edge4" class="edge">
<title>X::Comp&#45;&gt;Exception</title>
<path fill="none" stroke="#000000" d="M111.24,-107.95C106.92,-116.11 101.65,-126.09 96.84,-135.18"/>
<polygon fill="#000000" stroke="#000000" points="93.65,-133.73 92.07,-144.21 99.83,-137.01 93.65,-133.73"/>
</g>
</g>
</svg>
