<?xml version="1.0" encoding="UTF-8" standalone="no"?>
<!DOCTYPE svg PUBLIC "-//W3C//DTD SVG 1.1//EN"
 "http://www.w3.org/Graphics/SVG/1.1/DTD/svg11.dtd">
<!-- Generated by graphviz version 14.1.2 (0)
 -->
<!-- Title: Rakudo Type Relation for Distribution::Hash Pages: 1 -->
<svg width="290pt" height="136pt"
 viewBox="0.00 0.00 290.00 136.00" xmlns="http://www.w3.org/2000/svg" xmlns:xlink="http://www.w3.org/1999/xlink">
<g id="graph0" class="graph" transform="scale(1 1) rotate(0) translate(4 132.14)">
<title>Rakudo Type Relation for Distribution::Hash</title>
<!-- Distribution::Hash -->
<g id="node1" class="node">
<title>Distribution::Hash</title>
<g id="a_node1"><a xlink:href="/type/Distribution::Hash" xlink:title="class">
<polygon fill="none" stroke="#000000" points="170.38,-128.14 33.62,-128.14 33.62,-92.14 170.38,-92.14 170.38,-128.14"/>
<text xml:space="preserve" text-anchor="middle" x="102" y="-106.59" font-family="FreeSans" font-size="14.00">Distribution::Hash</text>
</a>
</g>
</g>
<!-- Any -->
<g id="node2" class="node">
<title>Any</title>
<g id="a_node2"><a xlink:href="/type/Any" xlink:title="class">
<polygon fill="none" stroke="#000000" points="54,-37.45 0,-37.45 0,-1.45 54,-1.45 54,-37.45"/>
<text xml:space="preserve" text-anchor="middle" x="27" y="-15.9" font-family="FreeSans" font-size="14.00">Any</text>
</a>
</g>
</g>
<!-- Distribution::Hash&#45;&gt;Any -->
<g id="edge1" class="edge">
<title>Distribution::Hash&#45;&gt;Any</title>
<path fill="none" stroke="green" d="M87.54,-92.04C78.05,-80.82 65.36,-65.81 54.05,-52.43"/>
<polygon fill="green" stroke="green" points="44.67,-35.92 48.45,-45.81 39.32,-40.44 44.67,-35.92"/>
<ellipse fill="green" stroke="green" cx="52.33" cy="-50.41" rx="4" ry="4"/>
<text xml:space="preserve" text-anchor="middle" x="77.22" y="-60.84" font-family="Times,serif" font-size="14.00">is</text>
</g>
<!-- Distribution::Locally -->
<g id="node3" class="node">
<title>Distribution::Locally</title>
<g id="a_node3"><a xlink:href="/type/Distribution::Locally" xlink:title="class">
<ellipse fill="none" stroke="#6666ff" cx="177" cy="-19.45" rx="104.65" ry="19.45"/>
<text xml:space="preserve" text-anchor="middle" x="177" y="-15.9" font-family="FreeSans" font-size="14.00">Distribution::Locally</text>
</a>
</g>
</g>
<!-- Distribution::Hash&#45;&gt;Distribution::Locally -->
<g id="edge2" class="edge">
<title>Distribution::Hash&#45;&gt;Distribution::Locally</title>
<path fill="none" stroke="red" d="M116.46,-92.04C125.6,-81.23 137.72,-66.9 148.71,-53.9"/>
<polygon fill="red" stroke="red" points="163.64,-41.67 154.51,-47.04 158.29,-37.15 163.64,-41.67"/>
<ellipse fill="red" stroke="red" cx="150.63" cy="-51.64" rx="4" ry="4"/>
<text xml:space="preserve" text-anchor="middle" x="160.49" y="-60.84" font-family="Times,serif" font-size="14.00">does</text>
</g>
</g>
</svg>
