<?xml version="1.0" encoding="UTF-8" standalone="no"?>
<!DOCTYPE svg PUBLIC "-//W3C//DTD SVG 1.1//EN"
 "http://www.w3.org/Graphics/SVG/1.1/DTD/svg11.dtd">
<!-- Generated by graphviz version 14.1.2 (0)
 -->
<!-- Title: raku&#45;type&#45;graph Pages: 1 -->
<svg width="3700pt" height="197pt"
 viewBox="0.00 0.00 3700.00 197.00" xmlns="http://www.w3.org/2000/svg" xmlns:xlink="http://www.w3.org/1999/xlink">
<g id="graph0" class="graph" transform="scale(1 1) rotate(0) translate(4 192.67)">
<title>raku&#45;type&#45;graph</title>
<polygon fill="#ffffff" stroke="none" points="-4,4 -4,-192.67 3696.45,-192.67 3696.45,4 -4,4"/>
<!-- Metamodel::ParametricRoleHOW -->
<g id="node1" class="node">
<title>Metamodel::ParametricRoleHOW</title>
<g id="a_node1"><a xlink:href="/type/Metamodel::ParametricRoleHOW" xlink:title="Metamodel::ParametricRoleHOW">
<ellipse fill="none" stroke="#000000" cx="1741.34" cy="-19.45" rx="164.58" ry="19.45"/>
<text xml:space="preserve" text-anchor="middle" x="1741.34" y="-15.9" font-family="FreeSans" font-size="14.00" fill="#000000">Metamodel::ParametricRoleHOW</text>
</a>
</g>
</g>
<!-- Any -->
<g id="node3" class="node">
<title>Any</title>
<g id="a_node3"><a xlink:href="/type/Any" xlink:title="Any">
<ellipse fill="none" stroke="#000000" cx="29.34" cy="-94.34" rx="29.34" ry="19.45"/>
<text xml:space="preserve" text-anchor="middle" x="29.34" y="-90.79" font-family="FreeSans" font-size="14.00" fill="#000000">Any</text>
</a>
</g>
</g>
<!-- Metamodel::ParametricRoleHOW&#45;&gt;Any -->
<g id="edge1" class="edge">
<title>Metamodel::ParametricRoleHOW&#45;&gt;Any</title>
<path fill="none" stroke="#000000" d="M1584.33,-25.56C1168.15,-39.1 68.34,-74.89 68.34,-74.89 68.34,-74.89 66.31,-75.85 63.18,-77.34"/>
<polygon fill="#000000" stroke="#000000" points="61.84,-74.09 54.3,-81.53 64.84,-80.42 61.84,-74.09"/>
</g>
<!-- Metamodel::Naming -->
<g id="node4" class="node">
<title>Metamodel::Naming</title>
<g id="a_node4"><a xlink:href="/type/Metamodel::Naming" xlink:title="Metamodel::Naming">
<ellipse fill="none" stroke="#6666ff" cx="183.34" cy="-94.34" rx="106.24" ry="19.45"/>
<text xml:space="preserve" text-anchor="middle" x="183.34" y="-90.79" font-family="FreeSans" font-size="14.00" fill="#6666ff">Metamodel::Naming</text>
</a>
</g>
</g>
<!-- Metamodel::ParametricRoleHOW&#45;&gt;Metamodel::Naming -->
<g id="edge3" class="edge">
<title>Metamodel::ParametricRoleHOW&#45;&gt;Metamodel::Naming</title>
<path fill="none" stroke="#6666ff" d="M1586.58,-26.28C1214.1,-40.34 298.34,-74.89 298.34,-74.89 298.34,-74.89 287.45,-76.64 272.36,-79.06"/>
<polygon fill="#6666ff" stroke="#6666ff" points="272.14,-75.55 262.82,-80.59 273.25,-82.46 272.14,-75.55"/>
</g>
<!-- Metamodel::Documenting -->
<g id="node5" class="node">
<title>Metamodel::Documenting</title>
<g id="a_node5"><a xlink:href="/type/Metamodel::Documenting" xlink:title="Metamodel::Documenting">
<ellipse fill="none" stroke="#6666ff" cx="441.34" cy="-94.34" rx="133.82" ry="19.45"/>
<text xml:space="preserve" text-anchor="middle" x="441.34" y="-90.79" font-family="FreeSans" font-size="14.00" fill="#6666ff">Metamodel::Documenting</text>
</a>
</g>
</g>
<!-- Metamodel::ParametricRoleHOW&#45;&gt;Metamodel::Documenting -->
<g id="edge4" class="edge">
<title>Metamodel::ParametricRoleHOW&#45;&gt;Metamodel::Documenting</title>
<path fill="none" stroke="#6666ff" d="M1590.68,-27.54C1277.34,-42.28 584.34,-74.89 584.34,-74.89 584.34,-74.89 570.03,-76.74 550.46,-79.26"/>
<polygon fill="#6666ff" stroke="#6666ff" points="550.07,-75.78 540.6,-80.53 550.97,-82.73 550.07,-75.78"/>
</g>
<!-- Metamodel::Versioning -->
<g id="node6" class="node">
<title>Metamodel::Versioning</title>
<g id="a_node6"><a xlink:href="/type/Metamodel::Versioning" xlink:title="Metamodel::Versioning">
<ellipse fill="none" stroke="#6666ff" cx="713.34" cy="-94.34" rx="120.03" ry="19.45"/>
<text xml:space="preserve" text-anchor="middle" x="713.34" y="-90.79" font-family="FreeSans" font-size="14.00" fill="#6666ff">Metamodel::Versioning</text>
</a>
</g>
</g>
<!-- Metamodel::ParametricRoleHOW&#45;&gt;Metamodel::Versioning -->
<g id="edge5" class="edge">
<title>Metamodel::ParametricRoleHOW&#45;&gt;Metamodel::Versioning</title>
<path fill="none" stroke="#6666ff" d="M1597.4,-29.16C1343.43,-44.54 842.34,-74.89 842.34,-74.89 842.34,-74.89 829.77,-76.69 812.48,-79.16"/>
<polygon fill="#6666ff" stroke="#6666ff" points="812.08,-75.68 802.67,-80.56 813.07,-82.61 812.08,-75.68"/>
</g>
<!-- Metamodel::MethodContainer -->
<g id="node7" class="node">
<title>Metamodel::MethodContainer</title>
<g id="a_node7"><a xlink:href="/type/Metamodel::MethodContainer" xlink:title="Metamodel::MethodContainer">
<ellipse fill="none" stroke="#6666ff" cx="1004.34" cy="-94.34" rx="152.91" ry="19.45"/>
<text xml:space="preserve" text-anchor="middle" x="1004.34" y="-90.79" font-family="FreeSans" font-size="14.00" fill="#6666ff">Metamodel::MethodContainer</text>
</a>
</g>
</g>
<!-- Metamodel::ParametricRoleHOW&#45;&gt;Metamodel::MethodContainer -->
<g id="edge6" class="edge">
<title>Metamodel::ParametricRoleHOW&#45;&gt;Metamodel::MethodContainer</title>
<path fill="none" stroke="#6666ff" d="M1615.87,-32.33C1446.68,-48.35 1166.34,-74.89 1166.34,-74.89 1166.34,-74.89 1149.54,-76.8 1126.76,-79.4"/>
<polygon fill="#6666ff" stroke="#6666ff" points="1126.58,-75.9 1117.04,-80.51 1127.37,-82.85 1126.58,-75.9"/>
</g>
<!-- Metamodel::PrivateMethodContainer -->
<g id="node8" class="node">
<title>Metamodel::PrivateMethodContainer</title>
<g id="a_node8"><a xlink:href="/type/Metamodel::PrivateMethodContainer" xlink:title="Metamodel::PrivateMethodContainer">
<ellipse fill="none" stroke="#6666ff" cx="1360.34" cy="-94.34" rx="185.26" ry="19.45"/>
<text xml:space="preserve" text-anchor="middle" x="1360.34" y="-90.79" font-family="FreeSans" font-size="14.00" fill="#6666ff">Metamodel::PrivateMethodContainer</text>
</a>
</g>
</g>
<!-- Metamodel::ParametricRoleHOW&#45;&gt;Metamodel::PrivateMethodContainer -->
<g id="edge7" class="edge">
<title>Metamodel::ParametricRoleHOW&#45;&gt;Metamodel::PrivateMethodContainer</title>
<path fill="none" stroke="#6666ff" d="M1657.26,-36.53C1598.57,-47.76 1520.03,-62.79 1458.47,-74.56"/>
<polygon fill="#6666ff" stroke="#6666ff" points="1457.84,-71.12 1448.67,-76.44 1459.15,-78 1457.84,-71.12"/>
</g>
<!-- Metamodel::MultiMethodContainer -->
<g id="node9" class="node">
<title>Metamodel::MultiMethodContainer</title>
<g id="a_node9"><a xlink:href="/type/Metamodel::MultiMethodContainer" xlink:title="Metamodel::MultiMethodContainer">
<ellipse fill="none" stroke="#6666ff" cx="1741.34" cy="-94.34" rx="177.31" ry="19.45"/>
<text xml:space="preserve" text-anchor="middle" x="1741.34" y="-90.79" font-family="FreeSans" font-size="14.00" fill="#6666ff">Metamodel::MultiMethodContainer</text>
</a>
</g>
</g>
<!-- Metamodel::ParametricRoleHOW&#45;&gt;Metamodel::MultiMethodContainer -->
<g id="edge8" class="edge">
<title>Metamodel::ParametricRoleHOW&#45;&gt;Metamodel::MultiMethodContainer</title>
<path fill="none" stroke="#6666ff" d="M1741.34,-39.22C1741.34,-46.53 1741.34,-55.09 1741.34,-63.22"/>
<polygon fill="#6666ff" stroke="#6666ff" points="1737.85,-63.12 1741.34,-73.12 1744.85,-63.12 1737.85,-63.12"/>
</g>
<!-- Metamodel::AttributeContainer -->
<g id="node10" class="node">
<title>Metamodel::AttributeContainer</title>
<g id="a_node10"><a xlink:href="/type/Metamodel::AttributeContainer" xlink:title="Metamodel::AttributeContainer">
<ellipse fill="none" stroke="#6666ff" cx="2095.34" cy="-94.34" rx="158.75" ry="19.45"/>
<text xml:space="preserve" text-anchor="middle" x="2095.34" y="-90.79" font-family="FreeSans" font-size="14.00" fill="#6666ff">Metamodel::AttributeContainer</text>
</a>
</g>
</g>
<!-- Metamodel::ParametricRoleHOW&#45;&gt;Metamodel::AttributeContainer -->
<g id="edge9" class="edge">
<title>Metamodel::ParametricRoleHOW&#45;&gt;Metamodel::AttributeContainer</title>
<path fill="none" stroke="#6666ff" d="M1821.23,-36.89C1875.91,-48.15 1948.49,-63.1 2005.23,-74.78"/>
<polygon fill="#6666ff" stroke="#6666ff" points="2004.38,-78.18 2014.88,-76.77 2005.79,-71.32 2004.38,-78.18"/>
</g>
<!-- Metamodel::RoleContainer -->
<g id="node11" class="node">
<title>Metamodel::RoleContainer</title>
<g id="a_node11"><a xlink:href="/type/Metamodel::RoleContainer" xlink:title="Metamodel::RoleContainer">
<ellipse fill="none" stroke="#6666ff" cx="2409.34" cy="-94.34" rx="137" ry="19.45"/>
<text xml:space="preserve" text-anchor="middle" x="2409.34" y="-90.79" font-family="FreeSans" font-size="14.00" fill="#6666ff">Metamodel::RoleContainer</text>
</a>
</g>
</g>
<!-- Metamodel::ParametricRoleHOW&#45;&gt;Metamodel::RoleContainer -->
<g id="edge10" class="edge">
<title>Metamodel::ParametricRoleHOW&#45;&gt;Metamodel::RoleContainer</title>
<path fill="none" stroke="#6666ff" d="M1862.09,-33.04C2016.27,-49.12 2263.34,-74.89 2263.34,-74.89 2263.34,-74.89 2278.1,-76.75 2298.22,-79.3"/>
<polygon fill="#6666ff" stroke="#6666ff" points="2297.68,-82.76 2308.04,-80.54 2298.56,-75.81 2297.68,-82.76"/>
</g>
<!-- Metamodel::MultipleInheritance -->
<g id="node12" class="node">
<title>Metamodel::MultipleInheritance</title>
<g id="a_node12"><a xlink:href="/type/Metamodel::MultipleInheritance" xlink:title="Metamodel::MultipleInheritance">
<ellipse fill="none" stroke="#6666ff" cx="2727.34" cy="-94.34" rx="162.99" ry="19.45"/>
<text xml:space="preserve" text-anchor="middle" x="2727.34" y="-90.79" font-family="FreeSans" font-size="14.00" fill="#6666ff">Metamodel::MultipleInheritance</text>
</a>
</g>
</g>
<!-- Metamodel::ParametricRoleHOW&#45;&gt;Metamodel::MultipleInheritance -->
<g id="edge11" class="edge">
<title>Metamodel::ParametricRoleHOW&#45;&gt;Metamodel::MultipleInheritance</title>
<path fill="none" stroke="#6666ff" d="M1881.74,-29.84C2114.6,-45.41 2555.34,-74.89 2555.34,-74.89 2555.34,-74.89 2573.32,-76.82 2597.64,-79.43"/>
<polygon fill="#6666ff" stroke="#6666ff" points="2597,-82.88 2607.32,-80.46 2597.75,-75.92 2597,-82.88"/>
</g>
<!-- Metamodel::Stashing -->
<g id="node13" class="node">
<title>Metamodel::Stashing</title>
<g id="a_node13"><a xlink:href="/type/Metamodel::Stashing" xlink:title="Metamodel::Stashing">
<ellipse fill="none" stroke="#6666ff" cx="3018.34" cy="-94.34" rx="109.96" ry="19.45"/>
<text xml:space="preserve" text-anchor="middle" x="3018.34" y="-90.79" font-family="FreeSans" font-size="14.00" fill="#6666ff">Metamodel::Stashing</text>
</a>
</g>
</g>
<!-- Metamodel::ParametricRoleHOW&#45;&gt;Metamodel::Stashing -->
<g id="edge12" class="edge">
<title>Metamodel::ParametricRoleHOW&#45;&gt;Metamodel::Stashing</title>
<path fill="none" stroke="#6666ff" d="M1892.14,-27.54C2205.75,-42.28 2899.34,-74.89 2899.34,-74.89 2899.34,-74.89 2910.84,-76.67 2926.69,-79.13"/>
<polygon fill="#6666ff" stroke="#6666ff" points="2925.74,-82.52 2936.16,-80.6 2926.81,-75.61 2925.74,-82.52"/>
</g>
<!-- Metamodel::TypePretense -->
<g id="node14" class="node">
<title>Metamodel::TypePretense</title>
<g id="a_node14"><a xlink:href="/type/Metamodel::TypePretense" xlink:title="Metamodel::TypePretense">
<ellipse fill="none" stroke="#6666ff" cx="3280.34" cy="-94.34" rx="133.82" ry="19.45"/>
<text xml:space="preserve" text-anchor="middle" x="3280.34" y="-90.79" font-family="FreeSans" font-size="14.00" fill="#6666ff">Metamodel::TypePretense</text>
</a>
</g>
</g>
<!-- Metamodel::ParametricRoleHOW&#45;&gt;Metamodel::TypePretense -->
<g id="edge13" class="edge">
<title>Metamodel::ParametricRoleHOW&#45;&gt;Metamodel::TypePretense</title>
<path fill="none" stroke="#6666ff" d="M1895.74,-26.47C2259,-40.63 3137.34,-74.89 3137.34,-74.89 3137.34,-74.89 3151.66,-76.74 3171.23,-79.26"/>
<polygon fill="#6666ff" stroke="#6666ff" points="3170.72,-82.73 3181.09,-80.53 3171.62,-75.78 3170.72,-82.73"/>
</g>
<!-- Metamodel::RolePunning -->
<g id="node15" class="node">
<title>Metamodel::RolePunning</title>
<g id="a_node15"><a xlink:href="/type/Metamodel::RolePunning" xlink:title="Metamodel::RolePunning">
<ellipse fill="none" stroke="#6666ff" cx="3562.34" cy="-94.34" rx="130.11" ry="19.45"/>
<text xml:space="preserve" text-anchor="middle" x="3562.34" y="-90.79" font-family="FreeSans" font-size="14.00" fill="#6666ff">Metamodel::RolePunning</text>
</a>
</g>
</g>
<!-- Metamodel::ParametricRoleHOW&#45;&gt;Metamodel::RolePunning -->
<g id="edge14" class="edge">
<title>Metamodel::ParametricRoleHOW&#45;&gt;Metamodel::RolePunning</title>
<path fill="none" stroke="#6666ff" d="M1898.45,-25.53C2316.3,-39.06 3423.34,-74.89 3423.34,-74.89 3423.34,-74.89 3437.13,-76.72 3456.02,-79.23"/>
<polygon fill="#6666ff" stroke="#6666ff" points="3455.45,-82.68 3465.83,-80.53 3456.37,-75.74 3455.45,-82.68"/>
</g>
<!-- Mu -->
<g id="node2" class="node">
<title>Mu</title>
<g id="a_node2"><a xlink:href="/type/Mu" xlink:title="Mu">
<ellipse fill="none" stroke="#000000" cx="29.34" cy="-169.23" rx="27" ry="19.45"/>
<text xml:space="preserve" text-anchor="middle" x="29.34" y="-165.68" font-family="FreeSans" font-size="14.00" fill="#000000">Mu</text>
</a>
</g>
</g>
<!-- Any&#45;&gt;Mu -->
<g id="edge2" class="edge">
<title>Any&#45;&gt;Mu</title>
<path fill="none" stroke="#000000" d="M29.34,-114.11C29.34,-121.42 29.34,-129.98 29.34,-138.11"/>
<polygon fill="#000000" stroke="#000000" points="25.85,-138.01 29.34,-148.01 32.85,-138.01 25.85,-138.01"/>
</g>
</g>
</svg>
