<?xml version="1.0" encoding="UTF-8" standalone="no"?>
<!DOCTYPE svg PUBLIC "-//W3C//DTD SVG 1.1//EN"
 "http://www.w3.org/Graphics/SVG/1.1/DTD/svg11.dtd">
<!-- Generated by graphviz version 14.1.2 (0)
 -->
<!-- Title: raku&#45;type&#45;graph Pages: 1 -->
<svg width="6038pt" height="197pt"
 viewBox="0.00 0.00 6038.00 197.00" xmlns="http://www.w3.org/2000/svg" xmlns:xlink="http://www.w3.org/1999/xlink">
<g id="graph0" class="graph" transform="scale(1 1) rotate(0) translate(4 192.67)">
<title>raku&#45;type&#45;graph</title>
<polygon fill="#ffffff" stroke="none" points="-4,4 -4,-192.67 6034.38,-192.67 6034.38,4 -4,4"/>
<!-- Metamodel::Mixins -->
<g id="node1" class="node">
<title>Metamodel::Mixins</title>
<g id="a_node1"><a xlink:href="/type/Metamodel::Mixins" xlink:title="Metamodel::Mixins">
<ellipse fill="none" stroke="#6666ff" cx="1354.2" cy="-94.34" rx="100.41" ry="19.45"/>
<text xml:space="preserve" text-anchor="middle" x="1354.2" y="-90.79" font-family="FreeSans" font-size="14.00" fill="#6666ff">Metamodel::Mixins</text>
</a>
</g>
</g>
<!-- Mu -->
<g id="node2" class="node">
<title>Mu</title>
<g id="a_node2"><a xlink:href="/type/Mu" xlink:title="Mu">
<ellipse fill="none" stroke="#000000" cx="1502.2" cy="-169.23" rx="27" ry="19.45"/>
<text xml:space="preserve" text-anchor="middle" x="1502.2" y="-165.68" font-family="FreeSans" font-size="14.00" fill="#000000">Mu</text>
</a>
</g>
</g>
<!-- Any -->
<g id="node3" class="node">
<title>Any</title>
<g id="a_node3"><a xlink:href="/type/Any" xlink:title="Any">
<ellipse fill="none" stroke="#000000" cx="1502.2" cy="-94.34" rx="29.34" ry="19.45"/>
<text xml:space="preserve" text-anchor="middle" x="1502.2" y="-90.79" font-family="FreeSans" font-size="14.00" fill="#000000">Any</text>
</a>
</g>
</g>
<!-- Any&#45;&gt;Mu -->
<g id="edge1" class="edge">
<title>Any&#45;&gt;Mu</title>
<path fill="none" stroke="#000000" d="M1502.2,-114.11C1502.2,-121.42 1502.2,-129.98 1502.2,-138.11"/>
<polygon fill="#000000" stroke="#000000" points="1498.7,-138.01 1502.2,-148.01 1505.7,-138.01 1498.7,-138.01"/>
</g>
<!-- Metamodel::Naming -->
<g id="node4" class="node">
<title>Metamodel::Naming</title>
<g id="a_node4"><a xlink:href="/type/Metamodel::Naming" xlink:title="Metamodel::Naming">
<ellipse fill="none" stroke="#6666ff" cx="1656.2" cy="-94.34" rx="106.24" ry="19.45"/>
<text xml:space="preserve" text-anchor="middle" x="1656.2" y="-90.79" font-family="FreeSans" font-size="14.00" fill="#6666ff">Metamodel::Naming</text>
</a>
</g>
</g>
<!-- Metamodel::Documenting -->
<g id="node5" class="node">
<title>Metamodel::Documenting</title>
<g id="a_node5"><a xlink:href="/type/Metamodel::Documenting" xlink:title="Metamodel::Documenting">
<ellipse fill="none" stroke="#6666ff" cx="4126.2" cy="-94.34" rx="133.82" ry="19.45"/>
<text xml:space="preserve" text-anchor="middle" x="4126.2" y="-90.79" font-family="FreeSans" font-size="14.00" fill="#6666ff">Metamodel::Documenting</text>
</a>
</g>
</g>
<!-- Metamodel::Versioning -->
<g id="node6" class="node">
<title>Metamodel::Versioning</title>
<g id="a_node6"><a xlink:href="/type/Metamodel::Versioning" xlink:title="Metamodel::Versioning">
<ellipse fill="none" stroke="#6666ff" cx="4398.2" cy="-94.34" rx="120.03" ry="19.45"/>
<text xml:space="preserve" text-anchor="middle" x="4398.2" y="-90.79" font-family="FreeSans" font-size="14.00" fill="#6666ff">Metamodel::Versioning</text>
</a>
</g>
</g>
<!-- Metamodel::Stashing -->
<g id="node7" class="node">
<title>Metamodel::Stashing</title>
<g id="a_node7"><a xlink:href="/type/Metamodel::Stashing" xlink:title="Metamodel::Stashing">
<ellipse fill="none" stroke="#6666ff" cx="1890.2" cy="-94.34" rx="109.96" ry="19.45"/>
<text xml:space="preserve" text-anchor="middle" x="1890.2" y="-90.79" font-family="FreeSans" font-size="14.00" fill="#6666ff">Metamodel::Stashing</text>
</a>
</g>
</g>
<!-- Metamodel::AttributeContainer -->
<g id="node8" class="node">
<title>Metamodel::AttributeContainer</title>
<g id="a_node8"><a xlink:href="/type/Metamodel::AttributeContainer" xlink:title="Metamodel::AttributeContainer">
<ellipse fill="none" stroke="#6666ff" cx="2177.2" cy="-94.34" rx="158.75" ry="19.45"/>
<text xml:space="preserve" text-anchor="middle" x="2177.2" y="-90.79" font-family="FreeSans" font-size="14.00" fill="#6666ff">Metamodel::AttributeContainer</text>
</a>
</g>
</g>
<!-- Metamodel::Finalization -->
<g id="node9" class="node">
<title>Metamodel::Finalization</title>
<g id="a_node9"><a xlink:href="/type/Metamodel::Finalization" xlink:title="Metamodel::Finalization">
<ellipse fill="none" stroke="#6666ff" cx="4659.2" cy="-94.34" rx="123.21" ry="19.45"/>
<text xml:space="preserve" text-anchor="middle" x="4659.2" y="-90.79" font-family="FreeSans" font-size="14.00" fill="#6666ff">Metamodel::Finalization</text>
</a>
</g>
</g>
<!-- Metamodel::MethodContainer -->
<g id="node10" class="node">
<title>Metamodel::MethodContainer</title>
<g id="a_node10"><a xlink:href="/type/Metamodel::MethodContainer" xlink:title="Metamodel::MethodContainer">
<ellipse fill="none" stroke="#6666ff" cx="2507.2" cy="-94.34" rx="152.91" ry="19.45"/>
<text xml:space="preserve" text-anchor="middle" x="2507.2" y="-90.79" font-family="FreeSans" font-size="14.00" fill="#6666ff">Metamodel::MethodContainer</text>
</a>
</g>
</g>
<!-- Metamodel::PrivateMethodContainer -->
<g id="node11" class="node">
<title>Metamodel::PrivateMethodContainer</title>
<g id="a_node11"><a xlink:href="/type/Metamodel::PrivateMethodContainer" xlink:title="Metamodel::PrivateMethodContainer">
<ellipse fill="none" stroke="#6666ff" cx="4985.2" cy="-94.34" rx="185.26" ry="19.45"/>
<text xml:space="preserve" text-anchor="middle" x="4985.2" y="-90.79" font-family="FreeSans" font-size="14.00" fill="#6666ff">Metamodel::PrivateMethodContainer</text>
</a>
</g>
</g>
<!-- Metamodel::MultiMethodContainer -->
<g id="node12" class="node">
<title>Metamodel::MultiMethodContainer</title>
<g id="a_node12"><a xlink:href="/type/Metamodel::MultiMethodContainer" xlink:title="Metamodel::MultiMethodContainer">
<ellipse fill="none" stroke="#6666ff" cx="2855.2" cy="-94.34" rx="177.31" ry="19.45"/>
<text xml:space="preserve" text-anchor="middle" x="2855.2" y="-90.79" font-family="FreeSans" font-size="14.00" fill="#6666ff">Metamodel::MultiMethodContainer</text>
</a>
</g>
</g>
<!-- Metamodel::RoleContainer -->
<g id="node13" class="node">
<title>Metamodel::RoleContainer</title>
<g id="a_node13"><a xlink:href="/type/Metamodel::RoleContainer" xlink:title="Metamodel::RoleContainer">
<ellipse fill="none" stroke="#6666ff" cx="3187.2" cy="-94.34" rx="137" ry="19.45"/>
<text xml:space="preserve" text-anchor="middle" x="3187.2" y="-90.79" font-family="FreeSans" font-size="14.00" fill="#6666ff">Metamodel::RoleContainer</text>
</a>
</g>
</g>
<!-- Metamodel::MultipleInheritance -->
<g id="node14" class="node">
<title>Metamodel::MultipleInheritance</title>
<g id="a_node14"><a xlink:href="/type/Metamodel::MultipleInheritance" xlink:title="Metamodel::MultipleInheritance">
<ellipse fill="none" stroke="#6666ff" cx="5351.2" cy="-94.34" rx="162.99" ry="19.45"/>
<text xml:space="preserve" text-anchor="middle" x="5351.2" y="-90.79" font-family="FreeSans" font-size="14.00" fill="#6666ff">Metamodel::MultipleInheritance</text>
</a>
</g>
</g>
<!-- Metamodel::DefaultParent -->
<g id="node15" class="node">
<title>Metamodel::DefaultParent</title>
<g id="a_node15"><a xlink:href="/type/Metamodel::DefaultParent" xlink:title="Metamodel::DefaultParent">
<ellipse fill="none" stroke="#6666ff" cx="5667.2" cy="-94.34" rx="134.88" ry="19.45"/>
<text xml:space="preserve" text-anchor="middle" x="5667.2" y="-90.79" font-family="FreeSans" font-size="14.00" fill="#6666ff">Metamodel::DefaultParent</text>
</a>
</g>
</g>
<!-- Metamodel::C3MRO -->
<g id="node16" class="node">
<title>Metamodel::C3MRO</title>
<g id="a_node16"><a xlink:href="/type/Metamodel::C3MRO" xlink:title="Metamodel::C3MRO">
<ellipse fill="none" stroke="#6666ff" cx="5925.2" cy="-94.34" rx="105.18" ry="19.45"/>
<text xml:space="preserve" text-anchor="middle" x="5925.2" y="-90.79" font-family="FreeSans" font-size="14.00" fill="#6666ff">Metamodel::C3MRO</text>
</a>
</g>
</g>
<!-- Metamodel::MROBasedMethodDispatch -->
<g id="node17" class="node">
<title>Metamodel::MROBasedMethodDispatch</title>
<g id="a_node17"><a xlink:href="/type/Metamodel::MROBasedMethodDispatch" xlink:title="Metamodel::MROBasedMethodDispatch">
<ellipse fill="none" stroke="#6666ff" cx="3541.2" cy="-94.34" rx="198.52" ry="19.45"/>
<text xml:space="preserve" text-anchor="middle" x="3541.2" y="-90.79" font-family="FreeSans" font-size="14.00" fill="#6666ff">Metamodel::MROBasedMethodDispatch</text>
</a>
</g>
</g>
<!-- Metamodel::MROBasedTypeChecking -->
<g id="node18" class="node">
<title>Metamodel::MROBasedTypeChecking</title>
<g id="a_node18"><a xlink:href="/type/Metamodel::MROBasedTypeChecking" xlink:title="Metamodel::MROBasedTypeChecking">
<ellipse fill="none" stroke="#6666ff" cx="433.2" cy="-94.34" rx="186.85" ry="19.45"/>
<text xml:space="preserve" text-anchor="middle" x="433.2" y="-90.79" font-family="FreeSans" font-size="14.00" fill="#6666ff">Metamodel::MROBasedTypeChecking</text>
</a>
</g>
</g>
<!-- Metamodel::Trusting -->
<g id="node19" class="node">
<title>Metamodel::Trusting</title>
<g id="a_node19"><a xlink:href="/type/Metamodel::Trusting" xlink:title="Metamodel::Trusting">
<ellipse fill="none" stroke="#6666ff" cx="3866.2" cy="-94.34" rx="108.36" ry="19.45"/>
<text xml:space="preserve" text-anchor="middle" x="3866.2" y="-90.79" font-family="FreeSans" font-size="14.00" fill="#6666ff">Metamodel::Trusting</text>
</a>
</g>
</g>
<!-- Metamodel::BUILDPLAN -->
<g id="node20" class="node">
<title>Metamodel::BUILDPLAN</title>
<g id="a_node20"><a xlink:href="/type/Metamodel::BUILDPLAN" xlink:title="Metamodel::BUILDPLAN">
<ellipse fill="none" stroke="#6666ff" cx="762.2" cy="-94.34" rx="124.27" ry="19.45"/>
<text xml:space="preserve" text-anchor="middle" x="762.2" y="-90.79" font-family="FreeSans" font-size="14.00" fill="#6666ff">Metamodel::BUILDPLAN</text>
</a>
</g>
</g>
<!-- Metamodel::BoolificationProtocol -->
<g id="node21" class="node">
<title>Metamodel::BoolificationProtocol</title>
<g id="a_node21"><a xlink:href="/type/Metamodel::BoolificationProtocol" xlink:title="Metamodel::BoolificationProtocol">
<ellipse fill="none" stroke="#6666ff" cx="1070.2" cy="-94.34" rx="165.64" ry="19.45"/>
<text xml:space="preserve" text-anchor="middle" x="1070.2" y="-90.79" font-family="FreeSans" font-size="14.00" fill="#6666ff">Metamodel::BoolificationProtocol</text>
</a>
</g>
</g>
<!-- Metamodel::ClassHOW -->
<g id="node22" class="node">
<title>Metamodel::ClassHOW</title>
<g id="a_node22"><a xlink:href="/type/Metamodel::ClassHOW" xlink:title="Metamodel::ClassHOW">
<ellipse fill="none" stroke="#000000" cx="3021.2" cy="-19.45" rx="117.38" ry="19.45"/>
<text xml:space="preserve" text-anchor="middle" x="3021.2" y="-15.9" font-family="FreeSans" font-size="14.00" fill="#000000">Metamodel::ClassHOW</text>
</a>
</g>
</g>
<!-- Metamodel::ClassHOW&#45;&gt;Metamodel::Mixins -->
<g id="edge21" class="edge">
<title>Metamodel::ClassHOW&#45;&gt;Metamodel::Mixins</title>
<path fill="none" stroke="#6666ff" d="M2907.34,-24.43C2548.41,-36.98 1464.2,-74.89 1464.2,-74.89 1464.2,-74.89 1453.87,-76.62 1439.54,-79.03"/>
<polygon fill="#6666ff" stroke="#6666ff" points="1439.26,-75.52 1429.98,-80.63 1440.42,-82.43 1439.26,-75.52"/>
</g>
<!-- Metamodel::ClassHOW&#45;&gt;Any -->
<g id="edge2" class="edge">
<title>Metamodel::ClassHOW&#45;&gt;Any</title>
<path fill="none" stroke="#000000" d="M2907.52,-24.63C2560.96,-37.38 1541.2,-74.89 1541.2,-74.89 1541.2,-74.89 1539.17,-75.85 1536.03,-77.34"/>
<polygon fill="#000000" stroke="#000000" points="1534.7,-74.09 1527.15,-81.53 1537.69,-80.42 1534.7,-74.09"/>
</g>
<!-- Metamodel::ClassHOW&#45;&gt;Metamodel::Naming -->
<g id="edge4" class="edge">
<title>Metamodel::ClassHOW&#45;&gt;Metamodel::Naming</title>
<path fill="none" stroke="#6666ff" d="M2908.62,-25.35C2601.36,-38.73 1771.2,-74.89 1771.2,-74.89 1771.2,-74.89 1760.3,-76.64 1745.21,-79.06"/>
<polygon fill="#6666ff" stroke="#6666ff" points="1744.99,-75.55 1735.67,-80.59 1746.1,-82.46 1744.99,-75.55"/>
</g>
<!-- Metamodel::ClassHOW&#45;&gt;Metamodel::Documenting -->
<g id="edge5" class="edge">
<title>Metamodel::ClassHOW&#45;&gt;Metamodel::Documenting</title>
<path fill="none" stroke="#6666ff" d="M3131.08,-26.66C3383.5,-40.95 3983.2,-74.89 3983.2,-74.89 3983.2,-74.89 3997.51,-76.74 4017.09,-79.26"/>
<polygon fill="#6666ff" stroke="#6666ff" points="4016.58,-82.73 4026.94,-80.53 4017.47,-75.78 4016.58,-82.73"/>
</g>
<!-- Metamodel::ClassHOW&#45;&gt;Metamodel::Versioning -->
<g id="edge6" class="edge">
<title>Metamodel::ClassHOW&#45;&gt;Metamodel::Versioning</title>
<path fill="none" stroke="#6666ff" d="M3133.6,-25.35C3440.36,-38.73 4269.2,-74.89 4269.2,-74.89 4269.2,-74.89 4281.77,-76.69 4299.06,-79.16"/>
<polygon fill="#6666ff" stroke="#6666ff" points="4298.48,-82.61 4308.87,-80.56 4299.47,-75.68 4298.48,-82.61"/>
</g>
<!-- Metamodel::ClassHOW&#45;&gt;Metamodel::Stashing -->
<g id="edge7" class="edge">
<title>Metamodel::ClassHOW&#45;&gt;Metamodel::Stashing</title>
<path fill="none" stroke="#6666ff" d="M2910.97,-26.38C2648.68,-40.49 2009.2,-74.89 2009.2,-74.89 2009.2,-74.89 1997.7,-76.67 1981.85,-79.13"/>
<polygon fill="#6666ff" stroke="#6666ff" points="1981.73,-75.61 1972.39,-80.6 1982.8,-82.52 1981.73,-75.61"/>
</g>
<!-- Metamodel::ClassHOW&#45;&gt;Metamodel::AttributeContainer -->
<g id="edge8" class="edge">
<title>Metamodel::ClassHOW&#45;&gt;Metamodel::AttributeContainer</title>
<path fill="none" stroke="#6666ff" d="M2917.42,-28.8C2727.93,-44.07 2345.2,-74.89 2345.2,-74.89 2345.2,-74.89 2327.62,-76.82 2303.83,-79.43"/>
<polygon fill="#6666ff" stroke="#6666ff" points="2303.57,-75.94 2294.01,-80.51 2304.33,-82.9 2303.57,-75.94"/>
</g>
<!-- Metamodel::ClassHOW&#45;&gt;Metamodel::Finalization -->
<g id="edge9" class="edge">
<title>Metamodel::ClassHOW&#45;&gt;Metamodel::Finalization</title>
<path fill="none" stroke="#6666ff" d="M3135.01,-24.56C3485.85,-37.24 4527.2,-74.89 4527.2,-74.89 4527.2,-74.89 4540.17,-76.7 4557.98,-79.19"/>
<polygon fill="#6666ff" stroke="#6666ff" points="4557.08,-82.6 4567.46,-80.52 4558.05,-75.67 4557.08,-82.6"/>
</g>
<!-- Metamodel::ClassHOW&#45;&gt;Metamodel::MethodContainer -->
<g id="edge10" class="edge">
<title>Metamodel::ClassHOW&#45;&gt;Metamodel::MethodContainer</title>
<path fill="none" stroke="#6666ff" d="M2934,-32.81C2846.89,-45.16 2712.67,-64.2 2618.05,-77.62"/>
<polygon fill="#6666ff" stroke="#6666ff" points="2617.62,-74.14 2608.21,-79.01 2618.6,-81.07 2617.62,-74.14"/>
</g>
<!-- Metamodel::ClassHOW&#45;&gt;Metamodel::PrivateMethodContainer -->
<g id="edge11" class="edge">
<title>Metamodel::ClassHOW&#45;&gt;Metamodel::PrivateMethodContainer</title>
<path fill="none" stroke="#6666ff" d="M3135.97,-23.98C3528.19,-36.04 4791.2,-74.89 4791.2,-74.89 4791.2,-74.89 4811.8,-76.85 4839.58,-79.49"/>
<polygon fill="#6666ff" stroke="#6666ff" points="4839.19,-82.97 4849.48,-80.43 4839.86,-76 4839.19,-82.97"/>
</g>
<!-- Metamodel::ClassHOW&#45;&gt;Metamodel::MultiMethodContainer -->
<g id="edge12" class="edge">
<title>Metamodel::ClassHOW&#45;&gt;Metamodel::MultiMethodContainer</title>
<path fill="none" stroke="#6666ff" d="M2981.01,-38.09C2958.86,-47.82 2931.11,-60 2907.31,-70.45"/>
<polygon fill="#6666ff" stroke="#6666ff" points="2906.17,-67.13 2898.42,-74.36 2908.99,-73.54 2906.17,-67.13"/>
</g>
<!-- Metamodel::ClassHOW&#45;&gt;Metamodel::RoleContainer -->
<g id="edge13" class="edge">
<title>Metamodel::ClassHOW&#45;&gt;Metamodel::RoleContainer</title>
<path fill="none" stroke="#6666ff" d="M3061.38,-38.09C3083.78,-47.93 3111.91,-60.28 3135.89,-70.81"/>
<polygon fill="#6666ff" stroke="#6666ff" points="3134.28,-73.92 3144.84,-74.74 3137.1,-67.51 3134.28,-73.92"/>
</g>
<!-- Metamodel::ClassHOW&#45;&gt;Metamodel::MultipleInheritance -->
<g id="edge14" class="edge">
<title>Metamodel::ClassHOW&#45;&gt;Metamodel::MultipleInheritance</title>
<path fill="none" stroke="#6666ff" d="M3136.46,-23.35C3583.65,-34.64 5179.2,-74.89 5179.2,-74.89 5179.2,-74.89 5197.17,-76.82 5221.5,-79.43"/>
<polygon fill="#6666ff" stroke="#6666ff" points="5220.86,-82.88 5231.17,-80.46 5221.6,-75.92 5220.86,-82.88"/>
</g>
<!-- Metamodel::ClassHOW&#45;&gt;Metamodel::DefaultParent -->
<g id="edge15" class="edge">
<title>Metamodel::ClassHOW&#45;&gt;Metamodel::DefaultParent</title>
<path fill="none" stroke="#6666ff" d="M3136.86,-22.96C3628.92,-33.67 5523.2,-74.89 5523.2,-74.89 5523.2,-74.89 5537.75,-76.75 5557.6,-79.3"/>
<polygon fill="#6666ff" stroke="#6666ff" points="5556.9,-82.74 5567.26,-80.53 5557.78,-75.79 5556.9,-82.74"/>
</g>
<!-- Metamodel::ClassHOW&#45;&gt;Metamodel::C3MRO -->
<g id="edge16" class="edge">
<title>Metamodel::ClassHOW&#45;&gt;Metamodel::C3MRO</title>
<path fill="none" stroke="#6666ff" d="M3137.09,-22.71C3664.36,-33 5811.2,-74.89 5811.2,-74.89 5811.2,-74.89 5822,-76.64 5836.96,-79.06"/>
<polygon fill="#6666ff" stroke="#6666ff" points="5835.97,-82.44 5846.4,-80.59 5837.09,-75.53 5835.97,-82.44"/>
</g>
<!-- Metamodel::ClassHOW&#45;&gt;Metamodel::MROBasedMethodDispatch -->
<g id="edge17" class="edge">
<title>Metamodel::ClassHOW&#45;&gt;Metamodel::MROBasedMethodDispatch</title>
<path fill="none" stroke="#6666ff" d="M3108.82,-32.73C3194.02,-44.67 3324.16,-62.91 3419.41,-76.26"/>
<polygon fill="#6666ff" stroke="#6666ff" points="3418.67,-79.69 3429.05,-77.62 3419.64,-72.76 3418.67,-79.69"/>
</g>
<!-- Metamodel::ClassHOW&#45;&gt;Metamodel::MROBasedTypeChecking -->
<g id="edge18" class="edge">
<title>Metamodel::ClassHOW&#45;&gt;Metamodel::MROBasedTypeChecking</title>
<path fill="none" stroke="#6666ff" d="M2905.42,-23.08C2427,-33.97 629.2,-74.89 629.2,-74.89 629.2,-74.89 608.2,-76.87 579.95,-79.53"/>
<polygon fill="#6666ff" stroke="#6666ff" points="579.93,-76.01 570.3,-80.43 580.58,-82.98 579.93,-76.01"/>
</g>
<!-- Metamodel::ClassHOW&#45;&gt;Metamodel::Trusting -->
<g id="edge19" class="edge">
<title>Metamodel::ClassHOW&#45;&gt;Metamodel::Trusting</title>
<path fill="none" stroke="#6666ff" d="M3126.67,-28.33C3328.42,-43.42 3749.2,-74.89 3749.2,-74.89 3749.2,-74.89 3760.17,-76.62 3775.4,-79.02"/>
<polygon fill="#6666ff" stroke="#6666ff" points="3774.62,-82.44 3785.04,-80.54 3775.71,-75.53 3774.62,-82.44"/>
</g>
<!-- Metamodel::ClassHOW&#45;&gt;Metamodel::BUILDPLAN -->
<g id="edge20" class="edge">
<title>Metamodel::ClassHOW&#45;&gt;Metamodel::BUILDPLAN</title>
<path fill="none" stroke="#6666ff" d="M2905.76,-23.4C2462.63,-34.75 895.2,-74.89 895.2,-74.89 895.2,-74.89 882.25,-76.69 864.43,-79.16"/>
<polygon fill="#6666ff" stroke="#6666ff" points="864.04,-75.68 854.61,-80.52 865,-82.61 864.04,-75.68"/>
</g>
<!-- Metamodel::ClassHOW&#45;&gt;Metamodel::BoolificationProtocol -->
<g id="edge22" class="edge">
<title>Metamodel::ClassHOW&#45;&gt;Metamodel::BoolificationProtocol</title>
<path fill="none" stroke="#6666ff" d="M2906.72,-23.95C2513.95,-36 1245.2,-74.89 1245.2,-74.89 1245.2,-74.89 1226.91,-76.82 1202.16,-79.43"/>
<polygon fill="#6666ff" stroke="#6666ff" points="1201.87,-75.94 1192.29,-80.47 1202.6,-82.9 1201.87,-75.94"/>
</g>
<!-- Metamodel::BaseType -->
<g id="node23" class="node">
<title>Metamodel::BaseType</title>
<g id="a_node23"><a xlink:href="/type/Metamodel::BaseType" xlink:title="Metamodel::BaseType">
<ellipse fill="none" stroke="#6666ff" cx="114.2" cy="-94.34" rx="114.2" ry="19.45"/>
<text xml:space="preserve" text-anchor="middle" x="114.2" y="-90.79" font-family="FreeSans" font-size="14.00" fill="#6666ff">Metamodel::BaseType</text>
</a>
</g>
</g>
<!-- Metamodel::EnumHOW -->
<g id="node24" class="node">
<title>Metamodel::EnumHOW</title>
<g id="a_node24"><a xlink:href="/type/Metamodel::EnumHOW" xlink:title="Metamodel::EnumHOW">
<ellipse fill="none" stroke="#000000" cx="1656.2" cy="-19.45" rx="120.56" ry="19.45"/>
<text xml:space="preserve" text-anchor="middle" x="1656.2" y="-15.9" font-family="FreeSans" font-size="14.00" fill="#000000">Metamodel::EnumHOW</text>
</a>
</g>
</g>
<!-- Metamodel::EnumHOW&#45;&gt;Metamodel::Mixins -->
<g id="edge34" class="edge">
<title>Metamodel::EnumHOW&#45;&gt;Metamodel::Mixins</title>
<path fill="none" stroke="#6666ff" d="M1591.04,-36.17C1542.6,-47.86 1476.51,-63.82 1426.45,-75.9"/>
<polygon fill="#6666ff" stroke="#6666ff" points="1425.75,-72.47 1416.85,-78.21 1427.39,-79.27 1425.75,-72.47"/>
</g>
<!-- Metamodel::EnumHOW&#45;&gt;Any -->
<g id="edge3" class="edge">
<title>Metamodel::EnumHOW&#45;&gt;Any</title>
<path fill="none" stroke="#000000" d="M1618.53,-38.28C1593.24,-50.25 1560.22,-65.88 1535.82,-77.42"/>
<polygon fill="#000000" stroke="#000000" points="1534.52,-74.17 1526.97,-81.61 1537.51,-80.49 1534.52,-74.17"/>
</g>
<!-- Metamodel::EnumHOW&#45;&gt;Metamodel::Naming -->
<g id="edge23" class="edge">
<title>Metamodel::EnumHOW&#45;&gt;Metamodel::Naming</title>
<path fill="none" stroke="#6666ff" d="M1656.2,-39.22C1656.2,-46.53 1656.2,-55.09 1656.2,-63.22"/>
<polygon fill="#6666ff" stroke="#6666ff" points="1652.7,-63.12 1656.2,-73.12 1659.7,-63.12 1652.7,-63.12"/>
</g>
<!-- Metamodel::EnumHOW&#45;&gt;Metamodel::Stashing -->
<g id="edge24" class="edge">
<title>Metamodel::EnumHOW&#45;&gt;Metamodel::Stashing</title>
<path fill="none" stroke="#6666ff" d="M1710.18,-37.26C1744.94,-48.09 1790.29,-62.21 1826.77,-73.58"/>
<polygon fill="#6666ff" stroke="#6666ff" points="1825.26,-76.78 1835.85,-76.41 1827.35,-70.09 1825.26,-76.78"/>
</g>
<!-- Metamodel::EnumHOW&#45;&gt;Metamodel::AttributeContainer -->
<g id="edge25" class="edge">
<title>Metamodel::EnumHOW&#45;&gt;Metamodel::AttributeContainer</title>
<path fill="none" stroke="#6666ff" d="M1745.17,-32.89C1833.23,-45.21 1968.37,-64.12 2064.03,-77.5"/>
<polygon fill="#6666ff" stroke="#6666ff" points="2063.31,-80.94 2073.7,-78.86 2064.28,-74 2063.31,-80.94"/>
</g>
<!-- Metamodel::EnumHOW&#45;&gt;Metamodel::MethodContainer -->
<g id="edge26" class="edge">
<title>Metamodel::EnumHOW&#45;&gt;Metamodel::MethodContainer</title>
<path fill="none" stroke="#6666ff" d="M1762.72,-28.86C1956.12,-44.15 2345.2,-74.89 2345.2,-74.89 2345.2,-74.89 2362,-76.8 2384.78,-79.4"/>
<polygon fill="#6666ff" stroke="#6666ff" points="2384.18,-82.85 2394.51,-80.51 2384.97,-75.9 2384.18,-82.85"/>
</g>
<!-- Metamodel::EnumHOW&#45;&gt;Metamodel::MultiMethodContainer -->
<g id="edge27" class="edge">
<title>Metamodel::EnumHOW&#45;&gt;Metamodel::MultiMethodContainer</title>
<path fill="none" stroke="#6666ff" d="M1768.96,-26.51C2033.01,-40.7 2669.2,-74.89 2669.2,-74.89 2669.2,-74.89 2688.78,-76.83 2715.23,-79.46"/>
<polygon fill="#6666ff" stroke="#6666ff" points="2714.72,-82.92 2725.02,-80.43 2715.41,-75.96 2714.72,-82.92"/>
</g>
<!-- Metamodel::EnumHOW&#45;&gt;Metamodel::RoleContainer -->
<g id="edge28" class="edge">
<title>Metamodel::EnumHOW&#45;&gt;Metamodel::RoleContainer</title>
<path fill="none" stroke="#6666ff" d="M1772.2,-25.01C2105.33,-38.1 3041.2,-74.89 3041.2,-74.89 3041.2,-74.89 3055.95,-76.75 3076.08,-79.3"/>
<polygon fill="#6666ff" stroke="#6666ff" points="3075.53,-82.76 3085.89,-80.54 3076.41,-75.81 3075.53,-82.76"/>
</g>
<!-- Metamodel::EnumHOW&#45;&gt;Metamodel::MROBasedMethodDispatch -->
<g id="edge30" class="edge">
<title>Metamodel::EnumHOW&#45;&gt;Metamodel::MROBasedMethodDispatch</title>
<path fill="none" stroke="#6666ff" d="M1773.45,-24.25C2154.47,-36.62 3333.2,-74.89 3333.2,-74.89 3333.2,-74.89 3355.68,-76.88 3385.86,-79.56"/>
<polygon fill="#6666ff" stroke="#6666ff" points="3385.52,-83.04 3395.79,-80.44 3386.14,-76.07 3385.52,-83.04"/>
</g>
<!-- Metamodel::EnumHOW&#45;&gt;Metamodel::MROBasedTypeChecking -->
<g id="edge31" class="edge">
<title>Metamodel::EnumHOW&#45;&gt;Metamodel::MROBasedTypeChecking</title>
<path fill="none" stroke="#6666ff" d="M1542.86,-26.45C1275.77,-40.61 629.2,-74.89 629.2,-74.89 629.2,-74.89 608.2,-76.87 579.95,-79.53"/>
<polygon fill="#6666ff" stroke="#6666ff" points="579.93,-76.01 570.3,-80.43 580.58,-82.98 579.93,-76.01"/>
</g>
<!-- Metamodel::EnumHOW&#45;&gt;Metamodel::BUILDPLAN -->
<g id="edge32" class="edge">
<title>Metamodel::EnumHOW&#45;&gt;Metamodel::BUILDPLAN</title>
<path fill="none" stroke="#6666ff" d="M1547.57,-28.22C1337.31,-43.26 895.2,-74.89 895.2,-74.89 895.2,-74.89 882.25,-76.69 864.43,-79.16"/>
<polygon fill="#6666ff" stroke="#6666ff" points="864.04,-75.68 854.61,-80.52 865,-82.61 864.04,-75.68"/>
</g>
<!-- Metamodel::EnumHOW&#45;&gt;Metamodel::BoolificationProtocol -->
<g id="edge33" class="edge">
<title>Metamodel::EnumHOW&#45;&gt;Metamodel::BoolificationProtocol</title>
<path fill="none" stroke="#6666ff" d="M1562.7,-32.08C1462.34,-44.56 1302.51,-64.44 1192.29,-78.15"/>
<polygon fill="#6666ff" stroke="#6666ff" points="1192.11,-74.65 1182.62,-79.35 1192.97,-81.59 1192.11,-74.65"/>
</g>
<!-- Metamodel::EnumHOW&#45;&gt;Metamodel::BaseType -->
<g id="edge29" class="edge">
<title>Metamodel::EnumHOW&#45;&gt;Metamodel::BaseType</title>
<path fill="none" stroke="#6666ff" d="M1539.77,-24.91C1200.61,-37.93 237.2,-74.89 237.2,-74.89 237.2,-74.89 225.44,-76.65 209.19,-79.09"/>
<polygon fill="#6666ff" stroke="#6666ff" points="208.81,-75.61 199.44,-80.55 209.85,-82.53 208.81,-75.61"/>
</g>
</g>
</svg>
