<?xml version="1.0" encoding="UTF-8" standalone="no"?>
<!DOCTYPE svg PUBLIC "-//W3C//DTD SVG 1.1//EN"
 "http://www.w3.org/Graphics/SVG/1.1/DTD/svg11.dtd">
<!-- Generated by graphviz version 14.1.2 (0)
 -->
<!-- Title: raku&#45;type&#45;graph Pages: 1 -->
<svg width="180pt" height="496pt"
 viewBox="0.00 0.00 180.00 496.00" xmlns="http://www.w3.org/2000/svg" xmlns:xlink="http://www.w3.org/1999/xlink">
<g id="graph0" class="graph" transform="scale(1 1) rotate(0) translate(4 492.24)">
<title>raku&#45;type&#45;graph</title>
<polygon fill="#ffffff" stroke="none" points="-4,4 -4,-492.24 176.25,-492.24 176.25,4 -4,4"/>
<!-- Method -->
<g id="node1" class="node">
<title>Method</title>
<g id="a_node1"><a xlink:href="/type/Method" xlink:title="Method">
<ellipse fill="none" stroke="#000000" cx="76.34" cy="-94.34" rx="47.91" ry="19.45"/>
<text xml:space="preserve" text-anchor="middle" x="76.34" y="-90.79" font-family="FreeSans" font-size="14.00" fill="#000000">Method</text>
</a>
</g>
</g>
<!-- Routine -->
<g id="node7" class="node">
<title>Routine</title>
<g id="a_node7"><a xlink:href="/type/Routine" xlink:title="Routine">
<ellipse fill="none" stroke="#000000" cx="76.34" cy="-169.23" rx="48.44" ry="19.45"/>
<text xml:space="preserve" text-anchor="middle" x="76.34" y="-165.68" font-family="FreeSans" font-size="14.00" fill="#000000">Routine</text>
</a>
</g>
</g>
<!-- Method&#45;&gt;Routine -->
<g id="edge1" class="edge">
<title>Method&#45;&gt;Routine</title>
<path fill="none" stroke="#000000" d="M76.34,-114.11C76.34,-121.42 76.34,-129.98 76.34,-138.11"/>
<polygon fill="#000000" stroke="#000000" points="72.85,-138.01 76.34,-148.01 79.85,-138.01 72.85,-138.01"/>
</g>
<!-- Mu -->
<g id="node2" class="node">
<title>Mu</title>
<g id="a_node2"><a xlink:href="/type/Mu" xlink:title="Mu">
<ellipse fill="none" stroke="#000000" cx="29.34" cy="-468.79" rx="27" ry="19.45"/>
<text xml:space="preserve" text-anchor="middle" x="29.34" y="-465.24" font-family="FreeSans" font-size="14.00" fill="#000000">Mu</text>
</a>
</g>
</g>
<!-- Any -->
<g id="node3" class="node">
<title>Any</title>
<g id="a_node3"><a xlink:href="/type/Any" xlink:title="Any">
<ellipse fill="none" stroke="#000000" cx="29.34" cy="-393.9" rx="29.34" ry="19.45"/>
<text xml:space="preserve" text-anchor="middle" x="29.34" y="-390.35" font-family="FreeSans" font-size="14.00" fill="#000000">Any</text>
</a>
</g>
</g>
<!-- Any&#45;&gt;Mu -->
<g id="edge2" class="edge">
<title>Any&#45;&gt;Mu</title>
<path fill="none" stroke="#000000" d="M29.34,-413.67C29.34,-420.98 29.34,-429.55 29.34,-437.68"/>
<polygon fill="#000000" stroke="#000000" points="25.85,-437.57 29.34,-447.57 32.85,-437.57 25.85,-437.57"/>
</g>
<!-- Callable -->
<g id="node4" class="node">
<title>Callable</title>
<g id="a_node4"><a xlink:href="/type/Callable" xlink:title="Callable">
<ellipse fill="none" stroke="#6666ff" cx="124.34" cy="-393.9" rx="47.91" ry="19.45"/>
<text xml:space="preserve" text-anchor="middle" x="124.34" y="-390.35" font-family="FreeSans" font-size="14.00" fill="#6666ff">Callable</text>
</a>
</g>
</g>
<!-- Code -->
<g id="node5" class="node">
<title>Code</title>
<g id="a_node5"><a xlink:href="/type/Code" xlink:title="Code">
<ellipse fill="none" stroke="#000000" cx="76.34" cy="-319.01" rx="35.18" ry="19.45"/>
<text xml:space="preserve" text-anchor="middle" x="76.34" y="-315.46" font-family="FreeSans" font-size="14.00" fill="#000000">Code</text>
</a>
</g>
</g>
<!-- Code&#45;&gt;Any -->
<g id="edge3" class="edge">
<title>Code&#45;&gt;Any</title>
<path fill="none" stroke="#000000" d="M64.97,-337.65C59.4,-346.28 52.59,-356.85 46.42,-366.43"/>
<polygon fill="#000000" stroke="#000000" points="43.59,-364.35 41.11,-374.65 49.47,-368.14 43.59,-364.35"/>
</g>
<!-- Code&#45;&gt;Callable -->
<g id="edge7" class="edge">
<title>Code&#45;&gt;Callable</title>
<path fill="none" stroke="#6666ff" d="M87.96,-337.65C93.38,-345.88 99.96,-355.88 106.03,-365.09"/>
<polygon fill="#6666ff" stroke="#6666ff" points="103.08,-366.97 111.5,-373.39 108.92,-363.12 103.08,-366.97"/>
</g>
<!-- Block -->
<g id="node6" class="node">
<title>Block</title>
<g id="a_node6"><a xlink:href="/type/Block" xlink:title="Block">
<ellipse fill="none" stroke="#000000" cx="76.34" cy="-244.12" rx="36.24" ry="19.45"/>
<text xml:space="preserve" text-anchor="middle" x="76.34" y="-240.57" font-family="FreeSans" font-size="14.00" fill="#000000">Block</text>
</a>
</g>
</g>
<!-- Block&#45;&gt;Code -->
<g id="edge4" class="edge">
<title>Block&#45;&gt;Code</title>
<path fill="none" stroke="#000000" d="M76.34,-263.89C76.34,-271.2 76.34,-279.77 76.34,-287.9"/>
<polygon fill="#000000" stroke="#000000" points="72.85,-287.79 76.34,-297.79 79.85,-287.79 72.85,-287.79"/>
</g>
<!-- Routine&#45;&gt;Block -->
<g id="edge5" class="edge">
<title>Routine&#45;&gt;Block</title>
<path fill="none" stroke="#000000" d="M76.34,-189C76.34,-196.31 76.34,-204.87 76.34,-213.01"/>
<polygon fill="#000000" stroke="#000000" points="72.85,-212.9 76.34,-222.9 79.85,-212.9 72.85,-212.9"/>
</g>
<!-- Regex -->
<g id="node8" class="node">
<title>Regex</title>
<g id="a_node8"><a xlink:href="/type/Regex" xlink:title="Regex">
<ellipse fill="none" stroke="#000000" cx="76.34" cy="-19.45" rx="39.95" ry="19.45"/>
<text xml:space="preserve" text-anchor="middle" x="76.34" y="-15.9" font-family="FreeSans" font-size="14.00" fill="#000000">Regex</text>
</a>
</g>
</g>
<!-- Regex&#45;&gt;Method -->
<g id="edge6" class="edge">
<title>Regex&#45;&gt;Method</title>
<path fill="none" stroke="#000000" d="M76.34,-39.22C76.34,-46.53 76.34,-55.09 76.34,-63.22"/>
<polygon fill="#000000" stroke="#000000" points="72.85,-63.12 76.34,-73.12 79.85,-63.12 72.85,-63.12"/>
</g>
</g>
</svg>
