<?xml version="1.0" encoding="UTF-8" standalone="no"?>
<!DOCTYPE svg PUBLIC "-//W3C//DTD SVG 1.1//EN"
 "http://www.w3.org/Graphics/SVG/1.1/DTD/svg11.dtd">
<!-- Generated by graphviz version 14.1.2 (0)
 -->
<!-- Title: raku&#45;type&#45;graph Pages: 1 -->
<svg width="71pt" height="197pt"
 viewBox="0.00 0.00 71.00 197.00" xmlns="http://www.w3.org/2000/svg" xmlns:xlink="http://www.w3.org/1999/xlink">
<g id="graph0" class="graph" transform="scale(1 1) rotate(0) translate(4 192.67)">
<title>raku&#45;type&#45;graph</title>
<polygon fill="#ffffff" stroke="none" points="-4,4 -4,-192.67 66.93,-192.67 66.93,4 -4,4"/>
<!-- Proc -->
<g id="node1" class="node">
<title>Proc</title>
<g id="a_node1"><a xlink:href="/type/Proc" xlink:title="Proc">
<ellipse fill="none" stroke="#000000" cx="31.47" cy="-19.45" rx="31.47" ry="19.45"/>
<text xml:space="preserve" text-anchor="middle" x="31.47" y="-15.9" font-family="FreeSans" font-size="14.00" fill="#000000">Proc</text>
</a>
</g>
</g>
<!-- Any -->
<g id="node3" class="node">
<title>Any</title>
<g id="a_node3"><a xlink:href="/type/Any" xlink:title="Any">
<ellipse fill="none" stroke="#000000" cx="31.47" cy="-94.34" rx="29.34" ry="19.45"/>
<text xml:space="preserve" text-anchor="middle" x="31.47" y="-90.79" font-family="FreeSans" font-size="14.00" fill="#000000">Any</text>
</a>
</g>
</g>
<!-- Proc&#45;&gt;Any -->
<g id="edge1" class="edge">
<title>Proc&#45;&gt;Any</title>
<path fill="none" stroke="#000000" d="M31.47,-39.22C31.47,-46.53 31.47,-55.09 31.47,-63.22"/>
<polygon fill="#000000" stroke="#000000" points="27.97,-63.12 31.47,-73.12 34.97,-63.12 27.97,-63.12"/>
</g>
<!-- Mu -->
<g id="node2" class="node">
<title>Mu</title>
<g id="a_node2"><a xlink:href="/type/Mu" xlink:title="Mu">
<ellipse fill="none" stroke="#000000" cx="31.47" cy="-169.23" rx="27" ry="19.45"/>
<text xml:space="preserve" text-anchor="middle" x="31.47" y="-165.68" font-family="FreeSans" font-size="14.00" fill="#000000">Mu</text>
</a>
</g>
</g>
<!-- Any&#45;&gt;Mu -->
<g id="edge2" class="edge">
<title>Any&#45;&gt;Mu</title>
<path fill="none" stroke="#000000" d="M31.47,-114.11C31.47,-121.42 31.47,-129.98 31.47,-138.11"/>
<polygon fill="#000000" stroke="#000000" points="27.97,-138.01 31.47,-148.01 34.97,-138.01 27.97,-138.01"/>
</g>
</g>
</svg>
