<?xml version="1.0" encoding="UTF-8" standalone="no"?>
<!DOCTYPE svg PUBLIC "-//W3C//DTD SVG 1.1//EN"
 "http://www.w3.org/Graphics/SVG/1.1/DTD/svg11.dtd">
<!-- Generated by graphviz version 14.1.2 (0)
 -->
<!-- Title: raku&#45;type&#45;graph Pages: 1 -->
<svg width="312pt" height="197pt"
 viewBox="0.00 0.00 312.00 197.00" xmlns="http://www.w3.org/2000/svg" xmlns:xlink="http://www.w3.org/1999/xlink">
<g id="graph0" class="graph" transform="scale(1 1) rotate(0) translate(4 192.67)">
<title>raku&#45;type&#45;graph</title>
<polygon fill="#ffffff" stroke="none" points="-4,4 -4,-192.67 307.7,-192.67 307.7,4 -4,4"/>
<!-- Telemetry::Instrument::Usage -->
<g id="node1" class="node">
<title>Telemetry::Instrument::Usage</title>
<g id="a_node1"><a xlink:href="/type/Telemetry::Instrument::Usage" xlink:title="Telemetry::Instrument::Usage">
<ellipse fill="none" stroke="#000000" cx="151.85" cy="-19.45" rx="151.85" ry="19.45"/>
<text xml:space="preserve" text-anchor="middle" x="151.85" y="-15.9" font-family="FreeSans" font-size="14.00" fill="#000000">Telemetry::Instrument::Usage</text>
</a>
</g>
</g>
<!-- Any -->
<g id="node3" class="node">
<title>Any</title>
<g id="a_node3"><a xlink:href="/type/Any" xlink:title="Any">
<ellipse fill="none" stroke="#000000" cx="151.85" cy="-94.34" rx="29.34" ry="19.45"/>
<text xml:space="preserve" text-anchor="middle" x="151.85" y="-90.79" font-family="FreeSans" font-size="14.00" fill="#000000">Any</text>
</a>
</g>
</g>
<!-- Telemetry::Instrument::Usage&#45;&gt;Any -->
<g id="edge1" class="edge">
<title>Telemetry::Instrument::Usage&#45;&gt;Any</title>
<path fill="none" stroke="#000000" d="M151.85,-39.22C151.85,-46.53 151.85,-55.09 151.85,-63.22"/>
<polygon fill="#000000" stroke="#000000" points="148.35,-63.12 151.85,-73.12 155.35,-63.12 148.35,-63.12"/>
</g>
<!-- Mu -->
<g id="node2" class="node">
<title>Mu</title>
<g id="a_node2"><a xlink:href="/type/Mu" xlink:title="Mu">
<ellipse fill="none" stroke="#000000" cx="151.85" cy="-169.23" rx="27" ry="19.45"/>
<text xml:space="preserve" text-anchor="middle" x="151.85" y="-165.68" font-family="FreeSans" font-size="14.00" fill="#000000">Mu</text>
</a>
</g>
</g>
<!-- Any&#45;&gt;Mu -->
<g id="edge2" class="edge">
<title>Any&#45;&gt;Mu</title>
<path fill="none" stroke="#000000" d="M151.85,-114.11C151.85,-121.42 151.85,-129.98 151.85,-138.11"/>
<polygon fill="#000000" stroke="#000000" points="148.35,-138.01 151.85,-148.01 155.35,-138.01 148.35,-138.01"/>
</g>
</g>
</svg>
