<?xml version="1.0" encoding="UTF-8" standalone="no"?>
<!DOCTYPE svg PUBLIC "-//W3C//DTD SVG 1.1//EN"
 "http://www.w3.org/Graphics/SVG/1.1/DTD/svg11.dtd">
<!-- Generated by graphviz version 14.1.2 (0)
 -->
<!-- Title: raku&#45;type&#45;graph Pages: 1 -->
<svg width="225pt" height="346pt"
 viewBox="0.00 0.00 225.00 346.00" xmlns="http://www.w3.org/2000/svg" xmlns:xlink="http://www.w3.org/1999/xlink">
<g id="graph0" class="graph" transform="scale(1 1) rotate(0) translate(4 342.45)">
<title>raku&#45;type&#45;graph</title>
<polygon fill="#ffffff" stroke="none" points="-4,4 -4,-342.45 220.73,-342.45 220.73,4 -4,4"/>
<!-- X::Attribute::Package -->
<g id="node1" class="node">
<title>X::Attribute::Package</title>
<g id="a_node1"><a xlink:href="/type/X::Attribute::Package" xlink:title="X::Attribute::Package">
<ellipse fill="none" stroke="#000000" cx="108.36" cy="-19.45" rx="108.36" ry="19.45"/>
<text xml:space="preserve" text-anchor="middle" x="108.36" y="-15.9" font-family="FreeSans" font-size="14.00" fill="#000000">X::Attribute::Package</text>
</a>
</g>
</g>
<!-- Exception -->
<g id="node4" class="node">
<title>Exception</title>
<g id="a_node4"><a xlink:href="/type/Exception" xlink:title="Exception">
<ellipse fill="none" stroke="#000000" cx="108.36" cy="-169.23" rx="56.92" ry="19.45"/>
<text xml:space="preserve" text-anchor="middle" x="108.36" y="-165.68" font-family="FreeSans" font-size="14.00" fill="#000000">Exception</text>
</a>
</g>
</g>
<!-- X::Attribute::Package&#45;&gt;Exception -->
<g id="edge1" class="edge">
<title>X::Attribute::Package&#45;&gt;Exception</title>
<path fill="none" stroke="#000000" d="M101.83,-39.18C96.33,-54.93 89.36,-74.89 89.36,-74.89 89.36,-74.89 89.36,-113.78 89.36,-113.78 89.36,-113.78 93.62,-125.96 98.1,-138.8"/>
<polygon fill="#000000" stroke="#000000" points="94.73,-139.77 101.33,-148.06 101.34,-137.47 94.73,-139.77"/>
</g>
<!-- X::Comp -->
<g id="node5" class="node">
<title>X::Comp</title>
<g id="a_node5"><a xlink:href="/type/X::Comp" xlink:title="X::Comp">
<ellipse fill="none" stroke="#6666ff" cx="147.36" cy="-94.34" rx="49.5" ry="19.45"/>
<text xml:space="preserve" text-anchor="middle" x="147.36" y="-90.79" font-family="FreeSans" font-size="14.00" fill="#6666ff">X::Comp</text>
</a>
</g>
</g>
<!-- X::Attribute::Package&#45;&gt;X::Comp -->
<g id="edge5" class="edge">
<title>X::Attribute::Package&#45;&gt;X::Comp</title>
<path fill="none" stroke="#6666ff" d="M118.41,-39.22C122.58,-47.01 127.51,-56.23 132.11,-64.84"/>
<polygon fill="#6666ff" stroke="#6666ff" points="128.97,-66.38 136.78,-73.55 135.14,-63.08 128.97,-66.38"/>
</g>
<!-- Mu -->
<g id="node2" class="node">
<title>Mu</title>
<g id="a_node2"><a xlink:href="/type/Mu" xlink:title="Mu">
<ellipse fill="none" stroke="#000000" cx="108.36" cy="-319.01" rx="27" ry="19.45"/>
<text xml:space="preserve" text-anchor="middle" x="108.36" y="-315.46" font-family="FreeSans" font-size="14.00" fill="#000000">Mu</text>
</a>
</g>
</g>
<!-- Any -->
<g id="node3" class="node">
<title>Any</title>
<g id="a_node3"><a xlink:href="/type/Any" xlink:title="Any">
<ellipse fill="none" stroke="#000000" cx="108.36" cy="-244.12" rx="29.34" ry="19.45"/>
<text xml:space="preserve" text-anchor="middle" x="108.36" y="-240.57" font-family="FreeSans" font-size="14.00" fill="#000000">Any</text>
</a>
</g>
</g>
<!-- Any&#45;&gt;Mu -->
<g id="edge2" class="edge">
<title>Any&#45;&gt;Mu</title>
<path fill="none" stroke="#000000" d="M108.36,-263.89C108.36,-271.2 108.36,-279.77 108.36,-287.9"/>
<polygon fill="#000000" stroke="#000000" points="104.86,-287.79 108.36,-297.79 111.86,-287.79 104.86,-287.79"/>
</g>
<!-- Exception&#45;&gt;Any -->
<g id="edge3" class="edge">
<title>Exception&#45;&gt;Any</title>
<path fill="none" stroke="#000000" d="M108.36,-189C108.36,-196.31 108.36,-204.87 108.36,-213.01"/>
<polygon fill="#000000" stroke="#000000" points="104.86,-212.9 108.36,-222.9 111.86,-212.9 104.86,-212.9"/>
</g>
<!-- X::Comp&#45;&gt;Exception -->
<g id="edge4" class="edge">
<title>X::Comp&#45;&gt;Exception</title>
<path fill="none" stroke="#000000" d="M137.52,-113.73C133.35,-121.53 128.39,-130.8 123.76,-139.46"/>
<polygon fill="#000000" stroke="#000000" points="120.68,-137.78 119.05,-148.25 126.86,-141.09 120.68,-137.78"/>
</g>
</g>
</svg>
