<?xml version="1.0" encoding="UTF-8" standalone="no"?>
<!DOCTYPE svg PUBLIC "-//W3C//DTD SVG 1.1//EN"
 "http://www.w3.org/Graphics/SVG/1.1/DTD/svg11.dtd">
<!-- Generated by graphviz version 14.1.2 (0)
 -->
<!-- Title: raku&#45;type&#45;graph Pages: 1 -->
<svg width="734pt" height="421pt"
 viewBox="0.00 0.00 734.00 421.00" xmlns="http://www.w3.org/2000/svg" xmlns:xlink="http://www.w3.org/1999/xlink">
<g id="graph0" class="graph" transform="scale(1 1) rotate(0) translate(4 417.35)">
<title>raku&#45;type&#45;graph</title>
<polygon fill="#ffffff" stroke="none" points="-4,4 -4,-417.35 730.08,-417.35 730.08,4 -4,4"/>
<!-- X::Pod -->
<g id="node1" class="node">
<title>X::Pod</title>
<g id="a_node1"><a xlink:href="/type/X::Pod" xlink:title="X::Pod">
<ellipse fill="none" stroke="#6666ff" cx="336.03" cy="-94.34" rx="39.95" ry="19.45"/>
<text xml:space="preserve" text-anchor="middle" x="336.03" y="-90.79" font-family="FreeSans" font-size="14.00" fill="#6666ff">X::Pod</text>
</a>
</g>
</g>
<!-- Mu -->
<g id="node2" class="node">
<title>Mu</title>
<g id="a_node2"><a xlink:href="/type/Mu" xlink:title="Mu">
<ellipse fill="none" stroke="#000000" cx="445.03" cy="-393.9" rx="27" ry="19.45"/>
<text xml:space="preserve" text-anchor="middle" x="445.03" y="-390.35" font-family="FreeSans" font-size="14.00" fill="#000000">Mu</text>
</a>
</g>
</g>
<!-- Any -->
<g id="node3" class="node">
<title>Any</title>
<g id="a_node3"><a xlink:href="/type/Any" xlink:title="Any">
<ellipse fill="none" stroke="#000000" cx="445.03" cy="-319.01" rx="29.34" ry="19.45"/>
<text xml:space="preserve" text-anchor="middle" x="445.03" y="-315.46" font-family="FreeSans" font-size="14.00" fill="#000000">Any</text>
</a>
</g>
</g>
<!-- Any&#45;&gt;Mu -->
<g id="edge1" class="edge">
<title>Any&#45;&gt;Mu</title>
<path fill="none" stroke="#000000" d="M445.03,-338.78C445.03,-346.09 445.03,-354.66 445.03,-362.79"/>
<polygon fill="#000000" stroke="#000000" points="441.54,-362.68 445.03,-372.68 448.54,-362.68 441.54,-362.68"/>
</g>
<!-- Exception -->
<g id="node4" class="node">
<title>Exception</title>
<g id="a_node4"><a xlink:href="/type/Exception" xlink:title="Exception">
<ellipse fill="none" stroke="#000000" cx="445.03" cy="-244.12" rx="56.92" ry="19.45"/>
<text xml:space="preserve" text-anchor="middle" x="445.03" y="-240.57" font-family="FreeSans" font-size="14.00" fill="#000000">Exception</text>
</a>
</g>
</g>
<!-- Exception&#45;&gt;Any -->
<g id="edge2" class="edge">
<title>Exception&#45;&gt;Any</title>
<path fill="none" stroke="#000000" d="M445.03,-263.89C445.03,-271.2 445.03,-279.77 445.03,-287.9"/>
<polygon fill="#000000" stroke="#000000" points="441.54,-287.79 445.03,-297.79 448.54,-287.79 441.54,-287.79"/>
</g>
<!-- X::Comp -->
<g id="node5" class="node">
<title>X::Comp</title>
<g id="a_node5"><a xlink:href="/type/X::Comp" xlink:title="X::Comp">
<ellipse fill="none" stroke="#6666ff" cx="407.03" cy="-169.23" rx="49.5" ry="19.45"/>
<text xml:space="preserve" text-anchor="middle" x="407.03" y="-165.68" font-family="FreeSans" font-size="14.00" fill="#6666ff">X::Comp</text>
</a>
</g>
</g>
<!-- X::Comp&#45;&gt;Exception -->
<g id="edge3" class="edge">
<title>X::Comp&#45;&gt;Exception</title>
<path fill="none" stroke="#000000" d="M416.62,-188.62C420.69,-196.42 425.52,-205.69 430.04,-214.35"/>
<polygon fill="#000000" stroke="#000000" points="426.89,-215.89 434.62,-223.13 433.1,-212.65 426.89,-215.89"/>
</g>
<!-- X::Syntax -->
<g id="node6" class="node">
<title>X::Syntax</title>
<g id="a_node6"><a xlink:href="/type/X::Syntax" xlink:title="X::Syntax">
<ellipse fill="none" stroke="#6666ff" cx="459.03" cy="-94.34" rx="53.74" ry="19.45"/>
<text xml:space="preserve" text-anchor="middle" x="459.03" y="-90.79" font-family="FreeSans" font-size="14.00" fill="#6666ff">X::Syntax</text>
</a>
</g>
</g>
<!-- X::Syntax&#45;&gt;Exception -->
<g id="edge4" class="edge">
<title>X::Syntax&#45;&gt;Exception</title>
<path fill="none" stroke="#000000" d="M461.1,-114.07C462.84,-129.82 465.03,-149.78 465.03,-149.78 465.03,-149.78 465.03,-188.67 465.03,-188.67 465.03,-188.67 460.56,-200.85 455.84,-213.69"/>
<polygon fill="#000000" stroke="#000000" points="452.6,-212.37 452.44,-222.96 459.17,-214.78 452.6,-212.37"/>
</g>
<!-- X::Syntax&#45;&gt;X::Comp -->
<g id="edge9" class="edge">
<title>X::Syntax&#45;&gt;X::Comp</title>
<path fill="none" stroke="#6666ff" d="M446.18,-113.35C440.24,-121.68 433.06,-131.74 426.48,-140.96"/>
<polygon fill="#6666ff" stroke="#6666ff" points="423.76,-138.76 420.8,-148.93 429.46,-142.82 423.76,-138.76"/>
</g>
<!-- X::Syntax::Pod::BeginWithoutIdentifier -->
<g id="node7" class="node">
<title>X::Syntax::Pod::BeginWithoutIdentifier</title>
<g id="a_node7"><a xlink:href="/type/X::Syntax::Pod::BeginWithoutIdentifier" xlink:title="X::Syntax::Pod::BeginWithoutIdentifier">
<ellipse fill="none" stroke="#000000" cx="190.03" cy="-19.45" rx="190.03" ry="19.45"/>
<text xml:space="preserve" text-anchor="middle" x="190.03" y="-15.9" font-family="FreeSans" font-size="14.00" fill="#000000">X::Syntax::Pod::BeginWithoutIdentifier</text>
</a>
</g>
</g>
<!-- X::Syntax::Pod::BeginWithoutIdentifier&#45;&gt;X::Pod -->
<g id="edge11" class="edge">
<title>X::Syntax::Pod::BeginWithoutIdentifier&#45;&gt;X::Pod</title>
<path fill="none" stroke="#6666ff" d="M226.88,-38.84C248.9,-49.83 276.8,-63.76 298.88,-74.79"/>
<polygon fill="#6666ff" stroke="#6666ff" points="297.02,-77.77 307.53,-79.1 300.15,-71.51 297.02,-77.77"/>
</g>
<!-- X::Syntax::Pod::BeginWithoutIdentifier&#45;&gt;Exception -->
<g id="edge5" class="edge">
<title>X::Syntax::Pod::BeginWithoutIdentifier&#45;&gt;Exception</title>
<path fill="none" stroke="#000000" d="M203.15,-39.09C240.06,-82.89 340.03,-188.67 340.03,-188.67 340.03,-188.67 372.72,-207.21 401.74,-222.65"/>
<polygon fill="#000000" stroke="#000000" points="399.97,-225.68 410.45,-227.25 403.24,-219.49 399.97,-225.68"/>
</g>
<!-- X::Syntax::Pod::BeginWithoutIdentifier&#45;&gt;Exception -->
<g id="edge6" class="edge">
<title>X::Syntax::Pod::BeginWithoutIdentifier&#45;&gt;Exception</title>
<path fill="none" stroke="#000000" d="M212.17,-39.09C258.06,-82.89 358.03,-188.67 358.03,-188.67 358.03,-188.67 387.63,-205.46 412.41,-220.39"/>
<polygon fill="#000000" stroke="#000000" points="410.29,-223.19 420.65,-225.4 413.93,-217.21 410.29,-223.19"/>
</g>
<!-- X::Syntax::Pod::BeginWithoutIdentifier&#45;&gt;X::Syntax -->
<g id="edge10" class="edge">
<title>X::Syntax::Pod::BeginWithoutIdentifier&#45;&gt;X::Syntax</title>
<path fill="none" stroke="#6666ff" d="M255.15,-38.09C301.35,-50.61 362.6,-67.2 405.86,-78.93"/>
<polygon fill="#6666ff" stroke="#6666ff" points="404.7,-82.24 415.27,-81.48 406.53,-75.48 404.7,-82.24"/>
</g>
<!-- X::Syntax::Pod::BeginWithoutEnd -->
<g id="node8" class="node">
<title>X::Syntax::Pod::BeginWithoutEnd</title>
<g id="a_node8"><a xlink:href="/type/X::Syntax::Pod::BeginWithoutEnd" xlink:title="X::Syntax::Pod::BeginWithoutEnd">
<ellipse fill="none" stroke="#000000" cx="562.03" cy="-19.45" rx="164.05" ry="19.45"/>
<text xml:space="preserve" text-anchor="middle" x="562.03" y="-15.9" font-family="FreeSans" font-size="14.00" fill="#000000">X::Syntax::Pod::BeginWithoutEnd</text>
</a>
</g>
</g>
<!-- X::Syntax::Pod::BeginWithoutEnd&#45;&gt;X::Pod -->
<g id="edge13" class="edge">
<title>X::Syntax::Pod::BeginWithoutEnd&#45;&gt;X::Pod</title>
<path fill="none" stroke="#6666ff" d="M507.04,-38.18C467.84,-50.82 415.88,-67.58 379.56,-79.3"/>
<polygon fill="#6666ff" stroke="#6666ff" points="378.71,-75.9 370.26,-82.3 380.86,-82.56 378.71,-75.9"/>
</g>
<!-- X::Syntax::Pod::BeginWithoutEnd&#45;&gt;Exception -->
<g id="edge7" class="edge">
<title>X::Syntax::Pod::BeginWithoutEnd&#45;&gt;Exception</title>
<path fill="none" stroke="#000000" d="M548.42,-38.89C533.48,-66.09 513.03,-113.78 513.03,-113.78 513.03,-113.78 470.03,-188.67 470.03,-188.67 470.03,-188.67 462.12,-201.35 454.94,-214.47"/>
<polygon fill="#000000" stroke="#000000" points="451.99,-212.56 450.44,-223.04 458.18,-215.81 451.99,-212.56"/>
</g>
<!-- X::Syntax::Pod::BeginWithoutEnd&#45;&gt;Exception -->
<g id="edge8" class="edge">
<title>X::Syntax::Pod::BeginWithoutEnd&#45;&gt;Exception</title>
<path fill="none" stroke="#000000" d="M559.71,-39.33C551.25,-66.61 531.03,-113.78 531.03,-113.78 531.03,-113.78 488.03,-188.67 488.03,-188.67 488.03,-188.67 479.49,-202.36 469.83,-216.01"/>
<polygon fill="#000000" stroke="#000000" points="467.02,-213.93 463.94,-224.07 472.67,-218.06 467.02,-213.93"/>
</g>
<!-- X::Syntax::Pod::BeginWithoutEnd&#45;&gt;X::Syntax -->
<g id="edge12" class="edge">
<title>X::Syntax::Pod::BeginWithoutEnd&#45;&gt;X::Syntax</title>
<path fill="none" stroke="#6666ff" d="M535.78,-39.03C522.51,-48.42 506.27,-59.91 492.15,-69.9"/>
<polygon fill="#6666ff" stroke="#6666ff" points="490.16,-67.02 484.01,-75.66 494.2,-72.74 490.16,-67.02"/>
</g>
</g>
</svg>
