<?xml version="1.0" encoding="UTF-8" standalone="no"?>
<!DOCTYPE svg PUBLIC "-//W3C//DTD SVG 1.1//EN"
 "http://www.w3.org/Graphics/SVG/1.1/DTD/svg11.dtd">
<!-- Generated by graphviz version 14.1.2 (0)
 -->
<!-- Title: Rakudo Type Relation for X::Syntax::Regex::SolitaryQuantifier Pages: 1 -->
<svg width="257pt" height="136pt"
 viewBox="0.00 0.00 257.00 136.00" xmlns="http://www.w3.org/2000/svg" xmlns:xlink="http://www.w3.org/1999/xlink">
<g id="graph0" class="graph" transform="scale(1 1) rotate(0) translate(4 132.14)">
<title>Rakudo Type Relation for X::Syntax::Regex::SolitaryQuantifier</title>
<!-- X::Syntax::Regex::SolitaryQuantifier -->
<g id="node1" class="node">
<title>X::Syntax::Regex::SolitaryQuantifier</title>
<g id="a_node1"><a xlink:href="/type/X::Syntax::Regex::SolitaryQuantifier" xlink:title="class">
<polygon fill="none" stroke="#000000" points="249.25,-128.14 0,-128.14 0,-92.14 249.25,-92.14 249.25,-128.14"/>
<text xml:space="preserve" text-anchor="middle" x="124.62" y="-106.59" font-family="FreeSans" font-size="14.00">X::Syntax::Regex::SolitaryQuantifier</text>
</a>
</g>
</g>
<!-- Exception -->
<g id="node2" class="node">
<title>Exception</title>
<g id="a_node2"><a xlink:href="/type/Exception" xlink:title="class">
<polygon fill="none" stroke="#000000" points="108.88,-37.45 28.38,-37.45 28.38,-1.45 108.88,-1.45 108.88,-37.45"/>
<text xml:space="preserve" text-anchor="middle" x="68.62" y="-15.9" font-family="FreeSans" font-size="14.00">Exception</text>
</a>
</g>
</g>
<!-- X::Syntax::Regex::SolitaryQuantifier&#45;&gt;Exception -->
<g id="edge1" class="edge">
<title>X::Syntax::Regex::SolitaryQuantifier&#45;&gt;Exception</title>
<path fill="none" stroke="green" d="M113.83,-92.04C107.05,-81.31 98.09,-67.11 89.93,-54.18"/>
<polygon fill="green" stroke="green" points="82.81,-36.35 85.19,-46.68 76.89,-40.09 82.81,-36.35"/>
<ellipse fill="green" stroke="green" cx="88.4" cy="-51.76" rx="4" ry="4"/>
<text xml:space="preserve" text-anchor="middle" x="107.64" y="-60.84" font-family="Times,serif" font-size="14.00">is</text>
</g>
<!-- X::Syntax -->
<g id="node3" class="node">
<title>X::Syntax</title>
<g id="a_node3"><a xlink:href="/type/X::Syntax" xlink:title="class">
<ellipse fill="none" stroke="#6666ff" cx="180.62" cy="-19.45" rx="53.74" ry="19.45"/>
<text xml:space="preserve" text-anchor="middle" x="180.62" y="-15.9" font-family="FreeSans" font-size="14.00">X::Syntax</text>
</a>
</g>
</g>
<!-- X::Syntax::Regex::SolitaryQuantifier&#45;&gt;X::Syntax -->
<g id="edge2" class="edge">
<title>X::Syntax::Regex::SolitaryQuantifier&#45;&gt;X::Syntax</title>
<path fill="none" stroke="red" d="M135.42,-92.04C142.07,-81.52 150.82,-67.66 158.85,-54.94"/>
<polygon fill="red" stroke="red" points="171.78,-41.01 163.48,-47.59 165.86,-37.27 171.78,-41.01"/>
<ellipse fill="red" stroke="red" cx="160.27" cy="-52.68" rx="4" ry="4"/>
<text xml:space="preserve" text-anchor="middle" x="172.48" y="-60.84" font-family="Times,serif" font-size="14.00">does</text>
</g>
</g>
</svg>
